<svg xmlns="http://www.w3.org/2000/svg" xmlns:xlink="http://www.w3.org/1999/xlink" version="1.1" id="Layer_1" x="0px" y="0px" enable-background="new 0 0 1024 1024" xml:space="preserve" viewBox="296.54 133.06 433.61 803.97">
<path fill="#000000" opacity="1.000000" stroke="none" d=" M469.116821,893.940186   C469.011200,897.093079 468.996368,899.763611 468.780029,902.417664   C468.629150,904.268982 468.238556,906.223083 465.975372,906.625000   C463.598511,907.047119 462.221924,905.560547 461.408112,903.580994   C460.015839,900.194153 458.654846,896.789062 457.438080,893.336243   C447.017487,863.765625 433.223938,835.609741 421.147736,806.734070   C419.027802,801.665100 416.804321,796.638916 414.585938,791.611816   C412.386810,786.628235 411.722290,781.457825 411.940186,776.014282   C412.639496,758.545715 413.149445,741.069336 413.689362,723.594666   C414.795074,687.807190 415.830078,652.017578 416.975891,616.231384   C417.833771,589.438599 418.837219,562.650574 419.742584,535.859253   C420.456787,514.723938 421.082703,493.585693 421.827972,472.451569   C422.070190,465.583771 423.904480,463.876282 430.570770,463.708282   C443.058105,463.393616 455.544250,463.017120 468.033142,462.785309   C473.881287,462.676758 475.337067,463.985992 475.204620,469.703003   C474.132233,515.995911 474.388214,562.314941 472.477081,608.591003   C472.401489,610.421875 472.385742,612.255493 472.363831,614.088135   C471.933899,650.071777 471.925995,686.066772 470.952179,722.035583   C470.117767,752.855591 470.741425,783.681702 469.861969,814.485596   C469.110382,840.809326 469.646301,867.132507 469.116821,893.940186  z"/>
<path fill="#000000" opacity="1.000000" stroke="none" d=" M631.231567,703.879883   C626.635071,725.901245 613.682739,739.441284 592.484619,745.617737   C570.845398,751.922729 548.957703,755.352051 526.456726,752.446350   C504.229034,749.575928 490.923645,736.885925 486.287811,714.798401   C481.317444,691.116943 492.160431,666.553284 512.867126,655.102661   C521.869690,650.124329 531.915100,648.224731 541.878235,646.256104   C559.578613,642.758789 577.272522,642.800476 594.892090,646.802979   C615.114380,651.396790 629.092468,667.385803 631.354614,688.046753   C631.920776,693.217834 632.031189,698.317627 631.231567,703.879883  M593.676025,694.027405   C591.990356,687.084595 586.502991,684.249390 580.474915,682.510742   C569.038879,679.212280 557.511719,679.635803 546.025024,682.609253   C539.323181,684.344055 533.134583,686.916382 528.300415,692.136780   C521.859009,699.092773 523.428711,707.758301 531.987183,711.746704   C533.781677,712.582947 535.688843,713.242554 537.607727,713.735718   C546.457947,716.010193 555.407715,715.563599 564.304016,714.216309   C572.180542,713.023376 580.088501,711.720581 586.954590,707.177917   C591.381897,704.248718 594.386536,700.540894 593.676025,694.027405  z"/>
<path fill="#000000" opacity="1.000000" stroke="none" d=" M513.539673,599.500366   C518.570862,597.957214 523.164429,596.408691 526.111450,592.132812   C527.051270,590.769287 528.157593,589.333862 527.118164,587.569641   C526.212341,586.032166 524.574402,586.115845 523.089661,586.186218   C513.778870,586.627319 504.467773,587.074036 495.162170,587.612122   C489.796936,587.922363 488.703766,587.053711 488.672089,581.543640   C488.621338,572.715088 488.820099,563.883301 488.650024,555.057922   C488.555176,550.135864 490.840576,548.028198 495.513580,547.973328   C499.011475,547.932190 502.509247,547.881348 506.007080,547.833374   C534.486023,547.443054 562.965576,547.090088 591.443420,546.631409   C597.597778,546.532288 603.748291,546.090637 609.896362,545.734436   C614.295715,545.479553 616.597961,547.342407 617.423340,551.807007   C621.247498,572.491272 624.191101,593.192993 620.418701,614.230957   C618.599426,624.376099 612.329468,630.451904 602.631592,632.993103   C589.485901,636.437805 576.216431,635.952454 563.037537,633.173462   C557.675354,632.042786 553.189392,629.099365 550.133118,624.394226   C548.553833,621.962891 546.647888,620.855286 544.632996,623.455566   C533.409180,637.940125 516.939819,641.658875 500.397369,645.186035   C489.216278,647.570190 488.613495,646.999939 488.617859,635.786865   C488.620697,628.457153 488.790619,621.124207 488.618896,613.798950   C488.502197,608.819885 490.758301,606.051147 495.421936,604.768677   C501.358826,603.136047 507.250549,601.339172 513.539673,599.500366  M582.423584,581.351318   C576.794312,581.637695 571.165405,581.932495 565.535583,582.207520   C561.400879,582.409485 560.048096,584.424927 560.975281,588.477295   C561.822510,592.180054 563.670044,594.764221 567.250732,596.181091   C573.203125,598.536377 579.235229,598.695679 585.265625,596.787903   C590.993713,594.975830 592.768250,591.459839 591.653931,585.148193   C590.710327,579.803650 586.525635,581.718689 582.423584,581.351318  z"/>
<path fill="#000000" opacity="1.000000" stroke="none" d=" M500.017090,931.100403   C488.230682,922.108887 485.230560,909.318176 483.833435,896.053406   C482.613892,884.474976 484.653381,873.157104 488.598022,862.204102   C491.063995,855.356995 494.280029,853.466431 501.534332,854.437378   C509.798126,855.543335 518.104370,855.935547 526.444092,855.938354   C535.784424,855.941467 536.995544,857.876526 533.015015,866.127258   C531.052795,870.194519 529.241150,874.321960 528.536743,878.796204   C527.997803,882.219543 528.460083,885.587708 531.538452,887.774170   C534.406738,889.811401 537.341675,888.587219 540.018738,887.151978   C544.992126,884.485474 548.550293,880.286194 551.660950,875.707520   C556.807678,868.131836 561.570618,860.275940 567.032104,852.937744   C579.037476,836.807068 598.173584,831.075745 616.760071,837.525391   C632.492065,842.984558 638.594482,855.526001 641.132019,870.625793   C643.118835,882.448547 642.207092,894.174683 639.438293,905.791748   C637.841919,912.489624 635.853760,914.590271 629.220703,915.514221   C618.841125,916.960022 608.442322,918.307251 598.019958,919.390686   C592.214844,919.994141 590.294800,917.232056 592.597107,911.841980   C595.015686,906.179810 598.012085,900.758728 600.311401,895.053040   C601.981873,890.907471 603.748413,885.991943 599.304565,882.668579   C595.043091,879.481628 591.444214,883.370544 588.120422,885.534607   C582.063965,889.477905 579.011047,896.029846 575.062561,901.756714   C569.883240,909.268738 565.859192,917.498230 559.042908,923.956665   C546.724548,935.628357 516.382874,942.708557 500.017090,931.100403  z"/>
<path fill="#000000" opacity="1.000000" stroke="none" d=" M347.552887,367.626282   C347.974670,361.023499 348.373566,354.881866 348.748169,348.738770   C348.939697,345.598358 350.413849,343.726379 353.712982,343.720093   C363.542328,343.701385 373.371704,343.710571 383.201080,343.718292   C387.489410,343.721680 388.732391,346.319244 388.170929,350.006775   C387.036133,357.459534 387.664032,364.983093 387.056213,372.441681   C386.707458,376.720947 387.966797,379.243042 392.471252,379.581146   C396.984711,379.919952 399.216705,377.712952 399.759003,372.817200   C400.493744,366.184296 400.693604,359.542938 400.725281,352.877533   C400.761780,345.194275 401.587921,344.364471 409.052643,343.396851   C416.356903,342.450043 423.690613,342.882751 431.013367,342.958282   C435.302307,343.002533 437.429840,345.234467 437.193573,349.602142   C436.348633,365.221588 435.454285,380.838684 434.697296,396.462402   C434.076935,409.265472 433.643616,422.077484 433.087860,434.883820   C432.929169,438.540283 432.685699,442.195099 432.387695,445.843048   C431.817291,452.824341 430.962982,453.722504 423.892365,453.935150   C416.399963,454.160492 408.899658,454.262817 401.404388,454.207458   C396.204193,454.169098 394.495148,452.089355 395.153625,446.997711   C396.243744,438.568878 395.126282,430.016876 396.704834,421.605347   C397.347717,418.179443 395.424103,416.221863 392.110138,415.730652   C388.708862,415.226501 385.622345,415.908630 384.349121,419.515015   C383.645538,421.508026 383.497894,423.744080 383.373962,425.886444   C382.941467,433.364014 382.591034,440.846954 382.285156,448.330933   C382.119720,452.377838 380.258331,454.357422 376.072449,454.419952   C366.748138,454.559265 357.428101,454.997345 348.103790,455.122589   C341.970917,455.204956 340.621338,453.275299 341.141724,447.170349   C342.441528,431.922699 343.498871,416.654510 344.714264,401.399414   C345.599274,390.291229 346.581238,379.190765 347.552887,367.626282  z"/>
<path fill="#000000" opacity="1.000000" stroke="none" d=" M555.275696,836.362610   C540.596375,846.263184 524.983032,847.087097 509.079193,841.867310   C493.234436,836.666809 487.145386,823.935730 485.886383,808.354248   C484.695496,793.615479 488.388580,779.606567 492.858643,765.766174   C493.876099,762.615784 496.328949,761.243774 499.498230,761.767334   C509.763794,763.463196 520.105652,762.759460 530.419006,762.988953   C538.389893,763.166321 539.685303,765.246399 536.147583,772.391663   C533.041809,778.664551 529.785522,784.838318 528.687805,791.891052   C528.114380,795.575500 528.235779,798.883179 531.653687,801.226501   C535.162598,803.632080 537.991394,801.634277 540.767517,799.741333   C548.849182,794.230591 553.241882,785.544861 559.074524,778.125244   C565.310425,770.192627 571.742371,762.716736 581.306396,758.558411   C592.954956,753.493652 604.575195,753.405945 616.248596,758.186768   C621.314514,760.261414 625.520752,763.565674 628.119812,768.460388   C635.666443,782.672974 637.947693,797.689087 634.197998,813.408325   C632.688721,819.735352 629.463745,822.530823 622.935852,822.864990   C614.958130,823.273376 606.943298,823.227905 598.953430,823.025940   C594.236816,822.906677 593.117798,820.975952 594.464050,816.504395   C595.566040,812.844116 596.940125,809.252075 597.809692,805.539795   C598.483765,802.661865 597.987976,799.832214 595.130676,798.079956   C592.448059,796.434692 589.999451,797.497314 587.639343,798.906921   C583.351624,801.468018 580.782776,805.681580 577.859863,809.480103   C573.698975,814.887573 569.912170,820.581909 565.929749,826.127991   C563.084961,830.089722 559.629639,833.439087 555.275696,836.362610  z"/>
<path fill="#000000" opacity="1.000000" stroke="none" d=" M472.721741,136.661591   C479.479645,134.664093 480.281769,135.167480 480.199036,141.511597   C479.462616,197.970093 478.701813,254.428268 477.918671,310.886139   C477.877136,313.879395 477.527527,316.867157 477.394501,319.860718   C477.141724,325.549377 475.640656,326.779297 470.274872,324.900116   C462.578033,322.204529 454.989197,319.200409 447.354919,316.326263   C442.680328,314.566376 438.038330,312.713104 433.323792,311.067841   C428.989075,309.555054 426.799530,306.702026 426.965393,302.072113   C427.793915,278.945618 428.608490,255.818604 429.433563,232.691971   C429.866882,220.545929 429.881409,208.393539 430.578796,196.246536   C431.341980,182.954132 431.470612,169.622925 431.742096,156.305908   C431.844147,151.300339 433.956726,148.325516 438.895599,146.905090   C450.090881,143.685318 461.199646,140.164642 472.721741,136.661591  z"/>
<path fill="#000000" opacity="1.000000" stroke="none" d=" M490.042664,491.334045   C494.234619,477.289825 503.479675,469.236115 517.009827,465.270935   C540.402100,458.415588 563.748291,457.298798 587.394348,464.001160   C603.448303,468.551544 612.828674,479.083374 616.649414,494.951294   C619.137878,505.286011 618.975830,515.724548 617.371948,526.185730   C616.659180,530.834534 613.962708,533.300598 609.380920,533.641541   C598.570618,534.445923 587.738098,534.199280 576.918213,533.979004   C572.843872,533.896057 571.753906,531.420593 573.500183,527.808594   C575.963623,522.713501 578.767700,517.764893 580.938049,512.550476   C584.284790,504.509613 582.621155,501.289307 574.361938,498.848938   C561.488220,495.045105 548.706604,495.700439 536.048035,499.883575   C529.284729,502.118561 527.432312,506.426147 530.242615,513.134338   C532.594971,518.749390 536.039185,523.594727 540.487244,527.752686   C541.809998,528.989197 543.375793,530.291077 542.572693,532.428589   C541.798401,534.489502 539.794678,534.784729 537.990479,534.846436   C523.511963,535.341614 509.030945,535.769714 494.549011,536.155640   C490.997803,536.250244 489.058136,534.416199 488.537842,530.841003   C486.626953,517.709473 486.458008,504.654572 490.042664,491.334045  z"/>
<path fill="#000000" opacity="1.000000" stroke="none" d=" M693.120483,448.303131   C680.335693,449.146301 668.053528,449.375153 655.731995,448.322021   C647.009338,447.576508 645.811340,446.447540 647.559387,437.983765   C648.735657,432.288635 650.041931,426.620270 651.294250,420.940857   C652.202515,416.821808 654.278870,414.999115 658.810120,416.262390   C667.431946,418.666168 676.302185,418.153717 685.119690,417.785889   C689.103821,417.619659 692.518738,415.950928 695.366577,413.178864   C696.947571,411.639862 698.633240,409.911163 697.220032,407.556519   C695.903137,405.362366 693.694153,406.139496 691.807007,406.745880   C686.217590,408.541779 680.558899,409.614594 674.638550,409.420044   C661.507935,408.988586 654.722290,402.054443 654.690063,389.024567   C654.659241,376.556274 656.570801,364.120697 655.077881,351.617462   C654.571899,347.379913 656.742981,344.683197 661.234314,344.126648   C666.717712,343.447144 672.204956,343.551727 677.685059,343.957855   C681.914429,344.271301 683.111694,347.180145 683.203552,350.914886   C683.387634,358.398163 683.549316,365.882996 683.856201,373.361603   C683.950073,375.650482 684.837952,377.593597 687.603882,377.864380   C690.287537,378.127197 692.611633,377.559967 694.079590,375.105591   C695.594177,372.573425 695.925415,369.772491 695.511658,366.903534   C694.776062,361.802643 694.025757,356.702026 693.158020,351.622406   C692.066467,345.232666 692.957214,344.029266 699.535278,343.624878   C704.348450,343.328979 709.167542,343.128540 713.981018,342.836853   C718.275940,342.576599 720.599182,344.737152 721.096313,348.817657   C723.487915,368.447632 726.707031,387.977570 728.312744,407.701782   C729.009949,416.266113 731.354065,424.719879 729.378845,433.460815   C727.517578,441.697418 723.011230,446.097687 714.539856,447.324615   C707.584412,448.332001 700.591919,448.176880 693.120483,448.303131  z"/>
<path fill="#000000" opacity="1.000000" stroke="none" d=" M502.875916,436.224365   C504.860565,407.611725 510.789948,380.139099 516.878418,352.696777   C518.598145,344.945557 519.013000,344.692322 526.842712,344.680542   C535.840271,344.666992 544.837830,344.657898 553.835327,344.683380   C560.901917,344.703400 562.226501,345.592010 564.386780,352.098572   C572.574097,376.757996 579.069824,401.890259 585.165588,427.128510   C586.491211,432.616791 587.279907,438.233948 588.578186,443.729767   C589.564636,447.905670 587.985413,449.807526 583.912170,449.877594   C576.249512,450.009430 568.585571,450.078735 560.921875,450.132599   C557.811340,450.154480 555.901794,448.673218 555.460510,445.488007   C554.912842,441.535065 554.247559,437.595978 553.805115,433.631714   C553.420593,430.185822 551.383606,428.669220 548.194397,428.412445   C546.372620,428.265747 544.529663,428.300781 542.699280,428.356293   C536.901123,428.532074 535.454834,430.179291 535.755188,436.090027   C535.890442,438.751740 536.021362,441.415955 536.052063,444.080200   C536.121521,450.114716 534.890930,451.696838 529.023560,451.950897   C522.036865,452.253387 515.031860,452.121124 508.035309,452.214355   C504.261658,452.264648 502.533081,450.438843 502.656921,446.691864   C502.766937,443.362061 502.785889,440.029236 502.875916,436.224365  M537.196716,395.223389   C537.204468,398.534668 537.292664,401.982941 541.977905,401.486450   C544.992676,401.166931 548.242554,400.325500 547.462646,396.098419   C546.413635,390.413208 545.094177,384.777679 543.871521,379.125000   C543.623230,377.977112 543.291443,376.718506 541.892578,376.594086   C540.156860,376.439697 539.743347,377.931458 539.397156,379.172638   C538.015503,384.125702 537.107483,389.158539 537.196716,395.223389  z"/>
<path fill="#000000" opacity="1.000000" stroke="none" d=" M547.000000,272.836517   C563.473022,273.220184 579.453003,272.235596 595.435852,273.457428   C600.693298,273.859344 601.893372,276.484222 602.041260,280.782837   C602.447510,292.595795 602.835815,304.409515 603.288879,316.220673   C603.441833,320.207245 603.741638,324.189056 604.021667,328.169678   C604.295105,332.056946 602.700073,334.228516 598.634338,334.227386   C592.138794,334.225525 585.641724,334.134827 579.148132,334.246857   C574.517700,334.326752 573.071899,331.667816 572.877502,327.645569   C572.531982,320.498688 572.166077,313.352692 571.784668,306.207611   C571.641541,303.528198 571.751526,300.326050 567.938293,300.449799   C564.212830,300.570679 564.263062,303.690704 564.363403,306.411865   C564.620850,313.395172 565.087646,320.372803 565.231201,327.357666   C565.351807,333.224365 564.407349,334.130920 558.721436,334.209015   C552.726624,334.291351 546.725220,334.083191 540.735168,334.271606   C536.329102,334.410217 534.248840,332.451874 534.017883,328.172394   C533.614258,320.695007 533.136475,313.221527 532.758240,305.742950   C532.616272,302.935425 532.297058,299.804413 528.901123,299.803986   C525.262939,299.803558 525.338318,303.155975 525.409180,305.836029   C525.611328,313.487610 525.999451,321.122711 525.516235,328.793152   C525.278259,332.570953 523.867859,334.291504 520.112061,334.271240   C511.617950,334.225372 503.122772,334.320007 494.629364,334.231201   C489.432678,334.176880 487.912781,332.653778 487.971100,327.162964   C488.109131,314.178345 488.441895,301.195831 488.690033,288.212341   C488.718658,286.713745 488.709595,285.214447 488.718964,283.715454   C488.794220,271.682037 488.817474,271.296478 501.060760,272.034119   C516.209656,272.946869 531.353760,272.625946 547.000000,272.836517  z"/>
<path fill="#000000" opacity="1.000000" stroke="none" d=" M641.171509,425.955750   C639.862671,431.893219 638.539246,437.393799 637.421326,442.935852   C636.671082,446.655243 634.591309,448.280243 630.817810,448.293884   C623.493164,448.320374 616.167053,448.201355 608.852356,448.987640   C604.357239,449.470825 601.425232,447.292511 599.547546,443.052216   C591.826355,425.615112 587.329834,407.133850 581.886292,388.968658   C578.208252,376.695190 575.042725,364.264343 571.833862,351.855804   C570.238647,345.687164 571.561829,344.032349 578.001221,343.775391   C582.992126,343.576202 587.997192,343.644012 592.994324,343.712006   C599.918640,343.806244 601.749573,345.296265 603.254333,352.069519   C605.995911,364.409729 608.632629,376.773407 611.417725,389.103668   C611.876892,391.136383 611.819641,393.469116 614.207886,395.446960   C616.606140,391.869720 616.174683,387.806122 616.599060,384.109039   C617.869263,373.044220 618.799561,361.940491 619.873230,350.852966   C620.325500,346.183044 622.554016,343.541138 627.608093,343.673615   C633.102539,343.817627 638.604980,343.625488 644.102173,343.704681   C649.757324,343.786163 651.539612,345.257019 651.086365,350.889954   C650.019470,364.150146 648.792053,377.412811 647.058350,390.599335   C645.520325,402.297668 643.212402,413.894775 641.171509,425.955750  z"/>
<path fill="#000000" opacity="1.000000" stroke="none" d=" M509.441071,222.264542   C504.689575,220.690399 500.140381,221.516464 495.675110,221.164978   C489.937347,220.713333 488.653656,219.468704 488.619263,213.861526   C488.587585,208.695557 488.712036,203.527435 488.607086,198.363525   C488.533051,194.720444 489.903961,192.858826 493.762451,192.588943   C511.916809,191.319229 530.053955,191.648346 548.185669,192.912323   C552.084167,193.184097 554.268799,195.299759 554.255920,199.389709   C554.239624,204.555725 554.148804,209.725479 554.310181,214.886734   C554.426147,218.596771 552.536926,219.966721 549.180237,220.094742   C547.183533,220.170883 545.171814,220.173080 543.197693,220.438065   C540.959473,220.738510 539.500061,222.113525 539.496216,224.442734   C539.492371,226.777267 541.022095,228.139847 543.186584,228.506119   C544.976929,228.809097 546.836304,228.744141 548.666016,228.767899   C563.320496,228.958054 577.979614,228.330551 592.632568,229.487000   C597.091003,229.838867 598.976929,231.836624 599.222412,235.902328   C599.633972,242.718536 599.842896,249.547943 600.321350,256.358856   C600.630432,260.757874 598.597107,262.350891 594.436340,262.292786   C580.939209,262.104187 567.428772,262.334381 553.945129,261.827545   C534.950317,261.113525 515.959167,261.408936 496.966034,261.316467   C489.499634,261.280090 488.775757,260.570953 488.783020,252.920975   C488.788116,247.588150 488.770020,242.254303 488.866028,236.922791   C488.994843,229.770126 490.319336,228.576065 497.586914,228.929108   C500.741577,229.082382 503.924347,229.734756 507.034698,229.467194   C511.620270,229.072769 512.608093,226.195099 509.441071,222.264542  z"/>
<path fill="#000000" opacity="1.000000" stroke="none" d=" M482.426727,451.543884   C469.989441,452.069885 458.012634,452.547302 446.035828,453.024139   C441.749634,453.194794 439.471832,451.454956 439.686829,446.844513   C440.632721,426.560699 441.508331,406.273560 442.377167,385.986237   C442.847198,375.011292 443.312531,364.035492 443.666962,353.056427   C443.928314,344.959961 445.069977,343.692780 452.942108,343.683868   C467.435242,343.667419 481.928497,343.654877 496.421539,343.699097   C502.971619,343.719086 504.351227,345.107391 504.167480,351.685791   C504.032837,356.506592 503.473816,361.316040 503.358978,366.136658   C503.274872,369.667938 501.717163,371.334259 498.222870,371.420837   C492.231689,371.569275 486.241089,371.760925 480.252563,371.993164   C474.757141,372.206238 472.143890,374.259186 472.438904,378.208740   C472.804535,383.103394 476.102112,383.961975 480.226013,383.710876   C484.710266,383.437836 489.202087,383.283905 493.691650,383.104340   C499.356628,382.877716 501.288086,384.776031 501.039337,390.458435   C500.864746,394.446106 500.382080,398.425598 500.335968,402.412170   C500.282806,407.011078 498.020477,409.148193 493.588013,409.213043   C488.258057,409.291046 482.925507,409.405243 477.597260,409.314697   C473.244843,409.240753 471.105865,411.039337 471.157898,415.536346   C471.211426,420.161194 473.936737,420.997406 477.775085,420.846741   C482.101257,420.676880 486.438080,420.788208 490.765869,420.645111   C494.573151,420.519287 496.213013,422.320740 496.280396,426.036621   C496.404480,432.878845 495.960876,439.684662 495.205811,446.474640   C494.858185,449.600647 493.040802,451.208740 489.880219,451.287689   C487.548920,451.345947 485.218201,451.425201 482.426727,451.543884  z"/>
<path fill="#000000" opacity="1.000000" stroke="none" d=" M596.381653,195.649490   C597.156616,201.408646 597.308289,206.727966 597.360229,212.063370   C597.394104,215.547424 596.042419,217.434067 592.403076,217.363800   C584.411255,217.209488 576.418640,217.089874 568.427002,216.926834   C563.581726,216.828018 561.744019,214.139526 561.807800,209.501114   C561.894836,203.174072 561.731628,196.843704 561.685547,190.514679   C561.631958,183.155762 559.647156,180.716766 552.489319,180.360458   C540.674683,179.772369 528.850220,180.105698 517.040527,180.736954   C509.396820,181.145523 501.759125,181.665695 494.118713,182.135712   C489.931702,182.393280 487.801239,180.320114 487.871826,176.229889   C488.090210,163.579712 488.325195,150.928162 488.760620,138.284286   C488.916595,133.755051 491.379333,132.188782 496.451721,133.515335   C513.995483,138.103500 531.490356,142.878845 549.000000,147.596985   C556.841492,149.709930 556.944092,149.734467 557.643738,141.787720   C557.910767,138.754517 559.409912,137.530060 562.152100,137.815811   C571.247070,138.763550 580.338196,139.765686 589.408752,140.920319   C592.356445,141.295563 593.436462,143.748444 593.733704,146.353912   C594.336243,151.637009 594.935364,156.933670 595.184082,162.241226   C595.698303,173.214783 595.982300,184.199127 596.381653,195.649490  z"/>
<path fill="#000000" opacity="1.000000" stroke="none" d=" M304.936646,329.258484   C306.446594,325.925812 308.761841,326.351715 310.979462,327.438782   C319.802917,331.764069 328.573120,336.197937 337.361969,340.593811   C340.518127,342.172455 340.482971,345.068695 340.272858,347.940979   C339.229187,362.208008 338.136414,376.471466 337.057281,390.735901   C335.814667,407.160767 334.569275,423.585419 333.321930,440.009949   C333.161835,442.117798 333.717133,444.731171 331.248779,445.706360   C328.980621,446.602478 327.711304,444.359039 326.298859,443.066162   C318.311401,435.754669 310.509613,428.232971 302.357147,421.111969   C297.935547,417.249756 296.000732,412.913422 296.673706,407.064972   C298.593567,390.380798 300.336487,373.675995 302.098511,356.973999   C303.057953,347.879791 303.914734,338.774780 304.936646,329.258484  z"/>
<path fill="#000000" opacity="1.000000" stroke="none" d=" M390.000061,319.687744   C400.322784,319.692413 410.154694,319.964630 419.965546,319.626251   C429.477448,319.298218 438.459320,321.070129 447.253784,324.522064   C452.359436,326.526154 457.639984,328.080597 462.805084,329.939423   C464.760040,330.642975 467.444153,331.096405 466.772552,334.084106   C466.203156,336.617249 463.814789,336.351593 461.830688,336.355469   C454.172363,336.370544 446.513947,336.348267 438.855560,336.347351   C414.215393,336.344421 389.573303,336.168152 364.936066,336.435516   C355.776093,336.534912 347.095917,335.225067 338.652069,331.692352   C333.903137,329.705566 328.935242,328.246735 324.092468,326.477539   C321.895111,325.674835 319.270325,324.813110 319.883575,321.808533   C320.496002,318.807983 323.336853,318.951721 325.591614,319.157959   C336.397675,320.146362 347.221069,319.553467 358.034149,319.677643   C368.521454,319.798157 379.011322,319.693756 390.000061,319.687744  z"/>
<path fill="#000000" opacity="1.000000" stroke="none" d=" M703.838318,336.579102   C701.825684,336.917572 700.174683,337.185028 698.523499,337.186188   C671.713318,337.205048 644.903198,337.210083 618.093018,337.171021   C609.730103,337.158813 605.265198,329.488342 609.236267,322.011230   C610.843872,318.984375 613.924072,319.005524 616.693481,319.038544   C624.845642,319.135773 633.048157,320.194366 641.134888,319.590515   C662.572510,317.989594 682.047424,325.828522 702.031616,331.301849   C704.515625,331.982178 707.223389,333.101410 703.838318,336.579102  z"/>
</svg>