<svg xmlns="http://www.w3.org/2000/svg" xmlns:xlink="http://www.w3.org/1999/xlink" version="1.1" id="Layer_1" x="0px" y="0px" enable-background="new 0 0 1024 1024" xml:space="preserve" viewBox="251.02 19.1 537.02 974.55">
<path fill="#000000" opacity="1.000000" stroke="none" d=" M504.350830,760.823730   C473.942566,745.748352 463.882477,711.769470 480.581848,682.158447   C491.830109,662.213196 509.118774,650.367554 530.323303,642.869568   C547.141541,636.922546 564.395020,634.387390 582.187744,633.145386   C565.595520,629.173828 553.893799,618.380981 543.633057,605.673767   C541.209412,602.672241 539.380676,603.470398 537.140076,605.702759   C529.231873,613.582092 520.889038,621.063354 513.428711,629.342285   C507.186310,636.269714 499.415314,641.118286 492.248016,646.747314   C484.721130,652.658752 476.378418,648.844910 475.895630,639.273193   C475.342743,628.312683 475.533142,617.282654 476.042603,606.312622   C476.349670,599.701416 481.098694,596.269531 487.126740,594.274292   C498.733063,590.432861 508.310944,583.297119 517.232422,575.179565   C519.008240,573.563721 520.757935,571.665771 519.535461,569.119080   C518.277954,566.499512 515.757568,567.692261 513.754150,568.026550   C505.868439,569.342041 498.086395,571.131775 490.337738,573.120605   C480.920837,575.537598 476.989288,572.567566 475.655975,563.136658   C474.518646,555.092285 474.998688,547.228088 476.664673,539.328613   C478.240234,531.857727 481.734253,528.971619 489.435455,528.836975   C503.254517,528.595337 517.079163,528.411865 530.886841,527.846680   C549.862854,527.069946 568.563965,523.679443 587.376709,521.368164   C597.610535,520.110901 607.795105,518.455444 618.005859,517.007751   C627.924438,515.601562 632.851624,518.971375 635.764954,528.647278   C642.572632,551.257568 644.309265,573.990967 638.154907,597.060059   C632.326782,618.906433 618.846985,631.886780 595.876221,634.102722   C595.380920,634.150513 594.885925,634.210205 594.395752,634.293701   C594.307678,634.308716 594.244202,634.467834 594.093933,634.653687   C600.491577,636.586609 607.011658,637.965820 613.179382,640.503174   C648.781799,655.149414 656.576660,690.819824 637.568604,721.074646   C625.875366,739.686646 608.165894,751.171326 588.117737,759.147827   C574.393921,764.608093 559.893921,767.231445 545.233398,767.849731   C531.370117,768.434570 517.666748,766.463623 504.350830,760.823730  M587.631104,672.852051   C572.480042,668.599731 558.294983,672.856018 544.336914,678.078064   C534.908142,681.605591 526.169922,686.513489 519.466492,694.283386   C510.001953,705.253662 512.300842,715.357788 524.444458,722.856934   C526.128418,723.896790 528.016113,724.667725 529.893433,725.322937   C539.512512,728.679932 549.335571,729.516907 559.398315,727.694275   C576.856934,724.532166 592.810242,718.440002 604.359680,704.146667   C608.661682,698.822571 611.130554,691.148987 607.490173,686.829041   C602.230774,680.587891 596.569885,675.168701 587.631104,672.852051  M568.121460,582.359619   C573.478394,588.367737 579.168762,593.889893 587.329773,595.952271   C593.140076,597.420593 597.036194,596.148743 600.111816,591.093567   C606.677551,580.301819 605.742981,568.903381 602.334106,557.412903   C601.690002,555.241821 599.802368,554.994202 597.870667,555.130859   C585.939880,555.974487 574.071106,557.339355 562.314941,559.565491   C558.469482,560.293579 557.580627,562.523743 559.030823,566.145630   C561.269897,571.737671 564.106262,576.965210 568.121460,582.359619  z"/>
<path fill="#000000" opacity="1.000000" stroke="none" d=" M580.562744,409.826477   C571.503662,410.524750 568.930176,408.197052 567.612122,399.641998   C566.008545,389.233429 562.616821,379.296234 558.803040,369.506134   C558.086121,367.665649 556.995056,366.248291 554.826050,366.308044   C542.979614,366.634369 531.931152,369.447144 521.689514,376.885315   C528.126465,379.985199 529.032349,385.123291 528.300598,390.983612   C528.094788,392.632080 528.220093,394.324524 527.980591,395.965729   C526.071045,409.048279 523.150452,411.544891 509.836517,412.007172   C497.845245,412.423523 485.953033,413.833191 474.103333,415.718597   C468.168945,416.662811 462.162262,416.752747 456.218384,415.584534   C436.152344,411.640747 428.385895,396.725220 423.958710,379.036530   C422.195496,371.991669 422.235382,364.758392 424.415985,357.797028   C425.582733,354.072479 423.077057,351.401947 422.794952,348.096436   C416.578613,355.447418 414.367981,361.982788 415.466644,371.467957   C416.499481,380.384735 417.839325,389.269684 419.219269,398.141388   C420.363861,405.500214 417.656006,410.395386 410.572632,412.139343   C405.053101,413.498291 399.708923,415.250793 394.400970,417.247620   C388.669128,419.403900 385.111511,417.439453 383.589813,411.453461   C381.392242,402.808594 384.135651,394.253571 384.304871,385.645569   C384.458344,377.838165 385.363922,370.047150 385.866974,362.244354   C386.099426,358.638580 384.661713,357.082886 380.754761,357.774292   C371.902527,359.340820 362.982391,360.472626 354.404755,363.395782   C350.878510,364.597473 349.207336,366.588654 349.420624,370.354309   C350.144653,383.137939 349.708252,396.027802 352.581848,408.614777   C353.840332,414.127167 352.085266,418.189148 347.419220,420.938873   C339.660400,425.511169 331.486420,429.334290 323.080017,432.489777   C315.950195,435.166077 311.168793,431.435913 311.735321,423.924866   C312.785461,410.001892 314.170410,396.104340 315.372528,382.192474   C315.615936,379.375610 315.676025,376.542511 315.803467,373.716156   C315.882507,371.963928 315.375671,370.631104 313.845551,369.440887   C305.508148,362.955841 304.018890,355.622040 311.505493,348.507874   C318.102234,342.239380 318.567230,335.070831 318.677765,327.325836   C318.817993,317.501648 318.918823,307.678894 318.165314,297.850464   C317.484039,288.963776 321.225067,284.843384 329.922882,283.942139   C335.138855,283.401672 339.736359,280.816284 344.707916,279.451233   C354.036285,276.889923 358.074707,280.551910 356.682373,290.065674   C354.826263,302.748596 353.298645,315.479248 351.531464,328.175690   C350.954376,332.321960 352.109589,334.088470 356.645599,333.364685   C364.036377,332.185425 371.516083,331.566162 378.910248,330.404877   C386.401428,329.228394 386.905640,328.575287 386.862305,321.071472   C386.807465,311.586151 387.531067,302.123932 387.052124,292.613342   C386.542816,282.500366 387.533905,281.556427 397.156677,278.376526   C401.266266,277.018494 405.387634,275.671692 409.565155,274.548706   C418.775696,272.072723 424.059631,276.301880 423.088501,285.796265   C421.903992,297.376038 420.259552,308.910919 418.680756,320.446930   C418.215424,323.847076 417.902100,326.881012 420.784302,329.624023   C422.763947,331.508087 423.234100,334.278412 422.769836,337.086182   C422.418976,339.208313 422.176941,341.346069 423.557556,343.596100   C425.927307,340.608734 428.123413,337.713837 430.461731,334.938751   C431.928619,333.197876 431.446777,331.714661 430.510468,329.940308   C423.238525,316.160126 424.781433,303.026733 433.581512,290.477203   C436.474823,286.351074 440.841705,284.166473 445.110504,281.932465   C450.309967,279.211426 455.904114,277.422852 461.660889,276.449219   C473.991394,274.363739 486.405914,273.123199 498.911285,274.702820   C504.322083,275.386292 506.179901,277.508423 505.320282,282.671417   C504.450256,287.897125 503.169983,293.099976 501.533813,298.138885   C500.132812,302.453522 495.785950,304.085754 489.709991,302.898376   C483.699829,301.723785 477.787384,301.779022 471.900726,303.403168   C468.654907,304.298706 465.556519,305.641144 463.152466,308.035278   C460.754822,310.423065 459.744232,313.270782 461.232880,316.681152   C462.645355,319.916992 465.092285,321.121643 468.442566,320.735504   C474.226685,320.068939 479.987579,319.079163 485.788971,318.715424   C492.817352,318.274719 495.475433,321.094849 495.286743,328.218231   C495.216370,330.875671 494.826965,333.525848 494.554779,336.176453   C493.693237,344.566650 491.723999,346.312622 483.096069,346.368805   C470.779205,346.449005 464.070953,350.553070 460.411987,359.905243   C457.392181,367.623840 457.412018,375.117554 462.852570,381.568176   C468.238464,387.953857 475.906555,387.684937 483.256073,386.407837   C488.961731,385.416412 494.549133,383.628357 500.408203,381.151276   C494.594666,375.140045 497.539032,366.957825 494.463287,360.095734   C492.690735,356.141083 496.509277,352.226532 500.009003,349.791260   C503.646362,347.260254 505.618286,344.046936 506.868439,339.831238   C511.554291,324.029694 516.594666,308.333588 521.396057,292.565643   C522.164978,290.040283 522.438599,287.357452 522.861023,284.734528   C523.898438,278.293732 526.852844,275.541779 533.318237,274.677826   C537.935852,274.060791 542.517273,273.169128 547.110840,272.376831   C554.804077,271.049957 559.246155,273.307709 561.169678,280.694702   C565.297241,296.546417 571.271729,311.702972 577.404846,326.833527   C579.420776,331.806671 581.435608,336.661987 585.100769,340.712952   C588.413330,344.374176 589.861389,348.689758 588.718750,353.650848   C588.069641,356.469238 589.220276,358.904633 590.345215,361.316559   C595.061157,371.427643 600.124695,381.388977 604.487000,391.649200   C609.220093,402.781403 605.261353,408.267456 593.316223,407.988037   C589.106140,407.889557 585.047974,408.802582 580.562744,409.826477  M541.677551,329.002716   C540.222778,332.945526 537.839172,336.603210 537.635132,341.020691   C543.529541,341.293579 546.464661,340.692780 546.362000,338.931824   C546.138367,335.096497 546.163391,330.874725 541.677551,329.002716  z"/>
<path fill="#000000" opacity="1.000000" stroke="none" d=" M412.672852,507.037354   C412.800690,490.422638 412.483948,474.309753 411.971649,458.195129   C411.792542,452.561462 412.244110,446.894623 412.641632,441.259399   C413.052979,435.427826 415.818604,431.908386 421.575592,430.667725   C432.953491,428.215820 444.377167,425.932037 455.851379,423.988831   C462.362396,422.886169 466.484772,426.667603 466.161682,433.507172   C465.345612,450.782776 464.648529,468.064056 463.632019,485.334961   C462.450073,505.417206 461.191040,525.563782 462.316559,545.742249   C462.695526,552.537048 462.602600,559.415161 462.027283,566.195923   C460.079010,589.156921 461.631531,612.154968 460.947754,635.126343   C459.366058,688.260864 460.639313,741.416077 459.934753,794.558289   C459.628296,817.671387 458.856628,840.806824 459.549896,863.894470   C459.989014,878.518066 458.188599,893.121887 459.966888,907.757935   C460.716309,913.926147 459.153259,920.244751 459.860291,926.621338   C460.385315,931.356567 456.604401,934.992859 452.638092,935.289124   C447.771210,935.652649 445.292419,933.132446 443.736694,927.844788   C437.639191,907.120483 431.425262,886.436707 424.545776,865.942627   C418.990540,849.393555 412.181213,833.330566 406.669983,816.747559   C401.319794,800.648987 403.078674,784.566162 403.237671,768.442261   C403.381866,753.823425 404.825195,739.216248 405.735413,724.606384   C406.868866,706.413696 408.638916,688.235291 408.994843,670.028381   C409.241547,657.407471 409.729065,644.772461 410.359772,632.199158   C411.051208,618.413635 409.952026,604.625732 411.376129,590.847900   C412.261353,582.283752 411.760559,573.576233 411.879395,564.933044   C412.142487,545.798767 412.403961,526.664490 412.672852,507.037354  z"/>
<path fill="#000000" opacity="1.000000" stroke="none" d=" M578.819214,876.816284   C585.798218,870.190918 593.172180,865.118286 602.310730,862.485840   C612.620911,859.515991 621.522034,862.266174 629.591187,868.181335   C643.727356,878.543945 652.173645,892.835815 656.488892,909.655151   C660.784302,926.397156 661.555359,943.191650 656.592102,959.951416   C654.505981,966.995789 651.036743,969.771118 643.596863,970.138916   C632.298767,970.697510 620.987915,970.994995 609.683289,971.425781   C606.058594,971.563904 602.477722,971.435608 600.702698,967.571167   C598.850281,963.538391 599.762878,959.651123 602.395081,956.315796   C605.174194,952.794373 608.323425,949.592285 611.019653,945.963684   C618.076172,936.466797 618.020386,926.586914 613.306580,916.276062   C610.567505,910.284729 606.569519,909.231812 601.427673,913.451233   C592.422546,920.840454 586.059509,930.494141 579.528992,939.937927   C571.953003,950.893494 565.532532,962.631165 557.108398,973.021484   C553.316101,977.698914 549.298279,982.112732 544.390625,985.662048   C529.817322,996.201660 514.511230,995.520447 499.040283,988.232239   C487.688385,982.884399 481.199158,973.471069 477.174896,961.668579   C469.374817,938.792175 471.119629,916.464661 479.513641,894.266602   C481.858765,888.064941 486.868958,884.518616 493.068939,886.036560   C501.988586,888.220215 510.933868,887.640808 519.902222,887.763184   C526.641785,887.855164 530.028076,892.680237 527.934082,899.126770   C527.195312,901.401184 525.870056,903.327209 524.334473,905.073914   C518.935852,911.214783 515.733643,918.403931 513.375183,926.170105   C511.561737,932.141541 512.337158,937.706177 514.599670,943.196777   C517.219849,949.555542 519.974304,950.300659 525.765930,946.821472   C531.630920,943.298035 535.699829,938.108276 539.771240,932.772217   C549.798828,919.629395 557.412170,904.907532 567.087036,891.539673   C570.705017,886.540771 574.264343,881.515808 578.819214,876.816284  z"/>
<path fill="#000000" opacity="1.000000" stroke="none" d=" M620.161621,849.323120   C616.538208,849.618225 613.399597,849.992126 610.250061,850.166077   C606.949768,850.348145 603.888672,849.734436 602.057556,846.542114   C600.163452,843.240112 600.880859,840.072266 602.882629,837.151917   C604.379944,834.967346 606.418213,833.123352 607.731262,830.848145   C612.102112,823.274658 611.214722,815.423523 608.080139,807.757019   C606.150635,803.037720 602.640137,802.226746 598.486511,805.268677   C587.362183,813.416138 579.969971,824.769836 572.656250,836.099548   C567.508606,844.073792 562.740967,852.314636 556.654968,859.616760   C546.371704,871.954895 534.273071,880.957703 517.092529,880.382507   C503.619293,879.931335 492.692047,874.353699 485.501282,863.193481   C470.995544,840.680420 469.181732,816.555298 478.313385,791.502625   C479.510376,788.218689 480.584717,784.877991 481.992554,781.685608   C484.259735,776.544617 488.182556,774.194397 493.597443,775.195007   C502.167419,776.778870 510.764771,777.254578 519.441406,776.914062   C522.704590,776.785889 525.887268,776.975159 527.551270,780.462952   C529.367676,784.270142 528.253662,787.693909 525.695740,790.622925   C519.171936,798.093140 515.528748,806.906860 513.028320,816.355835   C511.714081,821.322510 512.415649,825.899048 514.699829,830.365234   C517.823792,836.473572 520.990295,837.459839 526.606262,833.335022   C537.387451,825.416504 544.980408,814.647827 552.304688,803.677002   C559.146118,793.429626 566.076416,783.246582 574.023987,773.796875   C582.116577,764.174622 592.322021,758.371826 604.836792,757.114807   C614.375488,756.156738 622.542114,760.089539 629.540100,766.043762   C642.728271,777.264832 648.768066,792.434448 652.044739,808.961914   C653.897400,818.306763 653.230530,827.529785 650.355530,836.542236   C647.312317,846.082214 642.600708,849.245728 632.626587,849.141052   C628.632629,849.099182 624.636658,849.250610 620.161621,849.323120  z"/>
<path fill="#000000" opacity="1.000000" stroke="none" d=" M739.200562,268.131744   C743.993591,266.214600 748.060669,263.544983 753.216309,263.668915   C757.608948,263.774536 760.255188,265.689667 761.162720,269.743713   C767.631348,298.639130 778.766785,326.292847 783.710510,355.617950   C785.396606,365.618988 787.937805,375.472046 788.037537,385.679596   C788.063232,388.318726 787.762573,391.013916 787.207458,393.596466   C785.128357,403.268585 780.340332,406.945282 770.417114,407.273743   C759.535706,407.633911 748.863342,405.545685 738.074158,404.842010   C718.259888,403.549713 698.501465,403.221069 678.833191,406.609985   C676.552673,407.002930 674.203430,407.225281 671.893555,407.175903   C665.686401,407.043304 661.772339,402.877991 662.793945,396.755798   C664.078552,389.057373 665.849182,381.419250 667.830383,373.865417   C669.066406,369.152924 674.749084,365.977142 680.398071,367.266785   C688.911255,369.210449 697.249207,367.444214 705.670898,367.278381   C713.147217,367.131165 720.639832,367.434509 728.115723,367.757935   C734.800964,368.047150 741.406494,367.188416 748.047241,366.822632   C751.310486,366.642883 753.935425,365.381500 753.522766,361.830688   C752.705872,354.800598 751.468933,347.804932 748.993713,341.063263   C746.309937,341.786133 745.491577,343.773834 744.134155,345.163605   C724.523315,365.242065 688.187622,360.528198 677.575500,340.813934   C669.982605,326.708405 670.716919,311.973389 675.496216,297.204987   C676.731079,293.389160 677.888123,289.686066 677.977478,285.582153   C678.100281,279.942322 681.404785,276.262268 686.787781,275.886597   C691.144409,275.582550 695.322449,274.578644 699.579468,273.861847   C708.707581,272.324799 713.072144,277.239868 710.294434,286.048676   C708.038574,293.202637 706.278992,300.461975 704.733215,307.792297   C703.725464,312.571075 704.532837,317.115753 706.361511,321.454987   C708.834045,327.321930 712.840881,328.309814 717.774597,324.374084   C723.676453,319.666168 726.539185,313.165131 727.934692,305.966064   C729.081421,300.050507 729.483887,294.008148 728.334167,288.092072   C725.939209,275.768402 727.232666,273.077240 739.200562,268.131744  z"/>
<path fill="#000000" opacity="1.000000" stroke="none" d=" M536.049194,170.827957   C557.657593,169.987839 578.722656,168.291748 599.764282,166.293457   C602.765564,166.008423 605.758789,165.720490 608.724670,166.232513   C613.852905,167.117798 616.487488,170.178833 616.923096,175.404037   C617.947388,187.690979 616.788757,200.012329 617.942505,212.341888   C618.920288,222.789963 619.920898,233.195099 621.845093,243.507202   C622.307312,245.984360 622.562561,248.464630 621.878723,250.933380   C620.647400,255.378220 617.456665,257.664398 612.890137,256.949066   C607.403992,256.089691 601.997620,256.083984 596.509033,256.959839   C590.884705,257.857330 587.791443,254.998245 587.671021,249.040482   C587.439209,237.569656 588.653503,226.069855 586.868896,214.628387   C586.254028,210.685760 585.782043,206.716095 585.394775,202.744156   C585.061157,199.322876 583.458618,197.908783 579.899231,197.836380   C567.749329,197.589203 567.178711,198.121246 566.490845,210.350632   C565.869995,221.390793 567.847351,232.255920 568.336304,243.214890   C568.739990,252.261368 567.043030,254.253555 558.235229,256.131744   C554.001770,257.034485 549.763428,257.914520 545.523499,258.786591   C538.474121,260.236511 535.034180,257.916748 534.046875,250.786682   C533.683655,248.163879 533.767456,245.468933 533.772339,242.807129   C533.793884,230.983902 533.731873,219.189651 531.728699,207.458389   C530.949951,202.898361 528.947510,201.630325 524.626526,202.416565   C516.059448,203.975418 515.679504,204.332123 515.309143,213.314804   C514.848572,224.486038 515.964600,235.603836 516.315369,246.747437   C516.538940,253.849503 514.974243,256.001312 508.181061,257.864380   C503.282684,259.207794 499.048340,261.876831 494.517700,263.951385   C491.011169,265.556976 487.416138,266.417084 484.143494,263.835022   C480.943665,261.310333 479.521454,257.774170 480.130707,253.634766   C482.390289,238.282883 483.457703,222.890579 481.974121,207.387085   C481.294006,200.280197 480.942291,193.136185 480.070465,186.054703   C478.788483,175.641373 482.834198,170.596252 493.160004,170.838181   C507.298584,171.169434 521.429932,172.429855 536.049194,170.827957  z"/>
<path fill="#000000" opacity="1.000000" stroke="none" d=" M544.920654,511.945221   C538.672668,515.442993 532.014648,514.823547 525.674683,515.176880   C517.836731,515.613770 510.112701,516.287415 502.459167,518.047485   C491.257721,520.623535 486.671692,517.543640 482.143311,506.777252   C471.158203,480.659851 478.778015,458.821899 497.579773,440.028503   C507.413330,430.199341 520.264404,425.374786 533.874329,422.234833   C553.938232,417.605896 573.805969,417.282257 593.578186,423.088379   C611.516479,428.356018 625.737671,438.388794 632.714966,456.478699   C637.309998,468.392029 638.690796,480.805634 635.089600,493.220398   C632.523865,502.065430 628.353821,505.150635 620.362000,505.400543   C610.428284,505.711151 600.542358,507.548218 590.635559,508.723907   C589.152161,508.899994 587.670288,509.096008 586.182800,509.228058   C582.126953,509.588104 578.393433,509.097778 576.621582,504.731506   C574.926270,500.554047 577.392883,497.723267 580.129761,495.138763   C584.660095,490.860779 588.165039,485.868591 591.183716,480.434906   C596.908691,470.129730 591.179138,463.188843 584.941711,459.155701   C580.642517,456.375793 575.753235,455.034637 570.790894,454.612244   C557.359009,453.469025 544.164673,454.407867 531.877747,460.759033   C530.696472,461.369629 529.507996,461.994507 528.419312,462.751434   C516.018066,471.373047 516.085632,483.199036 528.480042,491.922760   C532.475586,494.735016 536.932861,496.545746 541.329224,498.538544   C547.925232,501.528534 548.965454,505.177521 544.920654,511.945221  z"/>
<path fill="#000000" opacity="1.000000" stroke="none" d=" M464.819550,25.418890   C472.956635,24.017879 475.912231,26.120258 475.214417,33.768646   C472.297607,65.737831 472.890594,97.948524 468.515076,129.810959   C468.379730,130.796783 468.270172,131.817810 468.370483,132.799759   C471.217651,160.680054 467.579651,188.630569 469.291168,216.524704   C469.769897,224.326706 470.051086,232.143677 470.259033,239.958130   C470.351562,243.433899 470.487640,247.088089 466.622345,249.080902   C462.729156,251.088120 459.592285,249.482956 456.539459,247.118179   C446.671570,239.474274 437.035858,231.532654 426.482727,224.787338   C422.675629,222.353943 421.720490,218.229126 422.041656,213.785767   C423.323853,196.047668 424.849609,178.320023 425.713562,160.560699   C426.748016,139.297195 426.545868,117.955826 428.153778,96.744789   C429.075378,84.587257 427.751740,72.509338 428.724487,60.409729   C429.012878,56.822697 428.148041,53.146854 427.855682,49.508163   C427.544189,45.631302 429.158173,42.843193 432.503326,40.818108   C442.648041,34.676762 453.547699,30.138826 464.819550,25.418890  z"/>
<path fill="#000000" opacity="1.000000" stroke="none" d=" M604.421631,372.518036   C592.990417,347.285309 584.308838,321.369720 574.070374,296.071960   C573.509094,294.685120 573.074951,293.244843 572.620361,291.817108   C569.843018,283.093018 571.570557,279.672211 580.194763,276.665558   C584.910706,275.021393 589.585571,273.257629 594.315063,271.654236   C601.715393,269.145325 605.834595,271.577362 607.305969,279.177063   C611.397827,300.311493 617.402527,320.892456 625.259949,340.931244   C625.906006,342.578827 626.229858,344.446533 628.532898,346.183319   C630.303833,338.059937 632.223877,330.399048 633.608826,322.642639   C635.918884,309.705444 637.880249,296.709076 638.969849,283.594025   C639.336670,279.178467 641.705750,276.136261 646.128235,275.022339   C651.293701,273.721344 656.463501,272.425568 661.667542,271.293365   C670.678345,269.333038 675.604858,274.161652 673.714600,283.296448   C671.219543,295.354034 668.429016,307.350189 665.827393,319.386108   C661.187439,340.852203 657.324524,362.466248 653.697144,384.121796   C652.983826,388.380463 652.810547,392.727661 652.161743,396.999603   C651.391541,402.070862 648.123108,405.021149 642.977539,405.082764   C637.297058,405.150818 631.720154,405.567566 626.125977,406.746918   C621.473083,407.727936 617.970947,405.274780 616.155212,401.014709   C612.177368,391.681946 608.425049,382.253052 604.421631,372.518036  z"/>
<path fill="#000000" opacity="1.000000" stroke="none" d=" M500.169250,83.302475   C513.824707,81.985229 527.050354,80.510513 540.295471,79.238670   C544.590881,78.826218 548.948242,78.695587 553.257568,78.884819   C558.496887,79.114891 561.053955,81.942978 561.180908,87.234032   C561.292725,91.895943 561.263062,96.565201 561.148010,101.227570   C561.016235,106.570602 558.532288,108.993530 553.030029,109.176071   C548.369934,109.330681 543.704468,109.323898 539.041382,109.387817   C534.355347,109.452049 533.246521,112.308319 533.367920,116.376862   C533.572693,123.237343 534.561829,125.059021 539.588013,124.929230   C552.898254,124.585526 566.202271,123.954063 579.503784,123.331459   C587.317261,122.965721 595.115662,122.228584 602.931091,121.974220   C609.387085,121.764114 611.724548,123.999306 613.453735,130.204361   C614.887878,135.350632 615.860291,140.554321 616.698547,145.815781   C617.751038,152.422226 615.006958,156.120163 608.280334,156.253738   C601.287170,156.392578 594.286255,156.283646 587.291138,156.151871   C555.592957,155.554779 524.082886,158.213501 492.603821,161.491913   C484.642853,162.321030 481.971649,159.847198 481.566620,151.919739   C481.397430,148.608170 480.917847,145.304169 480.430603,142.018784   C479.316803,134.508774 483.943207,128.952011 491.528900,128.814011   C492.360809,128.798889 493.194031,128.854324 494.026611,128.877945   C501.748199,129.097015 502.708557,128.004837 501.631317,120.228668   C500.642822,113.092926 500.642792,113.092934 493.590424,114.751396   C484.922882,116.789696 480.355988,113.464722 479.953796,104.612915   C479.750488,100.139099 479.881989,95.748802 481.584595,91.370750   C484.019043,85.110817 486.646759,82.769440 493.288208,82.714813   C495.439606,82.697121 497.593964,83.043808 500.169250,83.302475  z"/>
<path fill="#000000" opacity="1.000000" stroke="none" d=" M577.771301,107.883957   C572.877747,106.072624 571.885986,102.413574 571.859863,98.128212   C571.820374,91.639450 571.685669,85.151237 571.585632,78.662880   C571.521606,74.510719 569.755798,72.518471 565.264038,72.144066   C549.530823,70.832642 533.858154,68.379425 518.015198,69.343956   C510.723969,69.787842 503.460083,70.853111 496.217194,71.873543   C487.832092,73.054909 483.581482,69.487816 484.327484,61.171234   C484.999451,53.680119 485.248779,46.272541 483.904846,38.807117   C483.160156,34.670326 484.125092,30.460533 485.406219,26.529352   C487.766083,19.288134 491.102905,17.781471 498.264618,20.126276   C519.772217,27.168060 541.279480,34.210987 562.789673,41.245110   C564.028381,41.650192 565.291443,41.980984 566.462097,42.322689   C566.809753,41.837845 567.170166,41.567123 567.147461,41.333660   C566.034485,29.890984 569.292236,26.799671 580.642639,28.183823   C587.077576,28.968555 593.549927,29.500654 600.019958,29.928213   C606.798767,30.376183 609.651123,33.140873 610.100037,39.742699   C611.372925,58.458992 612.766357,77.167068 614.042480,95.883148   C614.188232,98.020760 614.176208,100.247597 613.744263,102.330803   C612.636353,107.674553 609.930420,110.007576 604.573853,109.213036   C595.791321,107.910339 586.995667,108.111923 577.771301,107.883957  z"/>
<path fill="#000000" opacity="1.000000" stroke="none" d=" M252.564926,368.091553   C250.197693,364.526886 251.113861,361.154724 251.650589,357.649872   C255.953461,329.551941 262.897980,301.802765 262.960938,273.139526   C262.966400,270.642426 262.721558,268.139679 262.822693,265.648865   C263.093872,258.970978 268.458862,255.748596 274.336304,258.974945   C280.901489,262.578827 287.216522,266.635559 293.695435,270.400513   C296.856354,272.237335 300.092072,273.962891 303.383148,275.554230   C308.470673,278.014160 310.885864,282.252594 309.763092,287.704742   C305.723541,307.320221 303.308624,327.217163 302.792755,347.141907   C302.431580,361.092163 300.030792,374.990082 301.434845,389.005157   C301.808685,392.737152 301.129486,396.488007 297.176880,398.381989   C293.062531,400.353455 290.451263,397.781006 287.535583,395.285187   C278.174805,387.272156 268.726959,379.349121 258.364044,372.609161   C256.419891,371.344696 254.651733,369.809570 252.564926,368.091553  z"/>
<path fill="#000000" opacity="1.000000" stroke="none" d=" M285.169006,251.547089   C284.839844,246.688629 287.260834,244.898438 291.449768,244.708176   C311.397430,243.802063 331.350952,242.992355 351.287354,241.879608   C370.576141,240.803024 389.874634,240.145111 409.184296,239.670883   C413.652161,239.561157 417.645752,240.776794 421.663818,242.607513   C430.142242,246.470444 438.307404,251.056427 447.255676,253.861542   C450.820465,254.979004 453.802582,256.716400 453.213928,261.201752   C452.631989,265.635681 449.301910,266.746735 445.611572,266.909119   C429.319580,267.626129 413.102295,269.810181 396.734039,269.092957   C375.223480,268.150330 353.810974,270.459808 332.358521,271.407013   C327.396057,271.626099 322.889923,270.572845 318.380493,268.494202   C309.308380,264.312378 300.073822,260.481750 290.891602,256.540527   C288.554291,255.537292 286.318359,254.471420 285.169006,251.547089  z"/>
<path fill="#000000" opacity="1.000000" stroke="none" d=" M708.933960,242.915726   C715.625732,245.125931 721.915649,247.295166 728.259705,249.292450   C732.219727,250.539185 734.836121,252.764923 734.188232,257.199036   C733.517761,261.788422 729.708191,262.878723 726.003235,263.012543   C718.190430,263.294678 710.380310,263.786499 702.575989,263.980255   C681.956238,264.492188 661.414429,266.273224 640.825562,267.214264   C631.579407,267.636902 629.104370,265.414459 627.287231,256.306946   C626.929382,254.513718 626.665344,252.701126 626.383789,250.893463   C625.311829,244.011520 628.752380,238.867615 635.564087,238.960220   C652.385620,239.188934 669.101379,237.128036 685.891663,237.152023   C693.850769,237.163391 701.091003,240.543030 708.933960,242.915726  z"/>
</svg>