<svg version="1.1" id="Layer_1" xmlns="http://www.w3.org/2000/svg" xmlns:xlink="http://www.w3.org/1999/xlink" x="0px" y="0px"
	 width="100%" viewBox="0 0 1024 1024" enable-background="new 0 0 1024 1024" xml:space="preserve">
<path fill="#000000" opacity="1.000000" stroke="none" 
	d="
M400.861328,638.003601 
	C401.587646,596.207397 402.103088,554.904907 403.144775,513.615784 
	C403.489349,499.958740 403.484924,486.304993 403.770538,472.652039 
	C403.944092,464.356384 405.955536,462.180969 414.068604,461.967896 
	C430.549530,461.535065 447.031799,461.141418 463.515320,460.825073 
	C470.963715,460.682129 472.202942,461.946136 472.142578,469.534241 
	C471.774200,515.842590 471.735382,562.157532 470.872803,608.456909 
	C469.774323,667.416443 469.693085,726.383545 468.863953,785.341980 
	C468.001831,846.643921 468.574707,907.949219 467.768402,969.248108 
	C467.750977,970.572693 467.953644,971.900024 468.049805,973.226379 
	C468.232544,975.746704 467.729187,978.052368 465.029938,978.863647 
	C462.033600,979.764099 460.915527,977.423706 459.896973,975.281860 
	C454.820007,964.605530 449.799622,953.902222 444.714294,943.229858 
	C429.960419,912.266296 415.207642,881.302185 400.390442,850.368958 
	C398.473419,846.366882 397.561340,842.293884 397.636139,837.846741 
	C398.484619,787.385437 399.041046,736.917908 400.184601,686.463684 
	C400.546997,670.474304 400.380157,654.485168 400.861328,638.003601 
z"/>
<path fill="#000000" opacity="1.000000" stroke="none" 
	d="
M580.012939,671.877197 
	C594.519409,672.174927 608.414490,673.453552 621.967407,677.291077 
	C642.600891,683.133667 656.473999,702.377441 659.361694,724.083618 
	C663.285339,753.575928 644.789978,781.335754 615.399353,790.043396 
	C587.697327,798.250732 559.642639,802.643860 530.653564,799.302917 
	C500.294159,795.804138 481.372986,774.500305 480.554504,743.875305 
	C479.781952,714.969482 497.590820,688.793091 526.946289,680.370300 
	C544.182007,675.424927 561.614868,672.331909 580.012939,671.877197 
M544.774231,722.199402 
	C540.589172,724.310303 536.671326,726.823364 533.437927,730.247681 
	C526.773499,737.305542 528.392761,746.576782 537.044434,750.901733 
	C538.667297,751.712952 540.410339,752.334412 542.157104,752.838745 
	C555.451477,756.677002 568.785461,755.489868 582.154297,753.189819 
	C590.411621,751.769104 598.483459,749.857178 605.541016,745.111938 
	C614.789062,738.893921 614.757080,728.833679 605.508789,722.675476 
	C602.448914,720.638062 599.080017,719.152039 595.470276,718.358704 
	C578.458862,714.619995 561.789185,715.878601 544.774231,722.199402 
z"/>
<path fill="#000000" opacity="1.000000" stroke="none" 
	d="
M557.647339,651.781982 
	C555.644836,651.731750 554.632690,652.957275 553.714111,654.080139 
	C543.359131,666.738281 529.261536,672.657898 513.884460,676.238525 
	C506.919464,677.860352 499.936279,679.433105 492.909180,680.749756 
	C487.065308,681.844666 484.071594,679.545105 484.003754,673.781982 
	C483.870453,662.455933 484.019867,651.126221 484.095459,639.798279 
	C484.126862,635.092041 486.233521,631.911804 490.957520,630.618225 
	C499.300354,628.333740 507.647980,626.058411 515.937866,623.591919 
	C521.360107,621.978638 526.889648,620.354797 530.508484,615.493652 
	C531.581421,614.052490 532.874634,612.288452 532.039856,610.474487 
	C531.102051,608.436646 528.843689,609.034912 527.095337,609.134277 
	C515.297424,609.804688 503.510773,610.700317 491.707550,611.239990 
	C485.098450,611.542236 483.814301,610.101379 483.794464,603.449524 
	C483.761688,592.454468 483.779022,581.458740 483.854034,570.463928 
	C483.901367,563.528015 485.453918,561.950134 492.403839,561.834717 
	C515.550354,561.450378 538.696838,561.006104 561.845337,560.809692 
	C585.826538,560.606140 609.797729,560.233521 633.751465,558.969666 
	C642.749451,558.494934 644.220947,559.494507 645.753235,568.371643 
	C649.871704,592.231140 652.147583,616.231567 648.242432,640.339050 
	C646.149414,653.260071 638.152283,661.524780 625.599060,664.953369 
	C612.263916,668.595459 598.696228,669.020752 585.025574,666.828491 
	C574.177368,665.088806 565.544617,659.465088 557.647339,651.781982 
M607.689819,602.555176 
	C597.928589,603.182007 588.162659,603.746094 578.409668,604.481689 
	C576.086121,604.656860 574.166626,605.888672 574.430237,608.641418 
	C574.859070,613.117371 576.243164,617.469666 580.619080,619.338440 
	C589.746277,623.236450 599.139526,623.319092 608.068665,618.774353 
	C614.237061,615.634644 614.240662,606.876892 607.689819,602.555176 
z"/>
<path fill="#000000" opacity="1.000000" stroke="none" 
	d="
M471.545593,303.790222 
	C466.114105,304.396088 461.822662,301.855499 457.362549,300.200500 
	C443.474976,295.047363 429.690063,289.617981 415.852325,284.329803 
	C408.173889,281.395416 406.911682,279.670380 407.044373,271.341400 
	C407.686340,231.043747 408.321198,190.745911 409.040955,150.449600 
	C409.513794,123.978302 410.200928,97.510674 410.613678,71.038612 
	C410.695862,65.769592 412.837219,62.606285 417.793915,61.029579 
	C435.076874,55.531925 452.326019,49.927887 469.613159,44.443535 
	C474.386963,42.929031 476.000610,44.083908 475.988586,49.396130 
	C475.967529,58.718868 475.471344,68.040146 475.425323,77.363281 
	C475.204041,122.174118 475.392426,166.989822 474.779785,211.794830 
	C474.401733,239.444717 474.584656,267.091949 474.242676,294.738068 
	C474.204163,297.851593 474.618439,301.152039 471.545593,303.790222 
z"/>
<path fill="#000000" opacity="1.000000" stroke="none" 
	d="
M368.700500,355.350952 
	C370.107513,344.484314 369.537048,333.974030 369.787537,323.490082 
	C370.004242,314.420319 371.582520,313.071655 380.651489,312.579102 
	C390.310028,312.054443 399.962769,311.876984 409.615021,312.230377 
	C416.574280,312.485168 418.250244,314.208313 418.020844,321.065918 
	C416.902130,354.508179 415.620544,387.944946 414.460724,421.385864 
	C414.183624,429.375366 414.302734,437.379700 413.966553,445.365692 
	C413.613892,453.743713 411.986786,455.146393 403.729004,455.282715 
	C393.739532,455.447601 383.751038,455.668030 373.761627,455.835907 
	C367.129089,455.947388 364.439423,453.704742 365.073242,447.352692 
	C366.166199,436.398865 364.752716,425.356384 366.591797,414.446716 
	C367.203583,410.817627 366.619202,407.781372 361.950287,407.296936 
	C355.243256,406.600952 352.320923,408.019318 351.510864,412.840179 
	C351.264557,414.305847 351.346405,415.828522 351.301147,417.325775 
	C350.979126,427.976593 350.604187,438.626312 350.372986,449.279144 
	C350.274445,453.819641 348.010590,456.097839 343.630249,456.194733 
	C330.311157,456.489380 316.990173,456.704010 303.669128,456.897491 
	C298.981140,456.965576 296.516632,454.713135 296.739899,449.856232 
	C297.626251,430.575317 298.464081,411.292114 299.393890,392.013336 
	C300.091309,377.552094 301.046082,363.102020 301.611481,348.636200 
	C301.988464,338.991516 303.125183,329.378174 302.762146,319.699677 
	C302.594147,315.219299 304.869415,312.872650 309.424530,312.874939 
	C322.418182,312.881531 335.412964,312.788055 348.404877,312.940918 
	C353.696838,313.003174 355.836426,315.359039 355.168427,321.125641 
	C354.013275,331.098267 354.532837,341.089081 354.170868,351.065186 
	C354.074677,353.716980 352.921021,356.975311 356.493256,358.483429 
	C360.048584,359.984436 366.469177,358.461792 368.700500,355.350952 
z"/>
<path fill="#000000" opacity="1.000000" stroke="none" 
	d="
M513.894592,993.442993 
	C493.647827,989.394775 484.784729,975.510254 481.063629,957.198853 
	C477.854675,941.407898 479.970093,926.023071 485.769836,911.155579 
	C488.368042,904.495239 493.023865,901.901123 500.004974,902.922058 
	C511.417633,904.591003 522.869873,905.041565 534.377441,904.996399 
	C542.259460,904.965454 543.961365,907.903137 540.272766,914.997742 
	C537.508667,920.314087 534.464050,925.443054 533.836182,931.637817 
	C533.088501,939.014404 537.788452,942.819275 544.632629,939.930054 
	C550.962097,937.258118 555.664856,932.517151 559.685669,927.119385 
	C565.059265,919.905457 570.287598,912.582642 575.536499,905.276550 
	C589.811096,885.406921 613.486511,876.994873 636.850952,883.995728 
	C653.512512,888.988098 662.824280,901.044983 665.999878,917.640503 
	C668.855225,932.562805 667.712891,947.451050 663.370239,962.101746 
	C661.659668,967.872559 658.031738,970.549927 652.276550,971.182739 
	C639.376831,972.601196 626.493103,974.164856 613.601990,975.661560 
	C607.251404,976.398987 604.333862,972.681946 607.064087,966.878235 
	C609.755249,961.157471 612.974304,955.686584 615.901917,950.074890 
	C617.449463,947.108704 618.747437,944.015564 618.785583,940.602966 
	C618.840393,935.691528 615.467590,933.174194 610.821472,934.829956 
	C604.875854,936.948730 599.951660,940.636108 596.094055,945.622131 
	C590.998474,952.208496 585.992126,958.857178 581.566833,965.936584 
	C571.409912,982.185425 556.187195,990.427063 537.662109,993.238220 
	C529.909363,994.414673 522.123047,995.159973 513.894592,993.442993 
z"/>
<path fill="#000000" opacity="1.000000" stroke="none" 
	d="
M486.433167,820.537231 
	C487.684235,816.493225 488.756042,812.817566 489.967590,809.188599 
	C491.313812,805.156189 494.203339,803.132446 498.414093,803.877808 
	C511.307617,806.160278 524.315491,805.548462 537.296509,805.685364 
	C546.570984,805.783142 548.004578,808.235596 543.643616,816.592896 
	C540.337158,822.929138 536.284241,828.957275 534.906616,836.121826 
	C534.067261,840.487488 532.565979,845.477722 537.072327,848.546631 
	C541.615662,851.640625 545.659851,848.308411 549.408691,845.913757 
	C553.839966,843.083191 556.756287,838.728760 560.022949,834.730957 
	C565.714172,827.765930 571.243347,820.644043 577.298462,814.005615 
	C592.443909,797.401733 616.610962,791.711548 637.740723,799.362061 
	C646.359863,802.482788 652.400391,808.132324 656.035461,816.633911 
	C662.331909,831.359924 664.093872,846.432068 660.191223,862.029663 
	C658.262939,869.736511 653.507080,873.799072 645.640625,874.038513 
	C636.150024,874.327454 626.643372,874.351501 617.149292,874.177856 
	C610.030884,874.047668 608.612915,871.518555 611.366028,865.044250 
	C612.797974,861.676697 614.324036,858.312988 615.325317,854.809692 
	C616.163147,851.878479 616.081116,848.746582 613.321655,846.575745 
	C610.511597,844.364990 607.638428,845.307678 604.912781,846.827820 
	C600.289307,849.406433 597.257812,853.669250 593.785217,857.477722 
	C586.379150,865.600220 581.266785,875.538330 573.027954,883.035645 
	C558.821411,895.963745 542.024353,899.753052 523.458191,897.907104 
	C515.760315,897.141724 508.412506,895.291870 501.626587,891.405457 
	C487.088806,883.079346 482.516083,869.465576 481.812439,853.919617 
	C481.303802,842.681885 483.144623,831.696594 486.433167,820.537231 
z"/>
<path fill="#000000" opacity="1.000000" stroke="none" 
	d="
M759.843994,448.048157 
	C737.904114,448.357330 716.450562,450.435211 694.982178,448.281708 
	C694.155090,448.198792 693.317200,448.228455 692.487549,448.164642 
	C683.222595,447.452332 681.759033,445.447113 683.946594,436.513641 
	C685.923828,428.439026 687.766052,420.328796 689.898682,412.295563 
	C691.614624,405.831696 693.545044,404.721863 700.055298,406.416168 
	C710.510620,409.137177 721.142883,409.256683 731.795837,408.733765 
	C737.772888,408.440369 743.148193,406.184540 747.448975,401.885071 
	C748.992859,400.341675 750.460632,398.320557 749.291260,396.084961 
	C747.855408,393.339966 745.452454,395.010803 743.525879,395.566315 
	C734.204163,398.254028 724.856506,400.653900 715.049011,398.671112 
	C700.760620,395.782349 694.065063,386.839813 695.076599,372.253815 
	C696.181885,356.316193 697.145569,340.372498 696.963135,324.381622 
	C696.865051,315.790009 698.208008,314.403778 706.709167,313.428345 
	C713.194946,312.684143 719.687134,312.862244 726.163818,313.244659 
	C732.685242,313.629730 734.173279,315.287506 734.251099,321.990448 
	C734.363159,331.648529 734.314575,341.308685 734.300964,350.967926 
	C734.296570,354.069519 734.162292,357.213318 738.386719,357.679169 
	C742.463135,358.128693 745.642334,356.899475 747.069763,352.710541 
	C748.683228,347.975555 747.934021,343.126251 747.494385,338.348267 
	C746.946472,332.393066 746.019836,326.473053 745.274414,320.535614 
	C744.646484,315.533722 746.329773,313.237823 751.342041,312.928040 
	C759.146545,312.445740 766.964722,312.107971 774.782166,311.936279 
	C780.262329,311.815887 782.542175,313.677521 783.097473,319.113983 
	C784.938293,337.135468 786.688904,355.168396 788.223206,373.218231 
	C789.433960,387.461761 790.279602,401.736450 791.277100,415.998016 
	C791.582397,420.362854 790.768066,424.650940 789.958801,428.877045 
	C787.930298,439.470276 781.095459,445.727692 770.274231,447.172882 
	C766.978210,447.613068 763.642029,447.752655 759.843994,448.048157 
z"/>
<path fill="#000000" opacity="1.000000" stroke="none" 
	d="
M540.779358,288.960388 
	C540.396362,280.828247 540.018799,273.182068 539.663879,265.534790 
	C539.532410,262.703064 538.513794,260.448486 535.318848,260.627472 
	C532.193420,260.802521 531.946350,263.378998 531.958130,265.812378 
	C532.008057,276.139313 532.116821,286.465942 532.162842,296.792877 
	C532.201355,305.447174 531.285461,306.377686 522.894226,306.378723 
	C511.900696,306.380096 500.906799,306.416748 489.913818,306.334290 
	C484.050568,306.290344 481.933228,304.424042 481.964935,298.570984 
	C482.092255,275.090057 482.445282,251.610413 482.661102,228.129791 
	C482.702728,223.600266 485.345062,222.692490 489.208801,222.641205 
	C501.540771,222.477570 513.838318,223.503052 526.151062,223.631241 
	C553.798828,223.919113 581.450378,223.822540 609.100098,223.957825 
	C614.089050,223.982239 619.077881,224.337265 624.064026,224.592300 
	C629.911743,224.891418 631.177185,226.237228 631.296936,232.286224 
	C631.646362,249.933197 631.936523,267.581451 632.334290,285.227264 
	C632.442932,290.047913 632.905090,294.859528 633.102539,299.679504 
	C633.286072,304.162964 631.283875,306.466797 626.547363,306.389648 
	C617.221558,306.237701 607.891541,306.358673 598.565186,306.228882 
	C593.423340,306.157379 591.860596,304.475616 591.657776,299.214630 
	C591.292236,289.733704 590.982910,280.250641 590.626892,270.769318 
	C590.570801,269.274628 590.478333,267.771271 590.250916,266.295319 
	C589.868164,263.810089 589.655273,261.038391 586.046204,261.305206 
	C582.609314,261.559265 582.300842,264.104858 582.372925,266.741180 
	C582.623291,275.894287 583.001831,285.044342 583.194702,294.198425 
	C583.450684,306.346985 583.395386,306.343292 571.101685,306.306305 
	C563.606079,306.283783 556.109741,306.208313 548.615234,306.292755 
	C544.170593,306.342804 541.711670,304.552429 541.546509,299.900452 
	C541.422607,296.411102 541.053589,292.930450 540.779358,288.960388 
z"/>
<path fill="#000000" opacity="1.000000" stroke="none" 
	d="
M535.514832,519.494934 
	C538.520386,528.391174 543.158264,535.760559 550.041321,541.669006 
	C551.961853,543.317627 553.828369,545.238892 552.868347,548.085205 
	C551.995178,550.673889 549.685059,551.261475 547.216309,551.340393 
	C529.408264,551.909851 511.602997,552.608093 493.790955,552.992615 
	C485.456726,553.172607 484.206573,552.062134 483.190948,543.960999 
	C481.297943,528.861755 480.839050,513.773499 484.789368,498.852539 
	C489.148499,482.387421 498.690552,470.913361 515.313477,465.453430 
	C544.302124,455.932007 573.611023,453.570831 603.366211,460.881744 
	C614.397095,463.592041 625.190796,467.306519 633.109863,476.215393 
	C641.473694,485.624512 645.769348,496.898651 647.160278,509.226044 
	C648.282227,519.169434 647.946777,529.158813 646.277710,539.061340 
	C644.952637,546.923828 641.491821,550.033142 633.447021,550.147705 
	C620.620117,550.330261 607.790405,550.387451 594.962097,550.368103 
	C588.203491,550.357971 586.567810,547.565735 589.542725,541.569519 
	C593.015991,534.568787 597.664062,528.166443 600.148804,520.661011 
	C602.592529,513.279907 601.044250,509.962738 593.356750,507.624512 
	C580.207520,503.624969 566.827881,503.173981 553.370239,505.914429 
	C549.793213,506.642822 546.243469,507.581146 542.759949,508.673981 
	C537.730164,510.251953 534.946472,513.575806 535.514832,519.494934 
z"/>
<path fill="#000000" opacity="1.000000" stroke="none" 
	d="
M501.475983,432.535187 
	C503.047119,400.378448 509.830414,369.506470 516.146423,338.564392 
	C517.410156,332.373291 518.976807,326.244263 520.260437,320.056885 
	C521.109131,315.965820 523.656067,314.008087 527.618713,313.995544 
	C542.111145,313.949554 556.604126,313.993347 571.096619,314.066132 
	C576.782654,314.094696 579.579895,317.357422 581.233398,322.598785 
	C591.000732,353.560516 598.944336,385.000854 606.302734,416.600555 
	C608.414307,425.668274 610.291931,434.777618 611.726929,443.985626 
	C612.376831,448.156219 610.735413,450.098389 606.795593,450.184082 
	C595.971741,450.419434 585.145264,450.559204 574.319092,450.653839 
	C570.023438,450.691406 568.099548,448.207916 567.694092,444.108978 
	C567.186890,438.981232 566.374390,433.881561 565.945862,428.748749 
	C565.609131,424.715790 563.407288,423.282227 559.672668,423.315491 
	C542.928284,423.464539 544.364014,421.203217 544.379456,437.910980 
	C544.380493,439.076904 544.384521,440.244904 544.450745,441.408325 
	C545.015198,451.329834 543.624878,452.892395 533.869812,453.042755 
	C525.207275,453.176239 516.543640,453.309814 507.880524,453.310272 
	C502.781128,453.310547 500.813629,451.472351 500.786804,446.459747 
	C500.762787,441.973755 501.187775,437.485382 501.475983,432.535187 
M553.462463,358.657532 
	C552.887939,357.720367 552.704468,356.397095 550.599121,356.332153 
	C547.838928,365.383209 545.442810,374.631622 546.489990,384.305267 
	C546.994934,388.970276 551.053406,387.685516 554.038330,387.324066 
	C556.836975,386.985199 559.161438,386.165070 558.265198,382.244110 
	C556.531250,374.658081 555.152100,366.990936 553.462463,358.657532 
z"/>
<path fill="#000000" opacity="1.000000" stroke="none" 
	d="
M627.077026,148.058884 
	C627.262146,157.928680 625.919189,159.335632 616.604675,159.097168 
	C606.954102,158.850128 597.305115,158.522827 587.657898,158.164383 
	C579.979309,157.879044 578.043640,155.870712 578.116882,148.023331 
	C578.203918,138.703629 578.565002,129.386078 578.615356,120.066544 
	C578.662292,111.383186 576.607117,109.144783 568.219971,107.977272 
	C560.921265,106.961273 553.592285,107.328072 546.279968,107.578178 
	C527.657227,108.215149 509.029755,108.694595 490.444519,110.265266 
	C482.922791,110.900940 480.909241,108.793686 480.955231,101.105064 
	C481.057739,83.959030 481.351044,66.813889 481.621887,49.669254 
	C481.743958,41.942360 485.233185,39.225342 492.933319,41.189621 
	C501.634460,43.409252 510.260590,45.929218 518.894104,48.406364 
	C535.360657,53.130936 551.810120,57.914688 568.264709,62.680691 
	C573.135559,64.091499 573.688904,63.665295 573.655579,58.448326 
	C573.582397,47.005245 573.603333,46.769306 584.881897,47.770378 
	C595.307007,48.695702 605.676758,50.234169 616.078674,51.435844 
	C621.144287,52.021042 623.017273,54.973530 623.387817,59.840569 
	C625.385315,86.073318 625.332153,112.378235 626.375183,138.643295 
	C626.493896,141.632767 626.825806,144.613800 627.077026,148.058884 
z"/>
<path fill="#000000" opacity="1.000000" stroke="none" 
	d="
M620.847290,215.317444 
	C577.401062,214.840729 534.443359,213.646027 491.468811,214.099625 
	C483.892883,214.179596 482.582703,212.663437 482.609161,204.961853 
	C482.642334,195.301376 482.616974,185.640457 482.703247,175.980515 
	C482.750397,170.698700 484.292938,168.989700 489.522980,168.979172 
	C495.009216,168.968140 500.494598,169.491699 505.983826,169.592361 
	C509.306946,169.653290 512.724365,169.118790 512.694824,164.763062 
	C512.666321,160.551758 509.139038,160.532730 506.157104,160.328690 
	C500.347748,159.931183 494.525818,159.720078 488.714050,159.353378 
	C484.169586,159.066635 481.704102,156.725815 481.714508,152.009232 
	C481.733612,143.348145 481.772888,134.686218 481.673401,126.026131 
	C481.623657,121.698036 483.783600,119.579689 487.872528,119.098244 
	C489.027954,118.962196 490.197357,118.917122 491.361755,118.889236 
	C514.826660,118.327225 538.288330,117.880150 561.730896,119.664337 
	C565.765259,119.971382 568.313171,121.277992 568.505066,125.839767 
	C568.861389,134.313431 569.653320,142.770172 569.940430,151.244904 
	C570.141235,157.172028 569.051086,158.014343 562.916748,158.173599 
	C560.253113,158.242767 557.580811,158.192429 554.927795,158.395599 
	C552.302612,158.596649 550.633484,159.988724 550.358521,162.780273 
	C550.064575,165.764099 551.485596,167.628616 554.241333,168.321579 
	C555.823059,168.719345 557.539307,168.680923 559.194275,168.673737 
	C580.011536,168.583344 600.822571,168.663910 621.628113,169.599625 
	C626.288025,169.809204 627.802673,171.825424 628.448120,176.235718 
	C629.927917,186.346649 628.953186,196.521515 629.858154,206.643738 
	C630.513733,213.975876 628.944458,215.181305 620.847290,215.317444 
z"/>
<path fill="#000000" opacity="1.000000" stroke="none" 
	d="
M649.449890,344.518860 
	C650.301514,336.301788 650.981018,328.519440 651.876770,320.762085 
	C652.498535,315.377563 654.981140,313.059692 660.417542,312.960114 
	C668.906799,312.804535 677.402405,312.831116 685.892761,312.957245 
	C691.437073,313.039612 693.360962,315.011627 693.233215,320.699707 
	C692.948792,333.362427 690.769592,345.843903 689.135437,358.364044 
	C685.691223,384.753387 680.727051,410.872955 674.323242,436.710968 
	C673.763733,438.968292 673.031372,441.182800 672.474121,443.440613 
	C671.618774,446.906036 669.343567,448.243256 665.907532,448.319275 
	C655.423584,448.551117 644.935364,448.750031 634.462097,449.243622 
	C629.206421,449.491272 626.192932,447.337158 624.106445,442.561340 
	C617.417542,427.250763 613.038818,411.198120 608.512878,395.198181 
	C601.722778,371.194550 594.707581,347.246490 589.343018,322.863129 
	C587.785889,315.785553 588.822571,314.000641 595.888733,313.289764 
	C604.514282,312.422058 613.198181,312.683960 621.835938,313.131592 
	C627.432678,313.421692 630.051025,316.260986 631.287842,322.349609 
	C634.958862,340.421722 638.563049,358.507416 642.173584,376.591736 
	C642.433899,377.895813 642.519348,379.237274 644.163635,381.007965 
	C647.580627,368.854553 647.278503,356.710449 649.449890,344.518860 
z"/>
<path fill="#000000" opacity="1.000000" stroke="none" 
	d="
M424.679108,454.071259 
	C421.511963,452.623566 421.311646,450.114044 421.386841,447.557159 
	C422.600616,406.279602 423.799805,365.001495 425.090881,323.726318 
	C425.383911,314.358063 427.095367,312.848389 436.543671,312.849884 
	C455.869934,312.852966 475.196289,312.876556 494.522430,312.942078 
	C502.919678,312.970551 504.448425,314.485229 504.247314,322.881287 
	C504.075958,330.035461 503.537140,337.180573 503.348175,344.334656 
	C503.229156,348.839417 500.669464,350.600800 496.663544,350.694794 
	C488.504303,350.886322 480.340729,350.888306 472.179260,350.992249 
	C464.748962,351.086884 462.543945,354.105316 464.364502,361.429260 
	C465.097656,364.378601 467.227081,364.829498 469.702667,364.772400 
	C475.529266,364.638092 481.354340,364.436707 487.180695,364.290924 
	C489.673828,364.228546 492.179779,364.078033 494.660187,364.250824 
	C498.398224,364.511261 500.476959,366.575806 500.312653,370.442230 
	C499.994659,377.923859 499.770264,385.416290 499.163971,392.876343 
	C498.789215,397.487244 495.155640,398.720520 491.238190,398.843384 
	C483.912872,399.073059 476.579987,399.053894 469.251068,399.182922 
	C466.958954,399.223267 464.201172,398.723877 463.040314,401.310730 
	C461.718445,404.256409 461.781250,407.578766 463.022766,410.520233 
	C464.013184,412.866760 466.466919,412.857422 468.702942,412.397827 
	C475.145874,411.073425 481.656616,411.813232 488.137146,411.737396 
	C492.481720,411.686554 494.364655,414.030121 494.369293,418.349274 
	C494.379089,427.518921 493.957581,436.662018 493.189667,445.795013 
	C492.866058,449.643524 491.060364,452.109772 486.992889,452.232269 
	C466.360107,452.853729 445.764099,454.641296 424.679108,454.071259 
z"/>
<path fill="#000000" opacity="1.000000" stroke="none" 
	d="
M279.684875,304.288696 
	C295.506836,312.200470 293.938629,308.880615 293.084534,326.509583 
	C291.248322,364.409485 289.498352,402.309723 288.272247,440.233978 
	C288.199463,442.484192 287.992676,444.675232 285.672577,445.748871 
	C283.143036,446.919373 281.673279,444.973358 280.084442,443.549866 
	C267.930145,432.660522 255.824692,421.716034 243.603668,410.902161 
	C239.829391,407.562378 238.133575,403.820068 238.523682,398.625427 
	C240.678360,369.934387 242.614151,341.226624 244.550293,312.519592 
	C244.886246,307.538574 244.651352,302.515961 245.058823,297.543610 
	C245.667953,290.109985 248.100418,288.664459 254.781937,291.842743 
	C263.048462,295.774933 271.172150,300.007507 279.684875,304.288696 
z"/>
<path fill="#000000" opacity="1.000000" stroke="none" 
	d="
M373.000061,288.700439 
	C379.327301,288.710419 385.181061,289.081940 390.976318,288.656586 
	C403.966003,287.703217 415.931335,291.153564 427.733307,296.031281 
	C433.408112,298.376678 439.392700,299.964264 445.191254,302.023804 
	C446.806122,302.597412 448.958374,302.533539 449.617462,304.826447 
	C448.564972,307.039215 446.498871,306.308167 444.824249,306.308777 
	C400.204468,306.325348 355.584625,306.261169 310.964905,306.293518 
	C298.574066,306.302521 287.888672,300.385040 276.542328,296.757355 
	C273.219299,295.694916 269.953613,294.441162 266.702423,293.170837 
	C265.068146,292.532288 263.056183,292.292053 262.390686,289.683472 
	C264.391479,287.648987 267.120300,288.058197 269.625580,288.135712 
	C303.912872,289.195923 338.209351,288.421295 373.000061,288.700439 
z"/>
<path fill="#000000" opacity="1.000000" stroke="none" 
	d="
M662.652466,288.178162 
	C672.281616,288.390381 681.452576,288.929840 690.598755,288.652069 
	C702.582886,288.288147 714.067078,290.222839 725.440491,293.866272 
	C736.372314,297.368195 747.486084,300.302612 758.521484,303.480591 
	C760.069702,303.926453 761.917542,303.923828 762.309326,306.198486 
	C761.040771,308.085083 759.035889,307.349609 757.367188,307.351318 
	C721.371094,307.388397 685.375000,307.375580 649.378845,307.346954 
	C642.085510,307.341156 640.935303,306.180389 640.769836,299.024017 
	C640.513794,287.949707 640.648621,287.805817 651.686829,287.940094 
	C655.185913,287.982666 658.684509,288.073273 662.652466,288.178162 
z"/>
</svg>