<svg xmlns="http://www.w3.org/2000/svg" xmlns:xlink="http://www.w3.org/1999/xlink" version="1.1" id="Layer_1" x="0px" y="0px" enable-background="new 0 0 1024 1024" xml:space="preserve" viewBox="234.79 6.33 573.43 1015.69">
<path fill="#000000" opacity="1.000000" stroke="none" d=" M456.224762,875.530396   C457.065643,889.607666 458.984894,903.280151 458.028412,916.884338   C456.881744,933.194397 459.637970,949.506714 457.260010,965.749939   C457.236053,965.913696 457.253632,966.083069 457.244354,966.249390   C456.873383,972.922058 454.093170,977.386108 449.916351,978.016846   C446.211853,978.576355 442.055145,975.117859 440.007690,968.908386   C431.505981,943.124451 423.199524,917.276245 414.787262,891.462708   C410.040466,876.896973 405.222931,862.354248 400.447174,847.797913   C399.404816,844.620850 398.762726,841.401489 398.807007,838.006775   C399.210999,807.018066 399.061920,776.012939 400.050232,745.043762   C400.990845,715.569214 401.412537,686.092896 402.035431,656.615906   C402.809692,619.978516 403.585663,583.333679 405.079285,546.721436   C406.180389,519.731018 405.132202,492.744171 406.015503,465.768524   C406.042755,464.935822 406.013550,464.100891 406.054352,463.269135   C406.711548,449.876892 408.136078,448.322021 421.279694,445.445312   C429.898590,443.558899 438.446198,441.349060 447.040344,439.346741   C454.481018,437.613190 459.556763,441.301392 458.936493,448.938324   C458.016968,460.258636 458.559753,471.597961 457.807922,482.891052   C456.789124,498.193054 456.880859,513.536499 455.931488,528.823120   C454.957825,544.501770 456.476349,560.129578 456.123657,575.746765   C455.021576,624.548096 454.019318,673.346619 454.067322,722.161621   C454.100433,755.826843 454.046143,789.494019 454.402679,823.156311   C454.586060,840.470825 455.582611,857.776672 456.224762,875.530396  z"/>
<path fill="#000000" opacity="1.000000" stroke="none" d=" M442.581238,425.708130   C420.451141,418.322662 410.770813,393.112823 417.450714,369.738800   C418.508392,366.037781 419.705841,362.381165 421.840729,359.171631   C423.848389,356.153290 426.150116,353.330505 428.578918,350.078278   C422.578857,345.513428 418.867249,339.526001 417.762207,332.173920   C415.259888,315.524963 421.158447,302.063995 434.053894,291.674866   C445.372406,282.556152 458.961670,279.334045 473.055054,277.908569   C479.341705,277.272736 485.631561,276.391052 491.984924,276.706757   C497.961334,277.003754 500.814026,280.025574 500.433228,286.019989   C500.170013,290.163452 499.680267,294.306824 499.022369,298.407043   C498.279205,303.038635 494.825195,305.494720 488.973755,305.292908   C482.615692,305.073578 476.353302,305.012177 470.203430,307.069641   C465.215149,308.738525 460.790314,311.232056 456.945770,314.809784   C454.937195,316.678955 453.574463,318.938934 452.765167,321.518677   C450.982117,327.202209 454.156647,331.313263 460.078735,330.636597   C465.364288,330.032654 470.588623,328.907471 475.850403,328.078156   C485.506866,326.556122 489.223541,329.815887 489.053619,339.592194   C489.027588,341.091217 489.013275,342.590942 488.955688,344.088867   C488.648163,352.087067 486.074829,354.624207 477.911896,354.999359   C461.598236,355.749084 449.448334,367.434601 449.288116,382.528900   C449.170502,393.611389 455.721436,400.843079 466.713806,401.754395   C467.543121,401.823151 468.377197,401.848694 469.209625,401.864044   C485.087555,402.156891 487.625336,400.286743 492.337158,385.260651   C502.245667,353.662384 512.733704,322.231354 521.839111,290.404175   C524.758301,280.200287 528.424622,274.253662 539.770447,275.446869   C542.490356,275.732941 545.358948,274.760620 548.141541,274.267731   C556.213074,272.837921 559.301880,274.527954 562.333984,282.320007   C568.794189,298.921570 574.798767,315.714142 581.731384,332.115051   C592.433594,357.433899 600.052124,383.900482 610.964600,409.132538   C613.853516,415.812195 609.020325,421.784760 601.801941,420.740173   C595.919250,419.888794 590.188293,421.321686 584.370911,421.283264   C578.124390,421.242004 575.154480,419.084564 573.911621,412.918152   C571.929016,403.081512 568.369324,393.746338 565.102356,384.311188   C564.230652,381.793915 562.981689,380.542511 560.028198,380.719360   C550.223511,381.306427 540.435364,381.928192 530.682495,383.195099   C527.429932,383.617615 526.020325,385.153412 525.385620,388.095520   C523.668213,396.056213 521.762390,403.977325 520.123962,411.953674   C518.410278,420.296143 516.235413,422.268646 507.613800,423.362732   C495.237518,424.933228 482.869720,426.584564 470.524872,428.383850   C461.097198,429.757996 451.969696,428.556519 442.581238,425.708130  M546.424805,327.121490   C545.572754,325.398499 545.451782,323.214905 542.867126,321.961426   C539.095764,331.067566 536.822998,340.521301 534.478516,349.932037   C533.842407,352.485504 535.951355,352.962311 537.954468,352.786072   C542.247070,352.408264 546.533142,351.947601 550.815430,351.463623   C553.983398,351.105621 555.133789,349.657379 553.813660,346.408264   C551.315430,340.259796 549.043457,334.019440 546.424805,327.121490  z"/>
<path fill="#000000" opacity="1.000000" stroke="none" d=" M560.999084,647.132324   C553.889587,643.186279 547.995239,638.265442 543.189331,632.241150   C540.455322,628.814087 538.476135,629.102600 535.536499,631.793274   C521.038696,645.063110 506.018219,657.713989 490.240417,669.452026   C486.817688,671.998413 483.388580,674.550964 478.871185,672.457397   C474.150879,670.269653 472.898010,665.733582 472.745850,661.220947   C472.409393,651.243958 472.882172,641.260315 472.211426,631.262573   C471.762543,624.572021 475.644714,620.126221 481.856659,617.636902   C495.581696,612.137085 507.653656,603.859985 519.288635,594.883545   C521.431519,593.230286 521.184143,591.381958 520.405396,589.116760   C519.408142,586.216003 517.301025,585.837585 514.846191,586.257019   C505.662842,587.825928 496.502075,589.546326 487.558838,592.196228   C479.748566,594.510437 474.483734,591.137085 473.661987,582.936340   C472.982422,576.154724 472.419678,569.359314 471.936859,562.560669   C471.238831,552.731628 476.467102,547.088562 486.345245,547.019531   C519.027954,546.791260 551.463135,543.604736 583.844116,539.393921   C599.341309,537.378601 614.898804,535.817749 630.348145,533.408325   C634.537476,532.755005 637.896545,534.543457 639.224731,538.304321   C649.031616,566.071777 652.981018,594.167969 642.924622,622.825500   C633.936707,648.438049 609.591309,659.497314 583.501343,654.753906   C575.762695,653.346985 568.339966,650.915771 560.999084,647.132324  M574.072754,610.433350   C576.719238,613.251526 579.812561,615.469055 583.217468,617.277466   C593.521973,622.750549 602.545349,619.595581 606.412048,608.669434   C610.325806,597.610229 609.489685,586.423950 605.999695,575.358887   C605.449585,573.614807 604.623169,572.504822 602.467834,572.660217   C589.535217,573.593079 576.621521,574.559998 563.901733,577.337402   C559.318542,578.338196 558.100281,580.978577 559.531860,584.939819   C562.816833,594.029663 566.354980,603.026917 574.072754,610.433350  z"/>
<path fill="#000000" opacity="1.000000" stroke="none" d=" M487.265564,694.278931   C505.987976,676.668945 528.527588,667.845581 552.899231,662.860779   C574.672607,658.407471 596.256226,658.809448 617.525940,665.622986   C621.789856,666.988892 625.945801,668.786621 629.992798,670.717651   C645.572021,678.151123 653.057617,691.261536 655.280640,707.780518   C658.717102,733.316467 649.083435,753.692627 629.088013,768.893799   C595.287842,794.589661 556.862122,802.551758 515.296326,795.950256   C503.306732,794.045959 492.100830,789.451965 483.236053,780.762451   C469.859589,767.650635 466.624908,751.173218 469.044159,733.359741   C471.037354,718.683411 476.729401,705.483887 487.265564,694.278931  M566.927429,697.266602   C563.509033,697.967590 560.043701,698.494324 556.680603,699.400513   C543.818909,702.865967 531.874634,708.116150 522.495483,717.975586   C516.923889,723.832458 513.029419,730.638062 513.960510,738.976135   C515.070435,748.915588 522.719666,755.740784 534.442505,758.780579   C546.829895,761.992798 558.857605,760.530518 570.774109,756.699463   C584.590759,752.257690 597.388550,745.837097 607.176331,734.899963   C618.465210,722.285339 616.160706,710.748657 601.895874,702.528992   C600.320618,701.621277 598.584839,700.977234 596.889587,700.295166   C587.503906,696.518677 577.674133,696.862915 566.927429,697.266602  z"/>
<path fill="#000000" opacity="1.000000" stroke="none" d=" M564.267761,933.315796   C569.963989,924.849731 575.896851,917.064087 583.046692,910.221008   C592.160095,901.498718 602.940430,895.501953 615.392029,895.069092   C630.175964,894.555176 642.624207,900.879883 651.224548,913.332642   C658.590820,923.998718 661.530457,936.227234 663.242188,948.923645   C664.986938,961.864563 663.386658,974.493225 660.673157,987.056763   C658.692383,996.227905 655.818787,998.117004 646.552490,998.316223   C636.911133,998.523621 627.272705,999.076965 617.646729,999.693726   C613.192749,999.979248 609.196106,999.478516 606.897888,995.186523   C604.473389,990.658691 606.985474,987.450073 609.956665,984.135254   C615.188721,978.298096 620.235168,972.232971 621.101562,963.940613   C621.803284,957.224304 620.113159,951.010376 616.482239,945.454346   C613.789551,941.334045 610.237671,941.047668 606.292725,944.457092   C600.583252,949.391479 596.160278,955.475586 591.829468,961.599670   C582.699097,974.510864 574.350098,987.981995 564.078857,1000.074097   C552.117615,1014.155701 537.214172,1022.980347 518.483521,1021.935059   C491.880310,1020.450500 475.681580,1006.547546 471.565002,980.209717   C468.812744,962.600586 471.721344,945.745361 478.101410,929.323853   C480.455902,923.263733 484.908661,920.564270 491.073120,922.052734   C499.780304,924.155151 508.542694,924.375183 517.370239,923.524841   C521.265381,923.149658 524.886963,923.487854 526.970520,927.186768   C529.212524,931.166870 528.107971,934.922729 525.208740,938.221069   C518.505127,945.847168 514.397583,954.529358 514.296143,964.855408   C514.289612,965.521301 514.247070,966.200500 514.354614,966.851501   C515.104004,971.388794 516.264709,976.019348 520.638489,978.205566   C525.030396,980.400818 528.644653,977.282898 531.954102,974.818848   C540.523499,968.438232 546.296021,959.579590 552.379028,951.045044   C556.437439,945.351013 560.176392,939.429260 564.267761,933.315796  z"/>
<path fill="#000000" opacity="1.000000" stroke="none" d=" M770.657715,378.580231   C772.542236,370.367615 769.288269,363.312805 767.848328,356.164215   C765.617371,355.713715 764.889893,357.048157 763.899414,357.843079   C748.911560,369.872131 731.832764,372.867950 713.512268,368.674683   C695.609131,364.577026 685.254761,351.078796 684.588684,332.709778   C684.264465,323.765594 685.700256,315.145050 688.081299,306.602509   C689.421265,301.795258 690.539978,296.965637 690.909363,291.938202   C691.309143,286.496765 694.722107,283.742950 700.129700,283.496094   C704.609985,283.291534 709.083679,282.838379 713.545471,282.357880   C721.060303,281.548676 724.862244,285.892151 723.024719,293.294373   C720.460205,303.625305 717.507812,313.903229 717.198853,324.629730   C717.046997,329.902954 716.468384,335.843445 722.342773,338.662689   C728.656921,341.693085 733.111328,337.384857 737.258606,333.479828   C748.019653,323.347351 751.103394,302.013611 744.139893,286.804596   C743.378235,285.141052 742.404419,283.565826 741.745361,281.865784   C739.661926,276.491547 742.012146,271.587280 747.576538,270.210602   C754.519714,268.492706 761.520874,266.987030 768.538147,265.597595   C773.978149,264.520477 778.560608,267.303711 780.132263,272.598419   C791.119873,309.615143 801.074829,346.865143 805.440918,385.372528   C806.170898,391.811066 807.181763,398.217407 808.007751,404.645660   C808.198059,406.126617 808.232971,407.637512 808.217285,409.133331   C808.111389,419.241547 802.819275,424.185852 792.758362,423.493805   C781.139709,422.694611 769.519653,421.899139 757.912720,420.949097   C737.757812,419.299438 717.644775,420.478363 697.525330,421.611206   C693.038025,421.863861 688.545227,422.140015 684.053589,422.166992   C678.107666,422.202728 674.412476,418.825134 674.794922,412.876556   C675.360291,404.083801 676.895264,395.363708 679.302734,386.877197   C680.524902,382.568726 685.215515,379.890900 690.016235,380.360413   C700.009827,381.337860 709.963196,380.311462 719.935730,380.207977   C733.236267,380.069977 746.549072,380.916779 759.853088,381.431488   C763.673340,381.579315 767.567078,382.409790 770.657715,378.580231  z"/>
<path fill="#000000" opacity="1.000000" stroke="none" d=" M513.483765,846.625366   C512.015015,853.278381 511.248962,859.433228 514.083191,865.606201   C517.123779,872.228516 521.329712,873.779846 527.652771,869.971375   C533.315002,866.560974 537.522888,861.601746 541.520081,856.443176   C551.018860,844.184570 557.993958,830.198669 567.818542,818.158264   C576.686218,807.290527 586.752441,798.062134 600.227539,793.154419   C620.659058,785.713196 641.600098,794.252075 650.010498,814.192871   C658.244385,833.715027 657.465637,854.221069 654.909546,874.701050   C654.334351,879.309265 650.592590,881.506104 646.147461,881.247925   C635.789795,880.646362 625.518433,881.915710 615.207153,882.241882   C611.512817,882.358704 608.622864,881.242126 606.960938,877.849060   C605.339111,874.537720 606.575378,871.756592 608.816101,869.177979   C615.266663,861.754578 617.146912,853.427307 613.549438,844.106995   C610.916382,837.285034 606.308411,836.113953 600.866516,841.004578   C590.939331,849.926025 584.509277,861.546875 577.042542,872.348572   C568.690369,884.431152 560.352844,896.456055 548.074646,905.073730   C528.092224,919.098877 502.338318,917.889771 485.689697,901.553528   C475.326599,891.384949 471.652222,878.058533 469.776398,864.107300   C467.527557,847.381775 471.507355,831.728516 477.941864,816.509399   C480.424469,810.637512 484.673828,808.819702 490.780975,809.942444   C498.602936,811.380432 506.437897,813.034424 514.522522,811.990356   C517.288635,811.633057 520.200134,811.423462 522.783020,813.083496   C527.355957,816.022339 528.091003,821.125000 524.274841,826.028931   C519.507935,832.154724 515.981140,838.875183 513.483765,846.625366  z"/>
<path fill="#000000" opacity="1.000000" stroke="none" d=" M333.384430,382.821838   C334.151611,397.361877 334.965302,411.482208 335.653992,425.608643   C335.895142,430.556183 333.744354,434.305511 329.215393,436.507477   C322.328247,439.855957 315.455261,443.237427 308.507507,446.456512   C301.246094,449.820953 295.760376,446.536407 295.747284,438.420319   C295.735199,430.948975 296.525696,423.476074 296.970673,416.004333   C297.593628,405.544525 298.215027,395.084595 298.858276,384.626007   C298.998474,382.346069 298.556610,380.640564 296.415253,379.119965   C287.953339,373.111145 287.436005,360.832550 295.954895,354.973419   C300.234619,352.029938 301.332550,348.485016 301.554352,344.204254   C302.389374,328.088470 304.791504,312.085022 304.907135,295.918640   C304.946075,290.477478 307.613312,287.586639 313.252350,286.364807   C318.779907,285.167145 324.316406,284.007294 329.826538,282.733795   C337.171143,281.036285 342.295898,285.285522 341.004669,292.692108   C338.631378,306.305634 337.458923,320.060394 335.608185,333.732544   C334.205383,344.095490 334.638702,344.459961 344.688477,342.285583   C353.631256,340.350739 362.573853,338.397614 371.565430,336.713715   C375.178497,336.037109 376.540131,334.185974 376.840179,330.673523   C377.820007,319.202789 377.846741,307.722565 377.726868,296.226593   C377.625183,286.477112 379.100677,284.761353 388.356079,282.423645   C393.034546,281.242004 397.626892,279.715942 402.312073,278.565094   C408.757477,276.981873 413.561798,281.202606 412.937897,287.849213   C411.492279,303.250244 408.755554,318.644775 408.757874,334.041595   C408.761871,360.489929 406.641724,386.941711 408.530304,413.384949   C409.038727,420.503601 406.874359,423.864105 400.203094,426.135071   C394.851776,427.956787 389.608612,430.095276 384.311035,432.076019   C376.083282,435.152283 371.295166,432.135742 371.679596,423.472290   C372.276489,410.020660 373.458527,396.595642 374.322296,383.154816   C374.620911,378.507507 374.726196,373.847351 374.889099,369.191956   C374.995178,366.160553 373.567108,364.992920 370.537445,365.487610   C359.354706,367.313690 348.278412,369.602142 337.398468,372.796356   C332.088348,374.355316 334.203003,378.986298 333.384430,382.821838  z"/>
<path fill="#000000" opacity="1.000000" stroke="none" d=" M510.035767,249.043015   C509.757172,256.311920 507.812744,258.566559 501.477631,260.476044   C496.864441,261.866577 492.426575,263.827789 487.853607,265.365265   C480.195312,267.940033 474.949066,263.899567 475.519348,255.764389   C476.182953,246.297897 476.613983,236.823318 477.108948,227.350937   C477.641724,217.155411 476.909149,207.055191 476.309265,196.942490   C475.973297,191.278748 475.733215,185.625748 475.865295,179.973831   C476.051849,171.992310 480.615173,167.538132 488.629272,167.914017   C521.031311,169.433868 553.072998,165.340485 585.182434,162.119827   C594.121460,161.223221 603.089539,160.407761 612.104919,160.620651   C619.312073,160.790833 621.768982,163.472412 622.274841,170.618851   C623.218201,183.944061 622.120667,197.242096 622.152527,210.552246   C622.181213,222.552643 622.878906,234.504318 624.140747,246.432678   C625.022217,254.764740 621.892700,258.157043 613.516541,258.206543   C609.689148,258.229156 605.846069,258.221313 602.039490,258.558868   C595.325806,259.154205 591.927124,256.377075 591.748718,249.641632   C591.404968,236.659332 591.184753,223.673660 590.811829,210.692307   C590.673279,205.868515 590.158508,201.056107 589.989014,196.232391   C589.877258,193.050858 588.433411,191.692322 585.292114,191.972992   C580.154907,192.431976 575.015991,192.874619 569.873535,193.268661   C567.175354,193.475418 566.156006,194.929398 566.137573,197.539322   C566.024780,213.526077 565.709656,229.519196 567.879395,245.420074   C569.071716,254.157837 565.907410,258.218872 557.099792,259.147461   C553.456665,259.531494 549.819824,259.978882 546.173767,260.331604   C539.315063,260.995178 535.911621,257.997192 535.937012,250.871689   C535.961792,243.896591 536.669128,236.939178 535.954224,229.943771   C535.023499,220.835709 534.326782,211.702744 533.610901,202.574112   C533.271423,198.245941 531.323547,196.215012 526.807434,197.110245   C524.691956,197.529602 522.513367,197.619232 520.379456,197.959213   C510.838409,199.479294 510.277832,199.458008 509.712738,208.703339   C508.901215,221.980225 508.650055,235.316818 510.035767,249.043015  z"/>
<path fill="#000000" opacity="1.000000" stroke="none" d=" M531.356384,531.917847   C518.528809,533.154236 506.066010,533.821167 493.740997,535.989502   C486.123779,537.329590 481.589935,532.713928 478.228058,526.662903   C464.569763,502.079376 472.698822,472.903595 489.240631,456.765442   C504.471741,441.906006 523.144165,434.910980 543.733337,432.109131   C564.614441,429.267578 585.003540,431.388092 604.361572,439.843079   C625.583069,449.111938 636.403809,466.049591 638.164551,488.871429   C638.624268,494.829834 638.391052,500.859406 638.192993,506.846924   C637.844910,517.370544 634.269043,520.175354 623.829834,520.668884   C612.219177,521.217773 600.654907,522.755249 589.072693,523.885193   C587.749634,524.014343 586.446838,524.344177 585.124512,524.488403   C581.577393,524.875244 578.912354,523.566650 577.492371,520.204834   C576.043457,516.774597 577.168579,513.947510 579.998596,511.864899   C584.343201,508.667664 588.074463,504.952179 590.936646,500.356903   C598.381287,488.404663 595.205017,476.320984 582.794373,469.527374   C566.525085,460.621521 538.800476,463.494415 524.651794,475.552277   C514.030334,484.604126 513.962830,497.475494 524.466003,506.578003   C528.660522,510.213165 533.437927,512.887085 538.426758,515.232361   C543.060181,517.410461 545.154541,521.070740 544.159790,525.528931   C543.031067,530.587952 539.418030,531.924744 534.740784,531.611267   C533.758606,531.545471 532.757385,531.763489 531.356384,531.917847  z"/>
<path fill="#000000" opacity="1.000000" stroke="none" d=" M418.951233,144.230026   C420.391266,117.638268 421.196106,91.508621 420.854279,65.348778   C420.732391,56.021667 420.778351,46.692032 420.792480,37.363613   C420.801147,31.639906 423.268097,27.724659 428.727844,25.325855   C437.561615,21.444656 446.114685,16.926964 454.929138,12.998511   C461.552338,10.046648 466.316742,12.562249 468.210388,19.558544   C469.222107,23.296263 469.296967,27.151960 469.137299,30.979523   C468.221893,52.926300 467.777191,74.911278 466.112152,96.802620   C464.659393,115.903297 464.464081,135.030411 463.510925,154.135651   C462.614319,172.107910 464.057953,190.088226 464.818939,208.050919   C465.312927,219.711670 465.313965,231.364410 465.262451,243.024124   C465.248322,246.224686 464.229401,248.922073 461.105743,250.399612   C457.877441,251.926651 454.964630,251.276474 452.253021,249.135941   C444.801208,243.253510 437.485474,237.185883 429.448212,232.090454   C427.342438,230.755447 425.220062,229.397720 422.962891,228.360382   C418.052246,226.103607 416.151672,222.201782 416.507782,217.064972   C418.177948,192.973236 417.704651,168.811127 418.951233,144.230026  z"/>
<path fill="#000000" opacity="1.000000" stroke="none" d=" M642.255127,417.589111   C638.041504,418.146912 634.266174,418.860321 630.465393,419.042114   C625.585327,419.275574 622.938171,416.339172 621.449219,411.946320   C614.239014,390.674042 607.073242,369.385773 599.693359,348.172211   C593.404053,330.093536 586.373108,312.292664 578.746826,294.733704   C575.135681,286.419403 576.884338,282.816986 585.485657,280.492157   C591.261719,278.930939 596.957214,277.053680 602.639832,275.170166   C608.464111,273.239746 612.462524,275.162445 613.879272,281.141418   C618.445007,300.409454 623.410767,319.566681 629.270325,338.485382   C631.029541,344.165283 632.835571,349.830688 635.597168,355.604065   C636.303467,353.158905 637.157532,350.745636 637.692627,348.263611   C641.934998,328.584442 645.418701,308.775208 647.798706,288.777039   C648.622803,281.852600 651.458862,279.573425 658.724731,279.401886   C663.044312,279.299927 667.356262,278.894867 671.673462,278.659576   C680.297974,278.189453 684.117188,282.411255 682.706360,290.770782   C679.187195,311.623077 673.424072,331.976685 668.984131,352.624176   C664.964294,371.318024 660.885498,389.995239 659.130005,409.091553   C658.462952,416.348480 654.730530,419.065155 647.614441,418.053284   C645.977600,417.820557 644.326599,417.687408 642.255127,417.589111  z"/>
<path fill="#000000" opacity="1.000000" stroke="none" d=" M559.411865,147.430283   C543.518616,148.660843 528.091919,149.856796 512.666138,151.063049   C504.045776,151.737137 495.424011,152.395615 486.807953,153.121506   C479.000458,153.779282 475.981598,151.139542 475.844055,143.381607   C475.773224,139.385941 475.627289,135.388077 475.695068,131.394257   C475.813599,124.410545 481.141937,119.836418 488.120789,120.037361   C503.625092,120.483795 502.830353,120.506874 500.991760,106.274048   C500.175171,99.952744 500.139526,99.957367 493.862976,100.977661   C483.098724,102.727486 480.425110,100.573967 479.708984,89.608826   C479.622345,88.282059 479.427795,86.962616 479.298187,85.638321   C478.266388,75.097969 482.880737,69.915161 493.386414,69.862846   C511.729492,69.771500 529.832581,66.735687 548.074402,65.377693   C558.537048,64.598801 562.351501,67.680069 562.155640,77.960907   C562.111206,80.290100 562.213928,82.621902 562.237244,84.952621   C562.298950,91.120193 559.439880,94.271919 553.165222,94.176575   C547.631165,94.092491 542.218018,95.005257 536.745605,95.394592   C533.505981,95.625069 531.873718,97.219078 532.127563,100.545097   C532.140198,100.710556 532.129089,100.878021 532.125671,101.044487   C531.832031,115.372780 532.225342,115.774948 546.204712,114.872849   C565.792114,113.608871 585.376831,112.302513 604.965332,111.055649   C607.285583,110.907959 609.654053,110.772865 611.944702,111.065834   C616.055786,111.591637 618.654663,114.069008 619.077271,118.228859   C619.699097,124.348732 620.180969,130.491425 620.448364,136.636322   C620.722961,142.945587 617.431946,145.890259 610.301086,146.081253   C593.493958,146.531448 576.686279,146.961685 559.411865,147.430283  z"/>
<path fill="#000000" opacity="1.000000" stroke="none" d=" M582.681946,92.992020   C578.246033,91.773659 576.621887,88.848694 576.803772,84.983353   C577.175049,77.096603 575.421021,69.415810 574.833252,61.626343   C574.588074,58.376694 573.167358,56.690334 569.713440,56.042404   C544.335144,51.281605 518.896423,49.861454 493.288544,53.972458   C485.070892,55.291687 481.193970,52.027313 481.644043,43.641602   C482.118896,34.793808 479.951050,26.072828 480.690521,17.248892   C481.410309,8.660089 485.514801,5.239749 493.872192,6.623762   C514.509583,10.041390 534.148438,16.873344 553.537537,24.496201   C559.225403,26.732378 564.886658,29.036482 570.496094,31.283842   C572.454834,28.864317 571.344910,26.774796 571.028076,24.730991   C570.019043,18.219337 572.867371,14.410589 579.325134,14.773620   C588.452026,15.286703 597.562195,16.273602 606.642822,17.363403   C611.605957,17.959049 614.080444,21.114075 614.386475,26.220598   C615.531006,45.316395 616.835022,64.402573 618.029968,83.495438   C618.560486,91.972374 615.203064,94.682350 606.549927,93.612511   C598.780334,92.651932 590.931458,92.916763 582.681946,92.992020  z"/>
<path fill="#000000" opacity="1.000000" stroke="none" d=" M257.322357,256.607361   C266.528473,263.812378 275.614288,270.471039 286.136658,275.026764   C290.482086,276.908112 291.274536,280.944366 290.613068,285.592743   C287.473907,307.652374 283.315460,329.666199 283.250336,351.992401   C283.203674,367.987793 281.115448,383.847748 281.300720,399.820007   C281.343414,403.499512 280.549957,406.986298 276.672089,408.443634   C272.718384,409.929413 270.704315,406.833282 268.341248,404.469666   C259.391663,395.518188 250.305252,386.675293 239.954529,379.343445   C235.520142,376.202332 234.271027,372.474457 234.979950,367.338470   C238.596512,341.137207 242.192047,314.931610 245.513351,288.691864   C246.577164,280.287231 246.590973,271.754700 247.435593,263.315735   C248.099243,256.684875 251.165710,254.686920 257.322357,256.607361  z"/>
<path fill="#000000" opacity="1.000000" stroke="none" d=" M417.597443,240.994354   C427.681000,245.941422 437.404358,250.695847 447.082764,255.540192   C450.197205,257.099091 452.026550,259.602112 451.187927,263.253479   C450.252991,267.324188 447.059540,268.780090 443.354523,269.008301   C435.041473,269.520325 426.717316,270.027924 418.392487,270.134796   C401.896515,270.346588 385.393280,270.084564 368.900208,270.397125   C353.753754,270.684113 338.614746,271.421906 323.477264,272.073608   C320.414124,272.205475 317.457397,271.882263 314.631134,270.872711   C302.231812,266.443512 289.990173,261.620789 278.182983,255.756790   C276.378815,254.860764 274.589508,253.940491 273.529388,252.119614   C271.711548,248.997299 272.279449,246.356552 275.322205,244.391403   C276.886993,243.380768 278.693359,242.978760 280.559296,242.928284   C304.025299,242.293442 327.447632,239.500290 350.910797,240.230652   C370.424011,240.838043 389.872894,240.031372 409.350098,239.815781   C412.023041,239.786194 414.692841,239.753586 417.597443,240.994354  z"/>
<path fill="#000000" opacity="1.000000" stroke="none" d=" M716.816650,241.988983   C725.478943,243.277176 733.696594,244.535049 741.924988,245.718811   C747.773071,246.560135 751.222229,249.500412 751.157898,253.735916   C751.095154,257.875031 747.260742,260.828491 741.570251,261.356628   C710.609863,264.230164 679.651306,267.124542 648.697449,270.067352   C641.580505,270.744019 638.469055,269.044281 635.834229,262.595520   C634.638489,259.669067 633.491272,256.722870 632.304993,253.792465   C629.696533,247.348541 632.218384,242.080872 639.176392,240.726990   C647.707275,239.067047 656.442749,239.632660 665.063232,239.729660   C682.180908,239.922256 699.360474,239.201660 716.816650,241.988983  z"/>
</svg>