<svg xmlns="http://www.w3.org/2000/svg" xmlns:xlink="http://www.w3.org/1999/xlink" version="1.1" viewBox="1314.2 795.5 1467.59 2517.52">		<g id="document" transform="scale(1.0 1.0) translate(2048.0 2048.0)">			<g>				<path d="M-146.393,489.153 C-145.533,396.752 -144.138,305.804 -143.944,214.853 C-143.682,92.4364 -139.732,-29.8979 -137.22,-152.266 C-136.674,-178.888 -147.342,-186.596 -173.633,-180.902 C-203.377,-174.46 -232.937,-167.055 -263.374,-164.095 C-281.276,-162.354 -291.188,-151.519 -291.889,-133.321 C-294.048,-77.2639 -296.764,-21.2064 -297.566,34.8752 C-298.521,101.637 -300.815,168.33 -303.155,235.048 C-306.885,341.391 -309.876,447.773 -311.8,554.163 C-313.296,636.89 -312.525,719.656 -313.169,802.401 C-313.285,817.287 -310.626,831.222 -304.55,844.627 C-267.596,926.146 -235.825,1009.85 -200.354,1091.99 C-193.544,1107.76 -184.531,1114.31 -172.478,1111.99 C-159.54,1109.5 -152.14,1099.36 -151.863,1082.75 C-151.289,1048.42 -149.973,1014.07 -149.598,979.777 C-147.814,816.728 -147.335,653.664 -146.393,489.153 Z " fill="#000000" fill-opacity="1.00" stroke-width="5.01" stroke="#ffffff" stroke-linecap="square" stroke-linejoin="miter"/>				<path d="M-42.0266,78.618 C-55.0806,78.8499 -66.7045,78.7318 -78.2898,79.3436 C-90.4056,79.9836 -100.506,85.4207 -103.753,97.4399 C-109.982,120.503 -111.947,144.22 -106.25,167.662 C-102.627,182.567 -93.0668,187.525 -77.8303,185.357 C-53.9134,181.953 -29.9912,178.577 -6.03524,175.467 C-0.913475,174.802 5.3392,173.605 8.12197,179.713 C10.8678,185.74 6.29243,189.692 2.16829,193.143 C-23.9037,214.961 -51.0369,234.986 -84.0394,245.48 C-102.718,251.419 -109.429,261.139 -109.572,280.95 C-109.728,302.715 -109.775,324.481 -110.089,346.244 C-110.291,360.248 -109.347,374.069 -95.4849,381.691 C-80.9111,389.704 -69.7201,380.064 -58.4449,372.595 C-56.8356,371.528 -55.3852,370.226 -53.82,369.089 C-16.8986,342.283 15.6174,310.519 48.1062,278.707 C61.426,265.665 63.5315,265.727 75.6617,279.579 C98.0017,305.09 123.761,325.488 156.113,337.2 C228.395,363.367 302.778,326.567 324.08,253.164 C339.937,198.525 336.144,144.231 319.699,90.3092 C308.57,53.8179 301.028,48.4441 263.967,52.0621 C259.159,52.5317 254.358,53.0874 249.562,53.6692 C153.139,65.3653 56.8809,78.9757 -42.0266,78.618 Z M125.139,200.662 C120.284,191.559 115.901,184.526 112.806,176.965 C106.938,162.631 109.781,158.227 125.386,155.333 C153.987,150.027 183.025,149.429 211.909,147.142 C220.035,146.499 224.764,150.483 227.122,157.689 C236.496,186.331 235.048,213.932 218.009,239.54 C210.084,251.449 198.481,254.903 184.964,250.682 C158.157,242.311 139.617,223.873 125.139,200.662 Z " fill="#000000" fill-opacity="1.00" stroke-width="5.01" stroke="#ffffff" stroke-linecap="square" stroke-linejoin="miter"/>				<path d="M339.857,447.606 C327.541,418.56 306.912,398.857 280.243,385.274 C223.981,356.622 164.331,349.909 102.541,359.369 C53.3152,366.905 6.4562,381.474 -35.2932,409.584 C-77.5408,438.029 -107.547,475.496 -115.362,526.995 C-125.803,595.799 -93.4233,650.173 -28.1092,676.223 C10.5316,691.635 50.8996,693.173 91.7215,690.372 C166.492,685.242 234.487,662.141 293.044,614.169 C338.55,576.889 365.686,506.88 339.857,447.606 Z M138.571,587.129 C106.729,594.537 77.0158,596.413 47.1489,590.362 C40.5736,589.03 33.9917,587.036 27.8568,584.338 C-13.9091,565.967 -20.4129,524.033 15.8784,496.057 C66.5069,457.027 124.442,442.029 187.791,453.505 C212.446,457.972 235.707,469.056 240.854,496.402 C245.746,522.397 227.624,539.58 208.996,554.194 C188.182,570.522 164.273,580.91 138.571,587.129 Z " fill="#000000" fill-opacity="1.00" stroke-width="5.01" stroke="#ffffff" stroke-linecap="square" stroke-linejoin="miter"/>				<path d="M-95.2942,1213.71 C-86.1013,1227.14 -75.2992,1237.36 -62.1968,1245.13 C-16.3517,1272.31 41.733,1267.18 85.9323,1232.72 C114.598,1210.38 135.88,1181.77 156.734,1152.6 C176.694,1124.68 196.186,1096.3 222.205,1073.38 C239.273,1058.34 249.667,1061.52 257.213,1082.82 C267.634,1112.24 256.123,1135.61 238.022,1157.42 C232.471,1164.11 225.859,1170.01 222.343,1178.16 C214.788,1195.67 225.885,1212.74 244.951,1211.92 C274.411,1210.65 303.871,1208.98 333.259,1206.6 C359.681,1204.46 369.41,1196.53 375.525,1170.73 C390.667,1106.85 380.616,1046.29 345.308,991.369 C311.531,938.829 248.189,923.405 193.595,951.62 C169.849,963.893 151.462,982.515 135.848,1003.64 C111.425,1036.68 88.4294,1070.79 63.8576,1103.72 C51.1438,1120.76 36.404,1136.37 17.4147,1146.92 C5.16375,1153.72 -1.11994,1151.59 -6.16523,1138.44 C-12.3372,1122.36 -10.5997,1106.24 -4.83609,1090.27 C1.50209,1072.7 12.0706,1057.77 23.4062,1043.23 C29.6714,1035.19 30.3032,1026.29 25.5714,1017.38 C20.6262,1008.08 11.9611,1004.69 2.22705,1006.59 C-20.0988,1010.95 -41.9079,1008.86 -63.9399,1004.38 C-78.8914,1001.34 -90.7737,1007.59 -97.4995,1021.34 C-128.824,1085.38 -132.056,1149.3 -95.2942,1213.71 Z " fill="#000000" fill-opacity="1.00" stroke-width="5.01" stroke="#ffffff" stroke-linecap="square" stroke-linejoin="miter"/>				<path d="M406.059,-227.664 C415.869,-222.8 425.162,-224.102 434.22,-225.118 C494.979,-231.934 555.833,-231.832 616.766,-228.287 C638.971,-226.995 661.204,-225.077 683.411,-225.234 C714.582,-225.453 730.445,-242.292 731.268,-273.226 C731.514,-282.507 729.81,-291.478 728.474,-300.562 C713.763,-400.604 694.075,-499.557 664.116,-596.277 C659.388,-611.539 646.442,-618.11 631.066,-612.737 C623.313,-610.028 615.794,-606.648 608.169,-603.571 C565.636,-586.401 562.182,-590.317 571.06,-540.018 C576.478,-509.321 570.913,-478.891 548.576,-454.561 C532.889,-437.475 514.762,-442.264 508.445,-464.585 C506.188,-472.56 506.352,-480.852 506.944,-489.102 C508.517,-511.025 515.959,-531.583 521.56,-552.575 C527.905,-576.351 516.07,-589.193 491.616,-585.343 C479.683,-583.465 467.759,-581.453 455.765,-580.062 C445.459,-578.867 437.668,-573.881 435.742,-563.956 C430.407,-536.454 419.365,-510.438 416.357,-482.272 C411.106,-433.106 437.547,-385.032 481.4,-368.473 C526.598,-351.407 566.845,-361.221 602.372,-393.021 C607.618,-397.716 617.022,-411.503 620.487,-406.116 C633.156,-386.421 634.804,-362.71 636.446,-340.048 C637.132,-330.59 630.519,-327.819 622.174,-327.759 C560.764,-327.319 499.383,-328.313 438.106,-332.557 C420.968,-333.744 410.598,-327.216 406.565,-310.086 C402.579,-293.154 399.319,-276.046 395.069,-259.184 C391.868,-246.483 394.747,-236.321 406.059,-227.664 Z " fill="#000000" fill-opacity="1.00" stroke-width="5.01" stroke="#ffffff" stroke-linecap="square" stroke-linejoin="miter"/>				<path d="M-312.554,-580.307 C-319.309,-578.5 -324.886,-576.897 -330.482,-575.364 C-353.666,-569.014 -357.174,-565.036 -356.548,-541.031 C-355.791,-511.974 -358.497,-483.07 -359.137,-454.087 C-359.358,-444.062 -363.271,-438.992 -373.336,-437.785 C-389.151,-435.889 -404.882,-433.298 -420.661,-431.095 C-453.144,-426.56 -454.724,-428.227 -449.483,-461.205 C-444.935,-489.821 -439.826,-518.36 -435.988,-547.07 C-433.16,-568.226 -445.922,-579.313 -466.552,-574.586 C-483.984,-570.591 -501.305,-566.094 -518.606,-561.558 C-536.478,-556.872 -541.601,-549.551 -542.749,-530.55 C-544.963,-493.903 -545.841,-457.181 -549.682,-420.615 C-550.825,-409.737 -554.876,-402.204 -562.927,-394.803 C-583.027,-376.323 -582.418,-349.607 -562.233,-332.004 C-557.923,-328.246 -556.924,-324.421 -557.411,-319.339 C-561.56,-276.068 -565.361,-232.761 -569.894,-189.53 C-572.331,-166.285 -556.897,-153.361 -535.094,-161.685 C-516.581,-168.753 -498.325,-176.492 -479.836,-183.628 C-458.462,-191.877 -455.896,-195.849 -456.185,-219.204 C-456.634,-255.475 -456.662,-291.751 -457.036,-328.023 C-457.131,-337.232 -454.615,-344.188 -444.583,-346.38 C-422.395,-351.229 -400.245,-356.252 -378.035,-360.993 C-367.12,-363.323 -362.465,-357.722 -363.093,-347.466 C-363.859,-334.942 -365.363,-322.465 -366.429,-309.957 C-368.931,-280.598 -372.244,-251.272 -373.519,-221.858 C-374.407,-201.374 -360.169,-192.067 -340.784,-198.38 C-327,-202.869 -313.353,-207.811 -299.461,-211.931 C-270.857,-220.414 -266.12,-227.925 -271.534,-256.968 C-277.753,-290.329 -280.96,-323.933 -279.426,-357.924 C-279.015,-367.01 -276.818,-374.244 -268.92,-380.403 C-254.818,-391.4 -249.994,-421.545 -261.808,-434.503 C-272.801,-446.561 -271.194,-458.951 -269.497,-472.242 C-265.889,-500.513 -261.728,-528.715 -258.176,-556.993 C-255.624,-577.311 -268.768,-589.563 -288.802,-585.841 C-296.396,-584.43 -303.86,-582.33 -312.554,-580.307 Z " fill="#000000" fill-opacity="1.00" stroke-width="5.01" stroke="#ffffff" stroke-linecap="square" stroke-linejoin="miter"/>				<path d="M337.6,902.205 C346.726,894.808 350.999,885.841 353.699,875.77 C365.244,832.695 359.925,790.905 341.228,751.343 C304.452,673.529 223.958,655.316 157.075,708.973 C130.253,730.492 113.028,760.163 93.0984,787.459 C74.2925,813.217 57.4208,840.589 31.1936,859.999 C22.5068,866.427 13.2163,873.557 2.15758,867.918 C-8.59346,862.436 -9.66065,850.912 -9.78001,840.055 C-10.1083,810.185 3.65694,786.237 22.6137,764.615 C29.9045,756.3 33.4238,747.272 28.0059,736.747 C22.9315,726.89 13.9988,723.103 3.64418,725.011 C-18.7489,729.137 -40.6093,726.391 -62.6023,722.227 C-75.2682,719.828 -86.0437,724.195 -91.9754,735.925 C-118.309,787.998 -128.515,841.789 -107.215,898.348 C-75.5014,982.557 22.0678,1006.55 89.8428,947.302 C117.192,923.394 136.655,893.41 157.259,864.179 C173.723,840.82 190.727,817.828 213.79,800.345 C227.887,789.659 236.691,791.975 242.034,808.863 C249.037,830.991 246.048,851.793 230.08,869.873 C223.369,877.472 219.234,886.143 224.081,896.451 C229.204,907.347 238.783,909.948 249.597,908.791 C272.72,906.318 295.764,904.463 318.972,908.219 C325.289,909.242 331.321,906.448 337.6,902.205 Z " fill="#000000" fill-opacity="1.00" stroke-width="5.01" stroke="#ffffff" stroke-linecap="square" stroke-linejoin="miter"/>				<path d="M-264.018,-747.624 C-265.057,-734.869 -261.703,-724.907 -251.414,-719.037 C-220.282,-701.275 -191.153,-680.393 -160.719,-661.571 C-140.676,-649.175 -125.485,-658.246 -125.479,-681.973 C-125.463,-754.535 -125.768,-827.081 -123.846,-899.649 C-122.041,-967.812 -120.726,-1035.97 -117.522,-1104.1 C-115.795,-1140.81 -114.001,-1177.49 -111.53,-1214.16 C-109.991,-1237 -122.835,-1246.31 -144.399,-1239.08 C-172.36,-1229.69 -200.295,-1220.22 -228.074,-1210.31 C-245.759,-1204.01 -252.343,-1195.15 -251.775,-1176.58 C-247.405,-1033.75 -260.006,-891.424 -264.018,-747.624 Z " fill="#000000" fill-opacity="1.00" stroke-width="5.01" stroke="#ffffff" stroke-linecap="square" stroke-linejoin="miter"/>				<path d="M97.265,-861.602 C44.0787,-860.495 -7.6662,-859.163 -59.4195,-858.42 C-89.2287,-857.993 -97.2779,-850.515 -97.4284,-820.656 C-97.6697,-772.754 -97.8235,-724.851 -98.007,-676.949 C-98.0534,-664.853 -98.6499,-652.723 -97.9615,-640.667 C-97.0286,-624.329 -85.5005,-614.898 -70.9185,-618.52 C-54.0335,-622.714 -37.2658,-627.477 -20.6654,-632.688 C-8.96122,-636.362 -3.73258,-645.61 -4.79827,-657.408 C-7.80772,-690.724 -7.93258,-724.057 -6.61727,-757.427 C-5.8293,-777.417 -0.910996,-780.918 27.4477,-781.238 C43.6662,-781.422 40.3937,-768.505 41.2106,-759.161 C44.2046,-724.912 44.3233,-690.566 44.0587,-656.207 C43.9129,-637.273 52.0629,-629.54 70.9209,-631.044 C82.4543,-631.964 93.8783,-634.338 105.329,-636.196 C134.575,-640.943 138.256,-647.58 134.782,-677.087 C131.284,-706.801 128.177,-736.765 130.87,-766.789 C132.626,-786.379 134.61,-787.77 153.93,-788.601 C156.829,-788.725 159.74,-788.613 162.637,-788.762 C174.418,-789.368 179.906,-784.344 181.265,-772.058 C185.265,-735.917 184.672,-699.641 185.493,-663.421 C185.904,-645.321 192.38,-635.272 208.498,-634.567 C225.404,-633.828 242.37,-633.759 259.288,-634.207 C273.67,-634.588 283.564,-646.123 282.1,-660.324 C276.148,-718.07 272.715,-775.945 271.931,-833.999 C271.572,-860.603 261.586,-869.318 234.905,-868.039 C189.506,-865.862 144.104,-863.758 97.265,-861.602 Z " fill="#000000" fill-opacity="1.00" stroke-width="5.01" stroke="#ffffff" stroke-linecap="square" stroke-linejoin="miter"/>				<path d="M84.938,-113.652 C114.216,-117.645 142.181,-118.401 169.087,-108.026 C199.931,-96.1328 209.668,-71.0092 195.452,-41.3848 C189.535,-29.0543 181.365,-18.2677 170.876,-9.41827 C161.654,-1.63824 155.951,7.53448 160.673,19.7357 C165.248,31.5564 175.477,34.0128 186.917,33.2536 C219.698,31.0781 252.49,29.0408 285.25,26.5777 C301.015,25.3923 310.562,15.9777 315.833,1.51982 C322.451,-16.6345 322.362,-35.514 321.886,-54.3762 C320.344,-115.519 292.139,-159.419 235.77,-183.757 C150.098,-220.747 64.7765,-215.319 -18.4319,-176.612 C-93.5543,-141.665 -128.65,-58.3668 -91.7943,20.7603 C-81.2347,43.4308 -72.8476,49.3728 -48.0079,47.1973 C-13.811,44.2025 20.4203,41.902 54.7519,41.6222 C68.1588,41.513 79.2662,37.679 82.1539,23.297 C85.0908,8.67034 75.5305,1.35128 63.4792,-3.82507 C48.3086,-10.3415 33.8138,-18.0074 21.9483,-29.8623 C5.03835,-46.7571 4.3188,-64.4825 19.7969,-82.4998 C36.6268,-102.091 59.5893,-108.913 84.938,-113.652 Z " fill="#000000" fill-opacity="1.00" stroke-width="5.01" stroke="#ffffff" stroke-linecap="square" stroke-linejoin="miter"/>				<path d="M-93.1759,-468.199 C-106.86,-466.223 -119.332,-464.647 -131.758,-462.774 C-141.135,-461.36 -149.661,-462.555 -153.888,-472.035 C-158.537,-482.462 -155.845,-492.125 -147.457,-499.664 C-140.51,-505.908 -131.843,-509.118 -122.927,-511.718 C-105.152,-516.9 -87.5385,-514.63 -69.8072,-511.382 C-57.0401,-509.042 -46.329,-512.346 -41.9477,-525.852 C-38.3752,-536.865 -35.391,-548.147 -33.1998,-559.512 C-30.3373,-574.36 -37.8663,-584.399 -52.9523,-585.484 C-66.4357,-586.454 -80.0246,-586.109 -93.5665,-586.087 C-125.205,-586.035 -156.262,-583.028 -185.683,-569.827 C-243.626,-543.829 -261.584,-478.606 -230.853,-435.031 C-224.333,-425.785 -226.563,-418.131 -232.056,-409.819 C-250.323,-382.176 -257.095,-351.742 -255.129,-318.749 C-251.06,-250.458 -198.786,-200.491 -133.635,-205.027 C-91.2322,-207.979 -49.1359,-214.674 -6.61647,-216.879 C6.15888,-217.542 17.1121,-222.74 21.4651,-236.103 C26.2881,-250.909 28.8656,-266.293 27.8271,-281.8 C26.5086,-301.488 12.1127,-310.737 -6.80637,-304.905 C-17.4277,-301.632 -27.9001,-297.873 -38.4279,-294.298 C-63.7163,-285.711 -89.218,-278.614 -116.407,-280.301 C-133.279,-281.347 -145.89,-289.15 -154.489,-303.269 C-177.378,-340.851 -151.101,-392.109 -107.276,-395.366 C-99.598,-395.936 -91.8132,-394.889 -84.0923,-395.108 C-71.7469,-395.456 -64.307,-402.215 -61.907,-414.1 C-60.381,-421.657 -59.3466,-429.368 -58.8174,-437.06 C-57.1929,-460.668 -67.788,-470.573 -93.1759,-468.199 Z " fill="#000000" fill-opacity="1.00" stroke-width="5.01" stroke="#ffffff" stroke-linecap="square" stroke-linejoin="miter"/>				<path d="M219.282,-353.185 C234.305,-315.797 248.881,-279.443 263.599,-243.146 C268.737,-230.474 278.556,-223.672 292.034,-225.197 C307.936,-226.996 323.838,-227.631 339.777,-228.464 C354.663,-229.243 363.331,-237.327 365.023,-251.599 C373.056,-319.349 387.085,-386.058 399.717,-453.009 C406.348,-488.154 413.773,-523.163 419.671,-558.428 C423.595,-581.891 410.636,-593.907 387.841,-589.883 C376.411,-587.865 365.032,-585.552 353.59,-583.611 C331.474,-579.859 325.574,-574.619 323.924,-551.782 C321.832,-522.815 318.234,-494.053 314.052,-465.374 C310.714,-442.488 300.67,-398.059 300.67,-398.059 C300.67,-398.059 299.217,-389.975 297.018,-389.975 C294.82,-389.976 292.034,-398.061 292.034,-398.061 C292.034,-398.061 254.445,-512.001 240.649,-568.912 C235.663,-589.476 224.813,-596.129 204.446,-590.519 C191.861,-587.052 179.345,-583.34 166.796,-579.746 C143.949,-573.204 138.304,-561.432 146.868,-539.512 C170.981,-477.796 194.897,-416.003 219.282,-353.185 Z " fill="#000000" fill-opacity="1.00" stroke-width="5.01" stroke="#ffffff" stroke-linecap="square" stroke-linejoin="miter"/>				<path d="M59.0167,-341.921 C67.9439,-342.847 75.6605,-343.407 83.3617,-344.133 C105.32,-346.202 106.634,-345.648 114.234,-325.244 C122.841,-302.136 130.552,-278.755 135.107,-254.407 C138.52,-236.16 147.37,-227.079 162.13,-227.54 C179.973,-228.096 197.857,-229.256 215.574,-231.39 C232.433,-233.421 240.888,-246.297 236.424,-262.722 C233.78,-272.45 229.812,-281.968 225.312,-291.019 C196.228,-349.512 169.61,-409.003 148.344,-470.872 C136.867,-504.263 125.996,-537.798 116.357,-571.759 C111.028,-590.534 100.435,-598.517 84.2586,-596.31 C68.4609,-594.154 52.7681,-591.237 36.9825,-588.982 C25.3531,-587.32 18.8257,-580.603 16.5294,-569.492 C4.94105,-513.42 -16.8251,-460.508 -34.0518,-406.187 C-35.5376,-401.503 -37.0926,-396.466 -41.2169,-393.846 C-64.2336,-379.229 -67.8997,-360.01 -55.7307,-336.593 C-55.0857,-335.351 -55.0426,-333.791 -54.7526,-332.372 C-50.2665,-310.427 -37.4295,-304.206 -16.7198,-313.838 C7.38913,-325.051 31.2744,-336.886 59.0167,-341.921 Z M47.7496,-419.531 C52.6966,-434.339 62.1341,-459.135 62.1341,-459.135 C62.1341,-459.135 67.4524,-470.963 70.3484,-470.872 C73.2443,-470.782 76.7069,-462.67 78.141,-459.135 C81.9273,-449.804 85.9318,-440.535 89.1308,-431 C92.6502,-420.51 92.1472,-412.321 77.7168,-410.862 C70.6273,-410.146 63.5925,-408.432 56.3632,-408.632 C49.1731,-408.831 45.3326,-411.719 47.7496,-419.531 Z " fill="#000000" fill-opacity="1.00" stroke-width="5.01" stroke="#ffffff" stroke-linecap="square" stroke-linejoin="miter"/>				<path d="M71.6532,-974.924 C67.8658,-974.881 65.4427,-974.974 63.0328,-974.835 C49.4797,-974.054 45.6311,-981.511 45.5139,-993.767 C45.4005,-1005.64 46.238,-1015.07 61.8287,-1014.84 C72.9023,-1014.67 83.9938,-1016.21 95.088,-1016.78 C104.115,-1017.24 112.271,-1020.62 114.027,-1029.62 C117.174,-1045.74 116.881,-1062.36 114.062,-1078.53 C112.67,-1086.52 105.928,-1091.8 97.765,-1093.35 C92.1429,-1094.42 86.2174,-1094.36 80.4548,-1094.13 C31.7531,-1092.16 -16.772,-1085.86 -65.7142,-1089.54 C-80.4501,-1090.65 -90.171,-1080.62 -91.8025,-1065.8 C-92.434,-1060.07 -92.1624,-1054.22 -92.0845,-1048.42 C-91.5578,-1009.31 -90.4216,-1008.1 -51.4239,-1008.79 C-43.0924,-1008.94 -38.0211,-1007.33 -36.4279,-997.62 C-32.672,-974.731 -35.1985,-971.314 -58.8629,-971.751 C-62.2458,-971.814 -65.6384,-972.042 -69.0105,-971.873 C-85.8904,-971.031 -94.8096,-962.274 -95.2882,-945.461 C-95.5629,-935.809 -94.9613,-926.134 -94.7925,-916.468 C-94.3736,-892.492 -86.7818,-885.162 -62.8607,-886.853 C12.4046,-892.173 87.779,-892.838 163.18,-892.604 C188.318,-892.525 213.455,-892.366 238.592,-892.367 C261.226,-892.367 269.28,-901.223 267.229,-923.489 C266.3,-933.589 265.785,-943.737 264.54,-953.797 C261.17,-981.045 255.502,-985.82 227.847,-983.197 C176.344,-978.313 124.663,-977.097 71.6532,-974.924 Z " fill="#000000" fill-opacity="1.00" stroke-width="5.01" stroke="#ffffff" stroke-linecap="square" stroke-linejoin="miter"/>				<path d="M-709.081,-572.334 C-711.353,-550.832 -713.541,-530.661 -715.347,-510.456 C-720.681,-450.773 -725.846,-391.076 -731.121,-331.388 C-732.137,-319.889 -728.68,-310.407 -719.097,-303.551 C-690.778,-283.287 -662.613,-262.801 -634.054,-242.882 C-617.93,-231.636 -600.437,-240.405 -598.712,-260.223 C-598.085,-267.429 -599.007,-274.773 -598.344,-281.973 C-589.979,-372.858 -586.976,-464.282 -570.958,-554.406 C-569.001,-565.417 -573.104,-575.095 -582.623,-580.622 C-613.145,-598.343 -643.847,-615.787 -674.964,-632.433 C-689.844,-640.392 -703.185,-632.391 -705.1,-615.536 C-706.681,-601.612 -707.607,-587.614 -709.081,-572.334 Z " fill="#000000" fill-opacity="1.00" stroke-width="5.01" stroke="#ffffff" stroke-linecap="square" stroke-linejoin="miter"/>				<path d="M-84.0707,-1184.15 C-84.7573,-1172.23 -85.7137,-1161.62 -85.9267,-1151 C-86.3745,-1128.65 -76.491,-1120.39 -54.5057,-1123.27 C5.97271,-1131.18 66.0747,-1126.41 126.038,-1117.42 C135.792,-1115.96 140.066,-1111.17 140.242,-1101.01 C140.577,-1081.69 141.839,-1062.38 142.938,-1043.09 C143.763,-1028.59 150.688,-1020.2 163.774,-1020.09 C187.002,-1019.91 210.149,-1018.79 233.331,-1017.51 C249.019,-1016.64 257.415,-1025.74 257.761,-1041.5 C257.866,-1046.33 257.693,-1051.19 257.276,-1056 C253.099,-1104.16 250.85,-1152.43 248.887,-1200.71 C248.07,-1220.81 239.629,-1228.98 219.1,-1230.36 C198.85,-1231.71 178.603,-1233.17 158.383,-1234.92 C138.179,-1236.66 128.719,-1227.17 130.556,-1206.55 C130.889,-1202.81 132.435,-1198.93 129.023,-1194.58 C120.271,-1194.65 111.691,-1197.86 103.039,-1200.51 C51.736,-1216.23 0.495244,-1232.16 -50.8576,-1247.71 C-73.0995,-1254.45 -84.5088,-1246.32 -85.2075,-1223.11 C-85.5848,-1210.58 -84.454,-1198.01 -84.0707,-1184.15 Z " fill="#000000" fill-opacity="1.00" stroke-width="5.01" stroke="#ffffff" stroke-linecap="square" stroke-linejoin="miter"/>				<path d="M-170.599,-618.902 C-168.221,-631.957 -173.758,-639.527 -184.619,-643.467 C-211.035,-653.05 -236.108,-665.612 -261.06,-678.329 C-273.516,-684.677 -286.063,-687.656 -300.007,-687.26 C-380.184,-684.979 -460.372,-683.109 -540.553,-680.964 C-563.248,-680.357 -585.939,-679.458 -608.617,-678.371 C-619.641,-677.842 -628.877,-673.482 -630.993,-661.583 C-633.019,-650.187 -625.923,-643.757 -616.204,-639.531 C-606.013,-635.101 -595.437,-631.292 -585.846,-625.788 C-545.852,-602.835 -504.475,-594.198 -457.235,-597.475 C-370.558,-603.486 -283.411,-602.77 -196.455,-604.633 C-185.486,-604.868 -176.467,-607.584 -170.599,-618.902 Z " fill="#000000" fill-opacity="1.00" stroke-width="5.01" stroke="#ffffff" stroke-linecap="square" stroke-linejoin="miter"/>				<path d="M576.374,-648.951 C563.322,-660.311 547.364,-661.915 532.764,-666.11 C494.526,-677.098 457.511,-694.833 415.981,-689.804 C390.019,-686.66 363.911,-687.406 337.854,-687.146 C291.674,-686.685 283.055,-675.546 294.716,-630.635 C300.242,-609.349 306.521,-603.971 328.207,-604.955 C362.912,-606.53 397.568,-609.122 432.264,-610.935 C473.705,-613.1 515.172,-614.78 556.616,-616.9 C578.167,-618.003 585.511,-629.456 576.374,-648.951 Z " fill="#000000" fill-opacity="1.00" stroke-width="5.01" stroke="#ffffff" stroke-linecap="square" stroke-linejoin="miter"/>			</g>		</g>	</svg>