<svg xmlns="http://www.w3.org/2000/svg" xmlns:xlink="http://www.w3.org/1999/xlink" version="1.1" id="Layer_1" x="0px" y="0px" enable-background="new 0 0 816 1024" xml:space="preserve" viewBox="163.63 89.06 503.69 860.96">
<path fill="#000000" opacity="1.000000" stroke="none" d=" M365.064026,688.000000   C364.739441,744.654846 364.574524,800.811462 363.960175,856.963135   C363.830933,868.774658 363.377930,880.601318 363.180328,892.424255   C363.084717,898.144348 360.536316,901.636902 356.080780,902.495239   C351.929962,903.294922 348.825806,901.038818 346.480804,895.608337   C334.265106,867.319214 323.323700,838.493530 310.597290,810.419495   C308.504608,805.803101 307.589050,801.003967 307.628937,795.877502   C307.850677,767.381348 307.585114,738.878113 308.100311,710.388367   C308.762909,673.749329 309.793213,637.113220 311.077576,600.490417   C311.883331,577.513733 312.673370,554.545593 313.002228,531.553955   C313.278442,512.240356 314.213806,492.935059 314.957520,473.629913   C315.198975,467.362701 318.612244,463.631348 324.777435,463.031769   C335.259735,462.012299 345.439697,459.462341 355.682892,457.243896   C364.737244,455.282898 368.411102,457.937256 368.222900,467.105652   C367.357819,509.247131 365.997406,551.377136 365.907410,593.535400   C365.840546,624.857361 365.359985,656.178528 365.064026,688.000000  z"/>
<path fill="#000000" opacity="1.000000" stroke="none" d=" M401.006073,549.894836   C435.068237,550.018005 468.217926,545.330811 501.424377,541.302856   C503.076111,541.102478 504.729401,540.911133 506.385284,540.749390   C519.148621,539.503418 521.745850,541.354065 525.578552,553.921082   C531.242004,572.490906 532.548096,591.189026 527.087402,610.005737   C519.751343,635.284485 494.134796,647.957825 469.242279,638.946472   C458.100525,634.913025 449.229584,627.888245 441.536041,619.102722   C437.358582,614.332336 436.633484,614.310852 432.046356,618.802368   C420.857727,629.757690 409.659729,640.696716 396.944611,649.928528   C396.405579,650.319885 395.906067,650.768494 395.351868,651.135681   C391.468872,653.708069 387.614868,657.028015 382.595886,654.268311   C377.821869,651.643250 377.497040,646.883667 377.566559,642.060974   C377.674622,634.566223 377.690674,627.070129 377.744598,619.574646   C377.793701,612.752136 380.104950,609.404785 386.537537,607.359314   C397.903076,603.745422 407.247284,596.848999 416.226074,589.335449   C417.646362,588.146912 419.222046,586.785950 418.276428,584.710327   C417.318085,582.606750 415.164764,583.019043 413.400909,583.248047   C405.150848,584.319031 396.912445,585.481812 388.675842,586.654053   C383.428650,587.400757 380.136292,585.693237 378.888702,580.560303   C376.926453,572.486938 377.603180,564.319275 379.748535,556.376770   C380.866638,552.237549 384.345093,550.365112 388.517578,550.144714   C392.507385,549.934021 396.510468,549.974670 401.006073,549.894836  M458.575104,591.924866   C463.561218,599.918152 469.946136,606.268066 479.178162,609.150940   C483.833160,610.604614 487.828979,609.415100 490.558014,605.313843   C496.426178,596.494934 496.924713,586.989441 493.696655,577.125549   C492.884552,574.644043 491.256012,573.272034 488.457489,573.493530   C478.510315,574.280884 468.509857,574.487061 458.660400,576.314148   C453.286041,577.311035 452.307037,578.827393 454.327789,583.764038   C455.393646,586.367859 456.903198,588.790039 458.575104,591.924866  z"/>
<path fill="#000000" opacity="1.000000" stroke="none" d=" M532.520752,673.698242   C541.415833,694.111267 532.070618,718.221375 516.399048,731.059937   C496.232819,747.580750 472.816528,755.536255 447.066772,757.303040   C433.008362,758.267639 419.106262,757.737793 405.798981,752.430359   C383.305847,743.459167 372.154938,724.733582 375.750580,701.038452   C378.441833,683.302979 388.775543,670.400146 403.324921,660.604126   C417.702759,650.923523 433.840240,645.906189 450.792908,643.310913   C472.072235,640.053162 492.614929,642.364807 511.990448,652.232300   C521.174805,656.909790 528.279297,663.695251 532.520752,673.698242  M463.200867,721.747681   C472.052490,719.606079 480.286194,716.028748 487.454102,710.405579   C493.869568,705.372803 500.110443,699.455200 498.425537,690.502930   C496.653076,681.085327 488.642273,677.268127 480.151428,675.729919   C458.335205,671.777649 438.383270,676.942749 420.947601,690.383911   C408.449463,700.018555 410.689270,714.460083 425.072784,720.786438   C427.185547,721.715759 429.452240,722.402588 431.716675,722.861267   C442.002350,724.944885 452.235046,724.298828 463.200867,721.747681  z"/>
<path fill="#000000" opacity="1.000000" stroke="none" d=" M382.661560,933.218506   C370.001495,911.035461 371.114441,889.022339 381.902069,866.969727   C384.218353,862.234680 388.310425,860.082458 393.459473,861.128967   C401.046936,862.671082 408.557648,863.390747 416.246307,861.889832   C419.598572,861.235474 422.582672,862.400757 424.285736,865.605896   C425.915283,868.672607 425.697693,871.739136 423.540070,874.506775   C419.636261,879.514893 415.996643,884.656555 413.813873,890.706726   C411.828979,896.208435 411.230621,901.758240 413.356140,907.297852   C415.093658,911.826233 417.257660,912.560059 421.476685,910.215637   C428.016296,906.581787 433.092438,901.205933 437.470886,895.338196   C445.933014,883.997742 453.852295,872.253113 462.263397,860.873230   C467.640503,853.598145 473.972473,847.185059 482.150330,842.958557   C500.951721,833.241760 522.765503,838.553589 534.397949,856.647400   C546.557556,875.560974 550.018738,896.416504 544.804199,918.416382   C542.698181,927.301331 539.347778,930.030945 530.248535,930.768005   C520.127502,931.587708 509.981934,932.164734 499.836456,932.601562   C493.270447,932.884338 489.448730,927.006897 492.050568,920.975403   C493.261536,918.168091 495.538666,916.135010 497.450348,913.832214   C503.684021,906.323181 507.648315,898.272400 504.059326,888.142639   C501.460541,880.807678 497.881165,879.711975 492.003174,884.890015   C483.042694,892.783569 476.330048,902.557251 469.455994,912.172913   C462.274292,922.218811 454.945038,932.070068 445.073059,939.766296   C429.851532,951.633240 409.848083,953.399658 394.059753,944.037964   C389.547516,941.362366 385.827454,937.841980 382.661560,933.218506  z"/>
<path fill="#000000" opacity="1.000000" stroke="none" d=" M555.319641,441.139740   C551.423828,438.158386 550.432556,434.658630 551.534851,430.284637   C552.998352,424.477692 554.120972,418.585785 555.493835,412.754822   C556.882690,406.855530 560.453979,404.607483 566.356079,405.016235   C587.458862,406.477722 608.597412,406.819916 629.746094,406.668549   C632.619934,406.647980 634.897278,405.693604 634.661255,402.436249   C634.095764,394.632050 632.372253,387.083191 629.164978,379.683472   C626.190552,380.473114 624.733337,382.576447 622.926697,384.193481   C610.691650,395.144714 596.831360,398.524506 581.265808,392.647125   C566.163452,386.944641 557.057739,370.388702 558.866028,353.456696   C559.901917,343.756958 563.704773,334.797180 565.542053,325.325928   C566.205139,321.908051 568.888428,320.191040 572.437561,319.779449   C576.567932,319.300415 580.674561,318.607635 584.784180,317.960632   C593.205750,316.634827 597.281311,321.057465 595.096436,329.245361   C593.167236,336.474945 590.604431,343.554810 590.062805,351.104706   C589.858948,353.945831 589.802551,356.801483 590.579773,359.547974   C592.755188,367.234985 598.997742,368.884155 604.400024,363.000031   C612.092651,354.621155 614.009033,344.141388 612.143250,333.569977   C609.085876,316.247620 610.275391,317.596527 624.923157,311.683441   C627.548889,310.623474 630.138428,309.459595 632.808533,308.526550   C638.103638,306.676270 642.562195,308.939270 644.190308,314.195374   C654.507690,347.504211 661.288025,381.581909 666.354126,416.034760   C666.814087,419.163147 667.401245,422.252594 667.316223,425.448975   C667.033081,436.101959 661.569824,441.901123 650.835205,441.976654   C643.187378,442.030518 635.530640,441.370178 627.883850,440.925262   C606.899231,439.704407 585.942322,439.669220 565.017822,442.016357   C561.898438,442.366272 558.697815,442.814819 555.319641,441.139740  z"/>
<path fill="#000000" opacity="1.000000" stroke="none" d=" M307.840759,319.695068   C310.834656,318.998474 313.405457,318.275085 316.020416,317.789276   C322.919861,316.507568 327.446381,320.726868 326.567535,327.724152   C325.344391,337.462677 323.911346,347.174713 322.668732,356.910919   C322.084534,361.488129 321.530884,365.754974 325.317017,369.907776   C329.385345,374.370087 327.724091,384.751740 322.867462,388.538879   C320.147522,390.659882 319.390900,393.151031 319.249634,396.280151   C318.721069,407.986176 319.825653,419.558777 321.967346,431.047821   C323.831848,441.049866 322.200684,443.636414 312.349609,446.557831   C307.565460,447.976624 302.865753,449.678619 298.118774,451.224518   C291.443024,453.398560 286.539429,450.193512 286.845306,443.139221   C287.284515,433.009552 288.425446,422.909882 289.287048,412.799164   C289.654114,408.491760 290.172089,404.194824 290.436005,399.881775   C290.652100,396.349762 289.048981,394.420959 285.290283,395.223267   C277.641327,396.855927 270.013214,398.585999 262.372101,400.255798   C258.917389,401.010773 258.050690,403.406189 258.083344,406.577789   C258.212097,419.069183 258.221802,431.561981 258.376465,444.052979   C258.476044,452.096252 257.592407,453.463959 250.231400,456.304993   C243.864288,458.762421 237.577072,461.427734 231.201385,463.861908   C223.693024,466.728516 218.377563,462.277679 219.216965,454.272278   C220.778030,439.384430 222.087234,424.470245 223.515976,409.568420   C223.683792,407.818146 223.339539,406.500946 221.855225,405.206512   C214.903748,399.144287 214.694031,389.943878 221.616379,383.579712   C224.388855,381.030823 225.783966,378.436554 226.177536,374.690430   C227.500580,362.097626 227.802689,349.451141 228.565231,336.830597   C228.960602,330.286835 230.724747,327.765717 236.879593,326.152039   C242.837967,324.589874 248.803116,323.041138 254.806274,321.665405   C261.910889,320.037384 266.306122,323.855530 265.332184,331.141205   C264.010437,341.028473 262.250946,350.857147 260.684692,360.711823   C258.879547,372.069122 259.423920,372.643188 270.610413,371.081390   C276.044617,370.322662 281.461975,369.430298 286.908417,368.777283   C290.374756,368.361694 291.722076,366.615814 291.798279,363.163116   C292.018585,353.181885 292.950470,343.227814 292.689819,333.221191   C292.474487,324.954041 293.682312,323.584320 301.666656,321.397278   C303.593750,320.869446 305.514282,320.317444 307.840759,319.695068  z"/>
<path fill="#000000" opacity="1.000000" stroke="none" d=" M531.743530,826.984619   C529.581116,828.445923 527.503540,829.408081 525.328186,829.055908   C517.335632,827.762451 509.399750,828.401245 501.436523,829.252991   C497.712524,829.651306 494.413666,828.755615 492.649200,825.003052   C490.980133,821.453308 492.404083,818.467041 494.715118,815.850281   C500.214325,809.623657 501.243683,802.459717 498.832153,794.839172   C496.991821,789.023499 493.959930,788.225769 489.105133,791.905945   C481.162720,797.926758 475.306793,805.844849 469.636871,813.889099   C462.541290,823.955994 455.838379,834.281921 446.419769,842.515381   C423.079132,862.919067 389.477875,854.656799 378.556213,825.656372   C371.220734,806.178406 374.735504,787.653687 383.804474,769.720581   C385.847260,765.681152 389.558167,764.177185 393.920105,765.003113   C401.494141,766.437317 409.022522,767.382812 416.734344,765.961914   C420.300293,765.304932 423.376587,766.608948 425.124115,770.003723   C426.989960,773.628296 425.777985,776.737366 423.267151,779.601135   C416.738739,787.047180 411.998199,795.294495 412.111267,805.581177   C412.152374,809.320129 412.519897,813.289001 416.222382,815.176941   C420.030823,817.118835 423.230316,814.663513 426.221924,812.449585   C435.254150,805.765137 441.064484,796.338745 447.540955,787.468201   C454.404236,778.067749 460.336334,767.849426 469.573334,760.438904   C492.606750,741.960022 520.327637,748.232361 532.992676,775.030396   C539.431641,788.654724 541.263611,803.046509 537.287476,817.880859   C536.357849,821.349243 534.886230,824.437439 531.743530,826.984619  z"/>
<path fill="#000000" opacity="1.000000" stroke="none" d=" M324.555908,262.073639   C325.937439,212.551361 330.276886,163.535919 328.772186,114.349152   C328.576508,107.951691 330.843994,104.902977 336.934265,102.731529   C346.501068,99.320580 356.121429,96.056908 365.750732,92.825226   C373.176971,90.332916 377.600067,93.541595 377.070099,101.407654   C376.219391,114.035103 375.601379,126.667862 375.006744,139.308975   C373.903137,162.770813 373.450439,186.244385 372.828796,209.718903   C372.166962,234.710159 372.272003,259.693756 372.266235,284.683014   C372.264374,292.854218 367.032715,295.978149 360.130157,291.709076   C349.649353,285.226959 339.617767,278.035522 328.896362,271.918610   C325.353027,269.897034 324.198029,266.466248 324.555908,262.073639  z"/>
<path fill="#000000" opacity="1.000000" stroke="none" d=" M448.975861,222.821564   C465.106384,222.078934 480.742218,221.354477 496.376862,220.604874   C505.565338,220.164322 509.004242,223.165512 509.128052,232.327698   C509.398193,252.320557 510.580261,272.251617 512.630005,292.138397   C513.134094,297.029114 509.727081,301.001434 504.774078,301.132690   C498.947693,301.287109 493.104919,301.263428 487.282715,301.008728   C481.731781,300.765900 479.501678,297.305359 479.360321,291.071777   C479.077484,278.598419 479.281799,266.105621 477.904266,253.659088   C477.436005,249.427948 475.546051,247.697739 471.489014,247.906372   C470.491150,247.957687 469.488922,247.919174 468.490387,247.962082   C461.836761,248.247955 461.153717,248.727264 460.548767,255.473679   C459.621613,265.813416 460.691498,276.132507 461.896179,286.365509   C463.092468,296.527435 461.824799,298.812836 451.752991,300.447632   C447.809540,301.087708 443.875305,301.905121 439.903381,302.221985   C433.408997,302.740082 430.602264,300.076904 430.652466,293.556335   C430.743591,281.723450 430.702698,269.895264 429.671631,258.100616   C429.390289,254.882751 430.517303,250.434448 424.931915,250.497528   C415.165619,250.607834 413.471832,251.813614 413.200470,258.697601   C412.747498,270.189819 412.790497,281.669281 413.826904,293.142731   C414.193909,297.205719 412.393250,300.390594 408.362518,301.655884   C402.645599,303.450531 396.871094,305.090912 391.056152,306.535248   C386.034363,307.782562 382.064240,304.534668 381.742981,298.908020   C381.505920,294.756256 381.711334,290.578888 381.727295,286.412994   C381.790497,269.916260 381.843475,253.419449 381.926575,236.922806   C381.978394,226.639801 384.750397,224.064575 395.016235,223.917267   C412.839233,223.661453 430.659363,223.202774 448.975861,222.821564  z"/>
<path fill="#000000" opacity="1.000000" stroke="none" d=" M444.730621,483.680054   C436.000946,485.312286 428.093018,487.661621 422.297089,494.408417   C416.966675,500.613312 417.214478,506.717651 423.037994,512.535950   C427.124298,516.618591 432.116058,519.258606 437.340576,521.502747   C441.490845,523.285400 444.783264,525.805969 443.771820,530.843140   C442.777344,535.796082 438.952148,537.116455 434.335022,537.154053   C422.511780,537.250427 410.723053,538.042664 398.946198,539.074036   C390.391785,539.823242 387.503418,537.776917 383.866852,529.969543   C371.174286,502.719452 383.260742,474.032776 409.131683,461.997833   C437.787323,448.667480 467.170685,446.798370 496.674835,459.537201   C516.087341,467.918823 525.800598,483.036987 526.331726,504.093750   C526.495544,510.589600 526.526428,517.091370 524.247070,523.343445   C522.431824,528.322510 519.144043,531.564758 513.714783,531.972961   C502.432892,532.821228 491.139923,533.522827 479.850677,534.272034   C475.910675,534.533508 472.388214,533.687561 470.812653,529.616699   C469.186310,525.414795 471.150513,522.255859 474.326233,519.576538   C477.938507,516.528931 480.752319,512.814209 482.790009,508.567780   C487.685608,498.365601 484.332428,489.713440 473.710205,485.617615   C464.444275,482.044769 454.813660,482.305145 444.730621,483.680054  z"/>
<path fill="#000000" opacity="1.000000" stroke="none" d=" M383.391052,358.303406   C392.134247,357.485657 395.783020,360.896820 395.223572,369.027008   C395.041321,371.675934 394.685089,374.331635 394.159576,376.933960   C393.333038,381.027039 390.770874,383.354645 386.519318,383.474762   C383.860352,383.549927 381.179382,383.189331 378.535156,383.385864   C363.442749,384.507568 354.393280,402.159790 362.275818,415.102417   C365.237274,419.965027 369.580139,422.652161 375.390686,423.012451   C384.754089,423.593140 393.536469,421.149048 402.245392,418.191986   C405.871002,416.960907 409.477539,415.666412 413.135345,414.539001   C419.650757,412.530792 424.608490,415.715851 425.062561,422.496002   C425.420197,427.836487 424.532562,433.134308 422.871582,438.233459   C421.372498,442.835510 417.600372,444.625580 413.200745,444.853790   C398.557739,445.613373 384.060455,447.918976 369.457550,448.935638   C347.020508,450.497772 329.018127,433.289886 327.616913,409.771515   C326.939941,398.409149 329.272095,387.928101 335.563049,378.408356   C337.454773,375.545715 338.222809,372.910065 335.977112,369.725800   C325.393921,354.719330 331.578430,332.257599 351.533081,323.304199   C361.665131,318.758087 372.360748,317.722443 383.256561,317.704651   C387.920166,317.697052 392.599976,317.578033 397.243439,317.912140   C402.438812,318.285980 405.031677,321.743103 404.045868,326.856476   C403.291260,330.770569 402.263550,334.655609 401.033234,338.448425   C399.524384,343.099854 395.835663,344.237549 391.438873,343.431885   C385.332489,342.312988 379.266754,341.531250 373.145233,343.316010   C370.074615,344.211273 367.089996,345.316772 364.697632,347.467133   C361.808990,350.063599 360.881805,353.391266 362.482788,356.982117   C363.938477,360.247009 366.874634,360.658356 370.103912,360.171570   C374.383484,359.526428 378.678497,358.983887 383.391052,358.303406  z"/>
<path fill="#000000" opacity="1.000000" stroke="none" d=" M490.996460,397.912262   C482.598602,376.278595 474.362579,354.998047 466.058441,333.744110   C463.108948,326.195160 465.053192,322.141296 472.921112,319.888184   C477.242889,318.650574 481.553345,317.372009 485.887177,316.178253   C492.901337,314.246185 496.638062,316.537384 498.354950,323.619446   C503.106293,343.218597 508.559265,362.604523 516.135620,381.333954   C516.685547,382.693420 517.325134,384.016693 518.320557,386.247864   C521.254395,376.860992 522.356445,368.034546 523.633667,359.276306   C525.074036,349.399384 526.313171,339.494263 527.033691,329.518494   C527.601685,321.653778 529.633667,319.849487 537.249939,318.557251   C541.190552,317.888641 545.109375,317.092072 549.045715,316.397186   C556.895691,315.011505 561.358765,319.149628 560.007446,327.229675   C557.976318,339.374664 555.419067,351.431030 553.135498,363.534546   C548.785339,386.591400 543.953857,409.564789 541.187500,432.896667   C540.604736,437.811859 537.619507,440.595764 532.493286,440.863983   C527.004150,441.151154 521.527710,441.369659 516.051086,441.989227   C511.409546,442.514313 508.028046,440.171814 506.258575,435.808014   C501.190033,423.307892 496.170288,410.788025 490.996460,397.912262  z"/>
<path fill="#000000" opacity="1.000000" stroke="none" d=" M435.803772,403.727661   C426.249756,405.461548 418.024048,409.537262 409.721313,413.398895   C402.589233,416.716034 398.168365,414.573792 396.623444,407.016052   C396.523560,406.527496 396.508728,405.990112 396.286591,405.562653   C392.095764,397.498199 393.358337,390.879303 401.284912,385.845398   C402.705261,384.943359 403.240784,383.208649 403.752441,381.595276   C409.685059,362.888123 417.180969,344.666199 421.171814,325.355835   C421.962616,321.529297 424.210541,319.216003 428.215515,318.643768   C433.651825,317.867035 439.056183,316.862579 444.496674,316.120209   C450.067474,315.360077 453.715607,318.109131 455.550812,324.574951   C458.870392,336.270569 462.614075,347.819458 466.566711,359.318878   C473.890472,380.625702 483.057281,401.113525 493.073212,421.257507   C494.623077,424.374603 495.989288,427.652161 496.899933,431.002411   C498.437439,436.658966 495.525543,441.093201 489.719513,441.792603   C483.618042,442.527649 477.459229,442.927032 471.314453,443.118683   C466.231079,443.277252 463.183289,440.149994 462.007904,433.866180   C460.439423,425.480957 457.783905,417.428802 454.819702,409.470764   C452.202393,402.443970 451.749908,402.253448 444.187775,402.965942   C441.535614,403.215820 438.878143,403.408844 435.803772,403.727661  M431.923553,377.000031   C431.091156,379.690308 432.413788,380.684998 434.889923,380.753448   C437.379578,380.822296 439.802277,380.232086 442.243774,379.985321   C447.213379,379.483032 447.386597,376.662933 446.174561,373.050385   C445.072876,369.766632 443.693817,366.574310 442.389862,363.360840   C441.895966,362.143707 441.412781,360.764832 439.872650,360.558777   C437.975922,360.304962 437.199219,361.870483 436.699646,363.183350   C435.056641,367.501160 433.627228,371.900269 431.923553,377.000031  z"/>
<path fill="#000000" opacity="1.000000" stroke="none" d=" M440.155579,183.795135   C458.411163,183.047089 476.209259,182.628174 493.946075,180.946014   C503.470306,180.042740 505.422180,181.687149 506.582825,191.071213   C507.011292,194.535477 507.188660,198.030289 507.508911,201.508545   C508.214996,209.176773 505.441559,212.226486 497.646545,212.226654   C488.989716,212.226837 480.332916,212.172043 471.676086,212.145096   C445.709045,212.064270 419.751312,212.293259 393.831116,214.125549   C385.593079,214.707901 382.978607,212.183441 382.834320,203.926651   C382.776184,200.597900 382.569031,197.265701 382.663635,193.941727   C382.828430,188.151886 385.900055,185.135864 391.713226,184.845856   C392.874542,184.787903 394.042908,184.866333 395.207916,184.887833   C403.357544,185.038330 404.227631,183.861908 402.934174,175.979111   C402.385498,172.635330 400.639008,172.080750 397.769775,172.131546   C384.339600,172.369446 383.948303,171.952896 383.766937,158.484695   C383.740082,156.488586 383.646545,154.473389 383.864044,152.497879   C384.425903,147.395401 387.773621,143.941986 392.848419,144.323563   C409.703339,145.590866 426.414612,143.420624 443.186707,142.743652   C445.171234,142.663544 447.211884,142.644470 449.148071,143.011276   C451.959259,143.543869 454.281097,145.362595 454.760529,148.113602   C455.731293,153.683807 455.832367,159.406860 454.748474,164.960526   C454.143585,168.059814 451.334991,169.221741 448.226135,169.380951   C444.405457,169.576599 440.585724,170.105713 436.772156,170.048904   C431.402985,169.968918 431.114563,173.216064 431.153625,177.306076   C431.193970,181.526672 432.519379,184.094727 437.186829,183.825958   C438.016785,183.778183 438.851257,183.810150 440.155579,183.795135  z"/>
<path fill="#000000" opacity="1.000000" stroke="none" d=" M171.283081,322.440796   C171.790771,317.178528 172.109695,312.357880 172.654358,307.562836   C173.313690,301.758026 177.908218,299.002625 183.032410,301.743713   C193.748672,307.476227 204.322144,313.483765 214.833282,319.586700   C218.111435,321.490051 219.524612,324.822876 218.850616,328.615051   C213.334305,359.652130 212.300079,391.137085 209.419235,422.436523   C209.191010,424.916107 209.508499,427.445129 209.292496,429.926819   C208.698471,436.751831 202.674225,439.771606 197.121338,435.898773   C187.285858,429.039032 177.586624,421.983887 167.833923,415.005554   C164.533707,412.644135 163.343048,409.378967 163.693008,405.418701   C165.509537,384.863251 167.288254,364.304382 169.125214,343.750763   C169.747086,336.792358 170.500870,329.845734 171.283081,322.440796  z"/>
<path fill="#000000" opacity="1.000000" stroke="none" d=" M386.526733,111.740585   C386.394745,106.968384 386.005310,102.637932 386.135254,98.323128   C386.375854,90.331909 390.305054,87.530800 397.964813,89.851143   C415.649902,95.208397 433.296387,100.693031 450.964386,106.106812   C453.944031,107.019821 456.898590,108.124458 459.912842,108.150398   C461.087708,106.649857 460.555573,105.316216 460.440857,104.028206   C459.808167,96.924194 463.065826,93.658669 470.023987,94.258041   C476.987488,94.857864 483.960114,95.360748 490.933929,95.828865   C498.003906,96.303436 500.910583,99.117729 501.191986,106.037674   C501.868195,122.666512 502.642609,139.288925 504.080933,155.873749   C504.224640,157.530975 504.284393,159.204025 504.247955,160.866760   C504.128998,166.293854 501.237488,169.427444 495.834717,169.128525   C487.851379,168.686859 479.879822,168.303513 471.880463,168.240005   C467.373810,168.204224 464.989166,165.313721 464.704895,160.321625   C464.326477,153.675217 463.891876,147.026093 463.776550,140.373032   C463.715973,136.874969 462.243896,135.223633 458.884949,134.720535   C438.234406,131.627533 417.536255,129.982788 396.708466,132.707886   C389.137054,133.698547 385.733337,130.855194 385.887573,123.157951   C385.960907,119.499123 386.290283,115.845428 386.526733,111.740585  z"/>
<path fill="#000000" opacity="1.000000" stroke="none" d=" M356.727844,306.403412   C354.706879,310.301422 351.600952,311.236511 347.823303,311.317444   C317.877075,311.959076 287.864960,311.712524 258.014832,313.782837   C241.746368,314.911163 227.496674,311.936646 213.723221,304.032257   C210.420273,302.136780 206.778168,300.825043 203.268463,299.299103   C199.921494,297.843933 197.477829,295.629333 198.175613,291.705017   C198.904266,287.607147 202.085052,286.105469 205.881531,285.923431   C213.691299,285.548889 221.505707,285.239349 229.321609,285.030273   C256.934540,284.291565 284.550079,283.647644 312.161652,282.862213   C316.963989,282.725616 321.284851,283.751617 325.574371,285.937805   C334.167633,290.317444 342.802155,294.643433 351.899506,297.943756   C355.639832,299.300629 357.546753,301.907654 356.727844,306.403412  z"/>
<path fill="#000000" opacity="1.000000" stroke="none" d=" M613.973511,296.055115   C617.119812,302.768890 614.590698,306.713165 607.168884,307.092865   C592.896301,307.823029 578.615845,308.401794 564.344055,309.147369   C552.395569,309.771606 540.460327,310.664429 528.508606,311.206635   C521.040222,311.545502 518.877869,309.693359 516.974731,302.363037   C512.959106,286.896118 515.927063,283.060089 531.830872,282.901337   C540.804626,282.811768 549.795776,283.068695 558.736694,281.985962   C573.038757,280.254059 585.786072,286.361755 598.954895,290.145752   C603.982727,291.590515 609.478271,292.142853 613.973511,296.055115  z"/>
</svg>