<svg xmlns="http://www.w3.org/2000/svg" xmlns:xlink="http://www.w3.org/1999/xlink" version="1.1" id="Layer_1" x="0px" y="0px" enable-background="new 0 0 1024 1024" xml:space="preserve" viewBox="225.62 11.2 565.11 974.19">
<path fill="#000000" opacity="1.000000" stroke="none" d=" M447.271545,496.001099   C446.835388,544.817871 446.750183,593.141235 445.835663,641.449036   C445.283752,670.604309 445.679535,699.766052 444.838867,728.908630   C443.959381,759.395813 444.689819,789.895447 443.906830,820.371094   C443.200592,847.859802 443.329926,875.347656 442.941254,902.833923   C442.910645,904.995422 442.721954,907.157471 442.539978,909.313660   C441.735382,918.845703 436.372894,922.937988 426.676147,921.606750   C424.105682,921.253845 423.053741,919.634460 422.197754,917.512207   C414.100098,897.435120 405.978577,877.367615 397.847107,857.304260   C392.722015,844.658752 387.587036,832.017151 382.408264,819.393616   C381.581207,817.377686 380.778107,815.414978 380.759796,813.176697   C380.560913,788.847900 381.808533,764.549316 382.265411,740.234436   C382.318512,737.406433 382.586639,734.582764 382.651917,731.754700   C383.778351,682.961304 384.855499,634.166748 386.017883,585.374268   C386.517639,564.396362 387.040070,543.417053 387.814026,522.448059   C388.950714,491.652740 389.618591,460.849762 390.024811,430.037781   C390.159027,419.854187 391.468384,418.557312 401.565613,416.803711   C413.868774,414.666962 426.170380,412.520996 438.467560,410.350342   C445.970703,409.025909 448.305145,410.865540 448.224518,418.537323   C447.954895,444.192413 447.597137,469.846588 447.271545,496.001099  z"/>
<path fill="#000000" opacity="1.000000" stroke="none" d=" M559.189941,871.210815   C563.645996,863.404419 569.776306,858.754456 578.539246,857.481445   C582.960083,856.839172 587.484375,855.831360 591.551453,854.051147   C600.599365,850.090698 608.985535,851.772400 617.419800,855.688904   C619.183350,856.507751 620.435547,857.678284 621.545105,859.158386   C629.039856,869.155701 636.394836,879.263184 644.112732,889.085388   C647.391724,893.258545 646.429077,898.059265 646.863953,902.502075   C648.322571,917.402222 649.033142,932.374207 650.176086,947.307495   C650.441589,950.776184 649.481079,953.377563 646.839111,955.662109   C643.441589,958.599915 640.239075,961.770264 637.047852,964.936462   C635.364441,966.606689 633.404053,967.072205 631.145264,967.067932   C616.649170,967.040466 602.152771,967.009583 587.657104,967.092407   C584.594543,967.109924 583.007874,965.993347 581.657837,963.088562   C578.765320,956.864746 578.790894,951.672607 583.940918,946.447205   C587.769470,942.562683 590.457458,937.578369 594.101074,933.481995   C601.015930,925.707825 597.153809,917.023926 596.382812,908.715454   C596.116089,905.842041 590.349060,906.321106 587.768188,909.622192   C580.894470,918.413635 574.153625,927.308777 567.319885,936.131531   C555.386169,951.538574 543.391235,966.898376 531.506226,982.342834   C529.804260,984.554565 527.850952,985.405396 525.121765,985.395630   C507.126892,985.331360 489.131500,985.332886 471.136566,985.392700   C465.867371,985.410278 463.220032,982.033813 461.872131,977.807495   C458.383179,966.868042 454.643036,955.933838 452.314514,944.725098   C450.739044,937.141418 452.767639,929.182495 453.783783,921.454895   C455.257996,910.243835 457.000488,899.067139 458.713165,887.888733   C459.892578,880.190857 466.646942,875.510742 474.380249,876.708557   C483.921875,878.186279 493.487213,879.510803 503.041290,880.908264   C512.235352,882.253113 515.590271,890.129456 510.309479,897.927612   C508.535309,900.547424 507.046753,903.402283 505.011627,905.796021   C498.990387,912.878052 497.353668,921.058411 498.371796,930.009949   C498.644836,932.410706 498.029327,935.712524 500.992584,936.394775   C504.415222,937.182861 508.316437,937.905640 511.077545,934.268250   C515.106628,928.960632 519.222717,923.719055 523.261475,918.418701   C535.174500,902.783813 547.067749,887.133972 559.189941,871.210815  z"/>
<path fill="#000000" opacity="1.000000" stroke="none" d=" M573.846802,619.035034   C578.310242,619.350464 582.342590,619.364746 586.263123,620.034058   C590.490540,620.755798 594.524048,621.995117 598.014832,624.979919   C606.238403,632.011536 614.701660,638.766113 623.154358,645.524658   C625.934998,647.748047 627.225891,650.258667 627.480469,653.959900   C628.392761,667.223816 629.704773,680.461670 630.982361,693.698059   C631.290588,696.892029 630.604858,699.450378 628.376587,701.885071   C618.149170,713.060181 608.047974,724.350952 597.921509,735.618286   C596.545166,737.149719 594.873840,738.179199 592.988892,738.910828   C574.608887,746.045044 555.805725,752.026672 536.039185,752.859802   C522.352783,753.436646 508.134369,753.832458 495.309631,747.943298   C483.505707,742.522888 473.523926,733.913208 463.043091,726.276184   C460.914581,724.725159 459.920532,721.962158 459.758911,719.210022   C459.027283,706.752808 458.374847,694.291077 457.653809,681.833191   C457.462341,678.525635 458.357361,675.686890 460.407196,673.029297   C469.152344,661.691467 477.795380,650.274841 486.473846,638.885559   C488.539124,636.175171 491.100983,634.248474 494.360718,633.044128   C504.978027,629.121460 515.486084,624.899353 526.136902,621.072876   C530.516785,619.499390 535.238770,618.996887 539.894897,618.956055   C551.051086,618.858215 562.209167,618.985779 573.846802,619.035034  M586.232910,681.774170   C586.043823,678.282349 585.832825,674.791565 585.674866,671.298340   C585.595642,669.548096 585.111511,668.244446 583.468201,667.166321   C571.363586,659.224915 557.682495,657.214661 544.136353,659.792236   C529.613953,662.555603 514.548279,665.853027 505.025391,679.357056   C504.556335,680.022156 503.782562,680.463989 503.208038,681.064575   C500.393799,684.006470 500.225098,700.719360 502.983978,703.526367   C503.328156,703.876526 503.753845,704.200623 504.203949,704.384644   C514.455688,708.576294 524.953491,711.918518 536.188110,710.483459   C542.937988,709.621216 549.675049,708.225464 556.227295,706.389465   C561.285461,704.972107 566.908142,704.691345 571.125854,701.046448   C575.534607,697.236511 579.670776,693.112976 584.006470,689.215942   C586.039185,687.388733 587.131775,685.362671 586.232910,681.774170  z"/>
<path fill="#000000" opacity="1.000000" stroke="none" d=" M460.066315,542.011841   C460.921112,534.259949 460.538971,526.923279 460.669037,519.599731   C460.776001,513.578308 464.228149,510.164551 470.176178,509.729767   C496.560425,507.801178 522.938049,505.782562 549.320129,503.823334   C568.234314,502.418640 587.157410,501.128876 606.062866,499.616119   C610.007690,499.300507 612.256531,500.452026 614.465759,503.971802   C618.884827,511.012207 620.702637,518.246643 620.457886,526.593323   C619.969788,543.236877 620.228271,559.904846 620.349915,576.561462   C620.374939,579.989990 619.267456,582.512146 616.956055,584.999695   C610.270386,592.194763 603.721985,599.524658 597.336060,606.986877   C595.231750,609.445862 592.946045,610.919189 589.755859,611.150085   C580.150269,611.845215 570.616699,613.437927 560.890503,612.349121   C556.876526,611.899780 553.502686,610.743958 550.452271,608.232788   C542.865356,601.987244 535.170959,595.869141 527.685242,589.505249   C525.156616,587.355530 523.317383,587.344727 520.826294,589.511169   C507.258728,601.310669 493.551849,612.949890 479.965637,624.728088   C472.692993,631.032837 471.660583,631.208618 463.513702,626.387695   C460.565369,624.642944 458.867279,622.245117 458.883850,618.689270   C458.935059,607.695557 458.953644,596.701355 458.911224,585.707642   C458.896759,581.956055 460.643463,579.470215 463.810059,577.655640   C475.078888,571.198120 486.314178,564.682068 497.544189,558.157166   C498.825500,557.412659 500.289429,556.696838 501.143646,555.569763   C502.425110,553.878967 502.149170,551.695129 501.481842,549.811401   C500.737762,547.711121 498.714539,548.272949 497.152740,548.454285   C488.395782,549.470947 479.637024,550.491821 470.905853,551.705261   C462.078033,552.932129 460.179657,551.406494 460.066315,542.011841  M545.853760,555.364685   C550.892578,559.686707 556.172485,563.763733 560.892761,568.409485   C564.573669,572.032288 568.573975,573.097961 573.497009,572.608398   C578.378357,572.122986 580.950195,570.010803 581.003723,565.235352   C581.085571,557.930359 580.833069,550.621948 580.878662,543.316040   C580.899231,540.022949 579.440491,538.821899 576.297363,539.165710   C566.572388,540.229309 556.845276,541.274475 547.113770,542.276123   C545.084229,542.485046 544.028015,543.490417 544.192200,545.492004   C544.446899,548.596863 543.758118,551.831421 545.853760,555.364685  z"/>
<path fill="#000000" opacity="1.000000" stroke="none" d=" M782.127808,392.165588   C779.631653,396.120361 776.300659,397.141174 772.099304,396.992432   C737.124634,395.754181 702.127991,396.457703 667.144470,395.917694   C664.483826,395.876648 661.824524,395.611664 659.169189,395.395264   C654.977539,395.053680 652.547302,392.187195 653.493347,387.943207   C655.810120,377.550110 658.356262,367.205933 660.967407,356.881836   C661.882141,353.264923 664.799072,351.977539 668.261597,352.054016   C685.246826,352.429047 702.230103,352.888885 719.214905,353.287750   C727.206787,353.475464 735.201111,353.561066 743.192688,353.760132   C746.063477,353.831665 747.253601,352.459229 746.747314,349.766296   C745.127014,341.147705 743.405640,332.548096 741.626221,323.444427   C736.647217,325.806702 733.397522,329.175781 729.764099,331.946503   C720.196594,339.242340 709.528381,340.044983 698.046936,338.530121   C688.022583,337.207581 680.406006,332.039307 673.587402,325.260956   C669.407227,321.105438 668.774475,315.181061 666.708435,309.961365   C660.676270,294.721619 665.679932,280.115356 668.969055,265.398102   C670.904297,256.738464 671.830811,256.072571 680.645691,255.714828   C686.465027,255.478638 692.275513,255.031357 698.091736,254.711136   C705.049988,254.328033 708.327637,258.265625 706.938843,265.299957   C705.585815,272.153046 704.389954,279.042419 702.822754,285.846222   C701.702820,290.708191 702.636047,295.063904 704.890137,299.325043   C707.049805,303.407684 710.020264,304.112457 713.774963,301.222382   C722.998413,294.122894 726.898315,284.788757 725.424500,273.205841   C724.857239,268.747284 724.442505,264.269379 723.952698,259.800903   C723.493347,255.610550 725.052979,252.844299 729.200806,251.354675   C737.505859,248.372086 745.797485,245.325226 753.948303,241.951355   C758.180298,240.199646 759.908630,241.307175 760.875793,245.626007   C765.530273,266.410736 770.419067,287.142822 775.135193,307.913940   C780.144592,329.976654 784.863831,352.107697 790.146362,374.104034   C791.387146,379.270782 790.754395,383.095978 787.005493,386.659790   C785.321594,388.260498 783.893372,390.130005 782.127808,392.165588  z"/>
<path fill="#000000" opacity="1.000000" stroke="none" d=" M532.770325,859.971313   C524.255981,863.648560 515.664917,865.774170 506.821442,866.072571   C500.591309,866.282837 494.344330,867.855774 487.989441,865.645813   C484.601807,864.467712 481.557587,863.250000 478.912140,860.808228   C473.649323,855.950012 468.346741,851.124756 462.870880,846.511047   C459.023071,843.269104 457.260040,839.214172 456.847229,834.359863   C456.254730,827.392700 455.994446,820.369751 454.913818,813.476990   C452.325317,796.966064 459.816284,782.894714 465.546387,768.467041   C467.737549,762.950012 471.524933,761.949097 477.703644,762.507996   C488.002075,763.439514 498.164795,765.248779 508.365967,766.822876   C514.177490,767.719604 517.840027,776.274170 514.374817,781.117859   C511.565338,785.045105 508.960327,789.256653 505.516998,792.563782   C498.109619,799.678284 500.681824,808.612183 500.247314,817.024048   C500.168213,818.555115 501.226562,819.512268 502.767212,819.581909   C506.037140,819.729736 509.299988,820.418762 511.955322,817.281372   C519.597046,808.252686 527.486450,799.434143 535.193298,790.459839   C543.441956,780.854553 551.612915,771.182373 559.775574,761.503784   C562.331665,758.473083 565.405579,756.550293 569.300598,755.519348   C578.635681,753.048462 587.897888,750.324829 597.342285,748.247559   C601.444702,747.345215 604.634766,747.930420 607.853394,750.827332   C614.783813,757.065308 621.840942,763.196960 629.218567,768.889587   C633.148071,771.921570 632.546143,776.067139 632.949463,779.774292   C634.695007,795.820312 635.917786,811.922607 637.508301,827.986877   C637.784424,830.776184 636.878662,832.224854 634.553406,833.560852   C629.256531,836.604065 623.905457,838.852234 617.552551,838.019165   C607.921326,836.756165 598.266113,837.752869 588.625732,838.182068   C585.755127,838.309875 583.395874,837.871643 582.180481,834.761963   C580.980896,831.692871 578.977173,828.909058 581.814453,825.546631   C583.950012,823.016052 585.264404,819.768066 587.495911,817.348022   C592.218872,812.225830 592.493042,806.358459 591.197998,800.087524   C590.823914,798.275879 591.347290,795.821106 588.495483,795.394104   C585.980591,795.017456 584.068481,795.743774 582.461365,797.911011   C576.409424,806.072449 570.228516,814.138550 564.061646,822.214233   C555.771973,833.069885 547.390686,843.856384 539.192444,854.780396   C537.512329,857.019104 535.405823,858.454834 532.770325,859.971313  z"/>
<path fill="#000000" opacity="1.000000" stroke="none" d=" M363.590515,268.846985   C363.931152,261.488861 364.586914,260.702759 371.228760,259.704102   C379.129028,258.516266 387.046844,257.442963 394.941223,256.218170   C400.916626,255.291107 403.977112,257.746796 403.357300,263.808563   C402.392731,273.241821 401.011963,282.632599 399.799408,292.040344   C399.353027,295.503998 398.978302,298.980621 398.398254,302.422272   C397.799591,305.974854 398.804077,309.011536 400.991211,311.723236   C403.321472,314.612427 403.688751,317.648560 402.128448,321.034515   C399.982971,325.690277 399.193878,330.871002 396.021027,335.180176   C394.309296,337.504913 395.343536,340.702911 395.458069,343.494507   C396.092651,358.968384 396.754730,374.442017 397.581635,389.906403   C397.737274,392.816772 396.655579,394.117676 394.034332,394.940369   C384.662628,397.881653 375.345581,400.996552 365.987427,403.981720   C360.204163,405.826538 357.731232,403.974670 357.909546,397.446930   C358.227753,385.798462 358.948853,374.161346 359.312317,362.513611   C359.518677,355.900696 359.349579,349.276093 359.349579,342.086151   C350.034180,342.938904 341.103394,345.361359 332.185608,347.747162   C329.961670,348.342133 330.369507,350.656586 330.324707,352.461029   C329.936005,368.111237 329.459839,383.760284 329.239655,399.412933   C329.185394,403.271057 328.053436,405.525269 324.159088,406.764862   C313.373810,410.197876 302.713379,414.021057 291.968445,417.583954   C287.238159,419.152466 285.511719,417.833740 285.837280,412.611877   C286.437653,402.981964 287.308105,393.368683 288.088501,383.750275   C288.909271,373.634460 289.703247,363.515991 290.624207,353.409180   C290.901337,350.367859 289.156921,348.333374 287.481842,346.327728   C284.869507,343.199829 284.030273,340.084717 286.069031,336.287445   C295.243469,319.199463 293.883942,300.227509 295.662781,281.821838   C296.046967,277.847076 296.539124,273.854248 296.499146,269.874603   C296.454865,265.467102 298.828583,264.222473 302.637665,263.740967   C311.223572,262.655548 319.782959,261.355530 328.345520,260.091248   C333.911560,259.269379 336.607788,261.525543 336.118561,267.278717   C335.117798,279.047882 333.859863,290.795288 332.691742,302.550018   C332.415924,305.325531 331.738068,308.105560 333.097656,311.548126   C341.872742,309.896851 350.667175,308.287476 359.439240,306.564392   C362.191498,306.023773 361.649963,303.598297 361.761078,301.694214   C362.391266,290.894775 362.973541,280.092590 363.590515,268.846985  z"/>
<path fill="#000000" opacity="1.000000" stroke="none" d=" M564.945312,231.333191   C564.191956,217.439270 563.342041,203.981995 562.904419,190.511307   C562.722900,184.921631 559.000549,186.365173 555.901794,186.172791   C552.544189,185.964340 550.143494,186.409760 550.225281,190.864914   C550.457825,203.521057 550.372131,216.183640 550.349609,228.843567   C550.338501,235.074570 548.645447,236.803528 542.388794,237.153656   C535.741211,237.525650 529.093628,237.955872 522.439941,238.145889   C516.610535,238.312347 514.590027,236.470413 514.230774,230.624771   C513.893799,225.141495 513.937317,219.635895 513.734680,214.143021   C513.464722,206.825485 512.875061,199.510162 512.892822,192.195038   C512.904236,187.495193 510.306732,187.189529 506.780792,187.294373   C503.380463,187.395493 500.113800,186.879196 500.067871,192.127167   C499.958679,204.611649 499.440094,217.092606 499.078278,229.574753   C498.872284,236.680649 497.381195,238.312469 490.349548,239.146408   C483.738892,239.930420 477.126434,240.699097 470.515594,241.481522   C464.917206,242.144150 461.635742,239.408081 461.780151,233.664230   C462.022858,224.014267 462.467224,214.366547 462.997986,204.727310   C463.766327,190.772247 464.788910,176.830673 465.489899,162.872665   C465.747559,157.741837 468.405212,155.890808 473.131744,155.751511   C494.935669,155.108871 516.738770,154.435150 538.540161,153.711746   C556.009583,153.132080 573.474121,152.399841 590.944885,151.868195   C598.108521,151.650208 598.910217,152.757553 599.309448,159.733948   C600.555054,181.499878 601.968628,203.256165 603.287292,225.017990   C603.418091,227.176758 603.369263,229.347931 603.361450,231.513199   C603.348511,235.121124 601.536011,237.249237 597.918274,237.258652   C588.924377,237.282059 579.929688,237.147751 570.936035,237.019913   C567.516663,236.971329 566.126343,234.489792 564.945312,231.333191  z"/>
<path fill="#000000" opacity="1.000000" stroke="none" d=" M532.504822,436.461914   C523.356140,437.331024 515.773315,440.046631 509.909454,447.213715   C506.010040,451.979736 506.038849,462.607178 510.934875,466.246613   C516.948303,470.716583 522.861633,475.336578 529.051636,479.548889   C534.269714,483.099854 530.697021,487.275452 530.393005,491.222809   C530.107239,494.932556 527.165283,494.323761 524.748657,494.476349   C510.807495,495.356812 496.862457,496.179962 482.926788,497.139709   C478.923309,497.415436 476.233521,495.825806 474.413330,492.364899   C470.228638,484.408234 464.634827,476.874969 462.156677,468.423950   C459.437897,459.152344 457.893280,448.917755 465.244293,440.104828   C470.360840,433.970734 475.466278,427.770050 479.921387,421.157593   C484.471558,414.403900 490.885010,410.940491 498.110352,407.992462   C516.465576,400.503448 535.662415,397.417145 555.233154,398.192169   C565.325684,398.591858 575.597107,400.700745 584.092529,407.544373   C594.203674,415.689575 604.554993,423.539825 614.898865,431.390686   C617.412476,433.298492 618.419617,435.481812 618.348450,438.607086   C618.018921,453.084839 617.541687,467.555511 616.381897,481.991241   C615.816956,489.023773 612.148193,492.136444 605.114258,492.288208   C592.966858,492.550262 580.801392,492.602783 568.684448,493.381622   C562.695312,493.766632 561.747803,489.705139 559.677795,485.952667   C557.724792,482.412231 558.207520,479.751343 561.167969,477.169525   C562.535339,475.977081 563.416260,474.201996 564.833618,473.095703   C572.554810,467.069000 573.796753,459.006439 572.928345,449.903870   C572.599792,446.460266 571.163574,444.748077 568.522095,442.831268   C557.622498,434.921753 545.645630,433.851959 532.504822,436.461914  z"/>
<path fill="#000000" opacity="1.000000" stroke="none" d=" M408.689636,58.931816   C408.766296,52.779785 408.905060,47.118172 408.883545,41.457169   C408.868591,37.532036 410.353943,34.969814 414.163177,33.367161   C426.434753,28.204147 438.658844,22.917028 450.771057,17.392382   C455.012543,15.457745 456.862793,17.341917 457.605927,20.889511   C458.175171,23.606878 457.980286,26.519951 457.877228,29.336908   C457.043762,52.120010 456.009033,74.896591 455.309021,97.683556   C454.097717,137.112885 453.090637,176.548477 451.967163,215.980560   C451.896210,218.471466 451.634094,220.963898 451.331238,223.439758   C450.781128,227.937057 445.539185,230.833908 441.688110,228.486282   C430.459534,221.641266 419.329407,214.632431 408.234863,207.571228   C404.828400,205.403168 404.785797,201.707703 404.874908,198.181656   C405.509644,173.058990 406.169617,147.936905 406.860046,122.815689   C407.440857,101.683884 408.073547,80.553513 408.689636,58.931816  z"/>
<path fill="#000000" opacity="1.000000" stroke="none" d=" M611.547302,314.562164   C612.840698,317.784637 613.120117,321.004730 615.397583,324.123566   C617.643494,317.956024 617.765503,311.978729 618.625610,306.169769   C620.720520,292.021545 622.703674,277.855255 624.543213,263.671722   C625.056030,259.717987 626.892944,257.618896 630.823608,257.277344   C638.947937,256.571442 647.063110,255.735565 655.197815,255.185989   C659.118835,254.921082 661.865356,258.963562 661.075745,263.786041   C658.038269,282.336670 654.802612,300.855103 651.816406,319.413788   C648.196655,341.909821 644.696533,364.425568 641.271362,386.952057   C640.257629,393.619019 639.804993,394.267670 633.237488,394.269897   C625.072815,394.272675 616.906128,394.114471 608.744507,394.262360   C605.379211,394.323364 603.696533,393.014130 602.498657,389.881348   C587.036133,349.442413 571.444641,309.052887 555.922180,268.636871   C553.486206,262.294373 555.433716,258.928589 562.229797,257.620697   C569.912903,256.142120 577.686951,255.068924 585.288696,253.261017   C589.840271,252.178497 591.088684,254.299744 592.296997,257.914581   C598.577942,276.704834 605.026245,295.439178 611.547302,314.562164  z"/>
<path fill="#000000" opacity="1.000000" stroke="none" d=" M453.108887,298.864685   C458.573090,298.597626 463.561707,298.363251 468.547607,298.080658   C473.421448,297.804413 477.629730,301.584503 477.370728,306.565094   C477.120667,311.373596 476.424896,316.170044 475.711151,320.939819   C475.116486,324.913757 472.742401,326.982330 468.573395,327.222900   C462.599121,327.567657 456.580841,327.810516 450.761963,329.383759   C444.173584,331.165070 439.435120,338.946594 439.544525,345.718353   C439.671417,353.569702 442.257935,359.826660 448.234894,364.935333   C450.581879,366.941345 452.810181,367.755585 455.891052,367.528168   C470.518402,366.448425 484.963196,364.001526 499.476105,362.055664   C503.452606,361.522491 507.798645,360.111145 510.365601,365.246002   C511.381836,367.278809 512.107117,369.032349 511.489136,371.353363   C510.076630,376.658356 508.732269,381.990753 507.639038,387.368683   C506.664307,392.163544 503.623505,394.515289 499.119171,395.163025   C481.638947,397.676605 464.059937,399.164581 446.431885,400.180389   C441.955566,400.438324 437.829285,399.946930 434.090668,397.310028   C433.283417,396.740662 432.337952,396.339722 431.413025,395.968781   C412.125275,388.234100 407.292572,371.656281 405.725006,353.360077   C404.710785,341.522369 406.821716,330.141876 413.058350,319.790344   C414.750275,316.982056 414.589478,314.324036 413.533112,311.249817   C411.011383,303.911041 408.162872,296.757324 409.314423,288.493927   C411.193939,275.006775 419.255157,266.492126 430.111694,259.734222   C435.536743,256.357239 441.645813,255.359055 447.786194,254.999298   C458.088745,254.395676 468.417206,254.138474 478.738434,253.985107   C484.931427,253.893082 488.903748,259.359863 487.395844,265.476257   C486.439697,269.354584 485.308411,273.190521 484.391510,277.077515   C483.271759,281.824188 480.424347,283.930511 475.502411,284.067535   C467.204742,284.298615 458.814575,282.999817 450.623596,285.250092   C447.332031,286.154327 444.266479,287.522797 443.412659,291.315796   C442.137024,296.982788 444.686523,299.044617 453.108887,298.864685  z"/>
<path fill="#000000" opacity="1.000000" stroke="none" d=" M533.426392,251.340302   C541.313904,250.414780 541.206665,250.455536 543.870483,257.463440   C559.304565,298.066406 574.762268,338.660492 590.286011,379.229279   C594.054260,389.076996 589.846985,394.641174 579.285034,393.775116   C572.985535,393.258575 566.649841,393.121704 560.326660,392.977295   C556.496826,392.889832 554.448181,391.372498 553.280579,387.475769   C549.794678,375.841888 545.707947,364.388702 542.166931,352.770111   C541.089111,349.233673 539.368042,348.131744 535.767029,348.188507   C520.971741,348.421844 506.734528,350.890259 493.169037,357.092773   C487.596893,359.640533 485.698334,357.837402 482.496307,352.775970   C476.632263,343.506470 478.736694,335.908905 484.364990,327.332336   C489.927521,318.856079 491.306000,308.382385 494.567932,298.807220   C499.020599,285.736786 503.092651,272.532898 507.103485,259.318146   C508.241547,255.568451 510.284821,253.901596 514.149475,253.589249   C520.447205,253.080292 526.712463,252.171127 533.426392,251.340302  M518.358765,313.763763   C516.970032,317.776123 514.657471,321.467743 513.927551,325.705353   C522.134033,325.705353 530.059814,325.705353 538.918335,325.705353   C534.686401,315.286316 530.892700,305.946075 527.098999,296.605835   C526.586182,296.654327 526.073364,296.702789 525.560608,296.751282   C523.258301,302.187225 520.955994,307.623169 518.358765,313.763763  z"/>
<path fill="#000000" opacity="1.000000" stroke="none" d=" M243.642090,379.386353   C239.468613,377.216431 235.784103,374.792236 231.753571,373.306946   C226.365997,371.321564 225.218872,367.910645 225.724625,362.524597   C228.804474,329.725250 231.621277,296.901093 234.484985,264.081696   C235.005722,258.113922 235.354004,252.130783 235.752945,246.152817   C236.318085,237.684326 241.934372,234.440536 249.605652,238.319656   C259.862396,243.506180 270.008209,248.913513 280.296997,254.034454   C283.448517,255.603027 284.725525,257.794983 284.462646,261.180115   C283.263947,276.617035 282.182526,292.063507 280.901031,307.493439   C279.426758,325.244324 277.810364,342.983643 276.208435,360.723694   C275.370056,370.007812 274.366364,379.277283 273.564087,388.564301   C273.177246,393.042114 271.169952,393.417358 267.592804,391.550323   C259.765411,387.464935 251.854034,383.540405 243.642090,379.386353  z"/>
<path fill="#000000" opacity="1.000000" stroke="none" d=" M525.002319,143.953339   C507.687134,143.747787 490.871185,143.557434 474.055634,143.338470   C468.445648,143.265442 466.872101,141.654099 467.038879,136.155228   C467.225525,130.001160 467.558411,123.850700 467.679657,117.695763   C467.769897,113.116791 470.171631,111.068558 474.517334,110.878616   C475.681458,110.827736 476.848328,110.835938 478.014008,110.826431   C485.520630,110.765244 487.442963,108.005165 485.386200,100.617851   C484.845276,98.674942 483.662262,98.398193 482.072571,98.396660   C479.574432,98.394241 477.072815,98.324989 474.578918,98.430740   C470.114258,98.620064 468.114075,96.401978 468.213654,92.096283   C468.344513,86.439087 468.602997,80.784164 468.677612,75.126564   C468.732239,70.984383 470.791199,68.962021 474.825562,68.936813   C493.311554,68.821289 511.797760,68.738869 530.283936,68.657204   C534.439758,68.638847 536.322449,70.843498 536.313782,74.897202   C536.302368,80.226562 536.278687,85.556770 536.356262,90.885208   C536.421814,95.386902 534.281372,97.712700 529.804504,97.907745   C527.974426,97.987480 526.143005,98.035553 524.312195,98.097519   C518.494385,98.294434 516.569092,101.163239 518.391602,106.790154   C519.349121,109.746567 521.782715,109.004875 523.807434,108.968910   C543.784851,108.613930 563.760864,108.179817 583.737793,107.793648   C592.648804,107.621391 592.599609,107.652130 593.405151,116.674225   C593.967041,122.967850 594.861389,129.235428 595.291382,135.536179   C595.743896,142.168121 593.780029,144.137894 586.956360,144.134613   C566.471497,144.124802 545.986633,144.023178 525.002319,143.953339  z"/>
<path fill="#000000" opacity="1.000000" stroke="none" d=" M562.969116,94.401260   C559.814880,94.403603 557.144958,94.304863 554.485657,94.430710   C549.816467,94.651665 547.878296,92.320175 547.671204,87.851654   C547.324768,80.374985 546.666992,72.911575 546.389099,65.433334   C546.230408,61.163078 543.929016,59.758282 540.105835,59.488503   C520.685059,58.118088 501.276642,56.560722 481.848328,55.310848   C470.277893,54.566494 469.425842,53.568672 470.321564,42.135883   C470.919037,34.510220 470.771179,26.826305 470.962006,19.168589   C471.139282,12.053723 473.439270,10.147029 480.283966,11.712863   C499.581299,16.127436 518.861816,20.615704 538.149109,25.074318   C544.255981,26.486034 544.603760,26.204092 544.662903,19.806808   C544.734680,12.045897 546.639893,10.301473 554.319092,11.643078   C565.292786,13.560245 576.221008,15.736450 587.174133,17.772738   C590.490479,18.389271 592.030762,20.366180 592.026733,23.685299   C592.000183,45.672234 591.954224,67.659225 591.989563,89.646072   C591.995850,93.546532 590.059937,95.019203 586.425720,94.929398   C578.770264,94.740227 571.114136,94.575859 562.969116,94.401260  z"/>
<path fill="#000000" opacity="1.000000" stroke="none" d=" M282.936462,213.666077   C316.201263,213.012955 348.978302,212.393417 381.753082,211.673203   C385.708679,211.586273 389.136169,212.483398 392.643311,214.410461   C405.329346,221.381042 418.198608,228.017517 430.968781,234.836182   C433.188721,236.021515 436.674774,236.808624 435.093628,240.423080   C433.546051,243.960831 433.316650,248.932144 427.484833,248.911057   C417.164948,248.873734 406.844147,248.984497 396.524200,249.081192   C370.062592,249.329147 343.591614,248.773315 317.140991,249.910156   C309.671173,250.231201 302.736145,249.045380 296.081757,245.247208   C285.969757,239.475540 275.594391,234.155472 265.226379,228.847824   C261.907654,227.148865 261.545197,225.601364 262.639465,221.854553   C265.389984,212.436523 272.540161,213.654068 279.451599,213.683105   C280.450348,213.687302 281.449188,213.674255 282.936462,213.666077  z"/>
<path fill="#000000" opacity="1.000000" stroke="none" d=" M621.515137,212.271667   C623.365234,210.171310 625.549133,209.908447 627.720093,209.995590   C653.327576,211.023788 678.976501,210.111557 704.573853,211.651337   C707.205017,211.809616 709.329468,212.647217 711.282166,214.447311   C716.054749,218.846756 721.053589,223.002945 725.772522,227.457077   C727.565063,229.148956 731.271484,230.756958 729.571960,233.640259   C727.457825,237.226944 726.075623,242.096603 720.277954,242.264053   C700.150269,242.845398 680.028503,243.634750 659.903809,244.323303   C647.929443,244.733002 635.947327,244.971893 623.981689,245.553665   C619.213745,245.785492 616.902405,243.551285 615.856262,239.308746   C615.816528,239.147568 615.832703,238.965958 615.767090,238.818710   C611.277344,228.741623 614.240906,220.230133 621.515137,212.271667  z"/>
</svg>