<svg version="1.1" id="Layer_1" xmlns="http://www.w3.org/2000/svg" xmlns:xlink="http://www.w3.org/1999/xlink" x="0px" y="0px"
	 width="100%" viewBox="0 0 1024 1024" enable-background="new 0 0 1024 1024" xml:space="preserve">
<path fill="#000000" opacity="1.000000" stroke="none" 
	d="
M409.847229,870.078247 
	C399.887726,853.963196 396.781128,837.007263 397.480652,818.341431 
	C399.114929,774.732788 399.285889,731.069031 400.034302,687.427368 
	C400.668365,650.451721 401.265564,613.475342 401.907806,576.499756 
	C402.512451,541.689758 403.142944,506.880249 403.789520,472.071014 
	C403.930603,464.474426 406.104218,462.194214 413.655518,461.987885 
	C430.472717,461.528381 447.292328,461.139709 464.112854,460.824066 
	C470.724579,460.700012 472.177917,462.073486 472.127716,468.635284 
	C471.765808,515.953857 471.630310,563.277161 470.782959,610.587585 
	C470.392090,632.410645 470.617126,654.239319 469.935181,676.054749 
	C468.721924,714.867615 469.698273,753.699402 468.896027,792.513733 
	C467.676971,851.491638 468.586823,910.481689 467.757782,969.461243 
	C467.739136,970.785645 467.991791,972.111816 468.063110,973.440125 
	C468.199402,975.978027 467.575958,978.216614 464.824402,978.923584 
	C462.085144,979.627441 460.966370,977.526001 460.013733,975.538574 
	C455.910217,966.977539 451.860229,958.390869 447.781982,949.817749 
	C435.191193,923.349792 422.596344,896.883667 409.847229,870.078247 
z"/>
<path fill="#000000" opacity="1.000000" stroke="none" 
	d="
M494.882233,700.929932 
	C505.719818,687.836060 520.110107,681.807983 535.731323,677.859009 
	C562.279724,671.147705 588.917786,670.029968 615.832275,675.629333 
	C639.848755,680.625854 656.918396,700.784973 659.543640,725.168457 
	C662.598450,753.541382 644.436829,781.094849 616.749634,789.550720 
	C588.612061,798.144104 560.118408,802.658325 530.636719,799.291016 
	C500.282013,795.823853 481.119202,774.505920 480.607269,743.894348 
	C480.339874,727.906372 484.810486,713.737671 494.882233,700.929932 
M550.567444,720.024902 
	C543.573486,722.147217 537.415283,725.697327 532.593323,731.218567 
	C527.838379,736.663147 528.306885,743.995117 533.520630,748.645325 
	C535.922241,750.787292 538.866211,751.934143 541.939087,752.814026 
	C555.237671,756.622131 568.566284,755.506470 581.933472,753.233887 
	C590.185974,751.830933 598.261230,749.932434 605.352417,745.245361 
	C614.852112,738.966309 614.812073,728.688171 605.288574,722.534424 
	C602.203674,720.541016 598.823730,719.131897 595.219482,718.291931 
	C580.452637,714.850647 565.843323,716.077515 550.567444,720.024902 
z"/>
<path fill="#000000" opacity="1.000000" stroke="none" 
	d="
M484.065613,566.685547 
	C484.956726,563.165283 487.286316,562.155273 490.139252,561.902710 
	C491.132599,561.814758 492.135590,561.824646 493.134460,561.811768 
	C523.100708,561.426270 553.069031,561.158630 583.032349,560.614441 
	C599.502930,560.315308 615.969910,559.662476 632.429382,558.956421 
	C642.866394,558.508606 644.518311,559.617310 646.171997,569.989624 
	C649.613281,591.574402 651.187134,613.231384 649.279602,635.097717 
	C647.879578,651.145935 639.240906,661.665955 623.535645,665.468018 
	C610.759949,668.560913 597.878052,668.954529 584.916260,666.778076 
	C575.597656,665.213440 567.474426,661.195679 560.914124,654.412842 
	C558.120300,651.524231 556.072937,650.998413 553.344666,654.360657 
	C543.763184,666.168884 530.737976,672.114014 516.354492,675.563965 
	C508.595123,677.424988 500.810425,679.210999 492.978882,680.730530 
	C486.936005,681.903015 484.035767,679.497192 483.980652,673.360168 
	C483.881927,662.370422 484.037567,651.378418 484.055054,640.387390 
	C484.063171,635.279846 486.147400,631.862549 491.339935,630.483032 
	C499.535431,628.305725 507.695862,625.991333 515.839844,623.627136 
	C520.806274,622.185425 525.769104,620.596802 529.507812,616.744446 
	C531.139465,615.063110 532.915100,612.869873 532.039734,610.586548 
	C531.091187,608.112183 528.255493,609.067871 526.211670,609.182068 
	C514.916138,609.813171 503.634491,610.718445 492.334625,611.235901 
	C484.967377,611.573242 483.785492,610.288086 483.793243,603.083313 
	C483.806122,591.094360 483.911346,579.105530 484.065613,566.685547 
M608.451172,602.775146 
	C598.142578,602.294189 587.956116,603.905762 577.721802,604.650696 
	C575.529663,604.810242 574.324036,606.411621 574.384827,608.853210 
	C574.504761,613.671997 577.548218,618.505310 582.153320,620.076416 
	C590.279846,622.848938 598.519470,622.922302 606.504639,619.613770 
	C613.619873,616.665771 614.810669,608.545837 608.451172,602.775146 
z"/>
<path fill="#000000" opacity="1.000000" stroke="none" 
	d="
M475.118286,184.000458 
	C474.834290,220.800339 474.553955,257.100220 474.273712,293.400085 
	C474.184662,304.933563 472.817657,305.985413 462.217499,302.006531 
	C446.327332,296.041992 430.482941,289.954620 414.647644,283.845490 
	C408.347076,281.414825 406.932678,279.476074 407.057129,272.544708 
	C407.831116,229.433044 408.733551,186.323685 409.527771,143.212357 
	C409.733246,132.056747 409.623627,120.895515 409.803467,109.739204 
	C410.015411,96.590034 410.426758,83.444145 410.661591,70.295227 
	C410.738739,65.977585 412.412140,62.903721 416.639221,61.533955 
	C434.520142,55.739723 452.410461,49.974682 470.290955,44.179150 
	C473.966827,42.987720 475.669861,44.554375 475.960358,48.124588 
	C476.068146,49.449146 476.068542,50.787983 476.031952,52.117947 
	C474.827332,95.905968 475.551147,139.707230 475.118286,184.000458 
z"/>
<path fill="#000000" opacity="1.000000" stroke="none" 
	d="
M414.301086,428.089844 
	C414.088135,435.231750 413.908600,441.886932 413.653748,448.539276 
	C413.480560,453.059113 410.804871,455.094818 406.532776,455.191711 
	C395.214691,455.448425 383.895142,455.748657 372.575470,455.779907 
	C366.873352,455.795685 364.489655,453.432465 365.065582,447.667755 
	C366.176331,436.550812 364.755341,425.342224 366.603760,414.268646 
	C367.174408,410.850159 366.626770,407.930756 362.272308,407.329590 
	C355.744751,406.428467 352.366791,407.879272 351.593506,412.524048 
	C351.160065,415.127563 351.355255,417.835907 351.269501,420.497070 
	C350.958527,430.146729 350.596497,439.795105 350.360840,449.446594 
	C350.248535,454.045471 347.788116,456.117035 343.465027,456.209351 
	C330.314301,456.490173 317.162506,456.810028 304.009979,456.870880 
	C298.230682,456.897614 296.529907,455.104706 296.787933,449.203461 
	C297.921661,423.275970 299.245148,397.356842 300.466187,371.433105 
	C301.249054,354.812622 302.046661,338.192200 302.690094,321.566040 
	C302.974335,314.221741 304.105438,312.879456 311.552734,312.855347 
	C323.378204,312.817047 335.204224,312.809570 347.029419,312.885559 
	C353.784851,312.928986 355.961914,314.981720 355.146729,321.744629 
	C353.904724,332.048737 354.710693,342.379333 354.058838,352.675873 
	C353.829987,356.290314 354.544891,358.756866 359.072754,358.835175 
	C367.138184,358.974609 368.427246,358.438721 368.991516,353.189484 
	C370.062469,343.227295 369.533203,333.221924 369.793945,323.237854 
	C370.022522,314.484558 371.688751,313.049744 380.400909,312.582703 
	C389.557129,312.091827 398.707092,311.967346 407.862976,312.137054 
	C416.873871,312.304047 418.356018,314.177765 418.016479,323.306641 
	C416.723541,358.069702 415.531921,392.836487 414.301086,428.089844 
z"/>
<path fill="#000000" opacity="1.000000" stroke="none" 
	d="
M598.199219,943.198730 
	C592.092529,950.502502 586.640991,957.851257 581.788208,965.634521 
	C571.550293,982.054626 556.275574,990.418701 537.566223,993.259521 
	C527.614319,994.770691 517.681152,995.309082 507.945312,991.968628 
	C492.823212,986.780212 485.454407,975.109497 481.747284,960.429321 
	C477.786407,944.744263 479.616913,929.350891 484.484314,914.225342 
	C487.681885,904.288818 492.340332,901.777588 502.629669,903.290466 
	C513.030151,904.819702 523.514465,905.038696 534.013977,904.990540 
	C542.308167,904.952515 544.025024,907.794067 540.222229,915.115479 
	C537.540649,920.278381 534.509521,925.235352 533.890808,931.261719 
	C533.542297,934.655762 533.790161,937.656799 536.661377,939.761414 
	C539.419617,941.783386 542.396118,941.027771 545.197815,939.705261 
	C551.227173,936.859253 555.842834,932.315552 559.744751,927.040771 
	C565.190918,919.678711 570.530457,912.237305 575.869751,904.796875 
	C589.984375,885.128296 614.890381,876.772827 637.846375,884.313171 
	C653.976685,889.611511 662.928284,901.500305 666.004883,917.662903 
	C668.844299,932.579041 667.712708,947.458557 663.370483,962.101257 
	C661.660583,967.867371 658.038086,970.548706 652.285217,971.181274 
	C639.392273,972.598999 626.514954,974.159363 613.630798,975.656921 
	C607.256165,976.397766 604.328430,972.712585 607.050598,966.912537 
	C609.735168,961.192688 612.954529,955.725342 615.881592,950.117126 
	C617.428650,947.152954 618.730103,944.064697 618.783264,940.654907 
	C618.860046,935.736206 615.509521,933.189331 610.876648,934.811218 
	C606.098694,936.483887 601.952515,939.260071 598.199219,943.198730 
z"/>
<path fill="#000000" opacity="1.000000" stroke="none" 
	d="
M575.259766,816.277283 
	C592.388062,797.939209 612.571655,791.516968 636.559143,798.967102 
	C645.820557,801.843506 652.320984,807.761292 656.133728,816.847473 
	C662.180542,831.257935 664.053528,845.969238 660.352295,861.252197 
	C658.224182,870.039551 653.478516,873.944824 644.452148,874.102478 
	C635.628113,874.256653 626.798767,874.344910 617.975159,874.220703 
	C609.890625,874.106873 608.478882,871.708313 611.619263,864.431763 
	C613.066284,861.079041 614.521606,857.682007 615.444702,854.166321 
	C616.172485,851.394165 615.861877,848.443665 613.209167,846.476929 
	C610.540222,844.498169 607.774353,845.187866 605.230957,846.667236 
	C598.268066,850.717224 593.959229,857.410156 589.008484,863.423462 
	C583.627136,869.959839 579.334473,877.326416 572.948669,883.115906 
	C558.727844,896.008667 541.932739,899.757019 523.381531,897.895569 
	C515.686096,897.123413 508.352570,895.258911 501.573364,891.372375 
	C487.240936,883.155396 482.576416,869.733582 481.825714,854.384949 
	C481.057098,838.669739 484.868866,823.693787 490.027893,809.008240 
	C491.357086,805.224609 494.104095,803.168335 498.097412,803.861511 
	C511.317932,806.156250 524.648865,805.534485 537.953979,805.694458 
	C546.259705,805.794373 547.827942,808.376404 544.034912,815.835266 
	C540.647644,822.496277 536.303772,828.753174 534.875366,836.249329 
	C534.046814,840.597351 532.579224,845.570984 537.170471,848.618347 
	C541.542969,851.520508 545.430908,848.362305 549.101990,846.146729 
	C553.027588,843.777527 555.709961,840.093018 558.569031,836.629150 
	C564.079041,829.953918 569.548218,823.244873 575.259766,816.277283 
z"/>
<path fill="#000000" opacity="1.000000" stroke="none" 
	d="
M746.750488,333.039429 
	C746.252014,328.627380 745.795776,324.663940 745.305176,320.704803 
	C744.670715,315.583923 746.239990,313.258575 751.171387,312.944855 
	C759.141541,312.437805 767.132080,312.260437 775.111145,311.882568 
	C780.114441,311.645630 782.598083,314.414215 783.081543,318.947113 
	C784.597412,333.160126 786.003113,347.386566 787.270630,361.623932 
	C788.612183,376.691772 789.717957,391.780487 790.983032,406.855347 
	C791.613098,414.364105 791.460632,421.839050 789.902039,429.213226 
	C787.704651,439.609680 781.126282,446.265472 770.421204,447.046692 
	C744.021179,448.973297 717.570618,450.469727 691.106873,448.012970 
	C683.271484,447.285614 681.907471,445.206696 683.715515,437.596191 
	C685.714111,429.183624 687.669434,420.757690 689.870361,412.397247 
	C691.592468,405.855988 693.515625,404.712677 699.953491,406.393219 
	C710.408508,409.122498 721.039673,409.244781 731.695007,408.744202 
	C737.677856,408.463135 743.067749,406.236389 747.374329,401.951263 
	C749.026123,400.307648 750.655701,398.169586 749.084473,395.750793 
	C747.620728,393.497559 745.415222,395.007385 743.618103,395.531006 
	C734.301636,398.245636 724.949829,400.648132 715.142639,398.690491 
	C700.674133,395.802399 693.979980,386.610107 695.085205,371.846069 
	C696.265381,356.080627 697.151855,340.295380 696.964355,324.469513 
	C696.861694,315.801208 698.198547,314.396271 706.623962,313.440247 
	C713.276550,312.685333 719.934326,312.843719 726.576782,313.286407 
	C732.570068,313.685852 734.138062,315.355377 734.229736,321.408264 
	C734.376099,331.066376 734.302429,340.727966 734.307983,350.388062 
	C734.309937,353.762756 733.879395,357.320343 738.802368,357.741882 
	C743.342834,358.130676 746.587830,355.992554 747.485168,351.362244 
	C748.643372,345.385559 747.679749,339.422882 746.750488,333.039429 
z"/>
<path fill="#000000" opacity="1.000000" stroke="none" 
	d="
M540.430786,277.474792 
	C540.131287,273.191681 539.867371,269.372803 539.668823,265.550507 
	C539.521973,262.723083 538.526917,260.458954 535.331970,260.627380 
	C532.207458,260.792145 531.946472,263.362701 531.958130,265.800537 
	C532.009094,276.461090 532.141541,287.121368 532.153381,297.781891 
	C532.161682,305.256927 530.980530,306.370514 523.402344,306.376678 
	C512.241760,306.385742 501.080841,306.416107 489.920776,306.334442 
	C484.053986,306.291504 481.933777,304.426514 481.965332,298.577301 
	C482.091888,275.095428 482.440857,251.614807 482.662842,228.133286 
	C482.701843,224.011154 484.900055,222.680038 488.706360,222.652847 
	C500.535675,222.568359 512.340149,223.405853 524.151611,223.585876 
	C549.632507,223.974213 575.121521,223.825958 600.607178,223.905319 
	C608.432800,223.929688 616.255371,223.860153 624.070496,224.549316 
	C629.900940,225.063477 631.177734,226.237640 631.296936,232.290024 
	C631.647827,250.104340 631.940613,267.919922 632.339233,285.733124 
	C632.443420,290.387482 632.909119,295.032623 633.101135,299.686462 
	C633.286438,304.174683 631.272278,306.467316 626.539795,306.389893 
	C617.213623,306.237335 607.883179,306.358856 598.556396,306.228363 
	C593.423584,306.156555 591.862366,304.470276 591.659180,299.203705 
	C591.293518,289.722382 590.998596,280.238220 590.616272,270.757599 
	C590.536133,268.768799 590.235291,266.786407 589.984253,264.807648 
	C589.692566,262.509003 588.538330,261.125946 586.030579,261.290314 
	C583.551331,261.452759 582.469788,263.020294 582.430664,265.258942 
	C582.369690,268.752441 582.499878,272.250275 582.590576,275.745209 
	C582.797852,283.734283 583.015442,291.723114 583.258301,299.711151 
	C583.398865,304.333984 581.170166,306.385284 576.580688,306.337280 
	C567.253296,306.239716 557.924011,306.218140 548.596497,306.292419 
	C544.142334,306.327881 541.994812,304.486328 541.487061,299.889343 
	C540.679626,292.577667 540.916321,285.248627 540.430786,277.474792 
z"/>
<path fill="#000000" opacity="1.000000" stroke="none" 
	d="
M558.040161,505.189453 
	C552.462646,505.842133 547.420105,506.932892 542.577881,508.739594 
	C535.957642,511.209686 533.874878,515.697327 536.394287,522.149170 
	C539.217590,529.379211 543.381287,535.754700 549.217651,540.955139 
	C551.343811,542.849670 553.921753,544.714539 552.866577,547.987549 
	C551.699463,551.607727 548.319824,551.290955 545.313354,551.387207 
	C528.174255,551.935791 511.038361,552.629272 493.895416,552.993835 
	C485.380066,553.174927 484.144714,552.055969 483.122131,543.576416 
	C481.321289,528.643311 480.879456,513.724548 484.760315,498.965302 
	C489.146271,482.285065 498.842163,470.777313 515.667358,465.327820 
	C544.339417,456.041321 573.233521,453.877808 602.766052,460.648315 
	C630.884033,467.094513 645.922974,484.787445 647.444763,513.557434 
	C647.895264,522.073486 647.614014,530.504089 646.283081,538.903259 
	C645.024353,546.846741 641.551025,550.022095 633.608276,550.140869 
	C620.617310,550.335266 607.622986,550.394043 594.630432,550.358826 
	C588.276062,550.341614 586.644104,547.450562 589.465759,541.721619 
	C592.918396,534.711487 597.579529,528.318298 600.086731,520.824036 
	C602.588989,513.344543 601.127258,510.022339 593.521851,507.690491 
	C582.071899,504.180023 570.360168,503.228668 558.040161,505.189453 
z"/>
<path fill="#000000" opacity="1.000000" stroke="none" 
	d="
M540.006714,313.858215 
	C550.000854,313.880493 559.498535,313.784088 568.990967,313.962769 
	C577.109314,314.115601 578.882263,315.368683 581.243652,323.001343 
	C593.490295,362.584747 604.236755,402.553223 611.515747,443.385651 
	C612.445740,448.602631 611.156677,450.098999 605.925232,450.218964 
	C595.602173,450.455688 585.275818,450.545441 574.950928,450.701385 
	C570.232788,450.772614 568.042542,448.385010 567.653687,443.745453 
	C567.209595,438.447723 566.379272,433.183502 565.802490,427.895386 
	C565.469055,424.837646 563.637329,423.484070 560.808289,423.388184 
	C557.147400,423.264099 553.476624,423.430420 549.816162,423.300995 
	C545.929932,423.163544 544.343506,425.148163 544.381653,428.773956 
	C544.432434,433.601929 544.417419,438.435181 544.649292,443.255615 
	C544.995056,450.442657 543.123596,452.785461 536.012634,452.978424 
	C527.021362,453.222382 518.023743,453.269989 509.028412,453.323303 
	C502.395813,453.362610 500.589386,451.693604 500.761505,445.111694 
	C501.227173,427.300812 502.953217,409.590973 505.898132,392.023926 
	C509.745819,369.071930 514.194519,346.232819 519.492065,323.565125 
	C521.613525,314.487671 522.275574,313.932922 531.512024,313.870972 
	C534.177246,313.853088 536.842651,313.862122 540.006714,313.858215 
M549.248779,360.871735 
	C547.358582,368.289337 545.841797,375.753174 546.311523,383.480011 
	C546.605225,388.310883 550.078613,387.885010 553.228394,387.464478 
	C556.172119,387.071442 559.347961,386.769775 558.223816,382.059235 
	C556.530151,374.961914 555.278015,367.759308 553.835205,360.602051 
	C553.513306,359.005249 553.461853,357.220001 551.297119,356.816833 
	C549.852661,357.468719 549.873596,358.945679 549.248779,360.871735 
z"/>
<path fill="#000000" opacity="1.000000" stroke="none" 
	d="
M534.897705,52.897064 
	C546.615479,56.339966 557.966492,59.607891 569.270569,63.031025 
	C572.373901,63.970814 573.789246,63.122101 573.659729,59.902519 
	C573.559570,57.410896 573.287537,54.925781 573.203369,52.434013 
	C573.081482,48.828960 574.567627,46.521179 578.500061,46.966362 
	C590.889221,48.368916 603.260315,49.931896 615.648804,51.340561 
	C620.847107,51.931648 623.012085,54.721508 623.401184,59.902824 
	C625.371643,86.144699 625.330750,112.455727 626.373535,138.727936 
	C626.551636,143.215607 627.005005,147.694046 627.117371,152.182114 
	C627.228516,156.621109 624.906067,159.164841 620.430908,159.071884 
	C608.779968,158.829849 597.124268,158.571991 585.488098,157.975296 
	C579.990234,157.693390 578.119263,155.327423 578.134583,149.339035 
	C578.158752,139.850739 578.545654,130.363831 578.620300,120.875076 
	C578.696411,111.200386 576.886597,109.066513 567.527588,107.910606 
	C559.735962,106.948288 551.912720,107.530296 544.088501,107.718735 
	C526.112183,108.151672 508.162140,108.912781 490.229004,110.281960 
	C482.991180,110.834549 480.922638,108.759293 480.964111,101.383423 
	C481.063354,83.733177 481.331512,66.082932 481.675781,48.435501 
	C481.806519,41.732597 485.683746,39.292358 493.164307,41.252914 
	C502.819794,43.783497 512.402405,46.592041 522.016235,49.281567 
	C526.182190,50.447018 530.347656,51.614201 534.897705,52.897064 
z"/>
<path fill="#000000" opacity="1.000000" stroke="none" 
	d="
M603.953918,168.921295 
	C610.432800,169.180664 616.417542,169.524521 622.407043,169.657913 
	C626.378845,169.746368 627.793274,171.820404 628.362610,175.526352 
	C629.989197,186.115387 628.996582,196.803085 629.875183,207.423721 
	C630.408875,213.874664 628.619019,215.374786 622.047668,215.297333 
	C590.908447,214.930313 559.770569,214.439667 528.631104,214.101456 
	C516.141296,213.965775 503.648254,214.155502 491.157043,214.105652 
	C484.050934,214.077301 482.601837,212.575089 482.609039,205.649673 
	C482.619263,195.822998 482.620422,185.996063 482.699615,176.169830 
	C482.744202,170.634903 484.300110,168.954391 489.832550,168.965637 
	C495.153015,168.976456 500.472290,169.400635 505.792908,169.623352 
	C507.831665,169.708694 509.834045,169.472504 511.430969,168.067856 
	C512.820190,166.845917 513.112183,165.156265 512.574646,163.481903 
	C511.777252,160.997879 509.517212,160.550461 507.345703,160.399750 
	C501.370941,159.985031 495.379028,159.812439 489.406311,159.374786 
	C483.568787,158.947021 481.781403,157.020844 481.728729,151.202682 
	C481.654846,143.042130 481.658264,134.880234 481.710175,126.719429 
	C481.745575,121.155830 483.435913,119.242645 489.172180,119.018433 
	C500.483887,118.576332 511.818939,117.928757 523.120361,118.239479 
	C536.089294,118.596039 549.090576,118.390976 562.034363,119.671974 
	C565.849121,120.049522 568.287170,121.341743 568.479126,125.643364 
	C568.872070,134.448471 569.458191,143.245270 569.999939,152.043320 
	C570.259521,156.259033 568.288208,158.202972 564.114868,158.176620 
	C561.118225,158.157669 558.114136,158.180374 555.125366,158.372391 
	C552.275391,158.555466 550.527771,160.020401 550.341736,163.080063 
	C550.155212,166.148788 551.843018,167.760452 554.524475,168.418304 
	C555.950806,168.768234 557.500000,168.672516 558.994324,168.681580 
	C573.816711,168.771378 588.639282,168.841019 603.953918,168.921295 
z"/>
<path fill="#000000" opacity="1.000000" stroke="none" 
	d="
M649.449890,344.518860 
	C650.302795,336.295197 650.980225,328.505859 651.881653,320.742523 
	C652.506897,315.357574 654.993958,313.056580 660.450684,312.958618 
	C668.947327,312.806061 677.450317,312.827667 685.947754,312.959534 
	C691.476501,313.045349 693.375977,315.022034 693.232056,320.765350 
	C692.914612,333.435638 690.767456,345.931396 689.126221,358.461761 
	C685.667053,384.872070 680.683167,411.010803 674.301147,436.876770 
	C673.982483,438.168701 673.645996,439.456818 673.289062,440.738647 
	C671.331360,447.767487 670.675415,448.182861 663.226562,448.345398 
	C653.566528,448.556183 643.904114,448.784851 634.253418,449.235260 
	C629.224976,449.469971 626.264526,447.417633 624.232544,442.812714 
	C617.480408,427.510925 613.110657,411.440002 608.579895,395.426819 
	C601.782471,371.403076 594.757507,347.435730 589.383667,323.032471 
	C587.767822,315.695007 588.800598,313.739807 596.224792,313.292511 
	C604.691528,312.782379 613.216675,312.827789 621.698669,313.130524 
	C627.357727,313.332489 630.042847,316.200745 631.268066,322.225525 
	C634.946350,340.312317 638.550781,358.414154 642.163513,376.514191 
	C642.424072,377.819824 642.517212,379.159149 644.143738,380.998627 
	C647.607239,368.827026 647.273926,356.692139 649.449890,344.518860 
z"/>
<path fill="#000000" opacity="1.000000" stroke="none" 
	d="
M425.541321,454.257935 
	C421.556213,453.211975 421.309235,450.374420 421.393524,447.436829 
	C422.205261,419.140717 422.747681,390.832245 424.000824,362.555420 
	C424.576355,349.569641 424.442657,336.580658 425.075989,323.607513 
	C425.522705,314.457550 427.149231,312.856018 436.161835,312.853485 
	C455.654358,312.847992 475.146973,312.875183 494.639374,312.943756 
	C502.820374,312.972565 504.439117,314.540161 504.250854,322.498688 
	C504.085602,329.486206 503.452698,336.465820 503.400299,343.451721 
	C503.364105,348.277740 501.191437,350.623810 496.547791,350.715912 
	C488.387604,350.877747 480.224487,350.887177 472.063049,350.993744 
	C464.764679,351.088959 462.448883,354.343994 464.384888,361.543457 
	C465.175232,364.482361 467.371613,364.843201 469.817505,364.772430 
	C476.474792,364.579742 483.131073,364.343964 489.786377,364.089874 
	C498.867676,363.743256 500.513641,365.196136 500.279755,374.053864 
	C500.121674,380.039703 499.635254,386.016785 499.298096,391.997925 
	C499.005981,397.179932 495.507050,398.713898 491.125763,398.854279 
	C483.967255,399.083527 476.801117,399.075745 469.638214,399.168762 
	C463.038116,399.254456 459.852234,404.340485 462.764099,410.212128 
	C463.921814,412.546631 466.055176,412.935425 468.317719,412.453796 
	C474.760345,411.082428 481.269165,411.854095 487.747986,411.715240 
	C492.286224,411.617950 494.383331,413.838043 494.376282,418.459778 
	C494.362305,427.629120 493.947174,436.771851 493.180176,445.904449 
	C492.828674,450.090057 490.592804,452.166321 486.385315,452.295410 
	C466.248566,452.913116 446.142212,454.437714 425.541321,454.257935 
z"/>
<path fill="#000000" opacity="1.000000" stroke="none" 
	d="
M268.345825,298.644226 
	C275.247650,302.054626 281.769287,305.395599 288.383606,308.541718 
	C291.988403,310.256378 293.587494,312.825562 293.380127,316.845001 
	C292.394165,335.955292 291.484314,355.069702 290.609161,374.185486 
	C290.122040,384.825134 289.719543,395.469025 289.344940,406.113342 
	C288.940979,417.592041 288.599976,429.073059 288.265625,440.554047 
	C288.198578,442.855316 287.756531,444.986969 285.385223,445.884125 
	C283.101288,446.748322 281.692108,445.005646 280.210388,443.677124 
	C267.936462,432.671875 255.689499,421.636292 243.366898,410.685822 
	C239.745453,407.467651 238.145569,403.799927 238.518402,398.804596 
	C240.659836,370.112549 242.596283,341.405060 244.547363,312.699097 
	C244.942123,306.890961 244.821014,301.036041 245.455963,295.259644 
	C245.978439,290.506226 248.352356,289.154205 252.765701,291.023285 
	C257.966919,293.226074 262.935089,295.979095 268.345825,298.644226 
z"/>
<path fill="#000000" opacity="1.000000" stroke="none" 
	d="
M339.000061,288.671173 
	C359.329376,288.766602 379.164520,289.178009 398.985260,288.811371 
	C407.673370,288.650665 415.271027,291.785431 423.139313,294.321289 
	C430.740448,296.771088 438.241150,299.535248 445.764709,302.220825 
	C447.240021,302.747467 449.185852,302.742584 449.600586,304.939301 
	C448.440674,307.007324 446.405487,306.309418 444.706848,306.309967 
	C400.213440,306.324677 355.720001,306.249847 311.226685,306.302032 
	C298.643921,306.316772 287.796478,300.369537 276.296814,296.644928 
	C272.973633,295.568634 269.698761,294.334717 266.436371,293.082794 
	C264.806885,292.457489 262.855133,292.085938 262.296509,288.733215 
	C275.198822,287.313629 287.884827,289.038361 300.507233,288.725250 
	C313.164185,288.411377 325.835205,288.665741 339.000061,288.671173 
z"/>
<path fill="#000000" opacity="1.000000" stroke="none" 
	d="
M662.652466,288.178162 
	C671.614685,288.381714 680.113892,288.833771 688.599304,288.649261 
	C701.213989,288.374939 713.441345,290.022522 725.480347,293.879913 
	C736.411438,297.382324 747.523315,300.321838 758.563171,303.482544 
	C760.136230,303.932922 761.880371,304.051514 762.381226,306.154236 
	C761.025635,308.069031 759.033325,307.350250 757.360718,307.351929 
	C721.366150,307.388153 685.371582,307.375549 649.376953,307.346924 
	C642.083313,307.341125 640.935730,306.182281 640.770691,299.022675 
	C640.515442,287.946228 640.646912,287.805786 651.687256,287.940094 
	C655.186218,287.982697 658.684631,288.073242 662.652466,288.178162 
z"/>
</svg>