<svg version="1.1" id="Layer_1" xmlns="http://www.w3.org/2000/svg" xmlns:xlink="http://www.w3.org/1999/xlink" x="0px" y="0px"
	 width="100%" viewBox="0 0 1024 1024" enable-background="new 0 0 1024 1024" xml:space="preserve">
<path fill="#000000" opacity="1.000000" stroke="none" 
	d="
M400.861328,638.003601 
	C401.587677,596.207336 402.103302,554.904907 403.144928,513.615723 
	C403.489471,499.958710 403.484680,486.304962 403.769897,472.652069 
	C403.943237,464.354218 405.951843,462.181213 414.067749,461.967621 
	C430.548706,461.533844 447.031067,461.140656 463.514648,460.824005 
	C470.961792,460.680908 472.202972,461.946716 472.142609,469.533600 
	C471.774231,515.841980 471.735382,562.156982 470.872742,608.456360 
	C469.774231,667.415955 469.693237,726.383057 468.864044,785.341553 
	C468.001892,846.643555 468.574646,907.948914 467.768402,969.247864 
	C467.750977,970.572449 467.953552,971.899780 468.049744,973.226135 
	C468.232544,975.746460 467.729309,978.052063 465.030121,978.863464 
	C462.033813,979.764099 460.915619,977.423950 459.897064,975.282043 
	C454.819977,964.605774 449.799652,953.902405 444.714325,943.230042 
	C429.960449,912.266418 415.207703,881.302307 400.390411,850.369019 
	C398.473450,846.367004 397.561310,842.294006 397.636108,837.846863 
	C398.484589,787.385498 399.041046,736.917969 400.184570,686.463684 
	C400.546967,670.474304 400.380157,654.485168 400.861328,638.003601 
z"/>
<path fill="#000000" opacity="1.000000" stroke="none" 
	d="
M580.012939,671.877197 
	C594.519409,672.174927 608.414490,673.453552 621.967407,677.291077 
	C642.600891,683.133667 656.473999,702.377441 659.361694,724.083618 
	C663.285339,753.575928 644.789978,781.335754 615.399353,790.043396 
	C587.697327,798.250732 559.642639,802.643860 530.653564,799.302917 
	C500.294159,795.804138 481.372986,774.500305 480.554504,743.875305 
	C479.781952,714.969482 497.590820,688.793091 526.946289,680.370300 
	C544.182007,675.424927 561.614868,672.331909 580.012939,671.877197 
M544.774231,722.199402 
	C540.589172,724.310303 536.671326,726.823364 533.437927,730.247681 
	C526.773499,737.305542 528.392761,746.576782 537.044434,750.901733 
	C538.667297,751.712952 540.410339,752.334412 542.157104,752.838745 
	C555.451477,756.677002 568.785461,755.489868 582.154297,753.189819 
	C590.411621,751.769104 598.483459,749.857178 605.541016,745.111938 
	C614.789062,738.893921 614.757080,728.833679 605.508789,722.675476 
	C602.448914,720.638062 599.080017,719.152039 595.470276,718.358704 
	C578.458862,714.619995 561.789185,715.878601 544.774231,722.199402 
z"/>
<path fill="#000000" opacity="1.000000" stroke="none" 
	d="
M557.647339,651.781982 
	C555.644836,651.731750 554.632690,652.957275 553.714111,654.080139 
	C543.359131,666.738342 529.261536,672.657898 513.884399,676.238525 
	C506.919403,677.860352 499.936218,679.433105 492.909119,680.749756 
	C487.065216,681.844666 484.071594,679.545105 484.003784,673.781921 
	C483.870483,662.455872 484.019867,651.126099 484.095459,639.798157 
	C484.126831,635.091858 486.233673,631.911682 490.957642,630.618164 
	C499.300476,628.333679 507.648132,626.058472 515.937988,623.591919 
	C521.360168,621.978577 526.889771,620.354736 530.508545,615.493530 
	C531.581360,614.052307 532.874695,612.288330 532.039795,610.474365 
	C531.101807,608.436523 528.843445,609.034912 527.095154,609.134216 
	C515.297180,609.804688 503.510559,610.700195 491.707336,611.239990 
	C485.097687,611.542236 483.814087,610.102417 483.794128,603.450134 
	C483.761139,592.455017 483.778717,581.459351 483.854034,570.464478 
	C483.901550,563.527771 485.453705,561.950195 492.403290,561.834778 
	C515.549866,561.450317 538.696350,561.005920 561.844849,560.809509 
	C585.826111,560.605957 609.797302,560.232849 633.751099,558.969666 
	C642.749512,558.495178 644.220886,559.494385 645.753174,568.371216 
	C649.871765,592.230774 652.148010,616.231201 648.242554,640.338745 
	C646.149353,653.259766 638.152588,661.524658 625.599304,664.953308 
	C612.264160,668.595459 598.696472,669.020813 585.025818,666.828552 
	C574.177490,665.088867 565.544678,659.465210 557.647339,651.781982 
M607.689819,602.555176 
	C597.928650,603.182068 588.162659,603.746216 578.409729,604.481628 
	C576.086182,604.656799 574.166626,605.888672 574.430298,608.641357 
	C574.859131,613.117310 576.243286,617.468750 580.619507,619.338013 
	C589.746704,623.236755 599.139648,623.318787 608.068665,618.774170 
	C614.237122,615.634644 614.240723,606.876892 607.689819,602.555176 
z"/>
<path fill="#000000" opacity="1.000000" stroke="none" 
	d="
M471.545593,303.790222 
	C466.114136,304.396088 461.822662,301.855530 457.362579,300.200531 
	C443.475067,295.047272 429.689972,289.618439 415.852570,284.329437 
	C408.173309,281.394226 406.913116,279.674744 407.045624,271.340302 
	C407.686188,231.042725 408.321350,190.744965 409.040955,150.448730 
	C409.513672,123.977493 410.200928,97.509911 410.613678,71.037910 
	C410.695862,65.768677 412.838104,62.605930 417.794525,61.029297 
	C435.077454,55.531639 452.326569,49.927654 469.613678,44.443352 
	C474.387238,42.928955 476.000610,44.083996 475.988586,49.396656 
	C475.967499,58.719372 475.471436,68.040627 475.425385,77.363739 
	C475.204071,122.174477 475.392456,166.990082 474.779816,211.794983 
	C474.401733,239.444809 474.584656,267.091980 474.242676,294.738037 
	C474.204163,297.851593 474.618408,301.152008 471.545593,303.790222 
z"/>
<path fill="#000000" opacity="1.000000" stroke="none" 
	d="
M368.700256,355.350647 
	C370.107727,344.484070 369.536926,333.973785 369.787537,323.489838 
	C370.004272,314.420258 371.582520,313.071716 380.651703,312.579102 
	C390.310211,312.054474 399.962952,311.876984 409.615173,312.230377 
	C416.574951,312.485199 418.250275,314.209473 418.020813,321.066101 
	C416.901550,354.508270 415.620392,387.944977 414.460693,421.385864 
	C414.183655,429.375366 414.303436,437.379730 413.966614,445.365692 
	C413.613159,453.745026 411.986816,455.146393 403.729034,455.282715 
	C393.739563,455.447571 383.751068,455.668030 373.761658,455.835907 
	C367.129120,455.947388 364.439392,453.704742 365.073212,447.352753 
	C366.166199,436.398926 364.752747,425.356506 366.591827,414.446808 
	C367.203583,410.817780 366.619324,407.781433 361.950409,407.296875 
	C355.243408,406.600861 352.320923,408.019287 351.510834,412.840057 
	C351.264526,414.305725 351.346405,415.828400 351.301147,417.325653 
	C350.979126,427.976471 350.604187,438.626160 350.373016,449.278992 
	C350.274475,453.819366 348.010864,456.097809 343.630432,456.194702 
	C330.311371,456.489410 316.990356,456.704010 303.669342,456.897522 
	C298.981476,456.965607 296.516663,454.713470 296.739899,449.856476 
	C297.626038,430.575592 298.465179,411.292511 299.392578,392.013641 
	C300.096191,377.386047 301.040649,362.768951 301.622314,348.137024 
	C301.999115,338.659058 303.128723,329.212646 302.763000,319.700073 
	C302.590759,315.220184 304.868774,312.872742 309.424072,312.875031 
	C322.417694,312.881561 335.412476,312.788116 348.404388,312.940857 
	C353.696594,313.003113 355.836365,315.358795 355.168427,321.125122 
	C354.013336,331.097748 354.532837,341.088562 354.170868,351.064636 
	C354.074646,353.716522 352.921265,356.974762 356.492798,358.483337 
	C360.047058,359.984619 366.468384,358.461609 368.700256,355.350647 
z"/>
<path fill="#000000" opacity="1.000000" stroke="none" 
	d="
M513.894592,993.442993 
	C493.647827,989.394775 484.784729,975.510254 481.063629,957.198853 
	C477.854675,941.407898 479.970093,926.023071 485.769836,911.155579 
	C488.368042,904.495239 493.023865,901.901123 500.004974,902.922058 
	C511.417633,904.591003 522.869873,905.041565 534.377441,904.996399 
	C542.259460,904.965454 543.961365,907.903137 540.272766,914.997742 
	C537.508667,920.314087 534.464050,925.443054 533.836182,931.637817 
	C533.088501,939.014404 537.788452,942.819275 544.632629,939.930054 
	C550.962097,937.258118 555.664856,932.517151 559.685669,927.119385 
	C565.059265,919.905457 570.287598,912.582642 575.536499,905.276550 
	C589.811096,885.406921 613.486511,876.994873 636.850952,883.995728 
	C653.512512,888.988098 662.824280,901.044983 665.999878,917.640503 
	C668.855225,932.562805 667.712891,947.451050 663.370239,962.101746 
	C661.659668,967.872559 658.031738,970.549927 652.276550,971.182739 
	C639.376831,972.601196 626.493103,974.164856 613.601990,975.661560 
	C607.251404,976.398987 604.333862,972.681946 607.064087,966.878235 
	C609.755249,961.157471 612.974304,955.686584 615.901917,950.074890 
	C617.449463,947.108704 618.747437,944.015564 618.785583,940.602966 
	C618.840393,935.691528 615.467590,933.174194 610.821472,934.829956 
	C604.875854,936.948730 599.951660,940.636108 596.094055,945.622131 
	C590.998474,952.208496 585.992126,958.857178 581.566833,965.936584 
	C571.409912,982.185425 556.187195,990.427063 537.662109,993.238220 
	C529.909363,994.414673 522.123047,995.159973 513.894592,993.442993 
z"/>
<path fill="#000000" opacity="1.000000" stroke="none" 
	d="
M486.433167,820.537231 
	C487.684235,816.493225 488.756042,812.817566 489.967590,809.188599 
	C491.313812,805.156189 494.203339,803.132446 498.414093,803.877808 
	C511.307617,806.160278 524.315491,805.548462 537.296509,805.685364 
	C546.570984,805.783142 548.004578,808.235596 543.643616,816.592896 
	C540.337158,822.929138 536.284241,828.957275 534.906616,836.121826 
	C534.067261,840.487488 532.565979,845.477722 537.072327,848.546631 
	C541.615662,851.640625 545.659851,848.308411 549.408691,845.913757 
	C553.839966,843.083191 556.756287,838.728760 560.022949,834.730957 
	C565.714172,827.765930 571.243347,820.644043 577.298462,814.005615 
	C592.443909,797.401733 616.610962,791.711548 637.740723,799.362061 
	C646.359863,802.482788 652.400391,808.132324 656.035461,816.633911 
	C662.331909,831.359924 664.093872,846.432068 660.191223,862.029663 
	C658.262939,869.736511 653.507080,873.799072 645.640625,874.038513 
	C636.150024,874.327454 626.643372,874.351501 617.149292,874.177856 
	C610.030884,874.047668 608.612915,871.518555 611.366028,865.044250 
	C612.797974,861.676697 614.324036,858.312988 615.325317,854.809692 
	C616.163147,851.878479 616.081116,848.746582 613.321655,846.575745 
	C610.511597,844.364990 607.638428,845.307678 604.912781,846.827820 
	C600.289307,849.406433 597.257812,853.669250 593.785217,857.477722 
	C586.379150,865.600220 581.266785,875.538330 573.027954,883.035645 
	C558.821411,895.963745 542.024353,899.753052 523.458191,897.907104 
	C515.760315,897.141724 508.412506,895.291870 501.626587,891.405457 
	C487.088806,883.079346 482.516083,869.465576 481.812439,853.919617 
	C481.303802,842.681885 483.144623,831.696594 486.433167,820.537231 
z"/>
<path fill="#000000" opacity="1.000000" stroke="none" 
	d="
M759.843994,448.048218 
	C737.904053,448.357452 716.450378,450.435150 694.981995,448.281769 
	C694.154907,448.198792 693.316956,448.228485 692.487305,448.164642 
	C683.222473,447.452301 681.759033,445.447052 683.946655,436.513367 
	C685.923828,428.438721 687.765625,420.328369 689.898743,412.295288 
	C691.615417,405.830414 693.544800,404.721710 700.055664,406.416168 
	C710.510986,409.137207 721.143311,409.256744 731.796326,408.733673 
	C737.773376,408.440216 743.148743,406.184418 747.449402,401.884705 
	C748.993225,400.341278 750.460938,398.320038 749.290955,396.084503 
	C747.854614,393.339874 745.451843,395.011108 743.525269,395.566528 
	C734.203430,398.253998 724.855896,400.653992 715.048340,398.670929 
	C700.759888,395.781799 694.065674,386.841431 695.076599,372.253387 
	C696.181091,356.315643 697.146729,340.371948 696.962280,324.380951 
	C696.863220,315.791992 698.206116,314.405701 706.709106,313.428314 
	C713.194885,312.682770 719.687012,312.862732 726.163696,313.244720 
	C732.685242,313.629303 734.173340,315.287445 734.251160,321.990387 
	C734.363220,331.648499 734.314636,341.308685 734.300964,350.967957 
	C734.296570,354.069580 734.162354,357.213348 738.386780,357.679169 
	C742.463196,358.128693 745.642639,356.899445 747.069824,352.710419 
	C748.682983,347.975433 747.933899,343.126312 747.493286,338.348175 
	C746.944153,332.392975 746.019470,326.472717 745.274353,320.535217 
	C744.646606,315.532990 746.329163,313.237823 751.341980,312.928009 
	C759.146484,312.445740 766.964722,312.107880 774.782166,311.936310 
	C780.264893,311.815887 782.541565,313.674438 783.097229,319.113983 
	C784.938416,337.135529 786.688782,355.168549 788.223145,373.218506 
	C789.433960,387.462067 790.279663,401.736755 791.276978,415.998352 
	C791.582214,420.363190 790.768433,424.651337 789.958984,428.877441 
	C787.929749,439.471893 781.096130,445.727844 770.274109,447.172913 
	C766.978149,447.613007 763.642029,447.752716 759.843994,448.048218 
z"/>
<path fill="#000000" opacity="1.000000" stroke="none" 
	d="
M540.779358,288.960388 
	C540.396362,280.828247 540.018738,273.182037 539.663818,265.534760 
	C539.532349,262.703003 538.513733,260.448425 535.318787,260.627472 
	C532.193420,260.802612 531.946289,263.379059 531.958069,265.812408 
	C532.008118,276.139343 532.116882,286.466034 532.162903,296.792969 
	C532.201477,305.446960 531.285400,306.377686 522.894104,306.378723 
	C511.900574,306.380066 500.906647,306.416779 489.913666,306.334320 
	C484.050476,306.290344 481.933197,304.424042 481.964905,298.570801 
	C482.092255,275.089844 482.445251,251.610168 482.661102,228.129532 
	C482.702759,223.599854 485.345490,222.692505 489.209076,222.641220 
	C501.541046,222.477478 513.838562,223.503067 526.151367,223.631241 
	C553.799133,223.919052 581.450806,223.822556 609.100525,223.957840 
	C614.089539,223.982239 619.078308,224.337234 624.064514,224.592300 
	C629.911865,224.891418 631.177246,226.237366 631.296997,232.286713 
	C631.646301,249.933701 631.936523,267.581970 632.334351,285.227814 
	C632.442993,290.048462 632.905090,294.860077 633.102478,299.680054 
	C633.286011,304.163818 631.282959,306.466827 626.546753,306.389618 
	C617.220947,306.237640 607.890930,306.358551 598.564575,306.228912 
	C593.420288,306.157471 591.860657,304.479187 591.657715,299.214905 
	C591.292175,289.733978 590.982910,280.250885 590.626892,270.769562 
	C590.570801,269.274872 590.478455,267.771515 590.251038,266.295532 
	C589.868225,263.810425 589.655579,261.038544 586.046448,261.305176 
	C582.609497,261.559082 582.300903,264.104584 582.372986,266.740967 
	C582.623291,275.894104 583.001709,285.044128 583.194580,294.198242 
	C583.450623,306.346985 583.395325,306.343292 571.101807,306.306335 
	C563.606201,306.283783 556.109863,306.208618 548.615356,306.292847 
	C544.171143,306.342804 541.711609,304.552551 541.546448,299.900452 
	C541.422607,296.411102 541.053589,292.930450 540.779358,288.960388 
z"/>
<path fill="#000000" opacity="1.000000" stroke="none" 
	d="
M535.514893,519.494934 
	C538.521729,528.390442 543.157593,535.761230 550.041504,541.669373 
	C551.961731,543.317444 553.829895,545.237793 552.869507,548.084961 
	C551.996216,550.673706 549.687378,551.261780 547.217957,551.340637 
	C529.409790,551.909668 511.604431,552.608093 493.792267,552.992676 
	C485.455902,553.172607 484.206726,552.063599 483.191376,543.962646 
	C481.298920,528.863403 480.838776,513.775085 484.789032,498.853943 
	C489.148071,482.388763 498.689301,470.914001 515.312378,465.453827 
	C544.301086,455.931854 573.610107,453.570496 603.365540,460.881653 
	C614.396301,463.592041 625.190186,467.306122 633.109680,476.214905 
	C641.473938,485.624023 645.768433,496.898102 647.160645,509.225586 
	C648.283691,519.169189 647.945496,529.158325 646.278137,539.060974 
	C644.953979,546.925110 641.494690,550.033447 633.448120,550.147827 
	C620.621155,550.330139 607.791321,550.387512 594.962952,550.368164 
	C588.204224,550.358032 586.567627,547.565613 589.542419,541.570312 
	C593.015991,534.569580 597.662231,528.166138 600.148254,520.661377 
	C602.593384,513.280334 601.044739,509.962982 593.357056,507.624634 
	C580.207886,503.625061 566.828186,503.174103 553.370483,505.914459 
	C549.793457,506.642792 546.243652,507.581055 542.760071,508.673859 
	C537.730286,510.251801 534.946533,513.575745 535.514893,519.494934 
z"/>
<path fill="#000000" opacity="1.000000" stroke="none" 
	d="
M501.476013,432.535187 
	C503.047455,400.378448 509.830078,369.506256 516.146545,338.564240 
	C517.410400,332.373108 518.976990,326.244080 520.260498,320.056671 
	C521.109192,315.965485 523.656372,314.008026 527.618958,313.995483 
	C542.111450,313.949554 556.604431,313.993408 571.096985,314.066193 
	C576.783203,314.094788 579.579834,317.358063 581.233459,322.599213 
	C591.002136,353.560699 598.942871,385.002014 606.304199,416.601013 
	C608.416565,425.668488 610.293518,434.778198 611.726990,443.986572 
	C612.375977,448.155853 610.737427,450.099060 606.795471,450.184448 
	C595.971558,450.418945 585.145081,450.559387 574.318848,450.653931 
	C570.023193,450.691437 568.099487,448.207611 567.694092,444.108765 
	C567.186890,438.980988 566.374329,433.881378 565.945801,428.748505 
	C565.609009,424.715332 563.406677,423.245270 559.672302,423.317810 
	C558.006958,423.350189 556.340332,423.306793 554.674255,423.309509 
	C544.349670,423.326355 544.321350,423.327637 544.380615,433.912598 
	C544.400146,437.406860 544.634644,440.899384 544.722229,444.393921 
	C544.867310,450.180664 542.978210,452.672211 537.363953,452.873047 
	C527.210632,453.236237 517.043030,453.232361 506.880920,453.306061 
	C502.715942,453.336273 500.783234,450.830658 500.794830,446.959900 
	C500.808746,442.305359 501.191589,437.651947 501.476013,432.535187 
M553.486145,358.596741 
	C552.931458,357.650208 552.798340,356.299316 550.776672,356.257233 
	C547.669067,365.271698 545.532471,374.580994 546.485962,384.264252 
	C546.948486,388.961304 551.025574,387.690125 554.017639,387.328156 
	C556.812622,386.990021 559.164490,386.188049 558.266174,382.247559 
	C556.532654,374.643890 555.156128,366.958801 553.486145,358.596741 
z"/>
<path fill="#000000" opacity="1.000000" stroke="none" 
	d="
M627.077026,148.058884 
	C627.262085,157.928665 625.919128,159.335632 616.604614,159.097183 
	C606.953979,158.850128 597.305054,158.522842 587.657776,158.164383 
	C579.979248,157.879044 578.043640,155.870651 578.116882,148.023163 
	C578.203857,138.703430 578.564636,129.385864 578.615051,120.066307 
	C578.662048,111.382896 576.609314,109.130302 568.219116,107.981606 
	C560.755249,106.959747 553.264648,107.376976 545.781738,107.607719 
	C527.155029,108.182144 508.532928,108.778870 489.945343,110.285942 
	C483.051239,110.844925 480.936005,108.707565 480.972290,101.604607 
	C481.063202,83.792679 481.328949,65.980446 481.691467,48.171726 
	C481.821564,41.780972 485.739197,39.340981 492.933838,41.187832 
	C501.631958,43.420616 510.260742,45.929310 518.894287,48.406441 
	C535.360901,53.131020 551.810425,57.914753 568.265076,62.680801 
	C573.135925,64.091637 573.688599,63.665951 573.655579,58.448181 
	C573.583069,47.005333 573.604004,46.769394 584.881470,47.770370 
	C595.306580,48.695690 605.676453,50.234127 616.078369,51.435772 
	C621.143860,52.020947 623.017334,54.973152 623.387878,59.840286 
	C625.385315,86.073105 625.332092,112.378090 626.375183,138.643219 
	C626.493958,141.632721 626.825806,144.613770 627.077026,148.058884 
z"/>
<path fill="#000000" opacity="1.000000" stroke="none" 
	d="
M620.847290,215.317444 
	C577.401001,214.840530 534.443237,213.646484 491.468597,214.099640 
	C483.892822,214.179520 482.582733,212.663376 482.609222,204.961624 
	C482.642426,195.301132 482.617004,185.640198 482.703278,175.980240 
	C482.750427,170.698654 484.292908,168.989792 489.523285,168.979202 
	C495.009491,168.968094 500.494843,169.491684 505.984039,169.592346 
	C509.307190,169.653275 512.724487,169.118576 512.694763,164.762848 
	C512.666077,160.551559 509.138763,160.532730 506.156860,160.328690 
	C500.347473,159.931183 494.525543,159.720459 488.713806,159.353226 
	C484.170593,159.066147 481.703278,156.727921 481.714203,152.009613 
	C481.734222,143.348526 481.772949,134.686569 481.673401,126.026482 
	C481.623657,121.698494 483.783142,119.579788 487.872192,119.098274 
	C489.027618,118.962212 490.197021,118.917152 491.361420,118.889244 
	C514.826416,118.326668 538.288086,117.880241 561.730652,119.664337 
	C565.764832,119.971352 568.313232,121.277557 568.505127,125.839485 
	C568.861511,134.313171 569.653320,142.769928 569.940430,151.244690 
	C570.141235,157.171997 569.051147,158.014328 562.916992,158.173599 
	C560.253296,158.242767 557.581055,158.192398 554.927979,158.395554 
	C552.302795,158.596573 550.633545,159.988541 550.358582,162.780090 
	C550.064575,165.763855 551.485352,167.628510 554.241150,168.321548 
	C555.822876,168.719330 557.539124,168.680939 559.194092,168.673752 
	C580.011353,168.583359 600.822449,168.663895 621.628052,169.599625 
	C626.287964,169.809204 627.802612,171.825333 628.448059,176.235687 
	C629.927795,186.346634 628.953369,196.521500 629.858154,206.643723 
	C630.513489,213.975876 628.944458,215.181320 620.847290,215.317444 
z"/>
<path fill="#000000" opacity="1.000000" stroke="none" 
	d="
M649.449829,344.518860 
	C650.301453,336.301849 650.981018,328.519592 651.876770,320.762299 
	C652.498474,315.377991 654.981262,313.059570 660.417114,312.959930 
	C668.906250,312.804321 677.401794,312.831085 685.892029,312.957214 
	C691.436218,313.039581 693.360779,315.012085 693.233704,320.698853 
	C692.950989,333.361633 690.769409,345.842743 689.135498,358.362701 
	C685.691528,384.751862 680.727966,410.871368 674.323547,436.709015 
	C673.764038,438.966309 673.032104,441.180908 672.474731,443.438660 
	C671.619568,446.902649 669.347351,448.243774 665.910034,448.319672 
	C655.426147,448.551208 644.938049,448.750153 634.464905,449.243530 
	C629.210449,449.491058 626.194702,447.340851 624.107727,442.563965 
	C617.418701,427.253601 613.039917,411.201263 608.513794,395.201508 
	C601.723633,371.198181 594.708740,347.250275 589.343994,322.867279 
	C587.785950,315.785736 588.817688,314.008057 595.884827,313.292786 
	C604.510010,312.419769 613.193787,312.685608 621.831482,313.131256 
	C627.430847,313.420197 630.050476,316.258392 631.286926,322.344543 
	C634.958252,340.416351 638.562866,358.501770 642.173218,376.585907 
	C642.433716,377.890747 642.528259,379.229065 644.161377,381.010742 
	C647.584717,368.852448 647.278076,356.708954 649.449829,344.518860 
z"/>
<path fill="#000000" opacity="1.000000" stroke="none" 
	d="
M424.679108,454.071259 
	C421.511963,452.623566 421.311646,450.114075 421.386841,447.557159 
	C422.600616,406.279480 423.800262,365.001343 425.090454,323.726013 
	C425.383240,314.359802 427.094513,312.848389 436.543915,312.849884 
	C455.870239,312.852966 475.196625,312.876526 494.522827,312.942047 
	C502.919678,312.970520 504.448486,314.485413 504.247314,322.881744 
	C504.075897,330.035919 503.537079,337.181091 503.348053,344.335175 
	C503.229034,348.840179 500.668701,350.600891 496.663025,350.694885 
	C488.503754,350.886414 480.340179,350.888336 472.178680,350.992279 
	C464.748505,351.086884 462.544830,354.103912 464.364075,361.429962 
	C465.096863,364.380829 467.228058,364.829132 469.702545,364.772278 
	C475.529175,364.638428 481.354218,364.436584 487.180573,364.290802 
	C489.673706,364.228424 492.179718,364.077759 494.660095,364.250824 
	C498.397156,364.511566 500.477631,366.573730 500.312927,370.441559 
	C499.994324,377.923187 499.770142,385.415619 499.164032,392.875732 
	C498.789398,397.486664 495.156311,398.720398 491.238770,398.843292 
	C483.913422,399.073059 476.580536,399.053833 469.251587,399.182953 
	C466.959564,399.223328 464.201569,398.723480 463.040710,401.310394 
	C461.718933,404.255951 461.781067,407.578339 463.022552,410.519958 
	C464.012939,412.866577 466.466583,412.857483 468.702637,412.397858 
	C475.145569,411.073425 481.656342,411.813263 488.136871,411.737396 
	C492.481384,411.686493 494.364471,414.029785 494.369354,418.349060 
	C494.379700,427.518738 493.957642,436.661804 493.189667,445.794830 
	C492.866028,449.643341 491.060547,452.109772 486.993042,452.232330 
	C466.360229,452.854095 445.764130,454.641022 424.679108,454.071259 
z"/>
<path fill="#000000" opacity="1.000000" stroke="none" 
	d="
M279.684875,304.288696 
	C295.507599,312.200684 293.938416,308.881439 293.084503,326.509644 
	C291.248566,364.409576 289.498169,402.309845 288.272186,440.234161 
	C288.199493,442.484406 287.992554,444.675293 285.672424,445.748932 
	C283.142548,446.919647 281.673035,444.972717 280.084381,443.549500 
	C267.929871,432.660309 255.824417,421.715729 243.603317,410.901855 
	C239.828934,407.562103 238.133621,403.819519 238.523712,398.625000 
	C240.678406,369.933868 242.614197,341.226105 244.550369,312.519012 
	C244.886322,307.537994 244.651413,302.515350 245.058884,297.542999 
	C245.667892,290.110809 248.102280,288.664764 254.781876,291.842743 
	C263.048157,295.775604 271.172119,300.007568 279.684875,304.288696 
z"/>
<path fill="#000000" opacity="1.000000" stroke="none" 
	d="
M373.000061,288.700439 
	C379.662842,288.710724 385.863983,289.165894 391.980286,288.637970 
	C404.519409,287.555695 415.897858,291.325684 427.249329,295.826202 
	C433.119415,298.153534 439.221741,299.889557 445.174561,302.017456 
	C446.790344,302.595093 448.939941,302.529449 449.616119,304.813324 
	C448.579926,307.045685 446.507904,306.307739 444.837463,306.308380 
	C400.199219,306.325470 355.560944,306.265167 310.922729,306.290710 
	C298.529816,306.297821 287.839294,300.371460 276.490662,296.733582 
	C273.166779,295.668091 269.897064,294.421326 266.644989,293.149200 
	C265.009186,292.509338 263.005859,292.249756 262.306000,289.600525 
	C264.535278,287.611084 267.425201,288.056610 270.082672,288.139557 
	C304.217743,289.205566 338.361816,288.412872 373.000061,288.700439 
z"/>
<path fill="#000000" opacity="1.000000" stroke="none" 
	d="
M662.652466,288.178192 
	C673.780518,288.414764 684.462280,289.135010 695.091919,288.668884 
	C705.697205,288.203796 715.491516,291.023773 725.393494,293.917053 
	C736.415771,297.137634 747.455811,300.297455 758.493835,303.463837 
	C760.057129,303.912231 761.828796,303.994354 762.337891,306.100433 
	C761.036316,308.088379 759.025696,307.351318 757.357056,307.352997 
	C721.363342,307.389313 685.369568,307.376099 649.375793,307.346954 
	C642.084045,307.341064 640.935059,306.180847 640.769714,299.021912 
	C640.513977,287.949066 640.648376,287.805786 651.687561,287.940094 
	C655.186401,287.982697 658.684753,288.073242 662.652466,288.178192 
z"/>
</svg>