<svg xmlns="http://www.w3.org/2000/svg" xmlns:xlink="http://www.w3.org/1999/xlink" version="1.1" id="Layer_1" x="0px" y="0px" enable-background="new 0 0 1024 1024" xml:space="preserve" viewBox="125.6 76.6 774.42 850.38">
<path fill="#000000" opacity="1.000000" stroke="none" d=" M447.000000,926.969116   C425.501099,926.969666 404.502167,926.987000 383.503296,926.960999   C376.915100,926.952820 376.707153,926.718750 376.698517,920.272339   C376.680603,906.939697 376.840881,893.604431 376.605560,880.275879   C376.527496,875.853027 378.075104,874.526062 382.383789,874.546082   C410.048279,874.674805 437.713776,874.592102 465.378937,874.577576   C466.878815,874.576782 468.380585,874.611328 469.878204,874.549805   C476.089722,874.294556 476.663177,873.721069 476.664276,867.498230   C476.672882,818.334167 476.588928,769.169739 476.781403,720.006409   C476.802063,714.722107 474.871582,712.879578 469.969391,711.756226   C432.361694,703.138855 399.417267,685.719299 372.574493,657.834290   C340.337921,624.346130 320.702362,584.400513 313.794373,538.364502   C313.109528,533.800537 311.313721,531.855957 306.711792,532.287231   C304.068756,532.535034 301.360168,532.548645 298.721436,532.276428   C293.791626,531.768066 292.280304,534.062012 292.342926,538.677124   C292.625214,559.501709 292.847351,580.328430 292.876801,601.154785   C292.923004,633.814270 293.267761,666.474915 292.597076,699.134216   C292.515320,703.115173 292.727509,707.105042 292.494080,711.101318   C292.275208,714.848938 293.683685,716.900635 298.029877,716.749146   C306.186066,716.464844 314.362610,716.809021 322.524200,716.615723   C326.254211,716.527405 327.482605,717.938416 327.392944,721.576965   C327.200012,729.405151 327.184326,737.245117 327.388458,745.072571   C327.487549,748.871887 326.326202,750.388733 322.306152,750.377686   C283.141846,750.269897 243.977020,750.275269 204.812683,750.379211   C200.905243,750.389526 199.499710,749.073975 199.606506,745.167480   C199.820435,737.340393 199.852188,729.497620 199.601944,721.672791   C199.471542,717.595337 201.138367,716.517456 204.908142,716.615784   C212.569107,716.815796 220.239120,716.682495 227.905334,716.664307   C234.459564,716.648743 234.696487,716.453247 234.698730,709.945251   C234.712097,671.280579 234.698868,632.615967 234.694687,593.951294   C234.692703,575.618958 234.708649,557.286560 234.679184,538.954224   C234.669540,532.957642 234.119873,532.370178 228.092987,532.347900   C212.927322,532.291748 197.760376,532.415405 182.596054,532.260803   C178.469681,532.218811 177.032562,533.765259 177.063416,537.841919   C177.199600,555.839783 177.018539,573.840332 177.202927,591.837341   C177.246063,596.047058 176.211182,597.380371 171.664398,597.621948   C157.830032,598.356934 144.011353,596.812317 130.203949,597.787842   C126.672661,598.037415 125.571106,596.519592 125.601646,593.115295   C125.722725,579.617188 125.640457,566.117188 125.639885,552.617920   C125.637932,506.953674 125.633667,461.289429 125.643776,415.625183   C125.645302,408.718231 125.678452,408.700134 132.520615,408.692474   C145.186600,408.678253 157.852646,408.674805 170.518631,408.692413   C176.961761,408.701385 177.148575,408.884705 177.146439,415.534882   C177.140793,433.200439 177.229004,450.867645 176.995285,468.530457   C176.932388,473.284088 178.444153,474.887482 183.276764,474.801758   C198.437927,474.532898 213.608505,474.567566 228.771576,474.771179   C233.373810,474.832947 234.775879,473.225677 234.766724,468.665863   C234.649277,410.169189 234.702286,351.672150 234.695206,293.175232   C234.694458,287.057953 234.088058,286.457397 227.693527,286.398010   C220.361237,286.329956 213.013748,286.107605 205.699799,286.480652   C200.734009,286.733917 199.359665,284.836761 199.581406,280.146667   C199.911621,273.162598 199.952713,266.136078 199.574738,259.156982   C199.303955,254.157150 200.876312,252.555679 206.007660,252.586288   C239.837936,252.788116 273.670074,252.678177 307.501617,252.673660   C312.667999,252.672974 317.837189,252.799149 322.999695,252.662766   C326.241699,252.577118 327.415497,253.917694 327.366241,257.105225   C327.237457,265.436127 327.223755,273.771698 327.355530,282.102386   C327.407867,285.408020 326.005463,286.463959 322.871338,286.416260   C315.040253,286.296997 307.190674,286.679443 299.378693,286.275909   C294.217682,286.009277 292.798370,287.919830 292.831238,292.841949   C293.026093,322.005371 293.023315,351.170502 292.986572,380.334930   C292.948975,410.160553 293.552002,439.990814 292.505096,469.809387   C292.377930,473.430847 293.553192,474.721802 297.330780,474.774048   C312.144165,474.978882 312.224640,475.119476 314.826538,461.509949   C322.042267,423.767578 337.674225,390.003082 362.409241,360.533508   C390.694397,326.834259 426.409821,305.290436 469.239105,295.475037   C476.618561,293.783813 476.662292,293.898499 476.663330,286.408600   C476.670441,236.244568 476.672699,186.080521 476.667480,135.916489   C476.666748,129.047745 476.639160,129.011902 469.695618,128.997620   C444.375183,128.945511 419.054657,128.925110 393.734253,128.869965   C389.409729,128.860550 385.084442,128.651108 380.761414,128.700089   C377.746643,128.734238 376.658569,127.378654 376.672760,124.451248   C376.743042,109.952400 376.810883,95.451889 376.647705,80.954575   C376.599548,76.677010 379.063202,76.592270 382.127777,76.598526   C398.293518,76.631523 414.459381,76.604637 430.625183,76.605904   C500.288177,76.611351 569.951172,76.616882 639.614197,76.629990   C647.335571,76.631439 647.343262,76.653961 647.346375,84.142403   C647.351685,96.808411 647.085144,109.482422 647.473511,122.136482   C647.629639,127.223259 645.984863,128.774506 641.093811,128.764496   C613.431335,128.707886 585.768616,128.905899 558.105835,128.928650   C547.980164,128.936981 547.928101,128.826218 547.926636,138.821762   C547.920166,183.485794 547.957153,228.149841 547.944641,272.813873   C547.943176,277.970032 547.770752,283.127411 547.602722,288.281799   C547.476257,292.163422 549.502075,293.943298 553.136047,294.523682   C572.561646,297.626160 590.837463,304.301361 608.304199,313.102997   C637.762695,327.947449 662.966431,348.036530 682.432922,374.915833   C686.141785,380.037048 686.014282,380.072144 680.509644,383.418701   C669.406250,390.169006 658.254883,396.846069 647.293762,403.821198   C644.113770,405.844818 642.504944,405.178009 640.386536,402.416718   C618.454712,373.829041 589.994324,354.847015 555.363708,345.048431   C548.632874,343.143982 547.350037,344.023956 547.385742,351.145935   C547.451782,364.306335 547.883362,377.466217 547.852661,390.625580   C547.792358,416.451965 547.621094,442.279266 547.245056,468.102570   C547.173706,473.003998 548.475159,474.796661 553.663818,474.782623   C610.993713,474.627533 668.324341,474.636658 725.654297,474.791046   C730.591125,474.804352 731.825378,473.098145 731.820984,468.435028   C731.784363,429.437714 731.912048,390.439941 732.091797,351.442780   C732.180176,332.282837 732.512573,313.124176 732.673889,293.964417   C732.729919,287.307373 731.841614,286.443787 725.248474,286.401154   C717.915833,286.353729 710.578857,286.256287 703.251282,286.456055   C699.443787,286.559875 697.753052,285.243835 697.820679,281.316376   C697.955444,273.486176 697.939087,265.650299 697.805969,257.819824   C697.739990,253.943253 699.354736,252.627533 703.202759,252.637527   C741.867126,252.738037 780.532043,252.743454 819.196411,252.648209   C823.065674,252.638672 824.526855,253.862595 824.409851,257.826447   C824.173706,265.819031 824.220276,273.826019 824.391541,281.821869   C824.466797,285.338013 823.093689,286.482239 819.685425,286.410156   C812.022705,286.248016 804.354004,286.368317 796.687744,286.381744   C789.387451,286.394531 789.349548,286.399017 789.350708,293.925262   C789.357788,340.922791 789.390991,387.920288 789.397034,434.917816   C789.398499,446.417053 789.440430,457.918274 789.233215,469.414398   C789.164246,473.238068 790.374207,474.793304 794.354614,474.758453   C810.519104,474.616791 826.686890,474.592438 842.850586,474.776642   C846.956604,474.823425 847.952454,473.122589 847.927368,469.420776   C847.805359,451.422485 847.844482,433.423096 847.839172,415.424072   C847.837219,408.728302 847.859131,408.707611 854.475525,408.699921   C867.808167,408.684418 881.142578,408.808716 894.472290,408.608002   C898.603149,408.545837 900.025024,409.988251 900.019592,414.083191   C899.940857,473.579926 899.948792,533.076782 900.015869,592.573547   C900.019836,596.076172 899.087646,597.678040 895.242432,597.654602   C880.754333,597.566101 866.264526,597.742126 851.775391,597.822266   C847.864868,597.843933 847.821899,595.168274 847.827576,592.324402   C847.862610,574.825317 847.859070,557.326294 847.864624,539.827209   C847.867004,532.344482 847.862854,532.331726 840.426636,532.327698   C825.760742,532.319702 811.094788,532.307678 796.428955,532.337219   C789.693115,532.350769 789.200623,532.854126 789.194641,539.332092   C789.142395,595.995483 789.093811,652.658813 789.052246,709.322205   C789.046936,716.562134 789.167236,716.661438 796.169434,716.663757   C804.002319,716.666321 811.837097,716.774353 819.667297,716.631409   C823.047058,716.569641 824.464233,717.701965 824.389771,721.238098   C824.217896,729.400574 824.235046,737.571472 824.397583,745.734558   C824.467407,749.239502 823.064575,750.361572 819.668884,750.355530   C780.671082,750.286255 741.672974,750.291992 702.675171,750.359375   C699.262939,750.365234 697.812866,749.032776 697.842224,745.660461   C697.913330,737.495117 697.934204,729.328308 697.854614,721.163208   C697.820312,717.642822 699.518066,716.573792 702.813416,716.634521   C710.143799,716.769531 717.478577,716.685669 724.811462,716.663086   C730.907410,716.644226 731.633423,715.974792 731.579285,709.724548   C731.510010,701.730469 731.150940,693.738037 731.138611,685.744507   C731.084167,650.579834 731.066956,615.414978 731.128357,580.250305   C731.151306,567.094238 731.495544,553.938904 731.557800,540.782654   C731.595825,532.765015 731.046692,532.327271 723.094116,532.327271   C667.263733,532.326904 611.433289,532.327698 555.602905,532.332581   C547.939453,532.333252 547.377441,532.891602 547.372925,540.572327   C547.350037,579.403320 547.330750,618.234253 547.323730,657.065247   C547.322510,664.013672 548.212280,664.659424 554.852844,662.922546   C589.105713,653.964050 617.096191,635.470642 638.648193,607.426941   C641.911011,603.181335 644.246948,602.895691 648.690063,605.748840   C659.056213,612.405579 669.838745,618.413940 680.452087,624.685669   C681.732727,625.442383 683.158020,626.031677 683.896179,627.769836   C682.142334,632.173584 678.958557,635.852295 675.979614,639.575378   C643.937317,679.622192 602.530029,704.043396 552.133911,713.171021   C548.235962,713.877075 547.226624,715.418030 547.231140,719.010376   C547.294128,769.007690 547.307068,819.005066 547.195251,869.002197   C547.185852,873.199463 548.796448,874.604736 552.762756,874.591919   C582.426208,874.495728 612.091003,874.599792 641.752686,874.340027   C646.296936,874.300293 647.485840,875.688477 647.420044,879.972290   C647.215393,893.301819 647.351562,906.636353 647.337097,919.968994   C647.329529,926.911499 647.312073,926.953430 640.463318,926.958435   C613.298096,926.978394 586.132874,926.971313 558.967651,926.971619   C521.811768,926.972046 484.655884,926.970093 447.000000,926.969116  M414.500061,532.325989   C399.683167,532.328552 384.866302,532.334473 370.049408,532.332520   C358.177734,532.330994 357.859619,532.410645 360.893463,543.915466   C376.375092,602.624390 411.646667,643.136292 470.192047,662.047607   C476.523315,664.092712 476.652405,663.983582 476.654449,657.441528   C476.666595,618.484924 476.662933,579.528320 476.657471,540.571716   C476.656403,532.931091 476.118958,532.354126 468.441101,532.339294   C450.794159,532.305176 433.147095,532.327209 414.500061,532.325989  M409.282318,380.783447   C383.670776,404.762695 367.927216,434.285492 360.271942,468.303314   C358.905243,474.376678 359.255920,474.667023 365.260468,474.670929   C400.077209,474.693604 434.893921,474.691742 469.710663,474.667480   C476.197083,474.662994 476.651825,474.204865 476.654327,467.947632   C476.669891,429.299377 476.671722,390.651093 476.652863,352.002838   C476.649445,345.031677 475.661926,344.345062 469.079407,346.322784   C446.682343,353.051971 426.990387,364.486786 409.282318,380.783447  z"/>
</svg>