<svg version="1.1" id="Layer_1" xmlns="http://www.w3.org/2000/svg" xmlns:xlink="http://www.w3.org/1999/xlink" x="0px" y="0px"
	 width="100%" viewBox="0 0 1024 1024" enable-background="new 0 0 1024 1024" xml:space="preserve">
<path fill="#000000" opacity="1.000000" stroke="none" 
	d="
M401.070557,625.287476 
	C401.278076,621.658203 401.575317,618.502625 401.621155,615.343445 
	C402.102020,582.199036 402.314636,549.048584 403.099792,515.911682 
	C403.443115,501.422333 403.551849,486.935455 403.781067,472.447632 
	C403.907410,464.463623 406.009552,462.191376 413.773560,461.981201 
	C430.588013,461.526062 447.404541,461.133636 464.222229,460.822052 
	C470.742279,460.701263 472.181488,462.113281 472.130737,468.739014 
	C471.769501,515.882812 471.643890,563.031616 470.793762,610.167114 
	C470.400238,631.986389 470.623596,653.811340 469.937042,675.622742 
	C468.710327,714.595337 469.706421,753.586975 468.896027,792.561035 
	C467.669891,851.528564 468.591309,910.508362 467.757507,969.477600 
	C467.738770,970.801819 467.993683,972.127808 468.062500,973.455933 
	C468.194031,975.993835 467.564178,978.231995 464.809723,978.928101 
	C462.070404,979.620361 460.960449,977.508789 460.007202,975.525452 
	C455.606842,966.369873 451.255615,957.190674 446.881073,948.022705 
	C432.755157,918.417908 418.810303,888.724609 404.393280,859.262268 
	C399.747070,849.767334 397.275604,840.317871 397.531799,829.607117 
	C398.667023,782.149841 398.990417,734.673035 400.161682,687.216919 
	C400.667358,666.728760 400.371765,646.238770 401.070557,625.287476 
z"/>
<path fill="#000000" opacity="1.000000" stroke="none" 
	d="
M650.786621,763.642578 
	C639.266907,782.007751 621.358521,789.396729 601.763428,793.916016 
	C581.920593,798.492432 561.877136,801.612427 541.425781,800.247437 
	C527.566345,799.322449 513.889832,797.279541 502.103241,789.067505 
	C489.968597,780.613098 484.302551,768.122009 481.845093,754.145996 
	C476.650879,724.605103 488.246399,699.769836 514.551880,685.395142 
	C527.205627,678.480469 541.548218,676.078308 555.710388,673.855286 
	C575.812256,670.699951 595.818359,671.575439 615.747375,675.634827 
	C639.886475,680.551880 657.294006,700.644470 659.489685,725.088745 
	C660.735779,738.963074 657.755920,751.461304 650.786621,763.642578 
M573.109497,754.648132 
	C575.406311,754.296448 577.707275,753.969849 579.999207,753.588745 
	C588.883911,752.111328 597.692749,750.340454 605.367371,745.242249 
	C614.850586,738.942749 614.808777,728.704468 605.292236,722.530334 
	C602.350708,720.621887 599.140442,719.194153 595.710999,718.410034 
	C579.770752,714.765686 564.052002,715.843079 548.528870,720.747620 
	C543.192383,722.433655 538.579224,725.388306 534.545959,729.170715 
	C526.109619,737.082581 528.047485,747.271667 538.785339,751.718018 
	C540.768738,752.539368 542.871826,753.124268 544.967773,753.611877 
	C553.971252,755.706299 563.070435,755.719299 573.109497,754.648132 
z"/>
<path fill="#000000" opacity="1.000000" stroke="none" 
	d="
M650.052734,622.811523 
	C649.150757,629.046387 649.560730,634.912781 648.312683,640.659180 
	C645.530090,653.471741 637.855652,661.688416 625.300964,665.051025 
	C612.278809,668.538757 599.015686,669.040222 585.687744,666.943970 
	C575.830444,665.393555 567.350586,661.073120 560.331299,653.963623 
	C558.593201,652.203125 556.859802,650.372253 554.639404,653.153442 
	C540.654236,670.670776 520.408325,675.142700 500.067993,679.427612 
	C497.462769,679.976440 494.852875,680.547302 492.217163,680.897705 
	C487.034790,681.586609 484.086151,679.330322 484.019867,674.067749 
	C483.875031,662.572021 484.027100,651.072021 484.117950,639.574280 
	C484.155609,634.812866 486.490845,631.818787 491.177338,630.550415 
	C499.368164,628.333740 507.534668,626.024170 515.685364,623.663696 
	C520.819275,622.177002 525.950867,620.564148 529.746338,616.486938 
	C531.226318,614.897217 532.828674,612.829895 532.087402,610.716675 
	C531.168701,608.097229 528.373230,609.067810 526.353760,609.178406 
	C514.883667,609.806458 503.427673,610.715210 491.953644,611.238098 
	C485.043762,611.553040 483.805969,610.151672 483.791046,603.192322 
	C483.767517,592.193604 483.774628,581.194458 483.858795,570.196167 
	C483.909271,563.598633 485.528412,561.952881 492.177246,561.841492 
	C516.497559,561.433899 540.817993,560.962036 565.140381,560.770569 
	C587.964294,560.590820 610.774658,560.157776 633.570557,558.968750 
	C643.004333,558.476685 644.501099,559.719299 646.103027,569.648682 
	C648.917114,587.091125 650.615723,604.631653 650.052734,622.811523 
M612.291260,607.348816 
	C611.250183,603.464050 608.543640,602.110229 604.761047,602.399292 
	C596.155212,603.056702 587.546082,603.675781 578.945801,604.399475 
	C576.182068,604.632019 574.210083,605.787964 574.400391,609.099976 
	C574.706116,614.420227 578.116577,619.088806 583.290649,620.557129 
	C589.969055,622.452271 596.735718,622.587097 603.458801,620.717773 
	C610.734619,618.694763 612.795166,615.756348 612.291260,607.348816 
z"/>
<path fill="#000000" opacity="1.000000" stroke="none" 
	d="
M424.526184,287.560181 
	C420.740021,286.123199 417.355103,284.706696 413.882355,283.555084 
	C409.074036,281.960571 406.971313,278.579956 407.059326,273.716766 
	C407.451050,252.069489 407.882019,230.422897 408.314972,208.776382 
	C408.364868,206.280380 408.578186,203.787216 408.610260,201.291367 
	C409.059784,166.313477 409.462891,131.334976 409.946320,96.357559 
	C410.065918,87.701126 410.516876,79.049408 410.649139,70.392975 
	C410.719025,65.821091 412.604858,62.792694 417.011108,61.373802 
	C434.750732,55.661293 452.487610,49.940235 470.217041,44.196201 
	C474.282318,42.879128 475.897888,44.854080 475.970734,48.549561 
	C476.075745,53.877827 476.058533,59.213078 475.920258,64.540848 
	C474.640656,113.842987 475.895844,163.165146 474.821014,212.464096 
	C474.221741,239.951126 474.578369,267.434357 474.257843,294.917389 
	C474.244263,296.082916 474.254059,297.256073 474.126190,298.411652 
	C473.535217,303.752472 471.609955,305.251648 466.466797,303.381104 
	C452.547272,298.318695 438.740021,292.947540 424.526184,287.560181 
z"/>
<path fill="#000000" opacity="1.000000" stroke="none" 
	d="
M369.778748,324.192017 
	C370.167389,314.147034 371.453644,313.082916 380.922668,312.578156 
	C390.579529,312.063354 400.229553,311.795685 409.876190,312.331543 
	C416.785828,312.715363 418.457397,314.372070 417.968506,321.342133 
	C417.221771,331.988312 417.369202,342.643829 416.970428,353.289825 
	C416.409668,368.259277 415.842560,383.228729 415.364227,398.200958 
	C414.875183,413.508423 414.547668,428.821198 414.038971,444.127960 
	C413.710785,454.002899 412.346588,455.176819 402.472626,455.298065 
	C392.984100,455.414551 383.496796,455.638367 374.009430,455.836334 
	C367.098724,455.980499 364.412354,453.756775 365.073730,447.105499 
	C366.162659,436.154205 364.748199,425.112549 366.607178,414.206390 
	C367.195374,410.755524 366.544708,407.892029 362.209381,407.322784 
	C355.847198,406.487305 352.610931,407.765564 351.698212,412.102020 
	C351.224915,414.350769 351.365356,416.735016 351.289673,419.060059 
	C350.959320,429.209015 350.610077,439.357727 350.355042,449.508698 
	C350.247009,453.807861 348.032532,456.069641 343.900055,456.169037 
	C330.417847,456.493256 316.932343,456.696991 303.447174,456.876190 
	C298.645752,456.940033 296.528076,454.380066 296.730103,449.636475 
	C297.508881,431.349915 298.148132,413.056915 299.023468,394.775116 
	C299.779327,378.989624 300.879120,363.220612 301.644470,347.435455 
	C302.095673,338.129944 303.059296,328.844666 302.772369,319.502625 
	C302.632263,314.940369 305.154907,312.855591 309.622223,312.862701 
	C322.447144,312.883057 335.272949,312.793365 348.096680,312.920959 
	C353.560242,312.975311 355.804962,315.210358 355.171906,320.818695 
	C354.046234,330.790802 354.534210,340.778503 354.167236,350.752716 
	C354.031982,354.428497 352.822662,358.731140 359.145599,358.827789 
	C367.691956,358.958466 368.457428,358.522705 369.121735,351.624817 
	C369.986359,342.647369 369.517609,333.649933 369.778748,324.192017 
z"/>
<path fill="#000000" opacity="1.000000" stroke="none" 
	d="
M548.542480,990.809326 
	C537.955872,993.688293 527.565979,995.371704 517.045593,994.045898 
	C498.790161,991.745300 486.985748,980.542053 482.052551,961.770325 
	C477.757751,945.427917 479.442963,929.396362 484.699646,913.649536 
	C487.850189,904.211853 492.555878,901.758606 502.248688,903.218323 
	C512.810303,904.808899 523.455322,905.048401 534.120789,904.991943 
	C542.308960,904.948547 544.036255,907.883362 540.166077,915.206299 
	C537.363159,920.509766 534.408325,925.677429 533.799438,931.856506 
	C533.105408,938.899597 537.768433,942.703979 544.361511,940.044128 
	C550.738708,937.471375 555.472656,932.744324 559.504089,927.368774 
	C565.096863,919.911438 570.485718,912.300415 575.921936,904.726501 
	C590.015503,885.090698 614.952454,876.766357 637.918274,884.340820 
	C654.042053,889.658630 662.961670,901.572327 666.018494,917.732178 
	C668.840088,932.648193 667.719055,947.529541 663.347595,962.161255 
	C661.700684,967.673523 658.307800,970.479675 652.720215,971.114075 
	C639.503662,972.614929 626.301086,974.239014 613.084473,975.738953 
	C607.400818,976.383911 604.459045,972.589050 606.885986,967.331238 
	C609.602600,961.446045 612.907532,955.833984 615.903503,950.075562 
	C617.446899,947.109009 618.746155,944.019836 618.787781,940.610107 
	C618.847717,935.704102 615.468323,933.169922 610.836792,934.822876 
	C604.898376,936.942261 599.967346,940.616150 596.112366,945.599854 
	C591.020935,952.182190 586.017822,958.826111 581.587708,965.895813 
	C573.845276,978.251343 562.919861,986.511292 548.542480,990.809326 
z"/>
<path fill="#000000" opacity="1.000000" stroke="none" 
	d="
M566.866577,887.938354 
	C547.860840,900.540039 527.727051,901.312439 507.331543,894.010437 
	C489.367065,887.578674 482.707458,872.720398 481.825256,854.754456 
	C481.045044,838.865967 484.835114,823.726807 490.076050,808.890198 
	C491.418488,805.089844 494.250610,803.170959 498.224274,803.867615 
	C511.442108,806.184753 524.774780,805.527466 538.078918,805.695984 
	C546.152954,805.798279 547.767029,808.347534 544.203125,815.500916 
	C540.872314,822.186584 536.480896,828.403809 534.966675,835.887329 
	C534.081238,840.263123 532.554077,845.241028 536.871765,848.396545 
	C541.549866,851.815674 545.711670,848.243530 549.597900,845.780945 
	C553.750610,843.149536 556.495361,839.077698 559.564392,835.358521 
	C565.391113,828.297913 570.971863,821.015747 577.092773,814.220154 
	C592.200623,797.446716 616.696106,791.654236 637.886963,799.420349 
	C646.321533,802.511353 652.250122,808.037720 655.868103,816.326355 
	C662.272156,830.997986 664.096558,846.043945 660.269531,861.657043 
	C658.294312,869.715698 653.632263,873.802917 645.534668,874.042175 
	C636.050171,874.322510 626.550049,874.355591 617.062927,874.172546 
	C610.002380,874.036316 608.624390,871.492554 611.398193,864.972290 
	C612.829468,861.607910 614.345764,858.242249 615.336792,854.739502 
	C616.166992,851.804932 616.052612,848.676147 613.269775,846.533875 
	C610.440979,844.356384 607.524841,845.258423 604.869019,846.870483 
	C598.152283,850.947144 593.769531,857.364441 589.087708,863.375732 
	C582.348755,872.028198 576.544067,881.472900 566.866577,887.938354 
z"/>
<path fill="#000000" opacity="1.000000" stroke="none" 
	d="
M785.286377,339.979797 
	C787.171875,362.466064 789.005066,384.497192 790.932312,406.520111 
	C791.604248,414.199249 791.483276,421.832123 789.856628,429.366211 
	C787.623840,439.707794 780.952515,446.318298 770.265503,447.079376 
	C743.862549,448.959656 717.412903,450.458466 690.951965,447.992310 
	C683.347290,447.283569 681.953491,445.186157 683.664185,437.937073 
	C685.688171,429.360077 687.670593,420.769775 689.914185,412.249237 
	C691.609070,405.812592 693.552856,404.727966 700.101074,406.429474 
	C710.557617,409.146545 721.193604,409.282562 731.843994,408.720795 
	C737.981750,408.397095 743.519775,406.110138 747.802673,401.468903 
	C749.184143,399.971802 750.366882,398.079010 749.279724,396.036896 
	C747.960632,393.559143 745.770447,394.898254 743.952881,395.429657 
	C734.483826,398.197998 724.983398,400.689728 714.997925,398.658569 
	C700.732483,395.756744 694.051880,386.782990 695.079285,372.196899 
	C696.201782,356.259125 697.140259,340.312622 696.963989,324.320892 
	C696.869873,315.782532 698.214417,314.407379 706.771301,313.418365 
	C713.091248,312.687927 719.418152,312.886200 725.730530,313.206665 
	C732.668335,313.558899 734.171082,315.168335 734.254028,322.055420 
	C734.366211,331.381012 734.293518,340.708740 734.316833,350.035522 
	C734.325562,353.511841 733.651245,357.375214 738.950073,357.746216 
	C743.690002,358.078094 746.781799,355.755157 747.611572,350.729248 
	C748.798462,343.540344 746.977234,336.479614 746.414856,329.367279 
	C746.205383,326.718475 745.796875,324.084808 745.458069,321.446930 
	C744.644958,315.116974 746.180725,313.160370 752.413086,312.849670 
	C759.725769,312.485046 767.040466,312.108185 774.359009,311.930573 
	C780.332886,311.785553 782.524780,313.775360 783.200500,319.685333 
	C783.955688,326.289948 784.586243,332.908813 785.286377,339.979797 
z"/>
<path fill="#000000" opacity="1.000000" stroke="none" 
	d="
M591.455078,293.423706 
	C591.159302,286.476288 590.932434,279.987854 590.666992,273.501038 
	C590.565002,271.008484 590.460327,268.510651 590.201904,266.031342 
	C589.928040,263.403351 589.288208,260.891846 585.777039,261.319702 
	C582.694153,261.695374 582.307983,264.036560 582.371765,266.511444 
	C582.646240,277.165070 583.045715,287.816223 583.228455,298.471222 
	C583.341431,305.060883 581.993103,306.297791 575.322937,306.312927 
	C566.493469,306.332916 557.662842,306.198639 548.834839,306.305603 
	C544.144775,306.362396 541.736145,304.507538 541.515076,299.622681 
	C541.048706,289.316254 540.348267,279.020416 539.748840,268.719971 
	C539.710205,268.055115 539.702942,267.387848 539.699524,266.721619 
	C539.684082,263.720337 539.371399,260.577942 535.504517,260.640472 
	C531.722412,260.701630 531.945496,263.953613 531.955688,266.622009 
	C531.993774,276.617371 532.107910,286.612366 532.165222,296.607697 
	C532.216675,305.582977 531.429382,306.379120 522.623535,306.378693 
	C511.794922,306.378174 500.965973,306.412567 490.137817,306.338348 
	C483.976959,306.296143 481.911865,304.442963 481.949280,298.292084 
	C482.091125,274.974121 482.447388,251.657532 482.647095,228.339767 
	C482.684875,223.929749 484.997498,222.661469 488.999939,222.643188 
	C500.830383,222.589172 512.636353,223.412567 524.448975,223.588043 
	C550.432617,223.974030 576.424072,223.830368 602.412354,223.906830 
	C609.573059,223.927887 616.728149,223.917374 623.879089,224.545975 
	C629.869263,225.072525 631.171021,226.184418 631.291443,232.103775 
	C631.650391,249.753250 631.935059,267.404327 632.332886,285.052856 
	C632.445312,290.040771 632.927429,295.019470 633.090271,300.007294 
	C633.230042,304.289856 631.166626,306.439972 626.716309,306.379364 
	C617.888245,306.259094 609.057739,306.325409 600.228638,306.264648 
	C593.036865,306.215179 591.795044,304.969269 591.627930,297.879425 
	C591.596497,296.547211 591.548828,295.215363 591.455078,293.423706 
z"/>
<path fill="#000000" opacity="1.000000" stroke="none" 
	d="
M555.436646,505.421753 
	C550.674377,506.629944 546.229431,507.481018 542.031921,509.010803 
	C535.922058,511.237518 533.994263,515.716492 536.271667,521.775024 
	C539.066345,529.209412 543.325867,535.712585 549.297852,541.023621 
	C551.429932,542.919617 553.955688,544.803589 552.840698,548.087280 
	C551.711365,551.413208 548.583374,551.292603 545.706970,551.382751 
	C528.401001,551.925293 511.098541,552.622925 493.789001,552.993042 
	C485.457062,553.171265 484.205414,552.068115 483.193909,543.961060 
	C481.310364,528.864990 480.820282,513.773560 484.792877,498.859467 
	C489.116028,482.629364 498.415894,471.082153 514.834534,465.622772 
	C543.945435,455.943085 573.417358,453.518890 603.347534,460.877319 
	C614.377747,463.589172 625.174988,467.294067 633.095276,476.195404 
	C641.461121,485.597534 645.763550,496.872589 647.157898,509.197235 
	C648.282471,519.137878 647.947754,529.126343 646.281921,539.028259 
	C644.955261,546.913879 641.519958,550.027161 633.483032,550.144775 
	C620.657898,550.332581 607.829712,550.388123 595.003113,550.368469 
	C588.037720,550.357788 586.520630,547.548096 589.743042,541.163330 
	C593.114136,534.483948 597.511414,528.332397 599.956787,521.175842 
	C602.672363,513.228577 601.097168,509.886963 592.939026,507.469482 
	C580.770447,503.863617 568.375366,503.380310 555.436646,505.421753 
z"/>
<path fill="#000000" opacity="1.000000" stroke="none" 
	d="
M501.678650,428.820831 
	C502.830261,408.220856 506.279114,388.401184 510.069824,368.648926 
	C513.046204,353.139709 516.446106,337.710846 519.742310,322.264282 
	C521.270813,315.101196 522.628540,313.952148 529.843567,313.908508 
	C542.838745,313.829895 555.836243,313.803802 568.830261,313.961456 
	C577.144836,314.062286 578.863892,315.323395 581.339417,323.328186 
	C593.533264,362.757904 604.230225,402.572021 611.485107,443.243011 
	C612.464783,448.735168 611.196472,450.113586 605.570984,450.231171 
	C595.412292,450.443542 585.251099,450.533844 575.091492,450.705139 
	C570.419800,450.783875 568.069763,448.564758 567.666626,443.879578 
	C567.225037,438.747711 566.370544,433.651825 565.906921,428.521240 
	C565.564453,424.730927 563.457642,423.315826 559.945312,423.325745 
	C556.946289,423.334229 553.946960,423.288422 550.948364,423.323608 
	C545.308960,423.389740 544.388672,424.292053 544.382263,430.135559 
	C544.377319,434.629761 544.484741,439.127625 544.681824,443.617737 
	C544.980713,450.427765 543.028503,452.788971 536.146912,452.972290 
	C526.654480,453.225220 517.155273,453.300354 507.658997,453.301758 
	C502.701691,453.302521 500.728058,451.352844 500.786072,446.238861 
	C500.850250,440.585968 501.356934,434.938110 501.678650,428.820831 
M557.620483,378.678986 
	C555.666199,371.189392 555.571350,363.174591 551.277222,354.862946 
	C547.657837,365.256744 545.794922,374.498993 546.379944,384.164642 
	C546.510071,386.314209 547.847229,387.304626 549.921265,387.625732 
	C556.439514,388.635010 558.917542,386.077393 557.620483,378.678986 
z"/>
<path fill="#000000" opacity="1.000000" stroke="none" 
	d="
M554.248413,58.659889 
	C558.962463,59.979725 563.269043,61.258968 567.601990,62.441448 
	C570.852844,63.328644 572.535950,62.401505 572.718689,58.631924 
	C573.283325,46.984337 573.413513,46.749401 584.787598,47.768311 
	C595.377014,48.716927 605.912170,50.266048 616.474670,51.521587 
	C621.079468,52.068958 622.975769,54.824989 623.341492,59.243179 
	C625.402222,84.136688 625.106934,109.120979 626.309753,134.046494 
	C626.590332,139.861649 627.034668,145.674576 627.109863,151.492325 
	C627.182190,157.093979 625.230591,159.159363 619.624207,159.079620 
	C608.474731,158.921036 597.323975,158.574844 586.185242,158.058517 
	C580.200806,157.781097 578.143433,155.584641 578.143921,149.542389 
	C578.144714,139.890671 578.550476,130.239609 578.618713,120.587105 
	C578.685974,111.071335 576.672729,108.725555 567.237732,107.986534 
	C549.100342,106.565910 530.984436,108.263969 512.864929,108.800186 
	C505.056183,109.031273 497.270386,109.963249 489.462524,110.323387 
	C483.293640,110.607933 481.067596,108.734940 481.024445,102.614998 
	C480.922272,88.132439 481.164978,73.647125 481.311218,59.163361 
	C481.349854,55.336563 481.448181,51.505188 481.691772,47.686932 
	C482.007050,42.745724 484.484039,40.568413 489.474304,40.708218 
	C493.528168,40.821789 497.265686,42.376797 501.093475,43.464397 
	C518.690491,48.464344 536.267761,53.533447 554.248413,58.659889 
z"/>
<path fill="#000000" opacity="1.000000" stroke="none" 
	d="
M549.854492,118.838226 
	C553.153870,119.114410 555.967407,119.457886 558.791382,119.615997 
	C567.793823,120.120049 568.090942,120.138977 568.854553,128.880966 
	C569.535034,136.669754 569.631348,144.509018 570.012512,152.324707 
	C570.217468,156.526199 568.406433,158.479599 564.064575,158.219238 
	C561.080383,158.040268 558.063293,158.184799 555.073914,158.382172 
	C552.210815,158.571228 550.500427,160.080185 550.339172,163.135605 
	C550.176697,166.213547 551.894287,167.793686 554.578125,168.430222 
	C556.009399,168.769653 557.557190,168.686432 559.051819,168.679581 
	C579.877991,168.584259 600.698181,168.658356 621.512939,169.595886 
	C626.109802,169.802948 627.804260,171.641205 628.436523,176.125595 
	C629.909546,186.572586 628.996765,197.085159 629.873657,207.544693 
	C630.396423,213.781311 628.581238,215.348801 622.421265,215.296021 
	C578.436829,214.919205 534.461365,213.633667 490.467987,214.079880 
	C484.099304,214.144470 482.617432,212.395111 482.615021,205.950943 
	C482.611267,195.952988 482.615356,185.954605 482.703278,175.957169 
	C482.749573,170.692337 484.304138,168.987183 489.551025,168.978851 
	C495.040039,168.970108 500.527954,169.492905 506.019836,169.595230 
	C509.358704,169.657440 512.757751,169.074142 512.694458,164.723801 
	C512.633362,160.519058 509.091034,160.530685 506.114471,160.326920 
	C500.302704,159.929092 494.477936,159.724350 488.664398,159.348419 
	C484.106781,159.053696 481.694122,156.664627 481.710205,151.956299 
	C481.739227,143.458130 481.816956,134.957596 481.652740,126.462318 
	C481.559540,121.641380 483.859863,119.182205 488.433716,119.069054 
	C501.582031,118.743797 514.734619,118.528763 527.886658,118.438683 
	C535.047729,118.389633 542.211182,118.682182 549.854492,118.838226 
z"/>
<path fill="#000000" opacity="1.000000" stroke="none" 
	d="
M635.403076,342.728333 
	C637.935913,355.508881 640.418884,367.866058 643.042358,380.922272 
	C646.660217,377.435181 645.997559,373.353851 646.430176,369.915405 
	C648.441772,353.927277 650.038147,337.886444 651.733459,321.859192 
	C652.421265,315.357239 654.762939,313.002686 661.310791,312.924500 
	C669.469543,312.827057 677.631897,312.829803 685.790222,312.952423 
	C691.400330,313.036713 693.348267,314.962250 693.231262,320.598053 
	C692.968445,333.263092 690.772644,345.743896 689.146423,358.265900 
	C685.696960,384.826172 680.646179,411.101135 674.256531,437.114441 
	C673.820496,438.889771 673.209961,440.625092 672.830383,442.410858 
	C671.921875,446.684753 669.364258,448.344025 664.997253,448.379333 
	C654.678406,448.462677 644.358826,448.808441 634.046936,449.229553 
	C629.256409,449.425171 626.338623,447.508820 624.366516,443.085297 
	C617.492004,427.664978 613.115662,411.433167 608.537354,395.274048 
	C601.736694,371.270905 594.731873,347.317749 589.359436,322.933899 
	C587.761719,315.682251 588.837952,313.717957 596.315002,313.277130 
	C604.776367,312.778320 613.291809,312.875610 621.771606,313.124695 
	C627.098511,313.281189 630.209045,316.530334 631.234192,321.785706 
	C632.569946,328.632721 633.976990,335.465881 635.403076,342.728333 
z"/>
<path fill="#000000" opacity="1.000000" stroke="none" 
	d="
M496.567139,312.959534 
	C503.418610,314.062347 504.401215,315.042358 504.256683,321.380524 
	C504.086029,328.867188 503.497589,336.345367 503.378571,343.831818 
	C503.304688,348.479889 501.015472,350.603729 496.668274,350.699677 
	C488.509308,350.879761 480.346649,350.886841 472.185883,350.991791 
	C464.747711,351.087433 462.552521,354.089996 464.362671,361.421173 
	C465.091461,364.372894 467.216431,364.835876 469.692657,364.770477 
	C476.183319,364.599091 482.681244,364.517975 489.160278,364.132416 
	C498.714172,363.563873 500.517639,365.046814 500.274170,374.424866 
	C500.123077,380.243652 499.598511,386.051849 499.314789,391.868378 
	C499.092712,396.421539 496.386505,398.480469 492.222565,398.653625 
	C484.737244,398.965027 477.241241,399.034058 469.748932,399.159668 
	C462.934631,399.273895 460.254456,403.092407 462.543121,409.641174 
	C463.587524,412.629639 466.037262,412.940521 468.695404,412.396942 
	C475.140076,411.078979 481.648254,411.816498 488.127960,411.736633 
	C492.471680,411.683105 494.361145,414.020111 494.368530,418.339569 
	C494.384186,427.508636 493.949860,436.650177 493.191711,445.783112 
	C492.847687,449.927368 490.754913,452.137177 486.505432,452.287170 
	C467.203613,452.968292 447.905151,453.753143 428.600800,454.348267 
	C422.661407,454.531342 421.248810,452.821350 421.421936,446.949066 
	C422.211884,420.153900 422.746918,393.348358 423.857086,366.566589 
	C424.443481,352.419891 424.594208,338.270599 425.069702,324.126678 
	C425.397797,314.367126 426.991516,312.846130 436.641541,312.850098 
	C456.465973,312.858185 476.290405,312.910645 496.567139,312.959534 
z"/>
<path fill="#000000" opacity="1.000000" stroke="none" 
	d="
M248.659332,415.351898 
	C246.774841,413.678009 245.207352,412.177582 243.531281,410.810333 
	C239.764786,407.737762 238.271072,403.978333 238.532257,398.992737 
	C240.037933,370.252136 242.471741,341.579712 244.529465,312.879700 
	C244.933975,307.237701 244.726089,301.542206 245.318039,295.925903 
	C245.910248,290.307068 248.369736,288.882019 253.519043,291.334381 
	C265.541473,297.060028 277.404327,303.121124 289.322144,309.065704 
	C292.126801,310.464722 293.497986,312.719666 293.355072,315.919922 
	C292.515961,334.708069 291.718658,353.498077 290.884735,372.286469 
	C290.390472,383.423218 289.786560,394.555481 289.356689,405.694580 
	C288.913727,417.172180 288.609039,428.655273 288.275726,440.136871 
	C288.210724,442.375885 288.046570,444.575653 285.760712,445.708984 
	C283.241241,446.958160 281.748779,445.048248 280.156067,443.619385 
	C269.743561,434.278015 259.336121,424.930969 248.659332,415.351898 
z"/>
<path fill="#000000" opacity="1.000000" stroke="none" 
	d="
M420.426453,293.443665 
	C430.365967,297.404144 440.525421,299.729675 450.011841,304.212830 
	C448.435272,307.002808 446.404083,306.308319 444.706512,306.308899 
	C400.259979,306.324188 355.813324,306.237915 311.366943,306.311096 
	C298.788940,306.331787 287.953888,300.412598 276.459045,296.718414 
	C273.137787,295.651001 269.865967,294.415253 266.620331,293.132996 
	C264.839386,292.429413 262.648743,292.148956 261.971802,289.449097 
	C263.634125,287.847290 265.855835,288.081390 267.894135,288.133301 
	C312.164154,289.260254 356.443268,288.355103 400.715881,288.771881 
	C407.484039,288.835602 413.782623,291.052734 420.426453,293.443665 
z"/>
<path fill="#000000" opacity="1.000000" stroke="none" 
	d="
M680.999878,307.374756 
	C669.847046,307.366608 659.193970,307.394348 648.541382,307.336945 
	C642.555542,307.304688 641.105896,305.892975 640.795410,300.148193 
	C640.143555,288.083282 640.429932,287.440033 652.528198,288.031128 
	C670.810486,288.924408 689.214844,287.351990 707.368652,289.754303 
	C723.375671,291.872559 738.437012,298.232300 754.024963,302.324463 
	C757.072144,303.124420 760.796753,302.787659 763.642761,307.375061 
	C735.686890,307.375061 708.593384,307.375061 680.999878,307.374756 
z"/>
</svg>