<svg version="1.1" id="Layer_1" xmlns="http://www.w3.org/2000/svg" xmlns:xlink="http://www.w3.org/1999/xlink" x="0px" y="0px"
	 width="100%" viewBox="0 0 1024 1024" enable-background="new 0 0 1024 1024" xml:space="preserve">
<path fill="#000000" opacity="1.000000" stroke="none" 
	d="
M472.026489,764.000000 
	C471.275452,812.304260 471.132721,860.111389 471.292847,907.920471 
	C471.299377,909.878052 472.332031,912.754456 469.229797,913.276794 
	C466.753571,913.693726 466.106537,911.194031 465.268494,909.445923 
	C448.281525,874.011780 431.323425,838.563782 414.339294,803.128235 
	C413.231293,800.816589 412.794373,798.438232 412.833496,795.881226 
	C413.595276,746.085754 414.052643,696.283447 415.184540,646.496521 
	C415.707123,623.512512 415.582153,600.529602 416.065063,577.549744 
	C416.701874,547.247498 417.145233,516.941162 417.694550,486.637054 
	C417.798004,480.930450 418.846954,479.816132 424.362610,479.682800 
	C439.013702,479.328613 453.665802,479.007233 468.318787,478.742706 
	C474.299042,478.634735 475.210358,479.433105 475.039886,485.196167 
	C473.857605,525.166260 474.806274,565.160400 473.838806,605.122131 
	C473.246033,629.607178 473.895905,654.100464 472.909485,678.561584 
	C471.767761,706.873352 472.469330,735.189575 472.026489,764.000000 
z"/>
<path fill="#000000" opacity="1.000000" stroke="none" 
	d="
M420.608826,296.757080 
	C421.094269,252.659042 421.554901,209.037384 422.066406,165.416306 
	C422.156158,157.762405 422.530182,150.111969 422.631653,142.458054 
	C422.676727,139.057632 423.995880,136.562973 427.187988,135.461166 
	C442.603668,130.140167 458.032776,124.855820 473.505127,119.702568 
	C478.029083,118.195808 478.030365,121.655609 478.031555,124.555222 
	C478.037537,139.209518 478.391174,153.880066 477.831818,168.514694 
	C476.762787,196.484528 477.447632,224.457367 477.081818,252.426132 
	C476.709473,280.893188 476.585358,309.363434 476.329437,337.832092 
	C476.276428,343.728821 474.862061,344.746887 469.385620,342.696655 
	C454.890106,337.269684 440.439514,331.722504 425.934387,326.321533 
	C421.825073,324.791473 419.712982,322.189240 419.916077,317.693268 
	C420.223999,310.876984 420.380463,304.053864 420.608826,296.757080 
z"/>
<path fill="#000000" opacity="1.000000" stroke="none" 
	d="
M605.907593,753.069214 
	C578.291077,763.443542 550.390015,767.715698 521.308350,763.078674 
	C493.033478,758.570251 483.324707,737.356384 482.854645,716.932678 
	C482.265228,691.321228 496.141632,672.337341 522.074463,664.302856 
	C545.430603,657.066895 569.513489,655.477539 593.646301,660.206604 
	C617.580811,664.896790 630.218933,678.946289 633.867065,703.232117 
	C636.308472,719.484680 627.892456,742.381714 605.907593,753.069214 
M543.519653,696.991455 
	C537.919922,698.289734 532.761780,700.494080 528.427368,704.375122 
	C519.804932,712.095642 521.551880,721.106140 532.477966,725.041321 
	C543.667236,729.071167 555.123596,728.175659 566.547485,726.528137 
	C574.137878,725.433472 581.676697,723.959167 588.280029,719.631287 
	C596.741272,714.085632 596.700378,705.061462 588.146362,699.938416 
	C585.279175,698.221252 582.247375,696.928406 578.957825,696.129272 
	C567.338196,693.306824 555.819580,694.134277 543.519653,696.991455 
z"/>
<path fill="#000000" opacity="1.000000" stroke="none" 
	d="
M622.346130,567.911987 
	C625.404724,588.112915 627.615540,607.955017 625.134827,627.978638 
	C623.621338,640.195007 615.798157,649.135437 603.415405,651.819641 
	C592.824341,654.115479 581.992126,654.532593 571.190125,652.708862 
	C562.307190,651.209167 554.842834,647.255493 549.167480,640.132385 
	C548.682068,639.523254 547.957031,639.105042 547.159424,638.446289 
	C543.577759,641.464355 541.343018,645.444214 537.819946,648.278687 
	C528.945862,655.418335 518.338501,658.229858 507.684204,660.942017 
	C502.693573,662.212402 497.590485,663.075256 492.506805,663.936218 
	C487.768463,664.738770 485.797974,663.221008 485.740723,658.530029 
	C485.620850,648.704224 485.737854,638.875610 485.711426,629.048279 
	C485.699860,624.753906 488.250031,622.861023 492.011383,621.884460 
	C499.257019,620.003479 506.496033,618.093933 513.712036,616.102783 
	C518.107666,614.889954 522.201050,613.058105 525.075989,609.290222 
	C526.093628,607.956421 527.138733,606.429077 526.454407,604.709473 
	C525.654053,602.698425 523.623169,603.219727 522.065491,603.309143 
	C512.263000,603.871521 502.472229,604.648987 492.666962,605.146667 
	C486.369476,605.466309 485.786713,604.810547 485.747528,598.473328 
	C485.689880,589.145813 485.911743,579.812866 485.655426,570.492065 
	C485.523834,565.706970 487.440247,563.889954 492.076508,563.894958 
	C506.733795,563.910828 521.395447,563.945435 536.047729,563.622437 
	C562.013367,563.050049 587.998779,563.325378 613.943787,561.907959 
	C618.263489,561.671997 621.625305,562.458130 622.346130,567.911987 
M561.772888,601.085876 
	C560.783813,606.258301 562.570618,610.825989 567.021851,612.936218 
	C574.831543,616.638672 583.263306,616.158325 591.101990,612.842773 
	C595.464050,610.997620 595.008484,606.263733 594.517639,602.248779 
	C594.184326,599.522217 592.149170,598.177429 589.553406,598.328186 
	C580.459656,598.856079 571.306519,598.717896 561.772888,601.085876 
z"/>
<path fill="#000000" opacity="1.000000" stroke="none" 
	d="
M354.882111,473.974792 
	C347.567047,474.007202 340.732849,473.905487 333.908051,474.113251 
	C329.561707,474.245514 327.420197,472.855621 327.606262,468.113525 
	C328.800751,437.670166 329.425507,407.204559 331.386902,376.791107 
	C331.772369,370.813416 331.851074,364.798584 331.706268,358.809692 
	C331.593842,354.158295 333.481995,351.986572 338.120361,352.000488 
	C348.449249,352.031494 358.779419,351.898621 369.106934,352.017242 
	C374.692017,352.081360 375.563660,353.234802 375.345642,359.048035 
	C375.008636,368.032501 374.808258,377.025665 374.253479,385.996826 
	C373.993164,390.206604 375.654999,391.775635 379.677032,391.624207 
	C383.485443,391.480865 387.745453,392.374817 387.899811,386.419098 
	C388.132690,377.432983 388.511230,368.450775 388.764313,359.465057 
	C388.934113,353.435699 390.153992,351.936829 396.022552,351.838074 
	C405.016479,351.686737 414.015472,351.847778 423.010132,351.721924 
	C427.641479,351.657166 429.145142,353.975189 428.991577,358.266449 
	C427.699554,394.370453 426.437286,430.475616 425.255127,466.583344 
	C425.121704,470.658630 423.465515,472.900116 419.331360,472.949615 
	C409.503418,473.067352 399.674744,473.129181 389.846252,473.196350 
	C385.842377,473.223724 384.716583,470.719299 384.826782,467.279205 
	C385.130585,457.794952 385.482269,448.312256 385.807587,438.828674 
	C385.922241,435.485443 386.629425,432.069275 381.216492,432.099823 
	C374.070221,432.140167 373.447937,432.387909 372.895905,438.110504 
	C371.981903,447.586182 372.293854,457.087646 372.237793,466.576416 
	C372.209015,471.444580 370.241241,473.588684 365.337799,473.447449 
	C362.021942,473.351929 358.691101,473.778595 354.882111,473.974792 
z"/>
<path fill="#000000" opacity="1.000000" stroke="none" 
	d="
M622.426086,840.463318 
	C637.538635,850.428772 640.338135,865.339172 639.808655,881.429504 
	C639.568298,888.733398 638.290405,895.987610 635.987915,903.001648 
	C634.765564,906.725525 632.465332,908.715271 628.389343,909.042908 
	C617.104614,909.949829 605.841980,911.128357 594.565796,912.146240 
	C588.960388,912.652222 587.052124,910.001404 589.538269,904.958496 
	C592.114868,899.732361 595.170715,894.736328 597.616882,889.454285 
	C599.106445,886.237732 601.382935,882.214844 597.864563,879.316711 
	C594.268738,876.354980 590.184021,878.419983 586.804199,880.675598 
	C582.047913,883.849915 578.408936,888.186401 574.978027,892.745605 
	C568.698975,901.089478 564.022949,910.930725 554.895569,916.729126 
	C539.718689,926.370544 523.273926,929.720825 505.749847,924.411743 
	C492.141296,920.288879 486.265259,909.388916 483.473267,896.615540 
	C480.789917,884.339111 481.929718,872.056152 485.962158,860.183960 
	C488.699036,852.126099 492.939026,849.882446 501.386993,851.280151 
	C509.967560,852.699890 518.598938,853.019592 527.278198,852.974976 
	C534.276550,852.938965 535.630920,855.461365 532.076233,861.618652 
	C529.649109,865.822815 527.256531,869.969116 527.060425,875.029907 
	C526.780762,882.244934 531.153381,885.192444 537.640503,881.883667 
	C542.632812,879.337219 546.531372,875.427795 549.858948,870.992798 
	C554.555603,864.732971 559.015747,858.294495 563.757935,852.070190 
	C577.321411,834.266907 602.539612,829.208923 622.426086,840.463318 
z"/>
<path fill="#000000" opacity="1.000000" stroke="none" 
	d="
M487.460938,782.597595 
	C491.269928,767.922363 491.290161,767.708496 505.579132,769.060791 
	C513.902100,769.848572 522.205688,769.816162 530.528687,769.866455 
	C537.423645,769.908142 538.774109,772.006592 535.624207,777.988953 
	C533.065002,782.849304 530.046936,787.502319 528.455444,792.802124 
	C527.121094,797.245483 525.089233,802.486145 529.617249,805.733459 
	C534.186401,809.010437 538.501709,805.584961 542.110291,802.522949 
	C549.154175,796.546082 554.065674,788.682800 560.002319,781.728455 
	C570.186218,769.798767 582.528748,762.785339 598.515686,762.736023 
	C618.143677,762.675476 629.096069,770.770325 633.956665,789.724792 
	C636.260803,798.709900 636.116577,807.918335 634.161987,816.969360 
	C632.505615,824.638855 629.015320,827.252380 621.180725,827.319153 
	C613.517395,827.384460 605.851929,827.364868 598.189087,827.259460 
	C591.559448,827.168335 590.662354,825.670654 593.449585,819.811951 
	C594.164978,818.308228 594.954163,816.825806 595.509033,815.262512 
	C596.875366,811.413147 598.328735,807.075317 594.327026,804.278748 
	C590.284607,801.453735 586.721802,804.328247 583.709900,807.089111 
	C578.905518,811.493347 574.890991,816.592102 570.995728,821.811096 
	C566.013306,828.486694 561.049377,835.314331 553.592224,839.487854 
	C535.782837,849.455078 517.520386,849.492004 499.703308,840.074219 
	C488.521332,834.163574 484.664948,823.202087 483.892792,811.130066 
	C483.280365,801.554993 484.806244,792.200745 487.460938,782.597595 
z"/>
<path fill="#000000" opacity="1.000000" stroke="none" 
	d="
M748.338501,440.882629 
	C747.970886,444.499969 747.794312,447.669189 747.214355,450.762787 
	C745.640625,459.156311 741.222168,463.576477 732.714844,465.118469 
	C725.501465,466.425873 718.225769,467.282623 710.863464,467.217804 
	C694.546631,467.074188 678.206055,468.123077 661.921082,466.506165 
	C655.260864,465.844910 654.690918,464.696075 656.346985,458.051544 
	C658.158813,450.781525 660.007568,443.519836 661.721741,436.226685 
	C662.708191,432.029846 664.941650,430.410400 669.320312,431.406891 
	C677.460938,433.259521 685.719604,434.196411 694.100281,433.846497 
	C699.349792,433.627289 704.310181,432.431091 708.907043,429.865997 
	C710.698303,428.866516 712.127075,427.475250 712.801819,425.481537 
	C713.267151,424.106720 714.231140,422.650604 712.940430,421.279663 
	C711.813660,420.082764 710.435913,420.804901 709.181763,421.134583 
	C704.191895,422.446381 699.248962,423.886902 694.106079,424.614960 
	C689.033630,425.333008 684.146912,424.906708 679.308838,423.383301 
	C671.018311,420.772949 666.661499,415.064301 666.753845,405.704651 
	C666.867126,394.221344 667.545837,382.744202 667.924744,371.262573 
	C668.067505,366.935577 667.998535,362.601685 668.129089,358.274078 
	C668.260620,353.911621 670.254578,351.523254 674.966675,351.637085 
	C681.293823,351.789978 687.629517,351.741241 693.958313,351.616577 
	C697.721008,351.542450 699.248230,353.165771 699.559875,356.923401 
	C700.222839,364.918030 699.898499,372.896606 699.909729,380.887817 
	C699.914429,384.256287 697.945251,389.248169 704.139221,389.688934 
	C708.928833,390.029694 711.748108,386.728577 711.917114,380.780334 
	C712.126038,373.427124 711.021179,366.166412 710.064087,358.902588 
	C709.186401,352.241150 710.291260,351.010925 717.113586,350.817291 
	C723.103088,350.647278 729.095764,350.465515 735.074707,350.091125 
	C739.305725,349.826233 741.781006,351.339600 742.141724,355.777740 
	C743.839661,376.672089 745.629517,397.559204 747.250305,418.459442 
	C747.816223,425.757385 747.991699,433.085602 748.338501,440.882629 
z"/>
<path fill="#000000" opacity="1.000000" stroke="none" 
	d="
M490.327637,273.927917 
	C528.759033,275.174286 566.740845,274.748779 604.718445,274.742065 
	C609.282837,274.741272 611.325256,276.248413 611.360413,281.111511 
	C611.498901,300.262115 611.960876,319.410126 612.233521,338.560120 
	C612.317383,344.452240 611.578064,345.142853 605.610474,345.169586 
	C598.613342,345.200928 591.615234,345.174011 584.618591,345.088440 
	C578.724670,345.016357 577.851624,344.167511 577.578247,338.053009 
	C577.176453,329.068817 576.863037,320.080261 576.576477,311.091522 
	C576.491760,308.434387 576.464233,306.006927 572.750183,306.044159 
	C568.901428,306.082794 569.135864,308.740692 569.183594,311.265533 
	C569.359863,320.583374 569.489868,329.904053 569.844849,339.215729 
	C569.997681,343.223145 568.491272,345.141937 564.414429,345.116943 
	C556.251343,345.066864 548.086060,345.029144 539.924744,345.167053 
	C535.615845,345.239838 534.500122,342.663025 534.329651,339.136078 
	C533.863708,329.492401 533.458313,319.845795 533.003906,310.201508 
	C532.933960,308.715576 532.949585,307.140533 531.495667,306.168488 
	C530.462036,305.477386 529.327698,305.360443 528.154968,305.786774 
	C526.201660,306.496826 526.010132,308.167969 526.012390,309.879578 
	C526.023804,318.542847 526.076233,327.206116 526.083008,335.869385 
	C526.084473,337.698639 526.073669,339.542297 525.856262,341.353821 
	C525.562988,343.797394 524.218933,345.188385 521.590332,345.358978 
	C510.605621,346.071899 499.628204,346.168365 488.639252,345.418915 
	C485.252747,345.187958 483.822754,343.195068 483.807922,340.213379 
	C483.706818,319.890503 483.487762,299.565430 484.275055,279.248596 
	C484.415741,275.617798 486.037720,273.640289 490.327637,273.927917 
z"/>
<path fill="#000000" opacity="1.000000" stroke="none" 
	d="
M624.323425,529.016174 
	C624.339905,534.513367 624.141663,539.504150 623.229797,544.439453 
	C621.968384,551.266113 619.411255,553.822266 612.546936,553.990784 
	C601.389221,554.264709 590.221191,554.264221 579.059387,554.165405 
	C573.988098,554.120483 572.654541,551.448181 575.176880,546.938232 
	C578.587280,540.840454 582.528320,535.019958 584.692627,528.284729 
	C586.360291,523.094910 585.398499,520.507324 580.374329,518.334839 
	C577.493042,517.088989 574.406067,515.908264 571.323730,515.611267 
	C560.017090,514.521912 548.684937,514.251038 537.577148,517.313965 
	C528.869995,519.715027 526.368164,525.777039 530.765991,533.740967 
	C533.433899,538.572205 536.602417,543.046204 540.750488,546.768127 
	C542.342468,548.196594 544.360535,549.631226 543.493896,552.161194 
	C542.698486,554.483154 540.401245,554.438660 538.417419,554.502869 
	C522.603027,555.014465 506.787689,555.498657 490.971466,555.949890 
	C487.681213,556.043762 485.420380,554.476196 485.045776,551.128479 
	C483.558258,537.834290 483.093903,524.524048 486.004028,511.354370 
	C489.166870,497.041016 497.770905,486.716400 511.540253,482.295319 
	C538.364258,473.682526 565.650269,471.548431 593.087341,480.077515 
	C614.188904,486.637146 622.748047,502.249542 624.172913,523.028076 
	C624.298218,524.854858 624.276123,526.691711 624.323425,529.016174 
z"/>
<path fill="#000000" opacity="1.000000" stroke="none" 
	d="
M553.420532,352.540100 
	C556.353027,352.602753 558.839966,352.692627 561.327332,352.767181 
	C564.587646,352.864929 566.385376,354.492950 567.361267,357.659515 
	C577.960144,392.050995 587.057007,426.812744 593.752380,462.192810 
	C594.607056,466.709045 593.282837,468.290253 588.803345,468.319244 
	C580.311096,468.374146 571.816956,468.660980 563.331543,469.032898 
	C558.909851,469.226685 556.900696,467.344788 556.718140,462.959534 
	C556.566101,459.307800 556.046509,455.671021 555.674316,452.029175 
	C555.606750,451.368103 555.558167,450.682373 555.343689,450.062408 
	C552.472839,441.763641 545.679993,447.170349 540.785889,446.080231 
	C536.956421,445.227234 536.145325,448.282257 536.204163,451.466888 
	C536.281006,455.631409 536.224976,459.801819 536.429688,463.959656 
	C536.640564,468.241394 535.179138,470.477051 530.488464,470.484467 
	C522.830750,470.496613 515.175110,470.992981 507.515900,471.140747 
	C500.278076,471.280426 499.365448,470.539886 499.729309,463.090668 
	C500.435791,448.626190 501.564392,434.193695 503.997406,419.882843 
	C507.401337,399.861267 511.468689,379.974365 515.716553,360.120575 
	C517.235107,353.023102 517.601135,352.722534 524.980347,352.691467 
	C534.311951,352.652161 543.643494,352.604523 553.420532,352.540100 
M538.403137,402.930908 
	C538.143982,405.240204 537.859009,407.546967 537.633667,409.859558 
	C537.444275,411.802856 536.653809,414.248566 538.954651,415.188477 
	C541.589050,416.264679 544.581787,416.059601 547.217590,414.888611 
	C549.599182,413.830475 548.933167,411.469940 548.606018,409.586090 
	C547.725098,404.514221 546.738159,399.455536 545.598572,394.435852 
	C544.983215,391.725525 544.710205,388.805206 542.632812,386.096680 
	C540.365540,391.612396 539.486084,396.850983 538.403137,402.930908 
z"/>
<path fill="#000000" opacity="1.000000" stroke="none" 
	d="
M514.255005,122.659554 
	C529.991333,127.040443 545.334473,131.330048 560.841675,135.665527 
	C562.348267,131.843475 561.510620,128.508911 561.667969,125.269859 
	C561.809143,122.363937 563.172119,120.873611 566.061157,121.168884 
	C576.983826,122.285225 587.893066,123.533943 598.818054,124.626060 
	C603.127686,125.056877 604.867981,127.418495 604.991882,131.559769 
	C605.794250,158.353622 606.640686,185.146179 607.507385,211.938049 
	C607.625549,215.590820 606.317322,217.631500 602.342224,217.528442 
	C592.851074,217.282303 583.354004,217.238739 573.865295,216.930435 
	C567.808594,216.733643 566.726990,215.482574 566.698547,209.325470 
	C566.659302,200.830109 566.760315,192.333893 566.691467,183.838913 
	C566.629700,176.216370 564.008545,173.418411 556.540405,173.445053 
	C534.558289,173.523544 512.583191,173.897491 490.722168,176.574356 
	C485.520874,177.211258 483.083038,175.496902 483.027771,170.143417 
	C482.869568,154.820602 482.880493,139.492569 483.111725,124.170921 
	C483.206543,117.889053 485.831635,115.629021 492.152405,116.850182 
	C499.483459,118.266525 506.633270,120.621010 514.255005,122.659554 
z"/>
<path fill="#000000" opacity="1.000000" stroke="none" 
	d="
M603.576782,226.925812 
	C607.506226,227.098724 609.053650,228.978745 609.164124,232.389755 
	C609.460632,241.543930 609.779236,250.698410 610.217407,259.846619 
	C610.442932,264.555908 608.379639,266.436279 603.698364,266.412506 
	C565.868286,266.220642 528.037720,266.119507 490.207153,266.040619 
	C485.810242,266.031464 483.785675,264.028259 483.837769,259.653931 
	C483.938965,251.155182 484.018799,242.655075 483.977020,234.156158 
	C483.953766,229.429077 486.265381,227.594879 490.810730,227.746216 
	C495.639038,227.906967 500.475647,227.815063 505.308563,227.842102 
	C507.818787,227.856140 510.308411,227.450729 510.388763,224.376328 
	C510.469513,221.286362 508.641266,219.432724 505.405670,219.331299 
	C500.245178,219.169510 495.082092,219.084839 489.922638,218.897446 
	C485.474915,218.735916 483.395325,216.618240 483.564728,211.916367 
	C483.822632,204.759323 483.679749,197.585800 483.616547,190.420074 
	C483.586975,187.065414 484.809875,185.013062 488.415344,184.764679 
	C509.547638,183.308807 530.678711,183.372681 551.822266,184.562500 
	C555.791321,184.785843 557.344971,186.415237 557.438477,190.426544 
	C557.585754,196.741608 558.366821,203.027939 558.429016,209.370956 
	C558.472717,213.824203 557.375305,216.400833 552.384277,216.267380 
	C549.673218,216.194885 547.594666,217.372574 547.172363,220.521454 
	C546.562927,225.066452 547.924377,226.628677 553.123840,226.665009 
	C569.789185,226.781479 586.455017,226.831772 603.576782,226.925812 
z"/>
<path fill="#000000" opacity="1.000000" stroke="none" 
	d="
M647.931152,455.730774 
	C645.211792,466.964508 645.212219,466.992096 633.962219,467.160431 
	C626.965698,467.265137 619.959473,467.083649 612.973511,467.391602 
	C608.822998,467.574524 606.506470,465.885223 604.954163,462.188873 
	C599.391479,448.942719 595.415955,435.177856 591.730591,421.345581 
	C586.202393,400.596954 579.628357,380.115845 575.562439,358.986847 
	C574.435608,353.131256 575.112122,352.079803 580.955566,351.894592 
	C587.281738,351.694092 593.615540,351.679199 599.945984,351.681305 
	C608.516724,351.684143 609.527832,352.670166 611.261902,360.902283 
	C614.418701,375.889191 617.167725,390.945374 619.567200,406.071228 
	C619.945374,408.454712 620.131470,410.999084 621.898132,413.663391 
	C624.365723,405.730621 624.623535,397.901917 625.667603,390.239136 
	C627.149292,379.364746 628.329285,368.444611 629.392700,357.520142 
	C629.817200,353.159210 632.015625,351.211121 636.141968,351.226440 
	C644.126526,351.256042 652.111084,351.379456 660.094849,351.511353 
	C663.698181,351.570831 664.406433,353.938324 664.321289,356.958099 
	C664.024658,367.472290 662.253174,377.820251 660.835632,388.207062 
	C657.751404,410.805939 653.514526,433.186676 647.931152,455.730774 
z"/>
<path fill="#000000" opacity="1.000000" stroke="none" 
	d="
M482.989014,470.340820 
	C468.384705,470.968628 454.252899,471.633057 440.116882,472.189056 
	C433.340485,472.455597 432.512970,471.665741 432.697205,464.943726 
	C433.672882,429.340118 434.741638,393.738983 435.684814,358.134552 
	C435.796051,353.935974 437.711090,351.945770 441.749573,351.939911 
	C460.067810,351.913208 478.386139,351.924042 496.704407,351.950745 
	C500.318756,351.956024 502.362061,353.690308 502.197998,357.474792 
	C501.880890,364.788910 501.506714,372.100555 501.179413,379.414246 
	C501.045868,382.398193 499.221985,383.431976 496.559692,383.491455 
	C489.238708,383.654968 481.917389,383.804016 474.595825,383.939789 
	C468.886078,384.045715 465.715607,389.495483 468.524170,394.549835 
	C469.698639,396.663452 471.830017,396.337585 473.855316,396.274506 
	C480.343475,396.072449 486.835205,395.986145 493.323578,395.789856 
	C497.327728,395.668701 499.244049,397.583832 499.049225,401.525299 
	C498.770081,407.172913 498.335144,412.812958 498.071899,418.461151 
	C497.894867,422.259827 496.076233,424.380646 492.242462,424.508453 
	C485.423645,424.735809 478.594849,425.148254 471.783905,424.967651 
	C466.663361,424.831848 466.264954,427.544281 466.228821,431.571625 
	C466.189850,435.916656 468.153687,437.092499 472.059479,436.779022 
	C477.029449,436.380066 482.019318,435.973267 486.997833,436.005280 
	C492.575073,436.041168 494.169312,437.792999 493.961029,443.324127 
	C493.729462,449.473938 493.381897,455.630219 492.769897,461.752197 
	C491.926270,470.191010 491.799927,470.178375 482.989014,470.340820 
z"/>
<path fill="#000000" opacity="1.000000" stroke="none" 
	d="
M320.263306,440.067322 
	C319.912811,447.376526 320.598358,454.235992 319.561188,461.021820 
	C318.871948,465.531250 317.132996,466.277191 313.725098,463.234619 
	C302.664886,453.360260 291.749878,443.323334 280.770599,433.358246 
	C279.073212,431.817657 278.070007,429.978943 278.212494,427.644440 
	C279.652252,404.054108 281.108032,380.464752 282.545868,356.874329 
	C282.930634,350.561646 283.278564,344.246704 283.626526,337.931885 
	C283.881500,333.304077 285.458130,332.032776 289.666321,334.029449 
	C300.044037,338.953369 310.258820,344.220581 320.544617,349.338654 
	C323.259796,350.689667 323.493225,353.092957 323.393677,355.711029 
	C322.900360,368.689056 322.440979,381.668365 321.958588,394.646790 
	C321.401978,409.623596 320.833740,424.600006 320.263306,440.067322 
z"/>
<path fill="#000000" opacity="1.000000" stroke="none" 
	d="
M367.000000,331.051971 
	C379.666290,331.043091 391.882599,331.720184 403.985687,330.840271 
	C417.740417,329.840271 429.745758,335.165985 442.199005,339.192535 
	C446.561737,340.603149 450.902435,342.082001 455.267853,343.534576 
	C454.569092,345.880127 452.997253,345.349762 451.817261,345.383270 
	C412.996704,346.485931 374.165405,345.725067 335.339874,346.025635 
	C332.980255,346.043915 330.711761,345.557495 328.492859,344.766174 
	C319.395172,341.521576 310.281067,338.322601 301.199585,335.033417 
	C299.734894,334.502930 297.865540,334.351929 296.900116,331.050354 
	C320.414612,331.050354 343.457306,331.050354 367.000000,331.051971 
z"/>
<path fill="#000000" opacity="1.000000" stroke="none" 
	d="
M638.001465,329.850464 
	C650.467407,330.107086 662.433777,330.360870 674.400146,330.613007 
	C678.270264,330.694550 681.956421,331.798706 685.635010,332.798553 
	C697.341736,335.980408 709.014099,339.289032 720.697083,342.557922 
	C722.087097,342.946808 723.736084,342.895752 724.446594,344.634430 
	C723.213196,346.632599 721.201355,345.949463 719.504944,345.954102 
	C689.068542,346.037567 658.632019,346.085785 628.195496,346.080139 
	C625.481934,346.079651 621.982849,347.069153 620.638306,343.786469 
	C619.049866,339.908142 619.317993,335.616150 620.190613,331.546295 
	C620.551697,329.862122 622.551575,329.940979 624.030457,329.918854 
	C628.520264,329.851532 633.011292,329.864929 638.001465,329.850464 
z"/>
</svg>