<svg xmlns="http://www.w3.org/2000/svg" viewBox="70.02 12.48 146.67 262.81"><path d="M135.623 13.08c-.278.892-.649 15.867-.41 16.529.155.427 2.984.499 11.373.287 6.142-.155 11.721-.143 12.398.027 1.734.435 1.99 1.279 2.28 7.517l.256 5.52h11.52l-.111-4.56c-.311-12.763-.747-21.527-1.1-22.098-.376-.608-7.03-1.801-10.429-1.87-1.501-.031-1.56.039-1.56 1.86 0 1.04-.213 2.023-.472 2.183-.26.161-5.376-1.122-11.37-2.851-5.993-1.729-11.187-3.144-11.542-3.144-.355 0-.73.27-.833.6M122.4 15.515 114.96 18l-.312 2.88c-.172 1.584-.472 14.682-.667 29.107l-.355 26.227 1.003.537c2.064 1.105 14.866 5.809 15.808 5.809.539 0 1.095-.3 1.236-.666.14-.366.308-15.972.372-34.68l.116-34.014-1.16-.085c-.639-.047-4.509 1.033-8.601 2.4m13.541 19.452c-.451.287-.581 1.621-.48 4.913l.139 4.52 3.487.271c3.698.288 4.628.757 4.353 2.198-.143.754-.758.928-4.005 1.131l-3.835.24-.136 5.169c-.103 3.883.017 5.217.48 5.361.339.106 8.986.331 19.216.499l18.6.307v-5.034c0-3.936-.164-5.198-.754-5.788-.632-.631-2.202-.754-9.632-.754-9.181 0-10.734-.278-10.734-1.92 0-1.181 1.381-1.92 3.586-1.92h1.73l-.138-4.436-.138-4.437-1.44-.307c-2.144-.456-19.582-.468-20.299-.013m-.139 29.159c-.273.328-.409 4.662-.332 10.575l.13 10.019h12l.24-5.76.24-5.76h1.2c1.187 0 1.205.064 1.68 5.76l.48 5.76 4.905.137 4.905.136.135-5.896c.13-5.674.175-5.903 1.198-6.048 1.318-.188 1.503.462 1.957 6.871l.34 4.8h9.6l-.17-10.08c-.094-5.544-.31-10.221-.48-10.393-.171-.172-8.693-.395-18.938-.495-13.729-.134-18.75-.036-19.09.374M77.068 80.595c-.43.695 1.293 1.66 6.212 3.48l4.32 1.597 19.92.004c23.018.005 23.399-.081 14.88-3.337l-5.04-1.926-19.997-.151c-13.062-.098-20.1.017-20.295.333m100.172.105c-.764.78-.78 3.888-.024 4.644.425.425 4.768.576 16.56.576 13.682 0 15.984-.101 15.984-.7 0-.455-1.216-1.054-3.48-1.714a336.133 336.133 0 0 1-6.6-2.011c-2.585-.824-4.725-1.03-12.48-1.201-7.172-.157-9.5-.063-9.96.406M71.79 82.68c-.495 1.656-2.07 29.412-1.721 30.33.609 1.603 11.346 10.936 12.358 10.743.705-.135.876-.746.984-3.518.072-1.845.425-9.719.786-17.496.36-7.778.54-14.442.399-14.809-.306-.797-10.43-5.85-11.722-5.85-.497 0-.985.27-1.084.6m35.85 5.991-2.04.184-.003 2.493c-.002 1.37-.143 3.968-.314 5.772-.269 2.857-.454 3.335-1.436 3.708-.686.26-1.614.243-2.371-.045l-1.245-.473.156-5.635.156-5.635H87.6l-.305 6.72c-.168 3.696-.561 11.847-.873 18.113-.312 6.267-.432 11.613-.266 11.88.444.719 11.901.638 12.628-.089.367-.367.578-2.243.583-5.16.003-2.521.141-5.087.305-5.701.372-1.389 2.165-2.132 3.719-1.542 1.15.438 1.15.44.889 6.484l-.261 6.046 5.951-.136 5.95-.135.301-4.8c.166-2.64.467-10.816.669-18.169.308-11.199.259-13.438-.301-13.793-.653-.413-4.866-.454-8.949-.087m100.2.081-2.16.288.238 2.64c.491 5.443.305 7.711-.69 8.439-1.084.793-1.674.84-2.668.212-.545-.344-.778-1.773-.96-5.873l-.24-5.418-3.6-.123c-1.98-.068-3.917.082-4.305.333-.552.357-.768 2.16-.993 8.283-.158 4.305-.103 8.519.122 9.365.888 3.341 4.363 4.548 9.871 3.43 2.687-.546 3.605-.578 3.968-.14.64.771.196 1.7-1.363 2.852-1.085.801-2.053.96-5.86.96-2.508 0-5.311-.108-6.23-.24-1.569-.226-1.704-.135-2.25 1.507-1.287 3.873-1.825 7.58-1.191 8.213.91.909 21.5.645 23.772-.304 2.836-1.185 3.423-2.648 3.389-8.437-.036-6.129-1.538-23.836-2.15-25.339-.471-1.157-1.867-1.292-6.7-.648m-87.558 1.608c-.46 2.966-1.138 34.201-.751 34.615.453.485 17.042.212 17.543-.289.186-.186.446-2.397.578-4.912l.239-4.574h-3.81c-4.018 0-4.961-.411-4.961-2.16 0-1.733.949-2.16 4.804-2.16 5.024 0 5.359-.311 5.179-4.811l-.143-3.589h-4.214c-4.318 0-5.131-.342-5.131-2.16 0-1.8.833-2.156 5.606-2.4l4.699-.24.138-4.44.138-4.44h-19.672l-.242 1.56m26.037-.989c-1.816 1.426-6.907 32.399-5.804 35.309.31.817 9.295.838 10.109.024.325-.325.576-1.884.576-3.583 0-3.394.537-4.001 3.541-4.001 1.982 0 3.175 1.344 3.186 3.587.016 3.612.017 3.613 5.864 3.613h5.28l-.333-2.659c-.658-5.266-7.159-29.945-8.403-31.901-.635-.998-12.81-1.336-14.016-.389m17.616-.115c-.347.56 1.837 9.349 5.254 21.144 2.877 9.931 4.122 13.165 5.233 13.591.415.16 2.931.158 5.589-.004 3.732-.228 4.925-.47 5.232-1.061 1.266-2.439 5.314-26.141 5.316-31.126l.001-3h-4.532c-3.015 0-4.651.193-4.889.578-.196.318-.741 3.707-1.21 7.531-1.521 12.4-1.908 12.513-4.16 1.216-.892-4.469-1.843-8.395-2.114-8.725-.591-.719-9.285-.849-9.72-.144m-9.336 12.144c.305 1.122.583 3.12.618 4.44l.063 2.4h-3.36l.061-3.401c.094-5.26 1.587-7.222 2.618-3.439m-1.719 27.082c-3.931.488-10.023 2.31-11.878 3.552-4.162 2.788-5.909 7.637-5.537 15.367.122 2.531.378 4.855.569 5.165.387.626 16.517.249 17.237-.402.215-.195-.447-1.322-1.472-2.506-3.617-4.18-3.855-7.034-.702-8.432 1.293-.573 3.235-.795 7.063-.808 8.966-.031 10.246 1.247 7.27 7.261-.963 1.945-1.75 3.749-1.75 4.009 0 .286 2.521.472 6.388.472 8.54 0 8.252.246 8.252-7.041 0-4.911-.15-6.011-1.112-8.136-1.374-3.035-3.455-5.099-6.498-6.443-4.039-1.784-12.326-2.74-17.83-2.058m-35.839.513c-1.804.094-3.419.432-3.704.776-.322.389-.678 8.768-.983 23.139-.455 21.459-1.238 69.694-1.231 75.81.004 2.703.399 3.708 6.416 16.32 3.527 7.392 7.283 15.492 8.347 18 2.008 4.733 3.152 6.527 3.756 5.891.193-.204.586-28.559.873-63.011.286-34.452.628-65.518.761-69.035.148-3.951.051-6.749-.255-7.32-.446-.835-.997-.916-5.638-.831-2.829.052-6.582.169-8.342.261m38.479 28.063c-10.164.231-18.75.513-19.08.626-.435.149-.6 1.78-.6 5.93 0 4.152.165 5.778.6 5.924.33.11 2.976.05 5.88-.133 3.964-.251 5.44-.183 5.922.27 1.585 1.49-1.707 3.643-8.082 5.286-1.716.443-3.397 1.033-3.735 1.313-.45.372-.578 1.999-.48 6.077l.135 5.569 1.258.146c1.767.205 8.751-1.652 11.552-3.072 1.289-.653 3.203-1.963 4.251-2.91l1.907-1.723.943 1.199c1.857 2.36 4.011 2.967 10.569 2.979 5.505.009 6.178-.088 8.16-1.184 3.581-1.981 4.32-4.055 4.32-12.125 0-6.83-.685-13.09-1.549-14.15-.269-.33-1.164-.565-1.99-.521-.825.043-9.817.268-19.981.499m14.203 11.662c.697 2.779-.998 4.566-4.415 4.657-3.811.102-6.136-1.395-5.864-3.775.136-1.183.408-1.4 2.076-1.654 1.056-.16 3.266-.322 4.911-.36 2.815-.064 3.008.003 3.292 1.132m-18.479 20.427c-5.625 1.217-8.916 2.749-11.494 5.353-6.769 6.836-6.199 18.935 1.13 23.995 3.141 2.17 7.242 2.95 13.92 2.649 10.723-.483 19.643-3.226 22.912-7.044 3.002-3.508 3.942-6.023 3.956-10.58.01-3.514-.175-4.461-1.335-6.823-1.676-3.413-4.956-6.37-8.203-7.395-4.042-1.277-15.311-1.36-20.886-.155m15.796 11.175c2.467 1.186 3.344 2.864 2.613 4.998-1.078 3.143-11.248 5.826-17.109 4.514-4.56-1.02-6.339-3.137-4.929-5.863 1.329-2.57 4.373-3.969 10.785-4.954 2.314-.356 6.5.276 8.64 1.305m-.664 22.676c-2.456.784-6.207 4.161-10.964 9.869-2.729 3.275-4.751 4.194-6.151 2.794-1.329-1.329-1.182-2.625.757-6.672.935-1.949 1.529-3.706 1.32-3.904-.612-.582-12.982-.753-13.547-.188-.853.853-2.431 7.919-2.431 10.887 0 4.033.817 6.756 2.679 8.931 3.86 4.51 13.115 5.186 18.779 1.372 1.247-.84 3.802-3.423 5.678-5.741 3.943-4.872 5.02-5.746 6.83-5.537 1.675.193 1.938 1.647.825 4.562-.447 1.17-.691 2.249-.541 2.399.511.511 10.473.198 11.134-.35 2.146-1.781 2.185-9.668.069-13.992-1.698-3.471-4.005-4.803-8.696-5.021-2.166-.1-4.246.114-5.741.591m1.087 23.876c-3.422 1.28-5.383 2.939-8.6 7.276-5.04 6.794-7.781 8.84-9.617 7.179-1.18-1.068-1.163-1.708.14-5.343.587-1.635.965-3.069.84-3.186-.124-.117-3.089-.369-6.589-.56l-6.363-.347-1.039 2.333c-1.277 2.872-1.716 8.844-.913 12.431 1.513 6.76 7.023 9.83 14.745 8.214 6.136-1.284 8.24-2.858 13.235-9.904 5.497-7.753 11.028-7.319 6.922.542-2.234 4.276-2.228 4.736.056 4.714 3.678-.036 11.212-1.27 11.837-1.94 1.707-1.829 2.271-9.944.991-14.253-1.442-4.858-4.877-7.343-10.548-7.634-2.065-.106-4.029.078-5.097.478" fill-rule="evenodd"/></svg>