<?xml version="1.0" encoding="utf-8" ?>	<!-- Generator: Assembly 2.4 - http://assemblyapp.co -->	<svg version="1.1" xmlns="http://www.w3.org/2000/svg" xmlns:xlink="http://www.w3.org/1999/xlink" width="4096.00" height="4096.00" viewBox="0 0 4096.0 4096.0">		<g id="document" transform="scale(1.0 1.0) translate(2048.0 2048.0)">			<g>				<path d="M-158.772,-2032.11 C-160.29,-2031.79 -163.938,-2028.53 -166.871,-2024.88 C-172.122,-2018.35 -172.207,-2017.94 -172.31,-1998.97 C-172.361,-1988.36 -173.435,-1954.76 -174.679,-1924.27 L-176.947,-1868.86 L-172.685,-1862.52 C-167.655,-1855.03 -167.314,-1854.92 -147.503,-1853.57 C-90.609,-1849.72 81.8285,-1836.54 115.893,-1833.43 L138.893,-1831.34 L140.12,-1822.81 C141.365,-1814.29 144.093,-1771.22 146.343,-1724.78 C147.435,-1702.43 147.929,-1699.53 151.612,-1694.58 C154.749,-1690.35 157.255,-1688.92 162.643,-1688.33 C166.479,-1687.9 204.516,-1687.68 247.19,-1687.83 L324.765,-1688.12 L325.771,-1839.86 C326.334,-1923.32 326.18,-1993.24 325.464,-1995.25 C324.663,-1997.47 321.253,-1999.94 316.786,-2001.52 C309.233,-2004.22 242.894,-2017.16 188.37,-2026.57 C171.491,-2029.48 156.01,-2032.28 153.964,-2032.77 C151.254,-2033.44 148.168,-2031.75 142.456,-2026.48 L134.665,-2019.29 L134.665,-1992.04 C134.665,-1967.08 134.426,-1964.9 131.766,-1965.91 C128.203,-1967.27 97.7867,-1974.6 57.9423,-1983.69 C41.5408,-1987.44 6.99876,-1995.49 -18.7799,-2001.61 C-57.2945,-2010.73 -122.219,-2025.46 -150.06,-2031.41 C-153.334,-2032.11 -157.272,-2032.42 -158.789,-2032.09 L-158.772,-2032.11 Z M-309.455,-1983.84 C-402.493,-1943.61 -425.885,-1932.75 -428.664,-1928.52 C-430.591,-1925.57 -431.494,-1910.73 -432.944,-1857.61 C-437.206,-1701.33 -439.9,-1602.35 -441.519,-1541.51 C-442.474,-1505.88 -444.077,-1446.41 -445.066,-1409.38 C-449.669,-1238.84 -449.72,-1234.76 -447.504,-1231.54 C-446.327,-1229.83 -445.748,-1227.04 -446.191,-1225.3 C-446.992,-1222.23 -438.655,-1215.92 -416.866,-1203.1 C-413.115,-1200.9 -401.982,-1193.96 -392.144,-1187.69 C-382.29,-1181.41 -366.195,-1171.29 -356.341,-1165.17 C-346.486,-1159.04 -327.51,-1147.04 -314.143,-1138.48 C-300.794,-1129.92 -288.774,-1122.93 -287.461,-1122.93 C-284.171,-1122.93 -265.74,-1132.7 -262.347,-1136.25 C-259.347,-1139.37 -258.307,-1166.12 -250.566,-1440.05 C-245.451,-1621.3 -239.655,-1805.2 -236.859,-1875.66 C-235.887,-1900.04 -234.71,-1937.25 -234.25,-1958.35 L-233.398,-1996.71 L-238.171,-2003.4 C-240.797,-2007.08 -243.712,-2010.3 -244.65,-2010.59 C-245.588,-2010.87 -274.742,-1998.83 -309.438,-1983.83 L-309.455,-1983.84 Z M-117.939,-1790.01 L-173.64,-1789.53 L-178.891,-1782.4 L-184.142,-1775.28 L-184.074,-1728.31 L-184.006,-1681.34 L-179.88,-1676.29 L-175.754,-1671.24 L-144.553,-1671.17 L-113.353,-1671.11 L-112.893,-1643.67 L-112.432,-1616.24 L-143.462,-1615.12 C-176.197,-1613.92 -179.726,-1613.07 -184.756,-1605.02 C-186.597,-1602.07 -187.364,-1589.13 -188.149,-1547.5 L-189.155,-1493.79 L-185.029,-1489.1 L-180.903,-1484.42 L-95.9967,-1483.6 C-49.2984,-1483.15 64.9836,-1482.3 157.971,-1481.7 L327.033,-1480.63 L335.046,-1488.01 L343.059,-1495.39 L341.917,-1510.77 C341.286,-1519.23 339.7,-1535.75 338.37,-1547.46 C337.041,-1559.19 334.807,-1581.05 333.392,-1596.05 C330.34,-1628.47 329.266,-1630.32 314.604,-1628.58 C309.881,-1628.02 271.503,-1626.81 229.306,-1625.87 C187.108,-1624.94 123.207,-1623.38 87.3013,-1622.41 C51.3953,-1621.44 21.2861,-1621.12 20.3825,-1621.68 C19.4618,-1622.26 18.7457,-1633.32 18.7457,-1647.13 C18.7457,-1661.32 18.4047,-1667.93 20.6552,-1671.02 C22.9058,-1674.11 27.7307,-1673.65 38.0627,-1673.65 C45.7178,-1673.65 59.4937,-1674.16 68.6493,-1674.75 L85.3236,-1675.86 L90.4725,-1682.85 L95.6214,-1689.84 L95.1099,-1735.35 L94.5984,-1780.85 L89.5859,-1786.07 L84.5734,-1791.29 L11.1587,-1790.88 C-29.2142,-1790.66 -87.3356,-1790.26 -117.973,-1790.01 L-117.939,-1790.01 Z M323.077,-1444.06 C319.326,-1443.77 282.108,-1442.35 240.388,-1440.92 C198.668,-1439.49 144.195,-1437.56 119.337,-1436.66 C37.3807,-1433.64 -100.549,-1429.21 -162.08,-1427.62 C-179.368,-1427.18 -182.454,-1426.63 -187.228,-1423.24 C-192.07,-1419.8 -194.116,-1421.47 -195.991,-1404.49 C-197.867,-1387.51 -199.589,-1351.87 -203.766,-1273.84 C-205.215,-1246.64 -207.176,-1207.14 -208.096,-1186.03 C-209.017,-1164.93 -210.517,-1134.63 -211.421,-1118.69 L-213.075,-1089.7 L-203.715,-1080.48 L-194.354,-1071.26 L-182.863,-1073.2 C-166.274,-1076 -79.9531,-1087.15 -74.8553,-1087.15 C-73.9347,-1087.15 -70.5248,-1090.03 -67.3025,-1093.54 L-61.4375,-1099.93 L-61.4375,-1116.98 C-61.4545,-1143.02 -56.101,-1297.59 -55.1463,-1298.56 C-54.6859,-1299.04 -42.1717,-1299.65 -27.3217,-1299.96 L-0.332492,-1300.5 L0.673422,-1289.73 C2.22492,-1273.04 6.79415,-1151.99 6.79415,-1127.55 C6.79415,-1104.21 7.88531,-1099.97 15.9156,-1092.48 C19.9392,-1088.72 21.4907,-1088.46 37.824,-1088.72 C47.491,-1088.87 73.031,-1090.11 94.5985,-1091.48 C116.166,-1092.84 135.602,-1093.97 137.802,-1093.97 C140.223,-1093.97 143.905,-1096.37 147.179,-1100.07 L152.566,-1106.16 L153.419,-1205.35 L154.271,-1304.54 L180.63,-1305.81 C195.122,-1306.5 207.517,-1306.5 208.147,-1305.81 C209.443,-1304.39 216.467,-1186.12 218.036,-1139.17 L219.059,-1108.48 L224.702,-1101.47 L230.346,-1094.46 L264.768,-1093.34 C283.71,-1092.72 313.649,-1092.11 331.312,-1091.99 L363.416,-1091.77 L369.486,-1097.84 C375.487,-1103.84 375.555,-1104.09 375.282,-1117.27 C375.129,-1124.62 374.242,-1142.92 373.322,-1157.92 C372.384,-1172.92 370.065,-1212.82 368.156,-1246.58 C366.246,-1280.33 363.587,-1324.07 362.24,-1343.76 C360.893,-1363.45 358.949,-1392.23 357.926,-1407.69 C356.085,-1435.62 356.034,-1435.86 351.038,-1440.51 C345.838,-1445.37 343.554,-1445.66 323.06,-1444.08 L323.077,-1444.06 Z M458.688,-1198.04 C456.574,-1195.92 446.771,-1181.82 436.865,-1166.68 L418.878,-1139.17 L420.77,-1130.64 C427.624,-1099.71 430.983,-1084.49 433.591,-1076.12 C436.2,-1067.75 438.075,-1066.23 441.98,-1062.72 L449.243,-1056.17 L467.145,-1057.16 C476.999,-1057.7 507.688,-1058.93 535.342,-1059.87 C657.654,-1064.06 788.798,-1068.84 831.899,-1070.66 L878.683,-1072.66 L887.923,-1084.59 C893.004,-1091.15 899.125,-1099.44 901.512,-1102.99 L905.859,-1109.45 L899.193,-1116.37 C895.527,-1120.17 875.358,-1138.67 854.37,-1157.48 C821.806,-1186.66 815.191,-1191.86 809.189,-1192.96 C797.835,-1195.04 760.684,-1196.25 653.835,-1197.99 C598.51,-1198.89 532.836,-1200.13 507.876,-1200.75 L462.507,-1201.87 L458.671,-1198.04 L458.688,-1198.04 Z M-642.77,-1192.77 C-672.317,-1192.1 -743.276,-1190.64 -800.477,-1189.55 C-964.083,-1186.41 -1024.85,-1184.6 -1026.98,-1182.83 C-1029.54,-1180.7 -1051.19,-1136.95 -1050.17,-1135.96 C-1048.17,-1134 -963.861,-1089.16 -895.954,-1053.95 L-870.38,-1040.69 L-726.312,-1041.76 C-647.067,-1042.34 -528.301,-1043.33 -462.354,-1043.96 L-342.462,-1045.09 L-336.58,-1056.78 C-328.226,-1073.37 -324.049,-1084.57 -325.379,-1086.74 C-326.01,-1087.76 -339.956,-1095.84 -356.358,-1104.69 C-372.759,-1113.54 -391.156,-1123.48 -397.259,-1126.77 C-418.077,-1138.04 -459.455,-1160 -483.359,-1172.48 C-496.487,-1179.33 -510.91,-1187.11 -515.394,-1189.75 L-523.561,-1194.58 L-556.313,-1194.3 C-574.317,-1194.15 -613.224,-1193.47 -642.77,-1192.8 L-642.77,-1192.77 Z M-1127.83,-1088.41 C-1131.58,-1087.47 -1137.34,-1086.04 -1140.61,-1085.25 C-1150.21,-1082.95 -1153.79,-1074.04 -1155.94,-1047.08 C-1161.21,-981.373 -1163.1,-958.339 -1166.17,-923.473 C-1168.01,-902.366 -1172.24,-852.122 -1175.55,-811.8 C-1181.05,-744.625 -1185.28,-695.046 -1190.06,-641.306 C-1193.47,-602.962 -1198.53,-542.42 -1198.55,-539.641 C-1198.56,-537.953 -1194.69,-534.85 -1188.76,-531.815 C-1068.24,-469.857 -1011,-440.993 -1008.68,-440.993 C-1007.12,-440.993 -1005.14,-442.715 -1004.3,-444.829 C-1002.24,-450.029 -994.499,-530.826 -982.036,-677.127 C-980.126,-699.632 -976.239,-744.898 -973.409,-777.718 C-970.579,-810.538 -967.169,-851.201 -965.822,-868.08 C-964.475,-884.959 -961.832,-918.324 -959.923,-942.245 C-958.013,-966.165 -956.462,-988.79 -956.462,-992.54 C-956.462,-1001.29 -959.48,-1012.15 -961.884,-1012.15 C-962.907,-1012.15 -994.533,-1028 -1032.13,-1047.39 C-1114.08,-1089.62 -1116.1,-1090.63 -1118.82,-1090.35 C-1120,-1090.23 -1124.02,-1089.36 -1127.77,-1088.43 L-1127.83,-1088.41 Z M1006.76,-1067.32 C998.318,-1064.05 984.508,-1058.81 976.069,-1055.67 C967.629,-1052.54 946.693,-1044.52 929.541,-1037.87 C912.389,-1031.23 897.301,-1025.79 896.005,-1025.79 C892.663,-1025.79 882.792,-1012.76 882.706,-1008.26 C882.672,-1006.18 884.343,-987.596 886.423,-966.966 C889.577,-935.664 891.197,-921.905 891.009,-912.63 C890.822,-903.355 888.844,-898.547 884.82,-885.129 C880.831,-871.848 875.733,-858.618 873.312,-855.293 C870.925,-852.019 860.593,-841.04 850.347,-830.929 L831.712,-812.533 L818.993,-813.027 L806.274,-813.522 L798.857,-829.719 C787.247,-855.071 786.19,-859.317 787.826,-874.047 C788.611,-881.072 793.947,-910.277 799.71,-938.937 L810.178,-991.04 L802.097,-1003.54 L794.015,-1016.03 L779.336,-1014.98 C771.254,-1014.4 745.084,-1012.74 721.18,-1011.29 C693.765,-1009.64 680.586,-1008.91 673.579,-1007.61 C666.571,-1006.32 665.719,-1004.46 662.94,-1000.54 C658.336,-994.024 657.927,-992.404 635.814,-893.279 L629.267,-863.92 L631.79,-848.098 C638.917,-803.429 647.084,-772.552 659.734,-742.273 L665.293,-728.991 L693.288,-705.616 C712.877,-689.266 723.192,-681.798 727.625,-680.741 C731.103,-679.923 746.618,-676.155 762.099,-672.404 C800.119,-663.146 806.564,-663.3 864.975,-674.689 C876.978,-677.025 900.472,-692.915 939.668,-725.206 C946.846,-731.105 953.461,-735.947 954.365,-735.947 C955.286,-735.947 956.479,-733.833 957.042,-731.259 C968.567,-677.314 982.871,-601.53 981.763,-600.405 C980.587,-599.228 717.907,-604.94 660.416,-607.412 L634.587,-608.52 L627.733,-601.905 C620.964,-595.375 620.777,-594.846 612.167,-558.634 C607.376,-538.464 599.635,-506.207 594.964,-486.924 L586.473,-451.87 L591.793,-442.033 C594.725,-436.628 597.982,-431.94 599.056,-431.599 C600.113,-431.275 714.309,-430.047 852.802,-428.888 C1067.39,-427.081 1105.03,-427.115 1107.45,-429.126 C1109.02,-430.422 1121.43,-444.386 1135.05,-460.156 L1159.81,-488.833 L1157.97,-497.733 C1153.76,-518.073 1138.46,-587.413 1131.18,-619.159 C1115.82,-686.146 1109.46,-714.294 1086.92,-815.227 C1074.36,-871.49 1061.33,-929.031 1057.97,-943.097 C1047.76,-985.942 1043.72,-1003.18 1036.39,-1035.16 C1028.38,-1070.13 1027.29,-1073.58 1024.27,-1073.41 C1023.07,-1073.34 1015.2,-1070.61 1006.76,-1067.34 L1006.76,-1067.32 Z M74.1563,-1027.3 C-3.87876,-1018.27 -12.7956,-1016.99 -15.5405,-1014.52 C-17.092,-1013.12 -19.5983,-1007.54 -21.1157,-1002.14 C-22.6331,-996.735 -26.4692,-984.306 -29.6233,-974.519 C-32.7945,-964.733 -40.1258,-941.767 -45.9225,-923.49 C-59.5109,-880.611 -66.3136,-859.385 -84.0791,-804.145 C-92.0752,-779.287 -100.958,-751.292 -103.839,-741.915 C-107.13,-731.173 -112.296,-719.512 -117.803,-710.373 C-122.611,-702.411 -131.34,-687.271 -137.205,-676.752 L-147.844,-657.622 L-139.865,-641.477 C-135.483,-632.594 -129.737,-619.722 -127.095,-612.868 C-123.395,-603.269 -120.309,-598.546 -113.677,-592.306 C-108.937,-587.856 -104.248,-584.208 -103.243,-584.225 C-102.254,-584.225 -89.1598,-588.896 -74.1563,-594.608 C-59.1529,-600.319 -35.369,-609.049 -21.3032,-614.01 L4.27084,-623.029 L40.0745,-625.024 C59.7666,-626.115 84.6928,-627.718 95.4509,-628.57 C106.226,-629.423 115.484,-629.576 116.047,-628.911 C117.189,-627.53 157.835,-503.82 168.917,-468.05 L176.112,-444.812 L183.903,-443.738 C188.2,-443.158 212.819,-441.931 238.649,-441.01 C264.461,-440.106 290.223,-438.998 295.883,-438.572 C301.544,-438.146 307.102,-438.35 308.227,-439.049 C309.352,-439.748 314.604,-446.807 319.889,-454.718 L329.505,-469.124 L323.521,-486.174 C315.439,-509.173 297.674,-556.571 283.881,-591.88 C273.225,-619.176 257.642,-659.907 226.816,-741.062 C190.672,-836.232 162.506,-910.124 152.396,-936.278 C143.718,-958.732 124.145,-1012.15 118.502,-1028.77 C117.547,-1031.57 108.17,-1031.26 74.1904,-1027.32 L74.1563,-1027.3 Z M81.2659,-792.807 C109.073,-723.962 110.881,-719.12 109.261,-718.114 C108.511,-717.653 83.6187,-716.733 53.9357,-716.085 L-0.00855331,-714.908 L-0.00855331,-718.625 C-0.00855331,-720.671 8.1581,-742.085 18.132,-766.21 C28.1059,-790.335 39.2903,-817.375 42.9559,-826.275 C51.958,-848.115 54.1062,-851.32 57.4479,-847.979 C58.863,-846.564 69.57,-821.74 81.2659,-792.79 L81.2659,-792.807 Z M307.733,-1021.42 C302.107,-1020.14 274.111,-1014.84 245.503,-1009.64 C216.894,-1004.44 191.882,-999.821 189.905,-999.36 C187.552,-998.832 184.295,-994.638 180.561,-987.34 L174.816,-976.139 L178.447,-966.438 C180.442,-961.101 194.849,-923.746 210.466,-883.424 C226.083,-843.103 242.962,-799.371 247.975,-786.243 C266.047,-738.931 281.852,-698.268 304.289,-641.323 C327.288,-582.946 332.148,-570.227 363.484,-486.174 C372.93,-460.855 381.13,-439.646 381.71,-439.049 C382.29,-438.452 413.865,-437.43 451.851,-436.765 C492.94,-436.049 511.899,-435.298 521.038,-437.566 C530.159,-439.833 529.46,-445.119 531.182,-456.457 C533.279,-470.198 536.501,-491.51 550.005,-580.798 C556.773,-625.604 572.476,-721.2 583.865,-787.095 C588.008,-811.016 597.3,-867.108 604.529,-911.743 L617.674,-992.916 L611.297,-1002.53 C607.649,-1008.04 606.353,-1010.66 602.022,-1011.6 C597.692,-1012.54 590.343,-1011.77 574.556,-1010.46 C563.763,-1009.56 538.07,-1007.56 517.44,-1006.01 L479.932,-1003.18 L474.561,-998.116 C470.793,-994.569 468.901,-990.921 468.219,-985.976 C467.69,-982.089 465.661,-967.018 463.718,-952.474 C461.774,-937.931 457.137,-904.173 453.42,-877.457 C444.435,-812.925 432.978,-728.582 431.818,-718.403 C431.29,-713.8 430.096,-710.492 429.09,-710.833 C428.101,-711.157 421.742,-727.883 414.973,-747.984 C402.391,-785.305 348.379,-944.257 334.892,-983.658 C330.784,-995.66 326.572,-1008.7 325.515,-1012.64 C323.606,-1019.79 321.065,-1024.22 319.037,-1023.93 C318.44,-1023.84 313.359,-1022.73 307.733,-1021.44 L307.733,-1021.42 Z M-219.093,-1015.32 C-282.704,-1012.57 -302.959,-1010.51 -319.685,-1005.04 C-338.541,-998.866 -349.026,-993.069 -370.014,-977.162 C-390.201,-961.869 -392.775,-958.936 -411.598,-929.748 L-426.789,-906.185 L-429.295,-888.829 C-434.597,-852.105 -431.102,-826.496 -415.11,-785.254 C-411.683,-776.422 -408.495,-767.506 -408,-765.46 C-407.421,-762.988 -412.689,-750.149 -423.754,-727.099 C-440.036,-693.17 -440.428,-692.079 -442.662,-673.7 C-443.923,-663.385 -445.441,-639.976 -446.055,-621.699 L-447.163,-588.453 L-441.076,-565.436 C-433.216,-535.668 -422.595,-505.133 -413.985,-487.435 C-408.273,-475.705 -405.392,-471.989 -396.662,-465.067 C-381.25,-452.842 -359.665,-439.322 -332.131,-424.677 L-307.75,-411.702 L-277.914,-412.793 C-220.406,-414.89 -135.517,-422.477 -66.5864,-431.701 L-45.3599,-434.531 L-36.3237,-442.34 C-31.3453,-446.636 -27.2876,-451.188 -27.2876,-452.45 C-27.2876,-453.712 -22.6842,-473.745 -17.0579,-496.949 C-11.4316,-520.153 -6.82831,-540.425 -6.82831,-541.993 C-6.82831,-543.562 -10.4769,-550.296 -14.9268,-556.963 L-23.0252,-569.085 L-35.9146,-568.181 C-43.0071,-567.687 -56.8171,-566.135 -66.6035,-564.72 C-168.525,-550.007 -225.367,-543.289 -248.077,-543.272 L-260.012,-543.255 L-276.209,-559.929 C-294.008,-578.257 -305.09,-593.329 -306.181,-600.711 C-306.574,-603.337 -307.341,-617.386 -307.869,-631.929 L-308.858,-658.355 L-296.276,-677.962 C-287.001,-692.42 -282.159,-698.336 -277.811,-700.502 C-264.666,-707.083 -244.411,-711.959 -223.338,-713.647 C-211.608,-714.584 -196.264,-715.812 -189.24,-716.375 C-170.707,-717.841 -169.394,-718.284 -164.365,-724.899 C-160.443,-730.048 -159.233,-734.668 -155.891,-757.412 C-153.743,-771.99 -151.475,-789.448 -150.844,-796.217 L-149.685,-808.509 L-158.807,-820.785 L-167.928,-833.061 L-182.42,-833.043 C-190.382,-833.043 -207.653,-832.327 -220.781,-831.475 C-233.909,-830.622 -253.192,-829.395 -263.626,-828.73 L-282.602,-827.519 L-288.774,-836.675 C-295.577,-846.768 -296.344,-852.36 -292.934,-867.091 C-291.042,-875.258 -290.24,-876.23 -279.295,-883.22 C-260.983,-894.933 -241.803,-897.865 -183.579,-897.865 L-138.177,-897.865 L-132.602,-903.986 C-125.952,-911.266 -122.901,-916.398 -122.815,-920.439 C-122.781,-922.075 -118.877,-937.676 -114.154,-955.1 L-105.544,-986.812 L-110.148,-994.774 C-112.688,-999.156 -116.967,-1005.99 -119.678,-1009.98 L-124.605,-1017.23 L-155.635,-1016.96 C-172.702,-1016.8 -201.242,-1016.05 -219.059,-1015.28 L-219.093,-1015.32 Z M-495.293,-1007.83 C-501.857,-1006.59 -530.637,-1002.38 -559.228,-998.474 L-611.229,-991.381 L-616.497,-985.874 L-621.765,-980.367 L-622.891,-951.485 C-624.971,-898.07 -629.284,-810.129 -630.069,-804.861 L-630.853,-799.644 L-668.771,-792.466 C-714.361,-783.839 -753.574,-776.883 -756.728,-776.849 C-758.553,-776.832 -758.791,-779.372 -757.888,-789.175 C-756.404,-805.168 -747.658,-895.478 -743.191,-940.847 L-739.713,-976.156 L-744.163,-983.743 C-746.618,-987.92 -749.568,-992.131 -750.727,-993.086 C-752.193,-994.314 -762.406,-993.359 -784.314,-990 C-811.048,-985.891 -828.83,-983.385 -889.458,-975.184 C-901.341,-973.581 -901.358,-973.53 -903.455,-940.489 C-906.269,-896.433 -911.912,-816.898 -915.202,-775.11 C-917.896,-740.823 -918.374,-738.061 -922.448,-732.486 C-927.137,-726.059 -929.012,-721.575 -943.692,-681.628 C-948.977,-667.255 -952.95,-654.587 -952.506,-653.496 C-952.063,-652.405 -946.249,-643.863 -939.583,-634.555 C-932.388,-624.512 -928.995,-621.716 -928.109,-611.862 C-927.222,-601.99 -928.825,-585.043 -931.655,-546.665 C-940.06,-432.349 -944.016,-382.496 -946.249,-362.532 C-947.647,-350.154 -947.443,-346.983 -944.919,-340.794 C-943.283,-336.804 -941.186,-333.548 -940.248,-333.548 C-939.31,-333.548 -905.945,-344.596 -866.083,-358.116 C-778.398,-387.85 -773.556,-389.555 -772.124,-391.123 C-771.493,-391.805 -769.601,-445.119 -767.913,-509.582 C-766.225,-574.046 -764.418,-627.496 -763.889,-628.331 C-762.235,-630.974 -638.099,-658.526 -636.223,-656.65 C-635.286,-655.713 -641.253,-508.27 -645.515,-427.063 L-646.555,-407.218 L-640.963,-398.932 C-637.877,-394.38 -635.132,-390.356 -634.859,-390.015 C-634.587,-389.657 -613.803,-396.051 -588.673,-404.217 C-563.559,-412.384 -529.648,-423.398 -513.331,-428.683 L-483.665,-438.316 L-484.705,-462.219 C-485.285,-475.364 -486.939,-509.906 -488.388,-538.976 C-491.798,-607.463 -493.997,-673.222 -493.077,-679.446 C-492.633,-682.446 -490.86,-685.038 -488.49,-686.112 C-485.439,-687.51 -481.909,-695.216 -471.612,-723.075 C-464.451,-742.443 -458.586,-759.032 -458.586,-759.936 C-458.586,-760.839 -464.059,-769.756 -470.759,-779.747 L-482.932,-797.905 L-480.068,-821.893 C-478.5,-835.089 -472.924,-878.241 -467.69,-917.796 L-458.177,-989.71 L-464.451,-1000.06 C-471.629,-1011.86 -472.566,-1012.1 -495.208,-1007.82 L-495.293,-1007.83 Z M125.304,-413.543 C114.052,-412.793 92.1945,-411.395 76.7137,-410.44 C45.4281,-408.514 34.5164,-405.837 -31.5499,-383.963 C-77.5321,-368.737 -105.152,-356.803 -112.245,-349.114 C-118.689,-342.123 -155.465,-296.107 -182.795,-260.832 C-192.837,-247.857 -204.277,-233.212 -208.182,-228.285 L-215.308,-219.317 L-216.11,-177.068 L-216.911,-134.82 L-209.205,-119.544 C-184.091,-69.7766 -154.646,-16.8723 -149.617,-12.4565 L-144.059,-7.59746 L-120.19,-8.63748 C-107.062,-9.20011 -82.8856,-10.4277 -66.4841,-11.3483 C-50.0826,-12.269 -13.3241,-14.1785 15.1824,-15.5766 C43.689,-16.9746 67.2001,-18.3386 67.4047,-18.5773 C67.6093,-18.816 69.4506,-26.6928 71.4795,-36.0699 C73.5084,-45.4471 75.793,-55.9154 76.5773,-59.3423 C78.2652,-66.7588 78.197,-66.8611 67.3536,-74.3117 C62.665,-77.534 39.4608,-94.5834 15.7792,-112.212 L-27.2705,-144.265 L-27.2705,-172.618 L-27.2705,-200.972 L-3.82762,-224.329 L19.6153,-247.687 L34.1073,-251.267 C64.3529,-258.718 105.544,-264.191 147.486,-266.305 L167.945,-267.345 L203.135,-248.59 C222.486,-238.276 241.36,-227.927 245.076,-225.591 L251.811,-221.329 L252.8,-183.257 C253.533,-155.33 253.26,-144.436 251.777,-142.373 C250.669,-140.821 239.007,-127.403 225.845,-112.536 C212.682,-97.6694 199.06,-81.9669 195.565,-77.6363 L189.205,-69.7595 L197.85,-50.3573 C202.606,-39.6844 207.687,-29.1138 209.153,-26.8633 L211.813,-22.7885 L236.756,-23.9137 C250.481,-24.5275 294.69,-25.7892 335.012,-26.7269 C376.766,-27.6816 394.77,-27.5452 404.164,-29.6082 C413.558,-31.6712 414.36,-35.9506 421.708,-45.754 L428.954,-55.421 L431.051,-93.4923 C433.506,-138.128 436.336,-212.65 436.746,-243.919 L437.035,-265.913 L431.921,-270.345 C427.351,-274.301 414.615,-284.292 352.044,-332.985 C331.977,-348.585 271.946,-394.243 269.423,-395.795 C268.468,-396.392 263.046,-397.619 257.386,-398.54 C251.726,-399.443 235.137,-403.638 220.525,-407.832 C194.303,-415.351 193.638,-415.453 169.854,-415.214 C156.607,-415.078 136.557,-414.345 125.304,-413.611 L125.304,-413.543 Z M-307.75,-365.004 C-314.314,-363.793 -350.748,-357.349 -388.735,-350.682 C-426.703,-344.016 -466.002,-337.111 -476.044,-335.338 C-496.793,-331.672 -497.083,-331.536 -504.432,-323.079 L-509.836,-316.856 L-511.507,-243.8 C-512.428,-203.614 -513.945,-141.981 -514.883,-106.808 C-515.821,-71.6521 -517.372,-12.5589 -518.31,24.4724 C-519.265,61.5036 -520.782,119.437 -521.686,153.195 C-522.589,186.953 -524.499,262.516 -525.914,321.132 C-527.329,379.747 -529.665,471.422 -531.097,524.872 C-532.529,578.322 -534.422,651.975 -535.325,688.546 C-536.212,725.117 -537.729,783.426 -538.701,818.121 C-539.656,852.817 -541.224,915.729 -542.162,957.926 C-543.117,1000.12 -544.668,1064.57 -545.606,1101.14 C-548.879,1227.46 -550.141,1309.18 -548.982,1320.23 C-548.163,1328.03 -545.401,1336.61 -539.69,1349.21 C-530.21,1370.11 -517.219,1402.28 -508.012,1427.64 C-504.432,1437.49 -497.322,1455.12 -492.19,1466.85 C-487.058,1478.58 -477.067,1502.35 -470.009,1519.7 C-450.658,1567.13 -373.97,1757.13 -372.862,1760.39 C-371.157,1765.37 -356.204,1765.95 -335.012,1761.86 C-324.697,1759.86 -314.229,1757.85 -311.739,1757.35 C-308.96,1756.83 -305.38,1753.84 -302.499,1749.68 L-297.793,1742.88 L-295.577,1577.16 C-293.377,1411.88 -291.28,1230.2 -288.126,931.5 C-287.205,844.752 -285.688,722.781 -284.75,660.414 C-283.796,598.048 -282.261,469.547 -281.323,374.837 C-280.386,280.128 -278.851,142.028 -277.896,67.9483 C-276.959,-6.1313 -275.424,-130.302 -274.47,-207.962 L-272.748,-349.182 L-278.306,-358.372 C-284.631,-368.84 -285.688,-369.079 -307.733,-364.987 L-307.75,-365.004 Z M390.422,8.53124 C388.07,8.85518 363.518,10.6624 335.864,12.5208 C291.28,15.5385 267.002,17.2946 171.338,24.5065 C158.21,25.4954 135.585,27.3879 121.042,28.7007 C106.499,30.0135 87.7105,31.565 79.2711,32.1617 C70.8316,32.7414 50.4917,34.2758 34.0902,35.5716 C17.6887,36.8673 -2.65121,38.3677 -11.0907,38.9132 C-19.5301,39.4588 -47.1501,41.3854 -72.4684,43.1926 C-97.7868,45.0169 -131.152,47.3186 -146.633,48.3075 C-174.202,50.0806 -186.887,50.6773 -194.082,52.5528 C-201.277,54.4282 -202.964,57.5823 -208.574,64.4532 L-216.11,73.711 L-216.894,139.88 L-217.678,206.048 L-212.683,214.999 C-209.938,219.927 -207.056,223.95 -206.272,223.95 C-205.488,223.95 -179.283,220.847 -148.048,217.045 C-71.1215,207.702 -45.8202,204.872 -45.1894,205.503 C-44.8996,205.793 -44.1153,213.789 -43.4504,223.251 L-42.2399,240.471 L-62.4775,252.065 C-73.6107,258.441 -92.689,269.557 -104.879,276.769 C-135.057,294.62 -191.712,327.474 -201.703,332.896 C-206.187,335.334 -212.717,340.244 -216.195,343.79 L-222.52,350.269 L-222.963,433.3 L-223.407,516.33 L-216.996,523.542 C-209.358,532.118 -171.935,550.463 -167.212,547.923 C-163.802,546.098 -101.555,493.535 -56.4591,454.407 C-37.3467,437.818 -14.33,417.87 -5.31091,410.095 C3.70821,402.304 18.5582,389.449 27.6967,381.538 C36.8352,373.627 45.1382,367.131 46.1441,367.131 C47.15,367.131 51.9409,370.524 56.8,374.65 C91.1545,403.889 166.189,463.682 173.895,467.944 L183.272,473.127 L228.453,473.383 C265.86,473.587 279.056,472.974 305.175,469.819 L336.717,466 L343.537,458.669 C347.287,454.628 362.308,437.954 376.936,421.587 C391.548,405.236 409.961,384.658 417.855,375.877 C425.749,367.097 435.058,356.629 438.57,352.622 L444.929,345.342 L445.014,206.918 L445.1,68.4939 L427.76,37.9414 L410.421,7.38894 L402.544,7.64468 C398.214,7.78107 392.758,8.17321 390.405,8.49715 L390.422,8.53124 Z M287.069,227.684 L288.262,289.386 L282.159,298.251 C277.18,305.48 274.964,308.993 270.446,310.766 C265.928,312.539 259.108,312.556 244.94,312.829 L219.639,313.306 L204.874,300.621 C196.741,293.648 176.606,276.684 160.085,262.925 L130.078,237.914 L127.879,211.3 C126.668,196.671 126.072,184.293 126.549,183.816 C128.22,182.145 262.279,166.886 281.477,166.17 L285.893,165.999 L287.086,227.701 L287.069,227.684 Z M99.7303,508.624 C94.104,509.374 83.738,510.533 76.7137,511.215 C64.8985,512.357 26.4521,525.451 -33.2549,548.69 C-38.8811,550.872 -54.6177,556.993 -68.2061,562.261 C-90.5578,570.939 -93.712,572.678 -101.06,580.487 C-109.38,589.318 -129.089,614.824 -191.251,697.258 L-226.493,743.99 L-227.703,755.311 C-228.368,761.534 -228.419,773.997 -227.805,782.999 C-226.152,807.278 -221.77,883.011 -220.508,909.063 C-219.724,925.276 -218.701,932.505 -216.979,934.227 C-215.649,935.557 -213.825,939.291 -212.938,942.496 C-212.086,945.599 -211.66,947.151 -203.05,953.766 C-194.44,960.381 -177.663,972.043 -144.076,995.384 C-101.862,1024.73 -80.4646,1038.93 -78.4698,1038.93 C-77.4639,1038.93 -72.2468,1041.13 -66.8762,1043.8 C-54.4302,1050.01 -53.5436,1050.21 -19.3085,1054.27 C30.0154,1060.12 76.0317,1062.08 106.908,1059.66 C139.865,1057.07 144.775,1056.25 191.797,1045.54 C240.456,1034.46 251.47,1031.31 292.252,1016.83 C318.61,1007.47 331.278,1003.09 340.144,997.924 C349.009,992.758 354.056,986.791 365.189,974.242 C395.418,940.212 443.736,886.915 467.827,861.034 L489.82,837.404 L487.808,808.181 C485.387,772.872 483.273,746.446 479.028,697.974 C477.255,677.805 475.311,654.618 474.68,646.434 L473.555,631.55 L463.104,622.479 C450.607,611.619 393.883,565.006 360.603,538.238 C340.399,521.99 335.574,518.887 329.062,517.95 C324.833,517.336 319.446,515.819 317.11,514.557 C314.757,513.312 302.874,511.437 290.683,510.397 C263.933,508.112 114.12,506.782 99.7303,508.692 L99.7303,508.624 Z M263.797,687.966 C282.892,697.19 299.157,704.743 299.941,704.743 C303.743,704.743 305.261,711.358 306.795,734.716 C307.716,748.713 308.977,766.308 309.608,773.844 L310.734,787.535 L278.544,817.524 C255.817,838.7 245.98,848.282 237.643,853.771 C229.289,859.261 222.435,860.642 205.692,865.416 C162.233,877.811 91.666,892.286 74.736,892.286 C68.1549,892.286 18.9504,882.943 1.6964,878.408 C-12.2841,874.742 -28.839,868.519 -41.1487,862.313 C-48.2753,858.716 -49.1449,857.625 -50.0996,851.009 C-53.2197,829.476 -54.3279,809.085 -53.3902,790.501 L-52.3331,769.701 L-19.0868,737.648 C2.10559,717.206 16.3759,704.76 20.2973,703.294 C23.6731,702.032 49.8439,693.831 78.4357,685.085 L130.436,669.178 L179.76,670.184 L229.084,671.19 L263.814,687.966 L263.797,687.966 Z M347.799,1048.37 C300.981,1058.24 220.986,1080.92 212.324,1086.79 C208.966,1089.05 198.804,1099.73 189.734,1110.52 C180.664,1121.31 168.167,1135.89 161.944,1142.91 C155.721,1149.94 144.894,1162.66 137.887,1171.15 C116.388,1197.16 44.8654,1280.57 23.9458,1304.03 C13.0683,1316.22 0.468829,1330.61 -4.08336,1336 L-12.3353,1345.8 L-27.9013,1345.78 C-48.1731,1345.77 -55.9135,1344.42 -57.0899,1340.74 C-57.6014,1339.13 -57.2604,1319.24 -56.3227,1296.56 C-54.6348,1255.39 -54.6177,1255.3 -49.8951,1248.69 C-47.2865,1245.04 -32.4535,1225.69 -16.9386,1205.69 L11.2781,1169.32 L4.35609,1149.05 C-0.639384,1134.4 -3.50368,1128.4 -5.95879,1127.41 C-11.0395,1125.37 -131.698,1107.69 -162.08,1104.55 L-173.281,1103.39 L-184.619,1116.06 C-196.298,1129.12 -198.549,1133.67 -213.024,1173.62 C-215.564,1180.64 -222.878,1200.22 -229.272,1217.09 L-240.882,1247.78 L-239.842,1286.14 C-238.001,1354.03 -231.147,1418.72 -224.378,1432.09 C-219.877,1440.97 -192.257,1467.67 -149.361,1504.6 C-136.864,1515.36 -130.897,1520.56 -126.004,1523.64 C-121.11,1526.73 -117.291,1527.73 -109.091,1530.07 C-95.6215,1533.91 -92.1264,1534.18 -59.6473,1533.84 C-9.53916,1533.31 5.80528,1531.23 51.7363,1518.66 C65.6998,1514.84 76.7989,1510.67 82.4252,1507.1 C87.2672,1504.04 92.5014,1501.07 94.0529,1500.51 C95.6044,1499.94 101.691,1493.11 107.59,1485.3 C113.489,1477.49 127.265,1459.6 138.194,1445.54 C157.05,1421.29 167.331,1407.86 221.65,1336.37 C234.301,1319.71 250.43,1298.73 257.488,1289.71 C264.547,1280.71 275.578,1266.04 282.005,1257.14 C296.173,1237.52 296.634,1237.13 304.715,1237.64 C308.261,1237.86 314.706,1238.12 319.037,1238.22 C323.674,1238.32 325.89,1238.05 327.306,1242.31 C328.721,1246.57 329.351,1255.37 330.801,1273.61 C331.772,1285.67 332.932,1297.21 333.375,1299.27 C334.125,1302.68 324.203,1318.35 283.608,1377.87 C282.005,1380.22 283.028,1384.01 288.978,1397.82 L296.327,1414.87 L383.875,1414.92 L471.424,1414.97 L494.441,1403.24 C507.091,1396.79 517.594,1391.37 517.781,1391.22 C518.634,1390.44 502.352,1215.37 497.868,1176.91 C496.93,1168.88 496.163,1159.04 496.163,1155.05 C496.163,1145.49 494.526,1142.83 482.745,1133.16 C477.272,1128.68 464.059,1117.3 453.369,1107.88 C442.679,1098.45 427.419,1085.4 419.44,1078.89 C411.478,1072.38 398.913,1061.86 391.531,1055.53 C383.739,1048.85 380.022,1045.53 374.669,1044.66 C369.298,1043.77 362.274,1045.34 347.833,1048.37 L347.799,1048.37 Z M367.406,1478.94 C364.593,1479.81 344.645,1485.11 323.077,1490.75 C233.108,1514.25 227.856,1515.83 224.191,1520.76 C222.315,1523.27 212.461,1536.16 202.299,1549.37 C184.261,1572.85 129.175,1645.03 114.58,1664.33 C110.557,1669.65 97.8379,1686.28 86.3125,1701.28 C74.7871,1716.28 51.2248,1747.3 33.9538,1770.18 C16.6828,1793.07 -1.30431,1816.86 -6.00994,1823.03 L-14.5687,1834.26 L-35.4031,1834.23 C-53.0151,1834.21 -56.6978,1833.74 -59.2381,1831.2 C-61.9319,1828.5 -62.307,1823.61 -62.7844,1785.59 L-63.3129,1742.98 L-51.7023,1725 C-45.3088,1715.11 -31.1237,1693.5 -20.178,1676.98 L-0.281344,1646.96 L-5.07222,1634.05 C-14.7563,1608.04 -16.3078,1605.51 -23.4344,1604.46 C-88.3926,1594.87 -129.635,1588.69 -156.01,1584.54 L-188.404,1579.46 L-205.027,1596.05 L-221.651,1612.64 L-224.225,1627.11 C-230.84,1664.25 -244.292,1763.07 -247.992,1801.85 C-249.424,1816.86 -251.351,1835.07 -252.271,1842.33 L-253.942,1855.53 L-237.796,1911.38 C-222.077,1965.75 -215.138,1990.42 -210.603,2003.02 C-206.084,2015.62 -203.987,2016.15 -198.02,2022.25 L-187.535,2032.92 L-62.5116,2032.86 L62.5115,2032.79 L67.7627,2027.28 C70.6611,2024.26 86.9433,2003.75 103.976,1981.71 C121.008,1959.66 141.28,1933.59 149.02,1923.74 C156.778,1913.89 171.679,1894.7 182.147,1881.12 C192.615,1867.53 215.445,1837.98 232.886,1815.48 C250.328,1792.97 273.856,1762.28 285.194,1747.28 C296.531,1732.28 309.199,1715.98 313.376,1711.05 L320.963,1702.1 L336.802,1702.1 L352.641,1702.1 L353.545,1714.46 C356.63,1756.84 358.233,1776.88 357.79,1787.86 C357.364,1798.85 354.908,1800.8 349.913,1807.04 C342.855,1815.85 295.935,1877.19 282.602,1895.06 C280.028,1898.52 277.896,1902.36 277.896,1903.59 C277.862,1907.46 293.821,1951.8 295.713,1953.12 C296.702,1953.8 344.815,1954.38 402.63,1954.39 L507.739,1954.43 L517.832,1944.63 C523.373,1939.24 537.337,1925.62 548.845,1914.36 L569.782,1893.9 L568.674,1875.15 C568.06,1864.83 565.315,1824.94 562.553,1786.49 C559.791,1748.05 556.535,1700.41 555.307,1680.63 L553.073,1644.68 L528.318,1612.44 C514.695,1594.7 489.616,1561.63 472.566,1538.94 C446.839,1504.67 440.633,1497.4 436.047,1496.09 C433.012,1495.22 419.901,1490.58 406.926,1485.79 C383.347,1477.06 377.056,1475.97 367.44,1478.92 L367.406,1478.94 Z " fill="#fefefe" fill-opacity="1.00" />				<path d="M-158.772,-2032.11 C-160.29,-2031.79 -163.938,-2028.53 -166.871,-2024.88 C-172.122,-2018.35 -172.207,-2017.94 -172.31,-1998.97 C-172.361,-1988.36 -173.435,-1954.76 -174.679,-1924.27 L-176.947,-1868.86 L-172.634,-1862.43 C-170.264,-1858.9 -166.7,-1855.65 -164.723,-1855.22 C-162.745,-1854.8 -144.263,-1853.26 -123.634,-1851.81 C-47.5422,-1846.51 78.9131,-1836.81 115.893,-1833.43 L138.893,-1831.34 L140.12,-1822.81 C141.467,-1813.55 144.417,-1766.14 145.866,-1730.74 C147.059,-1701.45 147.503,-1699.12 153.01,-1693.1 L157.698,-1687.97 L241.223,-1688.04 L324.748,-1688.1 L325.788,-1839.84 C326.368,-1923.3 326.214,-1993.22 325.481,-1995.23 C324.663,-1997.43 321.202,-1999.92 316.769,-2001.51 C309.216,-2004.2 242.877,-2017.14 188.353,-2026.55 C171.474,-2029.47 155.993,-2032.26 153.947,-2032.76 C151.237,-2033.42 148.151,-2031.73 142.439,-2026.47 L134.648,-2019.27 L134.648,-1992.03 C134.648,-1967.07 134.409,-1964.88 131.749,-1965.89 C128.186,-1967.25 97.7697,-1974.58 57.9253,-1983.67 C41.5238,-1987.42 6.98175,-1995.47 -18.7969,-2001.59 C-57.3115,-2010.71 -122.236,-2025.44 -150.077,-2031.39 C-153.351,-2032.09 -157.289,-2032.4 -158.806,-2032.08 L-158.772,-2032.11 Z " fill="#000000" fill-opacity="1.00" stroke-width="0.19" stroke="#000000" stroke-linecap="square" stroke-linejoin="miter" />				<path d="M-309.455,-1983.84 C-402.493,-1943.61 -425.885,-1932.75 -428.664,-1928.52 C-430.591,-1925.57 -431.494,-1910.73 -432.944,-1857.61 C-437.206,-1701.33 -439.9,-1602.35 -441.519,-1541.51 C-442.474,-1505.88 -444.077,-1446.41 -445.066,-1409.38 C-449.669,-1238.84 -449.72,-1234.76 -447.504,-1231.54 C-446.327,-1229.83 -445.748,-1227.04 -446.191,-1225.3 C-446.992,-1222.23 -438.655,-1215.92 -416.866,-1203.1 C-413.115,-1200.9 -401.982,-1193.98 -392.144,-1187.72 C-315.337,-1138.93 -289.507,-1122.95 -287.461,-1122.95 C-284.188,-1122.95 -265.757,-1132.74 -262.364,-1136.27 C-259.244,-1139.52 -257.011,-1201.74 -247.242,-1557.71 C-246.27,-1592.87 -244.735,-1643.9 -243.832,-1671.09 C-242.911,-1698.28 -241.377,-1745.46 -240.405,-1775.94 C-239.433,-1806.43 -237.847,-1851.3 -236.893,-1875.68 C-235.938,-1900.06 -234.761,-1937.26 -234.301,-1958.37 L-233.449,-1996.73 L-238.223,-2003.42 C-240.848,-2007.1 -243.764,-2010.32 -244.701,-2010.61 C-245.639,-2010.88 -274.793,-1998.85 -309.489,-1983.84 L-309.455,-1983.84 Z " fill="#000000" fill-opacity="1.00" stroke-width="0.19" stroke="#000000" stroke-linecap="square" stroke-linejoin="miter" />				<path d="M-117.939,-1790.01 L-173.64,-1789.53 L-178.891,-1782.4 L-184.142,-1775.28 L-184.074,-1728.31 L-184.006,-1681.34 L-179.88,-1676.29 L-175.754,-1671.24 L-144.553,-1671.17 L-113.353,-1671.11 L-112.893,-1643.67 L-112.432,-1616.24 L-143.462,-1615.12 C-176.197,-1613.92 -179.726,-1613.07 -184.756,-1605.02 C-186.597,-1602.07 -187.364,-1589.13 -188.149,-1547.5 L-189.154,-1493.79 L-185.029,-1489.1 L-180.903,-1484.42 L-95.9966,-1483.6 C-49.2984,-1483.15 64.9836,-1482.3 157.971,-1481.7 L327.033,-1480.63 L335.046,-1488.01 L343.059,-1495.39 L341.917,-1510.77 C341.286,-1519.23 339.7,-1535.75 338.371,-1547.46 C337.041,-1559.19 334.807,-1581.05 333.392,-1596.05 C330.323,-1628.47 329.266,-1630.32 314.604,-1628.58 C309.881,-1628.02 271.503,-1626.81 229.306,-1625.87 C187.108,-1624.94 123.207,-1623.38 87.3013,-1622.41 C51.3953,-1621.44 21.2861,-1621.1 20.3825,-1621.66 C19.4618,-1622.24 18.7457,-1633.31 18.7457,-1647.12 C18.7457,-1661.3 18.4048,-1667.92 20.6553,-1671 C22.9058,-1674.09 27.7308,-1673.63 38.0627,-1673.63 C45.7179,-1673.63 59.4938,-1674.14 68.6493,-1674.74 L85.3236,-1675.85 L90.4725,-1682.84 L95.6214,-1689.83 L95.1099,-1735.33 L94.5985,-1780.84 L89.5859,-1786.05 L84.5734,-1791.27 L11.1588,-1790.86 C-29.2142,-1790.64 -87.3355,-1790.25 -117.973,-1789.99 L-117.939,-1790.01 Z " fill="#000000" fill-opacity="1.00" stroke-width="0.19" stroke="#000000" stroke-linecap="square" stroke-linejoin="miter" />				<path d="M327.34,-1444.23 C325.925,-1443.92 297.554,-1442.85 264.257,-1441.83 C230.959,-1440.8 186.086,-1439.25 164.518,-1438.35 C142.951,-1437.46 101.145,-1435.94 71.5989,-1434.97 C42.0523,-1434 -4.35612,-1432.4 -31.5499,-1431.41 C-58.7437,-1430.42 -103.669,-1429.06 -131.374,-1428.37 C-180.101,-1427.18 -181.925,-1427.01 -187.211,-1423.26 C-192.07,-1419.8 -194.116,-1421.47 -195.991,-1404.5 C-197.867,-1387.52 -199.589,-1351.89 -203.766,-1273.84 C-205.215,-1246.64 -207.176,-1207.14 -208.096,-1186.03 C-209.017,-1164.93 -210.517,-1134.63 -211.421,-1118.69 L-213.075,-1089.7 L-203.715,-1080.48 L-194.354,-1071.26 L-182.863,-1073.2 C-166.274,-1076 -79.9531,-1087.15 -74.8553,-1087.15 C-73.9347,-1087.15 -70.5248,-1090.03 -67.3024,-1093.54 L-61.4375,-1099.93 L-61.4375,-1116.98 C-61.4545,-1143.02 -56.101,-1297.59 -55.1462,-1298.56 C-54.6859,-1299.04 -42.1717,-1299.65 -27.3216,-1299.96 L-0.332467,-1300.5 L0.673447,-1289.73 C2.22494,-1273.04 6.79418,-1151.99 6.79418,-1127.55 C6.79418,-1104.21 7.88534,-1099.97 15.9156,-1092.48 C19.9393,-1088.72 21.4907,-1088.46 37.8241,-1088.72 C47.4911,-1088.87 73.031,-1090.11 94.5985,-1091.48 C116.166,-1092.84 135.602,-1093.97 137.802,-1093.97 C140.223,-1093.97 143.905,-1096.37 147.179,-1100.07 L152.566,-1106.16 L153.419,-1205.35 L154.271,-1304.54 L180.63,-1305.81 C195.122,-1306.5 207.517,-1306.5 208.147,-1305.81 C209.443,-1304.39 216.468,-1186.12 218.036,-1139.17 L219.059,-1108.48 L224.702,-1101.47 L230.346,-1094.46 L264.768,-1093.34 C283.71,-1092.72 313.649,-1092.11 331.312,-1091.99 L363.416,-1091.77 L369.486,-1097.84 C375.487,-1103.84 375.555,-1104.09 375.283,-1117.27 C375.129,-1124.62 374.242,-1142.92 373.322,-1157.92 C372.384,-1172.92 370.065,-1212.82 368.156,-1246.58 C366.246,-1280.33 363.587,-1324.07 362.24,-1343.76 C360.893,-1363.45 358.949,-1392.23 357.926,-1407.69 C356.085,-1435.62 356.034,-1435.86 351.038,-1440.51 C346.929,-1444.35 344.56,-1445.17 337.944,-1445 C333.512,-1444.89 328.721,-1444.55 327.323,-1444.25 L327.34,-1444.23 Z " fill="#000000" fill-opacity="1.00" stroke-width="0.19" stroke="#000000" stroke-linecap="square" stroke-linejoin="miter" />				<path d="M458.688,-1198.04 C456.591,-1195.94 446.771,-1181.82 436.865,-1166.68 L418.878,-1139.17 L420.77,-1130.64 C427.624,-1099.71 430.966,-1084.49 433.591,-1076.12 C436.2,-1067.75 438.075,-1066.21 441.98,-1062.7 L449.243,-1056.15 L466.292,-1057.14 C475.669,-1057.69 507.125,-1058.91 536.195,-1059.89 C639.463,-1063.33 813.008,-1069.69 854.063,-1071.55 L878.683,-1072.66 L887.923,-1084.59 C893.004,-1091.15 899.125,-1099.44 901.512,-1102.99 L905.859,-1109.45 L899.193,-1116.37 C895.527,-1120.17 875.358,-1138.67 854.37,-1157.48 C821.806,-1186.66 815.191,-1191.86 809.189,-1192.96 C797.783,-1195.05 760.411,-1196.26 654.688,-1197.99 C599.84,-1198.87 534.149,-1200.12 508.728,-1200.73 L462.507,-1201.86 L458.688,-1198.04 Z " fill="#000000" fill-opacity="1.00" stroke-width="0.19" stroke="#000000" stroke-linecap="square" stroke-linejoin="miter" />				<path d="M-642.77,-1192.77 C-672.317,-1192.1 -743.276,-1190.64 -800.477,-1189.55 C-948.244,-1186.7 -1024.51,-1184.64 -1026.48,-1183.41 C-1028.27,-1182.3 -1050.25,-1139.35 -1050.25,-1136.97 C-1050.25,-1136.22 -1044.69,-1132.64 -1037.89,-1129 C-1031.09,-1125.37 -1012.49,-1115.35 -996.545,-1106.7 C-980.604,-1098.06 -945.687,-1079.66 -918.97,-1065.82 L-870.38,-1040.65 L-726.312,-1041.74 C-647.067,-1042.34 -528.301,-1043.33 -462.354,-1043.96 L-342.462,-1045.09 L-336.58,-1056.78 C-328.226,-1073.37 -324.049,-1084.57 -325.379,-1086.74 C-326.01,-1087.76 -339.956,-1095.84 -356.358,-1104.69 C-372.759,-1113.54 -391.155,-1123.48 -397.259,-1126.77 C-418.076,-1138.04 -459.455,-1160 -483.359,-1172.48 C-496.487,-1179.33 -510.91,-1187.11 -515.394,-1189.75 L-523.561,-1194.58 L-556.313,-1194.3 C-574.317,-1194.15 -613.224,-1193.47 -642.77,-1192.8 L-642.77,-1192.77 Z " fill="#000000" fill-opacity="1.00" stroke-width="0.19" stroke="#000000" stroke-linecap="square" stroke-linejoin="miter" />				<path d="M-1127.83,-1088.41 C-1131.58,-1087.47 -1137.34,-1086.04 -1140.61,-1085.25 C-1150.21,-1082.95 -1153.79,-1074.04 -1155.94,-1047.08 C-1161.21,-981.373 -1163.1,-958.339 -1166.17,-923.473 C-1168.01,-902.366 -1172.24,-852.122 -1175.55,-811.8 C-1181.05,-744.625 -1185.28,-695.046 -1190.06,-641.306 C-1193.47,-602.962 -1198.53,-542.42 -1198.55,-539.641 C-1198.56,-537.953 -1194.69,-534.85 -1188.76,-531.815 C-1068.24,-469.857 -1011,-440.993 -1008.68,-440.993 C-1005.85,-440.993 -1004.54,-440.396 -1002.63,-453.882 C-1000.74,-467.368 -998.25,-494.971 -993.135,-551.353 C-989.913,-586.782 -985.326,-638.766 -982.923,-666.897 C-980.519,-695.029 -976.239,-744.898 -973.409,-777.718 C-968.107,-839.096 -966.027,-864.619 -959.684,-945.876 C-956.308,-989.199 -956.257,-1005.11 -959.48,-1009.59 C-960.162,-1010.53 -971.84,-1016.84 -985.429,-1023.59 C-999.034,-1030.36 -1026.64,-1044.42 -1046.81,-1054.84 C-1108.3,-1086.64 -1116.28,-1090.57 -1118.67,-1090.35 C-1119.93,-1090.23 -1124.04,-1089.36 -1127.79,-1088.43 L-1127.83,-1088.41 Z " fill="#000000" fill-opacity="1.00" stroke-width="0.19" stroke="#000000" stroke-linecap="square" stroke-linejoin="miter" />				<path d="M1006.76,-1067.35 C998.318,-1064.06 984.508,-1058.79 976.069,-1055.66 C967.629,-1052.52 946.693,-1044.51 929.541,-1037.86 C912.389,-1031.21 897.301,-1025.77 896.005,-1025.77 C892.663,-1025.77 882.792,-1012.74 882.706,-1008.24 C882.672,-1006.16 884.343,-987.579 886.423,-966.949 C889.577,-935.647 891.197,-921.888 891.009,-912.613 C890.822,-903.338 888.844,-898.53 884.82,-885.112 C880.831,-871.831 875.733,-858.6 873.312,-855.276 C870.925,-852.002 860.593,-841.023 850.347,-830.912 L831.712,-812.516 L818.993,-813.01 L806.274,-813.505 L798.857,-829.702 C787.247,-855.054 786.19,-859.299 787.826,-874.03 C788.611,-881.055 793.947,-910.26 799.71,-938.92 L810.178,-991.023 L802.097,-1003.52 L794.015,-1016.02 L779.336,-1014.96 C771.254,-1014.38 745.084,-1012.73 721.18,-1011.28 C693.765,-1009.62 680.586,-1008.89 673.579,-1007.6 C666.571,-1006.3 665.719,-1004.44 662.94,-1000.52 C658.336,-994.007 657.927,-992.387 635.814,-893.262 L629.267,-863.903 L631.79,-848.081 C638.917,-803.412 647.084,-772.535 659.734,-742.255 L665.293,-728.974 L693.288,-705.599 C712.877,-689.249 723.192,-681.781 727.625,-680.724 C731.103,-679.906 746.618,-676.138 762.099,-672.387 C800.119,-663.129 806.564,-663.283 864.975,-674.672 C876.978,-677.007 900.472,-692.898 939.668,-725.189 C946.846,-731.088 953.461,-735.93 954.365,-735.93 C955.286,-735.93 956.479,-733.816 957.042,-731.242 C968.567,-677.297 982.871,-601.513 981.763,-600.388 C980.587,-599.211 717.907,-604.923 660.416,-607.395 L634.587,-608.503 L627.733,-601.888 C620.964,-595.358 620.777,-594.829 612.167,-558.617 C607.376,-538.447 599.635,-506.19 594.964,-486.907 L586.473,-451.853 L591.793,-442.016 C594.725,-436.611 597.982,-431.923 599.056,-431.582 C600.113,-431.258 714.309,-430.03 852.802,-428.871 C1067.39,-427.064 1105.03,-427.098 1107.45,-429.109 C1109.02,-430.405 1121.43,-444.369 1135.05,-460.139 L1159.81,-488.816 L1157.97,-497.716 C1153.76,-518.056 1138.46,-587.396 1131.18,-619.142 C1115.82,-686.129 1109.46,-714.277 1086.92,-815.21 C1074.36,-871.473 1061.33,-929.014 1057.97,-943.08 C1047.76,-985.925 1043.72,-1003.16 1036.39,-1035.15 C1028.38,-1070.08 1027.29,-1073.54 1024.27,-1073.42 C1023.07,-1073.37 1015.2,-1070.64 1006.76,-1067.35 L1006.76,-1067.35 Z " fill="#000000" fill-opacity="1.00" stroke-width="0.19" stroke="#000000" stroke-linecap="square" stroke-linejoin="miter" />				<path d="M74.1563,-1027.3 C-3.87874,-1018.27 -12.7956,-1016.99 -15.5405,-1014.52 C-17.092,-1013.12 -19.5983,-1007.54 -21.1157,-1002.14 C-22.6331,-996.735 -26.4692,-984.306 -29.6233,-974.519 C-32.7945,-964.733 -40.1257,-941.767 -45.9225,-923.49 C-59.5109,-880.611 -66.3136,-859.385 -84.079,-804.145 C-92.0752,-779.287 -100.958,-751.292 -103.839,-741.914 C-107.13,-731.173 -112.296,-719.512 -117.803,-710.373 C-122.611,-702.411 -131.34,-687.271 -137.205,-676.752 L-147.844,-657.622 L-139.865,-641.477 C-135.483,-632.594 -129.737,-619.722 -127.095,-612.868 C-123.395,-603.269 -120.309,-598.546 -113.677,-592.306 C-108.937,-587.856 -104.248,-584.208 -103.243,-584.225 C-102.254,-584.225 -89.1598,-588.896 -74.1563,-594.608 C-5.60073,-620.676 1.98625,-622.893 27.2875,-624.223 C39.9382,-624.887 64.8814,-626.473 82.698,-627.735 C100.515,-628.996 115.535,-629.508 116.081,-628.86 C117.206,-627.53 157.954,-503.496 168.917,-468.05 L176.112,-444.812 L183.818,-443.755 C188.046,-443.175 212.307,-441.948 237.711,-441.027 C263.115,-440.106 288.927,-439.015 295.082,-438.606 C301.237,-438.197 307.17,-438.401 308.278,-439.083 C309.387,-439.765 314.604,-446.807 319.889,-454.735 L329.505,-469.141 L323.521,-486.191 C315.439,-509.19 297.674,-556.588 283.881,-591.897 C273.225,-619.193 257.642,-659.924 226.816,-741.079 C190.672,-836.249 162.506,-910.141 152.396,-936.295 C143.718,-958.749 124.145,-1012.16 118.502,-1028.79 C117.547,-1031.58 108.17,-1031.28 74.1904,-1027.34 L74.1563,-1027.3 Z M81.266,-792.807 C109.074,-723.961 110.881,-719.119 109.261,-718.113 C108.511,-717.653 83.6188,-716.733 53.9358,-716.085 L-0.00845018,-714.908 L-0.00845018,-718.625 C-0.00845018,-720.671 8.1582,-742.085 18.1321,-766.21 C28.106,-790.335 39.2904,-817.375 42.956,-826.275 C51.9581,-848.115 54.1063,-851.32 57.448,-847.979 C58.8631,-846.564 69.5701,-821.74 81.266,-792.79 L81.266,-792.807 Z " fill="#000000" fill-opacity="1.00" stroke-width="0.19" stroke="#000000" stroke-linecap="square" stroke-linejoin="miter" />				<path d="M307.733,-1021.42 C302.107,-1020.14 274.111,-1014.84 245.503,-1009.64 C216.894,-1004.44 191.882,-999.82 189.905,-999.36 C187.552,-998.832 184.295,-994.637 180.562,-987.34 L174.816,-976.139 L178.447,-966.438 C180.442,-961.101 194.849,-923.746 210.466,-883.424 C226.083,-843.103 242.962,-799.371 247.975,-786.243 C266.047,-738.931 281.852,-698.268 304.289,-641.323 C327.288,-582.946 332.148,-570.227 363.484,-486.174 C372.93,-460.855 381.13,-439.646 381.71,-439.049 C382.29,-438.452 413.865,-437.43 451.851,-436.765 C492.804,-436.049 511.78,-435.349 520.935,-437.515 C530.091,-439.697 529.426,-444.761 531.08,-455.604 C533.893,-474.052 542.724,-532.378 550.022,-580.781 C556.722,-625.28 572.339,-720.483 583.865,-787.078 C588.008,-810.999 597.3,-867.091 604.529,-911.726 L617.674,-992.898 L611.297,-1002.51 C607.649,-1008.02 606.353,-1010.65 602.022,-1011.58 C597.692,-1012.52 590.343,-1011.76 574.556,-1010.44 C563.763,-1009.54 538.07,-1007.54 517.44,-1005.99 L479.932,-1003.16 L474.561,-998.099 C470.793,-994.552 468.901,-990.904 468.219,-985.959 C467.69,-982.072 465.661,-967 463.718,-952.457 C461.774,-937.914 457.137,-904.156 453.42,-877.44 C444.435,-812.908 432.978,-728.565 431.818,-718.386 C431.29,-713.783 430.096,-710.475 429.09,-710.816 C428.102,-711.14 421.742,-727.866 414.973,-747.967 C402.391,-785.288 348.379,-944.239 334.893,-983.641 C330.784,-995.643 326.572,-1008.69 325.515,-1012.62 C323.606,-1019.77 321.065,-1024.2 319.037,-1023.91 C318.44,-1023.83 313.359,-1022.72 307.733,-1021.42 Z " fill="#000000" fill-opacity="1.00" stroke-width="0.19" stroke="#000000" stroke-linecap="square" stroke-linejoin="miter" />				<path d="M-220.798,-1015.28 C-315.388,-1011.36 -329.658,-1007.73 -370.014,-977.162 C-390.201,-961.868 -392.775,-958.936 -411.598,-929.747 L-426.789,-906.185 L-429.295,-888.829 C-434.597,-852.105 -431.102,-826.496 -415.11,-785.254 C-411.683,-776.422 -408.495,-767.506 -408,-765.46 C-407.421,-762.987 -412.689,-750.149 -423.754,-727.098 C-440.036,-693.17 -440.428,-692.079 -442.662,-673.7 C-443.923,-663.385 -445.441,-639.976 -446.055,-621.699 L-447.163,-588.453 L-441.076,-565.436 C-433.216,-535.668 -422.595,-505.133 -413.985,-487.435 C-408.273,-475.705 -405.392,-471.989 -396.662,-465.067 C-381.25,-452.842 -359.665,-439.322 -332.131,-424.677 L-307.75,-411.702 L-277.913,-412.793 C-220.389,-414.89 -135.534,-422.477 -66.5523,-431.701 C-45.4622,-434.514 -45.2235,-434.599 -36.8522,-441.913 L-28.4298,-449.296 L-19.2402,-487.333 C-14.1766,-508.253 -9.21519,-529.598 -8.20927,-534.781 L-6.38499,-544.193 L-14.7051,-556.639 L-23.0252,-569.085 L-35.9145,-568.181 C-43.0071,-567.687 -56.8171,-566.135 -66.6034,-564.72 C-168.525,-550.007 -225.367,-543.289 -248.077,-543.272 L-260.012,-543.255 L-276.209,-559.929 C-299.89,-584.293 -304.579,-591.948 -306.795,-609.713 C-307.784,-617.659 -308.585,-631.861 -308.585,-641.255 L-308.568,-658.355 L-296.122,-677.962 C-286.881,-692.522 -282.159,-698.319 -277.811,-700.501 C-264.666,-707.082 -244.411,-711.959 -223.338,-713.646 C-211.608,-714.584 -196.264,-715.812 -189.24,-716.374 C-170.707,-717.841 -169.394,-718.284 -164.365,-724.899 C-160.443,-730.048 -159.233,-734.668 -155.891,-757.412 C-153.743,-771.99 -151.475,-789.448 -150.844,-796.217 L-149.685,-808.509 L-158.806,-820.785 L-167.928,-833.06 L-182.42,-833.043 C-190.382,-833.043 -207.653,-832.327 -220.781,-831.475 C-233.909,-830.622 -253.192,-829.395 -263.626,-828.73 L-282.602,-827.519 L-288.774,-836.675 C-295.577,-846.768 -296.344,-852.36 -292.934,-867.091 C-291.041,-875.258 -290.24,-876.229 -279.294,-883.22 C-260.983,-894.933 -241.803,-897.865 -183.579,-897.865 L-138.177,-897.865 L-132.602,-903.986 C-125.952,-911.266 -122.9,-916.398 -122.815,-920.439 C-122.781,-922.075 -118.877,-937.675 -114.154,-955.1 L-105.544,-986.812 L-110.148,-994.774 C-112.688,-999.156 -116.967,-1005.99 -119.678,-1009.98 L-124.605,-1017.23 L-155.635,-1016.96 C-172.702,-1016.8 -202.01,-1016.03 -220.764,-1015.27 L-220.798,-1015.28 Z " fill="#000000" fill-opacity="1.00" stroke-width="0.19" stroke="#000000" stroke-linecap="square" stroke-linejoin="miter" />				<path d="M-484.347,-1009.73 C-484.74,-1009.33 -513.451,-1005.04 -548.146,-1000.18 L-611.229,-991.347 L-616.497,-985.857 L-621.765,-980.367 L-622.891,-951.486 C-624.971,-897.95 -629.284,-810.129 -630.086,-804.844 L-630.87,-799.61 L-656.001,-794.87 C-696.527,-787.215 -754.256,-776.9 -756.711,-776.866 C-758.467,-776.849 -758.757,-779.253 -757.99,-787.487 C-755.944,-809.566 -746.567,-906.918 -743.208,-940.864 L-739.73,-976.173 L-744.18,-983.76 C-746.635,-987.937 -749.585,-992.148 -750.744,-993.103 C-752.21,-994.331 -762.423,-993.376 -784.331,-990.017 C-811.065,-985.908 -828.847,-983.402 -889.475,-975.201 C-901.358,-973.599 -901.375,-973.547 -903.472,-940.506 C-906.286,-896.45 -911.929,-816.915 -915.219,-775.127 C-917.913,-740.84 -918.391,-738.078 -922.465,-732.503 C-927.154,-726.076 -929.029,-721.592 -943.709,-681.645 C-948.994,-667.272 -952.967,-654.605 -952.523,-653.513 C-952.08,-652.422 -946.266,-643.881 -939.6,-634.572 C-932.405,-624.529 -929.012,-621.733 -928.126,-611.879 C-927.239,-602.007 -928.842,-585.06 -931.672,-546.682 C-940.077,-432.366 -944.033,-382.513 -946.266,-362.549 C-947.664,-350.171 -947.46,-347 -944.937,-340.811 C-943.3,-336.821 -941.203,-333.565 -940.265,-333.565 C-939.327,-333.565 -905.962,-344.613 -866.1,-358.133 C-778.466,-387.85 -773.59,-389.572 -772.124,-391.14 C-771.493,-391.822 -769.601,-445.119 -767.913,-509.6 C-766.225,-574.063 -764.435,-627.496 -763.906,-628.349 C-762.252,-631.008 -638.116,-658.543 -636.24,-656.685 C-635.303,-655.747 -641.27,-508.304 -645.532,-427.098 L-646.572,-407.252 L-640.98,-398.966 C-637.894,-394.414 -635.149,-390.39 -634.876,-390.049 C-634.604,-389.691 -613.82,-396.085 -588.69,-404.251 C-563.576,-412.418 -529.665,-423.432 -513.348,-428.717 L-483.683,-438.35 L-484.791,-463.958 C-485.405,-478.041 -486.632,-503.377 -487.536,-520.255 C-489.752,-561.788 -492.531,-631.162 -493.094,-658.935 L-493.554,-681.679 L-488.883,-685.396 C-485.268,-688.277 -481.347,-696.887 -471.407,-723.689 C-464.366,-742.699 -458.603,-759.015 -458.603,-759.936 C-458.603,-760.856 -464.076,-769.773 -470.776,-779.764 L-482.949,-797.922 L-480.085,-821.91 C-478.517,-835.106 -472.941,-878.258 -467.707,-917.813 L-458.194,-989.727 L-464.468,-1000.08 C-470.367,-1009.78 -471.151,-1010.43 -477.17,-1010.43 C-480.699,-1010.43 -483.904,-1010.1 -484.296,-1009.73 L-484.347,-1009.73 Z " fill="#000000" fill-opacity="1.00" stroke-width="0.19" stroke="#000000" stroke-linecap="square" stroke-linejoin="miter" />				<path d="M125.304,-413.577 C114.052,-412.844 92.1945,-411.446 76.7137,-410.474 C45.4451,-408.497 34.3289,-405.786 -31.5499,-383.963 C-77.5321,-368.738 -105.152,-356.803 -112.245,-349.114 C-118.689,-342.123 -155.465,-296.107 -182.795,-260.832 C-192.837,-247.857 -204.277,-233.212 -208.182,-228.285 L-215.308,-219.317 L-216.109,-177.068 L-216.911,-134.82 L-209.204,-119.544 C-184.091,-69.7766 -154.646,-16.8723 -149.617,-12.4565 L-144.059,-7.59747 L-119.337,-8.63747 C-105.749,-9.21716 -81.5728,-10.4447 -65.6316,-11.3654 C-49.6904,-12.286 -13.3241,-14.1785 15.1825,-15.5936 C43.689,-16.9917 67.2001,-18.3386 67.4047,-18.5943 C67.6093,-18.833 69.4507,-26.7098 71.4795,-36.087 C73.5084,-45.4641 75.793,-55.9325 76.5773,-59.3594 C78.2652,-66.7759 78.197,-66.8782 67.3536,-74.3287 C62.665,-77.5511 39.4608,-94.6005 15.7792,-112.23 L-27.2705,-144.282 L-27.2705,-172.636 L-27.2705,-200.989 L-3.82759,-224.346 L19.6153,-247.704 L34.1073,-251.284 C64.3529,-258.735 105.544,-264.208 147.486,-266.322 L167.945,-267.362 L203.135,-248.608 C222.486,-238.293 241.36,-227.944 245.076,-225.608 L251.811,-221.346 L252.8,-183.274 C253.533,-155.347 253.26,-144.453 251.777,-142.39 C250.669,-140.838 239.007,-127.421 225.845,-112.553 C212.683,-97.6864 199.06,-81.9839 195.565,-77.6534 L189.206,-69.7766 L197.85,-50.3744 C202.606,-39.7014 207.687,-29.1308 209.153,-26.8803 L211.813,-22.8055 L236.756,-23.9308 C250.481,-24.5445 294.69,-25.8062 335.012,-26.7439 C376.766,-27.6987 394.77,-27.5623 404.164,-29.6253 C413.558,-31.6882 414.36,-35.9676 421.708,-45.771 L428.954,-55.438 L431.051,-93.5093 C433.506,-138.145 436.336,-212.667 436.746,-243.936 L437.035,-265.93 L431.921,-270.363 C427.351,-274.318 414.615,-284.309 352.044,-333.002 C331.977,-348.602 271.946,-394.26 269.423,-395.812 C268.468,-396.409 263.046,-397.636 257.386,-398.557 C251.726,-399.461 235.137,-403.655 220.525,-407.849 C194.303,-415.368 193.638,-415.47 169.854,-415.231 C156.607,-415.095 136.557,-414.379 125.304,-413.646 L125.304,-413.577 Z " fill="#000000" fill-opacity="1.00" stroke-width="0.19" stroke="#000000" stroke-linecap="square" stroke-linejoin="miter" />				<path d="M-317.98,-363.214 C-330.17,-360.98 -355.488,-356.513 -374.243,-353.274 C-392.997,-350.034 -419.457,-345.397 -433.063,-342.976 C-446.668,-340.555 -466.002,-337.111 -476.044,-335.338 C-496.793,-331.672 -497.083,-331.536 -504.432,-323.079 L-509.836,-316.856 L-511.507,-243.8 C-512.428,-203.614 -513.945,-141.981 -514.883,-106.808 C-515.821,-71.652 -517.372,-12.5589 -518.31,24.4724 C-519.265,61.5036 -520.782,119.437 -521.686,153.195 C-522.589,186.953 -524.499,262.516 -525.914,321.132 C-527.329,379.747 -529.665,471.422 -531.097,524.872 C-532.529,578.322 -534.421,651.975 -535.325,688.546 C-536.212,725.117 -537.729,783.426 -538.701,818.121 C-539.656,852.817 -541.224,915.729 -542.162,957.926 C-543.117,1000.12 -544.668,1064.57 -545.606,1101.14 C-548.879,1227.46 -550.141,1309.18 -548.982,1320.23 C-548.163,1328.03 -545.401,1336.61 -539.69,1349.21 C-530.21,1370.11 -517.219,1402.28 -508.012,1427.64 C-504.432,1437.49 -497.322,1455.12 -492.19,1466.85 C-487.058,1478.58 -477.067,1502.35 -470.009,1519.7 C-450.658,1567.13 -373.97,1757.13 -372.862,1760.39 C-371.157,1765.37 -356.204,1765.95 -335.012,1761.86 C-324.697,1759.86 -314.229,1757.85 -311.739,1757.35 C-308.96,1756.83 -305.38,1753.84 -302.499,1749.68 L-297.793,1742.88 L-295.577,1577.16 C-293.411,1414.73 -291.468,1245.94 -288.126,932.352 C-287.205,846.082 -285.688,724.094 -284.733,661.267 C-283.796,598.44 -282.244,470.314 -281.306,376.542 C-280.369,282.771 -278.834,144.295 -277.879,68.8008 C-276.925,-6.69391 -275.39,-131.615 -274.452,-208.814 L-272.748,-349.182 L-278.306,-358.372 C-281.63,-363.861 -283.199,-366.589 -288.126,-367.186 C-293.036,-367.783 -301.305,-366.248 -317.962,-363.197 L-317.98,-363.214 Z " fill="#000000" fill-opacity="1.00" stroke-width="0.19" stroke="#000000" stroke-linecap="square" stroke-linejoin="miter" />				<path d="M390.422,8.53128 C388.07,8.85522 363.518,10.6625 335.864,12.5208 C291.434,15.5215 256.312,18.0789 172.19,24.4384 C159.54,25.3931 136.523,27.3026 121.042,28.6666 C105.561,30.0306 87.1479,31.565 80.1236,32.0765 C73.0992,32.588 52.3672,34.1395 34.0902,35.5375 C15.8133,36.9356 -21.0304,39.6123 -47.7468,41.4877 C-74.4632,43.3632 -107.471,45.6819 -121.059,46.6367 C-134.648,47.5914 -156.607,49.0577 -169.854,49.876 C-183.102,50.7115 -195.531,52.2288 -197.474,53.2859 C-199.435,54.3259 -204.414,59.3555 -208.557,64.4362 L-216.092,73.694 L-216.877,139.863 L-217.661,206.031 L-212.665,214.982 C-209.921,219.91 -207.039,223.933 -206.255,223.933 C-205.471,223.933 -179.266,220.83 -148.031,217.028 C-71.1045,207.685 -45.8032,204.855 -45.1723,205.486 C-44.8825,205.776 -44.0982,213.772 -43.4333,223.234 L-42.2228,240.454 L-62.4604,252.048 C-73.5937,258.424 -92.6719,269.54 -104.862,276.752 C-135.04,294.603 -191.695,327.457 -201.686,332.879 C-206.17,335.317 -212.7,340.227 -216.178,343.773 L-222.503,350.252 L-222.946,433.283 L-223.39,516.313 L-216.979,523.525 C-209.341,532.101 -171.917,550.446 -167.195,547.906 C-163.785,546.081 -101.538,493.518 -56.442,454.39 C-37.3296,437.801 -14.313,417.853 -5.29383,410.078 C3.72529,402.287 18.5753,389.432 27.7138,381.521 C36.8522,373.61 45.1553,367.114 46.1612,367.114 C47.1671,367.114 51.958,370.507 56.8171,374.633 C91.1716,403.872 166.206,463.665 173.912,467.927 L183.289,473.11 L228.47,473.366 C265.877,473.57 279.073,472.957 305.193,469.802 L336.734,465.983 L343.554,458.669 C347.304,454.645 362.342,437.954 376.953,421.587 C391.582,405.219 409.995,384.641 417.872,375.86 C425.749,367.08 435.075,356.612 438.57,352.605 L444.929,345.325 L445.014,206.901 L445.1,68.4769 L427.761,37.9244 L410.421,7.37192 L402.544,7.62766 C398.214,7.76406 392.758,8.15619 390.405,8.48013 L390.422,8.53128 Z M287.069,227.684 L288.262,289.386 L282.159,298.251 C277.18,305.48 274.964,308.992 270.446,310.766 C265.928,312.539 259.108,312.556 244.94,312.829 L219.639,313.306 L204.874,300.621 C196.741,293.648 176.606,276.684 160.085,262.925 L130.078,237.914 L127.879,211.299 C126.668,196.671 126.072,184.293 126.549,183.816 C128.22,182.145 262.279,166.886 281.477,166.17 L285.893,165.999 L287.086,227.701 L287.069,227.684 Z " fill="#000000" fill-opacity="1.00" stroke-width="0.19" stroke="#000000" stroke-linecap="square" stroke-linejoin="miter" />				<path d="M99.7304,508.624 C94.1041,509.374 83.738,510.533 76.7137,511.215 C68.7175,511.982 57.2263,514.915 46.0248,519.024 C17.3307,529.543 -22.1727,544.325 -33.2548,548.656 C-38.8811,550.855 -54.6177,556.976 -68.2061,562.261 C-90.5578,570.939 -93.7119,572.678 -101.06,580.487 C-109.38,589.318 -129.089,614.824 -191.251,697.258 L-226.493,743.99 L-227.703,755.311 C-228.368,761.534 -228.419,773.997 -227.805,782.999 C-226.152,807.278 -221.77,883.011 -220.508,909.063 C-219.724,925.277 -218.701,932.505 -216.979,934.227 C-215.649,935.557 -213.825,939.291 -212.938,942.496 C-212.086,945.599 -211.66,947.151 -203.05,953.766 C-194.44,960.381 -177.663,972.043 -144.076,995.384 C-101.862,1024.73 -80.4646,1038.93 -78.4698,1038.93 C-77.4639,1038.93 -72.2468,1041.13 -66.8762,1043.8 C-54.4302,1050.01 -53.5436,1050.21 -19.3084,1054.27 C30.0154,1060.12 76.0317,1062.08 106.908,1059.66 C139.865,1057.07 144.775,1056.25 191.797,1045.54 C240.456,1034.46 251.47,1031.31 292.252,1016.83 C318.61,1007.47 331.278,1003.09 340.144,997.924 C349.009,992.758 354.056,986.774 365.189,974.242 C395.776,939.803 428.016,904.238 460.103,869.576 L489.837,837.455 L487.825,808.198 C485.404,772.855 483.29,746.429 479.045,697.957 C477.272,677.788 475.328,654.601 474.697,646.417 L473.572,631.533 L463.121,622.462 C450.624,611.602 393.9,564.989 360.62,538.221 C340.417,521.973 335.592,518.87 329.079,517.933 C324.85,517.319 319.463,515.801 317.127,514.54 C314.774,513.295 302.891,511.403 290.701,510.363 C264.086,508.078 114.239,506.748 99.7474,508.675 L99.7304,508.624 Z M263.797,687.966 C282.892,697.19 299.157,704.743 299.941,704.743 C303.743,704.743 305.261,711.358 306.795,734.716 C307.716,748.713 308.977,766.308 309.608,773.844 L310.734,787.535 L278.544,817.525 C255.817,838.7 245.98,848.282 237.643,853.772 C229.289,859.261 222.435,860.642 205.692,865.416 C161.961,877.879 91.5978,892.303 74.5484,892.286 C68.5129,892.286 15.4382,882.074 -0.843974,877.794 C-12.4546,874.742 -29.4869,868.195 -41.1317,862.33 C-48.2583,858.733 -49.1278,857.642 -50.0826,851.027 C-53.1515,829.817 -54.2256,809.989 -53.339,790.962 L-52.3331,769.735 L-19.0868,737.682 C2.12262,717.24 16.3759,704.794 20.2973,703.328 C23.673,702.066 49.8438,693.865 78.4357,685.119 L130.436,669.212 L179.76,670.218 L229.084,671.224 L263.814,688 L263.797,687.966 Z " fill="#000000" fill-opacity="1.00" stroke-width="0.19" stroke="#000000" stroke-linecap="square" stroke-linejoin="miter" />				<path d="M347.799,1048.39 C300.061,1058.47 221.105,1080.85 212.325,1086.79 C208.966,1089.05 198.787,1099.74 189.717,1110.52 C180.647,1121.31 168.15,1135.89 161.927,1142.91 C155.703,1149.94 144.877,1162.66 137.87,1171.15 C116.371,1197.16 44.8484,1280.57 23.9288,1304.03 C13.0513,1316.22 0.366562,1330.69 -4.25382,1336.18 L-12.6762,1346.17 L-33.7322,1345.48 C-49.6734,1344.95 -55.1803,1344.18 -56.4079,1342.3 C-57.9594,1339.93 -57.499,1312.59 -55.2144,1271.45 L-54.2597,1254.21 L-21.4908,1211.74 L11.2782,1169.27 L4.35611,1149.02 C-0.639357,1134.39 -3.50365,1128.37 -5.95877,1127.38 C-11.0395,1125.33 -131.698,1107.65 -162.08,1104.52 L-173.281,1103.36 L-184.619,1116.03 C-196.298,1129.09 -198.549,1133.64 -213.024,1173.58 C-215.564,1180.61 -222.878,1200.18 -229.272,1217.06 L-240.882,1247.75 L-239.842,1286.11 C-238.001,1354 -231.147,1418.69 -224.378,1432.05 C-219.877,1440.94 -192.257,1467.63 -149.361,1504.56 C-136.864,1515.32 -130.897,1520.52 -126.003,1523.61 C-121.11,1526.69 -117.291,1527.7 -109.09,1530.04 C-95.6215,1533.87 -92.1264,1534.14 -59.6473,1533.8 C-9.53914,1533.27 5.80531,1531.19 51.7364,1518.63 C65.6998,1514.81 76.7989,1510.63 82.4252,1507.07 C87.2673,1504 92.5014,1501.03 94.0529,1500.47 C95.6044,1499.91 101.691,1493.07 107.59,1485.26 C113.489,1477.46 127.265,1459.57 138.194,1445.5 C157.05,1421.26 167.331,1407.83 221.651,1336.34 C234.301,1319.68 250.43,1298.69 257.488,1289.67 C264.547,1280.67 275.578,1266.01 282.005,1257.11 C296.173,1237.48 296.634,1237.09 304.715,1237.6 C308.261,1237.83 314.706,1238.08 319.037,1238.18 C323.674,1238.29 325.89,1238.01 327.306,1242.28 C328.721,1246.54 329.351,1255.34 330.801,1273.58 C331.772,1285.63 332.932,1297.17 333.375,1299.24 C334.125,1302.65 324.203,1318.32 283.608,1377.84 C282.005,1380.19 283.028,1383.97 288.979,1397.78 L296.327,1414.83 L383.875,1414.9 L471.424,1414.97 L494.833,1403.03 L518.242,1391.1 L517.389,1382.51 C516.912,1377.78 515.002,1356.27 513.127,1334.7 C509.308,1290.78 500.442,1199.23 497.833,1176.87 C496.896,1168.84 496.129,1158.58 496.129,1154.08 C496.129,1146.85 495.378,1145.16 489.718,1139.71 C481.313,1131.57 437.803,1093.93 419.406,1078.89 C411.444,1072.36 398.879,1061.86 391.496,1055.52 C383.705,1048.83 379.988,1045.51 374.635,1044.64 C369.264,1043.75 362.24,1045.32 347.799,1048.37 L347.799,1048.39 Z " fill="#000000" fill-opacity="1.00" stroke-width="0.19" stroke="#000000" stroke-linecap="square" stroke-linejoin="miter" />				<path d="M367.406,1478.94 C364.593,1479.81 344.645,1485.11 323.077,1490.75 C233.108,1514.25 227.856,1515.83 224.191,1520.76 C222.315,1523.27 212.461,1536.16 202.299,1549.37 C184.261,1572.85 129.175,1645.03 114.58,1664.33 C110.557,1669.65 97.8379,1686.28 86.3125,1701.28 C74.7871,1716.28 51.2249,1747.3 33.9538,1770.18 C16.6828,1793.07 -1.30428,1816.86 -6.00991,1823.03 L-14.5687,1834.26 L-35.403,1834.23 C-53.0151,1834.21 -56.6977,1833.74 -59.2381,1831.2 C-61.9319,1828.5 -62.307,1823.61 -62.7844,1785.59 L-63.3129,1742.98 L-51.7023,1725 C-45.3087,1715.11 -31.1237,1693.5 -20.1779,1676.98 L-0.281316,1646.96 L-5.07219,1634.05 C-14.7562,1608.04 -16.3077,1605.51 -23.4344,1604.46 C-88.3925,1594.87 -129.635,1588.69 -156.01,1584.54 L-188.404,1579.46 L-205.027,1596.05 L-221.651,1612.64 L-224.225,1627.11 C-230.84,1664.25 -244.292,1763.07 -247.992,1801.85 C-249.424,1816.86 -251.351,1835.07 -252.271,1842.33 L-253.942,1855.53 L-237.796,1911.38 C-222.077,1965.75 -215.138,1990.42 -210.603,2003.02 C-206.084,2015.62 -203.987,2016.15 -198.02,2022.25 L-187.535,2032.92 L-62.5116,2032.86 L62.5116,2032.79 L67.7628,2027.28 C70.6612,2024.26 86.9433,2003.75 103.976,1981.71 C121.008,1959.66 141.28,1933.59 149.02,1923.74 C156.778,1913.89 171.883,1894.47 182.573,1880.57 C193.28,1866.68 213.74,1840.2 228.061,1821.75 C242.366,1803.3 265.723,1772.85 279.959,1754.1 C294.196,1735.34 309.233,1715.98 313.393,1711.05 L320.946,1702.1 L336.785,1702.1 L352.624,1702.1 L353.528,1714.46 C356.613,1756.84 358.216,1776.88 357.773,1787.86 C357.347,1798.85 354.891,1800.8 349.896,1807.04 C342.838,1815.85 295.918,1877.19 282.585,1895.06 C280.011,1898.52 277.879,1902.36 277.879,1903.59 C277.845,1907.46 293.804,1951.8 295.696,1953.12 C296.685,1953.8 344.798,1954.38 402.613,1954.39 L507.722,1954.43 L517.815,1944.63 C523.356,1939.24 537.32,1925.62 548.828,1914.36 L569.765,1893.9 L568.657,1875.15 C568.043,1864.83 565.298,1824.94 562.536,1786.49 C559.774,1748.05 556.517,1700.41 555.29,1680.63 L553.056,1644.68 L528.301,1612.44 C514.678,1594.7 489.599,1561.63 472.549,1538.94 C446.822,1504.67 440.616,1497.4 436.029,1496.09 C432.995,1495.22 419.884,1490.58 406.909,1485.79 C383.33,1477.06 377.039,1475.97 367.423,1478.92 L367.406,1478.94 Z " fill="#000000" fill-opacity="1.00" stroke-width="0.19" stroke="#000000" stroke-linecap="square" stroke-linejoin="miter" />			</g>		</g>	</svg>