<svg xmlns="http://www.w3.org/2000/svg" xmlns:xlink="http://www.w3.org/1999/xlink" version="1.1" viewBox="1320 797.65 1456 2500.7">		<g id="document" transform="scale(1.0 1.0) translate(2048.0 2048.0)">			<g>				<path d="M-145.664,480.495 C-144.809,388.554 -143.421,298.059 -143.228,207.561 C-142.967,85.7534 -139.037,-35.972 -136.537,-157.731 C-135.994,-184.221 -146.609,-191.89 -172.769,-186.224 C-202.365,-179.815 -231.778,-172.446 -262.063,-169.501 C-279.876,-167.769 -289.739,-156.988 -290.436,-138.88 C-292.585,-83.1023 -295.287,-27.3238 -296.085,28.4787 C-297.035,94.9082 -299.318,161.269 -301.646,227.655 C-305.358,333.469 -308.334,439.321 -310.248,545.182 C-311.737,627.497 -310.97,709.851 -311.61,792.184 C-311.726,806.996 -309.08,820.862 -303.034,834.2 C-266.264,915.313 -234.651,998.601 -199.357,1080.33 C-192.581,1096.02 -183.613,1102.54 -171.62,1100.23 C-158.746,1097.75 -151.383,1087.67 -151.107,1071.14 C-150.536,1036.98 -149.227,1002.8 -148.853,968.677 C-147.078,806.44 -146.602,644.188 -145.664,480.495 Z " fill="#000000" fill-opacity="1.00" stroke-width="0.70" stroke="#ffffff" stroke-linecap="square" stroke-linejoin="miter"/>				<path d="M-41.8174,72.0037 C-54.8066,72.2345 -66.3726,72.117 -77.9002,72.7257 C-89.9557,73.3625 -100.006,78.7726 -103.237,90.7319 C-109.435,113.68 -111.39,137.279 -105.721,160.605 C-102.116,175.435 -92.6036,180.369 -77.443,178.211 C-53.6451,174.824 -29.842,171.465 -6.00523,168.371 C-0.90902,167.709 5.31254,166.518 8.08147,172.596 C10.8137,178.593 6.2611,182.525 2.15749,185.959 C-23.7848,207.668 -50.783,227.593 -83.6212,238.035 C-102.207,243.945 -108.884,253.616 -109.027,273.329 C-109.182,294.985 -109.229,316.643 -109.541,338.298 C-109.742,352.232 -108.803,365.984 -95.0097,373.568 C-80.5084,381.541 -69.3732,371.949 -58.1541,364.518 C-56.5528,363.456 -55.1095,362.16 -53.5522,361.029 C-16.8146,334.356 15.5396,302.751 47.8666,271.097 C61.1202,258.12 63.2152,258.181 75.285,271.964 C97.5138,297.349 123.145,317.645 155.336,329.299 C227.258,355.335 301.271,318.719 322.467,245.681 C338.245,191.314 334.471,137.29 318.108,83.6368 C307.034,47.3271 299.53,41.98 262.653,45.58 C257.869,46.0473 253.092,46.6002 248.32,47.1791 C152.377,58.817 56.5976,72.3597 -41.8174,72.0037 Z M124.516,193.44 C119.685,184.383 115.324,177.385 112.245,169.861 C106.406,155.599 109.234,151.217 124.762,148.337 C153.22,143.057 182.114,142.462 210.854,140.187 C218.94,139.547 223.645,143.511 225.991,150.681 C235.319,179.181 233.878,206.644 216.924,232.125 C209.038,243.974 197.493,247.411 184.043,243.211 C157.37,234.882 138.922,216.536 124.516,193.44 Z " fill="#000000" fill-opacity="1.00" stroke-width="0.70" stroke="#ffffff" stroke-linecap="square" stroke-linejoin="miter"/>				<path d="M338.165,439.155 C325.911,410.254 305.384,390.649 278.848,377.133 C222.866,348.624 163.513,341.944 102.03,351.357 C53.0498,358.856 6.42404,373.352 -35.1176,401.322 C-77.155,429.626 -107.012,466.906 -114.788,518.149 C-125.177,586.611 -92.9584,640.714 -27.9694,666.634 C10.4791,681.97 50.6462,683.5 91.2648,680.713 C165.663,675.608 233.32,652.622 291.585,604.889 C336.865,567.795 363.866,498.134 338.165,439.155 Z M137.881,577.984 C106.198,585.355 76.6324,587.221 46.9141,581.201 C40.3715,579.875 33.8224,577.891 27.718,575.207 C-13.84,556.927 -20.3114,515.202 15.7993,487.365 C66.1757,448.529 123.823,433.606 186.856,445.025 C211.388,449.47 234.534,460.498 239.655,487.708 C244.523,513.574 226.491,530.671 207.956,545.213 C187.245,561.459 163.455,571.796 137.881,577.984 Z " fill="#000000" fill-opacity="1.00" stroke-width="0.70" stroke="#ffffff" stroke-linecap="square" stroke-linejoin="miter"/>				<path d="M-94.82,1201.45 C-85.6728,1214.81 -74.9245,1224.98 -61.8873,1232.71 C-16.2704,1259.75 41.5252,1254.65 85.5045,1220.36 C114.027,1198.13 135.204,1169.66 155.954,1140.64 C175.814,1112.86 195.209,1084.62 221.099,1061.81 C238.082,1046.85 248.424,1050.01 255.933,1071.21 C266.302,1100.48 254.848,1123.73 236.837,1145.44 C231.314,1152.09 224.735,1157.96 221.236,1166.07 C213.719,1183.5 224.761,1200.48 243.732,1199.66 C273.045,1198.4 302.359,1196.74 331.6,1194.37 C357.891,1192.24 367.571,1184.35 373.656,1158.68 C388.722,1095.12 378.721,1034.86 343.589,980.212 C309.98,927.933 246.954,912.586 192.631,940.66 C169.003,952.872 150.708,971.402 135.172,992.422 C110.87,1025.3 87.9891,1059.24 63.5396,1092 C50.8891,1108.96 36.2227,1124.49 17.3279,1134.99 C5.13802,1141.75 -1.11444,1139.64 -6.13466,1126.55 C-12.2759,1110.55 -10.547,1094.51 -4.81208,1078.62 C1.49458,1061.14 12.0104,1046.28 23.2897,1031.81 C29.5236,1023.81 30.1522,1014.96 25.444,1006.09 C20.5234,996.839 11.9014,993.466 2.21589,995.357 C-19.9989,999.695 -41.6995,997.616 -63.6218,993.158 C-78.4988,990.133 -90.3219,996.352 -97.0143,1010.03 C-128.183,1073.75 -131.399,1137.36 -94.82,1201.45 Z " fill="#000000" fill-opacity="1.00" stroke-width="0.70" stroke="#ffffff" stroke-linecap="square" stroke-linejoin="miter"/>				<path d="M404.038,-232.754 C413.799,-227.914 423.046,-229.21 432.059,-230.22 C492.515,-237.003 553.066,-236.901 613.696,-233.374 C635.791,-232.088 657.913,-230.18 680.009,-230.336 C711.025,-230.554 726.809,-247.309 727.628,-278.089 C727.873,-287.324 726.177,-296.25 724.848,-305.289 C710.21,-404.833 690.62,-503.293 660.81,-599.532 C656.106,-614.718 643.224,-621.256 627.925,-615.91 C620.21,-613.215 612.729,-609.851 605.142,-606.79 C562.821,-589.705 559.384,-593.602 568.218,-543.553 C573.609,-513.009 568.071,-482.73 545.845,-458.521 C530.237,-441.52 512.2,-446.286 505.914,-468.496 C503.669,-476.431 503.832,-484.682 504.421,-492.89 C505.986,-514.704 513.391,-535.16 518.964,-556.048 C525.277,-579.705 513.501,-592.483 489.169,-588.652 C477.295,-586.784 465.431,-584.782 453.497,-583.398 C443.242,-582.209 435.49,-577.247 433.573,-567.372 C428.265,-540.007 417.278,-514.12 414.285,-486.094 C409.06,-437.173 435.369,-389.338 479.004,-372.862 C523.977,-355.881 564.024,-365.646 599.374,-397.288 C604.594,-401.959 613.951,-415.678 617.399,-410.318 C630.005,-390.721 631.644,-367.128 633.278,-344.578 C633.961,-335.167 627.381,-332.41 619.077,-332.351 C557.973,-331.913 496.897,-332.902 435.925,-337.125 C418.873,-338.306 408.554,-331.81 404.541,-314.766 C400.575,-297.918 397.331,-280.895 393.103,-264.117 C389.917,-251.479 392.782,-241.368 404.038,-232.754 Z " fill="#000000" fill-opacity="1.00" stroke-width="0.70" stroke="#ffffff" stroke-linecap="square" stroke-linejoin="miter"/>				<path d="M-310.998,-583.642 C-317.72,-581.844 -323.269,-580.248 -328.837,-578.723 C-351.906,-572.405 -355.396,-568.447 -354.773,-544.561 C-354.02,-515.649 -356.713,-486.889 -357.35,-458.05 C-357.569,-448.075 -361.463,-443.03 -371.478,-441.829 C-387.214,-439.942 -402.867,-437.364 -418.567,-435.172 C-450.889,-430.66 -452.461,-432.318 -447.246,-465.132 C-442.721,-493.606 -437.637,-522.003 -433.818,-550.57 C-431.004,-571.621 -443.703,-582.652 -464.23,-577.949 C-481.575,-573.974 -498.81,-569.499 -516.025,-564.986 C-533.808,-560.323 -538.905,-553.039 -540.048,-534.132 C-542.251,-497.668 -543.124,-461.128 -546.946,-424.744 C-548.083,-413.921 -552.114,-406.425 -560.125,-399.061 C-580.125,-380.673 -579.519,-354.09 -559.435,-336.574 C-555.146,-332.835 -554.152,-329.029 -554.637,-323.972 C-558.765,-280.917 -562.547,-237.825 -567.058,-194.81 C-569.482,-171.68 -554.125,-158.821 -532.431,-167.103 C-514.01,-174.136 -495.845,-181.836 -477.448,-188.937 C-456.18,-197.145 -453.627,-201.097 -453.915,-224.336 C-454.361,-260.426 -454.389,-296.522 -454.761,-332.613 C-454.856,-341.776 -452.352,-348.698 -442.37,-350.879 C-420.293,-355.704 -398.253,-360.702 -376.154,-365.419 C-365.293,-367.738 -360.661,-362.164 -361.286,-351.959 C-362.048,-339.498 -363.545,-327.083 -364.605,-314.637 C-367.095,-285.424 -370.391,-256.244 -371.66,-226.977 C-372.544,-206.595 -358.376,-197.334 -339.088,-203.616 C-325.373,-208.082 -311.793,-213 -297.971,-217.099 C-269.509,-225.54 -264.796,-233.013 -270.183,-261.912 C-276.371,-295.107 -279.562,-328.544 -278.035,-362.365 C-277.626,-371.406 -275.44,-378.604 -267.582,-384.733 C-253.55,-395.675 -248.75,-425.67 -260.505,-438.563 C-271.443,-450.561 -269.844,-462.89 -268.156,-476.114 C-264.566,-504.245 -260.425,-532.306 -256.891,-560.444 C-254.352,-580.66 -267.43,-592.851 -287.365,-589.148 C-294.921,-587.744 -302.348,-585.654 -310.998,-583.642 Z " fill="#000000" fill-opacity="1.00" stroke-width="0.70" stroke="#ffffff" stroke-linecap="square" stroke-linejoin="miter"/>				<path d="M335.919,891.491 C345,884.131 349.252,875.209 351.938,865.188 C363.426,822.328 358.133,780.746 339.529,741.38 C302.937,663.954 222.843,645.831 156.293,699.221 C129.605,720.633 112.465,750.156 92.635,777.317 C73.9226,802.946 57.1349,830.182 31.0383,849.496 C22.3948,855.892 13.1504,862.986 2.14682,857.375 C-8.55072,851.92 -9.6126,840.454 -9.73145,829.651 C-10.058,799.93 3.63872,776.101 22.5011,754.586 C29.7556,746.313 33.2573,737.33 27.8665,726.857 C22.8173,717.049 13.9291,713.281 3.62603,715.18 C-18.6557,719.285 -40.4073,716.553 -62.2908,712.409 C-74.8936,710.022 -85.6155,714.368 -91.5177,726.039 C-117.72,777.853 -127.875,831.376 -106.681,887.654 C-75.1257,971.443 21.9579,995.317 89.3955,936.364 C116.609,912.575 135.975,882.74 156.476,853.655 C172.858,830.412 189.778,807.534 212.726,790.138 C226.753,779.506 235.513,781.81 240.829,798.614 C247.797,820.632 244.823,841.33 228.935,859.32 C222.257,866.882 218.143,875.509 222.966,885.766 C228.063,896.608 237.594,899.196 248.355,898.045 C271.362,895.584 294.292,893.738 317.384,897.475 C323.67,898.493 329.672,895.713 335.919,891.491 Z " fill="#000000" fill-opacity="1.00" stroke-width="0.70" stroke="#ffffff" stroke-linecap="square" stroke-linejoin="miter"/>				<path d="M-262.704,-750.126 C-263.738,-737.434 -260.401,-727.522 -250.163,-721.681 C-219.186,-704.007 -190.202,-683.229 -159.919,-664.501 C-139.976,-652.167 -124.86,-661.193 -124.855,-684.802 C-124.839,-757.002 -125.142,-829.187 -123.23,-901.394 C-121.434,-969.218 -120.125,-1037.04 -116.937,-1104.83 C-115.219,-1141.35 -113.434,-1177.85 -110.975,-1214.34 C-109.444,-1237.07 -122.224,-1246.33 -143.68,-1239.14 C-171.502,-1229.79 -199.298,-1220.37 -226.939,-1210.51 C-244.536,-1204.24 -251.087,-1195.42 -250.522,-1176.95 C-246.174,-1034.83 -258.712,-893.21 -262.704,-750.126 Z " fill="#000000" fill-opacity="1.00" stroke-width="0.70" stroke="#ffffff" stroke-linecap="square" stroke-linejoin="miter"/>				<path d="M96.7809,-863.536 C43.8592,-862.435 -7.6281,-861.11 -59.1238,-860.37 C-88.7846,-859.945 -96.7938,-852.505 -96.9436,-822.794 C-97.1836,-775.131 -97.3367,-727.466 -97.5192,-679.802 C-97.5654,-667.767 -98.1589,-655.697 -97.474,-643.701 C-96.5457,-627.444 -85.075,-618.06 -70.5656,-621.664 C-53.7646,-625.837 -37.0803,-630.577 -20.5626,-635.762 C-8.91664,-639.418 -3.71411,-648.619 -4.77451,-660.359 C-7.7689,-693.509 -7.89312,-726.676 -6.58443,-759.88 C-5.80041,-779.77 -0.906507,-783.254 27.311,-783.572 C43.4489,-783.756 40.1926,-770.903 41.0054,-761.605 C43.9846,-727.527 44.1027,-693.352 43.8393,-659.164 C43.6943,-640.324 51.8038,-632.629 70.5679,-634.126 C82.0439,-635.041 93.4109,-637.404 104.805,-639.252 C133.905,-643.976 137.568,-650.58 134.111,-679.94 C130.631,-709.506 127.539,-739.321 130.219,-769.195 C131.966,-788.688 133.94,-790.072 153.164,-790.899 C156.048,-791.022 158.945,-790.911 161.827,-791.059 C173.55,-791.662 179.011,-786.663 180.363,-774.438 C184.343,-738.477 183.753,-702.382 184.57,-666.342 C184.979,-648.332 191.422,-638.333 207.46,-637.631 C224.282,-636.896 241.164,-636.827 257.997,-637.273 C272.308,-637.652 282.152,-649.13 280.696,-663.26 C274.773,-720.719 271.358,-778.306 270.577,-836.071 C270.22,-862.542 260.284,-871.214 233.736,-869.941 C188.563,-867.775 143.387,-865.682 96.7809,-863.536 Z " fill="#000000" fill-opacity="1.00" stroke-width="0.70" stroke="#ffffff" stroke-linecap="square" stroke-linejoin="miter"/>				<path d="M84.5152,-119.309 C113.647,-123.282 141.473,-124.035 168.245,-113.711 C198.936,-101.877 208.624,-76.8787 194.479,-47.4018 C188.592,-35.1327 180.462,-24.3997 170.025,-15.5943 C160.849,-7.85303 155.175,1.27401 159.873,13.4145 C164.425,25.1764 174.604,27.6206 185.987,26.8651 C218.604,24.7004 251.233,22.6733 283.83,20.2224 C299.517,19.043 309.016,9.67525 314.261,-4.71067 C320.846,-22.7747 320.757,-41.5602 320.284,-60.3285 C318.749,-121.167 290.685,-164.848 234.596,-189.065 C149.351,-225.871 64.454,-220.47 -18.3402,-181.956 C-93.0887,-147.183 -128.01,-64.2992 -91.3375,14.434 C-80.8305,36.9917 -72.4851,42.9041 -47.769,40.7394 C-13.7423,37.7595 20.3185,35.4705 54.4793,35.1921 C67.8194,35.0834 78.8716,31.2685 81.7449,16.9581 C84.6671,2.4042 75.1545,-4.87842 63.1632,-10.029 C48.0681,-16.5129 33.6454,-24.1407 21.839,-35.9366 C5.01318,-52.7473 4.29724,-70.3845 19.6983,-88.3121 C36.4444,-107.806 59.2927,-114.594 84.5152,-119.309 Z " fill="#000000" fill-opacity="1.00" stroke-width="0.70" stroke="#ffffff" stroke-linecap="square" stroke-linejoin="miter"/>				<path d="M-92.7122,-472.092 C-106.328,-470.125 -118.738,-468.557 -131.102,-466.694 C-140.433,-465.287 -148.916,-466.476 -153.122,-475.908 C-157.748,-486.284 -155.069,-495.898 -146.723,-503.4 C-139.811,-509.613 -131.187,-512.807 -122.315,-515.394 C-104.629,-520.55 -87.1028,-518.291 -69.4598,-515.06 C-56.7563,-512.731 -46.0986,-516.019 -41.739,-529.458 C-38.1843,-540.416 -35.215,-551.642 -33.0346,-562.95 C-30.1864,-577.724 -37.678,-587.713 -52.6888,-588.793 C-66.1051,-589.758 -79.6263,-589.415 -93.1009,-589.393 C-124.582,-589.341 -155.484,-586.349 -184.759,-573.214 C-242.413,-547.345 -260.282,-482.447 -229.704,-439.089 C-223.217,-429.889 -225.435,-422.273 -230.901,-414.002 C-249.077,-386.497 -255.815,-356.214 -253.859,-323.385 C-249.81,-255.434 -197.797,-205.716 -132.97,-210.229 C-90.7782,-213.167 -48.8914,-219.828 -6.58362,-222.022 C6.1281,-222.682 17.0269,-227.854 21.3582,-241.151 C26.1572,-255.883 28.7218,-271.19 27.6885,-286.62 C26.3766,-306.21 12.0524,-315.413 -6.7725,-309.61 C-17.341,-306.354 -27.7613,-302.613 -38.2367,-299.056 C-63.3992,-290.512 -88.774,-283.45 -115.828,-285.129 C-132.616,-286.17 -145.164,-293.934 -153.72,-307.982 C-176.495,-345.377 -150.349,-396.38 -106.742,-399.621 C-99.1024,-400.188 -91.3563,-399.146 -83.6738,-399.364 C-71.3899,-399.711 -63.987,-406.436 -61.5989,-418.262 C-60.0805,-425.781 -59.0513,-433.454 -58.5247,-441.108 C-56.9083,-464.598 -67.4507,-474.454 -92.7122,-472.092 Z " fill="#000000" fill-opacity="1.00" stroke-width="0.70" stroke="#ffffff" stroke-linecap="square" stroke-linejoin="miter"/>				<path d="M218.19,-357.65 C233.139,-320.448 247.642,-284.275 262.287,-248.159 C267.399,-235.55 277.169,-228.782 290.58,-230.299 C306.403,-232.089 322.226,-232.721 338.086,-233.55 C352.898,-234.325 361.522,-242.369 363.206,-256.57 C371.199,-323.982 385.158,-390.359 397.727,-456.977 C404.325,-491.947 411.713,-526.782 417.582,-561.871 C421.487,-585.218 408.592,-597.174 385.91,-593.17 C374.537,-591.162 363.215,-588.86 351.83,-586.929 C329.824,-583.196 323.953,-577.982 322.312,-555.258 C320.23,-526.436 316.65,-497.817 312.489,-469.281 C309.167,-446.509 299.173,-402.301 299.173,-402.301 C299.173,-402.301 297.728,-394.257 295.539,-394.257 C293.352,-394.258 290.58,-402.303 290.58,-402.303 C290.58,-402.303 253.178,-515.675 239.451,-572.303 C234.49,-592.765 223.694,-599.385 203.428,-593.803 C190.906,-590.353 178.452,-586.659 165.966,-583.083 C143.232,-576.574 137.615,-564.86 146.137,-543.05 C170.13,-481.641 193.927,-420.155 218.19,-357.65 Z " fill="#000000" fill-opacity="1.00" stroke-width="0.70" stroke="#ffffff" stroke-linecap="square" stroke-linejoin="miter"/>				<path d="M58.7228,-346.442 C67.6055,-347.363 75.2837,-347.921 82.9466,-348.643 C104.796,-350.702 106.103,-350.151 113.665,-329.848 C122.229,-306.855 129.902,-283.59 134.434,-259.364 C137.83,-241.207 146.636,-232.172 161.323,-232.63 C179.077,-233.184 196.872,-234.338 214.501,-236.461 C231.276,-238.482 239.689,-251.294 235.247,-267.637 C232.616,-277.317 228.668,-286.787 224.19,-295.793 C195.251,-353.995 168.766,-413.19 147.605,-474.751 C136.186,-507.976 125.369,-541.344 115.778,-575.136 C110.475,-593.818 99.935,-601.761 83.8391,-599.565 C68.12,-597.42 52.5053,-594.517 36.7983,-592.273 C25.2269,-590.62 18.7319,-583.936 16.447,-572.88 C4.91635,-517.087 -16.7415,-464.439 -33.8825,-410.388 C-35.3608,-405.727 -36.9081,-400.716 -41.0119,-398.109 C-63.914,-383.564 -67.5618,-364.441 -55.4535,-341.141 C-54.8117,-339.905 -54.7687,-338.353 -54.4802,-336.941 C-50.0164,-315.105 -37.2433,-308.915 -16.6367,-318.499 C7.35217,-329.656 31.1186,-341.432 58.7228,-346.442 Z M47.5118,-423.666 C52.4342,-438.4 61.8247,-463.073 61.8247,-463.073 C61.8247,-463.073 67.1165,-474.842 69.9981,-474.751 C72.8796,-474.662 76.325,-466.59 77.752,-463.073 C81.5193,-453.788 85.5039,-444.565 88.6871,-435.078 C92.189,-424.64 91.6885,-416.492 77.3299,-415.04 C70.2756,-414.327 63.2759,-412.622 56.0826,-412.821 C48.9282,-413.019 45.1069,-415.893 47.5118,-423.666 Z " fill="#000000" fill-opacity="1.00" stroke-width="0.70" stroke="#ffffff" stroke-linecap="square" stroke-linejoin="miter"/>				<path d="M71.2965,-976.294 C67.5279,-976.252 65.1169,-976.344 62.719,-976.206 C49.2334,-975.429 45.4039,-982.849 45.2873,-995.044 C45.1744,-1006.86 46.0077,-1016.24 61.5209,-1016.01 C72.5393,-1015.84 83.5756,-1017.37 94.6147,-1017.94 C103.597,-1018.4 111.712,-1021.76 113.459,-1030.72 C116.591,-1046.76 116.299,-1063.3 113.494,-1079.38 C112.109,-1087.33 105.401,-1092.59 97.2783,-1094.13 C91.6842,-1095.2 85.7883,-1095.14 80.0543,-1094.91 C31.5949,-1092.95 -16.6886,-1086.68 -65.3872,-1090.34 C-80.0498,-1091.44 -89.7222,-1081.46 -91.3456,-1066.72 C-91.974,-1061.02 -91.7037,-1055.2 -91.6262,-1049.42 C-91.1022,-1010.51 -89.9716,-1009.31 -51.168,-1009.99 C-42.878,-1010.14 -37.832,-1008.54 -36.2466,-998.877 C-32.5094,-976.102 -35.0233,-972.702 -58.57,-973.137 C-61.9361,-973.2 -65.3118,-973.427 -68.6671,-973.259 C-85.463,-972.421 -94.3378,-963.707 -94.814,-946.978 C-95.0873,-937.374 -94.4887,-927.747 -94.3207,-918.129 C-93.9039,-894.273 -86.35,-886.979 -62.5479,-888.662 C12.3427,-893.955 87.342,-894.617 162.368,-894.384 C187.381,-894.306 212.392,-894.147 237.404,-894.148 C259.926,-894.148 267.94,-902.96 265.899,-925.115 C264.974,-935.165 264.462,-945.263 263.223,-955.273 C259.87,-982.385 254.23,-987.136 226.713,-984.526 C175.466,-979.667 124.042,-978.457 71.2965,-976.294 Z " fill="#000000" fill-opacity="1.00" stroke-width="0.70" stroke="#ffffff" stroke-linecap="square" stroke-linejoin="miter"/>				<path d="M-705.552,-575.708 C-707.812,-554.313 -709.99,-534.243 -711.787,-514.138 C-717.094,-454.752 -722.233,-395.352 -727.482,-335.962 C-728.493,-324.52 -725.053,-315.085 -715.518,-308.263 C-687.34,-288.1 -659.315,-267.716 -630.898,-247.896 C-614.854,-236.706 -597.448,-245.431 -595.732,-265.151 C-595.108,-272.321 -596.026,-279.628 -595.366,-286.792 C-587.043,-377.225 -584.055,-468.194 -568.116,-557.869 C-566.169,-568.826 -570.252,-578.455 -579.723,-583.955 C-610.093,-601.588 -640.642,-618.945 -671.605,-635.508 C-686.41,-643.428 -699.685,-635.466 -701.591,-618.695 C-703.164,-604.84 -704.085,-590.912 -705.552,-575.708 Z " fill="#000000" fill-opacity="1.00" stroke-width="0.70" stroke="#ffffff" stroke-linecap="square" stroke-linejoin="miter"/>				<path d="M-83.6523,-1184.48 C-84.3355,-1172.62 -85.2872,-1162.06 -85.4991,-1151.49 C-85.9446,-1129.26 -76.1103,-1121.04 -54.2345,-1123.9 C5.94289,-1131.77 65.7458,-1127.03 125.411,-1118.08 C135.116,-1116.63 139.369,-1111.86 139.544,-1101.75 C139.877,-1082.53 141.133,-1063.32 142.226,-1044.12 C143.047,-1029.69 149.938,-1021.35 162.959,-1021.24 C186.071,-1021.06 209.103,-1019.94 232.169,-1018.67 C247.779,-1017.8 256.134,-1026.86 256.478,-1042.54 C256.582,-1047.34 256.41,-1052.18 255.995,-1056.97 C251.839,-1104.89 249.601,-1152.92 247.648,-1200.96 C246.835,-1220.96 238.436,-1229.09 218.009,-1230.46 C197.86,-1231.8 177.714,-1233.26 157.595,-1235 C137.491,-1236.73 128.078,-1227.28 129.906,-1206.77 C130.237,-1203.05 131.698,-1194.86 128.381,-1194.86 C125.063,-1194.86 111.135,-1198.12 102.526,-1200.76 C51.4784,-1216.4 0.492659,-1232.25 -50.6046,-1247.72 C-72.7357,-1254.43 -84.0883,-1246.34 -84.7835,-1223.25 C-85.1589,-1210.78 -84.0337,-1198.27 -83.6523,-1184.48 Z " fill="#000000" fill-opacity="1.00" stroke-width="0.70" stroke="#ffffff" stroke-linecap="square" stroke-linejoin="miter"/>				<path d="M-169.75,-622.044 C-167.384,-635.034 -172.893,-642.567 -183.7,-646.487 C-209.985,-656.022 -234.933,-668.522 -259.761,-681.176 C-272.155,-687.492 -284.639,-690.456 -298.514,-690.062 C-378.292,-687.793 -458.081,-685.932 -537.863,-683.798 C-560.445,-683.194 -583.023,-682.299 -605.588,-681.217 C-616.557,-680.691 -625.747,-676.353 -627.852,-664.513 C-629.868,-653.174 -622.808,-646.776 -613.137,-642.571 C-602.997,-638.163 -592.473,-634.373 -582.93,-628.896 C-543.135,-606.057 -501.964,-597.463 -454.959,-600.724 C-368.714,-606.705 -282,-605.993 -195.477,-607.846 C-184.563,-608.08 -175.589,-610.783 -169.75,-622.044 Z " fill="#000000" fill-opacity="1.00" stroke-width="0.70" stroke="#ffffff" stroke-linecap="square" stroke-linejoin="miter"/>				<path d="M573.505,-651.944 C560.518,-663.247 544.64,-664.843 530.112,-669.017 C492.064,-679.951 455.234,-697.598 413.91,-692.594 C388.078,-689.465 362.1,-690.207 336.172,-689.949 C290.222,-689.49 281.646,-678.407 293.249,-633.719 C298.747,-612.539 304.995,-607.188 326.573,-608.167 C361.105,-609.734 395.589,-612.313 430.112,-614.117 C471.347,-616.271 512.608,-617.943 553.845,-620.052 C575.289,-621.15 582.597,-632.546 573.505,-651.944 Z " fill="#000000" fill-opacity="1.00" stroke-width="0.70" stroke="#ffffff" stroke-linecap="square" stroke-linejoin="miter"/>			</g>		</g>	</svg>