<svg xmlns="http://www.w3.org/2000/svg" xmlns:xlink="http://www.w3.org/1999/xlink" version="1.1" id="Layer_1" x="0px" y="0px" enable-background="new 0 0 3527 3527" xml:space="preserve" viewBox="2 2 3528 3528">
<path fill="#FFFFFF" opacity="1.000000" stroke="none" d=" M1972.000000,3530.000000   C1314.666626,3530.000000 658.333313,3530.000000 2.000000,3530.000000   C2.000000,2354.000000 2.000000,1178.000000 2.000000,2.000000   C1178.000000,2.000000 2354.000000,2.000000 3530.000000,2.000000   C3530.000000,1178.000000 3530.000000,2354.000000 3530.000000,3530.000000   C3011.000000,3530.000000 2492.000000,3530.000000 1972.000000,3530.000000  M1377.095459,2527.879150   C1374.860474,2653.517822 1372.654785,2779.156738 1370.344360,2904.794189   C1370.118408,2917.079346 1372.879150,2928.475830 1378.139771,2939.517578   C1407.069580,3000.239258 1435.855469,3061.029297 1464.718506,3121.782959   C1503.298096,3202.988037 1541.912598,3284.176270 1580.476074,3365.389160   C1583.186157,3371.096680 1585.159058,3377.195068 1588.263306,3382.664062   C1591.861328,3389.003906 1598.812134,3389.964600 1604.530273,3385.598389   C1609.083740,3382.122314 1609.313354,3377.162842 1609.104248,3372.033447   C1608.697266,3362.054932 1608.002930,3352.072266 1608.043091,3342.093750   C1609.563477,2965.130615 1611.997437,2588.177246 1617.445068,2211.243896   C1620.252930,2016.951172 1621.492188,1822.635742 1623.420898,1628.330444   C1623.463867,1624.001465 1623.552368,1619.643433 1623.138306,1615.345337   C1622.184448,1605.445435 1619.071045,1602.509277 1609.305176,1601.981079   C1605.649536,1601.783447 1601.973145,1601.847778 1598.309570,1601.934814   C1539.001831,1603.344604 1479.694092,1604.754272 1420.388550,1606.251587   C1416.081909,1606.360352 1411.727051,1606.820801 1407.508423,1607.677856   C1398.546387,1609.498413 1394.963745,1613.124756 1393.699463,1622.313721   C1392.794556,1628.890869 1392.545410,1635.588379 1392.428101,1642.239624   C1389.101685,1830.855347 1385.815674,2019.471680 1382.553345,2208.088379   C1380.720581,2314.060791 1378.941650,2420.033936 1377.095459,2527.879150  M2206.569092,2683.564941   C2265.924805,2622.923340 2284.699219,2551.565674 2259.673584,2470.500244   C2239.428467,2404.919678 2195.728027,2361.684570 2128.239746,2344.743896   C2093.266846,2335.965088 2057.553223,2331.531738 2021.515747,2330.200928   C1946.444458,2327.428467 1873.535645,2339.336670 1802.481079,2363.214355   C1747.483032,2381.696289 1706.207886,2416.462646 1679.996704,2468.379883   C1648.951294,2529.872559 1649.369019,2592.821777 1673.452271,2656.175781   C1693.155151,2708.006592 1730.319092,2741.332275 1783.866333,2755.854248   C1819.419312,2765.496094 1855.851318,2769.150635 1892.589966,2769.686523   C1926.974976,2770.187744 1961.151367,2767.211914 1995.119751,2762.052002   C2036.949707,2755.698242 2078.429443,2747.706055 2118.604004,2734.013672   C2150.734863,2723.062988 2180.804199,2708.496582 2206.569092,2683.564941  M1781.001953,1948.773926   C1774.338501,1948.806641 1767.674316,1948.785156 1761.011719,1948.881958   C1736.027344,1949.245239 1711.038574,1949.458740 1686.061401,1950.109985   C1672.559326,1950.462036 1668.161377,1955.204468 1668.114624,1968.526245   C1667.961182,2012.172241 1667.852905,2055.818604 1667.866821,2099.464844   C1667.871216,2113.315918 1672.903809,2118.112549 1686.919922,2117.245117   C1718.835815,2115.270508 1750.730713,2112.956543 1782.636353,2110.813721   C1796.925659,2109.853760 1811.209961,2108.601074 1825.516602,2108.195312   C1834.050171,2107.953369 1836.717651,2112.141357 1834.553833,2120.465820   C1831.552246,2132.013184 1824.525879,2140.589355 1814.599976,2146.922363   C1801.838623,2155.064941 1787.800659,2160.166992 1773.279541,2164.077881   C1745.973389,2171.431885 1718.606079,2178.566162 1691.370483,2186.172119   C1674.246216,2190.954590 1669.019043,2198.105469 1668.912354,2215.581543   C1668.670288,2255.228760 1668.517944,2294.876953 1668.402100,2334.524658   C1668.392456,2337.830322 1668.687378,2341.181396 1669.268555,2344.435059   C1670.609497,2351.939697 1675.411865,2356.080078 1682.822754,2357.013672   C1685.745361,2357.381592 1688.807739,2357.254883 1691.738037,2356.853516   C1727.772095,2351.916748 1762.850830,2342.734863 1797.603149,2332.330566   C1838.843872,2319.983887 1876.078491,2301.068115 1903.319336,2266.125244   C1907.548706,2260.700195 1913.139526,2256.336182 1918.432495,2251.156738   C1921.469604,2254.450195 1923.919312,2257.101807 1926.363525,2259.758301   C1946.190674,2281.306396 1969.633667,2297.293701 1998.167480,2304.701904   C2009.707275,2307.697754 2021.641235,2309.594971 2033.516724,2310.801025   C2071.892334,2314.698242 2110.096191,2313.333984 2147.628662,2303.839600   C2193.734131,2292.177490 2222.493164,2263.449463 2230.648193,2215.964844   C2233.006592,2202.232422 2233.743164,2188.181641 2234.609619,2174.239014   C2239.099121,2102.001221 2232.862549,2030.485840 2219.461182,1959.508179   C2216.501465,1943.831665 2210.757568,1939.388184 2194.675537,1939.791382   C2177.691895,1940.216797 2160.724365,1941.326294 2143.740234,1941.669556   C2023.495605,1944.100464 1903.248413,1946.410889 1781.001953,1948.773926  M1414.489258,353.028717   C1413.309326,424.014374 1412.166016,495.000702 1410.941162,565.985596   C1408.865356,686.291870 1406.734253,806.597229 1404.639648,926.903198   C1404.448120,937.900513 1404.337646,948.899353 1404.215454,959.897827   C1404.083252,971.798157 1408.898438,980.432434 1420.510986,984.632568   C1423.319824,985.648560 1426.005371,987.001099 1428.796997,988.069824   C1484.086060,1009.235840 1539.375610,1030.400269 1594.687378,1051.506714   C1600.279663,1053.640625 1605.926880,1055.729370 1611.701172,1057.265869   C1623.868652,1060.503296 1628.683838,1057.259155 1629.855591,1044.875000   C1630.544678,1037.590332 1630.575806,1030.229614 1630.629761,1022.900940   C1631.184326,947.573303 1631.687378,872.245239 1632.196167,796.917297   C1633.576172,592.598572 1634.962158,388.279877 1636.313477,183.960968   C1636.444092,164.214050 1634.791870,163.126862 1615.622437,169.301331   C1557.996704,187.862579 1500.362427,206.397293 1442.742310,224.975769   C1420.854370,232.033096 1416.515991,237.980118 1416.111450,261.062439   C1415.585571,291.055573 1415.050903,321.048553 1414.489258,353.028717  M1275.717163,1146.890015   C1275.069824,1172.879883 1274.428711,1198.869751 1273.765625,1224.859253   C1273.697632,1227.523682 1273.635620,1230.199951 1273.338013,1232.844604   C1271.936401,1245.299927 1267.968872,1249.261841 1255.576904,1249.916626   C1248.597778,1250.285522 1241.584961,1250.029297 1234.587402,1250.031372   C1220.718018,1250.035278 1216.679565,1246.044067 1217.220337,1232.007202   C1218.695435,1193.717041 1220.220581,1155.427612 1221.996948,1117.150513   C1222.912720,1097.417847 1218.870239,1092.829712 1198.938477,1092.805176   C1168.607056,1092.767700 1138.275513,1092.795410 1107.944092,1092.801270   C1092.945801,1092.804199 1077.937256,1092.483398 1062.952148,1092.932007   C1049.843750,1093.324219 1046.264404,1097.669312 1045.652344,1110.868530   C1042.996826,1168.124268 1040.194214,1225.372925 1037.494141,1282.626465   C1033.129639,1375.175537 1028.793945,1467.725708 1024.498169,1560.277954   C1024.329102,1563.920288 1024.320312,1567.648560 1024.896362,1571.230835   C1026.135620,1578.938110 1029.496582,1582.265625 1037.236206,1583.514038   C1040.827637,1584.093262 1044.543945,1584.060059 1048.202026,1584.037476   C1063.200439,1583.945068 1078.199707,1583.837646 1093.195801,1583.573364   C1123.520630,1583.039062 1153.848633,1582.575073 1184.165405,1581.729980   C1199.706055,1581.296753 1204.285645,1576.575684 1205.553467,1561.345093   C1205.719116,1559.354126 1205.764526,1557.351196 1205.814209,1555.352539   C1206.666748,1521.033203 1207.466919,1486.712646 1208.394653,1452.395386   C1208.583496,1445.406128 1208.953125,1438.395996 1209.752930,1431.454590   C1211.138794,1419.426880 1215.825073,1414.759033 1227.589600,1414.031006   C1235.221436,1413.558594 1242.934814,1413.543823 1250.562134,1414.057739   C1262.125610,1414.837158 1266.738892,1420.386230 1265.099243,1431.937012   C1259.031128,1474.685181 1260.911133,1517.772827 1259.358521,1560.708862   C1258.883911,1573.833740 1264.903564,1579.538208 1278.017578,1580.115112   C1280.345581,1580.217529 1282.683350,1580.139160 1285.015625,1580.094971   C1322.671631,1579.381226 1360.328125,1578.683472 1397.982788,1577.901611   C1401.625732,1577.826050 1405.275879,1577.344727 1408.890869,1576.829102   C1416.951294,1575.679077 1421.269653,1570.749878 1422.110474,1562.844604   C1422.814697,1556.223389 1423.367065,1549.570679 1423.608765,1542.918213   C1424.746826,1511.608521 1425.784180,1480.295166 1426.803467,1448.981323   C1430.424805,1337.718262 1434.039429,1226.455200 1437.575317,1115.189453   C1437.711548,1110.902344 1437.298584,1106.544189 1436.635132,1102.298096   C1435.649048,1095.988403 1431.565308,1092.302124 1425.411255,1091.110718   C1422.494629,1090.546143 1419.462402,1090.379761 1416.481934,1090.375244   C1385.817505,1090.327759 1355.153198,1090.323486 1324.488770,1090.373657   C1317.157349,1090.385620 1309.814331,1090.428101 1302.497437,1090.830811   C1282.404541,1091.936768 1277.304932,1097.022339 1276.387939,1116.931641   C1275.958740,1126.251221 1275.961426,1135.590698 1275.717163,1146.890015  M2040.780884,3285.835449   C2050.898926,3272.545898 2061.165771,3259.199463 2075.192627,3249.885498   C2084.804932,3243.502686 2095.199951,3237.895508 2105.937012,3233.720947   C2117.139404,3229.365234 2127.683838,3234.873535 2131.436523,3246.314697   C2133.217773,3251.745361 2133.904297,3258.434570 2132.441650,3263.837891   C2129.595215,3274.353760 2125.601807,3284.718262 2120.784668,3294.506104   C2112.702881,3310.927246 2103.485107,3326.785889 2095.009033,3343.019043   C2092.566406,3347.697021 2090.287842,3352.693604 2089.226562,3357.812256   C2086.903320,3369.015381 2094.533447,3377.601074 2105.993164,3377.131592   C2111.639893,3376.900391 2117.264893,3376.027344 2122.888428,3375.350342   C2164.888184,3370.293945 2206.843018,3364.819336 2248.903320,3360.334473   C2265.885742,3358.523438 2276.872803,3350.782715 2281.793701,3334.546875   C2298.245361,3280.266846 2302.479004,3225.070801 2289.756348,3169.697510   C2276.809082,3113.348877 2241.779785,3076.465576 2185.397461,3061.200439   C2157.588135,3053.671387 2129.359863,3053.427734 2101.207764,3059.078613   C2051.727051,3069.010986 2011.578491,3093.149170 1983.182495,3135.970459   C1967.726562,3159.277832 1951.102905,3181.856689 1934.127686,3204.093506   C1924.671509,3216.480957 1913.886719,3227.968262 1902.821045,3238.976807   C1893.817871,3247.933594 1882.810425,3254.469971 1870.696289,3258.729248   C1852.383789,3265.167480 1836.714233,3254.866699 1835.743652,3235.397217   C1835.415894,3228.819092 1836.160522,3222.085205 1837.243042,3215.560059   C1839.567627,3201.549072 1846.173584,3189.167725 1852.934082,3176.881836   C1856.460693,3170.472656 1860.389282,3164.170410 1862.964355,3157.375977   C1868.143799,3143.709229 1862.603638,3136.228027 1847.915771,3136.038086   C1844.917603,3135.999512 1841.914429,3136.235352 1838.918701,3136.153076   C1818.940063,3135.605225 1798.926147,3135.566895 1778.996094,3134.258057   C1760.398438,3133.037109 1741.871094,3130.613037 1723.347900,3128.422363   C1696.400757,3125.235107 1680.883667,3134.546875 1671.556885,3159.909180   C1670.868164,3161.782227 1670.267456,3163.688232 1669.658691,3165.589600   C1662.427490,3188.174316 1657.166260,3211.208252 1654.717041,3234.801758   C1650.633789,3274.133545 1653.919189,3312.700928 1668.099854,3349.903076   C1689.386841,3405.748779 1730.342407,3435.411377 1789.568237,3440.249756   C1818.444702,3442.608643 1846.784180,3438.414307 1874.756104,3431.778076   C1928.680298,3418.985107 1971.442017,3390.353760 2001.250488,3342.850098   C2013.276367,3323.685547 2026.990845,3305.580322 2040.780884,3285.835449  M1682.384766,2821.471436   C1680.461182,2827.846436 1678.440552,2834.193848 1676.629517,2840.600586   C1663.084839,2888.518555 1656.322876,2936.990967 1663.967651,2986.790283   C1671.993530,3039.071289 1699.889038,3075.145996 1749.592773,3094.285889   C1770.399902,3102.298340 1791.972290,3105.708008 1813.962524,3107.256104   C1856.371582,3110.241211 1897.048218,3104.156738 1934.664062,3083.143799   C1962.832153,3067.408447 1984.821533,3045.027832 2004.017700,3019.364990   C2020.966309,2996.707031 2038.595215,2974.538330 2056.519775,2952.641602   C2062.357422,2945.510498 2069.528809,2939.133545 2077.104248,2933.872559   C2082.921875,2929.832275 2090.106689,2926.990723 2097.082031,2925.558105   C2109.134766,2923.082764 2118.093018,2929.255615 2120.682129,2941.391602   C2121.898193,2947.089600 2122.335693,2953.602295 2120.807617,2959.101807   C2117.618408,2970.580566 2112.941406,2981.650879 2108.768799,2992.849121   C2106.680908,2998.453125 2103.807617,3003.823242 2102.282715,3009.562988   C2100.411621,3016.605957 2102.804932,3020.313721 2109.821777,3022.278076   C2113.626465,3023.342773 2117.685303,3023.984131 2121.630127,3023.988037   C2156.941895,3024.022461 2192.263916,3024.347412 2227.562012,3023.603271   C2249.732666,3023.135742 2263.160400,3012.749268 2269.397705,2991.512695   C2273.126221,2978.817871 2275.296387,2965.532715 2276.856445,2952.357910   C2282.381592,2905.693604 2273.404541,2861.447266 2252.371582,2819.705811   C2240.329834,2795.808105 2221.169922,2779.422607 2195.914551,2770.179688   C2169.493164,2760.509766 2142.319092,2757.159180 2114.353516,2759.710938   C2064.898926,2764.222900 2022.584595,2783.486816 1988.927124,2820.527588   C1981.981567,2828.171387 1975.144165,2835.930908 1968.593994,2843.913818   C1951.473145,2864.780273 1934.559692,2885.817139 1917.521851,2906.751709   C1908.224243,2918.175781 1898.384888,2929.211914 1885.184937,2936.136475   C1878.242310,2939.778564 1870.557007,2942.902832 1862.877563,2944.042480   C1849.792969,2945.984375 1840.793213,2939.338867 1838.033203,2926.478760   C1836.663940,2920.099121 1836.446045,2913.224609 1837.091187,2906.710938   C1838.513916,2892.346191 1842.979248,2878.676270 1849.390869,2865.775391   C1856.056641,2852.363037 1863.300049,2839.239014 1870.191162,2825.937256   C1872.636353,2821.217773 1875.269043,2816.510498 1876.975830,2811.510986   C1880.726196,2800.525635 1876.740112,2793.964111 1865.176514,2792.417725   C1858.607422,2791.539062 1851.873657,2791.729004 1845.213745,2791.717529   C1800.914429,2791.641602 1756.562500,2793.260254 1712.596558,2785.429199   C1701.455933,2783.445068 1694.276367,2788.410889 1690.088257,2799.212158   C1687.442505,2806.035400 1685.300537,2813.054199 1682.384766,2821.471436  M2175.802002,1005.098328   C2174.423340,954.135315 2173.008301,903.173279 2171.688232,852.208740   C2171.282715,836.552673 2171.378174,820.881104 2170.803711,805.232788   C2170.283203,791.048950 2165.157471,786.334656 2150.905029,786.129944   C2125.915527,785.770874 2100.924805,785.249207 2075.934570,785.253662   C2013.286377,785.264832 1950.627686,786.315063 1887.992676,785.483765   C1821.033325,784.595154 1754.097168,781.998779 1687.149048,780.213196   C1666.707642,779.668030 1662.978394,783.225708 1662.852417,803.361877   C1662.360229,882.004700 1661.928101,960.647949 1661.501953,1039.291260   C1661.482056,1042.951660 1661.490723,1046.641846 1661.908691,1050.269409   C1662.920532,1059.049927 1666.768799,1063.368286 1675.521362,1065.130249   C1679.399048,1065.910645 1683.462036,1066.003174 1687.441406,1066.009888   C1727.096802,1066.076538 1766.752197,1066.067871 1806.407593,1066.052612   C1809.736938,1066.051392 1813.095703,1066.090698 1816.389893,1065.691406   C1824.936646,1064.655273 1828.226318,1061.546387 1829.288208,1053.139404   C1829.828125,1048.864380 1829.757935,1044.492554 1829.718872,1040.166870   C1829.387451,1003.512329 1828.979492,966.858521 1828.658325,930.203979   C1828.623535,926.220764 1828.595093,922.166626 1829.257080,918.263000   C1830.617188,910.242981 1834.582397,907.274780 1843.218018,907.075134   C1851.729736,906.878357 1856.498535,909.802856 1858.183716,917.208862   C1859.282227,922.036560 1859.569092,927.089600 1859.824707,932.061951   C1861.774292,969.997742 1863.557983,1007.942139 1865.545166,1045.875977   C1866.284546,1059.991333 1871.259033,1064.685059 1885.404663,1065.385864   C1886.734741,1065.451904 1888.069702,1065.422974 1889.402466,1065.425415   C1920.059692,1065.482300 1950.716919,1065.559692 1981.374146,1065.565918   C1985.362793,1065.566650 1989.397827,1065.514526 1993.330688,1064.937744   C2001.707764,1063.708862 2004.269897,1061.064819 2005.248657,1052.779419   C2005.676514,1049.157593 2005.604248,1045.459595 2005.541748,1041.799927   C2005.234375,1023.808044 2004.799072,1005.818176 2004.513062,987.825989   C2004.168823,966.168640 2003.770630,944.510071 2003.714478,922.851135   C2003.688110,912.698547 2007.353149,908.814453 2016.135742,908.269409   C2026.094727,907.651367 2031.474121,911.646362 2032.984863,921.160034   C2033.556519,924.759827 2033.542236,928.460571 2033.681641,932.119629   C2035.129028,970.077942 2036.470093,1008.040588 2038.028442,1045.994263   C2038.590942,1059.692993 2042.575073,1063.678589 2055.968994,1064.993774   C2058.617188,1065.253784 2061.290283,1065.345947 2063.952637,1065.363281   C2094.276123,1065.559814 2124.599854,1065.737427 2154.923340,1065.884644   C2157.918213,1065.899170 2160.949219,1065.930054 2163.902832,1065.519165   C2172.805176,1064.280029 2176.107422,1060.937988 2177.069580,1051.997681   C2177.459473,1048.375854 2177.296387,1044.677002 2177.173828,1041.020386   C2176.793213,1029.697754 2176.311035,1018.378540 2175.802002,1005.098328  M2708.234863,1517.047607   C2710.893311,1510.253540 2714.205078,1503.635864 2716.094482,1496.634277   C2723.493408,1469.214111 2723.169189,1441.217285 2720.988770,1413.224243   C2716.875000,1360.411011 2712.699951,1307.599731 2708.056641,1254.831177   C2704.173096,1210.696289 2699.629150,1166.619019 2695.262939,1122.527588   C2694.575195,1115.582031 2693.567383,1108.639038 2692.195312,1101.797607   C2690.546143,1093.575073 2684.929443,1089.373047 2676.782227,1088.507446   C2674.146729,1088.227417 2671.455566,1088.354736 2668.795166,1088.449463   C2649.146484,1089.149170 2629.497803,1089.854858 2609.851807,1090.628296   C2600.195312,1091.008423 2590.525146,1091.294434 2580.896484,1092.064331   C2570.452881,1092.899292 2566.109863,1098.014648 2566.324951,1108.407715   C2566.359375,1110.069336 2566.540283,1111.733521 2566.745117,1113.385132   C2570.186523,1141.152710 2573.633301,1168.919556 2577.099365,1196.684082   C2578.493164,1207.848999 2576.758545,1218.609741 2572.789062,1229.029907   C2568.664307,1239.857422 2560.399902,1245.213257 2549.095215,1245.954590   C2532.158936,1247.065552 2525.936035,1241.148682 2525.996826,1224.137451   C2526.060059,1206.474365 2526.495361,1188.808838 2526.298584,1171.149414   C2526.068359,1150.496704 2525.767578,1129.826050 2524.648926,1109.209106   C2523.989990,1097.060425 2519.522461,1093.086182 2507.559326,1092.998535   C2480.572998,1092.800537 2453.567627,1092.625854 2426.598633,1093.417847   C2405.347656,1094.041992 2401.798096,1099.289917 2401.286133,1120.391357   C2400.219482,1164.348511 2398.239502,1208.282837 2396.872559,1252.233887   C2396.220703,1273.190308 2394.952148,1294.223267 2396.024414,1315.115845   C2397.763672,1349.006226 2416.127686,1370.606689 2448.560547,1380.044067   C2473.851562,1387.402954 2499.314209,1386.758423 2524.674072,1381.062134   C2539.576416,1377.714966 2554.213379,1373.166138 2568.925049,1369.000366   C2577.674805,1366.522949 2584.287354,1371.546753 2583.517090,1380.698853   C2583.273926,1383.590698 2582.123535,1386.539795 2580.821777,1389.183716   C2577.042969,1396.859009 2571.257080,1402.840088 2563.855713,1407.046997   C2548.588379,1415.724487 2532.208740,1421.309326 2514.615723,1422.037720   C2481.224854,1423.419800 2448.031494,1421.387695 2415.180420,1414.819824   C2408.342529,1413.452759 2401.422607,1412.380005 2394.490967,1411.630127   C2387.681885,1410.893188 2382.873535,1414.276611 2380.413818,1420.494141   C2378.585693,1425.116089 2377.156250,1429.934204 2375.979736,1434.769653   C2369.211670,1462.585327 2362.551514,1490.427490 2355.906250,1518.273071   C2354.747803,1523.126587 2353.528076,1527.997681 2352.868164,1532.931641   C2351.506104,1543.119263 2354.760742,1547.839111 2364.594238,1550.549927   C2366.830322,1551.166504 2369.133789,1551.717773 2371.436523,1551.887207   C2390.374023,1553.280396 2409.299561,1555.128174 2428.265381,1555.798706   C2484.596191,1557.789673 2540.893311,1555.759277 2597.168457,1553.327148   C2614.801025,1552.565063 2632.499268,1551.959229 2650.002441,1549.887451   C2673.163086,1547.145874 2694.016846,1539.147339 2708.234863,1517.047607  M2060.869141,1823.736328   C2051.264648,1841.244385 2041.580200,1858.709351 2032.112061,1876.290771   C2029.766357,1880.646240 2027.361694,1885.212402 2026.317017,1889.973999   C2024.362061,1898.886597 2028.780396,1904.881470 2037.806641,1906.476685   C2041.382202,1907.108521 2045.101196,1907.152222 2048.750488,1907.107666   C2093.399902,1906.562622 2138.048584,1905.964600 2182.696777,1905.332764   C2186.352539,1905.281128 2190.015625,1904.996826 2193.655029,1904.623779   C2205.348389,1903.424927 2213.358887,1897.063721 2218.013184,1886.502686   C2219.744141,1882.574707 2221.083008,1878.388916 2221.969971,1874.187378   C2228.911377,1841.305542 2229.422852,1808.056519 2226.903320,1774.719116   C2225.341309,1754.051514 2221.168213,1733.849731 2213.988525,1714.342529   C2195.151123,1663.161865 2161.541260,1627.116699 2108.528076,1610.479980   C2071.510254,1598.862915 2033.758911,1591.177124 1995.105591,1588.294312   C1918.289307,1582.564819 1843.630249,1594.014893 1770.818604,1618.158447   C1726.412354,1632.883057 1695.815918,1662.742065 1678.819092,1706.309937   C1669.063599,1731.316406 1664.030029,1757.409424 1661.940186,1784.126221   C1658.961426,1822.206909 1662.463379,1860.027832 1666.385864,1897.827637   C1667.524048,1908.795776 1671.820923,1913.341919 1682.849121,1914.255981   C1693.453369,1915.134888 1704.157837,1915.495361 1714.793091,1915.195557   C1771.080566,1913.608765 1827.360596,1911.755737 1883.641235,1909.932373   C1886.607056,1909.836304 1889.662598,1909.536987 1892.490723,1908.702515   C1902.820679,1905.654907 1906.192383,1896.522705 1900.068970,1887.628906   C1897.653320,1884.120483 1894.419312,1881.065674 1891.161987,1878.264771   C1871.592773,1861.436401 1857.165527,1840.928223 1846.975708,1817.318359   C1834.462280,1788.325073 1842.933594,1769.603882 1872.929321,1760.539307   C1916.265259,1747.443359 1960.348511,1743.078491 2005.249268,1750.181030   C2022.679688,1752.938110 2040.087280,1756.219849 2056.094482,1764.112061   C2070.321533,1771.126343 2074.916992,1780.754639 2070.898926,1796.094604   C2068.551025,1805.058594 2064.735352,1813.638062 2060.869141,1823.736328  M1789.600098,1128.420288   C1782.689575,1160.641235 1775.419434,1192.790039 1768.937988,1225.097046   C1751.773071,1310.657349 1734.938232,1396.292480 1728.990845,1483.581909   C1727.428223,1506.514526 1726.266113,1529.489624 1725.637207,1552.464844   C1725.262573,1566.156250 1731.493896,1571.772827 1745.142090,1572.033813   C1747.806519,1572.084839 1750.474121,1572.017334 1753.139282,1571.960327   C1785.455566,1571.270020 1817.772095,1570.588745 1850.087280,1569.846436   C1853.068848,1569.778076 1856.089722,1569.552856 1859.008423,1568.975952   C1866.669556,1567.461426 1871.492920,1562.897217 1872.651611,1555.031860   C1873.182617,1551.427124 1873.471191,1547.748047 1873.441406,1544.106201   C1873.286255,1525.111816 1872.911621,1506.119141 1872.774414,1487.124634   C1872.664917,1471.980713 1875.369995,1469.184692 1890.767212,1468.847290   C1904.089600,1468.555420 1917.432983,1468.250610 1930.743896,1468.675659   C1943.666260,1469.088257 1948.532959,1474.129395 1949.967407,1486.943115   C1952.079468,1505.811401 1954.146606,1524.684692 1956.238159,1543.555176   C1957.814575,1557.776978 1962.588013,1562.341064 1976.837280,1562.157471   C2014.822388,1561.667847 2052.805664,1561.006348 2090.786865,1560.274902   C2102.923828,1560.041138 2106.489258,1555.873413 2104.538330,1544.158203   C2101.530029,1526.094360 2098.936768,1507.916138 2094.869629,1490.082275   C2082.881348,1437.515015 2070.710449,1384.980713 2057.767334,1332.642090   C2040.186279,1261.548218 2020.674805,1190.970825 1998.145874,1121.261353   C1990.738892,1098.342285 1987.481934,1095.784668 1963.175049,1095.694092   C1914.188354,1095.511475 1865.200439,1095.668945 1816.213013,1095.703369   C1813.882568,1095.704956 1811.552490,1095.875854 1809.221802,1095.958740   C1801.593628,1096.230225 1796.702271,1100.196167 1794.649292,1107.376465   C1792.821045,1113.771118 1791.469116,1120.302002 1789.600098,1128.420288  M1659.231689,213.984070   C1658.982666,263.964996 1658.696167,313.945801 1658.543213,363.927032   C1658.527954,368.892975 1658.869751,373.953339 1659.847656,378.808380   C1661.547607,387.247681 1666.393677,391.449493 1675.056274,391.975555   C1681.017578,392.337524 1687.051880,392.065338 1693.021118,391.631561   C1719.924561,389.676392 1746.793701,387.176056 1773.717285,385.584747   C1832.613159,382.103851 1891.576172,381.121246 1950.561035,382.386169   C1957.811523,382.541687 1965.143921,383.821320 1972.232666,385.466125   C1983.949585,388.184845 1990.275757,396.327423 1991.859009,407.981201   C1992.662598,413.896820 1992.830078,419.938873 1992.798828,425.921234   C1992.620850,459.907837 1992.188843,493.893219 1992.060913,527.879822   C1991.982178,548.795105 1996.698364,553.669250 2017.788330,554.430237   C2053.415039,555.715942 2089.050781,556.760620 2124.683594,557.873352   C2128.678223,557.998047 2132.682861,558.012817 2136.677734,557.898193   C2151.633789,557.468994 2155.828857,553.465759 2155.905762,538.733582   C2155.961426,528.078003 2155.479004,517.416809 2155.112305,506.762299   C2153.325195,454.817413 2151.657471,402.867706 2149.633057,350.931946   C2147.881592,305.989716 2145.854980,261.056702 2143.642334,216.134781   C2142.886963,200.805298 2136.126953,193.950195 2120.809326,192.139664   C2077.490479,187.019409 2034.155151,182.037048 1990.814331,177.105881   C1976.960938,175.529678 1971.970093,180.313232 1972.143066,194.507706   C1972.260742,204.169708 1972.627075,213.834717 1972.477295,223.492096   C1972.350708,231.642273 1969.912598,233.393875 1961.832275,231.969711   C1960.204956,231.682877 1958.637939,231.060898 1957.038574,230.609436   C1933.673218,224.013626 1910.305298,217.426270 1886.941284,210.825714   C1824.532104,193.194519 1762.138428,175.507690 1699.692627,158.007782   C1693.972900,156.404892 1687.937622,155.293365 1682.021729,155.160446   C1670.369019,154.898621 1664.138916,159.949585 1661.208618,171.287674   C1660.219360,175.115433 1659.786743,179.159836 1659.659546,183.123184   C1659.349609,192.779175 1659.367554,202.445679 1659.231689,213.984070  M1923.701294,553.827576   C1930.236816,552.918030 1936.752808,551.817200 1943.312378,551.141541   C1954.539429,549.985291 1958.525757,546.153564 1959.509766,534.828430   C1959.739868,532.179626 1959.745483,529.495422 1959.640259,526.835999   C1959.113159,513.518066 1958.599365,500.198639 1957.918335,486.888092   C1957.219971,473.243958 1956.410034,459.604401 1955.508301,445.972137   C1954.598022,432.213104 1951.716431,429.131683 1938.370361,427.302032   C1935.072510,426.849945 1931.749268,426.456635 1928.426636,426.329742   C1891.135620,424.905914 1853.842896,422.447968 1816.549805,422.435760   C1770.583862,422.420746 1724.613159,424.311859 1678.653809,425.692749   C1665.234009,426.095917 1660.280640,431.797974 1660.268311,445.249176   C1660.239990,476.242432 1660.221191,507.236145 1660.369263,538.228882   C1660.433594,551.680359 1664.973145,556.923401 1678.022583,559.440735   C1679.979126,559.818115 1681.984009,560.024658 1683.975830,560.125732   C1700.606445,560.969482 1717.245239,561.665405 1733.868408,562.631775   C1741.168579,563.056091 1748.590820,563.315979 1755.683838,564.887085   C1764.898438,566.928284 1768.618042,572.606934 1768.199219,581.456970   C1767.766724,590.594604 1762.864624,596.173767 1753.570435,597.615967   C1750.304077,598.122803 1746.919678,598.044189 1743.594971,597.969482   C1725.604370,597.565247 1707.616455,597.043640 1689.625732,596.644897   C1685.306885,596.549255 1680.908691,596.292542 1676.673950,596.940247   C1668.268311,598.225952 1664.608276,602.325989 1663.484863,610.819580   C1663.180298,613.122314 1663.138916,615.470947 1663.125488,617.799316   C1662.925171,652.459412 1662.716431,687.119507 1662.611816,721.779968   C1662.598877,726.093079 1662.991089,730.429504 1663.510132,734.717041   C1664.333496,741.519470 1668.281250,745.722717 1675.082153,746.520935   C1681.340820,747.255615 1687.679199,747.761963 1693.973267,747.679016   C1826.964844,745.926697 1959.906860,749.375061 2092.862793,751.361023   C2111.523193,751.639771 2130.188232,751.995178 2148.847412,751.844910   C2161.758301,751.740967 2166.250977,747.662964 2165.848389,735.076294   C2164.603271,696.122009 2163.304688,657.152344 2160.881592,618.259949   C2159.662354,598.690857 2157.892090,598.173767 2138.116943,597.736328   C2074.145508,596.321167 2010.173462,594.943176 1946.203857,593.452515   C1939.556396,593.297668 1932.858887,592.899963 1926.303833,591.861877   C1920.025024,590.867554 1914.760498,587.522339 1913.850586,580.647034   C1912.543823,570.773865 1913.239136,561.230652 1923.701294,553.827576  M2107.105713,1410.024292   C2112.454590,1427.878906 2117.130127,1445.970703 2123.311035,1463.532471   C2132.474609,1489.568237 2142.581543,1515.276245 2152.538330,1541.026367   C2156.852783,1552.184082 2164.851562,1557.552734 2177.401855,1556.763428   C2192.355713,1555.822998 2207.382568,1556.065552 2222.376221,1555.733521   C2246.365723,1555.202515 2270.352783,1554.570190 2294.343262,1554.091919   C2301.011963,1553.958862 2307.127197,1552.733032 2310.477539,1546.282471   C2312.141846,1543.077637 2313.158203,1539.481201 2314.097168,1535.963135   C2334.471924,1459.636230 2349.794189,1382.245850 2361.810303,1304.216675   C2368.348145,1261.760010 2373.906494,1219.139648 2379.114014,1176.496338   C2381.775391,1154.706177 2383.138184,1132.724854 2384.227051,1110.787231   C2384.892578,1097.375366 2379.692139,1092.395630 2366.551025,1092.300903   C2333.890381,1092.065552 2301.226562,1092.011597 2268.565186,1092.124390   C2254.426514,1092.173218 2247.677002,1098.331177 2246.090332,1112.242554   C2239.937500,1166.192383 2234.058350,1220.174072 2227.709961,1274.100464   C2225.846436,1289.930176 2222.952148,1305.650269 2220.111084,1321.344482   C2219.427979,1325.117676 2217.072021,1328.588135 2214.599609,1334.213379   C2213.307129,1329.114868 2212.546387,1326.578247 2212.026367,1323.993042   C2204.677246,1287.437134 2197.394287,1250.867798 2190.026123,1214.315796   C2183.381592,1181.352905 2176.751465,1148.386475 2169.913574,1115.463501   C2167.079102,1101.818115 2160.086914,1095.458862 2146.437012,1093.258301   C2143.813721,1092.835327 2141.143555,1092.464844 2138.495361,1092.467773   C2111.835693,1092.496704 2085.175049,1092.533325 2058.516602,1092.755005   C2052.531494,1092.804932 2046.519409,1093.324097 2040.577759,1094.082275   C2030.402344,1095.380859 2027.246094,1099.195068 2027.762329,1109.268066   C2027.931641,1112.571533 2028.448120,1115.905151 2029.230469,1119.121826   C2037.884399,1154.697144 2045.931641,1190.438843 2055.490234,1225.771118   C2072.005127,1286.817993 2089.472412,1347.607422 2107.105713,1410.024292  M1602.334839,1571.134155   C1611.654541,1570.753174 1620.974731,1570.381958 1630.293945,1569.989136   C1645.938232,1569.329712 1661.593140,1568.848022 1677.222290,1567.929077   C1689.993652,1567.178223 1694.333008,1562.904785 1695.748535,1550.242554   C1696.451172,1543.957886 1696.732300,1537.621582 1697.067871,1531.301392   C1698.428467,1505.685913 1700.017334,1480.078247 1700.965942,1454.447021   C1701.614380,1436.929932 1697.067627,1431.988403 1679.819458,1431.663086   C1661.848145,1431.324219 1643.852783,1431.801514 1625.878784,1432.307495   C1619.250732,1432.494019 1612.671509,1434.169312 1606.038208,1434.475708   C1595.417847,1434.966064 1590.747437,1430.463867 1590.323730,1419.753906   C1590.060547,1413.101196 1590.039917,1406.425293 1590.250732,1399.770630   C1590.539551,1390.653442 1594.302856,1386.363647 1603.269775,1384.958618   C1606.862549,1384.395630 1610.572998,1384.491943 1614.231567,1384.456909   C1640.551270,1384.205811 1666.873413,1384.129150 1693.190674,1383.728027   C1709.437012,1383.480591 1716.235474,1376.908447 1717.591431,1360.944824   C1717.704224,1359.617676 1717.724731,1358.282959 1717.799072,1356.952271   C1718.973267,1335.997559 1720.096436,1315.039551 1721.339722,1294.088867   C1722.535522,1273.940186 1717.082886,1268.010620 1696.935425,1268.533081   C1670.959473,1269.206421 1644.991699,1270.187866 1619.018311,1270.968994   C1615.701782,1271.068726 1612.339600,1271.016968 1609.056152,1270.591675   C1600.923218,1269.538086 1597.808350,1266.860596 1596.764648,1258.702393   C1595.966553,1252.464478 1596.084351,1246.072266 1596.228027,1239.758423   C1596.608765,1223.028809 1599.553101,1219.841431 1616.173340,1219.544678   C1646.151978,1219.009277 1676.137085,1218.806396 1706.120361,1218.573364   C1726.811279,1218.412476 1730.575806,1215.047974 1731.531250,1194.465942   C1732.674316,1169.839355 1733.614990,1145.203125 1734.577026,1120.568481   C1734.732666,1116.579712 1734.770752,1112.560425 1734.470337,1108.584839   C1733.702759,1098.423950 1730.520874,1094.991455 1720.627441,1093.563110   C1717.011108,1093.041138 1713.332275,1092.713501 1709.681030,1092.707031   C1638.047974,1092.580078 1566.414795,1092.479004 1494.781616,1092.505981   C1489.488281,1092.507935 1484.135742,1093.196045 1478.917603,1094.150513   C1472.815430,1095.266968 1468.810669,1099.086182 1467.603516,1105.331055   C1466.974609,1108.584106 1466.407837,1111.896606 1466.308594,1115.197144   C1465.467041,1143.169434 1464.855835,1171.148804 1463.955688,1199.118896   C1461.598022,1272.377563 1459.128052,1345.632568 1456.704834,1418.889038   C1455.273071,1462.176636 1453.835693,1505.463989 1452.432251,1548.752441   C1452.313599,1552.412476 1452.225952,1556.095337 1452.483887,1559.742065   C1453.292358,1571.169434 1457.293701,1575.224487 1468.609741,1575.824585   C1473.922363,1576.106323 1479.271484,1575.938965 1484.595093,1575.737305   C1523.212769,1574.274292 1561.828247,1572.750488 1602.334839,1571.134155  M977.493958,1069.545288   C947.475403,1054.407104 917.498413,1039.185547 887.406738,1024.193970   C880.573914,1020.789978 873.509888,1017.665710 866.255249,1015.338623   C856.659607,1012.260437 850.919922,1016.138977 848.950195,1026.083130   C848.563843,1028.033691 848.451965,1030.047241 848.321106,1032.038696   C844.235718,1094.220459 840.247620,1156.408813 836.064697,1218.583984   C832.284241,1274.777222 828.472961,1330.969727 824.274414,1387.132568   C823.166565,1401.951904 827.614807,1413.312378 838.851501,1423.349243   C882.102600,1461.981445 924.861694,1501.164429 967.815857,1540.129272   C969.539551,1541.692871 971.239868,1543.348877 973.189697,1544.585571   C982.438171,1550.450684 991.638489,1545.576904 991.935364,1534.621338   C992.179138,1525.628662 991.954407,1516.620850 992.304932,1507.634033   C994.864136,1442.024414 997.341125,1376.410645 1000.197571,1310.813599   C1002.270935,1263.200073 1004.892456,1215.610352 1007.254822,1168.009399   C1008.345154,1146.039185 1009.254700,1124.058838 1010.532837,1102.099731   C1011.174011,1091.085571 1006.700562,1083.564575 996.801636,1078.946899   C990.769043,1076.132690 984.853760,1073.067017 977.493958,1069.545288  M1548.483032,1060.367920   C1546.485352,1059.275513 1544.597656,1057.859497 1542.473755,1057.138916   C1504.992554,1044.420654 1467.371948,1032.102905 1430.023926,1019.006836   C1410.250610,1012.073181 1390.122925,1008.919312 1369.281494,1009.047058   C1344.628540,1009.198181 1319.973511,1009.089905 1295.319580,1009.021118   C1168.049072,1008.665771 1040.778687,1008.283264 913.508118,1007.939331   C910.395569,1007.930969 907.282043,1008.259888 903.794373,1008.452148   C906.068115,1016.225769 911.989014,1017.818970 917.547791,1019.801208   C946.988342,1030.299561 976.792358,1039.887329 1005.782959,1051.505859   C1031.348633,1061.751709 1057.448486,1065.888428 1084.752930,1065.852539   C1231.347656,1065.659912 1377.942627,1065.760620 1524.537598,1065.775391   C1530.200195,1065.776001 1535.863892,1066.030151 1541.525146,1065.976929   C1544.746094,1065.946655 1548.301270,1066.135620 1548.483032,1060.367920  M2372.999756,1069.377686   C2415.640869,1069.387695 2458.282227,1069.422241 2500.923340,1069.400757   C2542.228271,1069.379883 2583.533203,1069.302490 2624.838135,1069.223633   C2625.066895,1069.223145 2625.324707,1068.868652 2625.516357,1068.635986   C2625.725342,1068.382324 2625.873047,1068.078125 2626.155273,1067.621338   C2623.539062,1061.242065 2617.458008,1060.062256 2611.763428,1058.457764   C2562.150146,1044.479614 2512.581787,1030.335815 2462.856445,1016.766968   C2450.729004,1013.457642 2438.120605,1010.459351 2425.651855,1010.094604   C2359.727295,1008.165527 2293.776855,1007.118164 2227.834961,1005.789673   C2224.507080,1005.722656 2221.160645,1005.708923 2217.847412,1005.975220   C2210.073975,1006.600037 2207.051514,1008.748169 2207.020996,1016.171875   C2206.963379,1030.138184 2207.616211,1044.130493 2208.610596,1058.066772   C2209.026367,1063.893433 2212.930664,1067.748047 2219.142334,1068.257568   C2224.777832,1068.719727 2230.433105,1069.193115 2236.080811,1069.207764   C2281.053711,1069.324585 2326.026611,1069.333374 2372.999756,1069.377686  z"/>
<path fill="#010101" opacity="1.000000" stroke="none" d=" M1377.116943,2526.942871   C1378.941650,2420.033936 1380.720581,2314.060791 1382.553345,2208.088379   C1385.815674,2019.471680 1389.101685,1830.855347 1392.428101,1642.239624   C1392.545410,1635.588379 1392.794556,1628.890869 1393.699463,1622.313721   C1394.963745,1613.124756 1398.546387,1609.498413 1407.508423,1607.677856   C1411.727051,1606.820801 1416.081909,1606.360352 1420.388550,1606.251587   C1479.694092,1604.754272 1539.001831,1603.344604 1598.309570,1601.934814   C1601.973145,1601.847778 1605.649536,1601.783447 1609.305176,1601.981079   C1619.071045,1602.509277 1622.184448,1605.445435 1623.138306,1615.345337   C1623.552368,1619.643433 1623.463867,1624.001465 1623.420898,1628.330444   C1621.492188,1822.635742 1620.252930,2016.951172 1617.445068,2211.243896   C1611.997437,2588.177246 1609.563477,2965.130615 1608.043091,3342.093750   C1608.002930,3352.072266 1608.697266,3362.054932 1609.104248,3372.033447   C1609.313354,3377.162842 1609.083740,3382.122314 1604.530273,3385.598389   C1598.812134,3389.964600 1591.861328,3389.003906 1588.263306,3382.664062   C1585.159058,3377.195068 1583.186157,3371.096680 1580.476074,3365.389160   C1541.912598,3284.176270 1503.298096,3202.988037 1464.718506,3121.782959   C1435.855469,3061.029297 1407.069580,3000.239258 1378.139771,2939.517578   C1372.879150,2928.475830 1370.118408,2917.079346 1370.344360,2904.794189   C1372.654785,2779.156738 1374.860474,2653.517822 1377.116943,2526.942871  z"/>
<path fill="#010101" opacity="1.000000" stroke="none" d=" M2206.045410,2684.046387   C2180.804199,2708.496582 2150.734863,2723.062988 2118.604004,2734.013672   C2078.429443,2747.706055 2036.949707,2755.698242 1995.119751,2762.052002   C1961.151367,2767.211914 1926.974976,2770.187744 1892.589966,2769.686523   C1855.851318,2769.150635 1819.419312,2765.496094 1783.866333,2755.854248   C1730.319092,2741.332275 1693.155151,2708.006592 1673.452271,2656.175781   C1649.369019,2592.821777 1648.951294,2529.872559 1679.996704,2468.379883   C1706.207886,2416.462646 1747.483032,2381.696289 1802.481079,2363.214355   C1873.535645,2339.336670 1946.444458,2327.428467 2021.515747,2330.200928   C2057.553223,2331.531738 2093.266846,2335.965088 2128.239746,2344.743896   C2195.728027,2361.684570 2239.428467,2404.919678 2259.673584,2470.500244   C2284.699219,2551.565674 2265.924805,2622.923340 2206.045410,2684.046387  M2105.398438,2561.915039   C2116.272217,2537.360107 2110.118896,2516.827637 2087.430176,2502.600830   C2072.629639,2493.319580 2056.715088,2486.890381 2039.417725,2483.773438   C2001.917236,2477.016113 1964.489868,2477.882812 1927.136719,2484.569824   C1905.782715,2488.392578 1884.869629,2493.880371 1865.630493,2504.344238   C1852.067749,2511.721191 1839.679077,2520.676025 1830.023560,2532.907715   C1819.167480,2546.660156 1817.350464,2561.540771 1823.959839,2577.919922   C1830.585938,2594.340088 1843.830933,2602.490723 1859.447510,2607.609131   C1880.125488,2614.386719 1901.471802,2617.739502 1923.249023,2618.206543   C1962.171021,2619.041260 2000.236572,2612.806885 2037.862671,2603.688232   C2054.081787,2599.757080 2069.337402,2593.026123 2083.543457,2584.074219   C2092.134521,2578.660156 2099.523682,2572.124023 2105.398438,2561.915039  z"/>
<path fill="#010101" opacity="1.000000" stroke="none" d=" M1782.001953,1948.766846   C1903.248413,1946.410889 2023.495605,1944.100464 2143.740234,1941.669556   C2160.724365,1941.326294 2177.691895,1940.216797 2194.675537,1939.791382   C2210.757568,1939.388184 2216.501465,1943.831665 2219.461182,1959.508179   C2232.862549,2030.485840 2239.099121,2102.001221 2234.609619,2174.239014   C2233.743164,2188.181641 2233.006592,2202.232422 2230.648193,2215.964844   C2222.493164,2263.449463 2193.734131,2292.177490 2147.628662,2303.839600   C2110.096191,2313.333984 2071.892334,2314.698242 2033.516724,2310.801025   C2021.641235,2309.594971 2009.707275,2307.697754 1998.167480,2304.701904   C1969.633667,2297.293701 1946.190674,2281.306396 1926.363525,2259.758301   C1923.919312,2257.101807 1921.469604,2254.450195 1918.432495,2251.156738   C1913.139526,2256.336182 1907.548706,2260.700195 1903.319336,2266.125244   C1876.078491,2301.068115 1838.843872,2319.983887 1797.603149,2332.330566   C1762.850830,2342.734863 1727.772095,2351.916748 1691.738037,2356.853516   C1688.807739,2357.254883 1685.745361,2357.381592 1682.822754,2357.013672   C1675.411865,2356.080078 1670.609497,2351.939697 1669.268555,2344.435059   C1668.687378,2341.181396 1668.392456,2337.830322 1668.402100,2334.524658   C1668.517944,2294.876953 1668.670288,2255.228760 1668.912354,2215.581543   C1669.019043,2198.105469 1674.246216,2190.954590 1691.370483,2186.172119   C1718.606079,2178.566162 1745.973389,2171.431885 1773.279541,2164.077881   C1787.800659,2160.166992 1801.838623,2155.064941 1814.599976,2146.922363   C1824.525879,2140.589355 1831.552246,2132.013184 1834.553833,2120.465820   C1836.717651,2112.141357 1834.050171,2107.953369 1825.516602,2108.195312   C1811.209961,2108.601074 1796.925659,2109.853760 1782.636353,2110.813721   C1750.730713,2112.956543 1718.835815,2115.270508 1686.919922,2117.245117   C1672.903809,2118.112549 1667.871216,2113.315918 1667.866821,2099.464844   C1667.852905,2055.818604 1667.961182,2012.172241 1668.114624,1968.526245   C1668.161377,1955.204468 1672.559326,1950.462036 1686.061401,1950.109985   C1711.038574,1949.458740 1736.027344,1949.245239 1761.011719,1948.881958   C1767.674316,1948.785156 1774.338501,1948.806641 1782.001953,1948.766846  M2031.957275,2157.377930   C2052.197998,2159.421875 2071.569824,2156.337402 2090.564941,2148.905273   C2101.395020,2144.667969 2106.779541,2136.781982 2109.869141,2126.507568   C2112.658447,2117.231689 2111.626465,2108.075928 2108.271973,2099.117432   C2104.672852,2089.505859 2099.896729,2086.051514 2089.576904,2085.797363   C2085.925781,2085.707520 2082.256104,2085.895996 2078.610352,2086.166748   C2059.372314,2087.593994 2040.136353,2089.050049 2020.905762,2090.573486   C2009.304443,2091.492188 1997.687622,2092.318359 1986.128540,2093.632080   C1978.899902,2094.453857 1976.615479,2096.757080 1975.637085,2102.248047   C1972.093628,2122.135254 1986.237061,2145.831787 2005.840210,2151.879395   C2013.737915,2154.315674 2022.048218,2155.414062 2031.957275,2157.377930  z"/>
<path fill="#010101" opacity="1.000000" stroke="none" d=" M1414.504639,352.035156   C1415.050903,321.048553 1415.585571,291.055573 1416.111450,261.062439   C1416.515991,237.980118 1420.854370,232.033096 1442.742310,224.975769   C1500.362427,206.397293 1557.996704,187.862579 1615.622437,169.301331   C1634.791870,163.126862 1636.444092,164.214050 1636.313477,183.960968   C1634.962158,388.279877 1633.576172,592.598572 1632.196167,796.917297   C1631.687378,872.245239 1631.184326,947.573303 1630.629761,1022.900940   C1630.575806,1030.229614 1630.544678,1037.590332 1629.855591,1044.875000   C1628.683838,1057.259155 1623.868652,1060.503296 1611.701172,1057.265869   C1605.926880,1055.729370 1600.279663,1053.640625 1594.687378,1051.506714   C1539.375610,1030.400269 1484.086060,1009.235840 1428.796997,988.069824   C1426.005371,987.001099 1423.319824,985.648560 1420.510986,984.632568   C1408.898438,980.432434 1404.083252,971.798157 1404.215454,959.897827   C1404.337646,948.899353 1404.448120,937.900513 1404.639648,926.903198   C1406.734253,806.597229 1408.865356,686.291870 1410.941162,565.985596   C1412.166016,495.000702 1413.309326,424.014374 1414.504639,352.035156  z"/>
<path fill="#010101" opacity="1.000000" stroke="none" d=" M1275.742798,1145.905518   C1275.961426,1135.590698 1275.958740,1126.251221 1276.387939,1116.931641   C1277.304932,1097.022339 1282.404541,1091.936768 1302.497437,1090.830811   C1309.814331,1090.428101 1317.157349,1090.385620 1324.488770,1090.373657   C1355.153198,1090.323486 1385.817505,1090.327759 1416.481934,1090.375244   C1419.462402,1090.379761 1422.494629,1090.546143 1425.411255,1091.110718   C1431.565308,1092.302124 1435.649048,1095.988403 1436.635132,1102.298096   C1437.298584,1106.544189 1437.711548,1110.902344 1437.575317,1115.189453   C1434.039429,1226.455200 1430.424805,1337.718262 1426.803467,1448.981323   C1425.784180,1480.295166 1424.746826,1511.608521 1423.608765,1542.918213   C1423.367065,1549.570679 1422.814697,1556.223389 1422.110474,1562.844604   C1421.269653,1570.749878 1416.951294,1575.679077 1408.890869,1576.829102   C1405.275879,1577.344727 1401.625732,1577.826050 1397.982788,1577.901611   C1360.328125,1578.683472 1322.671631,1579.381226 1285.015625,1580.094971   C1282.683350,1580.139160 1280.345581,1580.217529 1278.017578,1580.115112   C1264.903564,1579.538208 1258.883911,1573.833740 1259.358521,1560.708862   C1260.911133,1517.772827 1259.031128,1474.685181 1265.099243,1431.937012   C1266.738892,1420.386230 1262.125610,1414.837158 1250.562134,1414.057739   C1242.934814,1413.543823 1235.221436,1413.558594 1227.589600,1414.031006   C1215.825073,1414.759033 1211.138794,1419.426880 1209.752930,1431.454590   C1208.953125,1438.395996 1208.583496,1445.406128 1208.394653,1452.395386   C1207.466919,1486.712646 1206.666748,1521.033203 1205.814209,1555.352539   C1205.764526,1557.351196 1205.719116,1559.354126 1205.553467,1561.345093   C1204.285645,1576.575684 1199.706055,1581.296753 1184.165405,1581.729980   C1153.848633,1582.575073 1123.520630,1583.039062 1093.195801,1583.573364   C1078.199707,1583.837646 1063.200439,1583.945068 1048.202026,1584.037476   C1044.543945,1584.060059 1040.827637,1584.093262 1037.236206,1583.514038   C1029.496582,1582.265625 1026.135620,1578.938110 1024.896362,1571.230835   C1024.320312,1567.648560 1024.329102,1563.920288 1024.498169,1560.277954   C1028.793945,1467.725708 1033.129639,1375.175537 1037.494141,1282.626465   C1040.194214,1225.372925 1042.996826,1168.124268 1045.652344,1110.868530   C1046.264404,1097.669312 1049.843750,1093.324219 1062.952148,1092.932007   C1077.937256,1092.483398 1092.945801,1092.804199 1107.944092,1092.801270   C1138.275513,1092.795410 1168.607056,1092.767700 1198.938477,1092.805176   C1218.870239,1092.829712 1222.912720,1097.417847 1221.996948,1117.150513   C1220.220581,1155.427612 1218.695435,1193.717041 1217.220337,1232.007202   C1216.679565,1246.044067 1220.718018,1250.035278 1234.587402,1250.031372   C1241.584961,1250.029297 1248.597778,1250.285522 1255.576904,1249.916626   C1267.968872,1249.261841 1271.936401,1245.299927 1273.338013,1232.844604   C1273.635620,1230.199951 1273.697632,1227.523682 1273.765625,1224.859253   C1274.428711,1198.869751 1275.069824,1172.879883 1275.742798,1145.905518  z"/>
<path fill="#010101" opacity="1.000000" stroke="none" d=" M2040.358887,3286.414062   C2026.990845,3305.580322 2013.276367,3323.685547 2001.250488,3342.850098   C1971.442017,3390.353760 1928.680298,3418.985107 1874.756104,3431.778076   C1846.784180,3438.414307 1818.444702,3442.608643 1789.568237,3440.249756   C1730.342407,3435.411377 1689.386841,3405.748779 1668.099854,3349.903076   C1653.919189,3312.700928 1650.633789,3274.133545 1654.717041,3234.801758   C1657.166260,3211.208252 1662.427490,3188.174316 1669.658691,3165.589600   C1670.267456,3163.688232 1670.868164,3161.782227 1671.556885,3159.909180   C1680.883667,3134.546875 1696.400757,3125.235107 1723.347900,3128.422363   C1741.871094,3130.613037 1760.398438,3133.037109 1778.996094,3134.258057   C1798.926147,3135.566895 1818.940063,3135.605225 1838.918701,3136.153076   C1841.914429,3136.235352 1844.917603,3135.999512 1847.915771,3136.038086   C1862.603638,3136.228027 1868.143799,3143.709229 1862.964355,3157.375977   C1860.389282,3164.170410 1856.460693,3170.472656 1852.934082,3176.881836   C1846.173584,3189.167725 1839.567627,3201.549072 1837.243042,3215.560059   C1836.160522,3222.085205 1835.415894,3228.819092 1835.743652,3235.397217   C1836.714233,3254.866699 1852.383789,3265.167480 1870.696289,3258.729248   C1882.810425,3254.469971 1893.817871,3247.933594 1902.821045,3238.976807   C1913.886719,3227.968262 1924.671509,3216.480957 1934.127686,3204.093506   C1951.102905,3181.856689 1967.726562,3159.277832 1983.182495,3135.970459   C2011.578491,3093.149170 2051.727051,3069.010986 2101.207764,3059.078613   C2129.359863,3053.427734 2157.588135,3053.671387 2185.397461,3061.200439   C2241.779785,3076.465576 2276.809082,3113.348877 2289.756348,3169.697510   C2302.479004,3225.070801 2298.245361,3280.266846 2281.793701,3334.546875   C2276.872803,3350.782715 2265.885742,3358.523438 2248.903320,3360.334473   C2206.843018,3364.819336 2164.888184,3370.293945 2122.888428,3375.350342   C2117.264893,3376.027344 2111.639893,3376.900391 2105.993164,3377.131592   C2094.533447,3377.601074 2086.903320,3369.015381 2089.226562,3357.812256   C2090.287842,3352.693604 2092.566406,3347.697021 2095.009033,3343.019043   C2103.485107,3326.785889 2112.702881,3310.927246 2120.784668,3294.506104   C2125.601807,3284.718262 2129.595215,3274.353760 2132.441650,3263.837891   C2133.904297,3258.434570 2133.217773,3251.745361 2131.436523,3246.314697   C2127.683838,3234.873535 2117.139404,3229.365234 2105.937012,3233.720947   C2095.199951,3237.895508 2084.804932,3243.502686 2075.192627,3249.885498   C2061.165771,3259.199463 2050.898926,3272.545898 2040.358887,3286.414062  z"/>
<path fill="#010101" opacity="1.000000" stroke="none" d=" M1682.658691,2820.728271   C1685.300537,2813.054199 1687.442505,2806.035400 1690.088257,2799.212158   C1694.276367,2788.410889 1701.455933,2783.445068 1712.596558,2785.429199   C1756.562500,2793.260254 1800.914429,2791.641602 1845.213745,2791.717529   C1851.873657,2791.729004 1858.607422,2791.539062 1865.176514,2792.417725   C1876.740112,2793.964111 1880.726196,2800.525635 1876.975830,2811.510986   C1875.269043,2816.510498 1872.636353,2821.217773 1870.191162,2825.937256   C1863.300049,2839.239014 1856.056641,2852.363037 1849.390869,2865.775391   C1842.979248,2878.676270 1838.513916,2892.346191 1837.091187,2906.710938   C1836.446045,2913.224609 1836.663940,2920.099121 1838.033203,2926.478760   C1840.793213,2939.338867 1849.792969,2945.984375 1862.877563,2944.042480   C1870.557007,2942.902832 1878.242310,2939.778564 1885.184937,2936.136475   C1898.384888,2929.211914 1908.224243,2918.175781 1917.521851,2906.751709   C1934.559692,2885.817139 1951.473145,2864.780273 1968.593994,2843.913818   C1975.144165,2835.930908 1981.981567,2828.171387 1988.927124,2820.527588   C2022.584595,2783.486816 2064.898926,2764.222900 2114.353516,2759.710938   C2142.319092,2757.159180 2169.493164,2760.509766 2195.914551,2770.179688   C2221.169922,2779.422607 2240.329834,2795.808105 2252.371582,2819.705811   C2273.404541,2861.447266 2282.381592,2905.693604 2276.856445,2952.357910   C2275.296387,2965.532715 2273.126221,2978.817871 2269.397705,2991.512695   C2263.160400,3012.749268 2249.732666,3023.135742 2227.562012,3023.603271   C2192.263916,3024.347412 2156.941895,3024.022461 2121.630127,3023.988037   C2117.685303,3023.984131 2113.626465,3023.342773 2109.821777,3022.278076   C2102.804932,3020.313721 2100.411621,3016.605957 2102.282715,3009.562988   C2103.807617,3003.823242 2106.680908,2998.453125 2108.768799,2992.849121   C2112.941406,2981.650879 2117.618408,2970.580566 2120.807617,2959.101807   C2122.335693,2953.602295 2121.898193,2947.089600 2120.682129,2941.391602   C2118.093018,2929.255615 2109.134766,2923.082764 2097.082031,2925.558105   C2090.106689,2926.990723 2082.921875,2929.832275 2077.104248,2933.872559   C2069.528809,2939.133545 2062.357422,2945.510498 2056.519775,2952.641602   C2038.595215,2974.538330 2020.966309,2996.707031 2004.017700,3019.364990   C1984.821533,3045.027832 1962.832153,3067.408447 1934.664062,3083.143799   C1897.048218,3104.156738 1856.371582,3110.241211 1813.962524,3107.256104   C1791.972290,3105.708008 1770.399902,3102.298340 1749.592773,3094.285889   C1699.889038,3075.145996 1671.993530,3039.071289 1663.967651,2986.790283   C1656.322876,2936.990967 1663.084839,2888.518555 1676.629517,2840.600586   C1678.440552,2834.193848 1680.461182,2827.846436 1682.658691,2820.728271  z"/>
<path fill="#010101" opacity="1.000000" stroke="none" d=" M2175.835205,1006.078125   C2176.311035,1018.378540 2176.793213,1029.697754 2177.173828,1041.020386   C2177.296387,1044.677002 2177.459473,1048.375854 2177.069580,1051.997681   C2176.107422,1060.937988 2172.805176,1064.280029 2163.902832,1065.519165   C2160.949219,1065.930054 2157.918213,1065.899170 2154.923340,1065.884644   C2124.599854,1065.737427 2094.276123,1065.559814 2063.952637,1065.363281   C2061.290283,1065.345947 2058.617188,1065.253784 2055.968994,1064.993774   C2042.575073,1063.678589 2038.590942,1059.692993 2038.028442,1045.994263   C2036.470093,1008.040588 2035.129028,970.077942 2033.681641,932.119629   C2033.542236,928.460571 2033.556519,924.759827 2032.984863,921.160034   C2031.474121,911.646362 2026.094727,907.651367 2016.135742,908.269409   C2007.353149,908.814453 2003.688110,912.698547 2003.714478,922.851135   C2003.770630,944.510071 2004.168823,966.168640 2004.513062,987.825989   C2004.799072,1005.818176 2005.234375,1023.808044 2005.541748,1041.799927   C2005.604248,1045.459595 2005.676514,1049.157593 2005.248657,1052.779419   C2004.269897,1061.064819 2001.707764,1063.708862 1993.330688,1064.937744   C1989.397827,1065.514526 1985.362793,1065.566650 1981.374146,1065.565918   C1950.716919,1065.559692 1920.059692,1065.482300 1889.402466,1065.425415   C1888.069702,1065.422974 1886.734741,1065.451904 1885.404663,1065.385864   C1871.259033,1064.685059 1866.284546,1059.991333 1865.545166,1045.875977   C1863.557983,1007.942139 1861.774292,969.997742 1859.824707,932.061951   C1859.569092,927.089600 1859.282227,922.036560 1858.183716,917.208862   C1856.498535,909.802856 1851.729736,906.878357 1843.218018,907.075134   C1834.582397,907.274780 1830.617188,910.242981 1829.257080,918.263000   C1828.595093,922.166626 1828.623535,926.220764 1828.658325,930.203979   C1828.979492,966.858521 1829.387451,1003.512329 1829.718872,1040.166870   C1829.757935,1044.492554 1829.828125,1048.864380 1829.288208,1053.139404   C1828.226318,1061.546387 1824.936646,1064.655273 1816.389893,1065.691406   C1813.095703,1066.090698 1809.736938,1066.051392 1806.407593,1066.052612   C1766.752197,1066.067871 1727.096802,1066.076538 1687.441406,1066.009888   C1683.462036,1066.003174 1679.399048,1065.910645 1675.521362,1065.130249   C1666.768799,1063.368286 1662.920532,1059.049927 1661.908691,1050.269409   C1661.490723,1046.641846 1661.482056,1042.951660 1661.501953,1039.291260   C1661.928101,960.647949 1662.360229,882.004700 1662.852417,803.361877   C1662.978394,783.225708 1666.707642,779.668030 1687.149048,780.213196   C1754.097168,781.998779 1821.033325,784.595154 1887.992676,785.483765   C1950.627686,786.315063 2013.286377,785.264832 2075.934570,785.253662   C2100.924805,785.249207 2125.915527,785.770874 2150.905029,786.129944   C2165.157471,786.334656 2170.283203,791.048950 2170.803711,805.232788   C2171.378174,820.881104 2171.282715,836.552673 2171.688232,852.208740   C2173.008301,903.173279 2174.423340,954.135315 2175.835205,1006.078125  z"/>
<path fill="#010101" opacity="1.000000" stroke="none" d=" M2707.891846,1517.694336   C2694.016846,1539.147339 2673.163086,1547.145874 2650.002441,1549.887451   C2632.499268,1551.959229 2614.801025,1552.565063 2597.168457,1553.327148   C2540.893311,1555.759277 2484.596191,1557.789673 2428.265381,1555.798706   C2409.299561,1555.128174 2390.374023,1553.280396 2371.436523,1551.887207   C2369.133789,1551.717773 2366.830322,1551.166504 2364.594238,1550.549927   C2354.760742,1547.839111 2351.506104,1543.119263 2352.868164,1532.931641   C2353.528076,1527.997681 2354.747803,1523.126587 2355.906250,1518.273071   C2362.551514,1490.427490 2369.211670,1462.585327 2375.979736,1434.769653   C2377.156250,1429.934204 2378.585693,1425.116089 2380.413818,1420.494141   C2382.873535,1414.276611 2387.681885,1410.893188 2394.490967,1411.630127   C2401.422607,1412.380005 2408.342529,1413.452759 2415.180420,1414.819824   C2448.031494,1421.387695 2481.224854,1423.419800 2514.615723,1422.037720   C2532.208740,1421.309326 2548.588379,1415.724487 2563.855713,1407.046997   C2571.257080,1402.840088 2577.042969,1396.859009 2580.821777,1389.183716   C2582.123535,1386.539795 2583.273926,1383.590698 2583.517090,1380.698853   C2584.287354,1371.546753 2577.674805,1366.522949 2568.925049,1369.000366   C2554.213379,1373.166138 2539.576416,1377.714966 2524.674072,1381.062134   C2499.314209,1386.758423 2473.851562,1387.402954 2448.560547,1380.044067   C2416.127686,1370.606689 2397.763672,1349.006226 2396.024414,1315.115845   C2394.952148,1294.223267 2396.220703,1273.190308 2396.872559,1252.233887   C2398.239502,1208.282837 2400.219482,1164.348511 2401.286133,1120.391357   C2401.798096,1099.289917 2405.347656,1094.041992 2426.598633,1093.417847   C2453.567627,1092.625854 2480.572998,1092.800537 2507.559326,1092.998535   C2519.522461,1093.086182 2523.989990,1097.060425 2524.648926,1109.209106   C2525.767578,1129.826050 2526.068359,1150.496704 2526.298584,1171.149414   C2526.495361,1188.808838 2526.060059,1206.474365 2525.996826,1224.137451   C2525.936035,1241.148682 2532.158936,1247.065552 2549.095215,1245.954590   C2560.399902,1245.213257 2568.664307,1239.857422 2572.789062,1229.029907   C2576.758545,1218.609741 2578.493164,1207.848999 2577.099365,1196.684082   C2573.633301,1168.919556 2570.186523,1141.152710 2566.745117,1113.385132   C2566.540283,1111.733521 2566.359375,1110.069336 2566.324951,1108.407715   C2566.109863,1098.014648 2570.452881,1092.899292 2580.896484,1092.064331   C2590.525146,1091.294434 2600.195312,1091.008423 2609.851807,1090.628296   C2629.497803,1089.854858 2649.146484,1089.149170 2668.795166,1088.449463   C2671.455566,1088.354736 2674.146729,1088.227417 2676.782227,1088.507446   C2684.929443,1089.373047 2690.546143,1093.575073 2692.195312,1101.797607   C2693.567383,1108.639038 2694.575195,1115.582031 2695.262939,1122.527588   C2699.629150,1166.619019 2704.173096,1210.696289 2708.056641,1254.831177   C2712.699951,1307.599731 2716.875000,1360.411011 2720.988770,1413.224243   C2723.169189,1441.217285 2723.493408,1469.214111 2716.094482,1496.634277   C2714.205078,1503.635864 2710.893311,1510.253540 2707.891846,1517.694336  z"/>
<path fill="#010101" opacity="1.000000" stroke="none" d=" M2061.224609,1823.063477   C2064.735352,1813.638062 2068.551025,1805.058594 2070.898926,1796.094604   C2074.916992,1780.754639 2070.321533,1771.126343 2056.094482,1764.112061   C2040.087280,1756.219849 2022.679688,1752.938110 2005.249268,1750.181030   C1960.348511,1743.078491 1916.265259,1747.443359 1872.929321,1760.539307   C1842.933594,1769.603882 1834.462280,1788.325073 1846.975708,1817.318359   C1857.165527,1840.928223 1871.592773,1861.436401 1891.161987,1878.264771   C1894.419312,1881.065674 1897.653320,1884.120483 1900.068970,1887.628906   C1906.192383,1896.522705 1902.820679,1905.654907 1892.490723,1908.702515   C1889.662598,1909.536987 1886.607056,1909.836304 1883.641235,1909.932373   C1827.360596,1911.755737 1771.080566,1913.608765 1714.793091,1915.195557   C1704.157837,1915.495361 1693.453369,1915.134888 1682.849121,1914.255981   C1671.820923,1913.341919 1667.524048,1908.795776 1666.385864,1897.827637   C1662.463379,1860.027832 1658.961426,1822.206909 1661.940186,1784.126221   C1664.030029,1757.409424 1669.063599,1731.316406 1678.819092,1706.309937   C1695.815918,1662.742065 1726.412354,1632.883057 1770.818604,1618.158447   C1843.630249,1594.014893 1918.289307,1582.564819 1995.105591,1588.294312   C2033.758911,1591.177124 2071.510254,1598.862915 2108.528076,1610.479980   C2161.541260,1627.116699 2195.151123,1663.161865 2213.988525,1714.342529   C2221.168213,1733.849731 2225.341309,1754.051514 2226.903320,1774.719116   C2229.422852,1808.056519 2228.911377,1841.305542 2221.969971,1874.187378   C2221.083008,1878.388916 2219.744141,1882.574707 2218.013184,1886.502686   C2213.358887,1897.063721 2205.348389,1903.424927 2193.655029,1904.623779   C2190.015625,1904.996826 2186.352539,1905.281128 2182.696777,1905.332764   C2138.048584,1905.964600 2093.399902,1906.562622 2048.750488,1907.107666   C2045.101196,1907.152222 2041.382202,1907.108521 2037.806641,1906.476685   C2028.780396,1904.881470 2024.362061,1898.886597 2026.317017,1889.973999   C2027.361694,1885.212402 2029.766357,1880.646240 2032.112061,1876.290771   C2041.580200,1858.709351 2051.264648,1841.244385 2061.224609,1823.063477  z"/>
<path fill="#010101" opacity="1.000000" stroke="none" d=" M1789.753418,1127.596436   C1791.469116,1120.302002 1792.821045,1113.771118 1794.649292,1107.376465   C1796.702271,1100.196167 1801.593628,1096.230225 1809.221802,1095.958740   C1811.552490,1095.875854 1813.882568,1095.704956 1816.213013,1095.703369   C1865.200439,1095.668945 1914.188354,1095.511475 1963.175049,1095.694092   C1987.481934,1095.784668 1990.738892,1098.342285 1998.145874,1121.261353   C2020.674805,1190.970825 2040.186279,1261.548218 2057.767334,1332.642090   C2070.710449,1384.980713 2082.881348,1437.515015 2094.869629,1490.082275   C2098.936768,1507.916138 2101.530029,1526.094360 2104.538330,1544.158203   C2106.489258,1555.873413 2102.923828,1560.041138 2090.786865,1560.274902   C2052.805664,1561.006348 2014.822388,1561.667847 1976.837280,1562.157471   C1962.588013,1562.341064 1957.814575,1557.776978 1956.238159,1543.555176   C1954.146606,1524.684692 1952.079468,1505.811401 1949.967407,1486.943115   C1948.532959,1474.129395 1943.666260,1469.088257 1930.743896,1468.675659   C1917.432983,1468.250610 1904.089600,1468.555420 1890.767212,1468.847290   C1875.369995,1469.184692 1872.664917,1471.980713 1872.774414,1487.124634   C1872.911621,1506.119141 1873.286255,1525.111816 1873.441406,1544.106201   C1873.471191,1547.748047 1873.182617,1551.427124 1872.651611,1555.031860   C1871.492920,1562.897217 1866.669556,1567.461426 1859.008423,1568.975952   C1856.089722,1569.552856 1853.068848,1569.778076 1850.087280,1569.846436   C1817.772095,1570.588745 1785.455566,1571.270020 1753.139282,1571.960327   C1750.474121,1572.017334 1747.806519,1572.084839 1745.142090,1572.033813   C1731.493896,1571.772827 1725.262573,1566.156250 1725.637207,1552.464844   C1726.266113,1529.489624 1727.428223,1506.514526 1728.990845,1483.581909   C1734.938232,1396.292480 1751.773071,1310.657349 1768.937988,1225.097046   C1775.419434,1192.790039 1782.689575,1160.641235 1789.753418,1127.596436  M1919.410645,1307.501221   C1919.002197,1305.547119 1918.584961,1303.594849 1918.186768,1301.638672   C1914.669312,1284.364868 1911.405518,1267.033691 1907.521729,1249.842651   C1905.875488,1242.555298 1903.862183,1235.042236 1896.574585,1229.809204   C1894.886597,1234.326172 1892.886230,1238.239258 1891.965332,1242.391724   C1887.864380,1260.881348 1883.346313,1279.325928 1880.424194,1298.012817   C1878.483887,1310.421265 1878.386475,1323.220947 1878.582275,1335.828125   C1878.740234,1346.003784 1882.920166,1349.467773 1893.111328,1349.395874   C1899.742188,1349.349243 1906.409546,1348.624146 1912.983154,1347.669800   C1922.913696,1346.228027 1925.557373,1342.734985 1924.132446,1332.718384   C1923.010132,1324.828857 1921.204834,1317.036499 1919.410645,1307.501221  z"/>
<path fill="#010101" opacity="1.000000" stroke="none" d=" M1659.242676,213.046021   C1659.367554,202.445679 1659.349609,192.779175 1659.659546,183.123184   C1659.786743,179.159836 1660.219360,175.115433 1661.208618,171.287674   C1664.138916,159.949585 1670.369019,154.898621 1682.021729,155.160446   C1687.937622,155.293365 1693.972900,156.404892 1699.692627,158.007782   C1762.138428,175.507690 1824.532104,193.194519 1886.941284,210.825714   C1910.305298,217.426270 1933.673218,224.013626 1957.038574,230.609436   C1958.637939,231.060898 1960.204956,231.682877 1961.832275,231.969711   C1969.912598,233.393875 1972.350708,231.642273 1972.477295,223.492096   C1972.627075,213.834717 1972.260742,204.169708 1972.143066,194.507706   C1971.970093,180.313232 1976.960938,175.529678 1990.814331,177.105881   C2034.155151,182.037048 2077.490479,187.019409 2120.809326,192.139664   C2136.126953,193.950195 2142.886963,200.805298 2143.642334,216.134781   C2145.854980,261.056702 2147.881592,305.989716 2149.633057,350.931946   C2151.657471,402.867706 2153.325195,454.817413 2155.112305,506.762299   C2155.479004,517.416809 2155.961426,528.078003 2155.905762,538.733582   C2155.828857,553.465759 2151.633789,557.468994 2136.677734,557.898193   C2132.682861,558.012817 2128.678223,557.998047 2124.683594,557.873352   C2089.050781,556.760620 2053.415039,555.715942 2017.788330,554.430237   C1996.698364,553.669250 1991.982178,548.795105 1992.060913,527.879822   C1992.188843,493.893219 1992.620850,459.907837 1992.798828,425.921234   C1992.830078,419.938873 1992.662598,413.896820 1991.859009,407.981201   C1990.275757,396.327423 1983.949585,388.184845 1972.232666,385.466125   C1965.143921,383.821320 1957.811523,382.541687 1950.561035,382.386169   C1891.576172,381.121246 1832.613159,382.103851 1773.717285,385.584747   C1746.793701,387.176056 1719.924561,389.676392 1693.021118,391.631561   C1687.051880,392.065338 1681.017578,392.337524 1675.056274,391.975555   C1666.393677,391.449493 1661.547607,387.247681 1659.847656,378.808380   C1658.869751,373.953339 1658.527954,368.892975 1658.543213,363.927032   C1658.696167,313.945801 1658.982666,263.964996 1659.242676,213.046021  z"/>
<path fill="#020101" opacity="1.000000" stroke="none" d=" M1922.968018,554.173096   C1913.239136,561.230652 1912.543823,570.773865 1913.850586,580.647034   C1914.760498,587.522339 1920.025024,590.867554 1926.303833,591.861877   C1932.858887,592.899963 1939.556396,593.297668 1946.203857,593.452515   C2010.173462,594.943176 2074.145508,596.321167 2138.116943,597.736328   C2157.892090,598.173767 2159.662354,598.690857 2160.881592,618.259949   C2163.304688,657.152344 2164.603271,696.122009 2165.848389,735.076294   C2166.250977,747.662964 2161.758301,751.740967 2148.847412,751.844910   C2130.188232,751.995178 2111.523193,751.639771 2092.862793,751.361023   C1959.906860,749.375061 1826.964844,745.926697 1693.973267,747.679016   C1687.679199,747.761963 1681.340820,747.255615 1675.082153,746.520935   C1668.281250,745.722717 1664.333496,741.519470 1663.510132,734.717041   C1662.991089,730.429504 1662.598877,726.093079 1662.611816,721.779968   C1662.716431,687.119507 1662.925171,652.459412 1663.125488,617.799316   C1663.138916,615.470947 1663.180298,613.122314 1663.484863,610.819580   C1664.608276,602.325989 1668.268311,598.225952 1676.673950,596.940247   C1680.908691,596.292542 1685.306885,596.549255 1689.625732,596.644897   C1707.616455,597.043640 1725.604370,597.565247 1743.594971,597.969482   C1746.919678,598.044189 1750.304077,598.122803 1753.570435,597.615967   C1762.864624,596.173767 1767.766724,590.594604 1768.199219,581.456970   C1768.618042,572.606934 1764.898438,566.928284 1755.683838,564.887085   C1748.590820,563.315979 1741.168579,563.056091 1733.868408,562.631775   C1717.245239,561.665405 1700.606445,560.969482 1683.975830,560.125732   C1681.984009,560.024658 1679.979126,559.818115 1678.022583,559.440735   C1664.973145,556.923401 1660.433594,551.680359 1660.369263,538.228882   C1660.221191,507.236145 1660.239990,476.242432 1660.268311,445.249176   C1660.280640,431.797974 1665.234009,426.095917 1678.653809,425.692749   C1724.613159,424.311859 1770.583862,422.420746 1816.549805,422.435760   C1853.842896,422.447968 1891.135620,424.905914 1928.426636,426.329742   C1931.749268,426.456635 1935.072510,426.849945 1938.370361,427.302032   C1951.716431,429.131683 1954.598022,432.213104 1955.508301,445.972137   C1956.410034,459.604401 1957.219971,473.243958 1957.918335,486.888092   C1958.599365,500.198639 1959.113159,513.518066 1959.640259,526.835999   C1959.745483,529.495422 1959.739868,532.179626 1959.509766,534.828430   C1958.525757,546.153564 1954.539429,549.985291 1943.312378,551.141541   C1936.752808,551.817200 1930.236816,552.918030 1922.968018,554.173096  z"/>
<path fill="#010101" opacity="1.000000" stroke="none" d=" M2106.822754,1409.264526   C2089.472412,1347.607422 2072.005127,1286.817993 2055.490234,1225.771118   C2045.931641,1190.438843 2037.884399,1154.697144 2029.230469,1119.121826   C2028.448120,1115.905151 2027.931641,1112.571533 2027.762329,1109.268066   C2027.246094,1099.195068 2030.402344,1095.380859 2040.577759,1094.082275   C2046.519409,1093.324097 2052.531494,1092.804932 2058.516602,1092.755005   C2085.175049,1092.533325 2111.835693,1092.496704 2138.495361,1092.467773   C2141.143555,1092.464844 2143.813721,1092.835327 2146.437012,1093.258301   C2160.086914,1095.458862 2167.079102,1101.818115 2169.913574,1115.463501   C2176.751465,1148.386475 2183.381592,1181.352905 2190.026123,1214.315796   C2197.394287,1250.867798 2204.677246,1287.437134 2212.026367,1323.993042   C2212.546387,1326.578247 2213.307129,1329.114868 2214.599609,1334.213379   C2217.072021,1328.588135 2219.427979,1325.117676 2220.111084,1321.344482   C2222.952148,1305.650269 2225.846436,1289.930176 2227.709961,1274.100464   C2234.058350,1220.174072 2239.937500,1166.192383 2246.090332,1112.242554   C2247.677002,1098.331177 2254.426514,1092.173218 2268.565186,1092.124390   C2301.226562,1092.011597 2333.890381,1092.065552 2366.551025,1092.300903   C2379.692139,1092.395630 2384.892578,1097.375366 2384.227051,1110.787231   C2383.138184,1132.724854 2381.775391,1154.706177 2379.114014,1176.496338   C2373.906494,1219.139648 2368.348145,1261.760010 2361.810303,1304.216675   C2349.794189,1382.245850 2334.471924,1459.636230 2314.097168,1535.963135   C2313.158203,1539.481201 2312.141846,1543.077637 2310.477539,1546.282471   C2307.127197,1552.733032 2301.011963,1553.958862 2294.343262,1554.091919   C2270.352783,1554.570190 2246.365723,1555.202515 2222.376221,1555.733521   C2207.382568,1556.065552 2192.355713,1555.822998 2177.401855,1556.763428   C2164.851562,1557.552734 2156.852783,1552.184082 2152.538330,1541.026367   C2142.581543,1515.276245 2132.474609,1489.568237 2123.311035,1463.532471   C2117.130127,1445.970703 2112.454590,1427.878906 2106.822754,1409.264526  z"/>
<path fill="#020101" opacity="1.000000" stroke="none" d=" M1601.389648,1571.189941   C1561.828247,1572.750488 1523.212769,1574.274292 1484.595093,1575.737305   C1479.271484,1575.938965 1473.922363,1576.106323 1468.609741,1575.824585   C1457.293701,1575.224487 1453.292358,1571.169434 1452.483887,1559.742065   C1452.225952,1556.095337 1452.313599,1552.412476 1452.432251,1548.752441   C1453.835693,1505.463989 1455.273071,1462.176636 1456.704834,1418.889038   C1459.128052,1345.632568 1461.598022,1272.377563 1463.955688,1199.118896   C1464.855835,1171.148804 1465.467041,1143.169434 1466.308594,1115.197144   C1466.407837,1111.896606 1466.974609,1108.584106 1467.603516,1105.331055   C1468.810669,1099.086182 1472.815430,1095.266968 1478.917603,1094.150513   C1484.135742,1093.196045 1489.488281,1092.507935 1494.781616,1092.505981   C1566.414795,1092.479004 1638.047974,1092.580078 1709.681030,1092.707031   C1713.332275,1092.713501 1717.011108,1093.041138 1720.627441,1093.563110   C1730.520874,1094.991455 1733.702759,1098.423950 1734.470337,1108.584839   C1734.770752,1112.560425 1734.732666,1116.579712 1734.577026,1120.568481   C1733.614990,1145.203125 1732.674316,1169.839355 1731.531250,1194.465942   C1730.575806,1215.047974 1726.811279,1218.412476 1706.120361,1218.573364   C1676.137085,1218.806396 1646.151978,1219.009277 1616.173340,1219.544678   C1599.553101,1219.841431 1596.608765,1223.028809 1596.228027,1239.758423   C1596.084351,1246.072266 1595.966553,1252.464478 1596.764648,1258.702393   C1597.808350,1266.860596 1600.923218,1269.538086 1609.056152,1270.591675   C1612.339600,1271.016968 1615.701782,1271.068726 1619.018311,1270.968994   C1644.991699,1270.187866 1670.959473,1269.206421 1696.935425,1268.533081   C1717.082886,1268.010620 1722.535522,1273.940186 1721.339722,1294.088867   C1720.096436,1315.039551 1718.973267,1335.997559 1717.799072,1356.952271   C1717.724731,1358.282959 1717.704224,1359.617676 1717.591431,1360.944824   C1716.235474,1376.908447 1709.437012,1383.480591 1693.190674,1383.728027   C1666.873413,1384.129150 1640.551270,1384.205811 1614.231567,1384.456909   C1610.572998,1384.491943 1606.862549,1384.395630 1603.269775,1384.958618   C1594.302856,1386.363647 1590.539551,1390.653442 1590.250732,1399.770630   C1590.039917,1406.425293 1590.060547,1413.101196 1590.323730,1419.753906   C1590.747437,1430.463867 1595.417847,1434.966064 1606.038208,1434.475708   C1612.671509,1434.169312 1619.250732,1432.494019 1625.878784,1432.307495   C1643.852783,1431.801514 1661.848145,1431.324219 1679.819458,1431.663086   C1697.067627,1431.988403 1701.614380,1436.929932 1700.965942,1454.447021   C1700.017334,1480.078247 1698.428467,1505.685913 1697.067871,1531.301392   C1696.732300,1537.621582 1696.451172,1543.957886 1695.748535,1550.242554   C1694.333008,1562.904785 1689.993652,1567.178223 1677.222290,1567.929077   C1661.593140,1568.848022 1645.938232,1569.329712 1630.293945,1569.989136   C1620.974731,1570.381958 1611.654541,1570.753174 1601.389648,1571.189941  z"/>
<path fill="#020202" opacity="1.000000" stroke="none" d=" M978.189819,1069.829834   C984.853760,1073.067017 990.769043,1076.132690 996.801636,1078.946899   C1006.700562,1083.564575 1011.174011,1091.085571 1010.532837,1102.099731   C1009.254700,1124.058838 1008.345154,1146.039185 1007.254822,1168.009399   C1004.892456,1215.610352 1002.270935,1263.200073 1000.197571,1310.813599   C997.341125,1376.410645 994.864136,1442.024414 992.304932,1507.634033   C991.954407,1516.620850 992.179138,1525.628662 991.935364,1534.621338   C991.638489,1545.576904 982.438171,1550.450684 973.189697,1544.585571   C971.239868,1543.348877 969.539551,1541.692871 967.815857,1540.129272   C924.861694,1501.164429 882.102600,1461.981445 838.851501,1423.349243   C827.614807,1413.312378 823.166565,1401.951904 824.274414,1387.132568   C828.472961,1330.969727 832.284241,1274.777222 836.064697,1218.583984   C840.247620,1156.408813 844.235718,1094.220459 848.321106,1032.038696   C848.451965,1030.047241 848.563843,1028.033691 848.950195,1026.083130   C850.919922,1016.138977 856.659607,1012.260437 866.255249,1015.338623   C873.509888,1017.665710 880.573914,1020.789978 887.406738,1024.193970   C917.498413,1039.185547 947.475403,1054.407104 978.189819,1069.829834  z"/>
<path fill="#050505" opacity="1.000000" stroke="none" d=" M1548.834961,1061.046997   C1548.301270,1066.135620 1544.746094,1065.946655 1541.525146,1065.976929   C1535.863892,1066.030151 1530.200195,1065.776001 1524.537598,1065.775391   C1377.942627,1065.760620 1231.347656,1065.659912 1084.752930,1065.852539   C1057.448486,1065.888428 1031.348633,1061.751709 1005.782959,1051.505859   C976.792358,1039.887329 946.988342,1030.299561 917.547791,1019.801208   C911.989014,1017.818970 906.068115,1016.225769 903.794373,1008.452148   C907.282043,1008.259888 910.395569,1007.930969 913.508118,1007.939331   C1040.778687,1008.283264 1168.049072,1008.665771 1295.319580,1009.021118   C1319.973511,1009.089905 1344.628540,1009.198181 1369.281494,1009.047058   C1390.122925,1008.919312 1410.250610,1012.073181 1430.023926,1019.006836   C1467.371948,1032.102905 1504.992554,1044.420654 1542.473755,1057.138916   C1544.597656,1057.859497 1546.485352,1059.275513 1548.834961,1061.046997  z"/>
<path fill="#060606" opacity="1.000000" stroke="none" d=" M2371.999512,1069.376465   C2326.026611,1069.333374 2281.053711,1069.324585 2236.080811,1069.207764   C2230.433105,1069.193115 2224.777832,1068.719727 2219.142334,1068.257568   C2212.930664,1067.748047 2209.026367,1063.893433 2208.610596,1058.066772   C2207.616211,1044.130493 2206.963379,1030.138184 2207.020996,1016.171875   C2207.051514,1008.748169 2210.073975,1006.600037 2217.847412,1005.975220   C2221.160645,1005.708923 2224.507080,1005.722656 2227.834961,1005.789673   C2293.776855,1007.118164 2359.727295,1008.165527 2425.651855,1010.094604   C2438.120605,1010.459351 2450.729004,1013.457642 2462.856445,1016.766968   C2512.581787,1030.335815 2562.150146,1044.479614 2611.763428,1058.457764   C2617.458008,1060.062256 2623.539062,1061.242065 2626.155273,1067.621338   C2625.873047,1068.078125 2625.725342,1068.382324 2625.516357,1068.635986   C2625.324707,1068.868652 2625.066895,1069.223145 2624.838135,1069.223633   C2583.533203,1069.302490 2542.228271,1069.379883 2500.923340,1069.400757   C2458.282227,1069.422241 2415.640869,1069.387695 2371.999512,1069.376465  z"/>
<path fill="#FDFDFD" opacity="1.000000" stroke="none" d=" M2104.988770,2562.553223   C2099.523682,2572.124023 2092.134521,2578.660156 2083.543457,2584.074219   C2069.337402,2593.026123 2054.081787,2599.757080 2037.862671,2603.688232   C2000.236572,2612.806885 1962.171021,2619.041260 1923.249023,2618.206543   C1901.471802,2617.739502 1880.125488,2614.386719 1859.447510,2607.609131   C1843.830933,2602.490723 1830.585938,2594.340088 1823.959839,2577.919922   C1817.350464,2561.540771 1819.167480,2546.660156 1830.023560,2532.907715   C1839.679077,2520.676025 1852.067749,2511.721191 1865.630493,2504.344238   C1884.869629,2493.880371 1905.782715,2488.392578 1927.136719,2484.569824   C1964.489868,2477.882812 2001.917236,2477.016113 2039.417725,2483.773438   C2056.715088,2486.890381 2072.629639,2493.319580 2087.430176,2502.600830   C2110.118896,2516.827637 2116.272217,2537.360107 2104.988770,2562.553223  z"/>
<path fill="#FBFBFB" opacity="1.000000" stroke="none" d=" M2031.063965,2157.249756   C2022.048218,2155.414062 2013.737915,2154.315674 2005.840210,2151.879395   C1986.237061,2145.831787 1972.093628,2122.135254 1975.637085,2102.248047   C1976.615479,2096.757080 1978.899902,2094.453857 1986.128540,2093.632080   C1997.687622,2092.318359 2009.304443,2091.492188 2020.905762,2090.573486   C2040.136353,2089.050049 2059.372314,2087.593994 2078.610352,2086.166748   C2082.256104,2085.895996 2085.925781,2085.707520 2089.576904,2085.797363   C2099.896729,2086.051514 2104.672852,2089.505859 2108.271973,2099.117432   C2111.626465,2108.075928 2112.658447,2117.231689 2109.869141,2126.507568   C2106.779541,2136.781982 2101.395020,2144.667969 2090.564941,2148.905273   C2071.569824,2156.337402 2052.197998,2159.421875 2031.063965,2157.249756  z"/>
<path fill="#F8F8F8" opacity="1.000000" stroke="none" d=" M1919.556763,1308.351074   C1921.204834,1317.036499 1923.010132,1324.828857 1924.132446,1332.718384   C1925.557373,1342.734985 1922.913696,1346.228027 1912.983154,1347.669800   C1906.409546,1348.624146 1899.742188,1349.349243 1893.111328,1349.395874   C1882.920166,1349.467773 1878.740234,1346.003784 1878.582275,1335.828125   C1878.386475,1323.220947 1878.483887,1310.421265 1880.424194,1298.012817   C1883.346313,1279.325928 1887.864380,1260.881348 1891.965332,1242.391724   C1892.886230,1238.239258 1894.886597,1234.326172 1896.574585,1229.809204   C1903.862183,1235.042236 1905.875488,1242.555298 1907.521729,1249.842651   C1911.405518,1267.033691 1914.669312,1284.364868 1918.186768,1301.638672   C1918.584961,1303.594849 1919.002197,1305.547119 1919.556763,1308.351074  z"/>
</svg>