<?xml version="1.0" encoding="utf-8" ?>	<!-- Generator: Assembly 2.4 - http://assemblyapp.co -->	<svg version="1.1" xmlns="http://www.w3.org/2000/svg" xmlns:xlink="http://www.w3.org/1999/xlink" width="4096.00" height="4096.00" viewBox="0 0 4096.0 4096.0">		<g id="document" transform="scale(1.0 1.0) translate(2048.0 2048.0)">			<g>				<path d="M-149.438,-1896.03 C-150.854,-1895.73 -154.258,-1892.69 -156.994,-1889.29 C-161.894,-1883.2 -161.974,-1882.81 -162.069,-1865.11 C-162.117,-1855.21 -163.119,-1823.86 -164.28,-1795.42 L-166.396,-1743.72 L-162.419,-1737.8 C-157.726,-1730.82 -157.408,-1730.7 -138.923,-1729.45 C-85.8393,-1725.85 75.0513,-1713.56 106.835,-1710.66 L128.294,-1708.7 L129.44,-1700.75 C130.601,-1692.8 133.146,-1652.61 135.246,-1609.28 C136.264,-1588.43 136.725,-1585.72 140.162,-1581.11 C143.089,-1577.16 145.427,-1575.83 150.454,-1575.27 C154.033,-1574.87 189.523,-1574.67 229.34,-1574.81 L301.72,-1575.08 L302.659,-1716.66 C303.184,-1794.53 303.041,-1859.76 302.372,-1861.64 C301.625,-1863.71 298.443,-1866.02 294.275,-1867.5 C287.228,-1870.01 225.331,-1882.08 174.459,-1890.86 C158.71,-1893.58 144.266,-1896.19 142.357,-1896.65 C139.827,-1897.27 136.948,-1895.7 131.619,-1890.78 L124.349,-1884.07 L124.349,-1858.65 C124.349,-1835.36 124.127,-1833.33 121.645,-1834.26 C118.32,-1835.54 89.9409,-1842.38 52.7646,-1850.86 C37.4614,-1854.36 5.23238,-1861.86 -18.8201,-1867.57 C-54.7556,-1876.09 -115.332,-1889.83 -141.309,-1895.38 C-144.364,-1896.03 -148.038,-1896.32 -149.454,-1896.02 L-149.438,-1896.03 Z M-290.031,-1851 C-376.839,-1813.46 -398.664,-1803.32 -401.257,-1799.38 C-403.055,-1796.63 -403.898,-1782.79 -405.25,-1733.22 C-409.227,-1587.41 -411.74,-1495.05 -413.252,-1438.29 C-414.143,-1405.04 -415.638,-1349.56 -416.56,-1315 C-420.856,-1155.88 -420.903,-1152.08 -418.835,-1149.07 C-417.738,-1147.48 -417.197,-1144.87 -417.61,-1143.25 C-418.358,-1140.39 -410.579,-1134.5 -390.249,-1122.54 C-386.749,-1120.49 -376.362,-1114.01 -367.183,-1108.16 C-357.988,-1102.3 -342.971,-1092.85 -333.777,-1087.14 C-324.582,-1081.43 -306.877,-1070.23 -294.405,-1062.25 C-281.949,-1054.26 -270.735,-1047.74 -269.51,-1047.74 C-266.439,-1047.74 -249.243,-1056.85 -246.078,-1060.16 C-243.278,-1063.07 -242.307,-1088.03 -235.085,-1343.62 C-230.313,-1512.74 -224.904,-1684.32 -222.296,-1750.06 C-221.389,-1772.81 -220.291,-1807.52 -219.862,-1827.22 L-219.066,-1863.01 L-223.52,-1869.24 C-225.97,-1872.68 -228.69,-1875.69 -229.565,-1875.96 C-230.44,-1876.21 -257.642,-1864.98 -290.015,-1850.98 L-290.031,-1851 Z M-111.339,-1670.14 L-163.31,-1669.7 L-168.209,-1663.05 L-173.109,-1656.4 L-173.045,-1612.57 L-172.982,-1568.75 L-169.132,-1564.04 L-165.282,-1559.33 L-136.171,-1559.27 L-107.06,-1559.2 L-106.631,-1533.61 L-106.201,-1508.01 L-135.153,-1506.96 C-165.696,-1505.85 -168.989,-1505.05 -173.682,-1497.55 C-175.4,-1494.79 -176.116,-1482.72 -176.847,-1443.87 L-177.786,-1393.76 L-173.936,-1389.39 L-170.087,-1385.01 L-90.8662,-1384.25 C-47.295,-1383.84 59.3344,-1383.04 146.095,-1382.48 L303.836,-1381.48 L311.312,-1388.37 L318.789,-1395.26 L317.723,-1409.61 C317.135,-1417.5 315.655,-1432.91 314.414,-1443.84 C313.174,-1454.79 311.09,-1475.18 309.769,-1489.18 C306.922,-1519.42 305.92,-1521.15 292.239,-1519.53 C287.833,-1519 252.024,-1517.88 212.653,-1517 C173.281,-1516.13 113.659,-1514.68 80.1576,-1513.77 C46.656,-1512.86 18.563,-1512.56 17.7199,-1513.09 C16.8608,-1513.63 16.1927,-1523.95 16.1927,-1536.84 C16.1927,-1550.07 15.8746,-1556.24 17.9744,-1559.12 C20.0742,-1562 24.5761,-1561.57 34.2161,-1561.57 C41.3587,-1561.57 54.2121,-1562.05 62.7546,-1562.61 L78.3123,-1563.64 L83.1164,-1570.16 L87.9206,-1576.69 L87.4433,-1619.14 L86.9661,-1661.6 L82.2892,-1666.47 L77.6124,-1671.34 L9.11379,-1670.96 C-28.5557,-1670.75 -82.785,-1670.38 -111.371,-1670.14 L-111.339,-1670.14 Z M300.145,-1347.36 C296.646,-1347.09 261.919,-1345.77 222.993,-1344.43 C184.067,-1343.1 133.242,-1341.3 110.048,-1340.46 C33.5799,-1337.64 -95.1135,-1333.51 -152.524,-1332.03 C-168.655,-1331.61 -171.534,-1331.1 -175.988,-1327.94 C-180.506,-1324.72 -182.415,-1326.28 -184.165,-1310.44 C-185.915,-1294.59 -187.521,-1261.35 -191.419,-1188.54 C-192.771,-1163.17 -194.6,-1126.31 -195.459,-1106.61 C-196.318,-1086.92 -197.718,-1058.65 -198.561,-1043.78 L-200.104,-1016.73 L-191.371,-1008.13 L-182.638,-999.523 L-171.916,-1001.34 C-156.438,-1003.95 -75.8969,-1014.35 -71.1405,-1014.35 C-70.2815,-1014.35 -67.1,-1017.04 -64.0934,-1020.31 L-58.6212,-1026.28 L-58.6212,-1042.19 C-58.6371,-1066.48 -53.6421,-1210.7 -52.7512,-1211.6 C-52.3217,-1212.05 -40.6455,-1212.62 -26.7899,-1212.91 L-1.60795,-1213.42 L-0.669399,-1203.36 C0.778203,-1187.79 5.04147,-1074.85 5.04147,-1052.05 C5.04147,-1030.27 6.05956,-1026.31 13.5521,-1019.33 C17.3063,-1015.81 18.7539,-1015.57 33.9935,-1015.81 C43.0132,-1015.96 66.8429,-1017.12 86.9662,-1018.39 C107.089,-1019.66 125.224,-1020.71 127.276,-1020.71 C129.535,-1020.71 132.971,-1022.95 136.026,-1026.41 L141.052,-1032.09 L141.848,-1124.64 L142.643,-1217.19 L167.236,-1218.37 C180.758,-1219.02 192.323,-1219.02 192.911,-1218.37 C194.12,-1217.04 200.674,-1106.69 202.138,-1062.88 L203.092,-1034.25 L208.358,-1027.71 L213.623,-1021.17 L245.741,-1020.12 C263.414,-1019.55 291.348,-1018.98 307.829,-1018.87 L337.783,-1018.66 L343.446,-1024.32 C349.046,-1029.92 349.109,-1030.16 348.855,-1042.46 C348.712,-1049.31 347.884,-1066.38 347.025,-1080.38 C346.15,-1094.38 343.987,-1131.6 342.205,-1163.1 C340.424,-1194.6 337.942,-1235.4 336.685,-1253.78 C335.429,-1272.15 333.615,-1299 332.661,-1313.43 C330.943,-1339.49 330.895,-1339.71 326.234,-1344.05 C321.382,-1348.59 319.25,-1348.86 300.129,-1347.38 L300.145,-1347.36 Z M426.675,-1117.81 C424.703,-1115.84 415.556,-1102.68 406.313,-1088.56 L389.531,-1062.88 L391.297,-1054.93 C397.691,-1026.07 400.825,-1011.87 403.259,-1004.06 C405.693,-996.246 407.443,-994.83 411.086,-991.553 L417.862,-985.444 L434.566,-986.367 C443.76,-986.876 472.394,-988.022 498.196,-988.896 C612.318,-992.81 734.68,-997.264 774.895,-998.966 L818.546,-1000.83 L827.168,-1011.96 C831.908,-1018.09 837.619,-1025.82 839.846,-1029.13 L843.903,-1035.16 L837.683,-1041.61 C834.263,-1045.16 815.444,-1062.42 795.861,-1079.97 C765.478,-1107.2 759.306,-1112.05 753.706,-1113.07 C743.111,-1115.01 708.449,-1116.14 608.755,-1117.76 C557.134,-1118.61 495.858,-1119.77 472.569,-1120.34 L430.239,-1121.39 L426.659,-1117.81 L426.675,-1117.81 Z M-601.026,-1112.9 C-628.594,-1112.28 -694.802,-1110.91 -748.173,-1109.89 C-900.823,-1106.96 -957.518,-1105.28 -959.506,-1103.62 C-961.893,-1101.63 -982.095,-1060.82 -981.141,-1059.89 C-979.28,-1058.06 -900.616,-1016.23 -837.256,-983.377 L-813.394,-971 L-678.974,-972.003 C-605.035,-972.543 -494.222,-973.466 -432.691,-974.055 L-320.828,-975.105 L-315.34,-986.017 C-307.545,-1001.5 -303.648,-1011.95 -304.888,-1013.97 C-305.477,-1014.92 -318.489,-1022.46 -333.793,-1030.72 C-349.096,-1038.97 -366.26,-1048.25 -371.955,-1051.32 C-391.379,-1061.83 -429.987,-1082.32 -452.289,-1093.97 C-464.538,-1100.36 -477.996,-1107.62 -482.18,-1110.08 L-489.8,-1114.58 L-520.358,-1114.33 C-537.157,-1114.19 -573.458,-1113.55 -601.026,-1112.93 L-601.026,-1112.9 Z M-1053.6,-1015.53 C-1057.1,-1014.65 -1062.48,-1013.31 -1065.53,-1012.58 C-1074.49,-1010.44 -1077.83,-1002.12 -1079.83,-976.966 C-1084.75,-915.657 -1086.51,-894.166 -1089.38,-861.635 C-1091.09,-841.941 -1095.04,-795.061 -1098.13,-757.439 C-1103.26,-694.763 -1107.21,-648.503 -1111.66,-598.362 C-1114.85,-562.586 -1119.57,-506.098 -1119.59,-503.505 C-1119.6,-501.93 -1115.99,-499.035 -1110.45,-496.203 C-998.003,-438.394 -944.601,-411.463 -942.437,-411.463 C-940.974,-411.463 -939.129,-413.069 -938.349,-415.042 C-936.424,-419.894 -929.202,-495.28 -917.574,-631.784 C-915.792,-652.783 -912.165,-695.018 -909.524,-725.64 C-906.884,-756.262 -903.702,-794.202 -902.445,-809.951 C-901.189,-825.699 -898.723,-856.831 -896.941,-879.149 C-895.16,-901.468 -893.712,-922.577 -893.712,-926.077 C-893.712,-934.238 -896.528,-944.371 -898.771,-944.371 C-899.725,-944.371 -929.234,-959.165 -964.311,-977.252 C-1040.78,-1016.66 -1042.66,-1017.59 -1045.2,-1017.34 C-1046.3,-1017.23 -1050.05,-1016.42 -1053.55,-1015.54 L-1053.6,-1015.53 Z M938.044,-995.848 C930.17,-992.794 917.285,-987.91 909.411,-984.983 C901.536,-982.056 882.002,-974.58 865.998,-968.376 C849.995,-962.172 835.917,-957.097 834.708,-957.097 C831.59,-957.097 822.379,-944.944 822.3,-940.744 C822.268,-938.803 823.827,-921.464 825.768,-902.215 C828.711,-873.009 830.222,-860.171 830.047,-851.518 C829.872,-842.864 828.027,-838.378 824.272,-825.858 C820.55,-813.466 815.794,-801.122 813.535,-798.02 C811.308,-794.966 801.668,-784.721 792.107,-775.288 L774.72,-758.123 L762.853,-758.585 L750.986,-759.046 L744.066,-774.158 C733.233,-797.813 732.246,-801.774 733.774,-815.518 C734.505,-822.072 739.484,-849.322 744.861,-876.063 L754.629,-924.677 L747.088,-936.337 L739.548,-947.998 L725.851,-947.011 C718.311,-946.471 693.893,-944.928 671.59,-943.575 C646.011,-942.032 633.714,-941.348 627.176,-940.139 C620.638,-938.93 619.843,-937.196 617.25,-933.538 C612.955,-927.461 612.573,-925.95 591.94,-833.462 L585.832,-806.069 L588.186,-791.307 C594.836,-749.629 602.455,-720.82 614.259,-692.568 L619.445,-680.176 L645.565,-658.366 C663.843,-643.111 673.467,-636.143 677.603,-635.157 C680.849,-634.393 695.325,-630.878 709.769,-627.378 C745.243,-618.74 751.256,-618.883 805.756,-629.51 C816.955,-631.689 838.876,-646.515 875.448,-676.644 C882.145,-682.148 888.317,-686.666 889.16,-686.666 C890.019,-686.666 891.133,-684.693 891.658,-682.291 C902.411,-631.959 915.758,-561.25 914.724,-560.2 C913.626,-559.102 668.536,-564.431 614.895,-566.738 L590.795,-567.772 L584.4,-561.6 C578.085,-555.507 577.91,-555.014 569.876,-521.226 C565.406,-502.407 558.184,-472.31 553.826,-454.318 L545.904,-421.612 L550.867,-412.433 C553.603,-407.39 556.641,-403.016 557.643,-402.698 C558.63,-402.395 665.179,-401.25 794.398,-400.168 C994.612,-398.482 1029.74,-398.514 1032,-400.391 C1033.46,-401.6 1045.04,-414.628 1057.75,-429.343 L1080.85,-456.1 L1079.13,-464.404 C1075.2,-483.381 1060.93,-548.078 1054.14,-577.698 C1039.81,-640.2 1033.87,-666.463 1012.84,-760.637 C1001.12,-813.132 988.965,-866.821 985.831,-879.945 C976.302,-919.921 972.532,-936.003 965.692,-965.846 C958.215,-998.473 957.197,-1001.69 954.382,-1001.53 C953.268,-1001.46 945.919,-998.918 938.044,-995.864 L938.044,-995.848 Z M67.8928,-958.513 C-4.91676,-950.082 -13.2365,-948.889 -15.7976,-946.582 C-17.2452,-945.278 -19.5837,-940.076 -20.9994,-935.033 C-22.4152,-929.99 -25.9945,-918.394 -28.9374,-909.263 C-31.8962,-900.132 -38.7365,-878.704 -44.1452,-861.651 C-56.8236,-821.643 -63.1708,-801.838 -79.7466,-750.297 C-87.2073,-727.103 -95.4952,-700.983 -98.1836,-692.234 C-101.254,-682.212 -106.074,-671.331 -111.212,-662.805 C-115.698,-655.376 -123.843,-641.25 -129.315,-631.434 L-139.241,-613.586 L-131.797,-598.521 C-127.708,-590.234 -122.347,-578.223 -119.882,-571.828 C-116.43,-562.872 -113.55,-558.466 -107.362,-552.644 C-102.94,-548.492 -98.5654,-545.087 -97.6269,-545.103 C-96.7042,-545.103 -84.4871,-549.462 -70.4883,-554.791 C-56.4895,-560.12 -34.2983,-568.265 -21.1744,-572.894 L2.68713,-581.309 L36.0933,-583.171 C54.4667,-584.189 77.7238,-585.684 87.7615,-586.479 C97.8152,-587.275 106.453,-587.418 106.978,-586.797 C108.044,-585.509 145.968,-470.083 156.308,-436.708 L163.021,-415.026 L170.291,-414.024 C174.299,-413.483 197.27,-412.338 221.37,-411.479 C245.455,-410.635 269.491,-409.601 274.773,-409.204 C280.054,-408.806 285.24,-408.997 286.29,-409.649 C287.34,-410.301 292.239,-416.887 297.171,-424.268 L306.143,-437.71 L300.559,-453.618 C293.019,-475.078 276.443,-519.301 263.574,-552.246 C253.631,-577.714 239.092,-615.718 210.33,-691.438 C176.606,-780.235 150.327,-849.179 140.893,-873.582 C132.796,-894.532 114.534,-944.371 109.269,-959.881 C108.378,-962.49 99.6287,-962.203 67.9246,-958.529 L67.8928,-958.513 Z M74.5263,-739.718 C100.472,-675.483 102.158,-670.965 100.647,-670.027 C99.9468,-669.597 76.7216,-668.738 49.0263,-668.134 L-1.30571,-667.036 L-1.30571,-670.504 C-1.30571,-672.413 6.31408,-692.393 15.6201,-714.902 C24.9261,-737.412 35.3616,-762.641 38.7817,-770.945 C47.181,-791.323 49.1854,-794.314 52.3033,-791.196 C53.6236,-789.875 63.6136,-766.714 74.5263,-739.702 L74.5263,-739.718 Z M285.828,-953.025 C280.579,-951.832 254.458,-946.884 227.765,-942.032 C201.072,-937.181 177.736,-932.87 175.89,-932.44 C173.695,-931.947 170.657,-928.034 167.173,-921.225 L161.812,-910.774 L165.2,-901.722 C167.061,-896.743 180.503,-861.889 195.075,-824.268 C209.646,-786.646 225.395,-745.843 230.072,-733.594 C246.934,-689.45 261.681,-651.51 282.615,-598.378 C304.075,-543.91 308.608,-532.043 337.847,-453.618 C346.659,-429.995 354.311,-410.206 354.852,-409.649 C355.393,-409.092 384.854,-408.138 420.296,-407.518 C458.634,-406.849 476.323,-406.15 484.85,-408.265 C493.36,-410.381 492.708,-415.312 494.315,-425.891 C496.271,-438.713 499.278,-458.597 511.877,-541.906 C518.192,-583.711 532.843,-672.906 543.47,-734.389 C547.335,-756.708 556.005,-809.044 562.75,-850.69 L575.015,-926.427 L569.065,-935.399 C565.661,-940.537 564.452,-942.987 560.411,-943.862 C556.371,-944.737 549.515,-944.021 534.784,-942.796 C524.714,-941.953 500.742,-940.092 481.493,-938.644 L446.496,-936.003 L441.485,-931.279 C437.97,-927.97 436.204,-924.566 435.568,-919.953 C435.075,-916.326 433.182,-902.263 431.368,-888.694 C429.555,-875.125 425.228,-843.627 421.76,-818.7 C413.376,-758.489 402.686,-679.794 401.605,-670.297 C401.112,-666.002 399.998,-662.916 399.059,-663.234 C398.137,-663.536 392.203,-679.142 385.888,-697.897 C374.148,-732.719 323.752,-881.026 311.169,-917.789 C307.336,-928.988 303.406,-941.157 302.42,-944.832 C300.638,-951.497 298.268,-955.634 296.375,-955.363 C295.818,-955.283 291.078,-954.25 285.828,-953.041 L285.828,-953.025 Z M-205.72,-947.33 C-265.071,-944.768 -283.97,-942.844 -299.575,-937.737 C-317.169,-931.979 -326.952,-926.57 -346.535,-911.728 C-365.369,-897.459 -367.772,-894.723 -385.334,-867.489 L-399.507,-845.504 L-401.846,-829.31 C-406.793,-795.045 -403.532,-771.152 -388.611,-732.671 C-385.413,-724.431 -382.438,-716.111 -381.977,-714.202 C-381.436,-711.896 -386.352,-699.917 -396.676,-678.41 C-411.868,-646.754 -412.234,-645.735 -414.317,-628.587 C-415.495,-618.963 -416.91,-597.122 -417.483,-580.068 L-418.517,-549.048 L-412.838,-527.573 C-405.505,-499.798 -395.594,-471.307 -387.561,-454.795 C-382.232,-443.851 -379.543,-440.383 -371.399,-433.924 C-357.018,-422.519 -336.879,-409.904 -311.188,-396.239 L-288.44,-384.133 L-260.601,-385.151 C-206.945,-387.108 -127.74,-394.187 -63.4253,-402.793 L-43.6202,-405.434 L-35.1891,-412.719 C-30.5441,-416.728 -26.758,-420.975 -26.758,-422.153 C-26.758,-423.33 -22.463,-442.021 -17.2134,-463.672 C-11.9639,-485.322 -7.6688,-504.236 -7.6688,-505.7 C-7.6688,-507.163 -11.073,-513.447 -15.225,-519.667 L-22.7811,-530.977 L-34.8073,-530.134 C-41.4249,-529.673 -54.3102,-528.225 -63.4412,-526.905 C-158.537,-513.177 -211.574,-506.909 -232.763,-506.893 L-243.898,-506.877 L-259.011,-522.435 C-275.618,-539.536 -285.958,-553.598 -286.976,-560.486 C-287.342,-562.936 -288.058,-576.044 -288.551,-589.613 L-289.474,-614.27 L-277.734,-632.564 C-269.08,-646.054 -264.562,-651.574 -260.506,-653.594 C-248.241,-659.734 -229.343,-664.284 -209.681,-665.859 C-198.736,-666.734 -184.419,-667.879 -177.865,-668.404 C-160.574,-669.772 -159.349,-670.186 -154.656,-676.358 C-150.997,-681.162 -149.868,-685.473 -146.75,-706.694 C-144.746,-720.295 -142.63,-736.584 -142.041,-742.9 L-140.959,-754.369 L-149.47,-765.823 L-157.981,-777.276 L-171.502,-777.26 C-178.931,-777.26 -195.046,-776.592 -207.295,-775.797 C-219.544,-775.002 -237.535,-773.856 -247.271,-773.236 L-264.976,-772.106 L-270.735,-780.649 C-277.082,-790.066 -277.798,-795.284 -274.616,-809.028 C-272.85,-816.648 -272.103,-817.555 -261.89,-824.077 C-244.805,-835.005 -226.909,-837.741 -172.584,-837.741 L-130.222,-837.741 L-125.02,-843.452 C-118.816,-850.245 -115.968,-855.033 -115.889,-858.803 C-115.857,-860.33 -112.214,-874.886 -107.808,-891.144 L-99.7744,-920.732 L-104.07,-928.161 C-106.44,-932.249 -110.433,-938.628 -112.962,-942.351 L-117.559,-949.111 L-146.511,-948.857 C-162.435,-948.714 -189.064,-948.014 -205.688,-947.298 L-205.72,-947.33 Z M-463.425,-940.346 C-469.549,-939.185 -496.401,-935.256 -523.078,-931.613 L-571.597,-924.995 L-576.512,-919.857 L-581.428,-914.719 L-582.478,-887.771 C-584.419,-837.932 -588.443,-755.88 -589.175,-750.965 L-589.907,-746.097 L-625.285,-739.4 C-667.823,-731.351 -704.41,-724.86 -707.353,-724.829 C-709.055,-724.813 -709.278,-727.183 -708.435,-736.33 C-707.051,-751.251 -698.89,-835.514 -694.723,-877.845 L-691.477,-910.79 L-695.629,-917.869 C-697.92,-921.766 -700.672,-925.695 -701.754,-926.586 C-703.122,-927.731 -712.651,-926.841 -733.092,-923.707 C-758.035,-919.873 -774.627,-917.535 -831.195,-909.883 C-842.282,-908.388 -842.298,-908.34 -844.255,-877.511 C-846.88,-836.405 -852.145,-762.196 -855.215,-723.206 C-857.729,-691.216 -858.174,-688.639 -861.976,-683.437 C-866.351,-677.44 -868.101,-673.256 -881.797,-635.984 C-886.729,-622.574 -890.435,-610.754 -890.022,-609.736 C-889.608,-608.718 -884.183,-600.748 -877.963,-592.063 C-871.25,-582.693 -868.085,-580.084 -867.258,-570.89 C-866.43,-561.679 -867.926,-545.867 -870.566,-510.059 C-878.409,-403.397 -882.1,-356.883 -884.183,-338.255 C-885.488,-326.706 -885.297,-323.748 -882.943,-317.973 C-881.415,-314.251 -879.459,-311.212 -878.584,-311.212 C-877.709,-311.212 -846.578,-321.52 -809.385,-334.135 C-727.572,-361.878 -723.054,-363.469 -721.718,-364.933 C-721.129,-365.569 -719.364,-415.312 -717.789,-475.459 C-716.214,-535.606 -714.528,-585.477 -714.035,-586.257 C-712.492,-588.722 -596.667,-614.429 -594.918,-612.679 C-594.043,-611.804 -599.61,-474.234 -603.587,-398.466 L-604.558,-379.949 L-599.34,-372.218 C-596.461,-367.971 -593.9,-364.217 -593.645,-363.899 C-593.391,-363.565 -573.999,-369.53 -550.551,-377.15 C-527.119,-384.769 -495.479,-395.046 -480.255,-399.977 L-452.576,-408.965 L-453.546,-431.268 C-454.087,-443.533 -455.63,-475.762 -456.982,-502.884 C-460.164,-566.785 -462.216,-628.142 -461.357,-633.948 C-460.943,-636.748 -459.289,-639.166 -457.077,-640.168 C-454.23,-641.472 -450.937,-648.662 -441.329,-674.656 C-434.648,-692.727 -429.175,-708.205 -429.175,-709.048 C-429.175,-709.891 -434.282,-718.211 -440.533,-727.533 L-451.892,-744.475 L-449.219,-766.857 C-447.756,-779.169 -442.554,-819.432 -437.67,-856.338 L-428.794,-923.436 L-434.648,-933.092 C-441.345,-944.1 -442.22,-944.323 -463.345,-940.33 L-463.425,-940.346 Z M115.616,-385.851 C105.117,-385.151 84.7232,-383.847 70.279,-382.956 C41.0883,-381.158 30.9074,-378.661 -30.735,-358.251 C-73.6381,-344.046 -99.4085,-332.91 -106.026,-325.736 C-112.039,-319.214 -146.352,-276.279 -171.852,-243.366 C-181.222,-231.26 -191.896,-217.595 -195.539,-212.998 L-202.188,-204.631 L-202.936,-165.211 L-203.684,-125.792 L-196.493,-111.539 C-173.061,-65.1041 -145.589,-15.7425 -140.896,-11.6224 L-135.71,-7.08871 L-113.439,-8.05909 C-101.19,-8.58404 -78.6331,-9.7294 -63.3299,-10.5884 C-48.0266,-11.4474 -13.7296,-13.2291 12.8681,-14.5335 C39.4657,-15.838 61.4025,-17.1106 61.5934,-17.3333 C61.7843,-17.556 63.5023,-24.9053 65.3953,-33.6546 C67.2883,-42.4038 69.42,-52.1712 70.1517,-55.3686 C71.7266,-62.2885 71.6629,-62.3839 61.5456,-69.3356 C57.171,-72.3421 35.5206,-88.2498 13.4248,-104.698 L-26.7421,-134.605 L-26.7421,-161.059 L-26.7421,-187.514 L-4.86904,-209.307 L17.0041,-231.101 L30.5256,-234.442 C58.7459,-241.393 97.1789,-246.5 136.312,-248.472 L155.401,-249.443 L188.235,-231.944 C206.29,-222.32 223.9,-212.664 227.368,-210.485 L233.651,-206.508 L234.574,-170.986 C235.258,-144.929 235.003,-134.764 233.619,-132.839 C232.585,-131.392 221.704,-118.872 209.424,-105.001 C197.143,-91.1291 184.433,-76.4781 181.172,-72.4376 L175.238,-65.0882 L183.303,-46.9852 C187.741,-37.027 192.482,-27.1642 193.85,-25.0644 L196.332,-21.2625 L219.605,-22.3124 C232.41,-22.8851 273.659,-24.0622 311.281,-24.9372 C350.239,-25.828 367.037,-25.7007 375.802,-27.6256 C384.568,-29.5504 385.315,-33.5432 392.171,-42.6902 L398.932,-51.7098 L400.889,-87.2317 C403.18,-128.878 405.82,-198.411 406.202,-227.585 L406.472,-248.106 L401.7,-252.242 C397.437,-255.933 385.554,-265.255 327.173,-310.687 C308.449,-325.243 252.438,-367.844 250.084,-369.291 C249.193,-369.848 244.134,-370.993 238.853,-371.852 C233.572,-372.696 218.093,-376.609 204.46,-380.522 C179.994,-387.537 179.374,-387.633 157.183,-387.41 C144.822,-387.283 126.115,-386.599 115.616,-385.915 L115.616,-385.851 Z M-288.44,-340.562 C-294.564,-339.433 -328.559,-333.419 -364.001,-327.2 C-399.428,-320.98 -436.095,-314.537 -445.465,-312.883 C-464.824,-309.462 -465.095,-309.335 -471.951,-301.445 L-476.994,-295.639 L-478.553,-227.474 C-479.412,-189.98 -480.828,-132.473 -481.703,-99.6557 C-482.577,-66.854 -484.025,-11.7179 -484.9,22.8336 C-485.791,57.3852 -487.207,111.44 -488.05,142.937 C-488.893,174.434 -490.674,244.937 -491.995,299.628 C-493.315,354.318 -495.495,439.854 -496.831,489.725 C-498.167,539.596 -499.933,608.317 -500.776,642.439 C-501.603,676.561 -503.019,730.965 -503.926,763.337 C-504.816,795.71 -506.28,854.409 -507.155,893.781 C-508.046,933.152 -509.493,993.283 -510.368,1027.41 C-513.422,1145.27 -514.6,1221.51 -513.518,1231.82 C-512.754,1239.11 -510.177,1247.11 -504.848,1258.86 C-496.004,1278.37 -483.882,1308.38 -475.292,1332.04 C-471.951,1341.23 -465.318,1357.68 -460.529,1368.63 C-455.741,1379.57 -446.419,1401.75 -439.833,1417.94 C-421.778,1462.19 -350.225,1639.47 -349.191,1642.51 C-347.601,1647.15 -333.65,1647.69 -313.876,1643.88 C-304.252,1642.02 -294.485,1640.14 -292.162,1639.68 C-289.569,1639.18 -286.229,1636.4 -283.54,1632.52 L-279.15,1626.17 L-277.082,1471.55 C-275.03,1317.34 -273.073,1147.83 -270.13,869.124 C-269.271,788.185 -267.855,674.381 -266.98,616.191 C-266.089,558.001 -264.658,438.104 -263.783,349.737 C-262.908,261.37 -261.476,132.517 -260.585,63.3983 C-259.711,-5.72073 -258.279,-121.577 -257.388,-194.036 L-255.781,-325.8 L-260.967,-334.374 C-266.869,-344.141 -267.855,-344.364 -288.424,-340.546 L-288.44,-340.562 Z M362.981,7.95997 C360.786,8.26221 337.878,9.94843 312.076,11.6824 C270.477,14.498 247.825,16.1365 158.567,22.8655 C146.318,23.7881 125.208,25.5539 111.639,26.7788 C98.0697,28.0037 80.5394,29.4513 72.6651,30.008 C64.7908,30.5489 45.8129,31.9806 30.5097,33.1896 C15.2065,34.3986 -3.7714,35.7985 -11.6457,36.3075 C-19.52,36.8165 -45.2905,38.6141 -68.9135,40.3003 C-92.5364,42.0025 -123.668,44.15 -138.112,45.0726 C-163.835,46.727 -175.67,47.2838 -182.383,49.0337 C-189.096,50.7835 -190.671,53.7264 -195.905,60.1372 L-202.936,68.7751 L-203.668,130.513 L-204.399,192.251 L-199.738,200.602 C-197.177,205.2 -194.489,208.954 -193.757,208.954 C-193.025,208.954 -168.575,206.059 -139.432,202.511 C-67.6568,193.794 -44.0497,191.153 -43.4611,191.742 C-43.1907,192.012 -42.4589,199.473 -41.8385,208.302 L-40.7091,224.368 L-59.5915,235.186 C-69.9793,241.135 -87.78,251.507 -99.154,258.236 C-127.311,274.891 -180.172,305.545 -189.494,310.604 C-193.678,312.879 -199.77,317.46 -203.015,320.769 L-208.917,326.814 L-209.331,404.285 L-209.744,481.755 L-203.763,488.484 C-196.636,496.486 -161.719,513.602 -157.313,511.232 C-154.131,509.53 -96.052,460.487 -53.9761,423.978 C-36.1436,408.5 -14.6682,389.888 -6.253,382.634 C2.16218,375.364 16.0178,363.37 24.5443,355.989 C33.0709,348.608 40.8179,342.547 41.7565,342.547 C42.695,342.547 47.1651,345.712 51.6988,349.562 C83.7528,376.844 153.763,432.632 160.953,436.609 L169.702,441.445 L211.858,441.684 C246.759,441.875 259.072,441.302 283.442,438.359 L312.872,434.796 L319.235,427.955 C322.734,424.185 336.749,408.627 350.398,393.356 C364.031,378.101 381.211,358.9 388.576,350.707 C395.942,342.515 404.627,332.748 407.904,329.009 L413.838,322.217 L413.917,193.062 L413.997,63.9074 L397.819,35.4008 L381.641,6.89415 L374.291,7.13277 C370.251,7.26003 365.16,7.6259 362.965,7.92815 L362.981,7.95997 Z M266.548,212.438 L267.662,270.008 L261.967,278.28 C257.322,285.024 255.254,288.301 251.038,289.956 C246.823,291.61 240.46,291.626 227.24,291.881 L203.633,292.326 L189.857,280.491 C182.269,273.985 163.482,258.156 148.068,245.319 L120.07,221.982 L118.018,197.15 C116.889,183.502 116.332,171.953 116.777,171.507 C118.336,169.948 243.418,155.711 261.331,155.043 L265.451,154.884 L266.564,212.454 L266.548,212.438 Z M91.7544,474.565 C86.5048,475.265 76.8329,476.346 70.279,476.983 C59.2549,478.049 23.3831,490.266 -32.3257,511.948 C-37.5753,513.984 -52.2581,519.695 -64.9365,524.61 C-85.7915,532.707 -88.7345,534.33 -95.5907,541.616 C-103.354,549.856 -121.743,573.654 -179.742,650.568 L-212.624,694.171 L-213.753,704.733 C-214.374,710.54 -214.421,722.168 -213.849,730.567 C-212.306,753.22 -208.217,823.882 -207.04,848.189 C-206.308,863.317 -205.354,870.062 -203.747,871.669 C-202.506,872.91 -200.804,876.393 -199.977,879.384 C-199.182,882.279 -198.784,883.727 -190.751,889.899 C-182.717,896.071 -167.064,906.952 -135.726,928.73 C-96.3384,956.107 -76.3742,969.358 -74.513,969.358 C-73.5744,969.358 -68.7067,971.41 -63.6957,973.908 C-52.0831,979.698 -51.2559,979.889 -19.3132,983.675 C26.7078,989.131 69.6427,990.961 98.4515,988.702 C129.201,986.284 133.783,985.52 177.656,975.53 C223.057,965.19 233.333,962.247 271.384,948.742 C295.978,940.008 307.797,935.92 316.069,931.1 C324.341,926.28 329.05,920.712 339.437,909.004 C367.642,877.252 412.724,827.525 435.202,803.377 L455.723,781.329 L453.846,754.063 C451.587,721.118 449.614,696.461 445.653,651.236 C443.999,632.417 442.185,610.782 441.597,603.147 L440.547,589.259 L430.795,580.796 C419.135,570.663 366.21,527.172 335.158,502.196 C316.308,487.036 311.806,484.141 305.729,483.266 C301.784,482.694 296.757,481.278 294.578,480.101 C292.382,478.939 281.295,477.19 269.921,476.219 C244.962,474.088 105.18,472.847 91.7544,474.628 L91.7544,474.565 Z M244.834,641.898 C262.651,650.504 277.827,657.551 278.559,657.551 C282.106,657.551 283.522,663.723 284.953,685.517 C285.812,698.577 286.99,714.994 287.578,722.025 L288.628,734.799 L258.594,762.781 C237.389,782.538 228.211,791.478 220.432,796.6 C212.637,801.723 206.242,803.011 190.621,807.465 C150.072,819.03 84.23,832.536 68.4337,832.536 C62.2933,832.536 16.3837,823.818 0.285076,819.587 C-12.7592,816.167 -28.2056,810.361 -39.691,804.57 C-46.3404,801.214 -47.1517,800.195 -48.0425,794.023 C-50.9536,773.932 -51.9876,754.906 -51.1127,737.567 L-50.1264,718.159 L-19.1064,688.253 C0.666863,669.18 13.9816,657.567 17.6404,656.199 C20.7901,655.022 45.2084,647.37 71.8857,639.21 L120.404,624.368 L166.425,625.306 L212.446,626.245 L244.85,641.898 L244.834,641.898 Z M323.212,978.171 C279.529,987.382 204.89,1008.54 196.809,1014.01 C193.675,1016.13 184.194,1026.09 175.731,1036.15 C167.268,1046.22 155.608,1059.83 149.802,1066.38 C143.995,1072.93 133.894,1084.8 127.356,1092.72 C107.296,1117 40.5634,1194.82 21.0446,1216.71 C10.8955,1228.08 -0.860291,1241.51 -5.10765,1246.53 L-12.807,1255.68 L-27.3307,1255.67 C-46.245,1255.65 -53.4671,1254.39 -54.5647,1250.96 C-55.0419,1249.46 -54.7238,1230.9 -53.8489,1209.74 C-52.274,1171.32 -52.2581,1171.24 -47.8517,1165.07 C-45.4178,1161.67 -31.5781,1143.61 -17.1021,1124.95 L9.22519,1091.02 L2.76666,1072.11 C-1.8943,1058.44 -4.56679,1052.84 -6.8575,1051.92 C-11.598,1050.01 -124.177,1033.51 -152.524,1030.59 L-162.976,1029.51 L-173.554,1041.32 C-184.451,1053.51 -186.551,1057.76 -200.057,1095.03 C-202.427,1101.58 -209.251,1119.85 -215.217,1135.59 L-226.05,1164.23 L-225.079,1200.02 C-223.361,1263.36 -216.966,1323.72 -210.651,1336.19 C-206.452,1344.48 -180.681,1369.39 -140.657,1403.85 C-128.997,1413.88 -123.429,1418.74 -118.864,1421.61 C-114.298,1424.49 -110.735,1425.43 -103.083,1427.61 C-90.5161,1431.19 -87.2551,1431.45 -56.9509,1431.13 C-10.1981,1430.63 4.11882,1428.69 46.9742,1416.97 C60.0026,1413.41 70.3585,1409.51 75.6081,1406.18 C80.1258,1403.32 85.0095,1400.55 86.4571,1400.03 C87.9047,1399.5 93.5838,1393.12 99.0878,1385.84 C104.592,1378.55 117.445,1361.86 127.642,1348.74 C145.236,1326.12 154.828,1313.59 205.51,1246.88 C217.314,1231.34 232.363,1211.76 238.948,1203.34 C245.534,1194.95 255.826,1181.26 261.824,1172.96 C275.043,1154.65 275.472,1154.29 283.013,1154.76 C286.322,1154.97 292.335,1155.21 296.375,1155.3 C300.702,1155.4 302.77,1155.14 304.09,1159.12 C305.411,1163.1 305.999,1171.31 307.352,1188.33 C308.258,1199.57 309.34,1210.34 309.754,1212.27 C310.454,1215.45 301.195,1230.07 263.319,1285.6 C261.824,1287.8 262.778,1291.33 268.33,1304.22 L275.186,1320.12 L356.872,1320.17 L438.558,1320.22 L460.034,1309.27 C471.837,1303.26 481.636,1298.2 481.811,1298.06 C482.607,1297.33 467.415,1133.99 463.231,1098.1 C462.356,1090.61 461.64,1081.43 461.64,1077.71 C461.64,1068.78 460.113,1066.3 449.121,1057.28 C444.015,1053.1 431.686,1042.49 421.712,1033.69 C411.738,1024.89 397.5,1012.72 390.056,1006.65 C382.627,1000.57 370.903,990.754 364.015,984.852 C356.745,978.616 353.277,975.514 348.282,974.703 C343.271,973.876 336.717,975.339 323.243,978.171 L323.212,978.171 Z M341.505,1379.9 C338.881,1380.72 320.269,1385.66 300.145,1390.93 C216.2,1412.85 211.301,1414.33 207.881,1418.93 C206.131,1421.26 196.936,1433.29 187.455,1445.62 C170.625,1467.52 119.227,1534.88 105.61,1552.88 C101.856,1557.85 89.9886,1573.36 79.235,1587.36 C68.4814,1601.36 46.497,1630.29 30.3824,1651.64 C14.2679,1673 -2.51469,1695.2 -6.90522,1700.95 L-14.8909,1711.44 L-34.3301,1711.41 C-50.7628,1711.39 -54.1988,1710.94 -56.5691,1708.57 C-59.0825,1706.06 -59.4325,1701.49 -59.8779,1666.02 L-60.371,1626.27 L-49.5379,1609.48 C-43.5725,1600.26 -30.3373,1580.1 -20.1245,1564.69 L-1.56023,1536.67 L-6.0303,1524.63 C-15.0659,1500.36 -16.5135,1498 -23.1629,1497.02 C-83.7713,1488.08 -122.252,1482.3 -146.861,1478.44 L-177.086,1473.7 L-192.596,1489.17 L-208.106,1504.65 L-210.508,1518.16 C-216.68,1552.81 -229.231,1645.01 -232.683,1681.2 C-234.02,1695.2 -235.817,1712.18 -236.676,1718.96 L-238.235,1731.27 L-223.171,1783.39 C-208.504,1834.12 -202.029,1857.14 -197.798,1868.89 C-193.582,1880.65 -191.626,1881.14 -186.058,1886.84 L-176.275,1896.79 L-59.6234,1896.73 L57.0279,1896.67 L61.9274,1891.53 C64.6317,1888.71 79.8236,1869.58 95.7154,1849.01 C111.607,1828.44 130.521,1804.12 137.744,1794.92 C144.982,1785.73 158.885,1767.83 168.652,1755.15 C178.42,1742.47 199.72,1714.9 215.994,1693.91 C232.267,1672.91 254.22,1644.27 264.798,1630.28 C275.377,1616.28 287.196,1601.07 291.094,1596.47 L298.173,1588.12 L312.951,1588.12 L327.729,1588.12 L328.572,1599.65 C331.452,1639.2 332.947,1657.89 332.533,1668.14 C332.136,1678.4 329.845,1680.21 325.184,1686.03 C318.598,1694.26 274.82,1751.49 262.38,1768.16 C259.978,1771.39 257.99,1774.97 257.99,1776.12 C257.958,1779.73 272.848,1821.1 274.613,1822.33 C275.536,1822.97 320.428,1823.51 374.371,1823.52 L472.442,1823.55 L481.859,1814.41 C487.029,1809.38 500.058,1796.67 510.795,1786.17 L530.33,1767.08 L529.296,1749.58 C528.723,1739.96 526.162,1702.74 523.585,1666.86 C521.008,1630.99 517.97,1586.55 516.824,1568.09 L514.74,1534.54 L491.642,1504.46 C478.932,1487.92 455.532,1457.06 439.624,1435.88 C415.619,1403.91 409.829,1397.13 405.55,1395.91 C402.718,1395.1 390.485,1390.77 378.379,1386.3 C356.379,1378.15 350.509,1377.14 341.537,1379.89 L341.505,1379.9 Z " fill="#fefefe" fill-opacity="1.00" />				<path d="M-149.438,-1907.26 C-150.854,-1906.95 -154.258,-1903.91 -156.994,-1900.51 C-161.894,-1894.42 -161.974,-1894.04 -162.069,-1876.33 C-162.117,-1866.44 -163.119,-1835.08 -164.28,-1806.64 L-166.396,-1754.94 L-162.371,-1748.94 C-160.16,-1745.65 -156.835,-1742.61 -154.99,-1742.21 C-153.145,-1741.82 -135.901,-1740.38 -116.652,-1739.03 C-45.6564,-1734.08 72.3311,-1725.03 106.835,-1721.88 L128.294,-1719.93 L129.44,-1711.97 C130.696,-1703.33 133.449,-1659.1 134.801,-1626.07 C135.914,-1598.74 136.328,-1596.56 141.466,-1590.95 L145.841,-1586.16 L223.772,-1586.22 L301.704,-1586.29 L302.675,-1727.86 C303.216,-1805.73 303.072,-1870.97 302.388,-1872.85 C301.625,-1874.9 298.396,-1877.22 294.26,-1878.7 C287.212,-1881.21 225.316,-1893.29 174.443,-1902.07 C158.694,-1904.79 144.25,-1907.4 142.341,-1907.86 C139.812,-1908.48 136.932,-1906.91 131.603,-1901.99 L124.333,-1895.28 L124.333,-1869.86 C124.333,-1846.57 124.111,-1844.53 121.629,-1845.47 C118.304,-1846.74 89.925,-1853.58 52.7487,-1862.06 C37.4455,-1865.56 5.2165,-1873.07 -18.836,-1878.78 C-54.7715,-1887.29 -115.348,-1901.04 -141.325,-1906.59 C-144.38,-1907.24 -148.054,-1907.53 -149.47,-1907.22 L-149.438,-1907.26 Z " fill="#000000" fill-opacity="1.00" stroke-width="0.18" stroke="#000000" stroke-linecap="square" stroke-linejoin="miter" />				<path d="M-290.031,-1865.3 C-376.839,-1827.75 -398.664,-1817.62 -401.257,-1813.67 C-403.055,-1810.92 -403.898,-1797.08 -405.25,-1747.51 C-409.227,-1601.7 -411.74,-1509.34 -413.252,-1452.59 C-414.142,-1419.34 -415.638,-1363.85 -416.56,-1329.3 C-420.856,-1170.18 -420.903,-1166.37 -418.835,-1163.37 C-417.738,-1161.78 -417.197,-1159.17 -417.61,-1157.55 C-418.358,-1154.68 -410.579,-1148.8 -390.249,-1136.83 C-386.749,-1134.78 -376.362,-1128.32 -367.183,-1122.48 C-295.519,-1076.96 -271.419,-1062.05 -269.51,-1062.05 C-266.455,-1062.05 -249.259,-1071.18 -246.093,-1074.48 C-243.182,-1077.51 -241.098,-1135.56 -231.983,-1467.7 C-231.077,-1500.5 -229.645,-1548.11 -228.802,-1573.48 C-227.943,-1598.86 -226.511,-1642.87 -225.604,-1671.32 C-224.698,-1699.76 -223.218,-1741.63 -222.327,-1764.38 C-221.437,-1787.12 -220.339,-1821.84 -219.909,-1841.53 L-219.114,-1877.32 L-223.568,-1883.56 C-226.018,-1886.99 -228.738,-1890 -229.613,-1890.27 C-230.488,-1890.52 -257.69,-1879.29 -290.062,-1865.3 L-290.031,-1865.3 Z " fill="#000000" fill-opacity="1.00" stroke-width="0.18" stroke="#000000" stroke-linecap="square" stroke-linejoin="miter" />				<path d="M-111.339,-1681.37 L-163.31,-1680.92 L-168.209,-1674.27 L-173.109,-1667.62 L-173.045,-1623.8 L-172.982,-1579.97 L-169.132,-1575.26 L-165.282,-1570.55 L-136.171,-1570.49 L-107.06,-1570.43 L-106.631,-1544.83 L-106.201,-1519.23 L-135.153,-1518.18 C-165.696,-1517.07 -168.989,-1516.28 -173.682,-1508.77 C-175.4,-1506.02 -176.116,-1493.94 -176.847,-1455.09 L-177.786,-1404.99 L-173.936,-1400.61 L-170.087,-1396.24 L-90.8661,-1395.47 C-47.2949,-1395.06 59.3344,-1394.26 146.095,-1393.71 L303.836,-1392.7 L311.313,-1399.59 L318.789,-1406.48 L317.723,-1420.83 C317.135,-1428.72 315.655,-1444.13 314.415,-1455.06 C313.174,-1466.01 311.09,-1486.4 309.769,-1500.4 C306.906,-1530.64 305.92,-1532.37 292.239,-1530.75 C287.833,-1530.23 252.024,-1529.1 212.653,-1528.22 C173.281,-1527.35 113.659,-1525.9 80.1576,-1524.99 C46.656,-1524.09 18.563,-1523.77 17.7199,-1524.29 C16.8609,-1524.83 16.1927,-1535.16 16.1927,-1548.04 C16.1927,-1561.28 15.8746,-1567.45 17.9744,-1570.33 C20.0742,-1573.21 24.5761,-1572.78 34.2162,-1572.78 C41.3587,-1572.78 54.2122,-1573.26 62.7546,-1573.81 L78.3123,-1574.85 L83.1165,-1581.37 L87.9206,-1587.89 L87.4434,-1630.35 L86.9661,-1672.81 L82.2893,-1677.68 L77.6124,-1682.54 L9.11381,-1682.16 C-28.5556,-1681.95 -82.785,-1681.59 -111.371,-1681.35 L-111.339,-1681.37 Z " fill="#000000" fill-opacity="1.00" stroke-width="0.18" stroke="#000000" stroke-linecap="square" stroke-linejoin="miter" />				<path d="M304.122,-1347.52 C302.802,-1347.23 276.332,-1346.23 245.264,-1345.28 C214.196,-1344.32 172.327,-1342.87 152.204,-1342.03 C132.08,-1341.2 93.0748,-1339.79 65.5067,-1338.88 C37.9386,-1337.98 -5.36214,-1336.48 -30.7349,-1335.56 C-56.1077,-1334.63 -98.0245,-1333.36 -123.875,-1332.73 C-169.339,-1331.61 -171.041,-1331.45 -175.972,-1327.95 C-180.506,-1324.72 -182.415,-1326.28 -184.165,-1310.45 C-185.915,-1294.61 -187.521,-1261.36 -191.419,-1188.54 C-192.771,-1163.17 -194.6,-1126.31 -195.459,-1106.61 C-196.318,-1086.92 -197.718,-1058.65 -198.561,-1043.78 L-200.104,-1016.73 L-191.371,-1008.13 L-182.638,-999.523 L-171.916,-1001.34 C-156.438,-1003.95 -75.8969,-1014.35 -71.1405,-1014.35 C-70.2815,-1014.35 -67.1,-1017.04 -64.0934,-1020.31 L-58.6212,-1026.28 L-58.6212,-1042.19 C-58.6371,-1066.48 -53.642,-1210.7 -52.7512,-1211.6 C-52.3217,-1212.05 -40.6454,-1212.62 -26.7898,-1212.91 L-1.60793,-1213.42 L-0.669375,-1203.36 C0.778226,-1187.79 5.04149,-1074.85 5.04149,-1052.05 C5.04149,-1030.27 6.05958,-1026.31 13.5521,-1019.33 C17.3063,-1015.81 18.7539,-1015.57 33.9935,-1015.81 C43.0132,-1015.96 66.8429,-1017.12 86.9662,-1018.39 C107.089,-1019.66 125.224,-1020.71 127.276,-1020.71 C129.535,-1020.71 132.971,-1022.95 136.026,-1026.41 L141.052,-1032.09 L141.848,-1124.64 L142.643,-1217.19 L167.236,-1218.37 C180.758,-1219.02 192.323,-1219.02 192.912,-1218.37 C194.12,-1217.04 200.674,-1106.69 202.138,-1062.88 L203.092,-1034.25 L208.358,-1027.71 L213.623,-1021.17 L245.741,-1020.12 C263.414,-1019.55 291.348,-1018.98 307.829,-1018.87 L337.783,-1018.66 L343.446,-1024.32 C349.046,-1029.92 349.109,-1030.16 348.855,-1042.46 C348.712,-1049.31 347.884,-1066.38 347.025,-1080.38 C346.15,-1094.38 343.987,-1131.6 342.205,-1163.1 C340.424,-1194.6 337.942,-1235.4 336.685,-1253.78 C335.429,-1272.15 333.615,-1299 332.661,-1313.43 C330.943,-1339.49 330.895,-1339.71 326.234,-1344.05 C322.4,-1347.63 320.189,-1348.39 314.017,-1348.24 C309.881,-1348.14 305.411,-1347.82 304.106,-1347.54 L304.122,-1347.52 Z " fill="#000000" fill-opacity="1.00" stroke-width="0.18" stroke="#000000" stroke-linecap="square" stroke-linejoin="miter" />				<path d="M426.675,-1117.81 C424.719,-1115.86 415.556,-1102.68 406.313,-1088.56 L389.531,-1062.88 L391.297,-1054.93 C397.691,-1026.07 400.809,-1011.87 403.259,-1004.06 C405.693,-996.246 407.443,-994.814 411.086,-991.537 L417.862,-985.429 L433.77,-986.351 C442.519,-986.86 471.869,-988.006 498.992,-988.912 C595.345,-992.126 757.269,-998.059 795.575,-999.793 L818.546,-1000.83 L827.168,-1011.96 C831.908,-1018.09 837.619,-1025.82 839.846,-1029.13 L843.903,-1035.16 L837.683,-1041.61 C834.263,-1045.16 815.444,-1062.42 795.861,-1079.97 C765.478,-1107.2 759.306,-1112.05 753.706,-1113.07 C743.064,-1115.03 708.194,-1116.16 609.55,-1117.76 C558.375,-1118.59 497.083,-1119.75 473.364,-1120.33 L430.239,-1121.38 L426.675,-1117.81 Z " fill="#000000" fill-opacity="1.00" stroke-width="0.18" stroke="#000000" stroke-linecap="square" stroke-linejoin="miter" />				<path d="M-601.026,-1112.9 C-628.594,-1112.28 -694.802,-1110.91 -748.173,-1109.89 C-886.045,-1107.23 -957.2,-1105.31 -959.045,-1104.16 C-960.715,-1103.13 -981.22,-1063.06 -981.22,-1060.83 C-981.22,-1060.13 -976.035,-1056.79 -969.687,-1053.4 C-963.34,-1050.01 -945.985,-1040.66 -931.111,-1032.6 C-916.237,-1024.53 -883.658,-1007.37 -858.731,-994.448 L-813.394,-970.969 L-678.974,-971.987 C-605.035,-972.543 -494.222,-973.466 -432.691,-974.055 L-320.828,-975.105 L-315.34,-986.017 C-307.545,-1001.5 -303.648,-1011.95 -304.888,-1013.97 C-305.477,-1014.92 -318.489,-1022.46 -333.793,-1030.72 C-349.096,-1038.97 -366.26,-1048.25 -371.955,-1051.32 C-391.379,-1061.83 -429.987,-1082.32 -452.289,-1093.97 C-464.538,-1100.36 -477.996,-1107.62 -482.18,-1110.08 L-489.8,-1114.58 L-520.358,-1114.33 C-537.157,-1114.19 -573.458,-1113.55 -601.026,-1112.93 L-601.026,-1112.9 Z " fill="#000000" fill-opacity="1.00" stroke-width="0.18" stroke="#000000" stroke-linecap="square" stroke-linejoin="miter" />				<path d="M-1067.34,-1015.53 C-1070.84,-1014.65 -1076.22,-1013.31 -1079.27,-1012.58 C-1088.23,-1010.44 -1091.57,-1002.12 -1093.57,-976.966 C-1098.49,-915.657 -1100.26,-894.166 -1103.12,-861.635 C-1104.84,-841.941 -1108.78,-795.061 -1111.87,-757.439 C-1117.01,-694.763 -1120.95,-648.503 -1125.41,-598.362 C-1128.59,-562.586 -1133.31,-506.098 -1133.33,-503.505 C-1133.34,-501.93 -1129.73,-499.035 -1124.2,-496.203 C-1011.75,-438.394 -958.343,-411.463 -956.18,-411.463 C-953.539,-411.463 -952.314,-410.906 -950.533,-423.489 C-948.767,-436.072 -946.444,-461.826 -941.672,-514.433 C-938.666,-547.489 -934.386,-595.992 -932.143,-622.24 C-929.9,-648.487 -925.908,-695.017 -923.267,-725.64 C-918.32,-782.908 -916.379,-806.721 -910.461,-882.538 C-907.311,-922.959 -907.264,-937.801 -910.27,-941.985 C-910.907,-942.86 -921.803,-948.745 -934.482,-955.045 C-947.176,-961.36 -972.931,-974.484 -991.75,-984.204 C-1049.13,-1013.87 -1056.57,-1017.55 -1058.8,-1017.34 C-1059.98,-1017.23 -1063.81,-1016.42 -1067.31,-1015.54 L-1067.34,-1015.53 Z " fill="#000000" fill-opacity="1.00" stroke-width="0.18" stroke="#000000" stroke-linecap="square" stroke-linejoin="miter" />				<path d="M949.266,-995.88 C941.392,-992.81 928.507,-987.894 920.632,-984.967 C912.758,-982.04 893.223,-974.564 877.22,-968.36 C861.217,-962.156 847.139,-957.081 845.93,-957.081 C842.812,-957.081 833.601,-944.928 833.522,-940.728 C833.49,-938.787 835.049,-921.448 836.99,-902.2 C839.933,-872.993 841.444,-860.155 841.269,-851.502 C841.094,-842.848 839.249,-838.362 835.494,-825.843 C831.772,-813.45 827.016,-801.106 824.757,-798.004 C822.53,-794.95 812.89,-784.705 803.329,-775.272 L785.942,-758.107 L774.075,-758.569 L762.208,-759.03 L755.288,-774.142 C744.455,-797.797 743.468,-801.758 744.995,-815.503 C745.727,-822.057 750.706,-849.306 756.083,-876.047 L765.85,-924.661 L758.31,-936.322 L750.77,-947.982 L737.073,-946.996 C729.533,-946.455 705.115,-944.912 682.812,-943.56 C657.233,-942.017 644.936,-941.333 638.398,-940.124 C631.86,-938.915 631.064,-937.181 628.472,-933.522 C624.176,-927.445 623.795,-925.934 603.162,-833.446 L597.054,-806.053 L599.408,-791.291 C606.058,-749.613 613.677,-720.804 625.481,-692.552 L630.667,-680.16 L656.787,-658.35 C675.065,-643.095 684.689,-636.127 688.825,-635.141 C692.071,-634.377 706.547,-630.862 720.991,-627.362 C756.465,-618.724 762.478,-618.867 816.978,-629.494 C828.177,-631.673 850.098,-646.499 886.669,-676.628 C893.367,-682.132 899.539,-686.65 900.382,-686.65 C901.241,-686.65 902.354,-684.678 902.879,-682.275 C913.633,-631.944 926.98,-561.234 925.946,-560.184 C924.848,-559.086 679.758,-564.415 626.117,-566.722 L602.017,-567.756 L595.622,-561.584 C589.307,-555.491 589.132,-554.998 581.098,-521.21 C576.628,-502.391 569.406,-472.294 565.047,-454.302 L557.125,-421.596 L562.089,-412.417 C564.825,-407.374 567.863,-403 568.865,-402.682 C569.852,-402.379 676.401,-401.234 805.62,-400.152 C1005.83,-398.466 1040.96,-398.498 1043.22,-400.375 C1044.68,-401.584 1056.26,-414.612 1068.97,-429.327 L1092.07,-456.084 L1090.35,-464.388 C1086.42,-483.366 1072.15,-548.062 1065.36,-577.682 C1051.03,-640.184 1045.09,-666.447 1024.06,-760.621 C1012.34,-813.116 1000.19,-866.805 997.053,-879.929 C987.524,-919.905 983.754,-935.987 976.914,-965.83 C969.437,-998.425 968.419,-1001.65 965.604,-1001.54 C964.49,-1001.5 957.141,-998.95 949.266,-995.88 L949.266,-995.88 Z " fill="#000000" fill-opacity="1.00" stroke-width="0.18" stroke="#000000" stroke-linecap="square" stroke-linejoin="miter" />				<path d="M67.8928,-958.513 C-4.91673,-950.082 -13.2365,-948.889 -15.7976,-946.582 C-17.2452,-945.278 -19.5836,-940.076 -20.9994,-935.033 C-22.4152,-929.99 -25.9944,-918.394 -28.9374,-909.263 C-31.8962,-900.132 -38.7365,-878.704 -44.1451,-861.651 C-56.8236,-821.643 -63.1708,-801.838 -79.7466,-750.297 C-87.2073,-727.103 -95.4952,-700.983 -98.1836,-692.234 C-101.254,-682.212 -106.074,-671.331 -111.212,-662.804 C-115.698,-655.376 -123.843,-641.25 -129.315,-631.434 L-139.241,-613.586 L-131.797,-598.521 C-127.708,-590.233 -122.347,-578.223 -119.882,-571.828 C-116.43,-562.872 -113.55,-558.466 -107.362,-552.644 C-102.94,-548.492 -98.5654,-545.087 -97.6268,-545.103 C-96.7042,-545.103 -84.4871,-549.462 -70.4883,-554.791 C-6.52341,-579.114 0.55552,-581.182 24.1626,-582.423 C35.9661,-583.043 59.2391,-584.523 75.8626,-585.7 C92.4862,-586.877 106.501,-587.354 107.01,-586.75 C108.06,-585.509 146.079,-469.78 156.308,-436.708 L163.021,-415.026 L170.211,-414.04 C174.156,-413.499 196.793,-412.354 220.495,-411.495 C244.198,-410.635 268.282,-409.617 274.025,-409.236 C279.768,-408.854 285.303,-409.045 286.337,-409.681 C287.371,-410.317 292.239,-416.887 297.171,-424.284 L306.143,-437.726 L300.559,-453.634 C293.019,-475.094 276.443,-519.317 263.574,-552.262 C253.631,-577.73 239.092,-615.734 210.33,-691.454 C176.606,-780.251 150.327,-849.195 140.893,-873.598 C132.796,-894.548 114.534,-944.387 109.269,-959.897 C108.378,-962.506 99.6287,-962.219 67.9247,-958.545 L67.8928,-958.513 Z M74.5264,-739.718 C100.472,-675.483 102.158,-670.965 100.647,-670.026 C99.9469,-669.597 76.7217,-668.738 49.0264,-668.133 L-1.30561,-667.036 L-1.30561,-670.504 C-1.30561,-672.413 6.31418,-692.393 15.6202,-714.902 C24.9262,-737.412 35.3617,-762.641 38.7818,-770.945 C47.1811,-791.323 49.1855,-794.313 52.3034,-791.195 C53.6237,-789.875 63.6137,-766.714 74.5264,-739.702 L74.5264,-739.718 Z " fill="#000000" fill-opacity="1.00" stroke-width="0.18" stroke="#000000" stroke-linecap="square" stroke-linejoin="miter" />				<path d="M297.05,-953.025 C291.801,-951.832 265.68,-946.884 238.987,-942.032 C212.294,-937.181 188.957,-932.87 187.112,-932.44 C184.917,-931.947 181.879,-928.034 178.395,-921.225 L173.034,-910.774 L176.422,-901.722 C178.283,-896.743 191.725,-861.889 206.297,-824.268 C220.868,-786.646 236.617,-745.843 241.294,-733.594 C258.156,-689.45 272.902,-651.51 293.837,-598.378 C315.296,-543.91 319.83,-532.043 349.069,-453.618 C357.881,-429.995 365.533,-410.206 366.074,-409.649 C366.615,-409.092 396.076,-408.138 431.518,-407.518 C469.729,-406.849 487.434,-406.197 495.976,-408.218 C504.519,-410.254 503.898,-414.978 505.441,-425.096 C508.066,-442.308 516.306,-496.728 523.115,-541.89 C529.367,-583.409 543.938,-672.238 554.692,-734.373 C558.557,-756.692 567.227,-809.028 573.972,-850.674 L586.237,-926.411 L580.287,-935.383 C576.883,-940.521 575.674,-942.971 571.633,-943.846 C567.593,-944.721 560.736,-944.005 546.006,-942.78 C535.936,-941.937 511.963,-940.076 492.715,-938.628 L457.718,-935.987 L452.707,-931.263 C449.192,-927.954 447.426,-924.55 446.79,-919.937 C446.296,-916.31 444.403,-902.247 442.59,-888.678 C440.776,-875.109 436.45,-843.611 432.982,-818.684 C424.598,-758.473 413.908,-679.778 412.827,-670.281 C412.333,-665.986 411.22,-662.9 410.281,-663.218 C409.359,-663.52 403.425,-679.126 397.11,-697.881 C385.37,-732.703 334.974,-881.01 322.391,-917.773 C318.558,-928.972 314.628,-941.142 313.642,-944.816 C311.86,-951.482 309.49,-955.618 307.597,-955.347 C307.04,-955.268 302.3,-954.234 297.05,-953.025 Z " fill="#000000" fill-opacity="1.00" stroke-width="0.18" stroke="#000000" stroke-linecap="square" stroke-linejoin="miter" />				<path d="M-218.532,-947.298 C-306.788,-943.639 -320.103,-940.251 -357.757,-911.728 C-376.591,-897.459 -378.993,-894.723 -396.556,-867.489 L-410.729,-845.504 L-413.068,-829.31 C-418.015,-795.045 -414.754,-771.152 -399.833,-732.671 C-396.635,-724.431 -393.66,-716.111 -393.199,-714.202 C-392.658,-711.896 -397.574,-699.917 -407.898,-678.41 C-423.09,-646.754 -423.455,-645.735 -425.539,-628.587 C-426.717,-618.963 -428.132,-597.121 -428.705,-580.068 L-429.739,-549.048 L-424.06,-527.573 C-416.727,-499.798 -406.816,-471.307 -398.783,-454.795 C-393.454,-443.851 -390.765,-440.383 -382.62,-433.924 C-368.24,-422.518 -348.101,-409.904 -322.41,-396.239 L-299.662,-384.133 L-271.823,-385.151 C-218.151,-387.108 -138.978,-394.187 -74.6154,-402.793 C-54.9375,-405.418 -54.7148,-405.497 -46.9041,-412.322 L-39.0457,-419.21 L-30.4715,-454.7 C-25.7469,-474.219 -21.1178,-494.135 -20.1792,-498.971 L-18.4771,-507.752 L-26.24,-519.365 L-34.003,-530.977 L-46.0292,-530.134 C-52.6468,-529.673 -65.5321,-528.225 -74.6631,-526.905 C-169.759,-513.176 -222.796,-506.909 -243.985,-506.893 L-255.12,-506.877 L-270.232,-522.435 C-292.328,-545.167 -296.703,-552.309 -298.771,-568.885 C-299.694,-576.298 -300.441,-589.549 -300.441,-598.315 L-300.425,-614.27 L-288.813,-632.564 C-280.191,-646.149 -275.784,-651.558 -271.728,-653.594 C-259.463,-659.734 -240.565,-664.284 -220.903,-665.859 C-209.958,-666.734 -195.641,-667.879 -189.087,-668.404 C-171.796,-669.772 -170.571,-670.186 -165.878,-676.358 C-162.219,-681.162 -161.09,-685.473 -157.972,-706.694 C-155.967,-720.295 -153.852,-736.584 -153.263,-742.9 L-152.181,-754.369 L-160.692,-765.823 L-169.203,-777.276 L-182.724,-777.26 C-190.153,-777.26 -206.268,-776.592 -218.516,-775.797 C-230.765,-775.001 -248.757,-773.856 -258.493,-773.236 L-276.198,-772.106 L-281.956,-780.649 C-288.304,-790.066 -289.019,-795.284 -285.838,-809.028 C-284.072,-816.648 -283.324,-817.555 -273.112,-824.077 C-256.027,-835.005 -238.131,-837.741 -183.806,-837.741 L-141.444,-837.741 L-136.242,-843.452 C-130.038,-850.245 -127.19,-855.033 -127.111,-858.803 C-127.079,-860.33 -123.436,-874.886 -119.03,-891.144 L-110.996,-920.732 L-115.291,-928.161 C-117.662,-932.249 -121.654,-938.628 -124.184,-942.351 L-128.781,-949.111 L-157.733,-948.857 C-173.657,-948.714 -201.002,-947.998 -218.501,-947.282 L-218.532,-947.298 Z " fill="#000000" fill-opacity="1.00" stroke-width="0.18" stroke="#000000" stroke-linecap="square" stroke-linejoin="miter" />				<path d="M-464.434,-942.112 C-464.8,-941.746 -491.588,-937.737 -523.96,-933.204 L-582.819,-924.963 L-587.734,-919.841 L-592.65,-914.719 L-593.7,-887.771 C-595.641,-837.821 -599.665,-755.88 -600.413,-750.949 L-601.145,-746.065 L-624.593,-741.643 C-662.405,-734.5 -716.269,-724.876 -718.559,-724.844 C-720.198,-724.829 -720.468,-727.072 -719.752,-734.755 C-717.844,-755.355 -709.094,-846.189 -705.96,-877.861 L-702.715,-910.806 L-706.867,-917.885 C-709.158,-921.782 -711.91,-925.711 -712.992,-926.602 C-714.36,-927.747 -723.888,-926.856 -744.33,-923.723 C-769.273,-919.889 -785.865,-917.55 -842.433,-909.899 C-853.52,-908.404 -853.536,-908.356 -855.493,-877.527 C-858.118,-836.421 -863.383,-762.212 -866.453,-723.222 C-868.967,-691.232 -869.412,-688.654 -873.214,-683.453 C-877.589,-677.455 -879.339,-673.272 -893.035,-636 C-897.967,-622.59 -901.673,-610.77 -901.259,-609.752 C-900.846,-608.734 -895.421,-600.764 -889.201,-592.079 C-882.488,-582.709 -879.323,-580.1 -878.495,-570.906 C-877.668,-561.695 -879.164,-545.883 -881.804,-510.075 C-889.647,-403.413 -893.337,-356.899 -895.421,-338.271 C-896.726,-326.722 -896.535,-323.763 -894.18,-317.989 C-892.653,-314.267 -890.697,-311.228 -889.822,-311.228 C-888.947,-311.228 -857.815,-321.536 -820.623,-334.151 C-738.858,-361.878 -734.308,-363.485 -732.94,-364.949 C-732.351,-365.585 -730.586,-415.312 -729.011,-475.475 C-727.436,-535.622 -725.766,-585.477 -725.272,-586.272 C-723.729,-588.754 -607.905,-614.445 -606.156,-612.711 C-605.281,-611.836 -610.848,-474.266 -614.825,-398.498 L-615.796,-379.981 L-610.578,-372.25 C-607.699,-368.003 -605.137,-364.249 -604.883,-363.93 C-604.628,-363.596 -585.237,-369.562 -561.789,-377.182 C-538.357,-384.801 -506.716,-395.078 -491.493,-400.009 L-463.813,-408.997 L-464.847,-432.89 C-465.42,-446.03 -466.565,-469.669 -467.409,-485.418 C-469.477,-524.169 -472.069,-588.897 -472.594,-614.811 L-473.024,-636.032 L-468.665,-639.5 C-465.293,-642.188 -461.634,-650.221 -452.36,-675.228 C-445.79,-692.965 -440.413,-708.189 -440.413,-709.048 C-440.413,-709.907 -445.519,-718.227 -451.771,-727.549 L-463.129,-744.491 L-460.457,-766.873 C-458.993,-779.185 -453.791,-819.448 -448.908,-856.354 L-440.031,-923.452 L-445.885,-933.108 C-451.389,-942.16 -452.121,-942.764 -457.737,-942.764 C-461.03,-942.764 -464.02,-942.462 -464.386,-942.112 L-464.434,-942.112 Z " fill="#000000" fill-opacity="1.00" stroke-width="0.18" stroke="#000000" stroke-linecap="square" stroke-linejoin="miter" />				<path d="M115.616,-371.742 C105.117,-371.058 84.7232,-369.754 70.279,-368.847 C41.1043,-367.002 30.7324,-364.472 -30.7349,-344.111 C-73.638,-329.905 -99.4085,-318.77 -106.026,-311.595 C-112.039,-305.073 -146.352,-262.138 -171.852,-229.225 C-181.222,-217.119 -191.896,-203.455 -195.539,-198.857 L-202.188,-190.49 L-202.936,-151.071 L-203.684,-111.651 L-196.493,-97.398 C-173.061,-50.9634 -145.589,-1.60178 -140.896,2.51832 L-135.71,7.05201 L-112.644,6.08164 C-99.9653,5.54078 -77.4082,4.39543 -62.5344,3.5364 C-47.6607,2.67739 -13.7296,0.911637 12.8681,-0.408706 C39.4658,-1.71314 61.4025,-2.96985 61.5934,-3.20846 C61.7843,-3.43117 63.5023,-10.7805 65.3953,-19.5298 C67.2884,-28.279 69.42,-38.0463 70.1517,-41.2438 C71.7266,-48.1636 71.663,-48.2591 61.5457,-55.2108 C57.171,-58.2173 35.5207,-74.125 13.4249,-90.5736 L-26.7421,-120.48 L-26.7421,-146.935 L-26.7421,-173.389 L-4.86901,-195.183 L17.0041,-216.976 L30.5256,-220.317 C58.7459,-227.269 97.1789,-232.375 136.312,-234.347 L155.401,-235.318 L188.235,-217.819 C206.29,-208.195 223.9,-198.539 227.368,-196.36 L233.651,-192.383 L234.574,-156.861 C235.258,-130.804 235.003,-120.639 233.619,-118.714 C232.585,-117.267 221.704,-104.747 209.424,-90.8758 C197.143,-77.0043 184.433,-62.3533 181.172,-58.3128 L175.238,-50.9634 L183.303,-32.8604 C187.742,-22.9022 192.482,-13.0394 193.85,-10.9396 L196.332,-7.13766 L219.605,-8.18757 C232.41,-8.76025 273.659,-9.93742 311.281,-10.8123 C350.239,-11.7032 367.037,-11.5759 375.802,-13.5007 C384.568,-15.4256 385.315,-19.4184 392.171,-28.5653 L398.932,-37.585 L400.889,-73.1069 C403.18,-114.753 405.82,-184.286 406.202,-213.461 L406.472,-233.982 L401.7,-238.118 C397.437,-241.808 385.554,-251.13 327.173,-296.562 C308.449,-311.118 252.438,-353.719 250.084,-355.166 C249.193,-355.723 244.134,-356.869 238.853,-357.728 C233.572,-358.571 218.093,-362.484 204.461,-366.397 C179.994,-373.413 179.374,-373.508 157.183,-373.285 C144.823,-373.158 126.115,-372.49 115.616,-371.806 L115.616,-371.742 Z " fill="#000000" fill-opacity="1.00" stroke-width="0.18" stroke="#000000" stroke-linecap="square" stroke-linejoin="miter" />				<path d="M-297.984,-324.595 C-309.358,-322.511 -332.981,-318.344 -350.48,-315.321 C-367.978,-312.299 -392.667,-307.972 -405.361,-305.713 C-418.056,-303.454 -436.095,-300.241 -445.465,-298.586 C-464.824,-295.166 -465.095,-295.039 -471.951,-287.149 L-476.994,-281.342 L-478.553,-213.178 C-479.412,-175.683 -480.828,-118.177 -481.703,-85.3594 C-482.577,-52.5577 -484.025,2.57844 -484.9,37.13 C-485.791,71.6815 -487.207,125.736 -488.05,157.233 C-488.893,188.73 -490.674,259.233 -491.995,313.924 C-493.315,368.615 -495.494,454.151 -496.831,504.021 C-498.167,553.892 -499.933,622.613 -500.776,656.735 C-501.603,690.857 -503.019,745.262 -503.926,777.634 C-504.816,810.006 -506.28,868.705 -507.155,908.077 C-508.046,947.448 -509.493,1007.58 -510.368,1041.7 C-513.422,1159.56 -514.6,1235.81 -513.518,1246.12 C-512.754,1253.4 -510.177,1261.4 -504.848,1273.16 C-496.004,1292.66 -483.882,1322.68 -475.292,1346.33 C-471.951,1355.53 -465.318,1371.98 -460.529,1382.92 C-455.741,1393.87 -446.419,1416.04 -439.833,1432.24 C-421.778,1476.49 -350.225,1653.77 -349.191,1656.8 C-347.601,1661.45 -333.649,1661.99 -313.876,1658.17 C-304.252,1656.31 -294.485,1654.43 -292.162,1653.97 C-289.569,1653.48 -286.229,1650.7 -283.54,1646.81 L-279.15,1640.47 L-277.082,1485.84 C-275.061,1334.29 -273.248,1176.81 -270.13,884.215 C-269.271,803.722 -267.855,689.903 -266.964,631.283 C-266.089,572.663 -264.642,453.117 -263.767,365.624 C-262.892,278.132 -261.46,148.929 -260.569,78.49 C-259.679,8.05068 -258.247,-108.505 -257.372,-180.535 L-255.781,-311.503 L-260.967,-320.078 C-264.069,-325.2 -265.533,-327.745 -270.13,-328.302 C-274.711,-328.859 -282.427,-327.427 -297.969,-324.579 L-297.984,-324.595 Z " fill="#000000" fill-opacity="1.00" stroke-width="0.18" stroke="#000000" stroke-linecap="square" stroke-linejoin="miter" />				<path d="M362.981,36.4004 C360.786,36.7026 337.878,38.3888 312.076,40.1228 C270.621,42.9225 237.851,45.3087 159.362,51.2422 C147.559,52.1331 126.083,53.9147 111.639,55.1874 C97.1948,56.46 80.0145,57.8917 73.4605,58.3689 C66.9066,58.8461 47.5628,60.2937 30.5097,61.5982 C13.4567,62.9026 -20.9199,65.4001 -45.8473,67.15 C-70.7746,68.8998 -101.572,71.0632 -114.25,71.9541 C-126.929,72.8449 -147.418,74.213 -159.778,74.9765 C-172.139,75.756 -183.735,77.1718 -185.549,78.1581 C-187.378,79.1285 -192.023,83.8212 -195.889,88.5617 L-202.92,97.1996 L-203.652,158.937 L-204.383,220.675 L-199.723,229.027 C-197.161,233.624 -194.473,237.378 -193.741,237.378 C-193.009,237.378 -168.559,234.483 -139.416,230.936 C-67.6408,222.218 -44.0338,219.578 -43.4452,220.166 C-43.1748,220.437 -42.443,227.897 -41.8226,236.726 L-40.6932,252.793 L-59.5756,263.61 C-69.9633,269.56 -87.7641,279.931 -99.1381,286.66 C-127.295,303.316 -180.156,333.97 -189.478,339.029 C-193.662,341.303 -199.754,345.885 -202.999,349.194 L-208.901,355.239 L-209.315,432.709 L-209.728,510.18 L-203.747,516.909 C-196.621,524.91 -161.703,542.027 -157.297,539.657 C-154.115,537.954 -96.0361,488.911 -53.9602,452.403 C-36.1277,436.925 -14.6522,418.313 -6.23707,411.059 C2.17811,403.789 16.0337,391.794 24.5603,384.413 C33.0868,377.032 40.8338,370.971 41.7724,370.971 C42.7109,370.971 47.181,374.137 51.7147,377.987 C83.7687,405.268 153.779,461.057 160.969,465.034 L169.718,469.869 L211.874,470.108 C246.775,470.299 259.088,469.726 283.458,466.783 L312.887,463.22 L319.251,456.396 C322.75,452.641 336.781,437.068 350.414,421.796 C364.063,406.525 381.243,387.324 388.592,379.132 C395.942,370.939 404.643,361.172 407.904,357.434 L413.838,350.641 L413.917,221.487 L413.997,92.3319 L397.819,63.8252 L381.641,35.3186 L374.291,35.5572 C370.251,35.6845 365.16,36.0504 362.965,36.3526 L362.981,36.4004 Z M266.548,240.878 L267.662,298.448 L261.967,306.72 C257.322,313.465 255.254,316.742 251.038,318.396 C246.823,320.051 240.46,320.066 227.24,320.321 L203.633,320.766 L189.857,308.931 C182.269,302.425 163.482,286.597 148.068,273.759 L120.07,250.423 L118.018,225.591 C116.889,211.942 116.332,200.393 116.777,199.947 C118.336,198.388 243.418,184.151 261.331,183.483 L265.451,183.324 L266.564,240.894 L266.548,240.878 Z " fill="#000000" fill-opacity="1.00" stroke-width="0.18" stroke="#000000" stroke-linecap="square" stroke-linejoin="miter" />				<path d="M91.7544,517.305 C86.5049,518.005 76.833,519.086 70.279,519.723 C62.8183,520.439 52.0965,523.175 41.6451,527.008 C14.8725,536.824 -21.9857,550.615 -32.3257,554.656 C-37.5753,556.708 -52.2581,562.419 -64.9365,567.35 C-85.7915,575.447 -88.7344,577.07 -95.5907,584.356 C-103.354,592.596 -121.743,616.394 -179.742,693.308 L-212.624,736.911 L-213.753,747.473 C-214.374,753.28 -214.421,764.908 -213.849,773.307 C-212.306,795.96 -208.217,866.622 -207.04,890.929 C-206.308,906.057 -205.354,912.802 -203.747,914.409 C-202.506,915.65 -200.804,919.133 -199.977,922.124 C-199.182,925.019 -198.784,926.467 -190.751,932.639 C-182.717,938.811 -167.064,949.692 -135.726,971.47 C-96.3383,998.847 -76.3742,1012.1 -74.513,1012.1 C-73.5744,1012.1 -68.7066,1014.15 -63.6957,1016.65 C-52.0831,1022.44 -51.2559,1022.63 -19.3132,1026.42 C26.7078,1031.87 69.6427,1033.7 98.4515,1031.44 C129.201,1029.02 133.783,1028.26 177.656,1018.27 C223.057,1007.93 233.333,1004.99 271.384,991.482 C295.978,982.748 307.797,978.66 316.069,973.84 C324.341,969.02 329.05,963.436 339.437,951.744 C367.976,919.611 398.057,886.427 427.996,854.087 L455.739,824.117 L453.862,796.819 C451.603,763.842 449.63,739.185 445.669,693.96 C444.015,675.141 442.201,653.507 441.613,645.871 L440.563,631.983 L430.811,623.521 C419.151,613.387 366.226,569.896 335.174,544.921 C316.324,529.761 311.822,526.865 305.745,525.99 C301.8,525.418 296.773,524.002 294.594,522.825 C292.398,521.663 281.311,519.898 269.937,518.927 C245.105,516.796 105.292,515.555 91.7703,517.352 L91.7544,517.305 Z M244.834,684.638 C262.651,693.244 277.827,700.291 278.559,700.291 C282.106,700.291 283.522,706.463 284.953,728.257 C285.812,741.317 286.99,757.734 287.578,764.765 L288.628,777.539 L258.594,805.521 C237.389,825.278 228.211,834.218 220.432,839.34 C212.637,844.463 206.242,845.751 190.621,850.205 C149.818,861.834 84.1664,875.292 68.2587,875.276 C62.6274,875.276 13.1067,865.747 -2.08518,861.754 C-12.9183,858.907 -28.8101,852.798 -39.6751,847.326 C-46.3245,843.97 -47.1358,842.952 -48.0266,836.779 C-50.89,816.99 -51.8922,798.49 -51.065,780.736 L-50.1265,760.931 L-19.1064,731.025 C0.682757,711.952 13.9816,700.339 17.6404,698.971 C20.7901,697.794 45.2084,690.142 71.8857,681.981 L120.404,667.14 L166.425,668.078 L212.446,669.017 L244.85,684.67 L244.834,684.638 Z " fill="#000000" fill-opacity="1.00" stroke-width="0.18" stroke="#000000" stroke-linecap="square" stroke-linejoin="miter" />				<path d="M323.212,1020.93 C278.67,1030.33 205.001,1051.22 196.809,1056.75 C193.675,1058.87 184.178,1068.84 175.715,1078.89 C167.252,1088.96 155.592,1102.57 149.786,1109.12 C143.979,1115.67 133.878,1127.54 127.34,1135.46 C107.28,1159.74 40.5475,1237.56 21.0287,1259.45 C10.8796,1270.82 -0.95571,1284.33 -5.2667,1289.45 L-13.1251,1298.77 L-32.7711,1298.12 C-47.6448,1297.63 -52.783,1296.91 -53.9284,1295.16 C-55.376,1292.95 -54.9465,1267.43 -52.8148,1229.05 L-51.924,1212.96 L-21.3494,1173.34 L9.22522,1133.71 L2.76669,1114.81 C-1.89427,1101.17 -4.56676,1095.55 -6.85747,1094.63 C-11.598,1092.72 -124.177,1076.22 -152.524,1073.3 L-162.976,1072.21 L-173.554,1084.03 C-184.451,1096.22 -186.551,1100.47 -200.057,1137.74 C-202.427,1144.29 -209.251,1162.55 -215.217,1178.3 L-226.05,1206.94 L-225.079,1242.73 C-223.361,1306.07 -216.966,1366.43 -210.651,1378.9 C-206.451,1387.19 -180.681,1412.1 -140.657,1446.55 C-128.997,1456.59 -123.429,1461.44 -118.864,1464.32 C-114.298,1467.2 -110.735,1468.14 -103.083,1470.32 C-90.5161,1473.9 -87.255,1474.15 -56.9508,1473.84 C-10.1981,1473.34 4.11884,1471.4 46.9742,1459.68 C60.0026,1456.11 70.3585,1452.22 75.6081,1448.89 C80.1259,1446.03 85.0095,1443.26 86.4571,1442.74 C87.9047,1442.21 93.5838,1435.83 99.0879,1428.55 C104.592,1421.26 117.445,1404.57 127.642,1391.45 C145.236,1368.83 154.828,1356.29 205.51,1289.59 C217.314,1274.05 232.363,1254.47 238.948,1246.05 C245.534,1237.65 255.827,1223.97 261.824,1215.67 C275.043,1197.36 275.473,1196.99 283.013,1197.47 C286.322,1197.68 292.335,1197.92 296.375,1198.01 C300.702,1198.11 302.77,1197.85 304.09,1201.83 C305.411,1205.81 305.999,1214.01 307.352,1231.04 C308.258,1242.28 309.34,1253.05 309.754,1254.98 C310.454,1258.16 301.195,1272.78 263.319,1328.31 C261.824,1330.51 262.778,1334.04 268.33,1346.92 L275.186,1362.83 L356.872,1362.89 L438.558,1362.96 L460.4,1351.82 L482.241,1340.69 L481.445,1332.67 C481,1328.26 479.218,1308.19 477.469,1288.07 C473.905,1247.09 465.633,1161.66 463.199,1140.81 C462.324,1133.31 461.609,1123.74 461.609,1119.54 C461.609,1112.79 460.909,1111.22 455.627,1106.13 C447.785,1098.54 407.188,1063.42 390.024,1049.39 C382.595,1043.29 370.871,1033.49 363.983,1027.58 C356.713,1021.34 353.245,1018.24 348.25,1017.43 C343.239,1016.6 336.685,1018.06 323.212,1020.91 L323.212,1020.93 Z " fill="#000000" fill-opacity="1.00" stroke-width="0.18" stroke="#000000" stroke-linecap="square" stroke-linejoin="miter" />				<path d="M341.505,1423.83 C338.881,1424.64 320.269,1429.59 300.145,1434.85 C216.2,1456.78 211.301,1458.26 207.881,1462.85 C206.131,1465.19 196.936,1477.22 187.455,1489.55 C170.625,1511.45 119.227,1578.8 105.61,1596.81 C101.856,1601.77 89.9886,1617.28 79.235,1631.28 C68.4814,1645.28 46.497,1674.22 30.3825,1695.57 C14.268,1716.93 -2.51467,1739.12 -6.90519,1744.88 L-14.8909,1755.36 L-34.3301,1755.33 C-50.7627,1755.32 -54.1988,1754.87 -56.5691,1752.5 C-59.0825,1749.99 -59.4324,1745.42 -59.8779,1709.95 L-60.371,1670.19 L-49.5378,1653.41 C-43.5725,1644.18 -30.3372,1624.03 -20.1245,1608.61 L-1.5602,1580.6 L-6.03027,1568.56 C-15.0658,1544.28 -16.5134,1541.93 -23.1629,1540.94 C-83.7712,1532 -122.252,1526.23 -146.861,1522.36 L-177.086,1517.62 L-192.596,1533.1 L-208.106,1548.58 L-210.508,1562.08 C-216.68,1596.73 -229.231,1688.93 -232.683,1725.12 C-234.02,1739.12 -235.817,1756.11 -236.676,1762.89 L-238.235,1775.2 L-223.17,1827.31 C-208.504,1878.04 -202.029,1901.06 -197.798,1912.82 C-193.582,1924.57 -191.625,1925.07 -186.058,1930.76 L-176.275,1940.72 L-59.6233,1940.66 L57.0279,1940.59 L61.9275,1935.45 C64.6318,1932.64 79.8236,1913.5 95.7154,1892.93 C111.607,1872.36 130.521,1848.04 137.744,1838.85 C144.982,1829.65 159.076,1811.53 169.05,1798.57 C179.04,1785.6 198.129,1760.9 211.492,1743.69 C224.838,1726.47 246.632,1698.06 259.915,1680.57 C273.198,1663.07 287.228,1645 291.11,1640.4 L298.157,1632.05 L312.935,1632.05 L327.713,1632.05 L328.557,1643.58 C331.436,1683.13 332.931,1701.82 332.518,1712.06 C332.12,1722.32 329.829,1724.14 325.168,1729.96 C318.582,1738.18 274.804,1795.42 262.365,1812.09 C259.963,1815.32 257.974,1818.9 257.974,1820.04 C257.942,1823.66 272.832,1865.03 274.598,1866.26 C275.52,1866.89 320.412,1867.43 374.355,1867.45 L472.426,1867.48 L481.843,1858.33 C487.013,1853.31 500.042,1840.6 510.779,1830.1 L530.314,1811.01 L529.28,1793.51 C528.707,1783.89 526.146,1746.66 523.569,1710.79 C520.992,1674.92 517.954,1630.47 516.808,1612.02 L514.724,1578.47 L491.626,1548.39 C478.916,1531.84 455.516,1500.98 439.608,1479.81 C415.604,1447.84 409.813,1441.06 405.534,1439.83 C402.702,1439.02 390.469,1434.7 378.364,1430.23 C356.363,1422.08 350.493,1421.06 341.521,1423.81 L341.505,1423.83 Z " fill="#000000" fill-opacity="1.00" stroke-width="0.18" stroke="#000000" stroke-linecap="square" stroke-linejoin="miter" />			</g>		</g>	</svg>