<?xml version="1.0" encoding="utf-8" ?>	<!-- Generator: Assembly 2.4 - http://assemblyapp.co -->	<svg version="1.1" xmlns="http://www.w3.org/2000/svg" xmlns:xlink="http://www.w3.org/1999/xlink" width="4096.00" height="4096.00" viewBox="0 0 4096.0 4096.0">		<g id="document" transform="scale(1.0 1.0) translate(2048.0 2048.0)">			<g>				<path d="M-156.852,-2005.7 C-158.349,-2005.38 -161.949,-2002.17 -164.843,-1998.57 C-170.024,-1992.12 -170.109,-1991.72 -170.209,-1973 C-170.26,-1962.53 -171.32,-1929.37 -172.548,-1899.29 L-174.785,-1844.62 L-170.58,-1838.36 C-165.617,-1830.97 -165.28,-1830.86 -145.731,-1829.53 C-89.592,-1825.72 80.5591,-1812.72 114.172,-1809.66 L136.867,-1807.59 L138.078,-1799.18 C139.306,-1790.77 141.998,-1748.27 144.219,-1702.44 C145.295,-1680.39 145.783,-1677.53 149.417,-1672.65 C152.513,-1668.48 154.986,-1667.06 160.302,-1666.48 C164.087,-1666.05 201.62,-1665.84 243.729,-1665.99 L320.275,-1666.27 L321.267,-1816 C321.823,-1898.35 321.671,-1967.34 320.965,-1969.33 C320.174,-1971.52 316.809,-1973.96 312.401,-1975.52 C304.949,-1978.18 239.489,-1990.95 185.688,-2000.23 C169.033,-2003.11 153.757,-2005.87 151.739,-2006.36 C149.064,-2007.01 146.019,-2005.35 140.383,-2000.15 L132.695,-1993.05 L132.695,-1966.17 C132.695,-1941.54 132.459,-1939.38 129.835,-1940.38 C126.319,-1941.72 96.3058,-1948.96 56.9897,-1957.92 C40.8056,-1961.62 6.72156,-1969.56 -18.7153,-1975.6 C-56.7192,-1984.6 -120.782,-1999.14 -148.255,-2005.01 C-151.485,-2005.7 -155.371,-2006 -156.869,-2005.68 L-156.852,-2005.7 Z M-305.536,-1958.07 C-397.341,-1918.37 -420.423,-1907.65 -423.165,-1903.48 C-425.066,-1900.57 -425.958,-1885.94 -427.388,-1833.51 C-431.594,-1679.31 -434.252,-1581.64 -435.85,-1521.61 C-436.792,-1486.45 -438.373,-1427.77 -439.349,-1391.23 C-443.891,-1222.94 -443.942,-1218.92 -441.755,-1215.74 C-440.594,-1214.06 -440.022,-1211.3 -440.459,-1209.59 C-441.25,-1206.56 -433.024,-1200.33 -411.523,-1187.68 C-407.822,-1185.51 -396.837,-1178.67 -387.129,-1172.47 C-377.406,-1166.28 -361.524,-1156.29 -351.8,-1150.25 C-342.077,-1144.21 -323.352,-1132.37 -310.163,-1123.92 C-296.99,-1115.48 -285.13,-1108.58 -283.834,-1108.58 C-280.587,-1108.58 -262.401,-1118.22 -259.053,-1121.72 C-256.093,-1124.8 -255.066,-1151.19 -247.429,-1421.49 C-242.382,-1600.34 -236.662,-1781.8 -233.903,-1851.33 C-232.944,-1875.39 -231.783,-1912.1 -231.329,-1932.92 L-230.487,-1970.78 L-235.198,-1977.37 C-237.789,-1981 -240.666,-1984.18 -241.591,-1984.47 C-242.516,-1984.74 -271.284,-1972.86 -305.519,-1958.06 L-305.536,-1958.07 Z M-116.56,-1766.81 L-171.522,-1766.34 L-176.703,-1759.31 L-181.885,-1752.27 L-181.818,-1705.93 L-181.75,-1659.58 L-177.679,-1654.6 L-173.608,-1649.62 L-142.821,-1649.55 L-112.034,-1649.48 L-111.58,-1622.41 L-111.126,-1595.35 L-141.744,-1594.24 C-174.045,-1593.06 -177.528,-1592.22 -182.491,-1584.28 C-184.307,-1581.37 -185.065,-1568.6 -185.838,-1527.51 L-186.831,-1474.52 L-182.76,-1469.89 L-178.688,-1465.27 L-94.9083,-1464.46 C-48.8292,-1464.02 63.9376,-1463.18 155.692,-1462.59 L322.512,-1461.53 L330.419,-1468.82 L338.326,-1476.1 L337.199,-1491.28 C336.577,-1499.62 335.012,-1515.92 333.7,-1527.48 C332.388,-1539.06 330.184,-1560.62 328.787,-1575.43 C325.776,-1607.41 324.716,-1609.24 310.248,-1607.53 C305.588,-1606.97 267.719,-1605.78 226.081,-1604.85 C184.443,-1603.93 121.389,-1602.39 85.9594,-1601.44 C50.5294,-1600.48 20.8194,-1600.16 19.9278,-1600.71 C19.0193,-1601.28 18.3128,-1612.2 18.3128,-1625.83 C18.3128,-1639.83 17.9763,-1646.35 20.197,-1649.4 C22.4177,-1652.44 27.1787,-1651.99 37.3736,-1651.99 C44.9273,-1651.99 58.5205,-1652.49 67.5547,-1653.08 L84.0079,-1654.18 L89.0885,-1661.07 L94.1692,-1667.97 L93.6645,-1712.87 L93.1598,-1757.78 L88.2137,-1762.92 L83.2676,-1768.07 L10.8264,-1767.67 C-29.0113,-1767.45 -86.362,-1767.06 -116.594,-1766.81 L-116.56,-1766.81 Z M318.609,-1425.45 C314.908,-1425.16 278.183,-1423.76 237.016,-1422.35 C195.849,-1420.94 142.099,-1419.04 117.57,-1418.15 C36.7007,-1415.17 -99.4,-1410.79 -160.115,-1409.23 C-177.174,-1408.79 -180.219,-1408.25 -184.93,-1404.91 C-189.708,-1401.51 -191.726,-1403.16 -193.577,-1386.4 C-195.428,-1369.64 -197.127,-1334.48 -201.248,-1257.48 C-202.678,-1230.65 -204.613,-1191.67 -205.522,-1170.84 C-206.43,-1150.02 -207.911,-1120.12 -208.802,-1104.39 L-210.434,-1075.79 L-201.198,-1066.69 L-191.962,-1057.59 L-180.623,-1059.51 C-164.254,-1062.27 -79.0775,-1073.27 -74.0473,-1073.27 C-73.1388,-1073.27 -69.7742,-1076.11 -66.5945,-1079.58 L-60.8073,-1085.89 L-60.8073,-1102.71 C-60.8241,-1128.4 -55.5416,-1280.92 -54.5995,-1281.88 C-54.1453,-1282.35 -41.7969,-1282.95 -27.1438,-1283.26 L-0.512493,-1283.79 L0.480084,-1273.16 C2.01101,-1256.69 6.51966,-1137.25 6.51966,-1113.14 C6.51966,-1090.11 7.59635,-1085.92 15.5201,-1078.53 C19.4904,-1074.82 21.0214,-1074.56 37.1381,-1074.82 C46.677,-1074.97 71.8783,-1076.19 93.1598,-1077.54 C114.441,-1078.89 133.62,-1080 135.79,-1080 C138.179,-1080 141.813,-1082.37 145.043,-1086.02 L150.359,-1092.03 L151.2,-1189.9 L152.041,-1287.78 L178.05,-1289.03 C192.35,-1289.72 204.581,-1289.72 205.203,-1289.03 C206.482,-1287.63 213.413,-1170.93 214.961,-1124.6 L215.97,-1094.31 L221.539,-1087.4 L227.107,-1080.48 L261.073,-1079.37 C279.764,-1078.77 309.306,-1078.16 326.735,-1078.05 L358.413,-1077.83 L364.402,-1083.82 C370.324,-1089.74 370.391,-1089.99 370.122,-1102.99 C369.971,-1110.25 369.096,-1128.3 368.188,-1143.1 C367.262,-1157.91 364.974,-1197.27 363.09,-1230.58 C361.206,-1263.89 358.582,-1307.04 357.252,-1326.48 C355.923,-1345.91 354.006,-1374.3 352.996,-1389.56 C351.179,-1417.12 351.129,-1417.36 346.2,-1421.95 C341.068,-1426.74 338.814,-1427.03 318.592,-1425.46 L318.609,-1425.45 Z M452.422,-1182.69 C450.336,-1180.6 440.663,-1166.69 430.888,-1151.75 L413.14,-1124.6 L415.007,-1116.18 C421.77,-1085.67 425.084,-1070.64 427.658,-1062.38 C430.232,-1054.12 432.083,-1052.63 435.935,-1049.16 L443.102,-1042.7 L460.767,-1043.68 C470.49,-1044.21 500.772,-1045.42 528.06,-1046.35 C648.75,-1050.49 778.156,-1055.2 820.685,-1057 L866.848,-1058.97 L875.966,-1070.74 C880.98,-1077.22 887.019,-1085.4 889.375,-1088.9 L893.665,-1095.27 L887.087,-1102.1 C883.47,-1105.85 863.568,-1124.11 842.858,-1142.66 C810.725,-1171.47 804.198,-1176.6 798.276,-1177.67 C787.072,-1179.73 750.414,-1180.92 644.982,-1182.64 C590.39,-1183.53 525.587,-1184.76 500.957,-1185.36 L456.191,-1186.47 L452.405,-1182.69 L452.422,-1182.69 Z M-634.432,-1177.49 C-663.587,-1176.83 -733.606,-1175.39 -790.048,-1174.31 C-951.485,-1171.21 -1011.44,-1169.43 -1013.55,-1167.68 C-1016.07,-1165.58 -1037.44,-1122.41 -1036.43,-1121.43 C-1034.46,-1119.5 -951.266,-1075.25 -884.259,-1040.51 L-859.024,-1027.42 L-716.867,-1028.48 C-638.672,-1029.06 -521.481,-1030.03 -456.408,-1030.65 L-338.106,-1031.76 L-332.302,-1043.31 C-324.059,-1059.67 -319.937,-1070.73 -321.249,-1072.86 C-321.872,-1073.87 -335.633,-1081.85 -351.817,-1090.58 C-368.001,-1099.31 -386.154,-1109.12 -392.176,-1112.37 C-412.718,-1123.49 -453.548,-1145.15 -477.134,-1157.47 C-490.088,-1164.23 -504.321,-1171.9 -508.745,-1174.51 L-516.804,-1179.27 L-549.121,-1179 C-566.887,-1178.85 -605.278,-1178.18 -634.432,-1177.52 L-634.432,-1177.49 Z M-1113.06,-1074.51 C-1116.76,-1073.59 -1122.44,-1072.17 -1125.67,-1071.4 C-1135.15,-1069.13 -1138.68,-1060.33 -1140.8,-1033.73 C-1146,-968.896 -1147.86,-946.167 -1150.89,-911.764 C-1152.71,-890.936 -1156.88,-841.358 -1160.14,-801.571 C-1165.58,-735.287 -1169.75,-686.365 -1174.46,-633.337 C-1177.83,-595.502 -1182.82,-535.762 -1182.84,-533.02 C-1182.86,-531.354 -1179.04,-528.293 -1173.18,-525.298 C-1054.26,-464.162 -997.783,-435.68 -995.495,-435.68 C-993.947,-435.68 -991.996,-437.379 -991.171,-439.465 C-989.136,-444.596 -981.498,-524.322 -969.2,-668.683 C-967.316,-690.89 -963.48,-735.556 -960.687,-767.941 C-957.895,-800.326 -954.53,-840.45 -953.201,-857.105 C-951.872,-873.76 -949.264,-906.683 -947.38,-930.286 C-945.496,-953.889 -943.965,-976.214 -943.965,-979.915 C-943.965,-988.545 -946.943,-999.262 -949.315,-999.262 C-950.324,-999.262 -981.531,-1014.91 -1018.63,-1034.04 C-1099.5,-1075.71 -1101.48,-1076.7 -1104.17,-1076.43 C-1105.33,-1076.31 -1109.3,-1075.45 -1113.01,-1074.53 L-1113.06,-1074.51 Z M993.225,-1053.7 C984.897,-1050.47 971.271,-1045.31 962.943,-1042.21 C954.615,-1039.12 933.956,-1031.21 917.032,-1024.65 C900.108,-1018.09 885.219,-1012.72 883.941,-1012.72 C880.643,-1012.72 870.902,-999.867 870.818,-995.426 C870.785,-993.374 872.433,-975.036 874.486,-954.68 C877.598,-923.792 879.196,-910.216 879.011,-901.064 C878.826,-891.912 876.875,-887.168 872.904,-873.928 C868.968,-860.823 863.938,-847.768 861.549,-844.487 C859.193,-841.257 848.999,-830.423 838.888,-820.447 L820.5,-802.294 L807.95,-802.782 L795.399,-803.27 L788.081,-819.252 C776.625,-844.268 775.581,-848.457 777.197,-862.993 C777.97,-869.924 783.236,-898.742 788.922,-927.022 L799.252,-978.435 L791.278,-990.766 L783.303,-1003.1 L768.818,-1002.05 C760.844,-1001.48 735.02,-999.851 711.434,-998.421 C684.382,-996.789 671.378,-996.065 664.463,-994.787 C657.549,-993.508 656.708,-991.674 653.966,-987.805 C649.423,-981.379 649.02,-979.78 627.2,-881.97 L620.74,-853 L623.229,-837.388 C630.262,-793.311 638.32,-762.843 650.803,-732.965 L656.287,-719.86 L683.911,-696.795 C703.241,-680.662 713.419,-673.293 717.793,-672.25 C721.225,-671.442 736.535,-667.724 751.81,-664.023 C789.326,-654.888 795.685,-655.04 853.322,-666.278 C865.166,-668.582 888.348,-684.262 927.025,-716.125 C934.108,-721.946 940.635,-726.724 941.527,-726.724 C942.435,-726.724 943.613,-724.638 944.168,-722.097 C955.541,-668.868 969.655,-594.089 968.562,-592.978 C967.401,-591.817 708.204,-597.453 651.476,-599.893 L625.988,-600.986 L619.225,-594.459 C612.547,-588.015 612.362,-587.494 603.866,-551.761 C599.138,-531.859 591.501,-500.029 586.891,-481.002 L578.513,-446.413 L583.762,-436.706 C586.655,-431.373 589.869,-426.747 590.929,-426.41 C591.972,-426.091 704.654,-424.88 841.31,-423.736 C1053.05,-421.952 1090.19,-421.986 1092.58,-423.971 C1094.13,-425.25 1106.38,-439.028 1119.82,-454.59 L1144.25,-482.886 L1142.43,-491.668 C1138.28,-511.738 1123.19,-580.159 1116,-611.484 C1100.84,-677.583 1094.57,-705.358 1072.33,-804.952 C1059.93,-860.469 1047.08,-917.248 1043.76,-931.127 C1033.69,-973.404 1029.7,-990.413 1022.46,-1021.97 C1014.56,-1056.48 1013.48,-1059.88 1010.5,-1059.71 C1009.32,-1059.64 1001.55,-1056.95 993.225,-1053.72 L993.225,-1053.7 Z M72.9886,-1014.22 C-4.01175,-1005.3 -12.8103,-1004.04 -15.5189,-1001.6 C-17.0498,-1000.22 -19.5229,-994.72 -21.0201,-989.387 C-22.5174,-984.054 -26.3027,-971.789 -29.415,-962.133 C-32.5441,-952.476 -39.7781,-929.815 -45.4981,-911.781 C-58.9063,-869.47 -65.6188,-848.525 -83.1487,-794.017 C-91.0388,-769.489 -99.8038,-741.865 -102.647,-732.612 C-105.894,-722.013 -110.991,-710.506 -116.425,-701.489 C-121.169,-693.632 -129.783,-678.693 -135.57,-668.313 L-146.068,-649.437 L-138.195,-633.506 C-133.871,-624.741 -128.202,-612.039 -125.594,-605.276 C-121.943,-595.805 -118.898,-591.145 -112.354,-584.987 C-107.677,-580.596 -103.051,-576.996 -102.058,-577.013 C-101.082,-577.013 -88.1621,-581.623 -73.3575,-587.258 C-58.553,-592.894 -35.0844,-601.508 -21.2052,-606.403 L4.02981,-615.303 L39.3588,-617.271 C58.7898,-618.348 83.3855,-619.929 94.001,-620.771 C104.633,-621.612 113.768,-621.763 114.324,-621.107 C115.451,-619.744 155.558,-497.674 166.493,-462.379 L173.592,-439.449 L181.28,-438.389 C185.52,-437.817 209.813,-436.605 235.3,-435.697 C260.771,-434.805 286.191,-433.712 291.776,-433.291 C297.361,-432.871 302.846,-433.073 303.956,-433.762 C305.066,-434.452 310.248,-441.417 315.463,-449.223 L324.952,-463.439 L319.047,-480.262 C311.072,-502.957 293.543,-549.726 279.932,-584.567 C269.418,-611.501 254.041,-651.692 223.625,-731.771 C187.959,-825.679 160.167,-898.591 150.191,-924.398 C141.628,-946.554 122.315,-999.262 116.746,-1015.66 C115.804,-1018.42 106.551,-1018.12 73.0223,-1014.23 L72.9886,-1014.22 Z M80.004,-782.83 C107.443,-714.897 109.226,-710.119 107.628,-709.127 C106.888,-708.672 82.3256,-707.764 53.0362,-707.125 L-0.19285,-705.964 L-0.19285,-709.631 C-0.19285,-711.65 7.86553,-732.78 17.7072,-756.585 C27.5488,-780.39 38.5849,-807.072 42.2019,-815.854 C51.0847,-837.405 53.2044,-840.567 56.5018,-837.27 C57.8981,-835.874 68.4632,-811.379 80.004,-782.813 L80.004,-782.83 Z M303.468,-1008.41 C297.917,-1007.15 270.293,-1001.92 242.063,-996.789 C213.834,-991.658 189.154,-987.099 187.202,-986.644 C184.881,-986.123 181.667,-981.984 177.983,-974.784 L172.314,-963.731 L175.897,-954.158 C177.865,-948.893 192.081,-912.033 207.491,-872.246 C222.901,-832.458 239.556,-789.307 244.503,-776.353 C262.335,-729.668 277.93,-689.544 300.07,-633.354 C322.765,-575.751 327.559,-563.201 358.481,-480.262 C367.801,-455.279 375.893,-434.351 376.465,-433.762 C377.037,-433.173 408.194,-432.164 445.676,-431.508 C486.22,-430.801 504.928,-430.061 513.945,-432.299 C522.945,-434.536 522.256,-439.751 523.955,-450.939 C526.024,-464.499 529.204,-485.528 542.528,-573.631 C549.207,-617.843 564.701,-712.172 575.939,-777.194 C580.027,-800.797 589.196,-856.146 596.329,-900.189 L609.3,-980.285 L603.008,-989.773 C599.408,-995.207 598.129,-997.798 593.856,-998.723 C589.583,-999.649 582.332,-998.892 566.753,-997.596 C556.104,-996.705 530.752,-994.736 510.395,-993.205 L473.384,-990.413 L468.085,-985.416 C464.367,-981.917 462.499,-978.317 461.826,-973.438 C461.305,-969.602 459.303,-954.73 457.385,-940.38 C455.467,-926.03 450.891,-892.72 447.224,-866.358 C438.358,-802.681 427.052,-719.456 425.908,-709.413 C425.387,-704.87 424.209,-701.607 423.217,-701.943 C422.241,-702.263 415.966,-718.766 409.287,-738.601 C396.871,-775.427 343.575,-932.271 330.268,-971.15 C326.213,-982.994 322.058,-995.863 321.015,-999.75 C319.131,-1006.8 316.624,-1011.17 314.622,-1010.89 C314.033,-1010.8 309.02,-1009.71 303.468,-1008.43 L303.468,-1008.41 Z M-216.373,-1002.39 C-279.141,-999.682 -299.127,-997.647 -315.63,-992.246 C-334.237,-986.156 -344.583,-980.436 -365.293,-964.74 C-385.212,-949.65 -387.752,-946.756 -406.325,-917.955 L-421.315,-894.705 L-423.788,-877.579 C-429.02,-841.341 -425.571,-816.073 -409.791,-775.377 C-406.409,-766.662 -403.263,-757.864 -402.775,-755.845 C-402.203,-753.406 -407.402,-740.738 -418.32,-717.992 C-434.386,-684.514 -434.773,-683.437 -436.977,-665.302 C-438.222,-655.124 -439.719,-632.025 -440.325,-613.991 L-441.418,-581.185 L-435.412,-558.474 C-427.657,-529.1 -417.176,-498.97 -408.68,-481.507 C-403.044,-469.932 -400.201,-466.265 -391.588,-459.435 C-376.379,-447.372 -355.081,-434.031 -327.911,-419.58 L-303.854,-406.778 L-274.413,-407.854 C-217.668,-409.924 -133.905,-417.41 -65.888,-426.511 L-44.9429,-429.304 L-36.0266,-437.009 C-31.1141,-441.249 -27.1102,-445.74 -27.1102,-446.985 C-27.1102,-448.23 -22.5679,-467.998 -17.0162,-490.894 C-11.4645,-513.791 -6.92219,-533.794 -6.92219,-535.342 C-6.92219,-536.889 -10.5224,-543.535 -14.9133,-550.112 L-22.9044,-562.074 L-35.6228,-561.182 C-42.6213,-560.694 -56.2482,-559.163 -65.9048,-557.767 C-166.475,-543.249 -222.564,-536.62 -244.972,-536.603 L-256.749,-536.586 L-272.731,-553.04 C-290.294,-571.125 -301.23,-585.997 -302.306,-593.281 C-302.693,-595.872 -303.45,-609.734 -303.972,-624.085 L-304.948,-650.161 L-292.532,-669.508 C-283.38,-683.774 -278.602,-689.612 -274.312,-691.748 C-261.341,-698.242 -241.355,-703.053 -220.562,-704.719 C-208.987,-705.644 -193.846,-706.855 -186.915,-707.411 C-168.628,-708.857 -167.333,-709.295 -162.37,-715.822 C-158.5,-720.903 -157.306,-725.462 -154.009,-747.904 C-151.889,-762.288 -149.651,-779.515 -149.029,-786.194 L-147.885,-798.324 L-156.885,-810.437 L-165.886,-822.55 L-180.186,-822.533 C-188.042,-822.533 -205.084,-821.826 -218.038,-820.985 C-230.992,-820.144 -250.019,-818.932 -260.315,-818.276 L-279.04,-817.082 L-285.13,-826.116 C-291.842,-836.075 -292.599,-841.593 -289.235,-856.129 C-287.367,-864.187 -286.576,-865.146 -275.776,-872.044 C-257.708,-883.601 -238.781,-886.495 -181.33,-886.495 L-136.529,-886.495 L-131.028,-892.535 C-124.467,-899.718 -121.455,-904.782 -121.371,-908.769 C-121.338,-910.384 -117.485,-925.777 -112.825,-942.971 L-104.329,-974.262 L-108.872,-982.119 C-111.378,-986.442 -115.601,-993.189 -118.276,-997.125 L-123.138,-1004.28 L-153.756,-1004.01 C-170.596,-1003.85 -198.759,-1003.11 -216.339,-1002.36 L-216.373,-1002.39 Z M-488.911,-995.005 C-495.388,-993.777 -523.785,-989.622 -551.998,-985.769 L-603.309,-978.771 L-608.508,-973.337 L-613.706,-967.903 L-614.816,-939.404 C-616.869,-886.697 -621.125,-799.922 -621.899,-794.724 L-622.673,-789.576 L-660.088,-782.493 C-705.074,-773.981 -743.767,-767.117 -746.88,-767.083 C-748.68,-767.066 -748.915,-769.573 -748.024,-779.246 C-746.56,-795.027 -737.93,-884.14 -733.522,-928.907 L-730.09,-963.748 L-734.481,-971.234 C-736.903,-975.356 -739.814,-979.511 -740.958,-980.453 C-742.405,-981.665 -752.482,-980.722 -774.1,-977.408 C-800.479,-973.354 -818.025,-970.881 -877.849,-962.789 C-889.575,-961.207 -889.592,-961.157 -891.661,-928.553 C-894.437,-885.082 -900.006,-806.601 -903.252,-765.367 C-905.911,-731.535 -906.382,-728.81 -910.402,-723.309 C-915.029,-716.966 -916.879,-712.542 -931.364,-673.125 C-936.58,-658.943 -940.499,-646.443 -940.062,-645.366 C-939.624,-644.289 -933.888,-635.861 -927.31,-626.675 C-920.21,-616.767 -916.863,-614.007 -915.988,-604.284 C-915.113,-594.543 -916.694,-577.82 -919.487,-539.951 C-927.781,-427.151 -931.684,-377.959 -933.888,-358.259 C-935.267,-346.045 -935.065,-342.916 -932.576,-336.809 C-930.96,-332.873 -928.891,-329.659 -927.966,-329.659 C-927.041,-329.659 -894.117,-340.561 -854.784,-353.902 C-768.262,-383.242 -763.484,-384.924 -762.071,-386.472 C-761.449,-387.145 -759.581,-439.751 -757.916,-503.36 C-756.25,-566.969 -754.467,-619.711 -753.945,-620.535 C-752.314,-623.143 -629.823,-650.329 -627.972,-648.478 C-627.047,-647.553 -632.935,-502.065 -637.141,-421.935 L-638.167,-402.353 L-632.649,-394.177 C-629.604,-389.685 -626.896,-385.715 -626.626,-385.378 C-626.357,-385.025 -605.85,-391.334 -581.052,-399.392 C-556.271,-407.451 -522.81,-418.318 -506.71,-423.534 L-477.437,-433.039 L-478.463,-456.625 C-479.035,-469.596 -480.667,-503.68 -482.097,-532.364 C-485.462,-599.943 -487.632,-664.831 -486.724,-670.971 C-486.286,-673.932 -484.537,-676.489 -482.198,-677.549 C-479.187,-678.929 -475.704,-686.533 -465.543,-714.022 C-458.477,-733.133 -452.69,-749.503 -452.69,-750.394 C-452.69,-751.286 -458.09,-760.084 -464.702,-769.943 L-476.714,-787.86 L-473.887,-811.53 C-472.34,-824.551 -466.838,-867.131 -461.674,-906.161 L-452.286,-977.122 L-458.477,-987.334 C-465.56,-998.976 -466.485,-999.211 -488.827,-994.989 L-488.911,-995.005 Z M123.459,-408.595 C112.355,-407.854 90.7877,-406.475 75.5121,-405.533 C44.6413,-403.632 33.8744,-400.99 -31.316,-379.406 C-76.6885,-364.383 -103.942,-352.606 -110.941,-345.019 C-117.3,-338.122 -153.588,-292.715 -180.556,-257.908 C-190.465,-245.105 -201.753,-230.654 -205.606,-225.792 L-212.638,-216.943 L-213.429,-175.255 L-214.219,-133.567 L-206.615,-118.493 C-181.834,-69.3857 -152.78,-17.1829 -147.818,-12.8256 L-142.333,-8.03098 L-118.781,-9.05721 C-105.827,-9.61238 -81.9711,-10.8237 -65.787,-11.7321 C-49.603,-12.6406 -13.3319,-14.5248 14.7967,-15.9043 C42.9254,-17.2838 66.1247,-18.6297 66.3266,-18.8652 C66.5285,-19.1007 68.3454,-26.8731 70.3474,-36.126 C72.3494,-45.3788 74.6037,-55.7083 75.3776,-59.0898 C77.0431,-66.408 76.9758,-66.5089 66.2761,-73.8607 C61.6497,-77.0403 38.7532,-93.8636 15.3856,-111.259 L-27.0934,-142.887 L-27.0934,-170.864 L-27.0934,-198.841 L-3.96128,-221.889 L19.1708,-244.937 L33.4706,-248.47 C63.3152,-255.822 103.96,-261.222 145.346,-263.308 L165.534,-264.334 L200.257,-245.829 C219.352,-235.651 237.975,-225.439 241.643,-223.134 L248.288,-218.928 L249.264,-181.362 C249.987,-153.805 249.718,-143.055 248.254,-141.019 C247.161,-139.488 235.653,-126.249 222.666,-111.579 C209.678,-96.9087 196.236,-81.4144 192.788,-77.1412 L186.512,-69.3689 L195.042,-50.2239 C199.736,-39.6925 204.749,-29.262 206.196,-27.0414 L208.82,-23.0206 L233.433,-24.1309 C246.976,-24.7366 290.598,-25.9815 330.386,-26.9068 C371.586,-27.8489 389.351,-27.7143 398.621,-29.7499 C407.891,-31.7855 408.681,-36.0082 415.932,-45.6816 L423.082,-55.2204 L425.151,-92.7869 C427.574,-136.83 430.367,-210.365 430.77,-241.219 L431.056,-262.921 L426.009,-267.295 C421.501,-271.198 408.934,-281.057 347.192,-329.104 C327.391,-344.498 268.156,-389.55 265.666,-391.081 C264.724,-391.67 259.374,-392.882 253.789,-393.79 C248.204,-394.682 231.835,-398.82 217.417,-402.959 C191.543,-410.378 190.887,-410.479 167.418,-410.243 C154.346,-410.109 134.562,-409.385 123.459,-408.662 L123.459,-408.595 Z M-303.854,-360.699 C-310.331,-359.504 -346.282,-353.145 -383.765,-346.567 C-421.23,-339.989 -460.008,-333.176 -469.917,-331.426 C-490.391,-327.809 -490.677,-327.674 -497.928,-319.33 L-503.261,-313.189 L-504.91,-241.101 C-505.818,-201.449 -507.315,-140.633 -508.241,-105.926 C-509.166,-71.2363 -510.697,-12.9266 -511.622,23.6136 C-512.564,60.1539 -514.062,117.32 -514.953,150.63 C-515.845,183.94 -517.729,258.501 -519.125,316.34 C-520.522,374.178 -522.826,464.637 -524.24,517.378 C-525.653,570.12 -527.52,642.796 -528.412,678.882 C-529.287,714.968 -530.784,772.504 -531.743,806.74 C-532.685,840.975 -534.233,903.053 -535.158,944.691 C-536.1,986.329 -537.631,1049.92 -538.556,1086.01 C-541.786,1210.65 -543.031,1291.29 -541.887,1302.19 C-541.08,1309.89 -538.354,1318.35 -532.719,1330.79 C-523.365,1351.41 -510.545,1383.16 -501.461,1408.17 C-497.928,1417.9 -490.913,1435.29 -485.849,1446.87 C-480.785,1458.44 -470.927,1481.89 -463.962,1499.02 C-444.867,1545.82 -369.196,1733.3 -368.102,1736.51 C-366.42,1741.43 -351.666,1742 -330.755,1737.96 C-320.576,1735.99 -310.247,1734.01 -307.791,1733.52 C-305.048,1733 -301.516,1730.05 -298.672,1725.95 L-294.029,1719.24 L-291.842,1555.71 C-289.672,1392.63 -287.603,1213.36 -284.49,918.615 C-283.582,833.018 -282.085,712.664 -281.159,651.124 C-280.217,589.584 -278.703,462.787 -277.778,369.333 C-276.853,275.879 -275.338,139.61 -274.396,66.5131 C-273.471,-6.58426 -271.957,-129.109 -271.015,-205.739 L-269.316,-345.087 L-274.8,-354.154 C-281.042,-364.484 -282.085,-364.719 -303.837,-360.682 L-303.854,-360.699 Z M385.061,7.88388 C382.74,8.20352 358.514,9.98679 331.227,11.8205 C287.234,14.7983 263.277,16.5311 168.882,23.6473 C155.928,24.6231 133.603,26.4905 119.253,27.7859 C104.903,29.0813 86.3632,30.6122 78.0356,31.201 C69.7081,31.773 49.6379,33.2871 33.4538,34.5657 C17.2698,35.8443 -2.80046,37.3247 -11.128,37.8631 C-19.4556,38.4014 -46.7094,40.3024 -71.692,42.0857 C-96.6747,43.8858 -129.598,46.157 -144.874,47.1327 C-172.077,48.8823 -184.593,49.4712 -191.693,51.3217 C-198.792,53.1723 -200.458,56.2846 -205.993,63.0644 L-213.429,72.1995 L-214.202,137.491 L-214.976,202.782 L-210.047,211.614 C-207.339,216.476 -204.495,220.447 -203.722,220.447 C-202.948,220.447 -177.09,217.385 -146.27,213.633 C-70.363,204.414 -45.3971,201.621 -44.7747,202.244 C-44.4887,202.53 -43.7148,210.42 -43.0587,219.757 L-41.8642,236.748 L-61.8335,248.188 C-72.8192,254.48 -91.6445,265.449 -103.673,272.565 C-133.45,290.179 -189.354,322.598 -199.213,327.948 C-203.637,330.354 -210.081,335.199 -213.513,338.698 L-219.754,345.091 L-220.192,427.02 L-220.629,508.95 L-214.303,516.066 C-206.767,524.528 -169.839,542.63 -165.179,540.124 C-161.815,538.324 -100.393,486.457 -55.8949,447.848 C-37.0359,431.479 -14.3244,411.795 -5.4249,404.124 C3.47464,396.436 18.1278,383.751 27.1451,375.945 C36.1624,368.139 44.3553,361.729 45.3479,361.729 C46.3405,361.729 51.0678,365.077 55.8625,369.148 C89.7615,398 163.801,457 171.405,461.205 L180.658,466.32 L225.24,466.572 C262.15,466.774 275.171,466.168 300.945,463.056 L332.068,459.288 L338.797,452.054 C342.498,448.066 357.32,431.613 371.754,415.463 C386.172,399.329 404.341,379.023 412.13,370.359 C419.919,361.695 429.105,351.366 432.571,347.412 L438.846,340.229 L438.93,203.64 L439.014,67.0515 L421.905,36.9041 L404.795,6.75671 L397.023,7.00906 C392.75,7.14365 387.366,7.53059 385.045,7.85023 L385.061,7.88388 Z M283.078,224.131 L284.256,285.015 L278.233,293.763 C273.321,300.896 271.134,304.361 266.676,306.111 C262.217,307.861 255.488,307.878 241.508,308.147 L216.542,308.618 L201.973,296.101 C193.948,289.22 174.08,272.481 157.778,258.905 L128.169,234.225 L125.999,207.964 C124.805,193.529 124.216,181.316 124.687,180.845 C126.335,179.196 258.617,164.139 277.56,163.432 L281.918,163.264 L283.095,224.148 L283.078,224.131 Z M98.2236,501.346 C92.6719,502.086 82.4434,503.23 75.5121,503.903 C63.8536,505.03 25.917,517.95 -32.9983,540.881 C-38.55,543.034 -54.078,549.074 -67.4862,554.272 C-89.5416,562.835 -92.6539,564.551 -99.9047,572.256 C-108.115,580.971 -127.562,606.138 -188.9,687.479 L-223.674,733.592 L-224.868,744.763 C-225.525,750.903 -225.575,763.201 -224.969,772.084 C-223.338,796.04 -219.014,870.769 -217.769,896.475 C-216.995,912.474 -215.986,919.607 -214.287,921.307 C-212.974,922.619 -211.174,926.303 -210.299,929.466 C-209.458,932.528 -209.038,934.059 -200.542,940.586 C-192.046,947.114 -175.492,958.621 -142.35,981.652 C-100.695,1010.6 -79.5822,1024.62 -77.6138,1024.62 C-76.6213,1024.62 -71.4733,1026.79 -66.174,1029.43 C-53.8929,1035.55 -53.0181,1035.76 -19.2369,1039.76 C29.433,1045.53 74.8392,1047.46 105.306,1045.08 C137.826,1042.52 142.671,1041.71 189.07,1031.15 C237.083,1020.21 247.951,1017.1 288.193,1002.82 C314.202,993.58 326.701,989.256 335.449,984.159 C344.198,979.061 349.177,973.173 360.163,960.791 C389.991,927.212 437.668,874.622 461.439,849.084 L483.141,825.767 L481.156,796.932 C478.767,762.091 476.681,736.014 472.492,688.186 C470.743,668.284 468.825,645.404 468.202,637.329 L467.092,622.642 L456.779,613.692 C444.448,602.976 388.477,556.981 355.637,530.568 C335.702,514.535 330.941,511.473 324.514,510.548 C320.342,509.943 315.026,508.445 312.721,507.2 C310.399,505.972 298.674,504.122 286.645,503.095 C260.249,500.841 112.423,499.529 98.2236,501.413 L98.2236,501.346 Z M260.115,678.31 C278.957,687.412 295.006,694.865 295.78,694.865 C299.532,694.865 301.029,701.392 302.543,724.44 C303.451,738.252 304.696,755.614 305.319,763.05 L306.429,776.559 L274.667,806.151 C252.241,827.045 242.534,836.5 234.308,841.917 C226.064,847.334 219.301,848.697 202.781,853.408 C159.898,865.638 90.2662,879.921 73.5607,879.921 C67.0668,879.921 18.5147,870.702 1.4895,866.227 C-12.3056,862.61 -28.6411,856.469 -40.7875,850.346 C-47.8197,846.796 -48.6777,845.719 -49.6198,839.192 C-52.6985,817.944 -53.792,797.823 -52.8667,779.486 L-51.8236,758.961 L-19.0181,727.334 C1.89326,707.162 15.9744,694.881 19.8438,693.435 C23.1748,692.19 48.9986,684.098 77.2113,675.467 L128.522,659.771 L177.192,660.764 L225.862,661.756 L260.131,678.31 L260.115,678.31 Z M343.003,1033.94 C296.806,1043.68 217.871,1066.05 209.325,1071.84 C206.011,1074.08 195.984,1084.61 187.034,1095.26 C178.084,1105.91 165.753,1120.29 159.612,1127.22 C153.471,1134.16 142.789,1146.71 135.874,1155.08 C114.66,1180.76 44.0862,1263.06 23.4439,1286.2 C12.7106,1298.23 0.278203,1312.43 -4.21363,1317.75 L-12.3561,1327.42 L-27.7158,1327.41 C-47.7188,1327.39 -55.3566,1326.06 -56.5174,1322.43 C-57.0221,1320.84 -56.6856,1301.21 -55.7603,1278.84 C-54.0948,1238.21 -54.078,1238.12 -49.4179,1231.6 C-46.844,1228 -32.2077,1208.9 -16.8984,1189.17 L10.9442,1153.28 L4.11392,1133.28 C-0.815317,1118.83 -3.64164,1112.91 -6.0642,1111.93 C-11.0775,1109.91 -130.136,1092.47 -160.115,1089.37 L-171.168,1088.23 L-182.356,1100.73 C-193.88,1113.61 -196.101,1118.11 -210.384,1157.52 C-212.89,1164.45 -220.107,1183.77 -226.416,1200.42 L-237.873,1230.7 L-236.847,1268.56 C-235.03,1335.55 -228.267,1399.38 -221.588,1412.56 C-217.147,1421.33 -189.893,1447.68 -147.565,1484.11 C-135.234,1494.73 -129.346,1499.86 -124.517,1502.91 C-119.689,1505.95 -115.921,1506.94 -107.829,1509.25 C-94.5381,1513.03 -91.0893,1513.3 -59.0409,1512.97 C-9.5971,1512.45 5.5439,1510.39 50.866,1497.99 C64.6443,1494.23 75.5963,1490.1 81.148,1486.59 C85.9258,1483.56 91.0905,1480.63 92.6215,1480.08 C94.1524,1479.52 100.158,1472.78 105.979,1465.07 C111.8,1457.37 125.393,1439.72 136.177,1425.84 C154.784,1401.92 164.928,1388.66 218.527,1318.12 C231.01,1301.68 246.925,1280.97 253.89,1272.07 C260.855,1263.19 271.74,1248.72 278.082,1239.94 C292.062,1220.58 292.516,1220.19 300.491,1220.69 C303.99,1220.91 310.349,1221.17 314.622,1221.27 C319.198,1221.37 321.385,1221.1 322.781,1225.3 C324.178,1229.51 324.8,1238.19 326.23,1256.19 C327.189,1268.09 328.333,1279.48 328.771,1281.51 C329.511,1284.88 319.72,1300.34 279.663,1359.07 C278.082,1361.39 279.091,1365.12 284.963,1378.75 L292.213,1395.57 L378.601,1395.62 L464.989,1395.67 L487.701,1384.1 C500.184,1377.74 510.547,1372.39 510.732,1372.24 C511.573,1371.47 495.507,1198.72 491.082,1160.77 C490.157,1152.85 489.4,1143.14 489.4,1139.2 C489.4,1129.76 487.785,1127.14 476.16,1117.6 C470.759,1113.18 457.721,1101.96 447.173,1092.65 C436.625,1083.35 421.568,1070.48 413.695,1064.05 C405.838,1057.63 393.439,1047.25 386.155,1041 C378.467,1034.41 374.799,1031.13 369.517,1030.27 C364.217,1029.4 357.286,1030.94 343.037,1033.94 L343.003,1033.94 Z M362.35,1458.8 C359.574,1459.65 339.891,1464.89 318.609,1470.45 C229.833,1493.64 224.651,1495.2 221.034,1500.06 C219.183,1502.54 209.46,1515.25 199.433,1528.29 C181.634,1551.46 127.278,1622.69 112.877,1641.73 C108.906,1646.98 96.3562,1663.38 84.9837,1678.19 C73.6111,1692.99 50.3613,1723.59 33.3192,1746.17 C16.2772,1768.77 -1.47142,1792.23 -6.11466,1798.32 L-14.56,1809.41 L-35.1181,1809.38 C-52.4966,1809.36 -56.1304,1808.89 -58.6371,1806.38 C-61.2952,1803.72 -61.6653,1798.9 -62.1364,1761.38 L-62.6579,1719.34 L-51.2012,1701.59 C-44.8924,1691.83 -30.8954,1670.52 -20.0949,1654.22 L-0.462024,1624.59 L-5.18938,1611.85 C-14.745,1586.18 -16.276,1583.69 -23.3081,1582.65 C-87.405,1573.19 -128.101,1567.09 -154.126,1563 L-186.091,1557.99 L-202.493,1574.35 L-218.896,1590.72 L-221.437,1605.01 C-227.964,1641.65 -241.238,1739.16 -244.888,1777.43 C-246.301,1792.23 -248.202,1810.2 -249.111,1817.37 L-250.76,1830.39 L-234.828,1885.5 C-219.317,1939.15 -212.47,1963.5 -207.995,1975.93 C-203.536,1988.36 -201.467,1988.88 -195.579,1994.9 L-185.233,2005.44 L-61.8672,2005.37 L61.4983,2005.3 L66.6799,1999.87 C69.5399,1996.89 85.6061,1976.65 102.413,1954.9 C119.219,1933.15 139.222,1907.42 146.86,1897.7 C154.515,1887.98 169.218,1869.05 179.548,1855.64 C189.877,1842.23 212.404,1813.08 229.614,1790.87 C246.824,1768.66 270.04,1738.38 281.228,1723.58 C292.415,1708.77 304.915,1692.69 309.037,1687.83 L316.523,1679 L332.152,1679 L347.781,1679 L348.673,1691.19 C351.718,1733.02 353.299,1752.78 352.862,1763.62 C352.441,1774.47 350.018,1776.39 345.089,1782.54 C338.124,1791.24 291.827,1851.77 278.671,1869.4 C276.13,1872.82 274.027,1876.6 274.027,1877.81 C273.994,1881.63 289.74,1925.39 291.608,1926.69 C292.584,1927.36 340.059,1927.93 397.107,1927.95 L500.823,1927.98 L510.782,1918.31 C516.25,1912.99 530.028,1899.55 541.384,1888.45 L562.043,1868.26 L560.949,1849.75 C560.344,1839.57 557.635,1800.21 554.91,1762.27 C552.184,1724.33 548.971,1677.33 547.76,1657.82 L545.556,1622.34 L521.129,1590.52 C507.687,1573.03 482.94,1540.39 466.116,1518 C440.73,1484.18 434.606,1477.02 430.081,1475.72 C427.086,1474.86 414.149,1470.29 401.346,1465.56 C378.08,1456.94 371.872,1455.87 362.384,1458.78 L362.35,1458.8 Z " fill="#fefefe" fill-opacity="1.00" />				<path d="M-156.852,-2017.57 C-158.349,-2017.25 -161.949,-2014.04 -164.843,-2010.44 C-170.024,-2003.99 -170.108,-2003.59 -170.209,-1984.86 C-170.26,-1974.4 -171.32,-1941.24 -172.548,-1911.16 L-174.785,-1856.49 L-170.529,-1850.14 C-168.191,-1846.66 -164.675,-1843.45 -162.723,-1843.03 C-160.772,-1842.61 -142.535,-1841.09 -122.179,-1839.66 C-47.0963,-1834.43 77.6824,-1824.86 114.172,-1821.53 L136.867,-1819.46 L138.078,-1811.05 C139.407,-1801.91 142.318,-1755.12 143.748,-1720.2 C144.925,-1691.3 145.363,-1688.99 150.797,-1683.05 L155.423,-1677.99 L237.841,-1678.06 L320.258,-1678.12 L321.284,-1827.85 C321.856,-1910.2 321.705,-1979.19 320.981,-1981.18 C320.174,-1983.35 316.759,-1985.81 312.385,-1987.37 C304.932,-1990.03 239.472,-2002.8 185.671,-2012.08 C169.016,-2014.96 153.741,-2017.72 151.722,-2018.21 C149.047,-2018.86 146.002,-2017.2 140.366,-2012 L132.678,-2004.9 L132.678,-1978.02 C132.678,-1953.39 132.442,-1951.23 129.818,-1952.23 C126.302,-1953.57 96.289,-1960.81 56.9729,-1969.77 C40.7888,-1973.47 6.70477,-1981.42 -18.7321,-1987.45 C-56.736,-1996.46 -120.799,-2010.99 -148.272,-2016.86 C-151.502,-2017.55 -155.388,-2017.85 -156.885,-2017.53 L-156.852,-2017.57 Z " fill="#000000" fill-opacity="1.00" stroke-width="0.19" stroke="#000000" stroke-linecap="square" stroke-linejoin="miter" />				<path d="M-305.536,-1973.19 C-397.341,-1933.49 -420.423,-1922.77 -423.165,-1918.6 C-425.066,-1915.69 -425.958,-1901.05 -427.388,-1848.63 C-431.594,-1694.43 -434.252,-1596.75 -435.85,-1536.73 C-436.792,-1501.57 -438.373,-1442.89 -439.349,-1406.35 C-443.891,-1238.06 -443.942,-1234.04 -441.755,-1230.86 C-440.594,-1229.18 -440.022,-1226.42 -440.459,-1224.71 C-441.25,-1221.68 -433.024,-1215.45 -411.523,-1202.8 C-407.822,-1200.63 -396.837,-1193.8 -387.129,-1187.63 C-311.34,-1139.48 -285.853,-1123.72 -283.834,-1123.72 C-280.604,-1123.72 -262.418,-1133.37 -259.07,-1136.85 C-255.992,-1140.07 -253.788,-1201.46 -244.148,-1552.71 C-243.189,-1587.4 -241.675,-1637.75 -240.783,-1664.59 C-239.875,-1691.42 -238.361,-1737.97 -237.402,-1768.05 C-236.443,-1798.13 -234.878,-1842.41 -233.936,-1866.47 C-232.994,-1890.52 -231.833,-1927.23 -231.379,-1948.06 L-230.538,-1985.91 L-235.248,-1992.51 C-237.839,-1996.14 -240.716,-1999.32 -241.641,-1999.61 C-242.567,-1999.87 -271.334,-1988 -305.57,-1973.19 L-305.536,-1973.19 Z " fill="#000000" fill-opacity="1.00" stroke-width="0.19" stroke="#000000" stroke-linecap="square" stroke-linejoin="miter" />				<path d="M-116.56,-1778.68 L-171.522,-1778.21 L-176.703,-1771.17 L-181.885,-1764.14 L-181.818,-1717.79 L-181.75,-1671.45 L-177.679,-1666.47 L-173.608,-1661.49 L-142.821,-1661.42 L-112.034,-1661.35 L-111.58,-1634.28 L-111.126,-1607.21 L-141.744,-1606.1 C-174.045,-1604.93 -177.528,-1604.08 -182.491,-1596.14 C-184.307,-1593.23 -185.064,-1580.46 -185.838,-1539.38 L-186.831,-1486.39 L-182.76,-1481.76 L-178.688,-1477.14 L-94.9083,-1476.33 C-48.8291,-1475.89 63.9376,-1475.05 155.692,-1474.46 L322.512,-1473.4 L330.419,-1480.69 L338.326,-1487.97 L337.199,-1503.14 C336.577,-1511.49 335.012,-1527.79 333.7,-1539.35 C332.388,-1550.92 330.184,-1572.49 328.787,-1587.3 C325.759,-1619.28 324.716,-1621.11 310.248,-1619.39 C305.588,-1618.84 267.719,-1617.64 226.081,-1616.72 C184.443,-1615.79 121.389,-1614.26 85.9594,-1613.3 C50.5295,-1612.34 20.8195,-1612.01 19.9278,-1612.56 C19.0194,-1613.14 18.3128,-1624.05 18.3128,-1637.68 C18.3128,-1651.68 17.9763,-1658.21 20.197,-1661.25 C22.4177,-1664.3 27.1787,-1663.84 37.3736,-1663.84 C44.9273,-1663.84 58.5205,-1664.35 67.5547,-1664.93 L84.0079,-1666.03 L89.0885,-1672.93 L94.1692,-1679.82 L93.6645,-1724.72 L93.1598,-1769.63 L88.2137,-1774.77 L83.2677,-1779.92 L10.8264,-1779.52 C-29.0112,-1779.3 -86.362,-1778.91 -116.594,-1778.66 L-116.56,-1778.68 Z " fill="#000000" fill-opacity="1.00" stroke-width="0.19" stroke="#000000" stroke-linecap="square" stroke-linejoin="miter" />				<path d="M322.815,-1425.62 C321.419,-1425.31 293.425,-1424.25 260.569,-1423.24 C227.713,-1422.23 183.434,-1420.7 162.152,-1419.81 C140.871,-1418.94 99.62,-1417.44 70.4652,-1416.48 C41.3103,-1415.52 -4.48277,-1413.94 -31.316,-1412.96 C-58.1492,-1411.99 -102.479,-1410.64 -129.817,-1409.97 C-177.898,-1408.79 -179.698,-1408.62 -184.913,-1404.92 C-189.708,-1401.51 -191.726,-1403.16 -193.577,-1386.42 C-195.428,-1369.66 -197.127,-1334.5 -201.248,-1257.48 C-202.678,-1230.65 -204.613,-1191.67 -205.522,-1170.84 C-206.43,-1150.02 -207.911,-1120.12 -208.802,-1104.39 L-210.434,-1075.79 L-201.198,-1066.69 L-191.962,-1057.59 L-180.623,-1059.51 C-164.254,-1062.27 -79.0774,-1073.27 -74.0473,-1073.27 C-73.1388,-1073.27 -69.7741,-1076.11 -66.5945,-1079.58 L-60.8073,-1085.89 L-60.8073,-1102.71 C-60.8241,-1128.4 -55.5416,-1280.92 -54.5995,-1281.88 C-54.1453,-1282.35 -41.7969,-1282.95 -27.1438,-1283.26 L-0.512468,-1283.79 L0.480108,-1273.16 C2.01103,-1256.69 6.51968,-1137.25 6.51968,-1113.14 C6.51968,-1090.11 7.59638,-1085.92 15.5202,-1078.53 C19.4905,-1074.82 21.0214,-1074.56 37.1382,-1074.82 C46.677,-1074.97 71.8783,-1076.19 93.1598,-1077.54 C114.441,-1078.89 133.62,-1080 135.79,-1080 C138.179,-1080 141.813,-1082.37 145.043,-1086.02 L150.359,-1092.03 L151.2,-1189.9 L152.042,-1287.78 L178.05,-1289.03 C192.35,-1289.72 204.581,-1289.72 205.203,-1289.03 C206.482,-1287.63 213.413,-1170.93 214.961,-1124.6 L215.97,-1094.31 L221.539,-1087.4 L227.107,-1080.48 L261.074,-1079.37 C279.764,-1078.77 309.306,-1078.16 326.735,-1078.05 L358.413,-1077.83 L364.402,-1083.82 C370.324,-1089.74 370.392,-1089.99 370.122,-1102.99 C369.971,-1110.25 369.096,-1128.3 368.188,-1143.1 C367.262,-1157.91 364.974,-1197.27 363.09,-1230.58 C361.206,-1263.89 358.582,-1307.04 357.253,-1326.48 C355.923,-1345.91 354.006,-1374.3 352.996,-1389.56 C351.179,-1417.12 351.129,-1417.36 346.2,-1421.95 C342.145,-1425.73 339.807,-1426.54 333.279,-1426.37 C328.905,-1426.27 324.178,-1425.94 322.798,-1425.63 L322.815,-1425.62 Z " fill="#000000" fill-opacity="1.00" stroke-width="0.19" stroke="#000000" stroke-linecap="square" stroke-linejoin="miter" />				<path d="M452.422,-1182.69 C450.353,-1180.62 440.663,-1166.69 430.888,-1151.75 L413.14,-1124.6 L415.007,-1116.18 C421.77,-1085.67 425.067,-1070.64 427.658,-1062.38 C430.232,-1054.12 432.083,-1052.61 435.935,-1049.14 L443.102,-1042.68 L459.925,-1043.66 C469.178,-1044.2 500.217,-1045.41 528.901,-1046.37 C630.8,-1049.77 802.045,-1056.04 842.555,-1057.87 L866.848,-1058.97 L875.966,-1070.74 C880.98,-1077.22 887.019,-1085.4 889.375,-1088.9 L893.665,-1095.27 L887.087,-1102.1 C883.47,-1105.85 863.568,-1124.11 842.858,-1142.66 C810.725,-1171.47 804.198,-1176.6 798.276,-1177.67 C787.021,-1179.74 750.145,-1180.94 645.823,-1182.64 C591.703,-1183.51 526.882,-1184.74 501.799,-1185.34 L456.191,-1186.45 L452.422,-1182.69 Z " fill="#000000" fill-opacity="1.00" stroke-width="0.19" stroke="#000000" stroke-linecap="square" stroke-linejoin="miter" />				<path d="M-634.432,-1177.49 C-663.587,-1176.83 -733.606,-1175.39 -790.048,-1174.31 C-935.856,-1171.5 -1011.11,-1169.46 -1013.06,-1168.25 C-1014.82,-1167.16 -1036.51,-1124.78 -1036.51,-1122.43 C-1036.51,-1121.69 -1031.03,-1118.15 -1024.31,-1114.57 C-1017.6,-1110.99 -999.246,-1101.09 -983.517,-1092.56 C-967.787,-1084.03 -933.333,-1065.88 -906.97,-1052.22 L-859.024,-1027.39 L-716.867,-1028.47 C-638.672,-1029.06 -521.481,-1030.03 -456.408,-1030.65 L-338.106,-1031.76 L-332.302,-1043.31 C-324.059,-1059.67 -319.937,-1070.73 -321.249,-1072.86 C-321.872,-1073.87 -335.633,-1081.85 -351.817,-1090.58 C-368.001,-1099.31 -386.154,-1109.12 -392.176,-1112.37 C-412.718,-1123.49 -453.548,-1145.15 -477.134,-1157.47 C-490.088,-1164.23 -504.321,-1171.9 -508.745,-1174.51 L-516.804,-1179.27 L-549.121,-1179 C-566.887,-1178.85 -605.278,-1178.18 -634.432,-1177.52 L-634.432,-1177.49 Z " fill="#000000" fill-opacity="1.00" stroke-width="0.19" stroke="#000000" stroke-linecap="square" stroke-linejoin="miter" />				<path d="M-1127.59,-1074.51 C-1131.29,-1073.59 -1136.98,-1072.17 -1140.21,-1071.4 C-1149.68,-1069.13 -1153.21,-1060.33 -1155.33,-1033.73 C-1160.53,-968.896 -1162.4,-946.167 -1165.43,-911.764 C-1167.24,-890.936 -1171.41,-841.358 -1174.68,-801.571 C-1180.11,-735.287 -1184.28,-686.365 -1188.99,-633.337 C-1192.36,-595.502 -1197.36,-535.762 -1197.37,-533.02 C-1197.39,-531.354 -1193.57,-528.293 -1187.72,-525.298 C-1068.79,-464.162 -1012.32,-435.68 -1010.03,-435.68 C-1007.24,-435.68 -1005.94,-435.091 -1004.06,-448.399 C-1002.19,-461.706 -999.732,-488.943 -994.685,-544.577 C-991.506,-579.536 -986.98,-630.831 -984.608,-658.589 C-982.236,-686.348 -978.013,-735.556 -975.221,-767.941 C-969.989,-828.505 -967.936,-853.689 -961.678,-933.869 C-958.347,-976.618 -958.297,-992.314 -961.476,-996.738 C-962.149,-997.663 -973.673,-1003.89 -987.081,-1010.55 C-1000.51,-1017.23 -1027.74,-1031.11 -1047.65,-1041.39 C-1108.33,-1072.76 -1116.2,-1076.65 -1118.56,-1076.43 C-1119.8,-1076.31 -1123.85,-1075.45 -1127.56,-1074.53 L-1127.59,-1074.51 Z " fill="#000000" fill-opacity="1.00" stroke-width="0.19" stroke="#000000" stroke-linecap="square" stroke-linejoin="miter" />				<path d="M1005.09,-1053.74 C996.765,-1050.49 983.138,-1045.29 974.811,-1042.19 C966.483,-1039.1 945.824,-1031.19 928.9,-1024.63 C911.976,-1018.07 897.087,-1012.7 895.808,-1012.7 C892.511,-1012.7 882.77,-999.851 882.686,-995.409 C882.653,-993.357 884.301,-975.019 886.354,-954.663 C889.466,-923.775 891.064,-910.199 890.879,-901.047 C890.694,-891.895 888.743,-887.151 884.772,-873.911 C880.836,-860.806 875.805,-847.751 873.417,-844.47 C871.061,-841.24 860.866,-830.406 850.756,-820.43 L832.368,-802.277 L819.817,-802.765 L807.267,-803.253 L799.949,-819.235 C788.492,-844.252 787.449,-848.441 789.064,-862.976 C789.838,-869.907 795.104,-898.726 800.79,-927.006 L811.12,-978.418 L803.146,-990.749 L795.171,-1003.08 L780.686,-1002.04 C772.712,-1001.47 746.888,-999.834 723.302,-998.404 C696.25,-996.772 683.246,-996.049 676.331,-994.77 C669.417,-993.491 668.576,-991.658 665.833,-987.788 C661.291,-981.362 660.887,-979.764 639.068,-881.953 L632.607,-852.983 L635.097,-837.371 C642.129,-793.294 650.188,-762.827 662.671,-732.948 L668.155,-719.843 L695.779,-696.778 C715.109,-680.645 725.287,-673.276 729.661,-672.233 C733.093,-671.425 748.402,-667.708 763.678,-664.006 C801.194,-654.871 807.553,-655.023 865.19,-666.261 C877.034,-668.566 900.216,-684.245 938.893,-716.108 C945.976,-721.929 952.503,-726.707 953.395,-726.707 C954.303,-726.707 955.481,-724.621 956.036,-722.081 C967.409,-668.852 981.523,-594.072 980.43,-592.961 C979.269,-591.801 720.072,-597.436 663.344,-599.876 L637.856,-600.969 L631.093,-594.442 C624.414,-587.999 624.229,-587.477 615.734,-551.744 C611.006,-531.842 603.368,-500.013 598.759,-480.985 L590.381,-446.397 L595.63,-436.69 C598.523,-431.357 601.737,-426.73 602.796,-426.394 C603.839,-426.074 716.522,-424.863 853.178,-423.719 C1064.92,-421.935 1102.06,-421.969 1104.45,-423.954 C1106,-425.233 1118.25,-439.011 1131.69,-454.573 L1156.12,-482.87 L1154.3,-491.651 C1150.14,-511.722 1135.05,-580.142 1127.87,-611.467 C1112.71,-677.566 1106.44,-705.341 1084.2,-804.935 C1071.8,-860.452 1058.94,-917.231 1055.63,-931.11 C1045.55,-973.387 1041.57,-990.396 1034.33,-1021.96 C1026.42,-1056.43 1025.35,-1059.84 1022.37,-1059.72 C1021.19,-1059.67 1013.42,-1056.98 1005.09,-1053.74 L1005.09,-1053.74 Z " fill="#000000" fill-opacity="1.00" stroke-width="0.19" stroke="#000000" stroke-linecap="square" stroke-linejoin="miter" />				<path d="M72.9887,-1014.22 C-4.01172,-1005.3 -12.8103,-1004.04 -15.5189,-1001.6 C-17.0498,-1000.22 -19.5228,-994.72 -21.0201,-989.386 C-22.5174,-984.054 -26.3026,-971.789 -29.415,-962.133 C-32.5441,-952.476 -39.7781,-929.815 -45.4981,-911.78 C-58.9063,-869.47 -65.6188,-848.525 -83.1487,-794.017 C-91.0388,-769.489 -99.8038,-741.865 -102.647,-732.612 C-105.894,-722.013 -110.991,-710.506 -116.425,-701.489 C-121.169,-693.632 -129.783,-678.693 -135.57,-668.313 L-146.068,-649.437 L-138.195,-633.506 C-133.871,-624.741 -128.202,-612.039 -125.594,-605.276 C-121.943,-595.805 -118.898,-591.145 -112.354,-584.987 C-107.677,-580.596 -103.051,-576.996 -102.058,-577.013 C-101.082,-577.013 -88.162,-581.623 -73.3575,-587.258 C-5.71088,-612.981 1.77551,-615.168 26.7413,-616.481 C39.2242,-617.137 63.8368,-618.701 81.4172,-619.946 C98.9975,-621.191 113.819,-621.696 114.357,-621.056 C115.468,-619.744 155.675,-497.355 166.493,-462.379 L173.592,-439.449 L181.196,-438.406 C185.369,-437.834 209.308,-436.622 234.375,-435.714 C259.442,-434.805 284.912,-433.729 290.985,-433.325 C297.059,-432.921 302.913,-433.123 304.007,-433.796 C305.1,-434.469 310.248,-441.417 315.463,-449.24 L324.952,-463.455 L319.047,-480.279 C311.072,-502.973 293.543,-549.742 279.932,-584.583 C269.418,-611.518 254.041,-651.709 223.625,-731.788 C187.959,-825.695 160.167,-898.608 150.191,-924.415 C141.628,-946.571 122.315,-999.279 116.746,-1015.68 C115.804,-1018.44 106.551,-1018.14 73.0223,-1014.25 L72.9887,-1014.22 Z M80.0041,-782.83 C107.443,-714.897 109.226,-710.119 107.628,-709.126 C106.888,-708.672 82.3257,-707.764 53.0363,-707.125 L-0.192748,-705.964 L-0.192748,-709.631 C-0.192748,-711.65 7.86563,-732.78 17.7073,-756.585 C27.5489,-780.39 38.585,-807.072 42.2021,-815.854 C51.0848,-837.404 53.2045,-840.567 56.5019,-837.27 C57.8982,-835.874 68.4633,-811.379 80.0041,-782.813 L80.0041,-782.83 Z " fill="#000000" fill-opacity="1.00" stroke-width="0.19" stroke="#000000" stroke-linecap="square" stroke-linejoin="miter" />				<path d="M315.336,-1008.41 C309.784,-1007.15 282.161,-1001.92 253.931,-996.789 C225.701,-991.658 201.022,-987.098 199.07,-986.644 C196.748,-986.123 193.535,-981.984 189.851,-974.784 L184.181,-963.731 L187.765,-954.158 C189.733,-948.893 203.949,-912.033 219.359,-872.246 C234.769,-832.458 251.424,-789.307 256.37,-776.353 C274.203,-729.668 289.798,-689.544 311.938,-633.354 C334.633,-575.751 339.427,-563.201 370.348,-480.262 C379.669,-455.279 387.761,-434.351 388.333,-433.762 C388.905,-433.173 420.061,-432.164 457.544,-431.508 C497.953,-430.801 516.678,-430.112 525.712,-432.248 C534.746,-434.402 534.09,-439.398 535.722,-450.098 C538.498,-468.301 547.212,-525.853 554.413,-573.615 C561.024,-617.523 576.434,-711.465 587.807,-777.177 C591.895,-800.78 601.064,-856.129 608.197,-900.172 L621.167,-980.268 L614.876,-989.757 C611.275,-995.19 609.997,-997.781 605.724,-998.707 C601.451,-999.632 594.2,-998.875 578.621,-997.579 C567.972,-996.688 542.619,-994.719 522.263,-993.189 L485.252,-990.396 L479.952,-985.399 C476.235,-981.9 474.367,-978.3 473.694,-973.421 C473.173,-969.585 471.171,-954.714 469.253,-940.363 C467.335,-926.013 462.759,-892.703 459.092,-866.341 C450.226,-802.664 438.92,-719.439 437.776,-709.396 C437.255,-704.853 436.077,-701.59 435.085,-701.926 C434.109,-702.246 427.834,-718.75 421.155,-738.584 C408.739,-775.41 355.443,-932.254 342.136,-971.133 C338.081,-982.977 333.926,-995.847 332.883,-999.733 C330.999,-1006.78 328.492,-1011.16 326.49,-1010.87 C325.901,-1010.79 320.888,-1009.69 315.336,-1008.41 Z " fill="#000000" fill-opacity="1.00" stroke-width="0.19" stroke="#000000" stroke-linecap="square" stroke-linejoin="miter" />				<path d="M-229.923,-1002.36 C-323.259,-998.488 -337.34,-994.905 -377.161,-964.74 C-397.079,-949.65 -399.62,-946.756 -418.193,-917.955 L-433.182,-894.705 L-435.655,-877.579 C-440.887,-841.341 -437.439,-816.072 -421.658,-775.377 C-418.277,-766.662 -415.131,-757.864 -414.643,-755.845 C-414.071,-753.406 -419.269,-740.738 -430.188,-717.992 C-446.254,-684.514 -446.641,-683.437 -448.845,-665.302 C-450.09,-655.124 -451.587,-632.025 -452.193,-613.991 L-453.286,-581.185 L-447.28,-558.474 C-439.525,-529.1 -429.044,-498.969 -420.548,-481.507 C-414.912,-469.932 -412.069,-466.265 -403.455,-459.435 C-388.247,-447.372 -366.949,-434.031 -339.779,-419.58 L-315.722,-406.778 L-286.281,-407.854 C-229.519,-409.924 -145.789,-417.41 -77.7221,-426.511 C-56.9117,-429.287 -56.6761,-429.371 -48.4159,-436.589 L-40.1051,-443.873 L-31.0374,-481.406 C-26.0408,-502.048 -21.1453,-523.111 -20.1527,-528.225 L-18.3526,-537.512 L-26.5624,-549.793 L-34.7722,-562.074 L-47.4906,-561.182 C-54.4891,-560.694 -68.116,-559.163 -77.7726,-557.767 C-178.342,-543.248 -234.431,-536.62 -256.84,-536.603 L-268.616,-536.586 L-284.599,-553.04 C-307.966,-577.08 -312.593,-584.634 -314.78,-602.164 C-315.755,-610.003 -316.546,-624.017 -316.546,-633.287 L-316.529,-650.161 L-304.248,-669.508 C-295.13,-683.875 -290.47,-689.595 -286.18,-691.748 C-273.209,-698.242 -253.223,-703.053 -232.429,-704.719 C-220.855,-705.644 -205.714,-706.855 -198.783,-707.411 C-180.496,-708.857 -179.2,-709.295 -174.238,-715.822 C-170.368,-720.903 -169.174,-725.462 -165.876,-747.904 C-163.757,-762.288 -161.519,-779.515 -160.897,-786.194 L-159.753,-798.324 L-168.753,-810.437 L-177.754,-822.549 L-192.053,-822.533 C-199.91,-822.533 -216.952,-821.826 -229.906,-820.985 C-242.86,-820.144 -261.887,-818.932 -272.183,-818.276 L-290.907,-817.082 L-296.997,-826.116 C-303.71,-836.075 -304.467,-841.593 -301.102,-856.129 C-299.235,-864.187 -298.444,-865.146 -287.644,-872.044 C-269.575,-883.601 -250.649,-886.495 -193.197,-886.495 L-148.397,-886.495 L-142.896,-892.535 C-136.335,-899.718 -133.323,-904.782 -133.239,-908.769 C-133.205,-910.384 -129.353,-925.777 -124.693,-942.971 L-116.197,-974.262 L-120.739,-982.119 C-123.246,-986.442 -127.469,-993.188 -130.144,-997.125 L-135.006,-1004.28 L-165.624,-1004.01 C-182.464,-1003.85 -211.384,-1003.1 -229.889,-1002.34 L-229.923,-1002.36 Z " fill="#000000" fill-opacity="1.00" stroke-width="0.19" stroke="#000000" stroke-linecap="square" stroke-linejoin="miter" />				<path d="M-489.978,-996.873 C-490.365,-996.486 -518.695,-992.246 -552.931,-987.452 L-615.177,-978.737 L-620.376,-973.32 L-625.574,-967.903 L-626.684,-939.404 C-628.737,-886.579 -632.993,-799.922 -633.784,-794.707 L-634.558,-789.542 L-659.355,-784.865 C-699.344,-777.312 -756.308,-767.133 -758.731,-767.1 C-760.463,-767.083 -760.749,-769.455 -759.992,-777.581 C-757.974,-799.367 -748.721,-895.428 -745.407,-928.923 L-741.975,-963.765 L-746.366,-971.251 C-748.788,-975.373 -751.698,-979.528 -752.842,-980.47 C-754.289,-981.681 -764.366,-980.739 -785.984,-977.425 C-812.363,-973.371 -829.91,-970.898 -889.734,-962.806 C-901.46,-961.224 -901.477,-961.174 -903.546,-928.57 C-906.322,-885.099 -911.89,-806.618 -915.137,-765.384 C-917.795,-731.552 -918.266,-728.827 -922.287,-723.325 C-926.914,-716.983 -928.764,-712.559 -943.249,-673.142 C-948.464,-658.959 -952.384,-646.46 -951.947,-645.383 C-951.509,-644.306 -945.772,-635.878 -939.194,-626.692 C-932.095,-616.783 -928.747,-614.024 -927.872,-604.3 C-926.998,-594.56 -928.579,-577.837 -931.372,-539.968 C-939.666,-427.168 -943.569,-377.976 -945.772,-358.276 C-947.152,-346.062 -946.95,-342.933 -944.46,-336.826 C-942.845,-332.89 -940.776,-329.676 -939.851,-329.676 C-938.925,-329.676 -906.002,-340.578 -866.669,-353.919 C-780.197,-383.242 -775.386,-384.941 -773.939,-386.489 C-773.316,-387.162 -771.449,-439.751 -769.784,-503.377 C-768.118,-566.986 -766.352,-619.711 -765.83,-620.552 C-764.198,-623.176 -641.708,-650.346 -639.857,-648.512 C-638.932,-647.587 -644.82,-502.099 -649.026,-421.969 L-650.052,-402.387 L-644.534,-394.211 C-641.489,-389.719 -638.78,-385.748 -638.511,-385.412 C-638.242,-385.059 -617.734,-391.367 -592.937,-399.426 C-568.156,-407.484 -534.694,-418.352 -518.594,-423.567 L-489.322,-433.073 L-490.415,-458.341 C-491.021,-472.237 -492.232,-497.237 -493.124,-513.892 C-495.311,-554.873 -498.053,-623.328 -498.608,-650.733 L-499.063,-673.175 L-494.453,-676.843 C-490.886,-679.686 -487.017,-688.182 -477.209,-714.628 C-470.261,-733.386 -464.575,-749.486 -464.575,-750.394 C-464.575,-751.303 -469.975,-760.101 -476.587,-769.96 L-488.598,-787.877 L-485.772,-811.547 C-484.224,-824.568 -478.723,-867.148 -473.558,-906.178 L-464.171,-977.139 L-470.362,-987.351 C-476.183,-996.923 -476.957,-997.563 -482.895,-997.563 C-486.378,-997.563 -489.54,-997.243 -489.927,-996.873 L-489.978,-996.873 Z " fill="#000000" fill-opacity="1.00" stroke-width="0.19" stroke="#000000" stroke-linecap="square" stroke-linejoin="miter" />				<path d="M123.459,-408.628 C112.355,-407.905 90.7878,-406.525 75.5122,-405.566 C44.6582,-403.615 33.6894,-400.94 -31.316,-379.406 C-76.6885,-364.383 -103.942,-352.606 -110.941,-345.019 C-117.3,-338.122 -153.588,-292.715 -180.556,-257.908 C-190.465,-245.105 -201.753,-230.654 -205.606,-225.792 L-212.638,-216.943 L-213.429,-175.255 L-214.219,-133.567 L-206.615,-118.493 C-181.834,-69.3857 -152.78,-17.1829 -147.818,-12.8256 L-142.333,-8.03099 L-117.939,-9.05721 C-104.531,-9.62921 -80.6756,-10.8405 -64.9458,-11.7489 C-49.216,-12.6574 -13.3318,-14.5248 14.7968,-15.9211 C42.9254,-17.3006 66.1248,-18.6297 66.3266,-18.882 C66.5285,-19.1176 68.3454,-26.8899 70.3474,-36.1428 C72.3494,-45.3956 74.6037,-55.7251 75.3776,-59.1066 C77.0431,-66.4248 76.9758,-66.5257 66.2762,-73.8775 C61.6497,-77.0571 38.7532,-93.8805 15.3856,-111.276 L-27.0933,-142.904 L-27.0933,-170.881 L-27.0933,-198.858 L-3.96125,-221.906 L19.1708,-244.954 L33.4707,-248.487 C63.3153,-255.839 103.96,-261.239 145.346,-263.325 L165.534,-264.351 L200.257,-245.846 C219.352,-235.667 237.975,-225.456 241.643,-223.151 L248.288,-218.945 L249.264,-181.379 C249.987,-153.822 249.718,-143.072 248.254,-141.036 C247.161,-139.505 235.653,-126.265 222.666,-111.595 C209.678,-96.9255 196.236,-81.4312 192.788,-77.1581 L186.513,-69.3857 L195.042,-50.2407 C199.736,-39.7093 204.749,-29.2788 206.196,-27.0582 L208.82,-23.0374 L233.433,-24.1477 C246.976,-24.7534 290.598,-25.9983 330.386,-26.9236 C371.586,-27.8657 389.351,-27.7311 398.621,-29.7667 C407.891,-31.8023 408.681,-36.025 415.932,-45.6984 L423.082,-55.2373 L425.151,-92.8037 C427.574,-136.847 430.367,-210.382 430.77,-241.236 L431.056,-262.938 L426.009,-267.312 C421.501,-271.215 408.934,-281.074 347.192,-329.121 C327.391,-344.514 268.156,-389.567 265.666,-391.098 C264.724,-391.687 259.374,-392.898 253.789,-393.807 C248.204,-394.698 231.835,-398.837 217.417,-402.976 C191.543,-410.395 190.887,-410.496 167.418,-410.26 C154.346,-410.125 134.562,-409.419 123.459,-408.695 L123.459,-408.628 Z " fill="#000000" fill-opacity="1.00" stroke-width="0.19" stroke="#000000" stroke-linecap="square" stroke-linejoin="miter" />				<path d="M-313.948,-343.813 C-325.977,-341.609 -350.959,-337.201 -369.465,-334.005 C-387.971,-330.808 -414.08,-326.232 -427.505,-323.844 C-440.93,-321.455 -460.008,-318.056 -469.917,-316.307 C-490.391,-312.69 -490.677,-312.555 -497.928,-304.211 L-503.261,-298.07 L-504.91,-225.982 C-505.818,-186.33 -507.315,-125.513 -508.241,-90.8068 C-509.166,-56.1171 -510.697,2.19259 -511.622,38.7329 C-512.564,75.2732 -514.062,132.439 -514.953,165.749 C-515.845,199.059 -517.729,273.62 -519.125,331.459 C-520.522,389.297 -522.826,479.757 -524.24,532.498 C-525.653,585.239 -527.52,657.916 -528.412,694.002 C-529.287,730.088 -530.784,787.624 -531.743,821.859 C-532.685,856.094 -534.233,918.173 -535.158,959.81 C-536.1,1001.45 -537.631,1065.04 -538.556,1101.13 C-541.786,1225.77 -543.031,1306.4 -541.887,1317.31 C-541.08,1325.01 -538.354,1333.47 -532.719,1345.91 C-523.365,1366.53 -510.545,1398.28 -501.461,1423.29 C-497.928,1433.02 -490.913,1450.41 -485.849,1461.99 C-480.785,1473.56 -470.926,1497.01 -463.962,1514.14 C-444.867,1560.94 -369.196,1748.42 -368.102,1751.63 C-366.42,1756.55 -351.666,1757.12 -330.754,1753.08 C-320.576,1751.11 -310.247,1749.13 -307.791,1748.64 C-305.048,1748.12 -301.516,1745.17 -298.672,1741.07 L-294.029,1734.36 L-291.842,1570.83 C-289.706,1410.56 -287.788,1244.01 -284.49,934.575 C-283.582,849.449 -282.085,729.078 -281.142,667.084 C-280.217,605.09 -278.686,478.663 -277.761,386.135 C-276.836,293.606 -275.322,156.967 -274.379,82.4735 C-273.437,7.97981 -271.923,-115.285 -270.998,-191.461 L-269.316,-329.967 L-274.8,-339.035 C-278.081,-344.452 -279.628,-347.144 -284.49,-347.733 C-289.335,-348.322 -297.495,-346.807 -313.931,-343.796 L-313.948,-343.813 Z " fill="#000000" fill-opacity="1.00" stroke-width="0.19" stroke="#000000" stroke-linecap="square" stroke-linejoin="miter" />				<path d="M385.061,23.0066 C382.74,23.3263 358.514,25.1095 331.227,26.9433 C287.385,29.9042 252.729,32.4277 169.723,38.7028 C157.24,39.6449 134.528,41.5291 119.253,42.875 C103.977,44.2208 85.8081,45.7349 78.8768,46.2396 C71.9456,46.7443 51.4885,48.2753 33.4538,49.6548 C15.4192,51.0343 -20.936,53.6755 -47.2982,55.5261 C-73.6603,57.3767 -106.23,59.6646 -119.638,60.6068 C-133.047,61.5489 -154.715,62.9957 -167.787,63.8032 C-180.859,64.6275 -193.123,66.1248 -195.041,67.1679 C-196.975,68.1941 -201.888,73.157 -205.976,78.1703 L-213.412,87.3054 L-214.186,152.597 L-214.959,217.888 L-210.03,226.72 C-207.322,231.582 -204.479,235.553 -203.705,235.553 C-202.931,235.553 -177.073,232.491 -146.253,228.739 C-70.3461,219.52 -45.3803,216.727 -44.7578,217.35 C-44.4718,217.636 -43.698,225.526 -43.0418,234.863 L-41.8474,251.854 L-61.8167,263.294 C-72.8023,269.586 -91.6276,280.555 -103.656,287.671 C-133.434,305.285 -189.338,337.704 -199.196,343.054 C-203.621,345.459 -210.064,350.305 -213.496,353.804 L-219.737,360.197 L-220.175,442.126 L-220.612,524.056 L-214.287,531.172 C-206.75,539.634 -169.822,557.736 -165.162,555.23 C-161.798,553.429 -100.376,501.563 -55.8781,462.954 C-37.0191,446.584 -14.3076,426.901 -5.40805,419.23 C3.49149,411.541 18.1446,398.857 27.1619,391.051 C36.1792,383.245 44.3722,376.835 45.3648,376.835 C46.3573,376.835 51.0847,380.183 55.8793,384.254 C89.7784,413.106 163.818,472.105 171.422,476.311 L180.675,481.426 L225.257,481.678 C262.167,481.88 275.188,481.274 300.962,478.162 L332.085,474.393 L338.814,467.176 C342.515,463.206 357.353,446.736 371.771,430.585 C386.205,414.435 404.375,394.129 412.147,385.465 C419.919,376.801 429.122,366.472 432.571,362.518 L438.846,355.335 L438.93,218.746 L439.014,82.1574 L421.905,52.01 L404.795,21.8626 L397.023,22.115 C392.75,22.2496 387.366,22.6365 385.045,22.9561 L385.061,23.0066 Z M283.078,239.254 L284.256,300.137 L278.233,308.885 C273.321,316.018 271.134,319.484 266.676,321.234 C262.218,322.983 255.488,323 241.508,323.269 L216.542,323.74 L201.973,311.224 C193.948,304.343 174.08,287.604 157.778,274.027 L128.169,249.348 L125.999,223.086 C124.805,208.652 124.216,196.438 124.687,195.967 C126.335,194.318 258.617,179.262 277.56,178.555 L281.918,178.387 L283.095,239.27 L283.078,239.254 Z " fill="#000000" fill-opacity="1.00" stroke-width="0.19" stroke="#000000" stroke-linecap="square" stroke-linejoin="miter" />				<path d="M98.2237,531.591 C92.672,532.331 82.4434,533.475 75.5122,534.148 C67.622,534.905 56.2831,537.799 45.2302,541.853 C16.9165,552.233 -22.0632,566.819 -32.9983,571.092 C-38.55,573.263 -54.078,579.302 -67.4861,584.517 C-89.5415,593.08 -92.6539,594.796 -99.9047,602.502 C-108.114,611.216 -127.562,636.384 -188.9,717.725 L-223.674,763.837 L-224.868,775.008 C-225.525,781.149 -225.575,793.446 -224.969,802.329 C-223.338,826.286 -219.014,901.015 -217.769,926.721 C-216.995,942.72 -215.986,949.853 -214.287,951.552 C-212.974,952.864 -211.174,956.549 -210.299,959.711 C-209.458,962.773 -209.038,964.304 -200.542,970.832 C-192.046,977.359 -175.492,988.866 -142.35,1011.9 C-100.695,1040.85 -79.5821,1054.86 -77.6138,1054.86 C-76.6212,1054.86 -71.4733,1057.03 -66.1739,1059.68 C-53.8929,1065.8 -53.0181,1066 -19.2368,1070.01 C29.4331,1075.78 74.8392,1077.71 105.306,1075.32 C137.826,1072.76 142.671,1071.96 189.07,1061.39 C237.083,1050.46 247.951,1047.34 288.193,1033.06 C314.202,1023.83 326.701,1019.5 335.449,1014.4 C344.198,1009.31 349.177,1003.4 360.163,991.036 C390.344,957.053 422.157,921.96 453.818,887.758 L483.158,856.063 L481.173,827.194 C478.784,792.319 476.698,766.243 472.509,718.414 C470.76,698.512 468.842,675.633 468.219,667.557 L467.109,652.871 L456.796,643.921 C444.465,633.204 388.493,587.209 355.654,560.797 C335.719,544.764 330.958,541.702 324.531,540.777 C320.359,540.171 315.043,538.674 312.738,537.429 C310.416,536.201 298.69,534.333 286.662,533.307 C260.401,531.053 112.54,529.741 98.2405,531.642 L98.2237,531.591 Z M260.115,708.556 C278.957,717.657 295.006,725.11 295.78,725.11 C299.532,725.11 301.029,731.638 302.543,754.685 C303.451,768.497 304.696,785.859 305.319,793.295 L306.429,806.804 L274.667,836.396 C252.241,857.291 242.534,866.746 234.308,872.163 C226.064,877.58 219.301,878.943 202.781,883.653 C159.629,895.951 90.1989,910.184 73.3756,910.167 C67.4201,910.167 15.0491,900.09 -1.01719,895.867 C-12.4739,892.856 -29.2804,886.395 -40.7707,880.608 C-47.8029,877.058 -48.6609,875.982 -49.603,869.454 C-52.6312,848.526 -53.691,828.961 -52.8162,810.186 L-51.8237,789.241 L-19.0182,757.613 C1.91007,737.442 15.9744,725.161 19.8437,723.714 C23.1748,722.469 48.9986,714.377 77.2113,705.746 L128.522,690.05 L177.192,691.043 L225.862,692.035 L260.131,708.59 L260.115,708.556 Z " fill="#000000" fill-opacity="1.00" stroke-width="0.19" stroke="#000000" stroke-linecap="square" stroke-linejoin="miter" />				<path d="M343.003,1064.2 C295.898,1074.14 217.989,1096.23 209.325,1102.09 C206.011,1104.32 195.967,1114.87 187.017,1125.51 C178.067,1136.15 165.736,1150.54 159.595,1157.47 C153.455,1164.4 142.772,1176.95 135.857,1185.33 C114.643,1211 44.0694,1293.3 23.4271,1316.45 C12.6939,1328.48 0.177292,1342.76 -4.38183,1348.18 L-12.6926,1358.04 L-33.4694,1357.35 C-49.1992,1356.83 -54.6331,1356.07 -55.8444,1354.22 C-57.3753,1351.88 -56.9211,1324.9 -54.6668,1284.3 L-53.7247,1267.29 L-21.3902,1225.39 L10.9442,1183.48 L4.11395,1163.49 C-0.81529,1149.06 -3.64161,1143.12 -6.06417,1142.14 C-11.0775,1140.12 -130.136,1122.68 -160.115,1119.58 L-171.168,1118.44 L-182.356,1130.94 C-193.88,1143.83 -196.101,1148.32 -210.384,1187.73 C-212.89,1194.67 -220.107,1213.98 -226.416,1230.63 L-237.873,1260.92 L-236.847,1298.77 C-235.03,1365.76 -228.267,1429.59 -221.588,1442.78 C-217.147,1451.54 -189.893,1477.89 -147.565,1514.33 C-135.234,1524.94 -129.346,1530.07 -124.517,1533.12 C-119.689,1536.16 -115.921,1537.16 -107.829,1539.46 C-94.5381,1543.25 -91.0893,1543.51 -59.0408,1543.18 C-9.59707,1542.66 5.54393,1540.6 50.866,1528.21 C64.6443,1524.44 75.5963,1520.32 81.148,1516.8 C85.9258,1513.77 91.0906,1510.84 92.6215,1510.29 C94.1524,1509.73 100.158,1502.99 105.979,1495.28 C111.8,1487.58 125.393,1469.93 136.177,1456.05 C154.784,1432.13 164.928,1418.87 218.527,1348.33 C231.01,1331.89 246.925,1311.18 253.89,1302.28 C260.855,1293.4 271.74,1278.93 278.082,1270.15 C292.062,1250.79 292.516,1250.4 300.491,1250.91 C303.99,1251.13 310.349,1251.38 314.622,1251.48 C319.198,1251.58 321.385,1251.31 322.782,1255.52 C324.178,1259.72 324.8,1268.4 326.23,1286.4 C327.189,1298.3 328.333,1309.69 328.771,1311.72 C329.511,1315.09 319.72,1330.55 279.663,1389.28 C278.082,1391.6 279.091,1395.33 284.963,1408.96 L292.214,1425.79 L378.601,1425.85 L464.989,1425.92 L488.088,1414.14 L511.186,1402.37 L510.345,1393.89 C509.874,1389.23 507.99,1368 506.139,1346.72 C502.371,1303.38 493.622,1213.04 491.048,1190.98 C490.123,1183.06 489.366,1172.93 489.366,1168.49 C489.366,1161.36 488.626,1159.69 483.041,1154.31 C474.747,1146.28 431.814,1109.14 413.661,1094.3 C405.805,1087.85 393.406,1077.49 386.121,1071.23 C378.433,1064.64 374.766,1061.36 369.483,1060.5 C364.184,1059.63 357.252,1061.17 343.003,1064.18 L343.003,1064.2 Z " fill="#000000" fill-opacity="1.00" stroke-width="0.19" stroke="#000000" stroke-linecap="square" stroke-linejoin="miter" />				<path d="M362.35,1490.3 C359.574,1491.15 339.891,1496.39 318.609,1501.95 C229.833,1525.14 224.651,1526.7 221.034,1531.56 C219.183,1534.04 209.46,1546.75 199.433,1559.79 C181.634,1582.96 127.278,1654.19 112.877,1673.23 C108.906,1678.48 96.3563,1694.88 84.9837,1709.69 C73.6111,1724.49 50.3613,1755.1 33.3193,1777.67 C16.2772,1800.27 -1.4714,1823.73 -6.11464,1829.82 L-14.5599,1840.91 L-35.1181,1840.88 C-52.4966,1840.86 -56.1304,1840.39 -58.6371,1837.88 C-61.2952,1835.22 -61.6653,1830.4 -62.1363,1792.88 L-62.6579,1750.84 L-51.2012,1733.09 C-44.8924,1723.33 -30.8954,1702.02 -20.0948,1685.72 L-0.461996,1656.09 L-5.18935,1643.35 C-14.745,1617.68 -16.2759,1615.19 -23.3081,1614.15 C-87.405,1604.69 -128.101,1598.59 -154.126,1594.5 L-186.091,1589.49 L-202.493,1605.86 L-218.896,1622.22 L-221.436,1636.51 C-227.964,1673.15 -241.238,1770.66 -244.888,1808.93 C-246.301,1823.73 -248.202,1841.7 -249.111,1848.87 L-250.76,1861.89 L-234.828,1917 C-219.317,1970.65 -212.47,1995 -207.995,2007.43 C-203.536,2019.86 -201.467,2020.38 -195.579,2026.4 L-185.233,2036.94 L-61.8672,2036.87 L61.4983,2036.8 L66.6799,2031.37 C69.5399,2028.39 85.6062,2008.15 102.413,1986.4 C119.219,1964.65 139.222,1938.92 146.86,1929.2 C154.515,1919.48 169.42,1900.31 179.968,1886.6 C190.533,1872.89 210.721,1846.77 224.853,1828.56 C238.968,1810.36 262.016,1780.31 276.063,1761.81 C290.111,1743.3 304.949,1724.19 309.054,1719.33 L316.506,1710.5 L332.135,1710.5 L347.764,1710.5 L348.656,1722.69 C351.701,1764.52 353.282,1784.28 352.845,1795.12 C352.424,1805.97 350.002,1807.89 345.072,1814.04 C338.108,1822.74 291.81,1883.27 278.654,1900.9 C276.114,1904.32 274.011,1908.1 274.011,1909.31 C273.977,1913.13 289.724,1956.89 291.591,1958.19 C292.567,1958.86 340.042,1959.43 397.09,1959.45 L500.806,1959.48 L510.765,1949.81 C516.233,1944.49 530.011,1931.05 541.367,1919.95 L562.026,1899.76 L560.933,1881.25 C560.327,1871.08 557.618,1831.71 554.893,1793.77 C552.168,1755.84 548.954,1708.83 547.743,1689.32 L545.539,1653.84 L521.112,1622.02 C507.67,1604.53 482.923,1571.89 466.099,1549.5 C440.713,1515.68 434.589,1508.52 430.064,1507.22 C427.069,1506.36 414.132,1501.79 401.33,1497.06 C378.063,1488.45 371.855,1487.37 362.367,1490.28 L362.35,1490.3 Z " fill="#000000" fill-opacity="1.00" stroke-width="0.19" stroke="#000000" stroke-linecap="square" stroke-linejoin="miter" />			</g>		</g>	</svg>