<?xml version="1.0" encoding="utf-8" ?>	<!-- Generator: Assembly 2.4 - http://assemblyapp.co -->	<svg version="1.1" xmlns="http://www.w3.org/2000/svg" xmlns:xlink="http://www.w3.org/1999/xlink" width="4096.00" height="4096.00" viewBox="0 0 4096.0 4096.0">		<g id="document" transform="scale(1.0 1.0) translate(2048.0 2048.0)">			<g>				<path d="M-135.206,-2019.1 C-136.693,-2018.78 -140.266,-2015.59 -143.137,-2012.02 C-148.28,-2005.62 -148.363,-2005.22 -148.464,-1986.64 C-148.514,-1976.26 -149.566,-1943.34 -150.785,-1913.49 L-153.006,-1859.22 L-148.781,-1852.92 C-146.46,-1849.47 -142.97,-1846.28 -141.034,-1845.86 C-139.097,-1845.45 -120.997,-1843.94 -100.793,-1842.53 C-26.2733,-1837.33 97.5701,-1827.83 133.786,-1824.52 L156.311,-1822.47 L157.513,-1814.12 C158.832,-1805.05 161.721,-1758.62 163.141,-1723.96 C164.309,-1695.27 164.743,-1692.98 170.136,-1687.09 L174.728,-1682.06 L256.528,-1682.13 L338.327,-1682.2 L339.346,-1830.8 C339.914,-1912.53 339.764,-1981.01 339.046,-1982.98 C338.244,-1985.13 334.855,-1987.57 330.514,-1989.12 C323.116,-1991.77 258.148,-2004.44 204.749,-2013.66 C188.22,-2016.51 173.058,-2019.24 171.055,-2019.73 C168.4,-2020.38 165.378,-2018.73 159.784,-2013.58 L152.154,-2006.52 L152.154,-1979.84 C152.154,-1955.4 151.92,-1953.26 149.315,-1954.24 C145.825,-1955.59 116.037,-1962.76 77.0158,-1971.66 C60.9531,-1975.33 27.1245,-1983.22 1.87823,-1989.2 C-35.8408,-1998.14 -99.4239,-2012.57 -126.69,-2018.39 C-129.896,-2019.08 -133.753,-2019.38 -135.24,-2019.06 L-135.206,-2019.1 Z " fill="#000000" fill-opacity="1.00" />				<path d="M-282.777,-1975.06 C-373.893,-1935.64 -396.802,-1925.01 -399.524,-1920.87 C-401.41,-1917.98 -402.295,-1903.46 -403.715,-1851.43 C-407.889,-1698.39 -410.527,-1601.44 -412.113,-1541.86 C-413.048,-1506.97 -414.618,-1448.72 -415.587,-1412.46 C-420.095,-1245.44 -420.145,-1241.44 -417.973,-1238.28 C-416.822,-1236.62 -416.254,-1233.88 -416.688,-1232.17 C-417.473,-1229.17 -409.308,-1223 -387.969,-1210.44 C-384.295,-1208.28 -373.392,-1201.51 -363.758,-1195.38 C-288.537,-1147.59 -263.24,-1131.94 -261.237,-1131.94 C-258.031,-1131.94 -239.982,-1141.53 -236.659,-1144.98 C-233.603,-1148.17 -231.416,-1209.1 -221.848,-1557.73 C-220.896,-1592.16 -219.393,-1642.13 -218.508,-1668.75 C-217.607,-1695.39 -216.104,-1741.59 -215.153,-1771.45 C-214.201,-1801.3 -212.648,-1845.25 -211.713,-1869.12 C-210.778,-1893 -209.625,-1929.44 -209.175,-1950.11 L-208.34,-1987.68 L-213.015,-1994.22 C-215.586,-1997.83 -218.442,-2000.98 -219.36,-2001.27 C-220.278,-2001.54 -248.831,-1989.75 -282.81,-1975.06 L-282.777,-1975.06 Z " fill="#000000" fill-opacity="1.00" />				<path d="M-95.2162,-1782 L-149.766,-1781.52 L-154.909,-1774.55 L-160.051,-1767.57 L-159.985,-1721.57 L-159.918,-1675.57 L-155.878,-1670.62 L-151.837,-1665.68 L-121.281,-1665.62 L-90.7244,-1665.55 L-90.2743,-1638.68 L-89.8232,-1611.82 L-120.212,-1610.71 C-152.271,-1609.55 -155.727,-1608.71 -160.653,-1600.83 C-162.456,-1597.94 -163.207,-1585.27 -163.975,-1544.49 L-164.96,-1491.9 L-160.92,-1487.3 L-156.879,-1482.72 L-73.7269,-1481.91 C-27.9932,-1481.48 83.9283,-1480.65 174.995,-1480.06 L340.565,-1479.01 L348.413,-1486.24 L356.26,-1493.46 L355.142,-1508.53 C354.523,-1516.81 352.971,-1532.99 351.669,-1544.46 C350.366,-1555.94 348.179,-1577.35 346.793,-1592.04 C343.788,-1623.79 342.752,-1625.61 328.392,-1623.91 C323.767,-1623.36 286.182,-1622.17 244.856,-1621.25 C203.53,-1620.33 140.95,-1618.81 105.785,-1617.86 C70.6207,-1616.91 41.1334,-1616.58 40.2484,-1617.13 C39.3468,-1617.7 38.6455,-1628.53 38.6455,-1642.06 C38.6455,-1655.95 38.3115,-1662.43 40.5156,-1665.45 C42.7196,-1668.47 47.4449,-1668.02 57.5634,-1668.02 C65.0605,-1668.02 78.5519,-1668.52 87.5183,-1669.1 L103.848,-1670.19 L108.891,-1677.04 L113.933,-1683.89 L113.432,-1728.45 L112.932,-1773.01 L108.022,-1778.12 L103.113,-1783.23 L31.2152,-1782.83 C-8.32387,-1782.61 -65.2447,-1782.23 -95.25,-1781.98 L-95.2162,-1782 Z " fill="#000000" fill-opacity="1.00" />				<path d="M340.866,-1431.58 C339.48,-1431.28 311.696,-1430.22 279.086,-1429.23 C246.476,-1428.23 202.529,-1426.71 181.407,-1425.82 C160.285,-1424.95 119.343,-1423.47 90.407,-1422.51 C61.4706,-1421.56 16.0208,-1419.99 -10.6114,-1419.03 C-37.2435,-1418.05 -81.2406,-1416.72 -108.373,-1416.06 C-156.095,-1414.89 -157.881,-1414.71 -163.058,-1411.04 C-167.816,-1407.65 -169.819,-1409.29 -171.656,-1392.68 C-173.493,-1376.05 -175.179,-1341.15 -179.27,-1264.7 C-180.689,-1238.08 -182.609,-1199.38 -183.512,-1178.71 C-184.413,-1158.05 -185.882,-1128.37 -186.767,-1112.76 L-188.387,-1084.38 L-179.22,-1075.35 L-170.053,-1066.31 L-158.8,-1068.21 C-142.553,-1070.95 -58.0148,-1081.88 -53.0223,-1081.88 C-52.1207,-1081.88 -48.7812,-1084.7 -45.6255,-1088.13 L-39.8816,-1094.4 L-39.8816,-1111.1 C-39.8983,-1136.59 -34.6554,-1287.97 -33.7203,-1288.92 C-33.2695,-1289.38 -21.0137,-1289.99 -6.47037,-1290.29 L19.9613,-1290.82 L20.9465,-1280.27 C22.4659,-1263.93 26.9408,-1145.37 26.9408,-1121.44 C26.9408,-1098.59 28.0094,-1094.43 35.8738,-1087.1 C39.8143,-1083.41 41.3338,-1083.16 57.3298,-1083.41 C66.797,-1083.56 91.8095,-1084.78 112.932,-1086.11 C134.054,-1087.46 153.089,-1088.55 155.242,-1088.55 C157.613,-1088.55 161.22,-1090.91 164.426,-1094.53 L169.702,-1100.49 L170.537,-1197.63 L171.372,-1294.78 L197.186,-1296.02 C211.379,-1296.7 223.517,-1296.7 224.135,-1296.02 C225.404,-1294.63 232.283,-1178.8 233.82,-1132.81 L234.822,-1102.76 L240.348,-1095.9 L245.875,-1089.03 L279.587,-1087.94 C298.137,-1087.33 327.457,-1086.74 344.756,-1086.61 L376.197,-1086.4 L382.141,-1092.35 C388.019,-1098.22 388.086,-1098.47 387.818,-1111.37 C387.667,-1118.57 386.8,-1136.49 385.898,-1151.19 C384.98,-1165.88 382.709,-1204.95 380.839,-1238.01 C378.969,-1271.07 376.364,-1313.9 375.045,-1333.18 C373.726,-1352.47 371.822,-1380.65 370.82,-1395.8 C369.017,-1423.15 368.967,-1423.39 364.075,-1427.94 C360.051,-1431.7 357.729,-1432.5 351.252,-1432.34 C346.91,-1432.23 342.218,-1431.9 340.849,-1431.6 L340.866,-1431.58 Z " fill="#000000" fill-opacity="1.00" />				<path d="M469.501,-1190.47 C467.447,-1188.41 457.83,-1174.59 448.129,-1159.77 L430.514,-1132.81 L432.366,-1124.47 C439.079,-1094.18 442.351,-1079.27 444.923,-1071.07 C447.478,-1062.87 449.314,-1061.37 453.138,-1057.93 L460.251,-1051.52 L476.948,-1052.48 C486.132,-1053.02 516.938,-1054.23 545.407,-1055.18 C646.542,-1058.54 816.504,-1064.78 856.71,-1066.59 L880.821,-1067.68 L889.871,-1079.37 C894.847,-1085.79 900.841,-1093.91 903.178,-1097.39 L907.436,-1103.72 L900.907,-1110.49 C897.318,-1114.21 877.565,-1132.33 857.011,-1150.75 C825.119,-1179.34 818.64,-1184.43 812.764,-1185.49 C801.592,-1187.55 764.992,-1188.73 661.453,-1190.42 C607.737,-1191.3 543.403,-1192.5 518.508,-1193.11 L473.241,-1194.22 L469.501,-1190.47 Z " fill="#000000" fill-opacity="1.00" />				<path d="M-609.208,-1185.32 C-638.144,-1184.66 -707.638,-1183.23 -763.657,-1182.16 C-908.372,-1179.37 -983.058,-1177.35 -984.995,-1176.14 C-986.748,-1175.06 -1008.27,-1133 -1008.27,-1130.66 C-1008.27,-1129.93 -1002.83,-1126.43 -996.166,-1122.87 C-989.503,-1119.31 -971.287,-1109.49 -955.675,-1101.03 C-940.064,-1092.56 -905.868,-1074.55 -879.703,-1060.98 L-832.116,-1036.34 L-691.023,-1037.41 C-613.415,-1037.99 -497.102,-1038.96 -432.517,-1039.58 L-315.103,-1040.68 L-309.342,-1052.13 C-301.16,-1068.39 -297.069,-1079.36 -298.371,-1081.48 C-298.989,-1082.47 -312.648,-1090.39 -328.71,-1099.05 C-344.773,-1107.72 -362.789,-1117.45 -368.767,-1120.67 C-389.154,-1131.72 -429.679,-1153.22 -453.088,-1165.45 C-465.945,-1172.15 -480.071,-1179.77 -484.462,-1182.35 L-492.461,-1187.08 L-524.535,-1186.81 C-542.168,-1186.66 -580.271,-1185.99 -609.208,-1185.35 L-609.208,-1185.32 Z " fill="#000000" fill-opacity="1.00" />				<path d="M-1098.67,-1083.11 C-1102.34,-1082.2 -1107.99,-1080.79 -1111.19,-1080.02 C-1120.59,-1077.77 -1124.1,-1069.03 -1126.21,-1042.63 C-1131.36,-978.284 -1133.22,-955.726 -1136.22,-921.58 C-1138.03,-900.909 -1142.16,-851.702 -1145.4,-812.213 C-1150.79,-746.425 -1154.94,-697.871 -1159.61,-645.24 C-1162.95,-607.689 -1167.92,-548.397 -1167.93,-545.675 C-1167.95,-544.022 -1164.15,-540.983 -1158.35,-538.011 C-1040.31,-477.333 -984.259,-449.065 -981.988,-449.065 C-979.217,-449.065 -977.931,-448.48 -976.061,-461.687 C-974.207,-474.895 -971.769,-501.928 -966.761,-557.146 C-963.605,-591.843 -959.113,-642.753 -956.759,-670.303 C-954.404,-697.853 -950.214,-746.693 -947.441,-778.835 C-942.248,-838.945 -940.211,-863.941 -934,-943.52 C-930.695,-985.948 -930.644,-1001.53 -933.8,-1005.92 C-934.468,-1006.84 -945.906,-1013.01 -959.214,-1019.63 C-972.537,-1026.25 -999.57,-1040.03 -1019.32,-1050.23 C-1079.55,-1081.38 -1087.36,-1085.23 -1089.7,-1085.02 C-1090.94,-1084.89 -1094.96,-1084.04 -1098.64,-1083.13 L-1098.67,-1083.11 Z " fill="#000000" fill-opacity="1.00" />				<path d="M1018.03,-1062.49 C1009.76,-1059.27 996.239,-1054.1 987.975,-1051.04 C979.709,-1047.96 959.205,-1040.11 942.407,-1033.6 C925.61,-1027.09 910.833,-1021.76 909.565,-1021.76 C906.292,-1021.76 896.624,-1009.01 896.541,-1004.6 C896.507,-1002.56 898.143,-984.362 900.18,-964.158 C903.27,-933.502 904.856,-920.027 904.672,-910.944 C904.489,-901.86 902.552,-897.152 898.611,-884.011 C894.703,-871.005 889.711,-858.047 887.34,-854.791 C885.002,-851.585 874.884,-840.832 864.85,-830.931 L846.599,-812.915 L834.143,-813.398 L821.686,-813.882 L814.423,-829.745 C803.052,-854.573 802.018,-858.732 803.62,-873.158 C804.388,-880.037 809.615,-908.639 815.258,-936.708 L825.511,-987.734 L817.596,-999.974 L809.682,-1012.21 L795.305,-1011.18 C787.391,-1010.61 761.76,-1008.99 738.351,-1007.57 C711.501,-1005.95 698.595,-1005.23 691.732,-1003.96 C684.87,-1002.69 684.034,-1000.87 681.313,-997.035 C676.805,-990.656 676.404,-989.07 654.747,-891.993 L648.336,-863.24 L650.807,-847.745 C657.786,-803.998 665.784,-773.759 678.174,-744.105 L683.617,-731.098 L711.034,-708.206 C730.22,-692.194 740.321,-684.88 744.663,-683.845 C748.069,-683.043 763.263,-679.353 778.424,-675.68 C815.659,-666.613 821.97,-666.764 879.176,-677.917 C890.93,-680.205 913.939,-695.767 952.326,-727.391 C959.355,-733.169 965.834,-737.911 966.719,-737.911 C967.621,-737.911 968.79,-735.84 969.34,-733.318 C980.628,-680.488 994.637,-606.27 993.551,-605.167 C992.4,-604.015 735.145,-609.609 678.842,-612.03 L653.546,-613.115 L646.833,-606.637 C640.205,-600.242 640.02,-599.724 631.588,-564.259 C626.897,-544.506 619.316,-512.915 614.741,-494.031 L606.426,-459.7 L611.635,-450.067 C614.507,-444.774 617.697,-440.182 618.749,-439.848 C619.783,-439.53 731.621,-438.329 867.254,-437.193 C1077.4,-435.423 1114.27,-435.457 1116.64,-437.426 C1118.18,-438.696 1130.34,-452.371 1143.68,-467.816 L1167.93,-495.901 L1166.12,-504.617 C1161.99,-524.537 1147.02,-592.444 1139.88,-623.534 C1124.84,-689.137 1118.61,-716.705 1096.54,-815.553 C1084.23,-870.654 1071.48,-927.007 1068.19,-940.782 C1058.19,-982.742 1054.23,-999.623 1047.05,-1030.95 C1039.2,-1065.16 1038.13,-1068.55 1035.18,-1068.44 C1034.01,-1068.39 1026.29,-1065.71 1018.03,-1062.49 Z " fill="#000000" fill-opacity="1.00" />				<path d="M92.9116,-1023.27 C16.4883,-1014.42 7.75561,-1013.16 5.06734,-1010.74 C3.54788,-1009.37 1.09348,-1003.91 -0.392654,-998.621 C-1.87869,-993.328 -5.6356,-981.156 -8.72454,-971.572 C-11.8302,-961.987 -19.01,-939.496 -24.6871,-921.597 C-37.9948,-879.603 -44.657,-858.815 -62.0555,-804.716 C-69.8866,-780.371 -78.5858,-752.954 -81.4078,-743.771 C-84.6302,-733.252 -89.6899,-721.831 -95.0829,-712.882 C-99.7909,-705.083 -108.341,-690.257 -114.084,-679.954 L-124.503,-661.22 L-116.688,-645.407 C-112.398,-636.709 -106.771,-624.102 -104.182,-617.39 C-100.559,-607.989 -97.5374,-603.364 -91.0423,-597.253 C-86.3998,-592.895 -81.8086,-589.322 -80.8233,-589.338 C-79.8548,-589.338 -67.0313,-593.913 -52.3378,-599.507 C14.8019,-625.037 22.2322,-627.208 47.0109,-628.51 C59.4002,-629.161 83.8283,-630.714 101.277,-631.95 C118.726,-633.185 133.435,-633.686 133.971,-633.052 C135.072,-631.75 174.978,-510.277 185.715,-475.563 L192.761,-452.805 L200.308,-451.77 C204.449,-451.202 228.21,-450 253.088,-449.098 C277.967,-448.197 303.246,-447.127 309.274,-446.728 C315.303,-446.327 321.113,-446.527 322.199,-447.195 C323.283,-447.863 328.392,-454.759 333.569,-462.523 L342.986,-476.632 L337.126,-493.329 C329.211,-515.854 311.813,-562.272 298.305,-596.852 C287.868,-623.584 272.607,-663.474 242.419,-742.953 C207.02,-836.156 179.436,-908.522 169.535,-934.137 C161.037,-956.127 141.868,-1008.44 136.341,-1024.72 C135.406,-1027.46 126.223,-1027.16 92.9449,-1023.3 L92.9116,-1023.27 Z M99.8744,-793.613 C127.107,-726.189 128.878,-721.447 127.291,-720.461 C126.557,-720.011 102.179,-719.109 73.1087,-718.475 L20.2786,-717.323 L20.2786,-720.963 C20.2786,-722.966 28.2766,-743.938 38.0445,-767.565 C47.8123,-791.191 58.7658,-817.673 62.3557,-826.389 C71.1719,-847.778 73.2756,-850.917 76.5483,-847.645 C77.9342,-846.258 88.4201,-821.947 99.8744,-793.595 L99.8744,-793.613 Z " fill="#000000" fill-opacity="1.00" />				<path d="M333.443,-1017.51 C327.933,-1016.25 300.516,-1011.06 272.497,-1005.97 C244.48,-1000.87 219.985,-996.35 218.048,-995.899 C215.743,-995.382 212.555,-991.274 208.898,-984.128 L203.271,-973.158 L206.828,-963.658 C208.781,-958.431 222.891,-921.847 238.185,-882.358 C253.48,-842.869 270.01,-800.041 274.919,-787.184 C292.618,-740.849 308.096,-701.026 330.07,-645.258 C352.595,-588.086 357.353,-575.63 388.043,-493.312 C397.293,-468.517 405.325,-447.746 405.892,-447.161 C406.46,-446.577 437.383,-445.575 474.584,-444.924 C514.692,-444.223 533.275,-443.538 542.242,-445.658 C551.208,-447.796 550.557,-452.755 552.177,-463.374 C554.932,-481.44 563.581,-538.562 570.727,-585.965 C577.289,-629.545 592.584,-722.783 603.871,-788.002 C607.929,-811.428 617.028,-866.362 624.108,-910.076 L636.981,-989.571 L630.737,-998.988 C627.164,-1004.38 625.895,-1006.95 621.653,-1007.87 C617.413,-1008.79 610.217,-1008.04 594.754,-1006.75 C584.185,-1005.87 559.023,-1003.91 538.818,-1002.39 L502.085,-999.623 L496.825,-994.664 C493.135,-991.191 491.282,-987.617 490.614,-982.776 C490.096,-978.968 488.109,-964.208 486.206,-949.965 C484.303,-935.723 479.761,-902.662 476.121,-876.498 C467.321,-813.298 456.1,-730.697 454.965,-720.729 C454.448,-716.221 453.279,-712.981 452.294,-713.315 C451.326,-713.632 445.097,-730.013 438.469,-749.698 C426.146,-786.249 373.249,-941.918 360.041,-980.505 C356.017,-992.26 351.894,-1005.03 350.858,-1008.89 C348.988,-1015.89 346.5,-1020.23 344.513,-1019.94 C343.928,-1019.86 338.953,-1018.77 333.443,-1017.51 Z " fill="#000000" fill-opacity="1.00" />				<path d="M-207.73,-1011.49 C-300.366,-1007.65 -314.342,-1004.1 -353.864,-974.159 C-373.633,-959.182 -376.155,-956.31 -394.588,-927.725 L-409.466,-904.649 L-411.92,-887.651 C-417.113,-851.685 -413.69,-826.606 -398.028,-786.215 C-394.672,-777.566 -391.549,-768.834 -391.065,-766.829 C-390.497,-764.409 -395.657,-751.836 -406.493,-729.261 C-422.44,-696.033 -422.823,-694.965 -425.011,-676.965 C-426.246,-666.863 -427.732,-643.938 -428.334,-626.039 L-429.419,-593.479 L-423.458,-570.938 C-415.761,-541.785 -405.358,-511.88 -396.926,-494.548 C-391.333,-483.06 -388.51,-479.421 -379.961,-472.641 C-364.867,-460.669 -343.728,-447.428 -316.763,-433.085 L-292.886,-420.379 L-263.666,-421.447 C-207.329,-423.501 -124.226,-430.931 -56.6696,-439.965 C-36.0152,-442.72 -35.7814,-442.803 -27.583,-449.966 L-19.3346,-457.197 L-10.3348,-494.448 C-5.37569,-514.935 -0.516816,-535.84 0.468268,-540.916 L2.25491,-550.133 L-5.89335,-562.322 L-14.0416,-574.511 L-26.6647,-573.626 C-33.6107,-573.142 -47.1355,-571.622 -56.7198,-570.236 C-156.536,-555.827 -212.204,-549.248 -234.445,-549.231 L-246.133,-549.215 L-261.995,-565.545 C-285.188,-589.405 -289.779,-596.902 -291.951,-614.3 C-292.919,-622.081 -293.704,-635.99 -293.704,-645.191 L-293.687,-661.938 L-281.498,-681.14 C-272.448,-695.399 -267.823,-701.077 -263.565,-703.213 C-250.692,-709.658 -230.855,-714.434 -210.217,-716.087 C-198.73,-717.005 -183.702,-718.208 -176.823,-718.758 C-158.673,-720.195 -157.388,-720.629 -152.461,-727.107 C-148.622,-732.15 -147.435,-736.675 -144.163,-758.949 C-142.059,-773.225 -139.838,-790.323 -139.221,-796.952 L-138.085,-808.991 L-147.018,-821.012 L-155.951,-833.034 L-170.144,-833.018 C-177.941,-833.018 -194.856,-832.317 -207.713,-831.481 C-220.57,-830.647 -239.455,-829.445 -249.673,-828.793 L-268.257,-827.608 L-274.302,-836.575 C-280.964,-846.459 -281.716,-851.935 -278.375,-866.362 C-276.523,-874.36 -275.737,-875.312 -265.018,-882.157 C-247.085,-893.629 -228.301,-896.501 -171.279,-896.501 L-126.815,-896.501 L-121.354,-902.495 C-114.843,-909.625 -111.854,-914.65 -111.77,-918.608 C-111.737,-920.211 -107.913,-935.489 -103.288,-952.554 L-94.8563,-983.61 L-99.3644,-991.408 C-101.853,-995.699 -106.043,-1002.39 -108.699,-1006.3 L-113.523,-1013.4 L-143.913,-1013.13 C-160.627,-1012.98 -189.329,-1012.23 -207.696,-1011.48 L-207.73,-1011.49 Z " fill="#000000" fill-opacity="1.00" />				<path d="M-465.835,-1006.05 C-466.22,-1005.67 -494.338,-1001.46 -528.317,-996.701 L-590.096,-988.052 L-595.256,-982.675 L-600.415,-977.299 L-601.517,-949.013 C-603.554,-896.584 -607.778,-810.577 -608.564,-805.4 L-609.332,-800.275 L-633.943,-795.633 C-673.633,-788.136 -730.169,-778.034 -732.574,-778.001 C-734.294,-777.983 -734.578,-780.339 -733.827,-788.403 C-731.822,-810.025 -722.639,-905.367 -719.35,-938.611 L-715.944,-973.192 L-720.301,-980.622 C-722.705,-984.713 -725.595,-988.836 -726.73,-989.771 C-728.166,-990.974 -738.168,-990.039 -759.624,-986.75 C-785.805,-982.726 -803.22,-980.271 -862.596,-972.239 C-874.234,-970.67 -874.25,-970.62 -876.304,-938.26 C-879.059,-895.115 -884.586,-817.223 -887.808,-776.297 C-890.446,-742.719 -890.914,-740.014 -894.904,-734.554 C-899.497,-728.26 -901.333,-723.868 -915.709,-684.746 C-920.886,-670.67 -924.776,-658.264 -924.342,-657.196 C-923.907,-656.128 -918.214,-647.762 -911.685,-638.646 C-904.639,-628.81 -901.316,-626.073 -900.448,-616.421 C-899.58,-606.753 -901.149,-590.156 -903.921,-552.571 C-912.152,-440.616 -916.027,-391.793 -918.214,-372.24 C-919.583,-360.119 -919.383,-357.013 -916.912,-350.952 C-915.308,-347.044 -913.255,-343.856 -912.336,-343.856 C-911.418,-343.856 -878.742,-354.675 -839.704,-367.916 C-753.88,-397.019 -749.104,-398.706 -747.669,-400.242 C-747.051,-400.91 -745.197,-453.106 -743.544,-516.255 C-741.891,-579.387 -740.138,-631.716 -739.62,-632.55 C-738,-635.156 -616.428,-662.121 -614.591,-660.301 C-613.673,-659.383 -619.517,-514.985 -623.692,-435.457 L-624.71,-416.021 L-619.233,-407.906 C-616.211,-403.448 -613.523,-399.508 -613.255,-399.173 C-612.989,-398.823 -592.634,-405.084 -568.022,-413.082 C-543.428,-421.08 -510.216,-431.866 -494.237,-437.043 L-465.184,-446.476 L-466.27,-471.556 C-466.871,-485.348 -468.073,-510.16 -468.958,-526.69 C-471.129,-567.364 -473.85,-635.306 -474.401,-662.506 L-474.852,-684.78 L-470.277,-688.42 C-466.738,-691.241 -462.897,-699.674 -453.162,-725.922 C-446.266,-744.539 -440.623,-760.519 -440.623,-761.42 C-440.623,-762.321 -445.983,-771.055 -452.545,-780.839 L-464.467,-798.621 L-461.661,-822.114 C-460.126,-835.038 -454.665,-877.299 -449.539,-916.037 L-440.222,-986.466 L-446.366,-996.601 C-452.144,-1006.1 -452.912,-1006.74 -458.806,-1006.74 C-462.262,-1006.74 -465.402,-1006.42 -465.785,-1006.05 L-465.835,-1006.05 Z " fill="#000000" fill-opacity="1.00" />				<path d="M143.003,-407.374 C131.984,-406.655 110.577,-405.286 95.4161,-404.335 C64.7935,-402.397 53.9068,-399.742 -10.6114,-378.37 C-55.6438,-363.459 -82.6935,-351.771 -89.6397,-344.241 C-95.9513,-337.394 -131.967,-292.329 -158.733,-257.783 C-168.567,-245.076 -179.772,-230.733 -183.595,-225.907 L-190.574,-217.125 L-191.359,-175.749 L-192.144,-134.373 L-184.596,-119.412 C-160.001,-70.6732 -131.165,-18.8616 -126.24,-14.537 L-120.797,-9.77833 L-96.5859,-10.7968 C-83.2779,-11.3646 -59.601,-12.5668 -43.9892,-13.4684 C-28.3772,-14.3701 7.23805,-16.2235 35.1559,-17.6093 C63.0736,-18.9785 86.0991,-20.2976 86.2995,-20.548 C86.4998,-20.7818 88.3031,-28.4959 90.2901,-37.6794 C92.277,-46.8628 94.5145,-57.115 95.2825,-60.4711 C96.9356,-67.7345 96.8688,-67.8346 86.2494,-75.1313 C81.6577,-78.2871 58.9327,-94.9843 35.7403,-112.249 L-6.42034,-143.64 L-6.42034,-171.408 L-6.42034,-199.175 L16.5384,-222.05 L39.4971,-244.926 L53.6897,-248.432 C83.3106,-255.728 123.651,-261.088 164.727,-263.158 L184.763,-264.178 L219.226,-245.811 C238.177,-235.709 256.661,-225.573 260.302,-223.286 L266.897,-219.112 L267.865,-181.827 C268.583,-154.476 268.316,-143.807 266.863,-141.787 C265.778,-140.267 254.357,-127.126 241.466,-112.567 C228.577,-98.0065 215.236,-82.6284 211.812,-78.3873 L205.585,-70.6732 L214.05,-51.6717 C218.708,-41.2192 223.684,-30.8669 225.12,-28.6629 L227.725,-24.6722 L252.153,-25.7743 C265.594,-26.3754 308.891,-27.611 348.379,-28.5293 C389.271,-29.4644 406.904,-29.3308 416.103,-31.3512 C425.303,-33.3715 426.089,-37.5625 433.285,-47.1635 L440.381,-56.6307 L442.435,-93.9158 C444.84,-137.629 447.611,-210.613 448.012,-241.235 L448.296,-262.775 L443.287,-267.116 C438.811,-270.99 426.339,-280.775 365.06,-328.462 C345.408,-343.74 286.616,-388.455 284.146,-389.975 C283.21,-390.559 277.901,-391.761 272.357,-392.663 C266.813,-393.548 250.567,-397.655 236.257,-401.763 C210.577,-409.127 209.926,-409.226 186.633,-408.992 C173.66,-408.859 154.024,-408.158 143.003,-407.44 L143.003,-407.374 Z " fill="#000000" fill-opacity="1.00" />				<path d="M-291.125,-367.622 C-303.064,-365.434 -327.859,-361.059 -346.226,-357.887 C-364.593,-354.714 -390.507,-350.172 -403.832,-347.802 C-417.155,-345.431 -436.09,-342.057 -445.926,-340.322 C-466.245,-336.731 -466.529,-336.598 -473.726,-328.316 L-479.019,-322.221 L-480.656,-250.674 C-481.557,-211.319 -483.043,-150.958 -483.961,-116.511 C-484.88,-82.0816 -486.399,-24.209 -487.318,12.0574 C-488.253,48.3238 -489.739,105.061 -490.623,138.122 C-491.508,171.183 -493.378,245.185 -494.764,302.59 C-496.151,359.995 -498.438,449.775 -499.841,502.122 C-501.243,554.467 -503.097,626.599 -503.982,662.415 C-504.85,698.231 -506.336,755.336 -507.287,789.314 C-508.222,823.293 -509.759,884.906 -510.677,926.231 C-511.612,967.557 -513.131,1030.67 -514.05,1066.49 C-517.256,1190.2 -518.491,1270.22 -517.356,1281.05 C-516.555,1288.7 -513.85,1297.1 -508.256,1309.43 C-498.972,1329.91 -486.249,1361.41 -477.232,1386.24 C-473.726,1395.89 -466.763,1413.16 -461.737,1424.64 C-456.711,1436.13 -446.927,1459.41 -440.014,1476.41 C-421.063,1522.86 -345.958,1708.93 -344.873,1712.12 C-343.203,1717 -328.56,1717.56 -307.806,1713.55 C-297.704,1711.6 -287.452,1709.64 -285.014,1709.14 C-282.292,1708.63 -278.785,1705.71 -275.964,1701.64 L-271.355,1694.97 L-269.185,1532.67 C-267.064,1373.6 -265.16,1208.3 -261.888,901.186 C-260.987,816.697 -259.5,697.229 -258.565,635.699 C-257.647,574.17 -256.128,448.69 -255.209,356.856 C-254.291,265.021 -252.788,129.406 -251.853,55.4702 C-250.918,-18.4652 -249.415,-140.806 -248.497,-216.411 L-246.828,-353.88 L-252.271,-362.88 C-255.526,-368.255 -257.063,-370.927 -261.888,-371.511 C-266.697,-372.096 -274.795,-370.593 -291.108,-367.604 L-291.125,-367.622 Z " fill="#000000" fill-opacity="1.00" />				<path d="M402.646,21.0266 C400.341,21.3439 376.297,23.1139 349.215,24.9338 C305.701,27.8726 271.305,30.3771 188.921,36.6051 C176.532,37.5402 153.99,39.4103 138.829,40.7461 C123.668,42.0818 105.635,43.5846 98.7556,44.0855 C91.8764,44.5865 71.5725,46.1059 53.673,47.4751 C35.7736,48.8442 -0.309095,51.4658 -26.4737,53.3024 C-52.6383,55.1391 -84.9644,57.4099 -98.2715,58.3449 C-111.58,59.28 -133.086,60.716 -146.059,61.5175 C-159.033,62.3356 -171.205,63.8217 -173.109,64.8569 C-175.029,65.8755 -179.905,70.8011 -183.962,75.7769 L-191.343,84.8435 L-192.111,149.646 L-192.879,214.447 L-187.986,223.213 C-185.298,228.039 -182.476,231.979 -181.708,231.979 C-180.94,231.979 -155.277,228.94 -124.687,225.218 C-49.3489,216.067 -24.5703,213.296 -23.9524,213.913 C-23.6685,214.197 -22.9005,222.028 -22.2493,231.295 L-21.0638,248.159 L-40.8834,259.513 C-51.7867,265.758 -70.471,276.644 -82.4095,283.707 C-111.964,301.189 -167.449,333.365 -177.233,338.675 C-181.624,341.062 -188.02,345.872 -191.426,349.344 L-197.621,355.69 L-198.054,437.005 L-198.489,518.321 L-192.21,525.384 C-184.73,533.782 -148.079,551.749 -143.454,549.261 C-140.115,547.473 -79.1535,495.997 -34.9893,457.676 C-16.2717,441.429 6.26958,421.894 15.1024,414.28 C23.9353,406.649 38.4786,394.06 47.4283,386.313 C56.378,378.565 64.5096,372.203 65.4947,372.203 C66.4798,372.203 71.1718,375.526 75.9305,379.566 C109.575,408.202 183.06,466.76 190.607,470.934 L199.791,476.01 L244.038,476.26 C280.672,476.461 293.595,475.859 319.176,472.771 L350.066,469.031 L356.745,461.867 C360.418,457.927 375.145,441.58 389.454,425.551 C403.781,409.522 421.814,389.368 429.528,380.769 C437.243,372.17 446.376,361.917 449.798,357.994 L456.027,350.864 L456.11,215.299 L456.194,79.7341 L439.212,49.8127 L422.231,19.8912 L414.517,20.1417 C410.276,20.2753 404.933,20.6594 402.628,20.9766 L402.646,21.0266 Z M301.427,235.653 L302.595,296.08 L296.618,304.762 C291.743,311.842 289.571,315.282 285.147,317.019 C280.722,318.755 274.043,318.772 260.167,319.039 L235.39,319.507 L220.929,307.084 C212.965,300.254 193.246,283.641 177.066,270.166 L147.678,245.671 L145.524,219.607 C144.339,205.281 143.755,193.158 144.222,192.691 C145.859,191.054 277.149,176.11 295.951,175.41 L300.275,175.243 L301.444,235.669 L301.427,235.653 Z " fill="#000000" fill-opacity="1.00" />				<path d="M117.957,525.799 C112.447,526.534 102.295,527.669 95.4161,528.338 C87.5852,529.088 76.3312,531.961 65.3612,535.984 C37.2596,546.287 -1.42787,560.763 -12.281,565.005 C-17.7911,567.159 -33.2026,573.152 -46.5104,578.329 C-68.4005,586.828 -71.4895,588.531 -78.686,596.178 C-86.8345,604.827 -106.136,629.806 -167.014,710.537 L-201.528,756.304 L-202.713,767.392 C-203.364,773.486 -203.414,785.692 -202.814,794.508 C-201.194,818.285 -196.903,892.454 -195.666,917.967 C-194.898,933.847 -193.897,940.926 -192.21,942.613 C-190.908,943.915 -189.122,947.571 -188.254,950.711 C-187.418,953.75 -187.001,955.269 -178.569,961.748 C-170.137,968.226 -153.707,979.647 -120.813,1002.51 C-79.4707,1031.24 -58.5157,1045.15 -56.5621,1045.15 C-55.577,1045.15 -50.4677,1047.31 -45.208,1049.92 C-33.019,1056 -32.1507,1056.21 1.37728,1060.18 C49.6825,1065.91 94.7483,1067.82 124.987,1065.46 C157.263,1062.91 162.071,1062.11 208.122,1051.63 C255.776,1040.78 266.563,1037.68 306.503,1023.51 C332.317,1014.35 344.723,1010.05 353.405,1004.99 C362.088,999.934 367.03,994.074 377.933,981.801 C407.888,948.073 439.463,913.242 470.887,879.296 L500.007,847.839 L498.037,819.186 C495.666,784.573 493.596,758.692 489.437,711.222 C487.701,691.469 485.797,668.761 485.18,660.747 L484.078,646.169 L473.843,637.286 C461.603,626.65 406.052,581.001 373.458,554.786 C353.672,538.873 348.947,535.835 342.569,534.916 C338.428,534.315 333.152,532.828 330.864,531.593 C328.559,530.374 316.921,528.521 304.983,527.502 C278.919,525.265 132.167,523.963 117.974,525.849 L117.957,525.799 Z M278.635,701.438 C297.336,710.471 313.265,717.868 314.033,717.868 C317.757,717.868 319.243,724.347 320.746,747.221 C321.647,760.93 322.882,778.161 323.501,785.542 L324.603,798.95 L293.078,828.32 C270.821,849.058 261.187,858.442 253.021,863.819 C244.84,869.195 238.127,870.548 221.731,875.223 C178.902,887.429 109.993,901.554 93.2956,901.538 C87.3848,901.538 35.4062,891.536 19.4604,887.345 C8.08955,884.356 -8.59095,877.944 -19.9952,872.2 C-26.9746,868.677 -27.8262,867.609 -28.7613,861.13 C-31.7668,840.358 -32.8187,820.94 -31.9504,802.305 L-30.9653,781.518 L1.59433,750.127 C22.3657,730.107 36.3246,717.918 40.1649,716.482 C43.471,715.246 69.1013,707.215 97.1025,698.649 L148.029,683.071 L196.334,684.056 L244.64,685.041 L278.652,701.471 L278.635,701.438 Z " fill="#000000" fill-opacity="1.00" />				<path d="M360.903,1054.41 C314.15,1064.29 236.825,1086.21 228.226,1092.02 C224.937,1094.24 214.968,1104.71 206.085,1115.26 C197.202,1125.83 184.964,1140.11 178.869,1146.99 C172.774,1153.87 162.172,1166.32 155.31,1174.64 C134.254,1200.12 64.209,1281.8 43.7215,1304.78 C33.0687,1316.71 20.6459,1330.89 16.121,1336.26 L7.87249,1346.05 L-12.7485,1345.37 C-28.3605,1344.85 -33.7537,1344.09 -34.9559,1342.26 C-36.4753,1339.94 -36.0245,1313.16 -33.7871,1272.87 L-32.852,1255.98 L-0.759907,1214.4 L31.3321,1172.8 L24.5531,1152.96 C19.6608,1138.64 16.8556,1132.74 14.4512,1131.77 C9.4754,1129.77 -108.691,1112.45 -138.446,1109.39 L-149.415,1108.25 L-160.519,1120.66 C-171.957,1133.44 -174.161,1137.9 -188.337,1177.03 C-190.825,1183.91 -197.988,1203.07 -204.249,1219.61 L-215.62,1249.66 L-214.601,1287.22 C-212.799,1353.71 -206.086,1417.06 -199.457,1430.16 C-195.049,1438.85 -167.999,1465.01 -125.99,1501.17 C-113.75,1511.71 -107.906,1516.8 -103.114,1519.82 C-98.3217,1522.84 -94.5815,1523.83 -86.5505,1526.11 C-73.3596,1529.87 -69.9366,1530.14 -38.1284,1529.8 C10.9448,1529.29 25.9723,1527.25 70.9547,1514.95 C84.6297,1511.2 95.4996,1507.11 101.01,1503.63 C105.752,1500.61 110.878,1497.71 112.397,1497.16 C113.917,1496.61 119.878,1489.92 125.655,1482.27 C131.432,1474.62 144.924,1457.1 155.626,1443.33 C174.094,1419.59 184.162,1406.43 237.359,1336.42 C249.749,1320.1 265.544,1299.55 272.457,1290.72 C279.37,1281.9 290.173,1267.54 296.467,1258.82 C310.343,1239.61 310.793,1239.22 318.709,1239.72 C322.181,1239.94 328.493,1240.19 332.734,1240.3 C337.275,1240.39 339.447,1240.12 340.832,1244.29 C342.218,1248.47 342.836,1257.09 344.255,1274.95 C345.207,1286.76 346.343,1298.06 346.776,1300.08 C347.512,1303.42 337.793,1318.77 298.037,1377.06 C296.467,1379.36 297.47,1383.07 303.297,1396.59 L310.493,1413.29 L396.234,1413.36 L481.974,1413.42 L504.899,1401.74 L527.824,1390.05 L526.99,1381.63 C526.522,1377.01 524.652,1355.94 522.815,1334.82 C519.075,1291.81 510.393,1202.14 507.838,1180.25 C506.92,1172.38 506.169,1162.33 506.169,1157.93 C506.169,1150.84 505.433,1149.19 499.89,1143.85 C491.658,1135.88 449.048,1099.01 431.03,1084.29 C423.233,1077.89 410.927,1067.61 403.698,1061.4 C396.066,1054.85 392.427,1051.59 387.184,1050.74 C381.924,1049.87 375.045,1051.41 360.903,1054.4 L360.903,1054.41 Z " fill="#000000" fill-opacity="1.00" />				<path d="M380.104,1477.32 C377.349,1478.17 357.814,1483.36 336.691,1488.89 C248.58,1511.9 243.437,1513.45 239.848,1518.28 C238.01,1520.73 228.359,1533.35 218.408,1546.3 C200.743,1569.29 146.794,1639.98 132.5,1658.88 C128.56,1664.09 116.104,1680.37 104.817,1695.07 C93.5293,1709.76 70.4538,1740.14 53.5394,1762.54 C36.6252,1784.96 19.0096,1808.26 14.4011,1814.31 L6.0191,1825.31 L-14.3849,1825.28 C-31.6332,1825.26 -35.2398,1824.78 -37.7276,1822.3 C-40.3658,1819.66 -40.7332,1814.87 -41.2007,1777.63 L-41.7183,1735.9 L-30.3475,1718.29 C-24.086,1708.61 -10.1939,1687.45 0.525683,1671.27 L20.0114,1641.87 L15.3195,1629.23 C5.83548,1603.75 4.31602,1601.27 -2.66343,1600.24 C-66.2799,1590.86 -106.671,1584.8 -132.501,1580.74 L-164.226,1575.77 L-180.506,1592.02 L-196.786,1608.26 L-199.307,1622.44 C-205.786,1658.8 -218.96,1755.58 -222.583,1793.56 C-223.985,1808.26 -225.872,1826.09 -226.774,1833.2 L-228.411,1846.13 L-212.598,1900.83 C-197.203,1954.07 -190.408,1978.24 -185.966,1990.57 C-181.541,2002.92 -179.488,2003.43 -173.643,2009.41 L-163.374,2019.86 L-40.9335,2019.79 L81.5074,2019.73 L86.6501,2014.34 C89.4886,2011.38 105.435,1991.29 122.115,1969.71 C138.795,1948.11 158.649,1922.59 166.229,1912.94 C173.826,1903.28 188.62,1884.26 199.09,1870.66 C209.575,1857.05 229.612,1831.12 243.638,1813.05 C257.646,1794.98 280.522,1765.16 294.464,1746.79 C308.407,1728.43 323.134,1709.46 327.207,1704.63 L334.604,1695.87 L350.116,1695.87 L365.627,1695.87 L366.513,1707.98 C369.534,1749.49 371.104,1769.1 370.67,1779.86 C370.253,1790.62 367.848,1792.53 362.956,1798.64 C356.044,1807.27 310.092,1867.35 297.035,1884.85 C294.514,1888.24 292.427,1891.99 292.427,1893.2 C292.394,1896.98 308.022,1940.41 309.876,1941.71 C310.844,1942.37 357.963,1942.94 414.584,1942.96 L517.523,1942.99 L527.407,1933.39 C532.834,1928.11 546.509,1914.77 557.78,1903.75 L578.283,1883.72 L577.199,1865.34 C576.598,1855.25 573.908,1816.17 571.204,1778.52 C568.499,1740.87 565.31,1694.22 564.108,1674.85 L561.92,1639.63 L537.676,1608.06 C524.334,1590.69 499.773,1558.3 483.076,1536.08 C457.88,1502.51 451.802,1495.41 447.311,1494.11 C444.338,1493.26 431.498,1488.72 418.792,1484.03 C395.699,1475.48 389.538,1474.42 380.12,1477.3 L380.104,1477.32 Z " fill="#000000" fill-opacity="1.00" />			</g>			<g>				<path d="M-377.276,809.358 L-377.276,1302.78 L506.252,1302.78 L506.252,809.358 L506.252,672.198 L506.252,103.961 C508.033,-140.078 308.527,-337.803 64.4879,-337.803 C-179.551,-337.803 -377.276,-140.078 -377.276,103.961 L-377.276,723.856 L-377.276,809.358 Z " fill="none" />				<path d="M-330.962,264.279 L-238.334,9.55181 L374.435,9.55181 L456.375,264.279 C525.846,46.9592 360.185,-195.298 112.583,-428.649 L92.9888,-391.242 L35.987,-478.526 C-156.394,-266.551 -400.433,-15.3865 -330.962,264.279 Z " fill="none" />				<path d="M345.934,55.8658 L-216.958,55.8658 C-234.772,55.8658 -247.241,70.1162 -247.241,86.148 C-247.241,244.684 -106.517,372.938 64.4879,372.938 C237.275,372.938 376.217,244.684 376.217,86.148 C376.217,70.1162 363.747,55.8658 345.934,55.8658 Z " fill="none" />				<path d="M326.34,55.8658 L-195.583,55.8658 C-195.583,57.647 -197.364,61.2097 -197.364,62.991 L-197.364,95.0545 C-197.364,109.305 -186.676,119.993 -172.426,119.993 L-140.362,119.993 L271.119,119.993 L303.183,119.993 C317.433,119.993 328.121,109.305 328.121,95.0545 L328.121,62.991 C328.121,61.2097 328.121,57.6471 326.34,55.8658 Z " fill="none" />				<path d="M-195.583,86.148 C-117.205,77.2414 -28.14,71.8975 66.2693,71.8975 C160.678,71.8975 249.744,77.2414 328.121,86.148 L328.121,59.4284 C328.121,57.6471 328.121,54.0845 326.34,52.3032 L-195.583,52.3032 C-195.583,54.0845 -197.364,57.6471 -197.364,59.4284 L-195.583,86.148 Z " fill="none" />				<path d="M173.148,266.06 C173.148,205.496 125.052,157.4 66.2692,159.182 C7.4861,159.182 -40.6092,207.277 -40.6092,266.06 C-40.6092,324.843 7.4861,372.938 66.2692,372.938 C125.052,372.938 173.148,324.843 173.148,266.06 Z " fill="none" />				<path d="M-72.6727,344.437 C-31.7026,364.032 14.6113,374.72 64.4879,374.72 C114.364,374.72 160.678,364.032 201.648,344.437 L201.648,317.718 C201.648,303.467 190.961,292.78 176.71,292.78 L160.678,292.78 L-15.6709,292.78 L-47.7344,292.78 C-61.9848,292.78 -72.6727,303.467 -72.6727,317.718 L-72.6727,344.437 L-72.6727,344.437 Z " fill="none" />				<path d="M201.649,344.437 C169.585,355.125 119.708,360.469 64.4879,360.469 C9.26745,360.469 -40.6091,353.344 -72.6726,344.437 C-31.7026,364.032 14.6114,374.72 64.4879,374.72 C114.365,374.72 160.678,364.032 201.649,344.437 Z " fill="none" />				<path d="M44.8936,230.434 C44.8936,241.122 53.8001,248.247 62.7066,248.247 C73.3945,248.247 80.5197,239.34 80.5197,230.434 C80.5197,228.652 80.5197,225.09 80.5197,225.09 L62.7066,159.182 L44.8936,225.09 C46.6749,226.871 44.8936,228.652 44.8936,230.434 Z " fill="none" />				<path d="M242.619,168.088 C267.557,168.088 285.37,150.275 285.37,125.337 C285.37,102.18 265.776,82.5853 242.619,82.5853 C219.462,82.5853 199.867,102.18 199.867,125.337 C199.867,148.494 219.462,168.088 242.619,168.088 Z " fill="none" />				<path d="M-78.0166,-47.45 C-78.0166,-75.9509 -101.174,-99.1079 -129.674,-99.1079 C-158.175,-99.1079 -181.332,-75.9509 -181.332,-47.45 C-181.332,-18.9491 -158.175,4.2079 -129.674,4.2079 C-101.174,4.2079 -78.0166,-18.9491 -78.0166,-47.45 Z " fill="none" />				<path d="M208.774,-15.3865 L308.527,-15.3865 C310.308,-18.9491 310.308,-24.293 310.308,-27.8556 C310.308,-56.3565 287.151,-79.5135 258.65,-79.5135 C230.149,-79.5135 206.992,-56.3565 206.992,-27.8556 C206.992,-24.293 206.992,-18.9491 208.774,-15.3865 Z " fill="none" />			</g>			<g>				<path d="M-722.775,1215.98 C-722.775,1217.76 -722.775,1217.76 -722.775,1215.98 L-722.775,1376.29 C-722.775,1415.48 -690.712,1445.76 -653.304,1445.76 C-614.115,1445.76 -583.833,1415.48 -583.833,1376.29 L-583.833,1285.45 C-583.833,1246.26 -553.551,1215.98 -514.362,1215.98 C-475.174,1215.98 -444.891,1246.26 -444.891,1285.45 L-444.891,1378.07 C-444.891,1417.26 -412.828,1447.55 -375.42,1447.55 C-336.232,1447.55 -305.949,1417.26 -305.949,1378.07 L-305.949,1289.01 C-305.949,1249.82 -275.667,1219.54 -236.479,1219.54 C-197.29,1219.54 -167.008,1249.82 -167.008,1289.01 L-167.008,1379.86 C-167.008,1419.04 -134.944,1449.33 -97.5366,1449.33 C-58.3479,1449.33 -28.0657,1419.04 -28.0657,1379.86 L-28.0657,1289.01 C-28.0657,1249.82 2.2165,1219.54 41.4052,1219.54 C80.594,1219.54 110.876,1249.82 110.876,1289.01 L110.876,1379.86 C110.876,1419.04 142.94,1449.33 180.347,1449.33 C219.536,1449.33 249.818,1419.04 249.818,1379.86 L249.818,1217.76 L248.037,1217.76 C248.037,1217.76 248.037,1217.76 248.037,1215.98 L249.818,1215.98 L249.818,930.967 L249.818,779.556 L249.818,154.317 C251.599,-112.879 30.7174,-331.979 -236.479,-331.979 C-503.675,-331.979 -722.775,-112.879 -722.775,154.317 L-722.775,836.558 L-722.775,930.967 L-722.775,1215.98 Z " fill="none" />				<path d="M18.2483,115.129 C23.5921,115.129 30.7174,113.347 36.0614,108.003 C44.9679,99.0969 44.9679,83.0651 36.0614,74.1586 L-31.6283,6.469 C-40.5348,-2.43752 -56.5666,-2.43752 -65.4731,6.469 C-74.3796,15.3755 -74.3796,31.4073 -65.4731,40.3138 L2.21655,108.003 C5.77914,113.347 12.9044,115.129 18.2483,115.129 Z " fill="none" />				<path d="M-51.2227,115.129 C-45.8788,115.129 -38.7536,113.347 -33.4096,108.003 L34.28,40.3138 C43.1865,31.4073 43.1865,15.3755 34.28,6.469 C25.3735,-2.43752 9.34174,-2.43752 0.435215,6.469 L-67.2544,74.1586 C-76.161,83.0651 -76.161,99.0969 -67.2544,108.003 C-63.6918,113.347 -56.5666,115.129 -51.2227,115.129 Z " fill="none" />				<path d="M-437.766,115.129 C-432.422,115.129 -425.297,113.347 -419.953,108.003 C-411.047,99.0969 -411.047,83.0651 -419.953,74.1586 L-487.643,6.469 C-496.549,-2.43753 -512.581,-2.43753 -521.488,6.469 C-530.394,15.3755 -530.394,31.4073 -521.488,40.3138 L-453.798,108.003 C-450.235,113.347 -443.11,115.129 -437.766,115.129 Z " fill="none" />				<path d="M-505.456,115.129 C-500.112,115.129 -492.987,113.347 -487.643,108.003 L-419.953,40.3138 C-411.047,31.4073 -411.047,15.3755 -419.953,6.469 C-428.86,-2.43752 -444.891,-2.43752 -453.798,6.469 L-521.488,74.1586 C-530.394,83.0651 -530.394,99.0969 -521.488,108.003 C-517.925,113.347 -510.8,115.129 -505.456,115.129 Z " fill="none" />				<path d="M3.99778,175.693 C-3.12743,172.13 -8.47136,168.568 -15.5966,168.568 C-22.7218,168.568 -29.847,170.349 -33.4096,175.693 C-86.8488,225.57 -159.882,254.071 -234.697,254.071 C-311.293,254.071 -382.546,225.57 -432.422,175.693 C-443.11,165.005 -460.923,165.005 -471.611,175.693 C-476.955,181.037 -480.518,188.162 -480.518,195.287 C-480.518,202.413 -476.955,209.538 -471.611,214.882 C-409.265,277.228 -321.981,309.291 -234.697,309.291 C-147.413,309.291 -58.3479,277.228 5.77909,214.882 C11.123,209.538 14.6856,202.413 14.6856,195.287 C14.6856,188.162 11.123,181.037 3.99778,175.693 Z " fill="none" />			</g>		</g>	</svg>