<?xml version="1.0" encoding="utf-8"?>
<svg xmlns="http://www.w3.org/2000/svg" height="2508" viewBox="0 0 2508 2508" width="2508">
<rect fill="#fefefe" height="2508" width="2508"/>
<path d="M1160.88 25.75 c-.89 .19 -3.03 2.1 -4.75 4.24 -3.08 3.83 -3.13 4.07 -3.19&#xA;15.2 -.03 6.22 -.66 25.93 -1.39 43.81 l-1.33 32.5 2.5 3.72 c2.95 4.39 3.15&#xA;4.46 14.77 5.25 33.37 2.26 134.51 9.99 154.49 11.81 l13.49 1.23 .72 5 c.73&#xA;5 2.33 30.26 3.65 57.5 .64 13.11 .93 14.81 3.09 17.71 1.84 2.48 3.31 3.32&#xA;6.47 3.67 2.25 .25 24.56 .38 49.59 .29 l45.5 -.17 .59 -89 c.33 -48.95 .24&#xA;-89.96 -.18 -91.14 -.47 -1.3 -2.47 -2.75 -5.09 -3.68 -4.43 -1.58 -43.34&#xA;-9.17 -75.32 -14.69 -9.9 -1.71 -18.98 -3.35 -20.18 -3.64 -1.59 -.39 -3.4 .6&#xA;-6.75 3.69 l-4.57 4.22 0 15.98 c0 14.64 -.14 15.92 -1.7 15.33 -2.09 -.8&#xA;-19.93 -5.1 -43.3 -10.43 -9.62 -2.2 -29.88 -6.92 -45 -10.51 -22.59 -5.35&#xA;-60.67 -13.99 -77 -17.48 -1.92 -.41 -4.23 -.59 -5.12 -.4z M1072.5 54.06&#xA;c-54.57 23.6 -68.29 29.97 -69.92 32.45 -1.13 1.73 -1.66 10.43 -2.51 41.59&#xA;-2.5 91.66 -4.08 149.72 -5.03 185.4 -.56 20.9 -1.5 55.78 -2.08 77.5 -2.7&#xA;100.03 -2.73 102.42 -1.43 104.31 .69 1 1.03 2.64 .77 3.66 -.47 1.8 4.42 5.5&#xA;17.2 13.02 2.2 1.29 8.73 5.36 14.5 9.04 5.78 3.68 15.22 9.62 21 13.21 5.78&#xA;3.59 16.91 10.63 24.75 15.65 7.83 5.02 14.88 9.12 15.65 9.12 1.93 0 12.74&#xA;-5.73 14.73 -7.81 1.76 -1.83 2.37 -17.52 6.91 -178.19 3 -106.31 6.4 -214.17&#xA;8.04 -255.5 .57 -14.3 1.26 -36.12 1.53 -48.5 l.5 -22.5 -2.8 -3.92 c-1.54&#xA;-2.16 -3.25 -4.05 -3.8 -4.22 -.55 -.16 -17.65 6.9 -38 15.7z M1184.83 167.75&#xA;l-32.67 .28 -3.08 4.18 -3.08 4.18 .04 27.55 .04 27.55 2.42 2.96 2.42 2.96&#xA;18.3 .04 18.3 .04 .27 16.09 .27 16.09 -18.2 .66 c-19.2 .7 -21.27 1.2 -24.22&#xA;5.92 -1.08 1.73 -1.53 9.32 -1.99 33.74 l-.59 31.5 2.42 2.75 2.42 2.75 49.8&#xA;.48 c27.39 .26 94.42 .76 148.96 1.11 l99.16 .63 4.7 -4.33 4.7 -4.33 -.67&#xA;-9.02 c-.37 -4.96 -1.3 -14.65 -2.08 -21.52 -.78 -6.88 -2.09 -19.7 -2.92&#xA;-28.5 -1.79 -19.01 -2.42 -20.1 -11.02 -19.08 -2.77 .33 -25.28 1.04 -50.03&#xA;1.59 -24.75 .55 -62.23 1.46 -83.29 2.03 -21.06 .57 -38.72 .76 -39.25 .43&#xA;-.54 -.34 -.96 -6.83 -.96 -14.93 0 -8.32 -.2 -12.2 1.12 -14.01 1.32 -1.81&#xA;4.15 -1.54 10.21 -1.54 4.49 -0 12.57 -.3 17.94 -.65 l9.78 -.65 3.02 -4.1&#xA;3.02 -4.1 -.3 -26.69 -.3 -26.69 -2.94 -3.06 -2.94 -3.06 -43.06 .24 c-23.68&#xA;.13 -57.77 .36 -75.74 .51z M1443.5 370.66 c-2.2 .17 -24.03 1 -48.5 1.84&#xA;-24.47 .84 -56.42 1.97 -71 2.5 -48.07 1.77 -128.97 4.37 -165.06 5.3 -10.14&#xA;.26 -11.95 .58 -14.75 2.57 -2.84 2.02 -4.04 1.04 -5.14 11 -1.1 9.96 -2.11&#xA;30.86 -4.56 76.63 -.85 15.95 -2 39.12 -2.54 51.5 -.54 12.38 -1.42 30.15&#xA;-1.95 39.5 l-.97 17 5.49 5.41 5.49 5.41 6.74 -1.14 c9.73 -1.64 60.36 -8.18&#xA;63.35 -8.18 .54 0 2.54 -1.69 4.43 -3.75 l3.44 -3.75 -0 -10 c-.01 -15.27&#xA;3.13 -105.93 3.69 -106.5 .27 -.28 7.61 -.64 16.32 -.82 l15.83 -.32 .59 6.32&#xA;c.91 9.79 3.59 80.79 3.59 95.12 -0 13.69 .64 16.18 5.35 20.57 2.36 2.21&#xA;3.27 2.36 12.85 2.21 5.67 -.09 20.65 -.82 33.3 -1.62 12.65 -.8 24.05 -1.46&#xA;25.34 -1.46 1.42 -0 3.58 -1.41 5.5 -3.58 l3.16 -3.57 .5 -58.18 .5 -58.18&#xA;15.46 -.74 c8.5 -.41 15.77 -.41 16.14 0 .76 .83 4.88 70.2 5.8 97.74 l.6 18&#xA;3.31 4.11 3.31 4.11 20.19 .66 c11.11 .36 28.67 .72 39.03 .79 l18.83 .13&#xA;3.56 -3.56 c3.52 -3.52 3.56 -3.67 3.4 -11.4 -.09 -4.31 -.61 -15.04 -1.15&#xA;-23.84 -.55 -8.8 -1.91 -32.2 -3.03 -52 -1.12 -19.8 -2.68 -45.45 -3.47 -57&#xA;-.79 -11.55 -1.93 -28.43 -2.53 -37.5 -1.08 -16.38 -1.11 -16.52 -4.04 -19.25&#xA;-3.05 -2.85 -4.39 -3.02 -16.41 -2.09z M1523.04 514.96 c-1.24 1.24 -6.99&#xA;9.51 -12.8 18.39 l-10.55 16.14 1.11 5 c4.02 18.14 5.99 27.07 7.52 31.98&#xA;1.53 4.91 2.63 5.8 4.92 7.86 l4.26 3.84 10.5 -.58 c5.78 -.32 23.78 -1.04 40&#xA;-1.59 71.74 -2.46 148.66 -5.26 173.94 -6.33 l27.44 -1.17 5.42 -7 c2.98&#xA;-3.85 6.57 -8.71 7.97 -10.79 l2.55 -3.79 -3.91 -4.06 c-2.15 -2.23 -13.98&#xA;-13.08 -26.29 -24.11 -19.1 -17.12 -22.98 -20.17 -26.5 -20.81 -6.66 -1.22&#xA;-28.45 -1.93 -91.12 -2.95 -32.45 -.53 -70.97 -1.26 -85.61 -1.62 l-26.61&#xA;-.66 -2.25 2.25z M877 518.05 c-17.33 .39 -58.95 1.25 -92.5 1.89 -95.96 1.84&#xA;-131.6 2.9 -132.85 3.94 -1.5 1.25 -14.2 26.91 -13.6 27.49 1.17 1.15 50.62&#xA;27.45 90.45 48.1 l15 7.78 84.5 -.63 c46.48 -.34 116.14 -.92 154.82 -1.29&#xA;l70.32 -.66 3.45 -6.86 c4.9 -9.73 7.35 -16.3 6.57 -17.57 -.37 -.6 -8.55&#xA;-5.34 -18.17 -10.53 -9.62 -5.19 -20.41 -11.02 -23.99 -12.95 -12.21 -6.61&#xA;-36.48 -19.49 -50.5 -26.81 -7.7 -4.02 -16.16 -8.58 -18.79 -10.13 l-4.79&#xA;-2.83 -19.21 .16 c-10.56 .09 -33.38 .49 -50.71 .88z M592.5 579.26 c-2.2 .55&#xA;-5.58 1.39 -7.5 1.85 -5.63 1.35 -7.73 6.58 -8.99 22.39 -3.09 38.54 -4.2&#xA;52.05 -6 72.5 -1.08 12.38 -3.56 41.85 -5.5 65.5 -3.23 39.4 -5.71 68.48&#xA;-8.51 100 -2 22.49 -4.97 58 -4.98 59.63 -.01 .99 2.26 2.81 5.74 4.59 70.69&#xA;36.34 104.26 53.27 105.62 53.27 .92 0 2.08 -1.01 2.57 -2.25 1.21 -3.05 5.75&#xA;-50.44 13.06 -136.25 1.12 -13.2 3.4 -39.75 5.06 -59 1.66 -19.25 3.66 -43.1&#xA;4.45 -53 .79 -9.9 2.34 -29.47 3.46 -43.5 1.12 -14.03 2.03 -27.3 2.03 -29.5&#xA;-0 -5.13 -1.77 -11.5 -3.18 -11.5 -.6 0 -19.15 -9.3 -41.2 -20.67 -48.07&#xA;-24.77 -49.25 -25.36 -50.85 -25.2 -.69 .07 -3.05 .58 -5.25 1.13z M1844.5&#xA;591.63 c-4.95 1.92 -13.05 4.99 -18 6.83 -4.95 1.84 -17.23 6.54 -27.29 10.44&#xA;-10.06 3.9 -18.91 7.09 -19.67 7.09 -1.96 0 -7.75 7.64 -7.8 10.28 -.02 1.22&#xA;.96 12.12 2.18 24.22 1.85 18.36 2.8 26.43 2.69 31.87 -.11 5.44 -1.27 8.26&#xA;-3.63 16.13 -2.34 7.79 -5.33 15.55 -6.75 17.5 -1.4 1.92 -7.46 8.36 -13.47&#xA;14.29 l-10.93 10.79 -7.46 -.29 -7.46 -.29 -4.35 -9.5 c-6.81 -14.87 -7.43&#xA;-17.36 -6.47 -26 .46 -4.12 3.59 -21.25 6.97 -38.06 l6.14 -30.56 -4.74 -7.33&#xA;-4.74 -7.33 -8.61 .62 c-4.74 .34 -20.09 1.31 -34.11 2.16 -16.08 .97 -23.81&#xA;1.4 -27.92 2.16 -4.11 .76 -4.61 1.85 -6.24 4.15 -2.7 3.82 -2.94 4.77 -15.91&#xA;62.91 l-3.84 17.22 1.48 9.28 c4.18 26.2 8.97 44.31 16.39 62.07 l3.26 7.79&#xA;16.42 13.71 c11.49 9.59 17.54 13.97 20.14 14.59 2.04 .48 11.14 2.69 20.22&#xA;4.89 22.3 5.43 26.08 5.34 60.34 -1.34 7.04 -1.37 20.82 -10.69 43.81 -29.63&#xA;4.21 -3.46 8.09 -6.3 8.62 -6.3 .54 0 1.24 1.24 1.57 2.75 6.76 31.64 15.15&#xA;76.09 14.5 76.75 -.69 .69 -154.76 -2.66 -188.48 -4.11 l-15.15 -.65 -4.02&#xA;3.88 c-3.97 3.83 -4.08 4.14 -9.13 25.38 -2.81 11.83 -7.35 30.75 -10.09&#xA;42.06 l-4.98 20.56 3.12 5.77 c1.72 3.17 3.63 5.92 4.26 6.12 .62 .19 67.6&#xA;.91 148.83 1.59 125.86 1.06 147.94 1.04 149.36 -.14 .92 -.76 8.2 -8.95&#xA;16.19 -18.2 l14.52 -16.82 -1.08 -5.22 c-2.47 -11.93 -11.44 -52.6 -15.71&#xA;-71.22 -9.01 -39.29 -12.74 -55.8 -25.96 -115 -7.37 -33 -15.01 -66.75 -16.98&#xA;-75 -5.99 -25.13 -8.36 -35.24 -12.66 -54 -4.7 -20.51 -5.34 -22.53 -7.11&#xA;-22.43 -.7 .04 -5.32 1.64 -10.27 3.56z M1297.5 615.1 c-45.77 5.3 -51 6.05&#xA;-52.61 7.5 -.91 .82 -2.38 4.09 -3.27 7.26 -.89 3.17 -3.14 10.46 -4.99 16.2&#xA;-1.86 5.74 -6.16 19.21 -9.56 29.93 -7.97 25.15 -11.96 37.6 -22.38 70 -4.69&#xA;14.58 -9.9 31 -11.59 36.5 -1.93 6.3 -4.96 13.14 -8.19 18.5 -2.82 4.67 -7.94&#xA;13.55 -11.38 19.72 l-6.24 11.22 4.68 9.47 c2.57 5.21 5.94 12.76 7.49 16.78&#xA;2.17 5.63 3.98 8.4 7.87 12.06 2.78 2.61 5.53 4.75 6.12 4.74 .58 -0 8.26&#xA;-2.74 17.06 -6.09 8.8 -3.35 22.75 -8.47 31 -11.38 l15 -5.29 21 -1.17 c11.55&#xA;-.64 26.17 -1.58 32.48 -2.08 6.32 -.5 11.75 -.59 12.08 -.2 .67 .81 24.51&#xA;73.37 31.01 94.35 l4.22 13.63 4.57 .63 c2.52 .34 16.96 1.06 32.11 1.6 15.14&#xA;.53 30.25 1.18 33.57 1.43 3.32 .25 6.58 .13 7.24 -.28 .66 -.41 3.74 -4.55&#xA;6.84 -9.19 l5.64 -8.45 -3.51 -10 c-4.74 -13.49 -15.16 -41.29 -23.25 -62&#xA;-6.25 -16.01 -15.39 -39.9 -33.47 -87.5 -21.2 -55.82 -37.72 -99.16 -43.65&#xA;-114.5 -5.09 -13.17 -16.57 -44.5 -19.88 -54.25 -.56 -1.64 -6.06 -1.46&#xA;-25.99 .85z m4.17 137.54 c16.31 40.38 17.37 43.22 16.42 43.81 -.44 .27&#xA;-15.04 .81 -32.45 1.19 l-31.64 .69 0 -2.18 c0 -1.2 4.79 -13.76 10.64 -27.91&#xA;5.85 -14.15 12.41 -30.01 14.56 -35.23 5.28 -12.81 6.54 -14.69 8.5 -12.73&#xA;.83 .83 7.11 15.39 13.97 32.37z M1434.5 618.55 c-3.3 .75 -19.72 3.86 -36.5&#xA;6.91 -16.78 3.05 -31.45 5.76 -32.61 6.03 -1.38 .31 -3.29 2.77 -5.48 7.05&#xA;l-3.37 6.57 2.13 5.69 c1.17 3.13 9.62 25.04 18.78 48.69 9.16 23.65 19.06&#xA;49.3 22 57 10.6 27.75 19.87 51.6 33.03 85 13.49 34.24 16.34 41.7 34.72 91&#xA;5.54 14.85 10.35 27.29 10.69 27.64 .34 .35 18.86 .95 41.14 1.34 24.1 .42&#xA;35.22 .86 40.58 -.47 5.35 -1.33 4.94 -4.43 5.95 -11.08 1.23 -8.06 3.12&#xA;-20.56 11.04 -72.93 3.97 -26.28 13.18 -82.35 19.86 -121 2.43 -14.03 7.88&#xA;-46.93 12.12 -73.11 l7.71 -47.61 -3.74 -5.64 c-2.14 -3.23 -2.9 -4.77 -5.44&#xA;-5.32 -2.54 -.55 -6.85 -.1 -16.11 .67 -6.33 .53 -21.4 1.7 -33.5 2.61 l-22&#xA;1.66 -3.15 2.97 c-2.21 2.08 -3.32 4.22 -3.72 7.12 -.31 2.28 -1.5 11.12&#xA;-2.64 19.65 -1.14 8.53 -3.86 28.33 -6.04 44 -5.27 37.85 -11.99 87.32 -12.67&#xA;93.29 -.31 2.7 -1.01 4.64 -1.6 4.44 -.58 -.19 -4.31 -10 -8.28 -21.79 -7.38&#xA;-21.89 -39.06 -115.12 -46.97 -138.23 -2.41 -7.04 -4.88 -14.69 -5.5 -17&#xA;-1.12 -4.19 -2.61 -6.79 -3.8 -6.62 -.35 .05 -3.33 .7 -6.63 1.46z M1125.5&#xA;622.13 c-37.31 1.61 -49.19 2.82 -59 6.03 -11.06 3.62 -17.21 7.02 -29.52&#xA;16.35 -11.84 8.97 -13.35 10.69 -24.39 27.81 l-8.91 13.82 -1.47 10.18 c-3.11&#xA;21.54 -1.06 36.56 8.32 60.75 2.01 5.18 3.88 10.41 4.17 11.61 .34 1.45 -2.75&#xA;8.98 -9.24 22.5 -9.55 19.9 -9.78 20.54 -11.09 31.32 -.74 6.05 -1.63 19.78&#xA;-1.99 30.5 l-.65 19.5 3.57 13.5 c4.61 17.46 10.84 35.37 15.89 45.75 3.35&#xA;6.88 5.04 9.06 10.16 13.12 9.04 7.17 21.7 15.1 37.85 23.69 l14.3 7.61 17.5&#xA;-.64 c33.73 -1.23 83.52 -5.68 123.95 -11.09 l12.45 -1.66 5.3 -4.58 c2.92&#xA;-2.52 5.3 -5.19 5.3 -5.93 0 -.74 2.7 -12.49 6 -26.1 3.3 -13.61 6 -25.5 6&#xA;-26.42 0 -.92 -2.14 -4.87 -4.75 -8.78 l-4.75 -7.11 -7.56 .53 c-4.16 .29&#xA;-12.26 1.2 -18 2.03 -59.78 8.63 -93.12 12.57 -106.44 12.58 l-7 .01 -9.5&#xA;-9.78 c-10.44 -10.75 -16.94 -19.59 -17.58 -23.92 -.23 -1.54 -.68 -9.78 -.99&#xA;-18.31 l-.58 -15.5 7.38 -11.5 c5.44 -8.48 8.28 -11.95 10.83 -13.22 7.71&#xA;-3.86 19.59 -6.72 31.95 -7.71 6.88 -.55 15.88 -1.27 20 -1.6 10.87 -.86&#xA;11.64 -1.12 14.59 -5 2.3 -3.02 3.01 -5.73 4.97 -19.07 1.26 -8.55 2.59&#xA;-18.79 2.96 -22.76 l.68 -7.21 -5.35 -7.2 -5.35 -7.2 -8.5 .01 c-4.67 0 -14.8&#xA;.42 -22.5 .92 -7.7 .5 -19.01 1.22 -25.13 1.61 l-11.13 .71 -3.62 -5.37&#xA;c-3.99 -5.92 -4.44 -9.2 -2.44 -17.84 1.11 -4.79 1.58 -5.36 8 -9.46 10.74&#xA;-6.87 21.99 -8.59 56.14 -8.59 l26.63 0 3.27 -3.59 c3.9 -4.27 5.69 -7.28&#xA;5.74 -9.65 .02 -.96 2.31 -10.11 5.08 -20.33 l5.05 -18.6 -2.7 -4.67 c-1.49&#xA;-2.57 -4 -6.58 -5.59 -8.92 l-2.89 -4.25 -18.2 .16 c-10.01 .09 -26.75 .53&#xA;-37.2 .98z M963.5 626.52 c-3.85 .73 -20.73 3.2 -37.5 5.49 l-30.5 4.16 -3.09&#xA;3.23 -3.09 3.23 -.66 16.94 c-1.22 31.33 -3.75 82.91 -4.21 86 l-.46 3.06&#xA;-22.24 4.21 c-26.74 5.06 -49.74 9.14 -51.59 9.16 -1.07 .01 -1.21 -1.48 -.68&#xA;-7.23 .87 -9.38 6 -62.35 8.62 -88.96 l2.04 -20.71 -2.61 -4.45 c-1.44 -2.45&#xA;-3.17 -4.92 -3.85 -5.48 -.86 -.72 -6.85 -.16 -19.7 1.81 -15.68 2.41 -26.11&#xA;3.88 -61.67 8.69 -6.97 .94 -6.98 .97 -8.21 20.35 -1.65 25.84 -4.96 72.49&#xA;-6.89 97 -1.58 20.11 -1.86 21.73 -4.25 25 -2.75 3.77 -3.85 6.4 -12.46 29.83&#xA;-3.1 8.43 -5.43 15.86 -5.17 16.5 .26 .64 3.67 5.65 7.58 11.11 4.22 5.89&#xA;6.21 7.53 6.73 13.31 .52 5.79 -.42 15.73 -2.08 38.24 -4.93 67.05 -7.25&#xA;96.29 -8.56 108 -.82 7.26 -.7 9.12 .78 12.75 .96 2.34 2.19 4.25 2.74 4.25&#xA;.55 0 20.12 -6.48 43.5 -14.41 51.43 -17.44 54.27 -18.44 55.11 -19.36 .37&#xA;-.4 1.48 -31.67 2.47 -69.48 .99 -37.81 2.05 -69.16 2.36 -69.65 .97 -1.55&#xA;73.78 -17.71 74.88 -16.61 .55 .55 -2.95 87.03 -5.45 134.66 l-.61 11.64 3.28&#xA;4.86 c1.81 2.67 3.42 5.03 3.58 5.23 .16 .21 12.35 -3.54 27.09 -8.33 14.73&#xA;-4.79 34.62 -11.25 44.19 -14.35 l17.4 -5.65 -.61 -14.02 c-.34 -7.71 -1.31&#xA;-27.97 -2.16 -45.02 -2 -40.17 -3.29 -78.74 -2.75 -82.39 .26 -1.76 1.3 -3.28&#xA;2.69 -3.91 1.79 -.82 3.86 -5.34 9.9 -21.68 4.2 -11.36 7.64 -21.09 7.64&#xA;-21.62 0 -.53 -3.21 -5.76 -7.14 -11.62 l-7.14 -10.65 1.68 -14.07 c.92 -7.74&#xA;4.19 -33.05 7.26 -56.25 l5.58 -42.18 -3.68 -6.07 c-4.21 -6.92 -4.76 -7.06&#xA;-18.04 -4.55z M1327.5 975.09 c-6.6 .44 -19.42 1.26 -28.5 1.82 -18.35 1.13&#xA;-24.75 2.7 -63.5 15.53 -26.97 8.93 -43.17 15.93 -47.33 20.44 -3.78 4.1&#xA;-25.35 31.09 -41.38 51.78 -5.89 7.61 -12.6 16.2 -14.89 19.09 l-4.18 5.26&#xA;-.47 24.78 -.47 24.78 4.52 8.96 c14.73 29.19 32 60.22 34.95 62.81 l3.26&#xA;2.85 14 -.61 c7.7 -.33 21.88 -1.05 31.5 -1.59 9.62 -.54 31.18 -1.66 47.9&#xA;-2.48 16.72 -.82 30.51 -1.62 30.63 -1.76 .12 -.14 1.2 -4.76 2.39 -10.26&#xA;1.19 -5.5 2.53 -11.64 2.99 -13.65 .99 -4.35 .95 -4.41 -5.41 -8.78 -2.75&#xA;-1.89 -16.36 -11.89 -30.25 -22.23 l-25.25 -18.8 0 -16.63 0 -16.63 13.75&#xA;-13.7 13.75 -13.7 8.5 -2.1 c17.74 -4.37 41.9 -7.58 66.5 -8.82 l12 -.61&#xA;20.64 11 c11.35 6.05 22.42 12.12 24.6 13.49 l3.95 2.5 .58 22.33 c.43 16.38&#xA;.27 22.77 -.6 23.98 -.65 .91 -7.49 8.78 -15.21 17.5 -7.72 8.72 -15.71 17.93&#xA;-17.76 20.47 l-3.73 4.62 5.07 11.38 c2.79 6.26 5.77 12.46 6.63 13.78 l1.56&#xA;2.39 14.63 -.66 c8.05 -.36 33.98 -1.1 57.63 -1.65 24.49 -.56 35.05 -.48&#xA;40.56 -1.69 5.51 -1.21 5.98 -3.72 10.29 -9.47 l4.25 -5.67 1.23 -22.33 c1.44&#xA;-26.18 3.1 -69.89 3.34 -88.23 l.17 -12.9 -3 -2.6 c-2.68 -2.32 -10.15 -8.18&#xA;-46.85 -36.74 -11.77 -9.15 -46.98 -35.93 -48.46 -36.84 -.56 -.35 -3.74&#xA;-1.07 -7.06 -1.61 -3.32 -.53 -13.05 -2.99 -21.62 -5.45 -15.38 -4.41 -15.77&#xA;-4.47 -29.72 -4.33 -7.77 .08 -19.53 .51 -26.13 .94z M1073.5 1003.56 c-3.85&#xA;.71 -25.22 4.49 -47.5 8.4 -22.27 3.91 -45.32 7.96 -51.21 9 -12.17 2.15&#xA;-12.34 2.23 -16.65 7.19 l-3.17 3.65 -.98 42.85 c-.54 23.57 -1.43 59.72&#xA;-1.98 80.35 -.55 20.62 -1.46 55.28 -2.01 77 -.56 21.72 -1.45 55.7 -1.98&#xA;75.5 -.53 19.8 -1.65 64.12 -2.48 98.5 -.83 34.38 -2.2 88.15 -3.04 119.5&#xA;-.84 31.35 -1.95 74.55 -2.48 96 -.52 21.45 -1.41 55.65 -1.98 76 -.56 20.35&#xA;-1.48 57.25 -2.03 82 -.56 24.75 -1.47 62.55 -2.02 84 -1.92 74.09 -2.66&#xA;122.02 -1.98 128.5 .48 4.58 2.1 9.61 5.45 17 5.56 12.26 13.18 31.13 18.58&#xA;46 2.1 5.78 6.27 16.12 9.28 23 3.01 6.88 8.87 20.82 13.01 31 11.35 27.82&#xA;56.33 139.26 56.98 141.17 1 2.92 9.77 3.26 22.2 .86 6.05 -1.17 12.19 -2.35&#xA;13.65 -2.64 1.63 -.31 3.73 -2.06 5.42 -4.5 l2.76 -3.99 1.3 -97.2 c1.29&#xA;-96.94 2.52 -203.5 4.37 -378.7 .54 -50.88 1.43 -122.42 1.98 -159 .56 -36.58&#xA;1.46 -111.95 2.01 -167.5 .55 -55.55 1.45 -136.55 2.01 -180 .55 -43.45 1.45&#xA;-116.28 2.01 -161.83 l1.01 -82.83 -3.26 -5.39 c-3.71 -6.14 -4.33 -6.28&#xA;-17.26 -3.88z M1483 1222.65 c-1.38 .19 -15.78 1.25 -32 2.34 -26.15 1.77&#xA;-40.39 2.8 -96.5 7.03 -7.7 .58 -20.97 1.69 -29.5 2.46 -8.53 .77 -19.55 1.68&#xA;-24.5 2.03 -4.95 .34 -16.88 1.24 -26.5 2 -9.62 .76 -21.55 1.64 -26.5 1.96&#xA;-4.95 .32 -21.15 1.45 -36 2.51 -14.85 1.07 -34.42 2.42 -43.5 3 -16.17 1.04&#xA;-23.61 1.39 -27.83 2.49 -4.22 1.1 -5.21 2.95 -8.5 6.98 l-4.42 5.43 -.46&#xA;38.81 -.46 38.81 2.93 5.25 c1.61 2.89 3.3 5.25 3.76 5.25 .46 0 15.83 -1.82&#xA;34.15 -4.05 45.12 -5.48 59.96 -7.14 60.33 -6.77 .17 .17 .63 4.86 1.02 10.41&#xA;l.71 10.1 -11.87 6.8 c-6.53 3.74 -17.72 10.26 -24.87 14.49 -17.7 10.47&#xA;-50.93 29.74 -56.79 32.92 -2.63 1.43 -6.46 4.31 -8.5 6.39 l-3.71 3.8 -.26&#xA;48.7 -.26 48.7 3.76 4.23 c4.48 5.03 26.43 15.79 29.2 14.3 2 -1.07 38.51&#xA;-31.9 64.96 -54.85 11.21 -9.73 24.71 -21.43 30 -25.99 5.29 -4.57 14 -12.11&#xA;19.36 -16.75 5.36 -4.64 10.23 -8.45 10.82 -8.45 .59 0 3.4 1.99 6.25 4.41&#xA;20.15 17.15 64.16 52.22 68.68 54.72 l5.5 3.04 26.5 .15 c21.94 .12 29.68&#xA;-.24 45 -2.09 l18.5 -2.24 4 -4.3 c2.2 -2.37 11.01 -12.15 19.59 -21.75 8.57&#xA;-9.59 19.37 -21.66 24 -26.81 4.63 -5.15 10.09 -11.29 12.15 -13.64 l3.73&#xA;-4.27 .05 -81.19 .05 -81.19 -10.17 -17.92 -10.17 -17.92 -4.62 .15 c-2.54&#xA;.08 -5.74 .31 -7.12 .5z m-60.62 128.54 l.7 36.19 -3.58 5.2 c-2.92 4.24&#xA;-4.22 6.3 -6.87 7.34 -2.65 1.04 -6.65 1.05 -14.96 1.21 l-14.84 .28 -8.66&#xA;-7.44 c-4.77 -4.09 -16.58 -14.04 -26.27 -22.11 l-17.6 -14.67 -1.29 -15.61&#xA;c-.71 -8.58 -1.06 -15.84 -.78 -16.12 .98 -.98 79.61 -9.93 90.87 -10.35&#xA;l2.59 -.1 .7 36.19z M1312.5 1515.97 c-3.3 .44 -9.38 1.12 -13.5 1.52 -6.93&#xA;.67 -29.48 8.35 -64.5 21.98 -3.3 1.28 -12.53 4.87 -20.5 7.96 -13.11 5.09&#xA;-14.96 6.11 -19.27 10.69 -4.88 5.18 -16.44 20.14 -52.9 68.49 l-20.67 27.41&#xA;-.71 6.64 c-.39 3.65 -.42 10.96 -.06 16.24 .97 14.24 3.54 58.66 4.28 73.94&#xA;.46 9.51 1.06 13.75 2.07 14.76 .78 .78 1.85 2.97 2.37 4.85 .5 1.82 .75 2.73&#xA;5.8 6.61 5.05 3.88 14.89 10.72 34.59 24.41 24.76 17.21 37.31 25.54 38.48&#xA;25.54 .59 0 3.65 1.29 6.8 2.86 7.3 3.64 7.82 3.76 27.9 6.14 28.93 3.43&#xA;55.92 4.58 74.03 3.16 19.33 -1.52 22.21 -2 49.79 -8.28 28.54 -6.5 35 -8.35&#xA;58.92 -16.84 15.46 -5.49 22.89 -8.06 28.09 -11.09 5.2 -3.03 8.16 -6.53&#xA;14.69 -13.89 17.73 -19.96 46.07 -51.22 60.2 -66.4 l12.9 -13.86 -1.18 -17.14&#xA;c-1.42 -20.71 -2.66 -36.21 -5.15 -64.64 -1.04 -11.83 -2.18 -25.43 -2.55&#xA;-30.23 l-.66 -8.73 -6.13 -5.32 c-7.33 -6.37 -40.6 -33.71 -60.12 -49.41&#xA;-11.85 -9.53 -14.68 -11.35 -18.5 -11.9 -2.48 -.36 -5.64 -1.25 -7.01 -1.99&#xA;-1.38 -.73 -8.35 -1.83 -15.5 -2.44 -15.69 -1.34 -103.56 -2.12 -112 -1z&#xA;m96.23 105.19 c11.2 5.41 20.74 9.84 21.2 9.84 2.23 0 3.12 3.88 4.02 17.58&#xA;.54 8.21 1.28 18.53 1.65 22.95 l.66 8.03 -18.88 17.59 c-13.33 12.42 -19.1&#xA;18.04 -23.99 21.26 -4.9 3.22 -8.92 4.03 -18.74 6.83 -25.49 7.27 -66.88&#xA;15.76 -76.81 15.76 -3.86 0 -32.72 -5.48 -42.84 -8.14 -8.2 -2.15 -17.91 -5.8&#xA;-25.13 -9.44 -4.18 -2.11 -4.69 -2.75 -5.25 -6.63 -1.83 -12.63 -2.48 -24.59&#xA;-1.93 -35.49 l.62 -12.2 19.5 -18.8 c12.43 -11.99 20.8 -19.29 23.1 -20.15&#xA;1.98 -.74 17.33 -5.55 34.1 -10.68 l30.5 -9.33 28.93 .59 28.93 .59 20.37&#xA;9.84z M1458 1832.55 c-27.46 5.79 -74.38 19.09 -79.46 22.53 -1.97 1.33 -7.93&#xA;7.59 -13.25 13.92 -5.32 6.33 -12.65 14.88 -16.3 19 -3.65 4.12 -10 11.58&#xA;-14.11 16.56 -12.61 15.26 -54.56 64.18 -66.83 77.94 -6.38 7.15 -13.77 15.59&#xA;-16.44 18.75 l-4.84 5.75 -9.13 -.01 c-11.89 -.01 -16.43 -.8 -17.12 -2.96&#xA;-.3 -.94 -.1 -12.61 .45 -25.91 .99 -24.15 1 -24.2 3.77 -28.08 1.53 -2.14&#xA;10.23 -13.49 19.33 -25.22 l16.55 -21.33 -4.06 -11.89 c-2.93 -8.59 -4.61&#xA;-12.11 -6.05 -12.69 -2.98 -1.2 -73.75 -11.57 -91.57 -13.41 l-6.57 -.68&#xA;-6.65 7.43 c-6.85 7.66 -8.17 10.33 -16.66 33.76 -1.49 4.12 -5.78 15.6 -9.53&#xA;25.5 l-6.81 18 .61 22.5 c1.08 39.82 5.1 77.76 9.07 85.6 2.64 5.21 18.84&#xA;20.87 44 42.53 7.33 6.31 10.83 9.36 13.7 11.17 2.87 1.81 5.11 2.4 9.92 3.77&#xA;7.9 2.25 9.95 2.41 29 2.21 29.39 -.31 38.39 -1.53 65.33 -8.9 8.19 -2.24&#xA;14.7 -4.69 18 -6.78 2.84 -1.8 5.91 -3.54 6.82 -3.87 .91 -.33 4.48 -4.34&#xA;7.94 -8.92 3.46 -4.58 11.54 -15.07 17.95 -23.32 11.06 -14.22 17.09 -22.1&#xA;48.95 -64.03 7.42 -9.77 16.88 -22.08 21.02 -27.37 4.14 -5.28 10.61 -13.88&#xA;14.38 -19.1 8.31 -11.51 8.58 -11.74 13.32 -11.44 2.08 .13 5.86 .28 8.4 .34&#xA;2.72 .06 4.02 -.1 4.85 2.4 .83 2.5 1.2 7.66 2.05 18.36 .57 7.07 1.25 13.84&#xA;1.51 15.05 .44 2 -5.38 11.19 -29.19 46.1 -.94 1.38 -.34 3.6 3.15 11.7 l4.31&#xA;10 51.35 .03 51.35 .03 13.5 -6.88 c7.42 -3.78 13.58 -6.96 13.69 -7.05 .5&#xA;-.46 -9.05 -103.14 -11.68 -125.7 -.55 -4.71 -1 -10.48 -1 -12.82 0 -5.61&#xA;-.96 -7.17 -7.87 -12.84 -3.21 -2.63 -10.96 -9.3 -17.23 -14.83 -6.27 -5.53&#xA;-15.22 -13.18 -19.9 -17 -4.67 -3.82 -12.04 -9.99 -16.37 -13.7 -4.57 -3.92&#xA;-6.75 -5.87 -9.89 -6.38 -3.15 -.52 -7.27 .4 -15.74 2.18z M1469.5 2085.09&#xA;c-1.65 .51 -13.35 3.62 -26 6.93 -52.77 13.78 -55.85 14.71 -58 17.6 -1.1&#xA;1.47 -6.88 9.03 -12.84 16.78 -10.58 13.77 -42.89 56.11 -51.45 67.43 -2.36&#xA;3.12 -9.82 12.87 -16.58 21.67 -6.76 8.8 -20.58 26.99 -30.71 40.41 -10.13&#xA;13.43 -20.68 27.38 -23.44 31 l-5.02 6.59 -12.22 -.02 c-10.33 -.01 -12.49&#xA;-.29 -13.98 -1.78 -1.58 -1.58 -1.8 -4.45 -2.08 -26.75 l-.31 -24.99 6.81&#xA;-10.55 c3.75 -5.8 12.07 -18.47 18.49 -28.16 l11.67 -17.61 -2.81 -7.57&#xA;c-5.68 -15.26 -6.59 -16.74 -10.77 -17.36 -38.1 -5.62 -62.29 -9.25 -77.76&#xA;-11.68 l-19 -2.98 -9.75 9.73 -9.75 9.73 -1.51 8.49 c-3.88 21.78 -11.77&#xA;79.74 -13.94 102.49 -.84 8.8 -1.97 19.48 -2.51 23.74 l-.98 7.74 9.47 32.76&#xA;c9.22 31.89 13.29 46.36 15.95 53.75 2.65 7.39 3.88 7.7 7.38 11.28 l6.15&#xA;6.26 73.33 -.04 73.33 -.04 3.08 -3.23 c1.7 -1.77 11.25 -13.8 21.24 -26.73&#xA;9.99 -12.93 21.88 -28.22 26.42 -34 4.55 -5.78 13.29 -17.03 19.43 -25 6.14&#xA;-7.97 19.53 -25.3 29.76 -38.5 10.23 -13.2 24.03 -31.2 30.68 -40 6.65 -8.8&#xA;14.08 -18.36 16.53 -21.25 l4.45 -5.25 9.29 0 9.29 0 .53 7.25 c1.81 24.86&#xA;2.75 36.61 2.49 43.05 -.25 6.45 -1.69 7.59 -4.62 11.25 -4.14 5.17 -31.66&#xA;41.15 -39.48 51.63 -1.51 2.03 -2.76 4.28 -2.76 5 -.02 2.27 9.34 28.28 10.45&#xA;29.05 .58 .4 28.8 .74 62.71 .75 l61.65 .02 5.92 -5.75 c3.25 -3.16 11.44&#xA;-11.15 18.19 -17.75 l12.28 -12 -.65 -11 c-.36 -6.05 -1.97 -29.45 -3.59 -52&#xA;-1.62 -22.55 -3.53 -50.49 -4.25 -62.09 l-1.31 -21.09 -14.52 -18.91 c-7.99&#xA;-10.4 -22.7 -29.8 -32.7 -43.11 -15.09 -20.1 -18.73 -24.36 -21.42 -25.13&#xA;-1.78 -.51 -9.47 -3.23 -17.08 -6.04 -13.83 -5.12 -17.52 -5.76 -23.16 -4.03z" fill="#000000" fill-rule="evenodd" stroke="#000000" stroke-linejoin="round" stroke-width="0.80"/>
<path d="M1160.88 25.75 c-.89 .19 -3.03 2.1 -4.75 4.24 -3.08 3.83 -3.13 4.07 -3.19&#xA;15.2 -.03 6.22 -.66 25.93 -1.39 43.81 l-1.33 32.5 2.53 3.77 c1.39 2.07 3.48&#xA;3.98 4.64 4.23 1.16 .25 12 1.15 24.1 2 44.63 3.11 118.8 8.8 140.49 10.78&#xA;l13.49 1.23 .72 5 c.79 5.43 2.52 33.24 3.37 54 .7 17.18 .96 18.55 4.19&#xA;22.08 l2.75 3.01 48.99 -.04 48.99 -.04 .61 -89 c.34 -48.95 .25 -89.96 -.18&#xA;-91.14 -.48 -1.29 -2.51 -2.75 -5.11 -3.68 -4.43 -1.58 -43.34 -9.17 -75.32&#xA;-14.69 -9.9 -1.71 -18.98 -3.35 -20.18 -3.64 -1.59 -.39 -3.4 .6 -6.75 3.69&#xA;l-4.57 4.22 0 15.98 c0 14.64 -.14 15.92 -1.7 15.33 -2.09 -.8 -19.93 -5.1&#xA;-43.3 -10.43 -9.62 -2.2 -29.88 -6.92 -45 -10.51 -22.59 -5.35 -60.67 -13.99&#xA;-77 -17.48 -1.92 -.41 -4.23 -.59 -5.12 -.4z M1072.5 54.06 c-54.57 23.6&#xA;-68.29 29.97 -69.92 32.45 -1.13 1.73 -1.66 10.43 -2.51 41.59 -2.5 91.66&#xA;-4.08 149.72 -5.03 185.4 -.56 20.9 -1.5 55.78 -2.08 77.5 -2.7 100.03 -2.73&#xA;102.42 -1.43 104.31 .69 1 1.03 2.64 .77 3.66 -.47 1.8 4.42 5.5 17.2 13.02&#xA;2.2 1.29 8.73 5.35 14.5 9.02 45.05 28.62 60.2 37.99 61.4 37.99 1.92 0 12.73&#xA;-5.74 14.72 -7.81 1.83 -1.91 3.14 -38.4 8.87 -247.19 .57 -20.62 1.47 -50.55&#xA;2 -66.5 .54 -15.95 1.44 -43.62 2.01 -61.5 .57 -17.88 1.5 -44.2 2.06 -58.5&#xA;.56 -14.3 1.25 -36.12 1.52 -48.5 l.5 -22.5 -2.8 -3.92 c-1.54 -2.16 -3.25&#xA;-4.05 -3.8 -4.22 -.55 -.16 -17.65 6.9 -38 15.7z M1184.83 167.75 l-32.67 .28&#xA;-3.08 4.18 -3.08 4.18 .04 27.55 .04 27.55 2.42 2.96 2.42 2.96 18.3 .04 18.3&#xA;.04 .27 16.09 .27 16.09 -18.2 .66 c-19.2 .7 -21.27 1.2 -24.22 5.92 -1.08&#xA;1.73 -1.53 9.32 -1.99 33.74 l-.59 31.5 2.42 2.75 2.42 2.75 49.8 .48 c27.39&#xA;.26 94.42 .76 148.96 1.11 l99.16 .63 4.7 -4.33 4.7 -4.33 -.67 -9.02 c-.37&#xA;-4.96 -1.3 -14.65 -2.08 -21.52 -.78 -6.88 -2.09 -19.7 -2.92 -28.5 -1.8&#xA;-19.01 -2.42 -20.1 -11.02 -19.08 -2.77 .33 -25.28 1.04 -50.03 1.59 -24.75&#xA;.55 -62.23 1.46 -83.29 2.03 -21.06 .57 -38.72 .77 -39.25 .44 -.54 -.34 -.96&#xA;-6.83 -.96 -14.93 0 -8.32 -.2 -12.2 1.12 -14.01 1.32 -1.81 4.15 -1.54 10.21&#xA;-1.54 4.49 -0 12.57 -.3 17.94 -.65 l9.78 -.65 3.02 -4.1 3.02 -4.1 -.3&#xA;-26.69 -.3 -26.69 -2.94 -3.06 -2.94 -3.06 -43.06 .24 c-23.68 .13 -57.77 .36&#xA;-75.74 .51z M1446 370.56 c-.83 .18 -17.47 .81 -37 1.41 -19.53 .6 -45.85&#xA;1.51 -58.5 2.04 -12.65 .52 -37.17 1.41 -54.5 1.98 -17.33 .57 -44.55 1.51&#xA;-60.5 2.09 -15.95 .58 -42.3 1.38 -58.55 1.78 -28.58 .7 -29.65 .8 -32.75 3&#xA;-2.85 2.03 -4.05 1.05 -5.15 11 -1.1 9.96 -2.11 30.86 -4.56 76.64 -.85 15.95&#xA;-2 39.12 -2.54 51.5 -.54 12.38 -1.42 30.15 -1.95 39.5 l-.97 17 5.49 5.41&#xA;5.49 5.41 6.74 -1.14 c9.73 -1.64 60.36 -8.18 63.35 -8.18 .54 0 2.54 -1.69&#xA;4.43 -3.75 l3.44 -3.75 -0 -10 c-.01 -15.27 3.13 -105.93 3.69 -106.5 .27&#xA;-.28 7.61 -.64 16.32 -.82 l15.83 -.32 .59 6.32 c.91 9.79 3.59 80.79 3.59&#xA;95.12 -0 13.69 .64 16.18 5.35 20.57 2.36 2.21 3.27 2.36 12.85 2.21 5.67&#xA;-.09 20.65 -.82 33.3 -1.62 12.65 -.8 24.05 -1.46 25.34 -1.46 1.42 -0 3.58&#xA;-1.41 5.5 -3.58 l3.16 -3.57 .5 -58.18 .5 -58.18 15.46 -.74 c8.5 -.41 15.77&#xA;-.41 16.14 0 .76 .83 4.88 70.2 5.8 97.74 l.6 18 3.31 4.11 3.31 4.11 20.19&#xA;.66 c11.11 .36 28.67 .72 39.03 .79 l18.83 .13 3.56 -3.56 c3.52 -3.52 3.56&#xA;-3.67 3.4 -11.4 -.09 -4.31 -.61 -15.04 -1.15 -23.84 -.55 -8.8 -1.91 -32.2&#xA;-3.03 -52 -1.12 -19.8 -2.68 -45.45 -3.47 -57 -.79 -11.55 -1.93 -28.43 -2.53&#xA;-37.5 -1.08 -16.38 -1.11 -16.52 -4.04 -19.25 -2.41 -2.25 -3.8 -2.73 -7.68&#xA;-2.63 -2.6 .06 -5.41 .26 -6.23 .44z M1523.04 514.96 c-1.23 1.23 -6.99 9.51&#xA;-12.8 18.39 l-10.55 16.14 1.11 5 c4.02 18.14 5.98 27.07 7.52 31.98 1.53&#xA;4.91 2.63 5.81 4.92 7.87 l4.26 3.84 10 -.58 c5.5 -.32 23.95 -1.04 41 -1.61&#xA;60.57 -2.02 162.36 -5.75 186.44 -6.84 l14.44 -.65 5.42 -7 c2.98 -3.85 6.57&#xA;-8.71 7.97 -10.79 l2.55 -3.79 -3.91 -4.06 c-2.15 -2.23 -13.98 -13.08 -26.29&#xA;-24.11 -19.1 -17.12 -22.98 -20.17 -26.5 -20.81 -6.69 -1.23 -28.61 -1.94&#xA;-90.62 -2.95 -32.17 -.52 -70.7 -1.25 -85.61 -1.61 l-27.11 -.66 -2.24 2.24z&#xA;M877 518.05 c-17.33 .39 -58.95 1.25 -92.5 1.89 -86.67 1.67 -131.4 2.88&#xA;-132.56 3.6 -1.05 .65 -13.94 25.84 -13.94 27.24 0 .44 3.26 2.54 7.25 4.67&#xA;3.99 2.13 14.9 8.01 24.25 13.08 9.35 5.07 29.83 15.86 45.5 23.98 l28.5&#xA;14.76 84.5 -.64 c46.48 -.35 116.14 -.93 154.82 -1.3 l70.32 -.66 3.45 -6.86&#xA;c4.9 -9.73 7.35 -16.3 6.57 -17.57 -.37 -.6 -8.55 -5.34 -18.17 -10.53 -9.62&#xA;-5.19 -20.41 -11.02 -23.99 -12.95 -12.21 -6.61 -36.48 -19.49 -50.5 -26.81&#xA;-7.7 -4.02 -16.16 -8.58 -18.79 -10.13 l-4.79 -2.83 -19.21 .16 c-10.56 .09&#xA;-33.38 .49 -50.71 .88z M592.5 579.26 c-2.2 .55 -5.58 1.39 -7.5 1.85 -5.63&#xA;1.35 -7.73 6.58 -8.99 22.39 -3.09 38.54 -4.2 52.05 -6 72.5 -1.08 12.38&#xA;-3.56 41.85 -5.5 65.5 -3.23 39.4 -5.71 68.48 -8.51 100 -2 22.49 -4.97 58&#xA;-4.98 59.63 -.01 .99 2.26 2.81 5.74 4.59 70.69 36.34 104.26 53.27 105.62&#xA;53.27 1.66 0 2.43 .35 3.55 -7.56 1.11 -7.91 2.57 -24.1 5.57 -57.17 1.89&#xA;-20.78 4.58 -51.27 5.99 -67.77 1.41 -16.5 3.92 -45.75 5.58 -65 3.11 -36&#xA;4.33 -50.97 8.05 -98.63 1.98 -25.41 2.01 -34.74 .12 -37.37 -.4 -.55 -7.25&#xA;-4.25 -15.22 -8.21 -7.98 -3.97 -24.17 -12.22 -36 -18.33 -36.07 -18.65&#xA;-40.75 -20.96 -42.15 -20.83 -.74 .07 -3.15 .58 -5.35 1.13z M1844.5 591.61&#xA;c-4.95 1.93 -13.05 5.02 -18 6.86 -4.95 1.84 -17.23 6.54 -27.29 10.44 -10.06&#xA;3.9 -18.91 7.09 -19.67 7.09 -1.96 0 -7.75 7.64 -7.8 10.28 -.02 1.22 .96&#xA;12.12 2.18 24.22 1.85 18.36 2.8 26.43 2.69 31.87 -.11 5.44 -1.27 8.26 -3.63&#xA;16.13 -2.34 7.79 -5.33 15.55 -6.75 17.5 -1.4 1.92 -7.46 8.36 -13.47 14.29&#xA;l-10.93 10.79 -7.46 -.29 -7.46 -.29 -4.35 -9.5 c-6.81 -14.87 -7.43 -17.36&#xA;-6.47 -26 .46 -4.12 3.59 -21.25 6.97 -38.06 l6.14 -30.56 -4.74 -7.33 -4.74&#xA;-7.33 -8.61 .62 c-4.74 .34 -20.09 1.31 -34.11 2.16 -16.08 .97 -23.81 1.4&#xA;-27.92 2.16 -4.11 .76 -4.61 1.85 -6.24 4.15 -2.7 3.82 -2.94 4.77 -15.91&#xA;62.91 l-3.84 17.22 1.48 9.28 c4.18 26.2 8.97 44.31 16.39 62.07 l3.26 7.79&#xA;16.42 13.71 c11.49 9.59 17.54 13.97 20.14 14.59 2.04 .48 11.14 2.69 20.22&#xA;4.89 22.3 5.43 26.08 5.34 60.34 -1.34 7.04 -1.37 20.82 -10.69 43.81 -29.63&#xA;4.21 -3.46 8.09 -6.3 8.62 -6.3 .54 0 1.24 1.24 1.57 2.75 6.76 31.64 15.15&#xA;76.09 14.5 76.75 -.69 .69 -154.76 -2.66 -188.48 -4.11 l-15.15 -.65 -4.02&#xA;3.88 c-3.97 3.83 -4.08 4.14 -9.13 25.38 -2.81 11.83 -7.35 30.75 -10.09&#xA;42.06 l-4.98 20.56 3.12 5.77 c1.72 3.17 3.63 5.92 4.26 6.12 .62 .19 67.6&#xA;.91 148.83 1.59 125.86 1.06 147.94 1.04 149.36 -.14 .92 -.76 8.2 -8.95&#xA;16.19 -18.2 l14.52 -16.82 -1.08 -5.22 c-2.47 -11.93 -11.44 -52.6 -15.71&#xA;-71.22 -9.01 -39.29 -12.74 -55.8 -25.96 -115 -7.37 -33 -15.01 -66.75 -16.98&#xA;-75 -5.99 -25.13 -8.36 -35.24 -12.66 -54 -4.7 -20.49 -5.34 -22.52 -7.11&#xA;-22.45 -.7 .03 -5.32 1.63 -10.27 3.56z M1297.5 615.1 c-45.77 5.3 -51 6.05&#xA;-52.61 7.5 -.91 .82 -2.38 4.09 -3.27 7.26 -.89 3.17 -3.14 10.46 -4.99 16.2&#xA;-1.86 5.74 -6.16 19.21 -9.56 29.93 -7.97 25.15 -11.96 37.6 -22.38 70 -4.69&#xA;14.58 -9.9 31 -11.59 36.5 -1.93 6.3 -4.96 13.14 -8.19 18.5 -2.82 4.67 -7.94&#xA;13.55 -11.38 19.72 l-6.24 11.22 4.68 9.47 c2.57 5.21 5.94 12.76 7.49 16.78&#xA;2.17 5.63 3.98 8.4 7.87 12.06 2.78 2.61 5.53 4.75 6.12 4.74 .58 -0 8.26&#xA;-2.74 17.06 -6.09 40.21 -15.29 44.66 -16.59 59.5 -17.37 7.42 -.39 22.05&#xA;-1.32 32.5 -2.06 10.45 -.74 19.26 -1.04 19.58 -.66 .66 .78 24.56 73.53&#xA;30.99 94.32 l4.22 13.63 4.52 .62 c2.48 .34 16.71 1.06 31.61 1.6 14.9 .54&#xA;30.04 1.18 33.65 1.42 3.61 .24 7.09 .12 7.74 -.28 .65 -.4 3.71 -4.53 6.81&#xA;-9.18 l5.64 -8.45 -3.51 -10 c-4.74 -13.49 -15.16 -41.29 -23.25 -62 -6.25&#xA;-16.01 -15.39 -39.9 -33.47 -87.5 -21.2 -55.82 -37.72 -99.16 -43.65 -114.5&#xA;-5.09 -13.17 -16.57 -44.5 -19.88 -54.25 -.56 -1.64 -6.06 -1.46 -25.99 .85z&#xA;M1434.5 618.55 c-3.3 .75 -19.72 3.86 -36.5 6.91 -16.78 3.05 -31.45 5.76&#xA;-32.61 6.03 -1.38 .31 -3.29 2.77 -5.48 7.05 l-3.37 6.57 2.13 5.69 c1.17&#xA;3.13 9.62 25.04 18.78 48.69 9.16 23.65 19.06 49.3 22 57 10.6 27.75 19.87&#xA;51.6 33.03 85 13.49 34.24 16.34 41.7 34.72 91 5.54 14.85 10.35 27.29 10.69&#xA;27.64 .34 .35 18.86 .95 41.14 1.34 24.02 .42 35.15 .83 40.52 -.44 5.37&#xA;-1.28 4.98 -4.25 5.95 -10.61 1.65 -10.82 6.83 -45.03 11.11 -73.42 3.93&#xA;-26.1 13.09 -81.94 19.85 -121 2.43 -14.03 7.88 -46.93 12.12 -73.11 l7.71&#xA;-47.61 -3.74 -5.64 c-2.14 -3.23 -2.9 -4.77 -5.44 -5.32 -2.54 -.55 -6.85 -.1&#xA;-16.11 .67 -6.33 .53 -21.4 1.7 -33.5 2.61 l-22 1.66 -3.15 2.97 c-2.21 2.08&#xA;-3.32 4.22 -3.72 7.12 -.31 2.28 -1.5 11.12 -2.64 19.65 -1.14 8.53 -3.86&#xA;28.33 -6.04 44 -5.27 37.85 -11.99 87.32 -12.67 93.29 -.31 2.7 -1.01 4.64&#xA;-1.6 4.44 -.58 -.19 -4.31 -10 -8.28 -21.79 -7.38 -21.89 -39.06 -115.12&#xA;-46.97 -138.23 -2.41 -7.04 -4.88 -14.69 -5.5 -17 -1.12 -4.19 -2.61 -6.79&#xA;-3.8 -6.62 -.35 .05 -3.33 .7 -6.63 1.46z M1124.5 622.15 c-55.48 2.3 -63.85&#xA;4.43 -87.52 22.36 -11.84 8.97 -13.35 10.69 -24.39 27.81 l-8.91 13.82 -1.47&#xA;10.18 c-3.11 21.54 -1.06 36.56 8.32 60.75 2.01 5.18 3.88 10.41 4.17 11.61&#xA;.34 1.45 -2.75 8.98 -9.24 22.5 -9.55 19.9 -9.78 20.54 -11.09 31.32 -.74&#xA;6.05 -1.63 19.78 -1.99 30.5 l-.65 19.5 3.57 13.5 c4.61 17.46 10.84 35.37&#xA;15.89 45.75 3.35 6.88 5.04 9.06 10.16 13.12 9.04 7.17 21.7 15.1 37.85 23.69&#xA;l14.3 7.61 17.5 -.64 c33.74 -1.23 83.51 -5.68 123.97 -11.09 12.37 -1.65&#xA;12.51 -1.7 17.42 -5.99 l4.94 -4.33 5.39 -22.31 c2.97 -12.27 5.88 -24.79&#xA;6.47 -27.83 l1.07 -5.52 -4.88 -7.3 -4.88 -7.3 -7.56 .53 c-4.16 .29 -12.26&#xA;1.2 -18 2.03 -59.78 8.63 -93.12 12.57 -106.44 12.58 l-7 .01 -9.5 -9.78&#xA;c-13.89 -14.29 -16.64 -18.78 -17.94 -29.2 -.58 -4.66 -1.05 -12.99 -1.05&#xA;-18.5 l.01 -10.03 7.3 -11.5 c5.42 -8.54 8.19 -11.94 10.74 -13.22 7.71 -3.86&#xA;19.59 -6.72 31.95 -7.71 6.88 -.55 15.88 -1.27 20 -1.6 10.87 -.86 11.64&#xA;-1.12 14.59 -5 2.3 -3.02 3.01 -5.73 4.97 -19.07 1.26 -8.55 2.59 -18.79 2.96&#xA;-22.76 l.68 -7.21 -5.35 -7.2 -5.35 -7.2 -8.5 .01 c-4.67 0 -14.8 .42 -22.5&#xA;.92 -7.7 .5 -19.01 1.22 -25.13 1.61 l-11.13 .71 -3.62 -5.37 c-3.99 -5.92&#xA;-4.44 -9.2 -2.44 -17.84 1.11 -4.79 1.58 -5.36 8 -9.46 10.74 -6.87 21.99&#xA;-8.59 56.14 -8.59 l26.63 0 3.27 -3.59 c3.9 -4.27 5.69 -7.28 5.74 -9.65 .02&#xA;-.96 2.31 -10.11 5.08 -20.33 l5.05 -18.6 -2.7 -4.67 c-1.49 -2.57 -4 -6.58&#xA;-5.59 -8.92 l-2.89 -4.25 -18.2 .16 c-10.01 .09 -27.2 .54 -38.2 .99z M969.92&#xA;625.41 c-.23 .23 -17.07 2.75 -37.42 5.6 l-37 5.18 -3.09 3.22 -3.09 3.22&#xA;-.66 16.94 c-1.22 31.4 -3.75 82.91 -4.22 86.01 l-.46 3.07 -14.74 2.78&#xA;c-23.77 4.49 -57.63 10.54 -59.07 10.56 -1.03 .01 -1.2 -1.4 -.75 -6.23 1.2&#xA;-12.95 6.7 -70.05 8.67 -89.96 l2.04 -20.71 -2.61 -4.45 c-1.44 -2.45 -3.17&#xA;-4.92 -3.85 -5.48 -.86 -.72 -6.85 -.16 -19.7 1.81 -15.68 2.41 -26.11 3.88&#xA;-61.67 8.69 -6.97 .94 -6.98 .97 -8.21 20.35 -1.65 25.84 -4.96 72.49 -6.89&#xA;97 -1.58 20.11 -1.86 21.73 -4.25 25 -2.75 3.77 -3.85 6.4 -12.46 29.83 -3.1&#xA;8.43 -5.43 15.86 -5.17 16.5 .26 .64 3.67 5.65 7.58 11.11 4.22 5.89 6.21&#xA;7.53 6.73 13.31 .52 5.79 -.42 15.73 -2.08 38.24 -4.93 67.05 -7.25 96.29&#xA;-8.56 108 -.82 7.26 -.7 9.12 .78 12.75 .96 2.34 2.19 4.25 2.74 4.25 .55 0&#xA;20.12 -6.48 43.5 -14.41 51.4 -17.43 54.26 -18.44 55.12 -19.36 .37 -.4 1.48&#xA;-31.66 2.47 -69.48 .99 -37.81 2.04 -69.15 2.35 -69.65 .97 -1.56 73.78&#xA;-17.71 74.88 -16.62 .55 .55 -2.95 87.03 -5.45 134.66 l-.61 11.64 3.28 4.86&#xA;c1.81 2.67 3.42 5.03 3.58 5.23 .16 .21 12.35 -3.54 27.09 -8.33 14.73 -4.79&#xA;34.62 -11.25 44.19 -14.35 l17.4 -5.65 -.65 -15.02 c-.36 -8.26 -1.08 -23.12&#xA;-1.61 -33.02 -1.3 -24.36 -2.93 -65.05 -3.26 -81.34 l-.27 -13.34 2.74 -2.18&#xA;c2.12 -1.69 4.42 -6.74 10.25 -22.46 4.13 -11.15 7.51 -20.72 7.51 -21.26 0&#xA;-.54 -3.21 -5.77 -7.14 -11.63 l-7.14 -10.65 1.68 -14.07 c.92 -7.74 4.19&#xA;-33.05 7.26 -56.25 l5.58 -42.18 -3.68 -6.07 c-3.46 -5.69 -3.92 -6.07 -7.45&#xA;-6.07 -2.07 0 -3.95 .19 -4.18 .41z M1301.67 752.64 c16.31 40.38 17.37 43.22&#xA;16.42 43.81 -.44 .27 -15.04 .81 -32.45 1.19 l-31.64 .69 0 -2.18 c0 -1.2&#xA;4.79 -13.76 10.64 -27.91 5.85 -14.15 12.41 -30.01 14.56 -35.23 5.28 -12.81&#xA;6.54 -14.69 8.5 -12.73 .83 .83 7.11 15.39 13.97 32.37z M1327.5 975.07 c-6.6&#xA;.43 -19.42 1.25 -28.5 1.82 -18.34 1.16 -24.86 2.75 -63.5 15.55 -26.97 8.93&#xA;-43.17 15.93 -47.33 20.44 -3.78 4.1 -25.35 31.09 -41.38 51.78 -5.89 7.61&#xA;-12.6 16.2 -14.89 19.09 l-4.18 5.26 -.47 24.78 -.47 24.78 4.52 8.96 c14.73&#xA;29.19 32 60.22 34.95 62.81 l3.26 2.85 14.5 -.61 c7.97 -.34 22.15 -1.06 31.5&#xA;-1.6 9.35 -.54 30.68 -1.65 47.4 -2.48 16.72 -.82 30.51 -1.61 30.63 -1.76&#xA;.12 -.14 1.2 -4.76 2.39 -10.26 1.19 -5.5 2.53 -11.64 2.99 -13.65 .99 -4.35&#xA;.95 -4.41 -5.41 -8.78 -2.75 -1.89 -16.36 -11.89 -30.25 -22.23 l-25.25 -18.8&#xA;0 -16.63 0 -16.63 13.75 -13.7 13.75 -13.7 8.5 -2.1 c17.74 -4.37 41.9 -7.58&#xA;66.5 -8.82 l12 -.61 20.64 11 c11.35 6.05 22.42 12.12 24.6 13.49 l3.95 2.5&#xA;.58 22.33 c.43 16.38 .27 22.77 -.6 23.98 -.65 .91 -7.49 8.78 -15.21 17.5&#xA;-7.72 8.72 -15.71 17.93 -17.76 20.47 l-3.73 4.62 5.07 11.38 c2.79 6.26 5.77&#xA;12.46 6.63 13.78 l1.56 2.39 14.63 -.66 c8.05 -.36 33.98 -1.1 57.63 -1.65&#xA;24.49 -.56 35.05 -.48 40.56 -1.69 5.51 -1.21 5.98 -3.72 10.29 -9.47 l4.25&#xA;-5.67 1.23 -22.33 c1.44 -26.18 3.1 -69.89 3.34 -88.23 l.17 -12.9 -3 -2.6&#xA;c-2.68 -2.32 -10.15 -8.18 -46.85 -36.74 -11.77 -9.15 -46.98 -35.93 -48.46&#xA;-36.84 -.56 -.35 -3.74 -1.07 -7.06 -1.61 -3.32 -.53 -13.05 -2.99 -21.62&#xA;-5.45 -15.38 -4.41 -15.77 -4.47 -29.72 -4.33 -7.77 .08 -19.53 .5 -26.13 .93z&#xA;M1067.5 1004.61 c-7.15 1.31 -22 3.93 -33 5.83 -11 1.9 -26.52 4.62 -34.5&#xA;6.04 -7.98 1.42 -19.32 3.44 -25.21 4.48 -12.17 2.15 -12.34 2.23 -16.65 7.19&#xA;l-3.17 3.65 -.98 42.85 c-.54 23.57 -1.43 59.72 -1.98 80.35 -.55 20.62 -1.46&#xA;55.28 -2.01 77 -.56 21.72 -1.45 55.7 -1.98 75.5 -.53 19.8 -1.65 64.12 -2.48&#xA;98.5 -.83 34.38 -2.2 88.15 -3.04 119.5 -.84 31.35 -1.95 74.55 -2.48 96 -.52&#xA;21.45 -1.41 55.65 -1.98 76 -.56 20.35 -1.48 57.25 -2.03 82 -.56 24.75 -1.47&#xA;62.55 -2.02 84 -1.92 74.09 -2.66 122.02 -1.98 128.5 .48 4.58 2.1 9.61 5.45&#xA;17 5.56 12.26 13.18 31.13 18.58 46 2.1 5.78 6.27 16.12 9.28 23 3.01 6.88&#xA;8.87 20.82 13.01 31 11.35 27.82 56.33 139.26 56.98 141.17 1 2.92 9.77 3.26&#xA;22.2 .86 6.05 -1.17 12.19 -2.35 13.65 -2.64 1.63 -.31 3.73 -2.06 5.42 -4.5&#xA;l2.76 -3.99 1.3 -97.2 c1.27 -95.27 2.41 -194.27 4.37 -378.2 .54 -50.6 1.43&#xA;-122.15 1.99 -159 .55 -36.85 1.46 -112 2.01 -167 .55 -55 1.45 -136.22 2.01&#xA;-180.5 .56 -44.28 1.46 -117.55 2.01 -162.83 l1 -82.33 -3.26 -5.39 c-1.95&#xA;-3.22 -2.87 -4.82 -5.76 -5.17 -2.88 -.35 -7.73 .55 -17.5 2.34z M1483&#xA;1222.65 c-1.38 .19 -15.78 1.25 -32 2.34 -26.06 1.76 -46.66 3.26 -96 6.99&#xA;-7.42 .56 -20.92 1.68 -30 2.48 -9.08 .8 -19.88 1.7 -24 2 -4.12 .3 -16.28&#xA;1.21 -27 2.03 -10.72 .82 -32.33 2.39 -48 3.49 -15.67 1.1 -35.03 2.46 -43&#xA;3.02 -7.97 .56 -20.85 1.42 -28.62 1.9 -7.77 .49 -15.06 1.38 -16.2 2 -1.15&#xA;.61 -4.07 3.56 -6.5 6.54 l-4.42 5.43 -.46 38.81 -.46 38.81 2.93 5.25 c1.61&#xA;2.89 3.3 5.25 3.76 5.25 .46 0 15.83 -1.82 34.15 -4.05 45.12 -5.48 59.96&#xA;-7.14 60.33 -6.77 .17 .17 .63 4.86 1.02 10.41 l.71 10.1 -11.87 6.8 c-6.53&#xA;3.74 -17.72 10.26 -24.87 14.49 -17.7 10.47 -50.93 29.74 -56.79 32.92 -2.63&#xA;1.43 -6.46 4.31 -8.5 6.39 l-3.71 3.8 -.26 48.7 -.26 48.7 3.76 4.23 c4.48&#xA;5.03 26.43 15.79 29.2 14.3 2 -1.07 38.51 -31.9 64.96 -54.85 11.21 -9.73&#xA;24.71 -21.43 30 -25.99 5.29 -4.57 14 -12.11 19.36 -16.75 5.36 -4.64 10.23&#xA;-8.45 10.82 -8.45 .59 0 3.4 1.99 6.25 4.41 20.15 17.15 64.16 52.22 68.68&#xA;54.72 l5.5 3.04 26.5 .15 c21.94 .12 29.68 -.24 45 -2.09 l18.5 -2.24 4 -4.29&#xA;c2.2 -2.36 11.02 -12.15 19.59 -21.75 8.58 -9.6 19.38 -21.67 24 -26.82 4.62&#xA;-5.15 10.09 -11.29 12.14 -13.64 l3.73 -4.27 .05 -81.19 .05 -81.19 -10.17&#xA;-17.92 -10.17 -17.92 -4.62 .15 c-2.54 .08 -5.74 .31 -7.12 .5z M1422.38&#xA;1351.19 l.7 36.19 -3.58 5.2 c-2.92 4.24 -4.22 6.3 -6.87 7.34 -2.65 1.04&#xA;-6.65 1.05 -14.96 1.21 l-14.84 .28 -8.66 -7.44 c-4.77 -4.09 -16.58 -14.04&#xA;-26.27 -22.11 l-17.6 -14.67 -1.29 -15.61 c-.71 -8.58 -1.06 -15.84 -.78&#xA;-16.12 .98 -.98 79.61 -9.93 90.87 -10.35 l2.59 -.1 .7 36.19z M1312.5&#xA;1515.97 c-3.3 .44 -9.38 1.12 -13.5 1.52 -4.69 .45 -11.43 2.17 -18 4.58&#xA;-16.83 6.17 -40 14.84 -46.5 17.38 -3.3 1.29 -12.53 4.88 -20.5 7.98 -13.11&#xA;5.09 -14.96 6.11 -19.27 10.69 -4.88 5.18 -16.44 20.14 -52.9 68.49 l-20.67&#xA;27.41 -.71 6.64 c-.39 3.65 -.42 10.96 -.06 16.24 .97 14.24 3.54 58.66 4.28&#xA;73.94 .46 9.51 1.06 13.75 2.07 14.76 .78 .78 1.85 2.97 2.37 4.85 .5 1.82&#xA;.75 2.73 5.8 6.61 5.05 3.88 14.89 10.72 34.59 24.41 24.76 17.21 37.31 25.54&#xA;38.48 25.54 .59 0 3.65 1.29 6.8 2.86 7.3 3.64 7.82 3.76 27.9 6.14 28.93&#xA;3.43 55.92 4.58 74.03 3.16 19.33 -1.52 22.21 -2 49.79 -8.28 28.54 -6.5 35&#xA;-8.35 58.92 -16.84 15.46 -5.49 22.89 -8.06 28.09 -11.09 5.2 -3.03 8.16&#xA;-6.54 14.69 -13.89 17.94 -20.2 36.85 -41.06 55.67 -61.39 l17.44 -18.84&#xA;-1.18 -17.16 c-1.42 -20.73 -2.66 -36.23 -5.15 -64.66 -1.04 -11.83 -2.18&#xA;-25.43 -2.55 -30.23 l-.66 -8.73 -6.13 -5.32 c-7.33 -6.37 -40.6 -33.71&#xA;-60.12 -49.41 -11.85 -9.53 -14.68 -11.35 -18.5 -11.9 -2.48 -.36 -5.64 -1.25&#xA;-7.01 -1.99 -1.38 -.73 -8.35 -1.84 -15.5 -2.45 -15.61 -1.34 -103.5 -2.12&#xA;-112 -.99z M1408.73 1621.16 c11.2 5.41 20.74 9.84 21.2 9.84 2.23 0 3.12&#xA;3.88 4.02 17.58 .54 8.21 1.28 18.53 1.65 22.95 l.66 8.03 -18.88 17.59&#xA;c-13.33 12.42 -19.1 18.04 -23.99 21.26 -4.9 3.22 -8.92 4.03 -18.74 6.83&#xA;-25.65 7.31 -66.92 15.77 -76.92 15.76 -3.54 -0 -34.67 -5.99 -44.22 -8.5&#xA;-6.81 -1.79 -16.8 -5.63 -23.63 -9.07 -4.18 -2.11 -4.69 -2.75 -5.25 -6.63&#xA;-1.8 -12.44 -2.43 -24.07 -1.91 -35.23 l.59 -12.45 19.5 -18.8 c12.44 -11.99&#xA;20.8 -19.29 23.1 -20.15 1.98 -.74 17.33 -5.55 34.1 -10.68 l30.5 -9.33 28.93&#xA;.59 28.93 .59 20.37 9.84z M1458 1832.56 c-28 5.91 -74.31 19.04 -79.46 22.52&#xA;-1.97 1.33 -7.94 7.6 -13.26 13.92 -5.32 6.33 -12.65 14.88 -16.3 19 -3.65&#xA;4.12 -10 11.58 -14.11 16.56 -12.61 15.26 -54.56 64.18 -66.83 77.94 -6.38&#xA;7.15 -13.82 15.64 -16.53 18.86 l-4.94 5.86 -12.35 -.41 c-9.35 -.31 -12.58&#xA;-.76 -13.3 -1.86 -.91 -1.39 -.64 -17.43 .7 -41.56 l.56 -10.11 19.22 -24.91&#xA;19.22 -24.91 -4.06 -11.88 c-2.93 -8.58 -4.61 -12.11 -6.05 -12.69 -2.98 -1.2&#xA;-73.75 -11.57 -91.57 -13.41 l-6.57 -.68 -6.65 7.43 c-6.85 7.66 -8.17 10.33&#xA;-16.66 33.76 -1.49 4.12 -5.78 15.6 -9.53 25.5 l-6.81 18 .61 22.5 c1.08&#xA;39.82 5.1 77.76 9.07 85.6 2.64 5.21 18.84 20.87 44 42.53 7.33 6.31 10.83&#xA;9.36 13.7 11.17 2.87 1.81 5.11 2.4 9.92 3.77 7.9 2.25 9.95 2.41 29 2.21&#xA;29.39 -.31 38.39 -1.53 65.33 -8.9 8.19 -2.24 14.7 -4.69 18 -6.78 2.84 -1.8&#xA;5.91 -3.54 6.82 -3.87 .91 -.33 4.48 -4.34 7.94 -8.92 3.46 -4.58 11.54&#xA;-15.07 17.95 -23.32 11.06 -14.22 17.09 -22.1 48.95 -64.03 7.42 -9.77 16.88&#xA;-22.08 21.02 -27.37 4.14 -5.28 10.61 -13.88 14.38 -19.1 8.31 -11.51 8.58&#xA;-11.74 13.32 -11.44 2.08 .13 5.86 .28 8.4 .34 2.72 .06 4.02 -.1 4.85 2.4&#xA;.83 2.5 1.2 7.66 2.05 18.36 .57 7.07 1.25 13.84 1.51 15.05 .44 2 -5.38&#xA;11.19 -29.19 46.1 -.94 1.38 -.34 3.6 3.15 11.7 l4.31 10 51.35 .04 51.35 .04&#xA;13.73 -7 13.73 -7 -.5 -5.04 c-.28 -2.77 -1.4 -15.39 -2.5 -28.04 -2.24&#xA;-25.76 -7.44 -79.46 -8.97 -92.57 -.55 -4.71 -1 -10.73 -1 -13.37 0 -4.24&#xA;-.44 -5.23 -3.76 -8.43 -4.93 -4.77 -30.45 -26.85 -41.24 -35.67 -4.67 -3.83&#xA;-12.04 -9.99 -16.37 -13.71 -4.57 -3.92 -6.75 -5.87 -9.89 -6.38 -3.15 -.52&#xA;-7.27 .4 -15.74 2.19z M1469.5 2085.09 c-1.65 .51 -13.35 3.62 -26 6.93&#xA;-52.77 13.78 -55.85 14.71 -58 17.6 -1.1 1.47 -6.88 9.03 -12.84 16.78 -10.58&#xA;13.77 -42.89 56.11 -51.45 67.43 -2.36 3.12 -9.82 12.87 -16.58 21.67 -6.76&#xA;8.8 -20.58 26.99 -30.71 40.41 -10.13 13.43 -20.68 27.38 -23.44 31 l-5.02&#xA;6.59 -12.22 -.02 c-10.33 -.01 -12.49 -.29 -13.98 -1.78 -1.58 -1.58 -1.8&#xA;-4.45 -2.08 -26.75 l-.31 -24.99 6.81 -10.55 c3.75 -5.8 12.07 -18.47 18.49&#xA;-28.16 l11.67 -17.61 -2.81 -7.57 c-5.68 -15.26 -6.59 -16.74 -10.77 -17.36&#xA;-38.1 -5.62 -62.29 -9.25 -77.76 -11.68 l-19 -2.98 -9.75 9.73 -9.75 9.73&#xA;-1.51 8.49 c-3.88 21.78 -11.77 79.74 -13.94 102.49 -.84 8.8 -1.97 19.48&#xA;-2.51 23.74 l-.98 7.74 9.47 32.76 c9.22 31.89 13.29 46.36 15.95 53.75 2.65&#xA;7.39 3.88 7.7 7.38 11.28 l6.15 6.26 73.33 -.04 73.33 -.04 3.08 -3.23 c1.7&#xA;-1.77 11.25 -13.8 21.24 -26.73 9.99 -12.93 21.88 -28.22 26.42 -34 4.55&#xA;-5.78 13.41 -17.17 19.68 -25.32 6.28 -8.15 18.28 -23.68 26.68 -34.5 8.39&#xA;-10.82 22.09 -28.68 30.44 -39.68 8.35 -11 17.17 -22.36 19.61 -25.25 l4.43&#xA;-5.25 9.29 0 9.29 0 .53 7.25 c1.81 24.86 2.75 36.61 2.49 43.05 -.25 6.45&#xA;-1.69 7.59 -4.62 11.25 -4.14 5.17 -31.66 41.15 -39.48 51.63 -1.51 2.03&#xA;-2.76 4.28 -2.76 5 -.02 2.27 9.34 28.28 10.45 29.05 .58 .4 28.8 .74 62.71&#xA;.75 l61.65 .02 5.92 -5.75 c3.25 -3.16 11.44 -11.15 18.19 -17.75 l12.28 -12&#xA;-.65 -11 c-.36 -6.05 -1.97 -29.45 -3.59 -52 -1.62 -22.55 -3.53 -50.49 -4.25&#xA;-62.09 l-1.31 -21.09 -14.52 -18.91 c-7.99 -10.4 -22.7 -29.8 -32.7 -43.11&#xA;-15.09 -20.1 -18.73 -24.36 -21.42 -25.13 -1.78 -.51 -9.47 -3.23 -17.08&#xA;-6.04 -13.83 -5.12 -17.52 -5.76 -23.16 -4.03z" fill="#000000" fill-rule="evenodd" stroke="#000000" stroke-linejoin="round" stroke-opacity="0.85" stroke-width="0.80"/>
</svg>