<svg xmlns="http://www.w3.org/2000/svg" xmlns:xlink="http://www.w3.org/1999/xlink" version="1.1" viewBox="1321.22 762.08 1453.55 2594.29">		<g id="document" transform="scale(1.0 1.0) translate(2048.0 2048.0)">			<g>				<path d="M-310.123,326.997 C-311.384,370.194 -310.946,412.1 -311.896,454.007 C-314.893,586.243 -316.352,718.514 -318.576,850.769 C-318.772,862.424 -316.381,873.099 -311.357,883.588 C-272.522,964.662 -233.856,1045.82 -195.188,1126.97 C-181.859,1154.94 -168.702,1182.99 -155.395,1210.97 C-152.725,1216.59 -149.795,1222.72 -141.942,1220.36 C-134.867,1218.23 -133.548,1212.19 -134.028,1205.59 C-134.28,1202.11 -134.811,1198.63 -134.765,1195.16 C-132.652,1034.5 -134.153,873.824 -131.893,713.157 C-129.72,558.632 -129.508,404.084 -126.629,249.556 C-124.368,128.21 -124.266,6.82197 -123.301,-114.548 C-123.142,-134.433 -126.395,-137.75 -145.914,-137.375 C-189.116,-136.545 -232.314,-135.515 -275.51,-134.378 C-296.781,-133.818 -302.045,-128.123 -302.499,-106.375 C-303.247,-70.592 -303.234,-34.8067 -304.137,0.987142 C-306.867,109.202 -308.219,217.453 -310.123,326.997 Z " fill="#000000" fill-opacity="1.00" stroke-width="4.52" stroke="#ffffff" stroke-linecap="square" stroke-linejoin="miter"/>				<path d="M170.64,438.22 C122.42,439.412 76.7304,447.519 31.5571,460.48 C-45.381,482.556 -92.0565,551.162 -90.0317,626.921 C-87.8866,707.187 -38.2958,763.022 41.2735,772.192 C117.251,780.948 190.78,769.434 263.385,747.924 C340.415,725.102 388.89,652.346 378.606,575.049 C371.038,518.159 334.678,467.723 280.599,452.41 C245.078,442.352 208.66,439.001 170.64,438.22 Z M78.2826,570.111 C122.877,553.544 166.567,550.246 211.152,560.044 C220.613,562.124 229.443,566.018 237.463,571.358 C261.702,587.498 261.785,613.865 237.547,630.162 C219.05,642.599 197.894,647.61 176.252,651.334 C141.214,657.362 106.267,660.473 71.4233,650.414 C66.8452,649.092 62.2768,647.463 58.0234,645.337 C35.3482,634.002 31.1042,609.702 48.5711,591.204 C57.0456,582.23 67.3139,575.643 78.2826,570.111 Z " fill="#000000" fill-opacity="1.00" stroke-width="4.52" stroke="#ffffff" stroke-linecap="square" stroke-linejoin="miter"/>				<path d="M112.022,374.331 C132.72,394.468 155.346,409.207 183.778,413.766 C219.608,419.512 255.168,418.397 290.118,408.852 C323.019,399.865 343.978,378.204 349.464,344.339 C359.7,281.155 353.734,218.252 342.94,155.718 C338.924,132.453 335.067,129.834 311.483,131.078 C248.702,134.388 185.876,135.366 123.023,135.9 C62.353,136.415 1.68804,137.579 -58.9771,138.587 C-77.1914,138.889 -81.2594,143.024 -81.384,161.205 C-81.5814,190.021 -81.6274,218.84 -81.541,247.657 C-81.4887,265.092 -78.1245,268.866 -60.8011,268.074 C-29.8659,266.659 1.02577,264.312 31.9472,262.555 C36.5294,262.294 42.4483,260.726 44.9067,266.067 C47.0949,270.821 43.7052,275.445 40.8934,279.222 C31.4089,291.963 16.9163,296.219 2.70527,300.447 C-19.0217,306.912 -40.9002,312.875 -62.766,318.862 C-75.1471,322.252 -80.669,330.587 -80.7512,342.922 C-80.9493,372.612 -81.3409,402.306 -80.9915,431.991 C-80.8138,447.095 -72.9677,453.122 -57.6514,450.253 C-39.234,446.802 -20.9316,442.68 -2.677,438.429 C37.6251,429.045 74.5737,413.53 101.713,380.354 C104.121,377.411 106.773,374.199 112.022,374.331 Z M243.179,245.312 C260.348,256.638 260.339,279.592 244.172,287.82 C220.77,299.731 196.151,299.516 172.23,289.298 C160.76,284.399 157.132,272.994 156.009,261.263 C155.317,254.048 160.348,250.82 166.438,250.361 C192,248.433 217.596,246.955 243.179,245.312 Z " fill="#000000" fill-opacity="1.00" stroke-width="4.52" stroke="#ffffff" stroke-linecap="square" stroke-linejoin="miter"/>				<path d="M-124.865,-593.835 C-116.812,-600.749 -117.897,-609.4 -117.796,-617.56 C-116.9,-690.018 -117.38,-762.479 -116.389,-834.946 C-114.783,-952.376 -115.277,-1069.83 -114.697,-1187.28 C-114.576,-1211.71 -113.276,-1236.14 -113.221,-1260.58 C-113.189,-1274.5 -117.418,-1277.53 -129.929,-1273.56 C-175.237,-1259.19 -220.445,-1244.5 -265.742,-1230.09 C-278.732,-1225.96 -284.347,-1217.67 -284.562,-1203.86 C-285.644,-1134.48 -287.445,-1065.11 -288.684,-995.73 C-290.57,-890.117 -292.235,-784.5 -293.914,-678.883 C-294.261,-657.039 -290.958,-652.533 -270.832,-644.84 C-234.565,-630.978 -198.436,-616.749 -162.038,-603.243 C-150.348,-598.906 -139.101,-592.247 -124.865,-593.835 Z " fill="#000000" fill-opacity="1.00" stroke-width="4.52" stroke="#ffffff" stroke-linecap="square" stroke-linejoin="miter"/>				<path d="M-383.192,-425.034 C-389.042,-416.88 -405.871,-412.889 -415.187,-416.823 C-424.547,-420.777 -421.524,-429.317 -421.272,-436.267 C-420.324,-462.413 -421.685,-488.598 -418.658,-514.736 C-416.907,-529.849 -422.515,-536.023 -436.386,-536.186 C-470.436,-536.586 -504.495,-536.342 -538.55,-536.359 C-550.489,-536.365 -556.459,-530.212 -556.008,-518.471 C-555.049,-493.539 -558.01,-468.781 -558.997,-443.94 C-560.522,-405.591 -562.997,-367.281 -564.841,-328.943 C-567.272,-278.415 -569.471,-227.876 -571.794,-177.342 C-572.379,-164.612 -565.919,-158.71 -553.632,-158.888 C-518.719,-159.395 -483.806,-159.958 -448.898,-160.73 C-437.417,-160.984 -431.484,-166.956 -431.226,-178.856 C-430.62,-206.776 -429.638,-234.688 -428.794,-262.603 C-428.675,-266.527 -428.889,-270.518 -428.244,-274.359 C-426.121,-286.994 -418.461,-290.711 -400.883,-288.887 C-388.646,-287.617 -387.115,-279.659 -388.718,-270.148 C-393.538,-241.554 -389.834,-212.613 -392.698,-183.904 C-394.359,-167.256 -387.31,-161.378 -369.926,-161.671 C-343.745,-162.111 -317.566,-162.688 -291.385,-163.121 C-269.742,-163.478 -265.479,-167.151 -264.553,-189.112 C-263.67,-210.043 -263.984,-231.021 -263.258,-251.961 C-260.218,-339.607 -256.861,-427.242 -253.927,-514.891 C-253.326,-532.861 -257.717,-537.38 -275.958,-538.048 C-301.255,-538.974 -326.554,-538.509 -351.868,-537.134 C-375.638,-535.843 -379.774,-532.309 -380.342,-508.538 C-380.999,-481.061 -379.503,-453.514 -383.192,-425.034 Z " fill="#000000" fill-opacity="1.00" stroke-width="4.52" stroke="#ffffff" stroke-linecap="square" stroke-linejoin="miter"/>				<path d="M-2.65027,1303.46 C18.9158,1307.96 39.323,1306.01 59.6423,1302.92 C108.195,1295.56 148.092,1273.96 174.713,1231.37 C186.311,1212.81 199.432,1195.39 212.787,1178.13 C222.898,1165.06 235.804,1155.39 251.387,1149.84 C263.564,1145.5 272.404,1152.1 272.26,1164.97 C272.16,1173.92 268.758,1182.02 264.702,1189.8 C257.029,1204.5 248.592,1218.84 241.539,1233.84 C234.383,1249.05 242.03,1258.79 258.674,1256.86 C292.461,1252.93 326.228,1248.84 360.037,1245.12 C375.121,1243.46 384.629,1236.44 389.112,1221.32 C400.494,1182.92 403.488,1143.9 396.004,1104.79 C387.681,1061.29 363.276,1029.69 319.608,1016.61 C258.371,998.26 196.32,1020.31 158.908,1072.38 C145.151,1091.53 131.448,1110.72 117.364,1129.63 C106.826,1143.78 94.5004,1156.2 77.9114,1163.21 C59.9734,1170.78 47.6553,1160.81 49.6149,1141.47 C51.2605,1125.24 59.2402,1111.8 66.4846,1097.86 C76.1521,1079.27 71.6916,1071.57 51.0335,1071.65 C20.8732,1071.77 -9.14217,1070.59 -39.0538,1066.21 C-57.3506,1063.54 -69.5531,1070.34 -76.3628,1087.79 C-91.5634,1126.76 -97.1078,1167.08 -88.6974,1208.47 C-78.9447,1256.46 -55.7153,1292.85 -2.65027,1303.46 Z " fill="#000000" fill-opacity="1.00" stroke-width="4.52" stroke="#ffffff" stroke-linecap="square" stroke-linejoin="miter"/>				<path d="M-74.6243,839.067 C-83.2433,868.315 -88.0679,897.107 -86.7348,926.56 C-84.8906,967.304 -72.9059,1002.98 -34.8037,1024.81 C-17.0184,1034.99 2.23962,1039.84 22.4151,1041.85 C71.0754,1046.69 115.099,1036.75 152.333,1002.87 C173.926,983.22 187.325,957.174 206.736,935.885 C215.837,925.904 223.783,914.731 235.9,907.973 C243.044,903.989 250.574,901.518 257.939,907.312 C265.172,913.002 265.387,921.21 263.191,928.893 C260.567,938.074 256.567,946.89 252.814,955.716 C245.598,972.685 249.315,979.314 267.971,979.655 C292.854,980.11 317.771,980.047 342.645,979.29 C363.262,978.662 375.727,968.014 380.78,947.815 C391.009,906.935 386.391,867.433 369.889,828.837 C360.361,806.555 344.53,791.748 321.94,783.569 C266.56,763.518 203.221,778.431 163.526,821.949 C147.656,839.347 133.164,858.013 118.248,876.268 C109.686,886.746 102.043,898.158 90.4291,905.577 C80.6037,911.853 70.0042,920.587 58.0965,912.478 C46.2858,904.434 50.2205,891.355 52.4204,879.913 C56.031,861.136 66.6534,845.336 75.3193,828.73 C86.749,806.826 82.9917,800.398 58.6841,800.142 C24.662,799.783 -9.43052,801.387 -43.2233,795.404 C-54.2593,793.451 -61.8325,798.755 -65.3609,809.324 C-68.5362,818.835 -71.3453,828.468 -74.6243,839.067 Z " fill="#000000" fill-opacity="1.00" stroke-width="4.52" stroke="#ffffff" stroke-linecap="square" stroke-linejoin="miter"/>				<path d="M641.962,-182.081 C651.916,-182.856 660.66,-183.222 669.298,-184.376 C697.662,-188.163 715.572,-204.559 720.89,-232.326 C723.012,-243.403 725.145,-254.642 724.345,-266.081 C721.731,-303.46 719.514,-340.873 716.341,-378.204 C712.319,-425.511 707.732,-472.774 702.906,-520.007 C701.45,-534.263 695.483,-539.135 681.113,-538.819 C660.624,-538.369 640.134,-537.484 619.679,-536.22 C606.54,-535.408 602.131,-529.392 603.776,-516.282 C605.729,-500.72 608.152,-485.204 609.592,-469.596 C610.746,-457.073 612.71,-444.364 608.482,-431.954 C604.741,-420.974 596.408,-417.753 585.724,-418.931 C574.652,-420.152 575.004,-428.391 575.016,-436.52 C575.051,-461.836 575.179,-487.155 574.885,-512.468 C574.681,-530.036 570.781,-534.382 553.689,-535.39 C536.714,-536.391 519.698,-536.863 502.7,-534.909 C480.414,-532.347 476.895,-528.714 477.154,-506.203 C477.638,-464.292 475.107,-422.505 472.212,-380.733 C469.562,-342.499 487.107,-319.067 524.556,-311.495 C550.261,-306.298 574.76,-312.588 599.192,-319.631 C604.241,-321.087 610.539,-325.467 614.303,-318.274 C617.369,-312.415 613.523,-307.117 609.477,-303.072 C598.205,-291.803 584.116,-285.891 568.451,-285.121 C540.531,-283.751 512.664,-284.064 485.262,-291.195 C468.197,-295.636 463.14,-292.731 458.641,-275.787 C453.051,-254.733 448.223,-233.476 443.041,-212.313 C437.308,-188.899 441.143,-183.643 465.426,-181.776 C467.6,-181.609 469.796,-181.687 471.964,-181.469 C528.231,-175.826 584.459,-181.271 641.962,-182.081 Z " fill="#000000" fill-opacity="1.00" stroke-width="4.52" stroke="#ffffff" stroke-linecap="square" stroke-linejoin="miter"/>				<path d="M67.8124,-610.259 C68.5311,-599.854 69.4983,-590.731 69.8228,-581.586 C70.2557,-569.393 76.7019,-564.701 88.3498,-564.832 C107.992,-565.053 127.64,-564.856 147.285,-564.797 C179.505,-564.7 179.65,-564.69 178.979,-596.531 C178.473,-620.523 177.482,-644.504 176.826,-668.494 C176.637,-675.404 177.445,-682.075 186.453,-682.741 C195.913,-683.439 196.47,-676.175 197.473,-669.661 C198.069,-665.793 198.311,-661.853 198.458,-657.935 C199.391,-633.086 200.202,-608.231 201.16,-583.383 C201.692,-569.585 205.78,-565.187 219.262,-564.999 C243.706,-564.66 268.159,-564.977 292.601,-564.578 C305.014,-564.376 310.264,-570.412 309.783,-582.163 C309.266,-594.796 308.055,-607.407 307.77,-620.041 C306.727,-666.29 305.967,-712.544 305.051,-758.795 C304.737,-774.65 301.421,-778.178 286.095,-778.962 C273.027,-779.63 259.952,-780.561 246.876,-780.625 C174.409,-780.979 101.936,-780.726 29.4737,-781.481 C-2.79713,-781.817 -35.0278,-784.505 -67.3489,-784.076 C-77.475,-783.941 -84.4013,-781.563 -84.5105,-769.691 C-85.0763,-708.15 -86.0014,-646.612 -86.3352,-585.071 C-86.4183,-569.73 -80.8691,-564.838 -65.5022,-564.723 C-36.6905,-564.507 -7.87642,-564.603 20.9367,-564.607 C42.9295,-564.61 45.3305,-567.049 45.2294,-589.73 C45.1088,-616.796 44.8237,-643.862 44.6925,-670.928 C44.6616,-677.305 45.3094,-684.058 53.5007,-684.517 C61.8743,-684.986 64.544,-679.077 64.8886,-671.655 C65.8188,-651.612 66.8086,-631.572 67.8124,-610.259 Z " fill="#000000" fill-opacity="1.00" stroke-width="4.52" stroke="#ffffff" stroke-linecap="square" stroke-linejoin="miter"/>				<path d="M54.0146,16.396 C52.525,0.882346 59.821,-7.82942 73.0036,-11.9651 C82.1338,-14.8292 91.4375,-17.2883 100.813,-19.1972 C136.084,-26.3795 171.151,-25.1975 205.614,-14.715 C225.763,-8.58639 229.822,0.108102 223.413,19.4532 C216.897,39.1225 204.72,55.9054 195.616,74.2537 C187.819,89.9668 192.109,97.2855 209.823,97.3121 C243.445,97.3628 277.071,97.2124 310.689,96.7346 C331.778,96.4348 340.845,88.2881 344.315,67.6769 C348.685,41.7229 349.572,15.5423 346.628,-10.519 C342.98,-42.8283 331.724,-72.3767 309.802,-97.0372 C289.046,-120.386 260.756,-130.121 231.845,-137.224 C153.859,-156.386 77.0425,-150.197 1.06561,-125.241 C-42.502,-110.93 -67.5088,-80.856 -78.9334,-37.7022 C-89.2867,1.4048 -88.0807,40.95 -83.1207,80.5238 C-80.4596,101.756 -77.1856,104.662 -55.3367,104.191 C-8.65259,103.183 38.0137,101.352 84.6874,99.8608 C91.1595,99.6542 97.2108,98.1129 99.4996,91.328 C102.017,83.8658 97.1204,78.8327 92.0876,74.5133 C74.0455,59.0286 61.8953,39.7104 54.0146,16.396 Z " fill="#000000" fill-opacity="1.00" stroke-width="4.52" stroke="#ffffff" stroke-linecap="square" stroke-linejoin="miter"/>				<path d="M-35.1983,-222.74 C-35.9437,-209.329 -36.9471,-197.133 -36.9836,-184.934 C-37.014,-174.789 -31.9485,-168.222 -21.0325,-168.301 C5.60151,-168.494 32.2499,-168.484 58.8609,-169.436 C73.5754,-169.962 78.5265,-176.493 78.1463,-191.659 C77.9167,-200.818 77.3021,-209.972 77.2509,-219.13 C77.0956,-246.872 77.1698,-246.875 104.23,-246.919 C108.596,-246.927 112.964,-246.813 117.329,-246.898 C127.117,-247.088 132.889,-243.235 133.771,-232.664 C134.895,-219.212 137.024,-205.846 138.354,-192.406 C139.416,-181.664 144.458,-175.154 155.716,-175.252 C184.091,-175.5 212.466,-175.868 240.835,-176.483 C251.166,-176.706 255.461,-181.799 253.76,-192.727 C250.003,-216.861 245.084,-240.737 239.547,-264.502 C220.254,-347.32 199.442,-429.725 173.839,-510.872 C169.505,-524.609 162.175,-533.162 147.272,-533.237 C109.288,-533.427 71.3036,-533.542 33.3201,-533.422 C22.9345,-533.389 16.2586,-528.259 14.0342,-517.536 C10.6702,-501.32 6.56435,-485.256 3.2519,-469.029 C-13.303,-387.933 -31.0797,-307.02 -35.1983,-222.74 Z M101.116,-416.526 C105.493,-394.61 109.1,-374.468 113.644,-354.539 C115.998,-344.212 109.834,-342.11 102.509,-341.223 C94.6668,-340.275 83.9811,-336.943 82.7689,-349.254 C80.2698,-374.633 85.8697,-399.032 94.0144,-422.658 C99.3131,-422.547 99.6619,-419.007 101.116,-416.526 Z " fill="#000000" fill-opacity="1.00" stroke-width="4.52" stroke="#ffffff" stroke-linecap="square" stroke-linejoin="miter"/>				<path d="M293.991,-1001.99 C293.333,-1011.02 292.463,-1018.84 292.152,-1026.67 C289.418,-1095.51 289.557,-1164.45 284.322,-1233.21 C283.351,-1245.96 278.441,-1253.7 265.164,-1255.23 C237.902,-1258.38 210.723,-1262.42 183.4,-1264.84 C153.843,-1267.46 153.788,-1266.85 153.978,-1236.85 C154.065,-1223.18 152.616,-1222.06 139.85,-1225.76 C96.7238,-1238.25 53.611,-1250.79 10.4535,-1263.17 C-12.1743,-1269.67 -34.7896,-1276.24 -57.5866,-1282.09 C-76.4431,-1286.93 -86.7109,-1280.54 -87.0519,-1263.79 C-88.002,-1217.11 -88.6985,-1170.43 -88.9368,-1123.75 C-89.0319,-1105.13 -83.488,-1099.53 -65.4192,-1100.99 C-16.7027,-1104.94 32.1042,-1106.51 80.9231,-1108.01 C100.535,-1108.62 120.167,-1109.71 139.73,-1107.03 C161.72,-1104.02 167.1,-1098.12 166.976,-1075.36 C166.844,-1050.93 165.899,-1026.51 165.671,-1002.09 C165.479,-981.519 170.552,-976.255 190.677,-975.507 C215.961,-974.568 241.25,-973.71 266.544,-973.063 C290.956,-972.438 294.476,-976.125 293.991,-1001.99 Z " fill="#000000" fill-opacity="1.00" stroke-width="4.52" stroke="#ffffff" stroke-linecap="square" stroke-linejoin="miter"/>				<path d="M277.663,-814.492 C298.885,-814.849 302.998,-818.008 301.28,-837.225 C298.909,-863.755 301.463,-890.422 297.584,-916.922 C295.893,-928.481 291.923,-933.766 279.71,-934.315 C225.18,-936.767 170.636,-936.978 116.076,-936.741 C111.738,-936.723 107.24,-936.622 103.095,-937.664 C95.8718,-939.481 92.1481,-944.368 92.9187,-952.188 C93.6393,-959.505 98.0143,-963.153 104.895,-963.68 C111.848,-964.212 118.852,-964.08 125.833,-964.261 C141.91,-964.679 144.767,-966.887 144.241,-982.421 C143.488,-1004.63 141.413,-1026.8 140.479,-1049.01 C139.976,-1060.96 133.297,-1064.39 122.724,-1065.19 C61.2829,-1069.87 -0.208053,-1068.7 -61.7078,-1067.22 C-64.7595,-1067.15 -67.8245,-1067.03 -70.8527,-1066.67 C-81.5698,-1065.41 -87.2296,-1059.86 -87.0992,-1048.52 C-86.8383,-1025.82 -86.9398,-1003.12 -86.9923,-980.417 C-87.0209,-968.05 -80.5543,-961.922 -68.6469,-961.17 C-53.4149,-960.207 -38.1561,-959.655 -22.9302,-958.613 C-15.1149,-958.078 -5.87011,-958.029 -5.79493,-946.992 C-5.71702,-935.576 -14.6735,-934.174 -23.3832,-934.334 C-37.7699,-934.598 -52.1465,-935.97 -66.5254,-935.941 C-80.2337,-935.913 -84.2764,-931.434 -84.4,-917.592 C-84.6261,-892.274 -84.5595,-866.953 -84.6465,-841.634 C-84.7159,-821.448 -81.2823,-817.475 -61.4269,-817.684 C51.2059,-818.872 163.794,-815.742 277.663,-814.492 Z " fill="#000000" fill-opacity="1.00" stroke-width="4.52" stroke="#ffffff" stroke-linecap="square" stroke-linejoin="miter"/>				<path d="M352.628,-453.423 C346.936,-421.474 347.74,-389.647 338.768,-357.781 C334.487,-362.451 334.24,-365.958 333.557,-369.378 C324.094,-416.775 314.647,-464.175 305.025,-511.54 C301.784,-527.491 294.918,-534.93 280.243,-535.687 C257.604,-536.855 234.845,-537.552 212.239,-535.264 C193.717,-533.389 191.013,-528.73 195.096,-510.17 C209.157,-446.264 227.542,-383.499 245.338,-320.588 C257.201,-278.654 268.677,-236.582 286.209,-196.455 C291.679,-183.935 299.583,-178.3 313.354,-178.949 C340.803,-180.242 368.292,-180.763 395.769,-181.37 C404.778,-181.569 410.733,-185.084 412.974,-194.163 C414.435,-200.08 416.354,-205.884 417.82,-211.801 C434.605,-279.519 447.615,-347.976 456.641,-417.139 C460.923,-449.953 466.641,-482.665 467.382,-515.853 C467.715,-530.758 462.671,-535.927 448.14,-536.143 C425.888,-536.474 403.622,-536.544 381.372,-536.136 C367.126,-535.875 360.618,-529.799 358.989,-515.687 C356.641,-495.356 354.86,-474.959 352.628,-453.423 Z " fill="#000000" fill-opacity="1.00" stroke-width="4.52" stroke="#ffffff" stroke-linecap="square" stroke-linejoin="miter"/>				<path d="M-236.476,-166.296 C-181.214,-164.802 -127.234,-169.486 -73.1569,-171.115 C-62.4963,-171.437 -57.7643,-177.901 -56.9161,-187.987 C-54.9033,-211.924 -53.7971,-235.887 -53.8242,-259.92 C-53.837,-271.241 -58.7724,-277.382 -70.159,-277.249 C-87.1439,-277.05 -104.208,-278.989 -121.094,-275.518 C-126.955,-274.313 -133.386,-274.29 -135.981,-280.44 C-139.235,-288.15 -139.398,-296.857 -135.934,-304.577 C-132.891,-311.357 -125.663,-310.047 -119.656,-310.153 C-100.447,-310.492 -81.2283,-310.441 -62.0292,-311.043 C-51.7617,-311.365 -42.2397,-314.599 -41.2578,-326.684 C-39.6692,-346.236 -39.0817,-365.873 -38.2466,-385.482 C-37.815,-395.619 -43.2677,-401.024 -53.0622,-401.707 C-59.5631,-402.161 -66.1311,-401.766 -72.6654,-401.602 C-87.9358,-401.22 -103.203,-400.691 -118.474,-400.34 C-124.959,-400.191 -130.545,-401.366 -132.465,-409.1 C-137.234,-428.301 -131.458,-436.209 -111.984,-436.457 C-90.5935,-436.729 -69.1975,-436.734 -47.8127,-437.236 C-37.3142,-437.482 -30.6038,-442.097 -30.2918,-453.904 C-29.7964,-472.655 -28.3842,-491.381 -27.935,-510.132 C-27.4077,-532.138 -31.4146,-536.108 -53.422,-536.183 C-104.074,-536.355 -154.727,-536.416 -205.38,-536.425 C-230.146,-536.428 -234.631,-532.467 -235.398,-507.919 C-238.78,-399.74 -241.924,-291.554 -245.105,-183.369 C-245.302,-176.667 -244.777,-170.09 -236.476,-166.296 Z " fill="#000000" fill-opacity="1.00" stroke-width="4.52" stroke="#ffffff" stroke-linecap="square" stroke-linejoin="miter"/>				<path d="M-616.494,-558.863 C-638.805,-570.083 -660.097,-581.175 -681.762,-591.482 C-699.269,-599.812 -705.649,-596.022 -707.245,-576.543 C-708.313,-563.51 -707.697,-550.347 -708.578,-537.292 C-713.652,-462.053 -718.726,-386.812 -724.373,-311.615 C-725.396,-298.001 -720.952,-288.192 -711.06,-279.439 C-679.03,-251.097 -647.302,-222.412 -615.446,-193.872 C-611.283,-190.142 -607.431,-185.039 -600.801,-188.108 C-594.72,-190.922 -594.177,-196.664 -593.987,-202.561 C-590.774,-301.958 -586.186,-401.291 -581.374,-500.623 C-579.136,-546.825 -575.024,-538.126 -616.494,-558.863 Z " fill="#000000" fill-opacity="1.00" stroke-width="4.52" stroke="#ffffff" stroke-linecap="square" stroke-linejoin="miter"/>				<path d="M-360.701,-610.94 C-451.484,-611.694 -540.973,-609.616 -630.438,-612.41 C-637.403,-612.627 -644.977,-613.795 -650.82,-608.581 C-648.986,-601.638 -643.735,-600.957 -639.448,-599.28 C-630.925,-595.946 -622.355,-592.678 -613.643,-589.886 C-583.9,-580.351 -555.881,-564.819 -523.4,-564.837 C-406.407,-564.904 -289.414,-564.746 -172.421,-564.791 C-168.043,-564.793 -162.612,-562.859 -159.897,-568.71 C-161.669,-574.695 -167.303,-574.523 -171.538,-576.037 C-187.139,-581.614 -203.133,-586.164 -218.518,-592.264 C-248.269,-604.06 -278.091,-613.94 -310.955,-611.104 C-326.985,-609.72 -343.238,-610.913 -360.701,-610.94 Z " fill="#000000" fill-opacity="1.00" stroke-width="4.52" stroke="#000000" stroke-linecap="square" stroke-linejoin="miter"/>				<path d="M385.287,-612.309 C374.888,-612.584 365.719,-612.821 356.549,-612.933 C327.616,-613.285 327.264,-612.909 327.934,-583.888 C328.367,-565.125 331.379,-562.085 350.49,-562.069 C444.826,-561.993 539.163,-561.958 633.499,-562.053 C637.873,-562.058 643.142,-560.126 646.554,-565.336 C645.219,-570.856 640.576,-571.071 636.479,-572.246 C607.549,-580.545 578.614,-588.827 549.726,-597.268 C523.773,-604.851 498.103,-612.242 470.308,-611.023 C442.448,-609.801 414.453,-611.689 385.287,-612.309 Z " fill="#000000" fill-opacity="1.00" stroke-width="4.52" stroke="#000000" stroke-linecap="square" stroke-linejoin="miter"/>			</g>		</g>	</svg>