<svg version="1.1" id="Layer_1" xmlns="http://www.w3.org/2000/svg" xmlns:xlink="http://www.w3.org/1999/xlink" x="0px" y="0px"
	 width="100%" viewBox="0 0 1024 1024" enable-background="new 0 0 1024 1024" xml:space="preserve">
<path fill="#000000" opacity="1.000000" stroke="none" 
	d="
M465.375122,687.000122 
	C465.092529,779.959534 464.818665,872.418884 465.252716,964.878784 
	C465.263977,967.278015 466.865417,971.017822 463.459717,971.831116 
	C459.895935,972.682129 459.262848,968.679504 458.092865,966.302368 
	C438.835297,927.174683 419.656128,888.008362 400.438599,848.860962 
	C399.241730,846.422852 398.637451,843.941589 398.638550,841.191650 
	C398.686584,722.409607 398.690308,603.627502 398.715027,484.845459 
	C398.716370,478.344574 399.988861,477.031586 406.682037,477.000488 
	C424.340057,476.918518 441.998749,476.914459 459.656982,476.955170 
	C465.532043,476.968719 466.332611,477.779480 466.320465,483.609406 
	C466.204651,539.084534 466.206146,594.560730 465.794678,650.033875 
	C465.704559,662.184265 465.565643,674.345093 465.375122,687.000122 
z"/>
<path fill="#000000" opacity="1.000000" stroke="none" 
	d="
M417.787964,34.695053 
	C432.677338,28.733795 447.192200,22.874619 461.724792,17.059826 
	C466.447083,15.170353 467.439484,15.836262 467.437958,20.735788 
	C467.408997,113.888168 467.375061,207.040558 467.341858,300.192932 
	C467.337952,311.225159 466.431824,311.769989 455.954895,307.600494 
	C439.404846,301.014099 422.819763,294.515686 406.250061,287.978607 
	C399.564301,285.340881 398.683838,284.088348 398.682892,276.866089 
	C398.673004,201.369064 398.671234,125.872040 398.673553,50.375019 
	C398.673767,43.499020 400.229248,41.236900 406.644592,38.789948 
	C410.221588,37.425617 413.827454,36.137066 417.787964,34.695053 
z"/>
<path fill="#000000" opacity="1.000000" stroke="none" 
	d="
M553.714417,670.817627 
	C548.216187,674.780579 544.627014,680.484009 538.731018,683.966187 
	C525.583618,691.731079 510.893127,693.684143 496.321503,696.227661 
	C493.213257,696.770203 490.047852,697.107239 486.895905,697.246399 
	C482.919434,697.421753 480.627594,695.611267 480.643555,691.324219 
	C480.687592,679.493286 480.690308,667.661804 480.630463,655.830994 
	C480.606567,651.108154 483.678406,649.558044 487.531647,648.726013 
	C495.485779,647.008362 503.454315,645.356750 511.403809,643.618286 
	C515.483276,642.726135 519.445862,641.456665 523.105103,639.384033 
	C525.648743,637.943176 527.544739,635.932068 528.668579,633.187073 
	C530.045532,629.823853 529.247131,628.159546 525.342834,628.261780 
	C513.520996,628.571228 501.696167,628.770142 489.872345,629.005371 
	C488.206512,629.038513 486.539429,629.067810 484.873871,629.039917 
	C481.860596,628.989441 480.157043,627.420349 480.139496,624.418030 
	C480.062592,611.255310 480.028198,598.092041 480.063446,584.929199 
	C480.072968,581.382080 482.469757,580.656494 485.511566,580.665466 
	C495.341156,580.694458 505.152313,581.177856 514.971863,581.507629 
	C539.109680,582.318298 563.278625,582.221130 587.413879,583.082520 
	C604.407898,583.689026 621.390930,583.565002 638.379211,583.616577 
	C642.596680,583.629333 644.710938,585.201965 645.470154,589.492798 
	C649.641663,613.069824 650.813660,636.812256 648.213257,660.563843 
	C646.279541,678.226013 636.354919,687.688232 618.810242,690.104309 
	C606.857056,691.750427 594.870178,691.283081 583.003052,688.999512 
	C571.039978,686.697510 561.468872,680.478149 553.714417,670.817627 
M608.130920,642.673828 
	C612.114990,638.644226 612.550964,633.663757 610.611328,628.876709 
	C608.850708,624.531616 604.272095,625.400269 600.553162,625.465210 
	C592.098877,625.612671 583.649353,626.031921 575.195068,626.189575 
	C572.238586,626.244690 570.571594,626.793823 570.869812,630.402100 
	C571.402710,636.851257 574.254578,641.820190 580.334961,643.736389 
	C589.322754,646.568848 598.536499,647.060791 608.130920,642.673828 
z"/>
<path fill="#000000" opacity="1.000000" stroke="none" 
	d="
M486.276672,724.355835 
	C494.436279,711.867798 505.975464,704.353271 519.659363,700.739258 
	C551.445984,692.343872 583.462280,692.031982 615.232849,700.875122 
	C644.603638,709.050293 657.122620,734.841431 657.278442,756.497131 
	C657.441589,779.174316 642.728760,799.621582 621.218872,807.328491 
	C608.913696,811.737305 596.092224,813.569763 583.177979,814.823303 
	C560.862305,816.989197 538.791809,816.560425 516.946533,810.289551 
	C495.114868,804.022583 483.275330,789.221802 478.848999,767.853271 
	C475.704987,752.675354 477.721832,738.060669 486.276672,724.355835 
M527.570190,764.843384 
	C530.250305,767.736511 533.648865,769.471741 537.303528,770.720947 
	C547.849487,774.325439 558.782837,775.290405 569.781982,774.519226 
	C580.864868,773.742188 592.073669,773.160522 602.183899,767.533630 
	C611.486755,762.356201 612.247437,751.586487 603.502563,745.596008 
	C599.243774,742.678589 594.645935,740.415588 589.534973,739.157959 
	C577.077820,736.092712 564.504700,735.778748 551.911499,737.634277 
	C543.976562,738.803467 536.342651,741.092834 529.905396,746.353943 
	C523.623413,751.488098 522.610840,757.401794 527.570190,764.843384 
z"/>
<path fill="#000000" opacity="1.000000" stroke="none" 
	d="
M294.658203,340.008362 
	C294.621765,335.011078 294.731659,330.504364 294.504883,326.014709 
	C294.323334,322.420593 295.750244,320.662048 299.346069,320.665283 
	C313.012482,320.677521 326.678925,320.684631 340.345337,320.696686 
	C344.806763,320.700623 346.111359,323.418274 345.801697,327.288177 
	C344.842804,339.270813 345.693115,351.279144 345.204254,363.262817 
	C345.039612,367.297668 346.437927,369.248169 350.612457,368.924927 
	C351.933014,368.822662 353.275482,369.047699 354.607239,369.037292 
	C360.523315,368.991058 361.618988,367.955200 361.653503,362.016052 
	C361.718445,350.849762 361.679474,339.682922 361.721497,328.516418 
	C361.745331,322.181580 363.182465,320.260651 369.485870,320.098816 
	C380.977448,319.803802 392.481812,319.968170 403.980591,320.011414 
	C408.776581,320.029449 409.479980,323.133026 409.411469,327.136841 
	C408.941193,354.623230 408.605652,382.111969 408.172668,409.599060 
	C407.904999,426.592072 407.545929,443.583679 407.219971,460.575775 
	C407.089417,467.383698 405.999207,468.453827 399.376038,468.419342 
	C388.376312,468.362061 377.375702,468.220184 366.377197,468.315948 
	C361.741241,468.356293 359.559937,466.465576 359.704315,461.788788 
	C360.084351,449.478363 359.029358,437.142914 360.506012,424.845001 
	C361.079468,420.069214 359.543060,418.590302 354.643982,418.402069 
	C345.242310,418.040833 344.349060,418.896332 344.347687,428.310516 
	C344.346069,439.310486 344.392181,450.310669 344.339172,461.310364 
	C344.312622,466.820892 343.031860,468.131104 337.553772,468.126007 
	C324.888214,468.114258 312.222321,468.031860 299.557404,467.898041 
	C294.140503,467.840820 292.839539,466.484772 292.894623,460.937653 
	C293.199097,430.279938 293.321442,399.617340 294.025909,368.968384 
	C294.243866,359.484650 294.585144,349.997589 294.658203,340.008362 
z"/>
<path fill="#000000" opacity="1.000000" stroke="none" 
	d="
M801.063904,463.189575 
	C793.416443,468.706207 784.622986,468.932434 776.315979,469.065826 
	C750.026428,469.487915 723.692993,470.415924 697.462036,467.366119 
	C690.385071,466.543304 689.178345,464.918121 691.069031,457.988556 
	C693.607910,448.683746 696.167114,439.384491 698.710022,430.080811 
	C700.498779,423.536377 702.014893,422.234039 708.682129,423.845581 
	C718.959656,426.329651 729.371338,427.165894 739.853516,427.370026 
	C746.748840,427.504303 753.418640,425.996643 759.553772,422.747284 
	C761.271423,421.837555 762.887451,420.463684 764.103394,418.945038 
	C765.784302,416.845856 767.257935,414.136597 765.662476,411.597565 
	C764.013367,408.973053 761.339844,410.892883 759.268555,411.437134 
	C748.610901,414.237732 737.971741,416.794220 726.822388,414.641174 
	C710.324768,411.455322 704.914001,401.818604 706.016052,385.353302 
	C707.248657,366.938934 709.697693,348.608551 709.704834,330.107971 
	C709.707397,323.442169 711.400452,321.419220 718.244446,321.152130 
	C727.224060,320.801666 736.228699,321.042908 745.221924,321.114960 
	C748.996033,321.145203 750.325867,323.305084 750.368164,326.955170 
	C750.507202,338.950531 750.061584,350.919983 749.385254,362.891785 
	C749.202148,366.133606 748.726868,369.878143 753.430237,370.753662 
	C758.606323,371.717163 762.916992,369.817596 764.701599,365.544373 
	C766.057312,362.298218 766.740051,358.811920 766.478699,355.303406 
	C765.786987,346.015533 764.921509,336.740356 764.091736,327.463135 
	C763.686401,322.931641 765.253296,320.940277 769.889771,320.741913 
	C779.698303,320.322327 789.516968,320.129669 799.323486,319.673004 
	C804.206726,319.445648 806.092041,321.562744 806.416443,326.387238 
	C808.313965,354.611145 809.714478,382.849670 810.511536,411.130707 
	C810.863220,423.608307 812.224976,436.040314 809.305542,448.384338 
	C807.983582,453.973969 806.161926,459.279358 801.063904,463.189575 
z"/>
<path fill="#000000" opacity="1.000000" stroke="none" 
	d="
M527.635010,87.898529 
	C512.551575,88.788864 498.015808,90.467369 483.501404,92.386955 
	C477.209015,93.219147 474.897034,91.306633 474.787048,84.967384 
	C474.625336,75.644562 474.703857,66.317406 474.697906,56.992085 
	C474.690582,45.501869 474.655762,34.011398 474.718994,22.521511 
	C474.771271,13.026207 478.359833,9.981794 487.528534,12.324105 
	C512.811157,18.783033 538.027527,25.501429 563.271790,32.110851 
	C566.166687,32.868797 569.078857,33.561382 571.970825,34.330067 
	C574.589722,35.026161 575.743286,34.009426 575.708557,31.358387 
	C575.662659,27.861927 575.802917,24.358938 575.640503,20.869118 
	C575.431458,16.377995 577.332703,14.397255 581.884827,14.781806 
	C591.656250,15.607269 601.467163,16.059628 611.202209,17.182207 
	C615.829834,17.715832 620.475769,17.695465 625.109497,18.267780 
	C630.621643,18.948599 631.998901,21.943468 632.119873,26.653395 
	C632.478638,40.630653 633.272339,54.607536 633.220520,68.582062 
	C633.138977,90.565964 633.900879,112.527588 634.234802,134.499756 
	C634.370239,143.407776 633.326660,144.346619 624.670166,144.305130 
	C612.847107,144.248474 601.023438,144.254288 589.201355,144.115967 
	C582.645081,144.039276 580.905701,142.404449 580.945251,135.714432 
	C581.018005,123.400444 581.493835,111.089241 581.620178,98.775017 
	C581.716309,89.408051 578.416504,86.408867 568.975708,86.283478 
	C555.317566,86.102081 541.716309,87.194191 527.635010,87.898529 
z"/>
<path fill="#000000" opacity="1.000000" stroke="none" 
	d="
M501.968018,220.891083 
	C543.281921,223.036484 584.094604,220.250168 624.911926,220.720459 
	C626.911682,220.743515 628.915161,220.807022 630.911133,220.720505 
	C635.472351,220.522781 637.483643,222.341431 637.425720,227.204391 
	C637.233215,243.368484 637.312561,259.537079 637.422424,275.703033 
	C637.489136,285.517578 637.865967,295.329681 637.984558,305.144287 
	C638.055420,311.008240 636.822083,312.255737 631.029053,312.258972 
	C620.862793,312.264618 610.695801,312.200073 600.530579,312.058655 
	C595.108704,311.983276 593.781677,310.563721 593.643433,305.206268 
	C593.312683,292.386078 592.918884,279.566864 592.707886,266.744690 
	C592.651672,263.327606 591.648132,261.377991 587.897583,261.322174 
	C584.016846,261.264465 583.174561,263.344055 583.215210,266.724915 
	C583.369263,279.556702 583.361877,292.390381 583.442810,305.223175 
	C583.480591,311.222748 582.621216,312.151733 576.533875,312.152710 
	C566.367371,312.154358 556.199951,312.016388 546.034729,312.116760 
	C541.652832,312.160004 539.721741,310.409760 539.574707,305.928253 
	C539.148865,292.948395 538.408569,279.979126 537.901245,267.001404 
	C537.764587,263.505981 536.829041,261.172455 532.737549,261.333252 
	C528.790283,261.488403 528.280457,263.994812 528.304688,267.142090 
	C528.402161,279.808044 528.460327,292.474396 528.498901,305.140717 
	C528.518188,311.477661 527.645630,312.355927 521.308594,312.370544 
	C508.975342,312.398987 496.641968,312.413086 484.308807,312.376251 
	C478.547455,312.359070 476.713440,310.732574 476.709747,305.018555 
	C476.692963,278.852448 476.841400,252.686218 476.833984,226.520081 
	C476.832733,222.162079 478.788452,220.646942 482.976471,220.792053 
	C489.135956,221.005463 495.307404,220.872742 501.968018,220.891083 
z"/>
<path fill="#000000" opacity="1.000000" stroke="none" 
	d="
M475.611023,116.245926 
	C475.556427,113.949677 475.520203,112.118240 475.446045,110.288345 
	C475.283813,106.287613 477.024994,104.033966 481.164307,103.677765 
	C508.555939,101.320618 535.976379,100.336662 563.461487,101.625740 
	C566.963806,101.790009 569.222595,102.735466 569.351013,106.694168 
	C569.679932,116.835747 570.620850,126.947784 570.469360,137.118713 
	C570.404297,141.484879 569.031677,143.484055 564.424500,143.551224 
	C560.845398,143.603424 557.061951,143.939270 555.927368,148.768433 
	C554.494019,154.869232 556.372925,157.661423 562.608337,157.668472 
	C583.932251,157.692535 605.256104,157.677490 626.580017,157.663147 
	C635.119995,157.657410 634.803467,157.666870 635.498291,166.040207 
	C636.451111,177.522690 636.216919,189.006653 636.307922,200.493073 
	C636.372559,208.650787 635.570068,209.409210 627.529907,209.407501 
	C592.878967,209.400116 558.227783,209.307144 523.577209,209.409149 
	C510.424530,209.447876 497.273682,209.960907 484.120850,210.191330 
	C478.082275,210.297119 476.643250,208.907806 476.624023,202.985733 
	C476.585083,190.991302 476.716400,178.995651 476.589844,167.002502 
	C476.542938,162.554703 478.347839,160.577362 482.813141,160.659973 
	C489.141266,160.777023 495.475342,160.577515 501.803436,160.695587 
	C505.946808,160.772903 509.223755,159.834381 509.544525,155.020996 
	C509.811707,151.012466 507.196289,149.137268 501.639496,149.068802 
	C494.987122,148.986801 488.348267,149.248978 481.686768,148.462997 
	C477.243866,147.938766 475.580505,145.954193 475.627441,141.700150 
	C475.719269,133.371658 475.627777,125.041122 475.611023,116.245926 
z"/>
<path fill="#000000" opacity="1.000000" stroke="none" 
	d="
M541.321167,462.673645 
	C541.323242,467.368347 539.007202,469.068909 534.993347,469.054993 
	C524.334595,469.018066 513.675171,468.961517 503.016998,469.043213 
	C498.265594,469.079620 496.490540,466.776947 496.629822,462.233765 
	C497.195465,443.783722 498.730316,425.441284 501.624176,407.190491 
	C505.786926,380.937134 511.075287,354.909729 516.729065,328.950775 
	C518.207092,322.164551 518.918640,321.722015 525.788818,321.710327 
	C540.278503,321.685730 554.769165,321.614929 569.257751,321.745605 
	C577.892761,321.823456 578.671936,322.675873 581.110352,330.724091 
	C592.157410,367.185669 600.758972,404.256653 608.707581,441.486603 
	C610.232971,448.631348 611.162354,455.902466 612.409424,463.107910 
	C612.967163,466.330322 611.595337,467.886078 608.416565,467.869324 
	C596.428650,467.806183 584.440918,467.667511 572.453003,467.643463 
	C568.472717,467.635468 566.907837,465.713898 566.633911,461.854492 
	C566.210571,455.889557 565.252136,449.963287 564.801147,443.999390 
	C564.532288,440.442047 562.557251,438.818268 559.413635,438.649536 
	C554.598755,438.391174 549.763367,438.477753 544.936768,438.487701 
	C542.165161,438.493439 541.211792,440.169128 541.234497,442.729279 
	C541.292236,449.223053 541.299011,455.717285 541.321167,462.673645 
M545.253967,377.607727 
	C544.203979,382.302002 543.418091,387.019226 543.232544,391.851288 
	C542.847229,401.887207 543.270508,402.208466 553.303589,401.172272 
	C557.174377,400.772522 557.959229,399.281799 557.145813,395.652191 
	C555.698669,389.194489 555.015198,382.557526 553.408569,376.146820 
	C552.424255,372.219269 552.554382,367.727448 549.146545,363.990784 
	C546.820801,368.332458 546.583313,372.703888 545.253967,377.607727 
z"/>
<path fill="#000000" opacity="1.000000" stroke="none" 
	d="
M637.436584,500.635681 
	C648.588562,516.153687 650.249939,533.492798 648.827637,551.427856 
	C648.449097,556.200745 647.912842,560.998535 646.498230,565.680725 
	C644.970947,570.736145 641.724426,573.319214 636.674072,573.245728 
	C621.696289,573.028015 606.717834,572.692078 591.748230,572.160889 
	C586.941956,571.990295 585.355957,568.415833 587.995911,563.986938 
	C591.490234,558.124756 595.342468,552.471619 598.260803,546.279541 
	C603.750977,534.630737 602.168152,530.599731 589.822876,526.962097 
	C573.140930,522.046692 556.315308,522.347473 539.622986,527.061157 
	C532.383057,529.105713 529.570679,534.778381 532.353455,541.841797 
	C535.306091,549.336243 539.638306,556.036133 545.703552,561.488159 
	C546.567444,562.264709 547.492126,563.001648 548.221191,563.893860 
	C549.413635,565.353210 550.312317,567.006653 549.332397,568.928040 
	C548.483704,570.592041 546.872559,571.067688 545.137390,571.152588 
	C543.973816,571.209534 542.806030,571.210083 541.640625,571.194275 
	C523.159363,570.943604 504.668213,571.546326 486.194702,570.485291 
	C482.878906,570.294800 479.954132,569.494751 479.542328,565.833679 
	C477.415283,546.923035 475.821533,528.003845 482.574188,509.567291 
	C487.583130,495.891357 497.613007,486.827209 511.069611,482.839325 
	C543.446838,473.244110 576.207581,471.788330 608.857483,481.922150 
	C619.947083,485.364105 630.308167,490.296967 637.436584,500.635681 
z"/>
<path fill="#000000" opacity="1.000000" stroke="none" 
	d="
M573.487305,912.489746 
	C591.605774,892.967590 632.723389,893.077454 650.741455,915.850098 
	C656.203979,922.754028 659.090149,930.780823 659.996826,939.219788 
	C661.338684,951.708862 660.108337,964.102844 655.730408,976.073425 
	C654.082214,980.579773 651.532349,982.573425 646.491150,982.521729 
	C633.344727,982.386780 620.192444,982.788757 607.042908,983.001282 
	C604.515137,983.042175 601.941895,983.262268 600.419495,980.627380 
	C598.899109,977.996033 600.342529,975.794739 601.644592,973.669128 
	C603.644409,970.404541 605.781799,967.224609 607.829895,963.989136 
	C608.897583,962.302490 610.017090,960.632874 610.906616,958.852417 
	C612.819458,955.023804 614.465271,950.802124 611.249329,947.167175 
	C608.030518,943.529053 603.682129,945.338501 600.063232,946.777771 
	C593.220337,949.498962 588.332520,954.836365 583.690369,960.337463 
	C580.685486,963.898071 577.587341,967.400818 574.845581,971.158875 
	C564.650330,985.133728 550.093872,990.212463 533.703979,991.221008 
	C525.931152,991.699219 518.162537,991.600342 510.438385,989.467590 
	C495.756287,985.413879 486.083069,976.284607 481.069916,962.090271 
	C475.564636,946.502625 476.884094,930.947754 482.143738,915.650452 
	C484.604065,908.494812 489.272888,906.038940 496.638062,907.678406 
	C508.349823,910.285400 520.125549,912.152893 532.116089,912.807068 
	C536.767212,913.060852 538.023438,916.288086 535.260925,920.679382 
	C532.689758,924.766418 529.816589,928.644104 528.798218,933.518616 
	C527.976990,937.448914 527.820129,941.358826 531.084106,944.164368 
	C534.414673,947.027039 538.229004,945.995972 541.900818,944.427673 
	C549.216064,941.303040 554.221375,935.470825 559.199890,929.643372 
	C563.956116,924.076111 568.563293,918.381592 573.487305,912.489746 
z"/>
<path fill="#000000" opacity="1.000000" stroke="none" 
	d="
M635.050171,327.400818 
	C639.859741,351.183990 643.224609,374.823181 647.948792,398.317963 
	C651.574219,392.190491 651.658081,385.513458 652.599304,379.094818 
	C655.129578,361.840302 657.374634,344.542908 659.598816,327.245300 
	C660.174316,322.769592 662.558777,320.747437 666.877686,320.754761 
	C677.537109,320.772797 688.196533,320.878387 698.855774,320.860687 
	C702.921570,320.853943 704.518250,322.795929 704.371277,326.747864 
	C703.961853,337.754974 701.894470,348.546509 700.262573,359.393372 
	C695.286621,392.466339 688.475647,425.152527 679.453735,457.367035 
	C678.871033,459.447662 678.156982,461.491180 677.530212,463.559875 
	C676.750305,466.133728 675.066223,467.314209 672.347961,467.306183 
	C659.523315,467.268219 646.698120,467.245850 633.873840,467.328552 
	C630.245544,467.351929 628.581848,465.308563 627.271057,462.316589 
	C620.634766,447.169189 616.353210,431.253632 612.136841,415.347076 
	C604.687378,387.243286 596.754211,359.256897 590.880127,330.753357 
	C589.192993,322.566895 589.803162,321.320679 598.273193,320.984070 
	C607.419312,320.620575 616.591064,320.746002 625.748169,320.885468 
	C629.955200,320.949524 633.693542,322.241669 635.050171,327.400818 
z"/>
<path fill="#000000" opacity="1.000000" stroke="none" 
	d="
M512.817383,902.490234 
	C495.758057,897.388733 483.642212,887.766846 480.363983,869.775940 
	C477.158844,852.186218 481.092377,835.433533 487.333618,819.087463 
	C488.545349,815.913940 491.358704,815.143616 494.383514,815.933350 
	C507.689880,819.407471 521.389282,819.394592 534.943420,820.652832 
	C541.183167,821.231995 542.571838,823.709778 539.332336,829.114685 
	C535.151123,836.091003 530.319336,842.721680 529.065552,851.088684 
	C527.754395,859.839111 533.012817,864.273193 541.295776,861.099365 
	C545.393494,859.529175 548.746338,856.747986 551.743469,853.557800 
	C558.923279,845.915710 565.806274,838.005493 573.456543,830.794250 
	C590.462341,814.764648 618.733398,813.994934 637.036133,823.694824 
	C649.262939,830.174561 653.475342,842.376465 656.138062,855.029602 
	C657.911255,863.455627 657.248901,871.919373 655.360168,880.284668 
	C653.288025,889.462341 649.037903,892.872375 639.854187,892.059082 
	C629.748901,891.164062 619.564697,891.198059 609.528809,889.508545 
	C604.687195,888.693542 603.841064,887.129822 606.068665,882.774719 
	C607.958374,879.080017 610.260437,875.598938 610.924316,871.361389 
	C611.939819,864.878906 607.783691,860.975220 601.447815,862.699768 
	C597.996521,863.639160 595.237000,865.816956 592.623474,868.184631 
	C586.929871,873.342712 581.879578,879.112122 577.039001,885.038696 
	C562.014832,903.433411 542.463318,907.942688 520.057373,903.963928 
	C517.767456,903.557251 515.494751,903.053467 512.817383,902.490234 
z"/>
<path fill="#000000" opacity="1.000000" stroke="none" 
	d="
M430.059509,320.677429 
	C450.879242,320.723633 471.209595,320.752563 491.539795,320.825684 
	C498.231598,320.849731 499.433228,322.009247 499.245178,328.780579 
	C499.005005,337.431549 498.492432,346.074646 498.171631,354.723877 
	C498.025726,358.657776 496.144470,360.367462 492.185455,360.321716 
	C483.021393,360.215851 473.855164,360.281250 464.689850,360.306610 
	C458.125244,360.324768 457.449921,360.998169 457.363739,367.374573 
	C457.244202,376.218292 458.031219,376.752045 467.139984,376.245300 
	C474.451935,375.838501 481.793152,375.967651 489.120789,375.827820 
	C493.583679,375.742645 495.507874,377.982483 495.275818,382.331146 
	C494.876862,389.807251 494.509003,397.284943 494.116486,404.761383 
	C493.882416,409.219269 491.545715,411.359497 487.054535,411.329468 
	C478.556152,411.272705 470.053009,411.465363 461.560272,411.239166 
	C457.414703,411.128723 455.683044,412.714722 455.997406,416.773102 
	C456.100159,418.099457 456.116394,419.441711 456.048767,420.770416 
	C455.816345,425.335327 457.725159,427.112610 462.404419,426.378571 
	C468.841919,425.368713 475.375061,425.634674 481.864777,425.820618 
	C488.077850,425.998657 489.467041,427.535675 489.234924,433.774261 
	C488.906860,442.590881 488.470673,451.405731 487.914459,460.210815 
	C487.520508,466.446350 486.458069,467.300659 480.342834,467.399567 
	C461.520599,467.703979 442.698914,468.042419 423.876587,468.340607 
	C416.700378,468.454254 415.640717,467.485413 415.762878,460.382477 
	C416.467499,419.410675 417.228119,378.439850 417.963135,337.468567 
	C418.010925,334.803314 418.065704,332.135803 418.009460,329.471588 
	C417.853333,322.078735 419.121002,320.751587 426.570282,320.681854 
	C427.570160,320.672485 428.570129,320.678467 430.059509,320.677429 
z"/>
<path fill="#000000" opacity="1.000000" stroke="none" 
	d="
M235.923523,362.146118 
	C236.902176,341.557281 237.060547,321.432495 237.249283,301.308197 
	C237.288528,297.121399 239.414490,295.610321 243.517609,297.393890 
	C248.085709,299.379517 252.446274,301.849060 256.867371,304.164795 
	C264.681885,308.258026 272.430389,312.480042 280.298004,316.467712 
	C283.199432,317.938324 284.414978,319.947266 284.362854,323.177795 
	C284.019043,344.484283 283.690094,365.791718 283.522614,387.100128 
	C283.356506,408.236328 283.412018,429.374207 283.286713,450.510864 
	C283.274780,452.525665 284.332611,455.213593 281.765778,456.333618 
	C279.120697,457.487793 277.496429,455.173309 275.840729,453.624390 
	C263.318390,441.909515 250.870377,430.114746 238.293015,418.459473 
	C235.733994,416.088043 234.776245,413.426697 234.862137,410.050690 
	C235.264374,394.244354 235.573563,378.435669 235.923523,362.146118 
z"/>
<path fill="#000000" opacity="1.000000" stroke="none" 
	d="
M315.000122,294.644623 
	C340.308228,294.650665 365.116669,294.727783 389.924103,294.604401 
	C394.997772,294.579163 399.818512,295.251373 404.580292,296.948181 
	C416.330505,301.135193 428.122498,305.204865 439.884949,309.357819 
	C441.036438,309.764374 442.634277,309.673828 442.901184,311.516174 
	C441.509613,312.871887 439.769562,312.250763 438.219482,312.251587 
	C393.265442,312.275299 348.311279,312.217194 303.357330,312.286224 
	C297.469788,312.295258 291.886749,311.717773 286.328094,309.430145 
	C276.490082,305.381287 266.419037,301.899933 256.462311,298.136597 
	C255.145889,297.639069 253.555740,297.395782 252.457642,294.644836 
	C273.526733,294.644836 294.013428,294.644836 315.000122,294.644623 
z"/>
<path fill="#000000" opacity="1.000000" stroke="none" 
	d="
M738.999878,313.336884 
	C710.878296,313.332214 683.256714,313.330444 655.635132,313.320496 
	C648.546936,313.317932 647.670654,312.611877 647.713440,305.762177 
	C647.804382,291.194275 645.306519,292.703278 660.583130,292.786011 
	C679.873413,292.890472 699.167114,293.208954 718.447571,293.812653 
	C725.428711,294.031250 732.109131,296.541687 738.833069,298.371887 
	C752.616089,302.123566 766.361511,306.013916 780.104309,309.911102 
	C781.617920,310.340302 783.425964,310.432983 784.950500,313.336761 
	C769.375183,313.336761 754.437561,313.336761 738.999878,313.336884 
z"/>
</svg>