<?xml version="1.0" encoding="utf-8" ?>	<!-- Generator: Assembly 2.4 - http://assemblyapp.co -->	<svg version="1.1" xmlns="http://www.w3.org/2000/svg" xmlns:xlink="http://www.w3.org/1999/xlink" width="4096.00" height="4096.00" viewBox="0 0 4096.0 4096.0">		<g id="document" transform="scale(1.0 1.0) translate(2048.0 2048.0)">			<g>				<path d="M-156.901,-2026.18 C-158.392,-2025.86 -161.978,-2022.66 -164.86,-2019.07 C-170.021,-2012.65 -170.104,-2012.25 -170.205,-1993.61 C-170.255,-1983.19 -171.311,-1950.16 -172.534,-1920.2 L-174.763,-1865.74 L-170.523,-1859.42 C-168.194,-1855.96 -164.692,-1852.76 -162.749,-1852.33 C-160.805,-1851.92 -142.641,-1850.41 -122.367,-1848.99 C-47.5859,-1843.77 76.6918,-1834.24 113.035,-1830.92 L135.639,-1828.87 L136.845,-1820.48 C138.169,-1811.38 141.067,-1764.79 142.492,-1730 C143.665,-1701.21 144.1,-1698.92 149.512,-1693 L154.121,-1687.96 L236.207,-1688.03 L318.293,-1688.1 L319.316,-1837.22 C319.886,-1919.24 319.735,-1987.96 319.014,-1989.93 C318.21,-1992.1 314.808,-1994.54 310.452,-1996.1 C303.029,-1998.75 237.832,-2011.47 184.247,-2020.72 C167.659,-2023.58 152.444,-2026.33 150.434,-2026.81 C147.77,-2027.47 144.737,-2025.81 139.124,-2020.64 L131.467,-2013.56 L131.467,-1986.79 C131.467,-1962.26 131.232,-1960.11 128.618,-1961.1 C125.116,-1962.44 95.2237,-1969.65 56.0655,-1978.58 C39.9464,-1982.26 5.99912,-1990.17 -19.3356,-1996.18 C-57.1869,-2005.15 -120.993,-2019.63 -148.355,-2025.47 C-151.572,-2026.16 -155.443,-2026.46 -156.934,-2026.14 L-156.901,-2026.18 Z " fill="#000000" fill-opacity="1.00" />				<path d="M-304.989,-1981.98 C-396.424,-1942.43 -419.413,-1931.76 -422.145,-1927.61 C-424.038,-1924.7 -424.926,-1910.14 -426.351,-1857.92 C-430.54,-1704.34 -433.187,-1607.05 -434.779,-1547.26 C-435.717,-1512.25 -437.292,-1453.8 -438.264,-1417.41 C-442.788,-1249.81 -442.839,-1245.79 -440.66,-1242.63 C-439.504,-1240.96 -438.934,-1238.21 -439.369,-1236.49 C-440.158,-1233.48 -431.964,-1227.29 -410.55,-1214.68 C-406.863,-1212.52 -395.922,-1205.72 -386.254,-1199.57 C-310.769,-1151.61 -285.384,-1135.91 -283.373,-1135.91 C-280.156,-1135.91 -262.044,-1145.53 -258.709,-1149 C-255.642,-1152.2 -253.448,-1213.34 -243.846,-1563.19 C-242.891,-1597.74 -241.383,-1647.89 -240.495,-1674.61 C-239.591,-1701.34 -238.082,-1747.7 -237.128,-1777.66 C-236.173,-1807.62 -234.614,-1851.72 -233.676,-1875.68 C-232.737,-1899.64 -231.581,-1936.21 -231.129,-1956.95 L-230.291,-1994.65 L-234.982,-2001.21 C-237.563,-2004.83 -240.428,-2008 -241.35,-2008.29 C-242.271,-2008.56 -270.924,-1996.73 -305.022,-1981.98 L-304.989,-1981.98 Z " fill="#000000" fill-opacity="1.00" />				<path d="M-116.771,-1788.25 L-171.512,-1787.77 L-176.672,-1780.78 L-181.833,-1773.77 L-181.766,-1727.6 L-181.699,-1681.45 L-177.645,-1676.48 L-173.59,-1671.52 L-142.926,-1671.46 L-112.263,-1671.39 L-111.811,-1644.43 L-111.359,-1617.47 L-141.854,-1616.36 C-174.025,-1615.19 -177.493,-1614.36 -182.437,-1606.44 C-184.246,-1603.54 -185,-1590.83 -185.771,-1549.91 L-186.759,-1497.13 L-182.705,-1492.52 L-178.65,-1487.92 L-95.2059,-1487.11 C-49.3119,-1486.67 63.0022,-1485.84 154.388,-1485.25 L320.539,-1484.19 L328.414,-1491.45 L336.289,-1498.7 L335.167,-1513.81 C334.546,-1522.13 332.988,-1538.36 331.682,-1549.88 C330.374,-1561.4 328.18,-1582.88 326.788,-1597.63 C323.773,-1629.48 322.734,-1631.31 308.323,-1629.6 C303.682,-1629.05 265.965,-1627.85 224.494,-1626.94 C183.024,-1626.01 120.223,-1624.49 84.9355,-1623.53 C49.6479,-1622.58 20.0572,-1622.25 19.1691,-1622.8 C18.2643,-1623.37 17.5605,-1634.24 17.5605,-1647.81 C17.5605,-1661.76 17.2254,-1668.26 19.4372,-1671.29 C21.649,-1674.32 26.3908,-1673.87 36.5448,-1673.87 C44.0682,-1673.87 57.6069,-1674.37 66.6048,-1674.96 L82.9919,-1676.05 L88.0522,-1682.92 L93.1124,-1689.79 L92.6098,-1734.51 L92.1071,-1779.23 L87.1808,-1784.36 L82.2546,-1789.48 L10.1042,-1789.08 C-29.5735,-1788.86 -86.694,-1788.48 -116.804,-1788.22 L-116.771,-1788.25 Z " fill="#000000" fill-opacity="1.00" />				<path d="M320.841,-1436.6 C319.45,-1436.3 291.568,-1435.24 258.844,-1434.24 C226.12,-1433.23 182.018,-1431.71 160.823,-1430.82 C139.627,-1429.95 98.5413,-1428.46 69.5035,-1427.5 C40.4657,-1426.55 -5.1435,-1424.97 -31.869,-1424 C-58.5945,-1423.03 -102.746,-1421.69 -129.974,-1421.02 C-177.863,-1419.85 -179.655,-1419.67 -184.85,-1415.99 C-189.625,-1412.58 -191.635,-1414.23 -193.479,-1397.56 C-195.322,-1380.87 -197.014,-1345.85 -201.119,-1269.14 C-202.543,-1242.42 -204.47,-1203.59 -205.376,-1182.85 C-206.28,-1162.11 -207.754,-1132.33 -208.642,-1116.66 L-210.268,-1088.18 L-201.069,-1079.12 L-191.87,-1070.05 L-180.577,-1071.96 C-164.273,-1074.7 -79.4387,-1085.67 -74.4287,-1085.67 C-73.5239,-1085.67 -70.1727,-1088.5 -67.0059,-1091.95 L-61.2419,-1098.23 L-61.2419,-1114.99 C-61.2587,-1140.57 -55.9973,-1292.48 -55.059,-1293.44 C-54.6066,-1293.9 -42.3078,-1294.51 -27.7135,-1294.81 L-1.18913,-1295.34 L-0.200542,-1284.76 C1.32423,-1268.36 5.81478,-1149.39 5.81478,-1125.38 C5.81478,-1102.44 6.88715,-1098.26 14.7791,-1090.91 C18.7335,-1087.2 20.2582,-1086.96 36.3103,-1087.2 C45.8108,-1087.36 70.911,-1088.58 92.1071,-1089.92 C113.303,-1091.27 132.405,-1092.37 134.566,-1092.37 C136.946,-1092.37 140.565,-1094.74 143.782,-1098.37 L149.077,-1104.35 L149.914,-1201.83 L150.752,-1299.32 L176.657,-1300.56 C190.9,-1301.25 203.08,-1301.25 203.701,-1300.56 C204.974,-1299.17 211.877,-1182.93 213.419,-1136.79 L214.425,-1106.63 L219.97,-1099.75 L225.517,-1092.85 L259.347,-1091.75 C277.962,-1091.15 307.385,-1090.55 324.744,-1090.42 L356.295,-1090.21 L362.261,-1096.18 C368.159,-1102.07 368.226,-1102.32 367.958,-1115.27 C367.806,-1122.49 366.936,-1140.48 366.031,-1155.22 C365.11,-1169.97 362.831,-1209.18 360.954,-1242.35 C359.077,-1275.53 356.463,-1318.5 355.14,-1337.86 C353.816,-1357.21 351.905,-1385.49 350.9,-1400.69 C349.09,-1428.14 349.041,-1428.38 344.131,-1432.95 C340.093,-1436.72 337.763,-1437.52 331.263,-1437.36 C326.906,-1437.26 322.198,-1436.92 320.824,-1436.62 L320.841,-1436.6 Z " fill="#000000" fill-opacity="1.00" />				<path d="M449.927,-1194.65 C447.866,-1192.58 438.215,-1178.71 428.48,-1163.83 L410.803,-1136.79 L412.662,-1128.41 C419.398,-1098.02 422.682,-1083.06 425.263,-1074.83 C427.827,-1066.6 429.669,-1065.09 433.507,-1061.64 L440.644,-1055.21 L457.4,-1056.17 C466.616,-1056.71 497.53,-1057.92 526.099,-1058.88 C627.589,-1062.25 798.146,-1068.51 838.494,-1070.33 L862.689,-1071.42 L871.771,-1083.15 C876.764,-1089.6 882.779,-1097.75 885.125,-1101.24 L889.398,-1107.59 L882.846,-1114.39 C879.244,-1118.12 859.422,-1136.3 838.796,-1154.78 C806.792,-1183.48 800.291,-1188.58 794.393,-1189.65 C783.183,-1191.72 746.454,-1192.9 642.552,-1194.6 C588.648,-1195.47 524.089,-1196.69 499.106,-1197.29 L453.68,-1198.4 L449.927,-1194.65 Z " fill="#000000" fill-opacity="1.00" />				<path d="M-632.564,-1189.47 C-661.602,-1188.82 -731.34,-1187.38 -787.555,-1186.31 C-932.778,-1183.51 -1007.73,-1181.48 -1009.67,-1180.27 C-1011.43,-1179.19 -1033.03,-1136.97 -1033.03,-1134.63 C-1033.03,-1133.89 -1027.56,-1130.38 -1020.88,-1126.81 C-1014.19,-1123.24 -995.914,-1113.38 -980.247,-1104.89 C-964.58,-1096.39 -930.265,-1078.32 -904.008,-1064.7 L-856.254,-1039.97 L-714.667,-1041.05 C-636.787,-1041.63 -520.066,-1042.61 -455.254,-1043.22 L-337.428,-1044.33 L-331.647,-1055.82 C-323.436,-1072.13 -319.331,-1083.14 -320.638,-1085.27 C-321.258,-1086.27 -334.965,-1094.21 -351.083,-1102.91 C-367.202,-1111.61 -385.282,-1121.37 -391.281,-1124.6 C-411.739,-1135.68 -452.406,-1157.26 -475.897,-1169.53 C-488.799,-1176.26 -502.975,-1183.91 -507.382,-1186.5 L-515.408,-1191.24 L-547.595,-1190.98 C-565.29,-1190.82 -603.527,-1190.15 -632.564,-1189.51 L-632.564,-1189.47 Z " fill="#000000" fill-opacity="1.00" />				<path d="M-1123.74,-1086.91 C-1127.42,-1085.99 -1133.09,-1084.58 -1136.3,-1083.81 C-1145.74,-1081.55 -1149.26,-1072.78 -1151.38,-1046.29 C-1156.55,-981.715 -1158.41,-959.077 -1161.43,-924.812 C-1163.24,-904.068 -1167.39,-854.688 -1170.64,-815.061 C-1176.05,-749.043 -1180.21,-700.318 -1184.9,-647.503 C-1188.25,-609.819 -1193.23,-550.32 -1193.24,-547.588 C-1193.26,-545.93 -1189.46,-542.88 -1183.63,-539.897 C-1065.18,-479.007 -1008.93,-450.64 -1006.65,-450.64 C-1003.87,-450.64 -1002.58,-450.052 -1000.7,-463.306 C-998.844,-476.56 -996.397,-503.688 -991.371,-559.099 C-988.204,-593.918 -983.697,-645.007 -981.335,-672.654 C-978.971,-700.3 -974.766,-749.312 -971.984,-781.567 C-966.773,-841.887 -964.729,-866.971 -958.496,-946.829 C-955.179,-989.405 -955.128,-1005.04 -958.295,-1009.44 C-958.965,-1010.37 -970.443,-1016.57 -983.798,-1023.2 C-997.168,-1029.85 -1024.3,-1043.68 -1044.12,-1053.91 C-1104.55,-1085.17 -1112.39,-1089.04 -1114.74,-1088.82 C-1115.98,-1088.7 -1120.02,-1087.84 -1123.71,-1086.93 L-1123.74,-1086.91 Z " fill="#000000" fill-opacity="1.00" />				<path d="M1000.38,-1066.22 C992.085,-1062.98 978.512,-1057.8 970.219,-1054.72 C961.924,-1051.64 941.349,-1043.76 924.492,-1037.23 C907.636,-1030.69 892.807,-1025.35 891.534,-1025.35 C888.25,-1025.35 878.547,-1012.54 878.464,-1008.12 C878.43,-1006.08 880.072,-987.814 882.117,-967.539 C885.217,-936.776 886.808,-923.253 886.624,-914.138 C886.44,-905.023 884.496,-900.298 880.541,-887.111 C876.62,-874.059 871.611,-861.056 869.231,-857.788 C866.885,-854.571 856.731,-843.78 846.662,-833.844 L828.347,-815.765 L815.847,-816.251 L803.347,-816.736 L796.059,-832.655 C784.648,-857.57 783.61,-861.743 785.218,-876.219 C785.988,-883.123 791.233,-911.826 796.896,-939.993 L807.185,-991.198 L799.242,-1003.48 L791.3,-1015.76 L776.874,-1014.72 C768.932,-1014.15 743.211,-1012.53 719.72,-1011.1 C692.776,-1009.48 679.824,-1008.76 672.937,-1007.48 C666.051,-1006.21 665.212,-1004.38 662.482,-1000.53 C657.958,-994.13 657.556,-992.538 635.823,-895.121 L629.389,-866.267 L631.869,-850.718 C638.872,-806.817 646.899,-776.473 659.331,-746.715 L664.794,-733.661 L692.307,-710.69 C711.56,-694.621 721.696,-687.282 726.054,-686.243 C729.471,-685.438 744.719,-681.735 759.933,-678.049 C797.299,-668.951 803.632,-669.102 861.038,-680.294 C872.834,-682.59 895.923,-698.207 934.445,-729.942 C941.499,-735.74 948,-740.498 948.888,-740.498 C949.794,-740.498 950.966,-738.42 951.519,-735.89 C962.846,-682.874 976.904,-608.396 975.815,-607.289 C974.659,-606.133 716.503,-611.747 660.002,-614.176 L634.617,-615.265 L627.881,-608.764 C621.229,-602.347 621.044,-601.827 612.583,-566.238 C607.875,-546.415 600.267,-514.714 595.676,-495.763 L587.332,-461.312 L592.56,-451.645 C595.442,-446.333 598.642,-441.726 599.698,-441.39 C600.736,-441.072 712.966,-439.866 849.074,-438.726 C1059.96,-436.95 1096.96,-436.984 1099.34,-438.96 C1100.88,-440.234 1113.08,-453.957 1126.47,-469.456 L1150.8,-497.64 L1148.99,-506.386 C1144.84,-526.376 1129.82,-594.521 1122.66,-625.721 C1107.57,-691.554 1101.31,-719.218 1079.16,-818.412 C1066.81,-873.707 1054.01,-930.258 1050.71,-944.081 C1040.68,-986.188 1036.71,-1003.13 1029.5,-1034.56 C1021.63,-1068.89 1020.55,-1072.3 1017.59,-1072.18 C1016.41,-1072.13 1008.67,-1069.45 1000.38,-1066.22 Z " fill="#000000" fill-opacity="1.00" />				<path d="M72.0169,-1026.85 C-4.67434,-1017.97 -13.4377,-1016.72 -16.1353,-1014.29 C-17.6601,-1012.91 -20.1231,-1007.43 -21.6145,-1002.12 C-23.1057,-996.811 -26.8758,-984.596 -29.9756,-974.979 C-33.0921,-965.361 -40.2971,-942.79 -45.9942,-924.828 C-59.3485,-882.688 -66.0341,-861.827 -83.4936,-807.538 C-91.3521,-783.108 -100.082,-755.595 -102.914,-746.379 C-106.147,-735.823 -111.225,-724.362 -116.637,-715.381 C-121.361,-707.556 -129.941,-692.677 -135.705,-682.338 L-146.16,-663.539 L-138.318,-647.671 C-134.012,-638.942 -128.366,-626.291 -125.768,-619.555 C-122.132,-610.121 -119.1,-605.48 -112.582,-599.348 C-107.923,-594.974 -103.316,-591.388 -102.327,-591.405 C-101.355,-591.405 -88.4868,-595.996 -73.7417,-601.609 C-6.36667,-627.229 1.08965,-629.407 25.9553,-630.714 C38.388,-631.367 62.9018,-632.926 80.4116,-634.166 C97.9214,-635.405 112.683,-635.909 113.22,-635.272 C114.325,-633.965 154.372,-512.067 165.146,-477.231 L172.216,-454.393 L179.79,-453.354 C183.945,-452.784 207.789,-451.578 232.755,-450.673 C257.721,-449.769 283.089,-448.695 289.138,-448.294 C295.188,-447.892 301.018,-448.092 302.108,-448.763 C303.196,-449.433 308.323,-456.353 313.518,-464.145 L322.968,-478.303 L317.087,-495.059 C309.145,-517.663 291.686,-564.244 278.13,-598.945 C267.657,-625.771 252.343,-665.8 222.049,-745.558 C186.526,-839.089 158.845,-911.708 148.909,-937.413 C140.381,-959.48 121.145,-1011.98 115.599,-1028.31 C114.66,-1031.06 105.445,-1030.76 72.0504,-1026.89 L72.0169,-1026.85 Z M79.0042,-796.396 C106.333,-728.735 108.109,-723.977 106.517,-722.988 C105.78,-722.536 81.3165,-721.631 52.1446,-720.994 L-0.870701,-719.838 L-0.870701,-723.491 C-0.870701,-725.501 7.15532,-746.547 16.9574,-770.256 C26.7596,-793.965 37.7514,-820.54 41.3539,-829.287 C50.201,-850.751 52.3121,-853.901 55.5963,-850.617 C56.987,-849.226 67.5097,-824.829 79.0042,-796.378 L79.0042,-796.396 Z " fill="#000000" fill-opacity="1.00" />				<path d="M313.392,-1021.07 C307.862,-1019.82 280.349,-1014.61 252.232,-1009.5 C224.117,-1004.38 199.536,-999.844 197.592,-999.392 C195.279,-998.872 192.08,-994.75 188.41,-987.579 L182.763,-976.57 L186.332,-967.037 C188.292,-961.792 202.452,-925.079 217.799,-885.453 C233.148,-845.825 249.736,-802.847 254.663,-789.945 C272.424,-743.447 287.956,-703.485 310.007,-647.52 C332.611,-590.149 337.386,-577.649 368.183,-495.042 C377.465,-470.16 385.526,-449.316 386.095,-448.729 C386.665,-448.143 417.696,-447.138 455.028,-446.484 C495.276,-445.781 513.924,-445.093 522.923,-447.221 C531.92,-449.366 531.267,-454.343 532.893,-464.999 C535.657,-483.129 544.337,-540.451 551.508,-588.02 C558.093,-631.753 573.441,-725.317 584.768,-790.766 C588.84,-814.273 597.972,-869.4 605.076,-913.267 L617.994,-993.041 L611.729,-1002.49 C608.143,-1007.9 606.869,-1010.48 602.613,-1011.41 C598.357,-1012.33 591.136,-1011.57 575.62,-1010.28 C565.013,-1009.4 539.762,-1007.43 519.487,-1005.91 L482.625,-1003.13 L477.347,-998.152 C473.644,-994.667 471.784,-991.08 471.114,-986.222 C470.595,-982.401 468.601,-967.589 466.69,-953.296 C464.78,-939.004 460.223,-905.827 456.57,-879.572 C447.739,-816.15 436.479,-733.259 435.34,-723.256 C434.821,-718.733 433.648,-715.481 432.659,-715.817 C431.688,-716.135 425.437,-732.573 418.786,-752.327 C406.42,-789.006 353.337,-945.221 340.083,-983.943 C336.045,-995.739 331.907,-1008.56 330.868,-1012.43 C328.991,-1019.45 326.494,-1023.8 324.5,-1023.52 C323.914,-1023.44 318.921,-1022.35 313.392,-1021.07 Z " fill="#000000" fill-opacity="1.00" />				<path d="M-229.679,-1015.04 C-322.64,-1011.19 -336.665,-1007.62 -376.325,-977.575 C-396.164,-962.546 -398.694,-959.664 -417.192,-930.978 L-432.122,-907.821 L-434.585,-890.764 C-439.796,-854.672 -436.361,-829.505 -420.644,-788.972 C-417.276,-780.293 -414.143,-771.53 -413.657,-769.518 C-413.087,-767.089 -418.265,-754.472 -429.139,-731.819 C-445.141,-698.474 -445.526,-697.402 -447.722,-679.339 C-448.962,-669.202 -450.452,-646.196 -451.056,-628.234 L-452.145,-595.56 L-446.163,-572.94 C-438.439,-543.685 -428,-513.675 -419.538,-496.283 C-413.925,-484.754 -411.093,-481.102 -402.514,-474.299 C-387.367,-462.285 -366.154,-448.997 -339.094,-434.604 L-315.133,-421.853 L-285.811,-422.925 C-229.276,-424.986 -145.882,-432.442 -78.0888,-441.508 C-57.3619,-444.272 -57.1274,-444.356 -48.9002,-451.544 L-40.6229,-458.8 L-31.5915,-496.182 C-26.615,-516.741 -21.7391,-537.719 -20.7505,-542.813 L-18.9576,-552.062 L-27.1345,-564.294 L-35.3113,-576.525 L-47.9786,-575.637 C-54.949,-575.152 -68.5213,-573.627 -78.1391,-572.236 C-178.305,-557.776 -234.169,-551.174 -256.488,-551.157 L-268.217,-551.141 L-284.135,-567.528 C-307.409,-591.472 -312.016,-598.995 -314.195,-616.455 C-315.166,-624.263 -315.954,-638.22 -315.954,-647.453 L-315.937,-664.259 L-303.706,-683.529 C-294.624,-697.837 -289.983,-703.535 -285.71,-705.679 C-272.791,-712.147 -252.885,-716.939 -232.175,-718.598 C-220.647,-719.52 -205.567,-720.726 -198.663,-721.279 C-180.45,-722.72 -179.16,-723.156 -174.216,-729.657 C-170.363,-734.717 -169.173,-739.258 -165.889,-761.611 C-163.777,-775.937 -161.549,-793.094 -160.93,-799.747 L-159.79,-811.828 L-168.754,-823.891 L-177.719,-835.956 L-191.961,-835.939 C-199.786,-835.939 -216.76,-835.235 -229.662,-834.397 C-242.564,-833.559 -261.515,-832.354 -271.769,-831.699 L-290.418,-830.51 L-296.484,-839.508 C-303.17,-849.428 -303.924,-854.923 -300.572,-869.4 C-298.713,-877.426 -297.925,-878.381 -287.168,-885.251 C-269.172,-896.763 -250.322,-899.645 -193.1,-899.645 L-148.48,-899.645 L-143.001,-905.66 C-136.466,-912.814 -133.467,-917.858 -133.383,-921.829 C-133.35,-923.437 -129.512,-938.77 -124.871,-955.894 L-116.409,-987.06 L-120.933,-994.884 C-123.43,-999.191 -127.635,-1005.91 -130.3,-1009.83 L-135.142,-1016.95 L-165.638,-1016.68 C-182.41,-1016.53 -211.214,-1015.78 -229.645,-1015.03 L-229.679,-1015.04 Z " fill="#000000" fill-opacity="1.00" />				<path d="M-488.689,-1009.58 C-489.075,-1009.19 -517.292,-1004.97 -551.39,-1000.2 L-613.386,-991.517 L-618.563,-986.121 L-623.741,-980.726 L-624.847,-952.341 C-626.891,-899.728 -631.13,-813.419 -631.918,-808.225 L-632.689,-803.081 L-657.387,-798.423 C-697.215,-790.899 -753.95,-780.762 -756.363,-780.729 C-758.089,-780.712 -758.374,-783.075 -757.62,-791.168 C-755.609,-812.866 -746.393,-908.541 -743.093,-941.902 L-739.675,-976.604 L-744.047,-984.06 C-746.46,-988.166 -749.36,-992.304 -750.498,-993.242 C-751.94,-994.449 -761.977,-993.511 -783.508,-990.21 C-809.781,-986.172 -827.257,-983.708 -886.841,-975.648 C-898.52,-974.074 -898.536,-974.024 -900.597,-941.551 C-903.362,-898.254 -908.908,-820.088 -912.142,-779.019 C-914.789,-745.324 -915.259,-742.609 -919.263,-737.13 C-923.871,-730.813 -925.714,-726.407 -940.141,-687.147 C-945.335,-673.022 -949.239,-660.573 -948.804,-659.5 C-948.368,-658.428 -942.654,-650.034 -936.102,-640.885 C-929.032,-631.015 -925.697,-628.268 -924.826,-618.582 C-923.955,-608.881 -925.53,-592.226 -928.311,-554.508 C-936.572,-442.161 -940.46,-393.167 -942.654,-373.546 C-944.028,-361.381 -943.827,-358.265 -941.348,-352.182 C-939.738,-348.261 -937.678,-345.062 -936.756,-345.062 C-935.835,-345.062 -903.044,-355.919 -863.869,-369.206 C-777.744,-398.411 -772.951,-400.104 -771.511,-401.645 C-770.891,-402.316 -769.03,-454.695 -767.372,-518.065 C-765.713,-581.419 -763.954,-633.931 -763.434,-634.768 C-761.809,-637.383 -639.81,-664.443 -637.967,-662.617 C-637.045,-661.695 -642.91,-516.791 -647.099,-436.984 L-648.121,-417.48 L-642.625,-409.336 C-639.593,-404.862 -636.895,-400.909 -636.626,-400.573 C-636.359,-400.221 -615.933,-406.505 -591.235,-414.531 C-566.554,-422.557 -533.226,-433.381 -517.191,-438.575 L-488.036,-448.042 L-489.126,-473.209 C-489.728,-487.05 -490.935,-511.949 -491.823,-528.537 C-494.001,-569.354 -496.732,-637.534 -497.285,-664.829 L-497.737,-687.181 L-493.146,-690.834 C-489.595,-693.665 -485.741,-702.128 -475.971,-728.468 C-469.051,-747.15 -463.388,-763.186 -463.388,-764.09 C-463.388,-764.995 -468.767,-773.758 -475.352,-783.577 L-487.316,-801.422 L-484.501,-824.997 C-482.96,-837.966 -477.48,-880.375 -472.335,-919.249 L-462.986,-989.925 L-469.152,-1000.1 C-474.95,-1009.63 -475.72,-1010.27 -481.635,-1010.27 C-485.104,-1010.27 -488.254,-1009.95 -488.639,-1009.58 L-488.689,-1009.58 Z " fill="#000000" fill-opacity="1.00" />				<path d="M122.284,-408.802 C111.226,-408.081 89.7446,-406.707 74.5303,-405.752 C43.8002,-403.808 32.8754,-401.144 -31.869,-379.696 C-77.0593,-364.734 -104.204,-353.004 -111.174,-345.448 C-117.508,-338.578 -153.65,-293.354 -180.51,-258.687 C-190.379,-245.935 -201.622,-231.542 -205.459,-226.699 L-212.463,-217.886 L-213.251,-176.365 L-214.038,-134.844 L-206.464,-119.831 C-181.783,-70.921 -152.846,-18.9278 -147.903,-14.588 L-142.441,-9.81262 L-118.145,-10.8347 C-104.79,-11.4044 -81.0305,-12.6108 -65.3639,-13.5156 C-49.6972,-14.4204 -13.957,-16.2803 14.0587,-17.6711 C42.0743,-19.0451 65.1805,-20.3688 65.3817,-20.6201 C65.5827,-20.8547 67.3923,-28.5958 69.3862,-37.8115 C71.3802,-47.0272 73.6255,-57.3153 74.3962,-60.6832 C76.0551,-67.972 75.9881,-68.0725 65.3314,-75.3948 C60.7236,-78.5616 37.9189,-95.3174 14.6451,-112.643 L-27.6633,-144.144 L-27.6633,-172.009 L-27.6633,-199.874 L-4.62408,-222.829 L18.4151,-245.785 L32.6575,-249.304 C62.3823,-256.625 102.864,-262.004 144.084,-264.081 L164.19,-265.104 L198.774,-246.673 C217.792,-236.535 236.341,-226.364 239.994,-224.069 L246.613,-219.88 L247.584,-182.464 C248.304,-155.018 248.037,-144.312 246.579,-142.284 C245.489,-140.759 234.029,-127.572 221.093,-112.961 C208.158,-98.3502 194.77,-82.9182 191.335,-78.6621 L185.085,-70.921 L193.58,-51.8529 C198.255,-41.3638 203.248,-30.9752 204.689,-28.7634 L207.303,-24.7588 L231.817,-25.8647 C245.305,-26.4679 288.753,-27.7078 328.38,-28.6294 C369.416,-29.5677 387.11,-29.4336 396.342,-31.4611 C405.574,-33.4885 406.362,-37.6942 413.584,-47.3288 L420.705,-56.8293 L422.766,-94.2451 C425.179,-138.112 427.96,-211.352 428.363,-242.081 L428.648,-263.696 L423.621,-268.053 C419.129,-271.94 406.613,-281.759 345.12,-329.614 C325.398,-344.945 266.401,-389.817 263.921,-391.342 C262.983,-391.929 257.655,-393.134 252.092,-394.04 C246.528,-394.928 230.225,-399.049 215.865,-403.172 C190.095,-410.561 189.442,-410.661 166.067,-410.427 C153.048,-410.293 133.344,-409.589 122.284,-408.869 L122.284,-408.802 Z " fill="#000000" fill-opacity="1.00" />				<path d="M-313.366,-368.911 C-325.347,-366.715 -350.229,-362.325 -368.66,-359.142 C-387.092,-355.958 -413.097,-351.4 -426.468,-349.022 C-439.839,-346.642 -458.84,-343.257 -468.71,-341.515 C-489.101,-337.912 -489.386,-337.778 -496.607,-329.467 L-501.92,-323.351 L-503.562,-251.553 C-504.466,-212.06 -505.958,-151.487 -506.879,-116.92 C-507.801,-82.3694 -509.325,-24.2939 -510.247,12.0997 C-511.186,48.4933 -512.676,105.429 -513.564,138.606 C-514.452,171.783 -516.329,246.045 -517.72,303.651 C-519.111,361.257 -521.406,451.352 -522.814,503.882 C-524.221,556.411 -526.081,628.796 -526.969,664.738 C-527.841,700.679 -529.332,757.984 -530.286,792.082 C-531.225,826.18 -532.767,888.009 -533.688,929.479 C-534.626,970.95 -536.151,1034.28 -537.073,1070.23 C-540.29,1194.37 -541.53,1274.68 -540.391,1285.54 C-539.586,1293.22 -536.872,1301.64 -531.259,1314.02 C-521.942,1334.57 -509.174,1366.19 -500.126,1391.11 C-496.607,1400.79 -489.62,1418.11 -484.577,1429.64 C-479.533,1441.17 -469.715,1464.53 -462.777,1481.58 C-443.76,1528.2 -368.392,1714.92 -367.303,1718.12 C-365.627,1723.02 -350.933,1723.58 -330.106,1719.56 C-319.968,1717.61 -309.68,1715.63 -307.234,1715.14 C-304.502,1714.62 -300.983,1711.69 -298.152,1707.61 L-293.527,1700.92 L-291.349,1538.05 C-289.221,1378.42 -287.311,1212.53 -284.027,904.346 C-283.122,819.561 -281.63,699.674 -280.692,637.929 C-279.771,576.183 -278.246,450.264 -277.325,358.107 C-276.403,265.95 -274.895,129.859 -273.957,55.6647 C-273.019,-18.5299 -271.51,-141.3 -270.589,-217.17 L-268.914,-355.121 L-274.376,-364.152 C-277.642,-369.547 -279.185,-372.228 -284.027,-372.814 C-288.853,-373.401 -296.979,-371.892 -313.349,-368.893 L-313.366,-368.911 Z " fill="#000000" fill-opacity="1.00" />				<path d="M382.837,21.1003 C380.524,21.4188 356.396,23.1949 329.219,25.0213 C285.552,27.9703 251.036,30.4836 168.363,36.7335 C155.93,37.6718 133.31,39.5485 118.096,40.889 C102.881,42.2294 84.7848,43.7374 77.8814,44.2401 C70.9781,44.7428 50.603,46.2676 32.6408,47.6416 C14.6786,49.0155 -21.5306,51.6462 -47.787,53.4894 C-74.0433,55.3325 -106.483,57.6112 -119.837,58.5495 C-133.191,59.4879 -154.773,60.9289 -167.792,61.7332 C-180.811,62.5542 -193.026,64.0455 -194.937,65.0843 C-196.863,66.1065 -201.756,71.0494 -205.827,76.0426 L-213.234,85.141 L-214.005,150.17 L-214.775,215.199 L-209.866,223.996 C-207.168,228.839 -204.337,232.793 -203.566,232.793 C-202.795,232.793 -177.042,229.743 -146.344,226.007 C-70.7424,216.825 -45.8769,214.044 -45.2569,214.663 C-44.972,214.948 -44.2013,222.806 -43.5478,232.106 L-42.3581,249.029 L-62.2472,260.423 C-73.1887,266.69 -91.9385,277.614 -103.919,284.702 C-133.577,302.245 -189.256,334.534 -199.075,339.863 C-203.482,342.258 -209.9,347.085 -213.318,350.569 L-219.534,356.937 L-219.969,438.538 L-220.405,520.138 L-214.105,527.226 C-206.598,535.654 -169.819,553.684 -165.178,551.187 C-161.827,549.393 -100.652,497.736 -56.3325,459.281 C-37.5492,442.977 -14.9289,423.373 -6.06507,415.733 C2.79874,408.075 17.393,395.441 26.3741,387.667 C35.3552,379.892 43.5153,373.508 44.5039,373.508 C45.4925,373.508 50.2009,376.843 54.9763,380.897 C88.7392,409.634 162.481,468.397 170.055,472.585 L179.271,477.679 L223.673,477.93 C260.436,478.132 273.405,477.528 299.075,474.429 L330.073,470.676 L336.776,463.487 C340.461,459.533 355.24,443.129 369.6,427.043 C383.976,410.958 402.073,390.733 409.814,382.104 C417.555,373.475 426.72,363.186 430.155,359.249 L436.405,352.094 L436.489,216.054 L436.573,80.0137 L419.532,49.9874 L402.492,19.961 L394.75,20.2123 C390.494,20.3464 385.133,20.7318 382.82,21.0501 L382.837,21.1003 Z M281.263,236.479 L282.436,297.119 L276.438,305.831 C271.545,312.935 269.366,316.387 264.927,318.13 C260.486,319.873 253.784,319.89 239.859,320.158 L214.995,320.627 L200.483,308.16 C192.491,301.307 172.703,284.635 156.466,271.113 L126.976,246.532 L124.814,220.377 C123.625,206.001 123.038,193.836 123.508,193.366 C125.15,191.724 256.9,176.728 275.768,176.025 L280.108,175.857 L281.281,236.496 L281.263,236.479 Z " fill="#000000" fill-opacity="1.00" />				<path d="M97.1506,527.643 C91.6212,528.381 81.4337,529.52 74.5303,530.19 C66.6719,530.944 55.3784,533.826 44.3699,537.864 C16.1698,548.203 -22.6533,562.729 -33.5445,566.986 C-39.074,569.148 -54.5395,575.162 -67.8939,580.357 C-89.8608,588.885 -92.9606,590.594 -100.182,598.269 C-108.359,606.948 -127.729,632.015 -188.82,713.029 L-223.455,758.956 L-224.644,770.083 C-225.298,776.198 -225.348,788.447 -224.745,797.294 C-223.12,821.155 -218.814,895.583 -217.573,921.186 C-216.802,937.122 -215.797,944.226 -214.105,945.918 C-212.798,947.225 -211.006,950.894 -210.134,954.044 C-209.296,957.094 -208.877,958.619 -200.416,965.12 C-191.954,971.622 -175.466,983.082 -142.457,1006.02 C-100.97,1034.86 -79.9414,1048.81 -77.9809,1048.81 C-76.9923,1048.81 -71.8651,1050.98 -66.587,1053.61 C-54.3553,1059.71 -53.4839,1059.91 -19.8383,1063.89 C28.6362,1069.65 73.8601,1071.57 104.205,1069.19 C136.594,1066.64 141.419,1065.84 187.632,1055.31 C235.453,1044.43 246.277,1041.32 286.357,1027.1 C312.262,1017.9 324.711,1013.59 333.424,1008.52 C342.137,1003.44 347.096,997.559 358.038,985.244 C388.098,951.397 419.784,916.444 451.318,882.38 L480.54,850.812 L478.563,822.059 C476.183,787.324 474.106,761.353 469.933,713.716 C468.191,693.894 466.281,671.106 465.661,663.064 L464.555,648.435 L454.284,639.521 C442.001,628.848 386.255,583.038 353.547,556.731 C333.692,540.763 322.55,536.792 322.55,536.792 L310.804,533.457 C310.804,533.457 296.812,530.375 284.832,529.352 C258.676,527.107 111.41,525.8 97.1674,527.693 L97.1506,527.643 Z M258.391,703.898 C277.158,712.962 293.143,720.385 293.914,720.385 C297.651,720.385 299.142,726.887 300.65,749.842 C301.554,763.599 302.794,780.89 303.415,788.297 L304.521,801.751 L272.885,831.224 C250.55,852.035 240.882,861.452 232.688,866.848 C224.478,872.243 217.742,873.6 201.288,878.292 C158.309,890.541 89.1581,904.715 72.4023,904.699 C66.4707,904.699 14.3099,894.662 -1.69184,890.456 C-13.1025,887.457 -29.8415,881.023 -41.2857,875.259 C-48.2897,871.724 -49.1442,870.652 -50.0826,864.15 C-53.0986,843.305 -54.1542,823.818 -53.2829,805.119 L-52.2943,784.258 L-19.6205,752.758 C1.22368,732.667 19.0853,718.994 19.0853,718.994 C19.0853,718.994 48.1231,709.695 76.2226,701.099 C104.322,692.503 145.813,687.72 175.802,686.455 C205.791,685.19 224.277,687.443 224.277,687.443 L258.409,703.93 L258.391,703.898 Z " fill="#000000" fill-opacity="1.00" />				<path d="M340.948,1058.11 C294.031,1068.02 216.435,1090.02 207.806,1095.85 C204.505,1098.07 194.502,1108.59 185.587,1119.17 C176.673,1129.78 164.392,1144.1 158.276,1151.01 C152.159,1157.91 141.52,1170.41 134.634,1178.76 C113.504,1204.32 43.2138,1286.29 22.6544,1309.35 C11.9642,1321.33 -0.502147,1335.56 -5.04297,1340.95 L-13.3204,1350.77 L-34.0137,1350.08 C-49.6804,1349.57 -55.0926,1348.81 -56.2989,1346.97 C-57.8237,1344.64 -57.3713,1317.77 -55.126,1277.33 L-54.1877,1260.39 L-21.983,1218.66 L10.2215,1176.92 L3.41871,1157.01 C-1.49074,1142.63 -4.30572,1136.72 -6.71855,1135.74 C-11.7118,1133.73 -130.293,1116.36 -160.152,1113.28 L-171.16,1112.14 L-182.302,1124.59 C-193.78,1137.42 -195.992,1141.89 -210.218,1181.15 C-212.715,1188.06 -219.902,1207.29 -226.186,1223.88 L-237.597,1254.04 L-236.574,1291.74 C-234.765,1358.46 -228.029,1422.03 -221.377,1435.17 C-216.954,1443.9 -189.809,1470.14 -147.652,1506.43 C-135.369,1517.01 -129.505,1522.12 -124.696,1525.15 C-119.887,1528.18 -116.134,1529.17 -108.074,1531.46 C-94.8373,1535.24 -91.4023,1535.51 -59.4825,1535.17 C-10.2373,1534.65 4.84294,1532.61 49.9831,1520.26 C63.706,1516.5 74.614,1512.4 80.1435,1508.9 C84.9021,1505.88 90.0461,1502.96 91.5709,1502.41 C93.0957,1501.86 99.0775,1495.14 104.875,1487.47 C110.672,1479.79 124.211,1462.21 134.952,1448.39 C153.484,1424.56 163.587,1411.36 216.971,1341.1 C229.404,1324.73 245.255,1304.1 252.192,1295.25 C259.129,1286.4 269.97,1271.98 276.286,1263.24 C290.211,1243.96 290.663,1243.57 298.606,1244.07 C302.09,1244.29 308.424,1244.54 312.681,1244.65 C317.237,1244.74 319.417,1244.47 320.807,1248.66 C322.198,1252.85 322.818,1261.5 324.242,1279.42 C325.197,1291.27 326.337,1302.61 326.772,1304.64 C327.51,1307.99 317.757,1323.4 277.862,1381.89 C276.286,1384.2 277.293,1387.92 283.14,1401.49 L290.361,1418.25 L376.403,1418.32 L462.444,1418.38 L485.449,1406.65 L508.455,1394.92 L507.617,1386.48 C507.148,1381.84 505.272,1360.69 503.428,1339.5 C499.675,1296.34 490.962,1206.35 488.398,1184.38 C487.477,1176.49 486.723,1166.41 486.723,1161.99 C486.723,1154.88 485.985,1153.22 480.422,1147.86 C472.162,1139.87 429.402,1102.87 411.321,1088.09 C403.497,1081.67 391.147,1071.35 383.893,1065.12 C376.235,1058.55 372.582,1055.28 367.321,1054.43 C362.043,1053.55 355.14,1055.1 340.948,1058.1 L340.948,1058.11 Z " fill="#000000" fill-opacity="1.00" />				<path d="M360.216,1482.5 C357.452,1483.35 337.848,1488.56 316.651,1494.12 C228.231,1517.2 223.07,1518.76 219.468,1523.6 C217.624,1526.06 207.94,1538.73 197.953,1551.72 C180.226,1574.79 126.088,1645.73 111.744,1664.7 C107.791,1669.93 95.2907,1686.27 83.9638,1701.01 C72.6368,1715.75 49.4804,1746.24 32.5067,1768.72 C15.5331,1791.22 -2.14422,1814.6 -6.76882,1820.67 L-15.1802,1831.71 L-35.6558,1831.68 C-52.9646,1831.66 -56.5838,1831.18 -59.0804,1828.69 C-61.7278,1826.04 -62.0965,1821.23 -62.5657,1783.87 L-63.085,1741.99 L-51.6743,1724.31 C-45.3909,1714.6 -31.4501,1693.37 -20.6929,1677.13 L-1.13887,1647.62 L-5.84725,1634.95 C-15.3645,1609.37 -16.8893,1606.89 -23.8932,1605.85 C-87.7328,1596.44 -128.265,1590.36 -154.186,1586.28 L-186.023,1581.29 L-202.359,1597.6 L-218.696,1613.9 L-221.226,1628.13 C-227.728,1664.62 -240.948,1761.73 -244.584,1799.85 C-245.991,1814.6 -247.884,1832.49 -248.79,1839.63 L-250.432,1852.6 L-234.564,1907.49 C-219.115,1960.92 -212.296,1985.17 -207.839,1997.55 C-203.398,2009.94 -201.337,2010.45 -195.473,2016.45 L-185.168,2026.95 L-62.2975,2026.87 L60.5727,2026.81 L65.7335,2021.4 C68.582,2018.44 84.5838,1998.27 101.323,1976.61 C118.062,1954.95 137.985,1929.33 145.591,1919.65 C153.215,1909.95 168.061,1890.87 178.567,1877.22 C189.09,1863.56 209.197,1837.54 223.272,1819.4 C237.329,1801.27 260.285,1771.35 274.276,1752.92 C288.268,1734.49 303.046,1715.46 307.134,1710.61 L314.557,1701.81 L330.123,1701.81 L345.689,1701.81 L346.578,1713.96 C349.61,1755.62 351.185,1775.31 350.75,1786.1 C350.331,1796.9 347.917,1798.82 343.009,1804.95 C336.072,1813.61 289.959,1873.9 276.856,1891.45 C274.326,1894.86 272.232,1898.63 272.232,1899.84 C272.199,1903.64 287.882,1947.22 289.742,1948.52 C290.713,1949.18 337.998,1949.75 394.817,1949.77 L498.117,1949.8 L508.036,1940.17 C513.482,1934.87 527.205,1921.49 538.515,1910.43 L559.091,1890.32 L558.002,1871.89 C557.399,1861.75 554.701,1822.54 551.986,1784.76 C549.272,1746.97 546.071,1700.16 544.866,1680.72 L542.67,1645.38 L518.341,1613.7 C504.953,1596.27 480.305,1563.76 463.55,1541.46 C438.265,1507.78 432.166,1500.65 427.659,1499.35 C424.676,1498.5 411.791,1493.94 399.04,1489.24 C375.867,1480.66 369.683,1479.59 360.233,1482.48 L360.216,1482.5 Z " fill="#000000" fill-opacity="1.00" />			</g>		</g>	</svg>