<?xml version="1.0" encoding="utf-8" ?>	<!-- Generator: Assembly 2.4 - http://assemblyapp.co -->	<svg version="1.1" xmlns="http://www.w3.org/2000/svg" xmlns:xlink="http://www.w3.org/1999/xlink" width="4096.00" height="4096.00" viewBox="0 0 4096.0 4096.0">		<g id="document" transform="scale(1.0 1.0) translate(2048.0 2048.0)">			<g>				<path d="M-152.498,-1941.47 C-153.948,-1941.16 -157.433,-1938.05 -160.234,-1934.56 C-165.25,-1928.32 -165.331,-1927.93 -165.429,-1909.81 C-165.478,-1899.68 -166.504,-1867.58 -167.693,-1838.46 L-169.859,-1785.53 L-165.787,-1779.47 C-160.983,-1772.32 -160.657,-1772.21 -141.733,-1770.92 C-87.3882,-1767.24 77.3247,-1754.65 109.863,-1751.69 L131.833,-1749.69 L133.005,-1741.54 C134.194,-1733.4 136.8,-1692.26 138.95,-1647.9 C139.992,-1626.55 140.464,-1623.78 143.982,-1619.06 C146.978,-1615.02 149.372,-1613.65 154.519,-1613.08 C158.183,-1612.68 194.516,-1612.46 235.279,-1612.61 L309.379,-1612.89 L310.34,-1757.83 C310.877,-1837.55 310.73,-1904.34 310.046,-1906.26 C309.281,-1908.37 306.024,-1910.74 301.757,-1912.25 C294.543,-1914.82 231.175,-1927.18 179.094,-1936.17 C162.971,-1938.96 148.184,-1941.63 146.229,-1942.1 C143.64,-1942.74 140.692,-1941.13 135.236,-1936.09 L127.794,-1929.22 L127.794,-1903.2 C127.794,-1879.35 127.566,-1877.27 125.025,-1878.23 C121.622,-1879.53 92.5681,-1886.54 54.5085,-1895.22 C38.8417,-1898.8 5.84705,-1906.49 -18.7768,-1912.33 C-55.5661,-1921.05 -117.582,-1935.12 -144.176,-1940.8 C-147.303,-1941.47 -151.065,-1941.76 -152.514,-1941.45 L-152.498,-1941.47 Z M-296.431,-1895.36 C-385.301,-1856.93 -407.645,-1846.55 -410.3,-1842.52 C-412.14,-1839.7 -413.003,-1825.53 -414.388,-1774.78 C-418.459,-1625.51 -421.032,-1530.96 -422.579,-1472.85 C-423.491,-1438.81 -425.022,-1382.01 -425.967,-1346.63 C-430.364,-1183.73 -430.413,-1179.84 -428.295,-1176.76 C-427.172,-1175.13 -426.618,-1172.46 -427.041,-1170.8 C-427.807,-1167.87 -419.843,-1161.84 -399.03,-1149.59 C-395.447,-1147.49 -384.813,-1140.87 -375.416,-1134.87 C-366.003,-1128.88 -350.629,-1119.21 -341.216,-1113.36 C-331.803,-1107.51 -313.677,-1096.05 -300.909,-1087.87 C-288.158,-1079.7 -276.676,-1073.02 -275.422,-1073.02 C-272.279,-1073.02 -254.674,-1082.35 -251.433,-1085.74 C-248.567,-1088.72 -247.574,-1114.27 -240.18,-1375.93 C-235.294,-1549.06 -229.757,-1724.72 -227.086,-1792.03 C-226.158,-1815.32 -225.034,-1850.85 -224.595,-1871.02 L-223.78,-1907.66 L-228.34,-1914.04 C-230.848,-1917.56 -233.633,-1920.64 -234.529,-1920.91 C-235.425,-1921.18 -263.273,-1909.68 -296.414,-1895.35 L-296.431,-1895.36 Z M-113.494,-1710.21 L-166.699,-1709.76 L-171.715,-1702.95 L-176.731,-1696.14 L-176.666,-1651.27 L-176.601,-1606.41 L-172.66,-1601.59 L-168.719,-1596.77 L-138.916,-1596.7 L-109.113,-1596.64 L-108.674,-1570.43 L-108.234,-1544.23 L-137.874,-1543.15 C-169.142,-1542.01 -172.513,-1541.2 -177.318,-1533.51 C-179.076,-1530.69 -179.809,-1518.33 -180.558,-1478.56 L-181.519,-1427.26 L-177.578,-1422.79 L-173.637,-1418.31 L-92.5346,-1417.53 C-47.9282,-1417.1 61.2344,-1416.29 150.056,-1415.72 L311.545,-1414.69 L319.199,-1421.74 L326.853,-1428.8 L325.762,-1443.49 C325.159,-1451.56 323.645,-1467.34 322.375,-1478.53 C321.104,-1489.74 318.971,-1510.61 317.619,-1524.95 C314.704,-1555.9 313.678,-1557.68 299.672,-1556.02 C295.161,-1555.48 258.502,-1554.33 218.195,-1553.43 C177.888,-1552.53 116.85,-1551.05 82.5523,-1550.12 C48.2548,-1549.2 19.4943,-1548.89 18.6312,-1549.42 C17.7518,-1549.98 17.0678,-1560.55 17.0678,-1573.74 C17.0678,-1587.29 16.7421,-1593.61 18.8918,-1596.55 C21.0415,-1599.5 25.6503,-1599.06 35.5194,-1599.06 C42.8317,-1599.06 55.9904,-1599.55 64.7358,-1600.12 L80.6632,-1601.18 L85.5814,-1607.86 L90.4997,-1614.53 L90.0111,-1658 L89.5226,-1701.47 L84.7346,-1706.45 L79.9466,-1711.43 L9.82067,-1711.04 C-28.7437,-1710.83 -84.2615,-1710.46 -113.527,-1710.21 L-113.494,-1710.21 Z M307.766,-1379.76 C304.184,-1379.48 268.632,-1378.13 228.781,-1376.76 C188.93,-1375.39 136.898,-1373.55 113.153,-1372.69 C34.868,-1369.81 -96.8828,-1365.57 -155.658,-1364.06 C-172.171,-1363.64 -175.119,-1363.12 -179.679,-1359.87 C-184.304,-1356.58 -186.258,-1358.18 -188.05,-1341.96 C-189.841,-1325.74 -191.486,-1291.7 -195.476,-1217.16 C-196.86,-1191.19 -198.733,-1153.45 -199.613,-1133.29 C-200.492,-1113.13 -201.925,-1084.19 -202.788,-1068.96 L-204.368,-1041.28 L-195.427,-1032.47 L-186.486,-1023.66 L-175.51,-1025.51 C-159.664,-1028.18 -77.2097,-1038.84 -72.3403,-1038.84 C-71.4609,-1038.84 -68.2038,-1041.59 -65.1258,-1044.94 L-59.5235,-1051.05 L-59.5235,-1067.34 C-59.5398,-1092.2 -54.4261,-1239.85 -53.5141,-1240.78 C-53.0744,-1241.23 -41.1207,-1241.82 -26.936,-1242.11 L-1.1558,-1242.63 L-0.194944,-1232.34 C1.28705,-1216.4 5.6516,-1100.77 5.6516,-1077.43 C5.6516,-1055.14 6.69388,-1051.08 14.3644,-1043.93 C18.2078,-1040.33 19.6898,-1040.09 35.2915,-1040.33 C44.5254,-1040.48 68.9213,-1041.67 89.5226,-1042.97 C110.124,-1044.28 128.69,-1045.35 130.79,-1045.35 C133.103,-1045.35 136.621,-1047.65 139.748,-1051.18 L144.894,-1056.99 L145.708,-1151.74 L146.522,-1246.49 L171.7,-1247.7 C185.543,-1248.37 197.382,-1248.37 197.985,-1247.7 C199.223,-1246.35 205.932,-1133.37 207.431,-1088.52 L208.408,-1059.21 L213.798,-1052.52 L219.189,-1045.82 L252.07,-1044.75 C270.163,-1044.16 298.76,-1043.57 315.632,-1043.46 L346.298,-1043.25 L352.096,-1049.05 C357.828,-1054.78 357.894,-1055.02 357.633,-1067.61 C357.486,-1074.63 356.64,-1092.11 355.76,-1106.44 C354.864,-1120.77 352.65,-1158.88 350.826,-1191.12 C349.002,-1223.37 346.461,-1265.14 345.175,-1283.95 C343.888,-1302.76 342.031,-1330.25 341.054,-1345.02 C339.295,-1371.7 339.247,-1371.93 334.475,-1376.37 C329.508,-1381.01 327.325,-1381.29 307.75,-1379.78 L307.766,-1379.76 Z M437.302,-1144.76 C435.283,-1142.74 425.919,-1129.27 416.457,-1114.81 L399.275,-1088.52 L401.083,-1080.38 C407.63,-1050.84 410.838,-1036.3 413.33,-1028.3 C415.822,-1020.3 417.613,-1018.85 421.343,-1015.5 L428.28,-1009.24 L445.38,-1010.19 C454.793,-1010.71 484.107,-1011.88 510.523,-1012.78 C627.356,-1016.78 752.625,-1021.35 793.795,-1023.09 L838.483,-1024.99 L847.31,-1036.39 C852.163,-1042.66 858.009,-1050.58 860.289,-1053.97 L864.442,-1060.14 L858.074,-1066.75 C854.573,-1070.38 835.307,-1088.05 815.26,-1106.01 C784.154,-1133.89 777.835,-1138.86 772.103,-1139.9 C761.256,-1141.89 725.77,-1143.05 623.708,-1144.71 C570.861,-1145.57 508.129,-1146.76 484.287,-1147.35 L440.95,-1148.42 L437.286,-1144.76 L437.302,-1144.76 Z M-614.815,-1139.73 C-643.038,-1139.09 -710.819,-1137.69 -765.457,-1136.65 C-921.734,-1133.65 -979.776,-1131.92 -981.812,-1130.23 C-984.254,-1128.2 -1004.94,-1086.41 -1003.96,-1085.46 C-1002.05,-1083.59 -921.522,-1040.76 -856.657,-1007.13 L-832.228,-994.457 L-694.614,-995.483 C-618.919,-996.037 -505.473,-996.982 -442.48,-997.584 L-327.96,-998.659 L-322.341,-1009.83 C-314.361,-1025.68 -310.371,-1036.38 -311.641,-1038.44 C-312.244,-1039.42 -325.566,-1047.14 -341.232,-1055.59 C-356.899,-1064.05 -374.471,-1073.54 -380.302,-1076.68 C-400.186,-1087.45 -439.712,-1108.42 -462.544,-1120.35 C-475.084,-1126.89 -488.862,-1134.32 -493.145,-1136.84 L-500.946,-1141.45 L-532.23,-1141.19 C-549.428,-1141.04 -586.592,-1140.39 -614.815,-1139.76 L-614.815,-1139.73 Z M-1078.14,-1040.04 C-1081.72,-1039.15 -1087.23,-1037.78 -1090.36,-1037.03 C-1099.52,-1034.83 -1102.94,-1026.31 -1105,-1000.56 C-1110.03,-937.8 -1111.84,-915.798 -1114.77,-882.494 C-1116.53,-862.332 -1120.57,-814.338 -1123.72,-775.823 C-1128.98,-711.657 -1133.02,-664.299 -1137.58,-612.966 C-1140.84,-576.34 -1145.68,-518.51 -1145.69,-515.855 C-1145.71,-514.243 -1142.01,-511.279 -1136.35,-508.38 C-1021.22,-449.198 -966.552,-421.627 -964.337,-421.627 C-962.839,-421.627 -960.95,-423.271 -960.152,-425.291 C-958.181,-430.258 -950.788,-507.436 -938.883,-647.183 C-937.059,-668.68 -933.346,-711.918 -930.642,-743.268 C-927.939,-774.618 -924.682,-813.459 -923.395,-829.582 C-922.108,-845.705 -919.584,-877.575 -917.76,-900.424 C-915.936,-923.273 -914.454,-944.884 -914.454,-948.467 C-914.454,-956.821 -917.337,-967.195 -919.633,-967.195 C-920.61,-967.195 -950.82,-982.341 -986.73,-1000.86 C-1065.01,-1041.2 -1066.94,-1042.16 -1069.54,-1041.9 C-1070.67,-1041.78 -1074.51,-1040.95 -1078.09,-1040.06 L-1078.14,-1040.04 Z M960.82,-1019.9 C952.759,-1016.77 939.568,-1011.77 931.506,-1008.77 C923.445,-1005.78 903.446,-998.122 887.063,-991.77 C870.679,-985.419 856.267,-980.224 855.029,-980.224 C851.837,-980.224 842.408,-967.782 842.326,-963.482 C842.294,-961.495 843.89,-943.744 845.876,-924.038 C848.889,-894.138 850.436,-880.995 850.257,-872.136 C850.078,-863.277 848.189,-858.684 844.346,-845.867 C840.535,-833.181 835.665,-820.543 833.353,-817.368 C831.073,-814.241 821.204,-803.753 811.416,-794.095 L793.616,-776.523 L781.467,-776.995 L769.318,-777.468 L762.233,-792.939 C751.143,-817.156 750.133,-821.211 751.697,-835.282 C752.446,-841.991 757.543,-869.889 763.048,-897.265 L773.047,-947.034 L765.328,-958.971 L757.608,-970.908 L743.586,-969.899 C735.867,-969.345 710.869,-967.765 688.036,-966.381 C661.849,-964.801 649.26,-964.101 642.567,-962.863 C635.873,-961.626 635.059,-959.851 632.404,-956.105 C628.007,-949.884 627.616,-948.337 606.494,-853.652 L600.24,-825.608 L602.65,-810.495 C609.458,-767.827 617.259,-738.333 629.343,-709.41 L634.652,-696.724 L661.393,-674.396 C680.105,-658.778 689.958,-651.645 694.192,-650.635 C697.514,-649.853 712.334,-646.254 727.122,-642.671 C763.439,-633.828 769.595,-633.975 825.389,-644.854 C836.854,-647.085 859.296,-662.263 896.736,-693.108 C903.593,-698.743 909.912,-703.368 910.775,-703.368 C911.654,-703.368 912.794,-701.349 913.332,-698.889 C924.341,-647.362 938.004,-574.972 936.946,-573.897 C935.822,-572.774 684.909,-578.229 629.994,-580.591 L605.321,-581.649 L598.774,-575.33 C592.309,-569.093 592.13,-568.588 583.906,-533.997 C579.329,-514.732 571.936,-483.919 567.474,-465.5 L559.363,-432.017 L564.444,-422.62 C567.246,-417.457 570.356,-412.979 571.382,-412.653 C572.392,-412.344 681.473,-411.171 813.761,-410.064 C1018.73,-408.337 1054.69,-408.37 1057,-410.292 C1058.5,-411.529 1070.36,-424.867 1083.37,-439.932 L1107.02,-467.324 L1105.26,-475.825 C1101.24,-495.254 1086.63,-561.488 1079.67,-591.811 C1065,-655.798 1058.93,-682.685 1037.4,-779.096 C1025.39,-832.839 1012.95,-887.803 1009.74,-901.239 C999.987,-942.164 996.128,-958.629 989.125,-989.181 C981.471,-1022.58 980.428,-1025.87 977.546,-1025.71 C976.406,-1025.64 968.882,-1023.04 960.821,-1019.91 L960.82,-1019.9 Z M69.9961,-981.673 C-4.54321,-973.042 -13.0606,-971.82 -15.6826,-969.459 C-17.1646,-968.124 -19.5586,-962.798 -21.008,-957.636 C-22.4574,-952.473 -26.1217,-940.601 -29.1345,-931.253 C-32.1636,-921.905 -39.1665,-899.968 -44.7036,-882.51 C-57.6832,-841.552 -64.1812,-821.276 -81.1508,-768.511 C-88.7888,-744.766 -97.2736,-718.025 -100.026,-709.068 C-103.169,-698.808 -108.104,-687.669 -113.364,-678.94 C-117.956,-671.334 -126.295,-656.873 -131.897,-646.824 L-142.059,-628.552 L-134.437,-613.129 C-130.252,-604.645 -124.764,-592.349 -122.24,-585.802 C-118.706,-576.633 -115.758,-572.122 -109.423,-566.162 C-104.895,-561.911 -100.417,-558.426 -99.4559,-558.442 C-98.5113,-558.442 -86.004,-562.905 -71.6726,-568.36 C-57.3412,-573.816 -34.6228,-582.154 -21.1871,-586.893 L3.24132,-595.508 L37.4412,-597.414 C56.2511,-598.456 80.0607,-599.987 90.3369,-600.801 C100.629,-601.615 109.473,-601.762 110.01,-601.127 C111.101,-599.808 149.926,-481.639 160.512,-447.472 L167.384,-425.275 L174.827,-424.249 C178.931,-423.695 202.447,-422.522 227.12,-421.643 C251.776,-420.78 276.384,-419.721 281.791,-419.314 C287.198,-418.907 292.507,-419.102 293.582,-419.77 C294.656,-420.438 299.672,-427.18 304.721,-434.737 L313.906,-448.498 L308.19,-464.784 C300.47,-486.753 283.501,-532.027 270.326,-565.754 C260.147,-591.828 245.262,-630.734 215.818,-708.254 C181.292,-799.16 154.388,-869.742 144.731,-894.724 C136.442,-916.173 117.746,-967.195 112.355,-983.074 C111.443,-985.745 102.486,-985.452 70.0287,-981.69 L69.9961,-981.673 Z M76.7873,-757.681 C103.349,-691.919 105.075,-687.294 103.528,-686.333 C102.812,-685.894 79.0347,-685.014 50.6814,-684.395 L-0.846369,-683.272 L-0.846369,-686.822 C-0.846369,-688.776 6.95445,-709.231 16.4815,-732.275 C26.0086,-755.319 36.692,-781.148 40.1934,-789.649 C48.7923,-810.511 50.8442,-813.573 54.0362,-810.381 C55.3879,-809.029 65.6153,-785.317 76.7873,-757.664 L76.7873,-757.681 Z M293.109,-976.055 C287.735,-974.833 260.994,-969.768 233.667,-964.801 C206.339,-959.834 182.448,-955.421 180.559,-954.981 C178.312,-954.476 175.201,-950.47 171.635,-943.5 L166.147,-932.8 L169.615,-923.534 C171.521,-918.436 185.282,-882.754 200.2,-844.239 C215.117,-805.723 231.24,-763.951 236.028,-751.411 C253.291,-706.218 268.388,-667.377 289.82,-612.983 C311.789,-557.221 316.43,-545.072 346.363,-464.784 C355.386,-440.599 363.219,-420.34 363.773,-419.77 C364.326,-419.2 394.487,-418.223 430.772,-417.588 C470.02,-416.904 488.13,-416.187 496.859,-418.353 C505.572,-420.519 504.904,-425.568 506.549,-436.398 C508.552,-449.524 511.63,-469.881 524.528,-555.169 C530.994,-597.967 545.993,-689.281 556.872,-752.225 C560.829,-775.074 569.705,-828.653 576.61,-871.289 L589.166,-948.825 L583.075,-958.01 C579.59,-963.27 578.352,-965.779 574.216,-966.674 C570.079,-967.57 563.06,-966.837 547.98,-965.583 C537.671,-964.72 513.128,-962.814 493.423,-961.333 L457.594,-958.629 L452.464,-953.792 C448.865,-950.405 447.057,-946.92 446.406,-942.197 C445.901,-938.484 443.963,-924.087 442.107,-910.196 C440.25,-896.304 435.82,-864.058 432.27,-838.539 C423.688,-776.898 412.744,-696.333 411.636,-686.61 C411.131,-682.213 409.991,-679.054 409.031,-679.379 C408.086,-679.689 402.011,-695.665 395.546,-714.866 C383.527,-750.515 331.934,-902.346 319.052,-939.982 C315.128,-951.447 311.105,-963.906 310.095,-967.668 C308.271,-974.491 305.845,-978.726 303.907,-978.449 C303.337,-978.367 298.484,-977.309 293.109,-976.071 L293.109,-976.055 Z M-210.117,-970.224 C-270.879,-967.602 -290.226,-965.632 -306.202,-960.404 C-324.214,-954.509 -334.23,-948.972 -354.277,-933.777 C-373.559,-919.169 -376.019,-916.368 -393.998,-888.487 L-408.508,-865.98 L-410.902,-849.401 C-415.967,-814.322 -412.629,-789.861 -397.353,-750.466 C-394.079,-742.03 -391.034,-733.513 -390.562,-731.558 C-390.008,-729.197 -395.04,-716.934 -405.61,-694.916 C-421.162,-662.507 -421.537,-661.465 -423.67,-643.909 C-424.875,-634.056 -426.325,-611.696 -426.911,-594.238 L-427.97,-562.481 L-422.156,-540.495 C-414.648,-512.061 -404.502,-482.893 -396.278,-465.989 C-390.822,-454.784 -388.07,-451.234 -379.732,-444.622 C-365.009,-432.945 -344.392,-420.031 -318.091,-406.041 L-294.802,-393.648 L-266.302,-394.69 C-211.371,-396.693 -130.285,-403.94 -64.4418,-412.751 L-44.1662,-415.454 L-35.5348,-422.913 C-30.7794,-427.017 -26.9034,-431.365 -26.9034,-432.57 C-26.9034,-433.776 -22.5063,-452.911 -17.132,-475.076 C-11.7578,-497.241 -7.36063,-516.604 -7.36063,-518.103 C-7.36063,-519.601 -10.8458,-526.034 -15.0963,-532.401 L-22.832,-543.981 L-35.1439,-543.117 C-41.9187,-542.645 -55.1101,-541.163 -64.4581,-539.811 C-161.814,-525.757 -216.11,-519.34 -237.802,-519.324 L-249.202,-519.308 L-264.674,-535.235 C-281.676,-552.742 -292.262,-567.139 -293.304,-574.19 C-293.678,-576.698 -294.411,-590.118 -294.916,-604.009 L-295.861,-629.252 L-283.842,-647.981 C-274.982,-661.791 -270.357,-667.442 -266.205,-669.51 C-253.648,-675.796 -234.301,-680.454 -214.172,-682.066 C-202.967,-682.962 -188.31,-684.135 -181.601,-684.672 C-163.898,-686.073 -162.644,-686.496 -157.84,-692.815 C-154.094,-697.733 -152.938,-702.147 -149.746,-723.872 C-147.694,-737.796 -145.528,-754.472 -144.925,-760.938 L-143.818,-772.68 L-152.531,-784.405 L-161.244,-796.131 L-175.086,-796.115 C-182.692,-796.115 -199.189,-795.431 -211.729,-794.616 C-224.269,-793.802 -242.688,-792.63 -252.655,-791.995 L-270.781,-790.838 L-276.676,-799.584 C-283.174,-809.225 -283.907,-814.566 -280.65,-828.637 C-278.842,-836.438 -278.077,-837.366 -267.621,-844.043 C-250.131,-855.232 -231.809,-858.033 -176.194,-858.033 L-132.825,-858.033 L-127.5,-863.879 C-121.148,-870.833 -118.233,-875.735 -118.152,-879.595 C-118.119,-881.158 -114.39,-896.06 -109.879,-912.704 L-101.654,-942.995 L-106.052,-950.6 C-108.478,-954.786 -112.566,-961.316 -115.155,-965.127 L-119.862,-972.048 L-149.502,-971.788 C-165.804,-971.641 -193.066,-970.925 -210.084,-970.192 L-210.117,-970.224 Z M-473.944,-963.075 C-480.214,-961.886 -507.704,-957.864 -535.015,-954.134 L-584.686,-947.359 L-589.719,-942.099 L-594.751,-936.839 L-595.826,-909.251 C-597.813,-858.228 -601.933,-774.227 -602.682,-769.195 L-603.431,-764.211 L-639.65,-757.355 C-683.198,-749.114 -720.655,-742.47 -723.668,-742.437 C-725.411,-742.421 -725.639,-744.848 -724.775,-754.212 C-723.359,-769.488 -715.004,-855.753 -710.737,-899.089 L-707.415,-932.816 L-711.666,-940.063 C-714.011,-944.053 -716.828,-948.076 -717.936,-948.988 C-719.336,-950.161 -729.091,-949.249 -750.018,-946.04 C-775.554,-942.115 -792.54,-939.721 -850.452,-931.888 C-861.803,-930.357 -861.819,-930.308 -863.822,-898.747 C-866.509,-856.665 -871.9,-780.692 -875.043,-740.776 C-877.616,-708.026 -878.072,-705.387 -881.964,-700.062 C-886.443,-693.922 -888.234,-689.639 -902.256,-651.482 C-907.305,-637.753 -911.099,-625.653 -910.676,-624.611 C-910.253,-623.568 -904.699,-615.409 -898.331,-606.517 C-891.459,-596.925 -888.218,-594.254 -887.371,-584.841 C-886.524,-575.412 -888.055,-559.224 -890.759,-522.565 C-898.787,-413.37 -902.566,-365.75 -904.699,-346.68 C-906.035,-334.857 -905.839,-331.828 -903.429,-325.916 C-901.865,-322.105 -899.862,-318.994 -898.967,-318.994 C-898.071,-318.994 -866.2,-329.547 -828.124,-342.462 C-744.367,-370.864 -739.742,-372.493 -738.374,-373.991 C-737.771,-374.642 -735.964,-425.568 -734.351,-487.144 C-732.739,-548.72 -731.013,-599.775 -730.508,-600.573 C-728.928,-603.097 -610.353,-629.415 -608.561,-627.624 C-607.665,-626.728 -613.365,-485.89 -617.437,-408.321 L-618.43,-389.365 L-613.089,-381.45 C-610.141,-377.102 -607.519,-373.258 -607.258,-372.932 C-606.998,-372.59 -587.146,-378.698 -563.14,-386.498 C-539.152,-394.299 -506.76,-404.82 -491.174,-409.868 L-462.837,-419.07 L-463.831,-441.902 C-464.384,-454.458 -465.964,-487.453 -467.348,-515.22 C-470.606,-580.639 -472.706,-643.453 -471.827,-649.397 C-471.404,-652.264 -469.71,-654.739 -467.446,-655.765 C-464.531,-657.101 -461.16,-664.462 -451.323,-691.072 C-444.483,-709.573 -438.881,-725.419 -438.881,-726.282 C-438.881,-727.145 -444.109,-735.662 -450.509,-745.206 L-462.137,-762.55 L-459.401,-785.464 C-457.903,-798.069 -452.577,-839.288 -447.578,-877.071 L-438.49,-945.763 L-444.483,-955.649 C-451.34,-966.918 -452.235,-967.146 -473.863,-963.059 L-473.944,-963.075 Z M118.853,-395.407 C108.105,-394.69 87.2264,-393.355 72.439,-392.443 C42.5549,-390.602 32.132,-388.045 -30.9748,-367.151 C-74.8972,-352.608 -101.28,-341.208 -108.055,-333.863 C-114.211,-327.186 -149.339,-283.231 -175.445,-249.536 C-185.037,-237.143 -195.965,-223.153 -199.694,-218.447 L-206.501,-209.881 L-207.267,-169.525 L-208.032,-129.169 L-200.671,-114.577 C-176.682,-67.0393 -148.557,-16.505 -143.753,-12.287 L-138.444,-7.64562 L-115.644,-8.63904 C-103.104,-9.17647 -80.0109,-10.349 -64.3441,-11.2285 C-48.6773,-12.1079 -13.5655,-13.9319 13.6641,-15.2673 C40.8937,-16.6027 63.3516,-17.9056 63.547,-18.1336 C63.7425,-18.3616 65.5013,-25.8855 67.4393,-34.8426 C69.3773,-43.7997 71.5596,-53.7991 72.3087,-57.0725 C73.921,-64.1568 73.8558,-64.2545 63.4982,-71.3713 C59.0196,-74.4493 36.8549,-90.7349 14.2341,-107.574 L-26.8871,-138.191 L-26.8871,-165.274 L-26.8871,-192.357 L-4.49435,-214.669 L17.8984,-236.98 L31.7412,-240.4 C60.6319,-247.517 99.978,-252.744 140.041,-254.764 L159.583,-255.757 L193.197,-237.843 C211.681,-227.99 229.709,-218.105 233.26,-215.874 L239.692,-211.802 L240.637,-175.437 C241.337,-148.761 241.077,-138.354 239.66,-136.384 C238.601,-134.902 227.462,-122.085 214.889,-107.884 C202.317,-93.6826 189.305,-78.6836 185.966,-74.547 L179.892,-67.023 L188.148,-48.49 C192.692,-38.2952 197.545,-28.1981 198.946,-26.0484 L201.486,-22.1561 L225.312,-23.231 C238.422,-23.8173 280.651,-25.0224 319.166,-25.9181 C359.05,-26.8301 376.248,-26.6998 385.221,-28.6704 C394.194,-30.6409 394.96,-34.7286 401.979,-44.0929 L408.9,-53.3268 L410.903,-89.6927 C413.249,-132.328 415.952,-203.513 416.343,-233.381 L416.62,-254.389 L411.734,-258.624 C407.369,-262.402 395.204,-271.945 335.436,-318.457 C316.268,-333.358 258.926,-376.971 256.516,-378.453 C255.604,-379.023 250.425,-380.196 245.018,-381.075 C239.611,-381.938 223.765,-385.945 209.808,-389.951 C184.761,-397.133 184.126,-397.231 161.407,-397.003 C148.753,-396.872 129.602,-396.172 118.853,-395.472 L118.853,-395.407 Z M-294.802,-349.041 C-301.072,-347.885 -335.874,-341.729 -372.159,-335.362 C-408.427,-328.994 -445.965,-322.398 -455.558,-320.704 C-475.377,-317.203 -475.654,-317.073 -482.673,-308.995 L-487.836,-303.051 L-489.432,-233.267 C-490.311,-194.882 -491.761,-136.009 -492.656,-102.412 C-493.552,-68.8308 -495.034,-12.3848 -495.93,22.9876 C-496.842,58.36 -498.291,113.699 -499.154,145.944 C-500.017,178.19 -501.841,250.368 -503.193,306.358 C-504.545,362.348 -506.776,449.916 -508.144,500.971 C-509.512,552.027 -511.32,622.38 -512.183,657.313 C-513.03,692.246 -514.479,747.943 -515.407,781.084 C-516.319,814.225 -517.818,874.319 -518.713,914.626 C-519.625,954.933 -521.107,1016.49 -522.003,1051.43 C-525.13,1172.09 -526.335,1250.14 -525.228,1260.7 C-524.446,1268.15 -521.808,1276.35 -516.352,1288.38 C-507.297,1308.35 -494.887,1339.08 -486.093,1363.3 C-482.673,1372.71 -475.882,1389.55 -470.98,1400.75 C-466.078,1411.96 -456.535,1434.66 -449.793,1451.24 C-431.308,1496.54 -358.056,1678.03 -356.997,1681.14 C-355.368,1685.9 -341.086,1686.45 -320.843,1682.54 C-310.99,1680.64 -300.991,1678.72 -298.613,1678.24 C-295.958,1677.74 -292.538,1674.89 -289.786,1670.91 L-285.291,1664.42 L-283.174,1506.12 C-281.073,1348.25 -279.07,1174.71 -276.057,889.383 C-275.178,806.522 -273.728,690.015 -272.833,630.442 C-271.921,570.869 -270.455,448.124 -269.559,357.657 C-268.664,267.191 -267.198,135.277 -266.286,64.516 C-265.39,-6.24513 -263.925,-124.853 -263.013,-199.034 L-261.368,-333.928 L-266.677,-342.706 C-272.719,-352.706 -273.728,-352.934 -294.786,-349.025 L-294.802,-349.041 Z M372.095,7.76059 C369.847,8.07001 346.396,9.79629 319.981,11.5714 C277.394,14.454 254.203,16.1314 162.824,23.0202 C150.284,23.9648 128.673,25.7725 114.782,27.0265 C100.89,28.2805 82.9432,29.7625 74.8818,30.3325 C66.8204,30.8862 47.3917,32.3519 31.7249,33.5896 C16.0581,34.8273 -3.37064,36.2604 -11.432,36.7816 C-19.4934,37.3027 -45.8762,39.143 -70.0603,40.8693 C-94.2445,42.6118 -126.115,44.8104 -140.903,45.755 C-167.237,47.4487 -179.353,48.0187 -186.226,49.8101 C-193.098,51.6015 -194.711,54.6144 -200.069,61.1775 L-207.267,70.0206 L-208.016,133.225 L-208.765,196.43 L-203.993,204.98 C-201.371,209.686 -198.619,213.53 -197.87,213.53 C-197.121,213.53 -172.09,210.566 -142.255,206.934 C-68.7738,198.009 -44.6059,195.306 -44.0033,195.909 C-43.7264,196.185 -42.9773,203.823 -42.3422,212.862 L-41.1859,229.31 L-60.5169,240.385 C-71.1515,246.475 -89.3751,257.094 -101.019,263.982 C-129.845,281.034 -183.962,312.416 -193.505,317.595 C-197.789,319.924 -204.026,324.614 -207.348,328.001 L-213.39,334.19 L-213.814,413.501 L-214.237,492.812 L-208.114,499.701 C-200.818,507.892 -165.071,525.416 -160.56,522.989 C-157.302,521.247 -97.8436,471.038 -54.7681,433.663 C-36.5119,417.817 -14.5263,398.762 -5.9112,391.336 C2.7039,383.894 16.8887,371.614 25.6178,364.058 C34.3469,356.501 42.278,350.296 43.2389,350.296 C44.1997,350.296 48.776,353.537 53.4174,357.478 C86.2329,385.408 157.906,442.522 165.267,446.593 L174.224,451.544 L217.381,451.788 C253.112,451.984 265.717,451.398 290.667,448.385 L320.795,444.737 L327.309,437.734 C330.892,433.874 345.24,417.947 359.213,402.313 C373.17,386.695 390.758,367.038 398.298,358.651 C405.839,350.264 414.73,340.264 418.085,336.437 L424.16,329.483 L424.241,197.26 L424.323,65.0372 L407.76,35.8533 L391.198,6.66945 L383.674,6.91373 C379.537,7.04402 374.326,7.41859 372.078,7.72802 L372.095,7.76059 Z M273.371,217.096 L274.511,276.034 L268.681,284.502 C263.926,291.408 261.808,294.762 257.493,296.456 C253.177,298.15 246.663,298.166 233.129,298.427 L208.961,298.883 L194.858,286.766 C187.09,280.105 167.857,263.901 152.076,250.759 L123.413,226.868 L121.312,201.446 C120.156,187.473 119.586,175.649 120.042,175.193 C121.638,173.597 249.692,159.022 268.029,158.338 L272.247,158.175 L273.387,217.112 L273.371,217.096 Z M94.4246,485.451 C89.0503,486.167 79.1487,487.275 72.439,487.926 C61.1531,489.017 24.4289,501.525 -32.6034,523.722 C-37.9776,525.807 -53.0093,531.653 -65.9889,536.685 C-87.3394,544.975 -90.3522,546.636 -97.3713,554.095 C-105.319,562.531 -124.145,586.894 -183.522,665.635 L-217.185,710.274 L-218.341,721.088 C-218.976,727.032 -219.025,738.937 -218.439,747.536 C-216.859,770.726 -212.674,843.067 -211.469,867.951 C-210.719,883.439 -209.742,890.344 -208.097,891.989 C-206.827,893.259 -205.085,896.826 -204.238,899.888 C-203.423,902.852 -203.016,904.334 -194.792,910.652 C-186.568,916.971 -170.543,928.111 -138.46,950.406 C-98.1368,978.433 -77.6983,991.999 -75.7929,991.999 C-74.832,991.999 -69.8486,994.1 -64.7186,996.657 C-52.8301,1002.58 -51.9833,1002.78 -19.2817,1006.66 C27.8326,1012.24 71.7876,1014.12 101.281,1011.8 C132.761,1009.33 137.451,1008.55 182.367,998.318 C228.846,987.732 239.367,984.719 278.322,970.893 C303.5,961.952 315.6,957.767 324.068,952.832 C332.537,947.898 337.357,942.198 347.992,930.212 C376.866,897.705 423.02,846.796 446.031,822.075 L467.04,799.503 L465.118,771.589 C462.806,737.862 460.786,712.619 456.731,666.319 C455.037,647.053 453.181,624.905 452.578,617.088 L451.503,602.87 L441.52,594.206 C429.583,583.832 375.401,539.307 343.611,513.739 C324.313,498.219 319.704,495.255 313.483,494.359 C309.444,493.773 304.298,492.323 302.066,491.118 C299.819,489.929 288.468,488.138 276.824,487.144 C251.272,484.962 108.17,483.692 94.4246,485.516 L94.4246,485.451 Z M251.141,656.759 C269.381,665.57 284.918,672.784 285.667,672.784 C289.299,672.784 290.748,679.103 292.214,701.415 C293.093,714.785 294.298,731.592 294.901,738.79 L295.976,751.867 L265.228,780.514 C243.52,800.741 234.123,809.893 226.159,815.137 C218.179,820.381 211.632,821.7 195.64,826.26 C154.128,838.1 86.7215,851.926 70.5499,851.926 C64.2636,851.926 17.2633,843.002 0.782207,838.67 C-12.572,835.169 -28.3854,829.224 -40.1436,823.296 C-46.951,819.86 -47.7816,818.818 -48.6936,812.499 C-51.6738,791.93 -52.7324,772.453 -51.8367,754.701 L-50.827,734.833 L-19.07,704.216 C1.17306,684.689 14.8041,672.801 18.5498,671.4 C21.7744,670.195 46.7728,662.362 74.0839,654.007 L123.755,638.813 L170.869,639.773 L217.984,640.734 L251.158,656.759 L251.141,656.759 Z M331.381,1001.02 C286.66,1010.45 210.248,1032.11 201.975,1037.71 C198.767,1039.88 189.06,1050.07 180.396,1060.38 C171.733,1070.69 159.795,1084.62 153.851,1091.33 C147.907,1098.04 137.565,1110.18 130.872,1118.29 C110.336,1143.15 42.0174,1222.82 22.035,1245.22 C11.6447,1256.87 -0.390371,1270.61 -4.73864,1275.76 L-12.6209,1285.12 L-27.4897,1285.11 C-46.8533,1285.09 -54.247,1283.81 -55.3707,1280.29 C-55.8593,1278.76 -55.5335,1259.75 -54.6378,1238.09 C-53.0255,1198.76 -53.0093,1198.68 -48.4981,1192.36 C-46.0064,1188.88 -31.8379,1170.39 -17.018,1151.29 L9.93472,1116.55 L3.32275,1097.19 C-1.44894,1083.2 -4.18493,1077.47 -6.53006,1076.52 C-11.3832,1074.57 -126.637,1057.68 -155.658,1054.68 L-166.357,1053.58 L-177.187,1065.68 C-188.343,1078.15 -190.493,1082.5 -204.319,1120.66 C-206.746,1127.37 -213.732,1146.06 -219.839,1162.18 L-230.93,1191.5 L-229.936,1228.14 C-228.178,1292.99 -221.631,1354.78 -215.165,1367.55 C-210.866,1376.03 -184.483,1401.53 -143.509,1436.81 C-131.571,1447.09 -125.871,1452.05 -121.197,1455 C-116.523,1457.95 -112.875,1458.91 -105.042,1461.14 C-92.1762,1464.8 -88.8377,1465.06 -57.8135,1464.74 C-9.95004,1464.23 4.70703,1462.25 48.5805,1450.24 C61.9185,1446.6 72.5204,1442.61 77.8947,1439.2 C82.5198,1436.27 87.5195,1433.44 89.0015,1432.9 C90.4835,1432.36 96.2975,1425.83 101.932,1418.37 C107.567,1410.91 120.726,1393.83 131.165,1380.4 C149.177,1357.24 158.997,1344.4 210.883,1276.12 C222.967,1260.21 238.373,1240.16 245.116,1231.54 C251.858,1222.95 262.395,1208.94 268.534,1200.44 C282.068,1181.69 282.507,1181.32 290.227,1181.81 C293.614,1182.02 299.77,1182.26 303.907,1182.36 C308.336,1182.46 310.454,1182.2 311.805,1186.27 C313.157,1190.34 313.76,1198.75 315.144,1216.17 C316.072,1227.69 317.18,1238.71 317.603,1240.68 C318.32,1243.94 308.841,1258.9 270.065,1315.76 C268.534,1318.01 269.511,1321.62 275.195,1334.81 L282.214,1351.1 L365.841,1351.15 L449.468,1351.2 L471.453,1339.99 C483.537,1333.83 493.569,1328.66 493.748,1328.51 C494.563,1327.76 479.01,1160.54 474.727,1123.8 C473.831,1116.13 473.098,1106.73 473.098,1102.92 C473.098,1093.78 471.535,1091.24 460.281,1082.01 C455.054,1077.73 442.432,1066.86 432.221,1057.86 C422.01,1048.85 407.435,1036.39 399.813,1030.17 C392.207,1023.95 380.205,1013.9 373.153,1007.86 C365.711,1001.48 362.16,998.302 357.047,997.471 C351.917,996.624 345.207,998.123 331.413,1001.02 L331.381,1001.02 Z M350.109,1412.3 C347.422,1413.13 328.368,1418.19 307.766,1423.59 C221.827,1446.03 216.811,1447.54 213.31,1452.25 C211.518,1454.64 202.105,1466.95 192.399,1479.58 C175.169,1502 122.55,1570.95 108.609,1589.39 C104.766,1594.47 92.6169,1610.35 81.6078,1624.68 C70.5987,1639.01 48.092,1668.64 31.5946,1690.49 C15.0973,1712.36 -2.08408,1735.08 -6.57891,1740.98 L-14.7543,1751.71 L-34.6554,1751.68 C-51.4784,1751.66 -54.9961,1751.2 -57.4227,1748.78 C-59.9958,1746.2 -60.3541,1741.53 -60.8101,1705.21 L-61.3149,1664.51 L-50.2244,1647.33 C-44.1173,1637.89 -30.5677,1617.25 -20.1123,1601.47 L-1.10694,1572.79 L-5.6832,1560.47 C-14.9334,1535.61 -16.4154,1533.2 -23.2228,1532.19 C-85.2711,1523.04 -124.666,1517.13 -149.86,1513.17 L-180.803,1508.32 L-196.681,1524.17 L-212.56,1540.01 L-215.019,1553.84 C-221.338,1589.31 -234.187,1683.7 -237.721,1720.75 C-239.089,1735.08 -240.929,1752.47 -241.809,1759.41 L-243.405,1772.02 L-227.982,1825.37 C-212.967,1877.3 -206.339,1900.87 -202.007,1912.9 C-197.691,1924.94 -195.688,1925.44 -189.988,1931.27 L-179.972,1941.47 L-60.5495,1941.4 L58.8731,1941.34 L63.889,1936.08 C66.6576,1933.2 82.2104,1913.6 98.4797,1892.55 C114.749,1871.49 134.113,1846.59 141.506,1837.18 C148.916,1827.76 163.15,1809.44 173.149,1796.46 C183.149,1783.48 204.955,1755.26 221.615,1733.76 C238.276,1712.26 260.75,1682.95 271.58,1668.62 C282.41,1654.29 294.51,1638.72 298.5,1634.01 L305.747,1625.46 L320.876,1625.46 L336.006,1625.46 L336.869,1637.27 C339.817,1677.76 341.347,1696.89 340.924,1707.38 C340.517,1717.88 338.172,1719.74 333.4,1725.7 C326.658,1734.12 281.84,1792.72 269.104,1809.78 C266.645,1813.09 264.609,1816.75 264.609,1817.93 C264.577,1821.62 279.82,1863.98 281.628,1865.24 C282.573,1865.89 328.531,1866.44 383.755,1866.46 L484.156,1866.49 L493.797,1857.12 C499.09,1851.98 512.428,1838.97 523.421,1828.22 L543.42,1808.68 L542.361,1790.76 C541.775,1780.91 539.153,1742.8 536.515,1706.08 C533.876,1669.35 530.766,1623.85 529.593,1604.96 L527.46,1570.61 L503.813,1539.82 C490.801,1522.88 466.845,1491.28 450.559,1469.61 C425.984,1436.87 420.056,1429.94 415.675,1428.68 C412.776,1427.85 400.253,1423.42 387.859,1418.85 C365.336,1410.51 359.327,1409.47 350.142,1412.28 L350.109,1412.3 Z " fill="#fefefe" fill-opacity="1.00" />				<path d="M-152.498,-1952.96 C-153.948,-1952.65 -157.433,-1949.54 -160.234,-1946.05 C-165.25,-1939.81 -165.331,-1939.42 -165.429,-1921.3 C-165.478,-1911.17 -166.504,-1879.07 -167.693,-1849.95 L-169.859,-1797.02 L-165.738,-1790.88 C-163.475,-1787.51 -160.071,-1784.4 -158.182,-1783.99 C-156.293,-1783.59 -138.639,-1782.12 -118.933,-1780.74 C-46.2507,-1775.67 74.5399,-1766.4 109.863,-1763.18 L131.833,-1761.18 L133.005,-1753.03 C134.292,-1744.19 137.109,-1698.9 138.494,-1665.09 C139.634,-1637.11 140.057,-1634.88 145.317,-1629.13 L149.796,-1624.23 L229.579,-1624.3 L309.362,-1624.36 L310.356,-1769.3 C310.91,-1849.02 310.763,-1915.81 310.063,-1917.73 C309.281,-1919.83 305.975,-1922.21 301.741,-1923.72 C294.526,-1926.3 231.159,-1938.66 179.077,-1947.65 C162.955,-1950.43 148.167,-1953.1 146.213,-1953.57 C143.624,-1954.21 140.676,-1952.6 135.22,-1947.57 L127.778,-1940.69 L127.778,-1914.67 C127.778,-1890.83 127.55,-1888.74 125.009,-1889.7 C121.605,-1891.01 92.5518,-1898.01 54.4923,-1906.69 C38.8255,-1910.27 5.83079,-1917.96 -18.7931,-1923.8 C-55.5823,-1932.52 -117.598,-1946.59 -144.192,-1952.27 C-147.319,-1952.94 -151.081,-1953.23 -152.531,-1952.92 L-152.498,-1952.96 Z " fill="#000000" fill-opacity="1.00" stroke-width="0.18" stroke="#000000" stroke-linecap="square" stroke-linejoin="miter" />				<path d="M-296.431,-1910 C-385.301,-1871.56 -407.645,-1861.19 -410.3,-1857.15 C-412.14,-1854.33 -413.003,-1840.17 -414.388,-1789.42 C-418.459,-1640.15 -421.032,-1545.59 -422.579,-1487.48 C-423.491,-1453.45 -425.022,-1396.64 -425.967,-1361.27 C-430.364,-1198.37 -430.413,-1194.47 -428.295,-1191.39 C-427.172,-1189.77 -426.618,-1187.1 -427.041,-1185.43 C-427.807,-1182.5 -419.843,-1176.48 -399.03,-1164.23 C-395.447,-1162.13 -384.813,-1155.52 -375.416,-1149.54 C-302.049,-1102.93 -277.376,-1087.67 -275.422,-1087.67 C-272.295,-1087.67 -254.691,-1097.02 -251.45,-1100.39 C-248.469,-1103.5 -246.336,-1162.93 -237.004,-1502.96 C-236.076,-1536.54 -234.61,-1585.28 -233.747,-1611.25 C-232.868,-1637.23 -231.402,-1682.29 -230.474,-1711.41 C-229.546,-1740.53 -228.031,-1783.39 -227.119,-1806.68 C-226.207,-1829.97 -225.083,-1865.51 -224.644,-1885.67 L-223.829,-1922.31 L-228.389,-1928.69 C-230.897,-1932.21 -233.682,-1935.29 -234.578,-1935.57 C-235.473,-1935.83 -263.322,-1924.33 -296.463,-1910 L-296.431,-1910 Z " fill="#000000" fill-opacity="1.00" stroke-width="0.18" stroke="#000000" stroke-linecap="square" stroke-linejoin="miter" />				<path d="M-113.494,-1721.7 L-166.699,-1721.24 L-171.715,-1714.44 L-176.731,-1707.63 L-176.666,-1662.76 L-176.601,-1617.9 L-172.66,-1613.07 L-168.719,-1608.25 L-138.916,-1608.19 L-109.113,-1608.12 L-108.674,-1581.92 L-108.234,-1555.72 L-137.874,-1554.64 C-169.142,-1553.5 -172.513,-1552.69 -177.318,-1545 C-179.076,-1542.18 -179.809,-1529.82 -180.558,-1490.05 L-181.519,-1438.75 L-177.578,-1434.27 L-173.637,-1429.8 L-92.5345,-1429.01 C-47.9282,-1428.59 61.2344,-1427.78 150.056,-1427.21 L311.545,-1426.18 L319.199,-1433.23 L326.853,-1440.28 L325.762,-1454.97 C325.159,-1463.05 323.645,-1478.83 322.375,-1490.02 C321.104,-1501.22 318.971,-1522.1 317.619,-1536.43 C314.688,-1567.39 313.678,-1569.17 299.672,-1567.51 C295.161,-1566.97 258.502,-1565.81 218.195,-1564.92 C177.888,-1564.02 116.85,-1562.54 82.5523,-1561.61 C48.2548,-1560.68 19.4944,-1560.36 18.6312,-1560.9 C17.7518,-1561.45 17.0678,-1572.02 17.0678,-1585.21 C17.0678,-1598.76 16.7421,-1605.08 18.8918,-1608.03 C21.0415,-1610.97 25.6503,-1610.53 35.5194,-1610.53 C42.8317,-1610.53 55.9905,-1611.02 64.7359,-1611.59 L80.6632,-1612.65 L85.5815,-1619.33 L90.4997,-1626.01 L90.0112,-1669.47 L89.5226,-1712.94 L84.7346,-1717.92 L79.9466,-1722.9 L9.82069,-1722.51 C-28.7437,-1722.3 -84.2614,-1721.93 -113.527,-1721.68 L-113.494,-1721.7 Z " fill="#000000" fill-opacity="1.00" stroke-width="0.18" stroke="#000000" stroke-linecap="square" stroke-linejoin="miter" />				<path d="M311.838,-1379.92 C310.486,-1379.63 283.387,-1378.6 251.581,-1377.63 C219.775,-1376.65 176.911,-1375.17 156.31,-1374.3 C135.709,-1373.46 95.7763,-1372.01 67.5533,-1371.08 C39.3303,-1370.15 -4.99918,-1368.62 -30.9748,-1367.68 C-56.9504,-1366.73 -99.863,-1365.43 -126.327,-1364.78 C-172.872,-1363.64 -174.614,-1363.47 -179.663,-1359.89 C-184.304,-1356.58 -186.258,-1358.18 -188.05,-1341.98 C-189.841,-1325.76 -191.486,-1291.72 -195.476,-1217.16 C-196.86,-1191.19 -198.733,-1153.45 -199.613,-1133.29 C-200.492,-1113.13 -201.925,-1084.19 -202.788,-1068.96 L-204.368,-1041.28 L-195.427,-1032.47 L-186.486,-1023.66 L-175.51,-1025.51 C-159.664,-1028.18 -77.2097,-1038.84 -72.3403,-1038.84 C-71.4609,-1038.84 -68.2037,-1041.59 -65.1258,-1044.94 L-59.5235,-1051.05 L-59.5235,-1067.34 C-59.5398,-1092.2 -54.4261,-1239.85 -53.5141,-1240.78 C-53.0744,-1241.23 -41.1207,-1241.82 -26.9359,-1242.11 L-1.15577,-1242.63 L-0.19492,-1232.34 C1.28707,-1216.4 5.65162,-1100.77 5.65162,-1077.43 C5.65162,-1055.14 6.6939,-1051.08 14.3644,-1043.93 C18.2078,-1040.33 19.6898,-1040.09 35.2915,-1040.33 C44.5254,-1040.48 68.9213,-1041.67 89.5226,-1042.97 C110.124,-1044.28 128.69,-1045.35 130.79,-1045.35 C133.103,-1045.35 136.621,-1047.65 139.748,-1051.18 L144.894,-1056.99 L145.708,-1151.74 L146.522,-1246.49 L171.7,-1247.7 C185.543,-1248.37 197.382,-1248.37 197.985,-1247.7 C199.223,-1246.35 205.932,-1133.37 207.431,-1088.52 L208.408,-1059.21 L213.798,-1052.52 L219.189,-1045.82 L252.07,-1044.75 C270.163,-1044.16 298.76,-1043.58 315.632,-1043.46 L346.298,-1043.25 L352.096,-1049.05 C357.829,-1054.78 357.894,-1055.02 357.633,-1067.61 C357.486,-1074.63 356.64,-1092.11 355.76,-1106.44 C354.865,-1120.77 352.65,-1158.88 350.826,-1191.12 C349.002,-1223.37 346.461,-1265.14 345.175,-1283.95 C343.888,-1302.76 342.031,-1330.25 341.054,-1345.02 C339.295,-1371.7 339.247,-1371.93 334.475,-1376.37 C330.55,-1380.04 328.286,-1380.82 321.968,-1380.66 C317.733,-1380.56 313.157,-1380.23 311.822,-1379.94 L311.838,-1379.92 Z " fill="#000000" fill-opacity="1.00" stroke-width="0.18" stroke="#000000" stroke-linecap="square" stroke-linejoin="miter" />				<path d="M437.302,-1144.76 C435.299,-1142.75 425.919,-1129.27 416.457,-1114.81 L399.276,-1088.52 L401.083,-1080.38 C407.63,-1050.84 410.822,-1036.3 413.33,-1028.3 C415.822,-1020.3 417.613,-1018.84 421.343,-1015.48 L428.28,-1009.23 L444.566,-1010.17 C453.523,-1010.69 483.57,-1011.87 511.337,-1012.8 C609.979,-1016.08 775.751,-1022.16 814.966,-1023.93 L838.483,-1024.99 L847.31,-1036.39 C852.163,-1042.66 858.009,-1050.58 860.289,-1053.97 L864.442,-1060.14 L858.074,-1066.75 C854.573,-1070.38 835.307,-1088.05 815.26,-1106.01 C784.154,-1133.9 777.835,-1138.86 772.103,-1139.9 C761.207,-1141.91 725.509,-1143.06 624.522,-1144.71 C572.131,-1145.56 509.383,-1146.74 485.101,-1147.33 L440.95,-1148.41 L437.302,-1144.76 Z " fill="#000000" fill-opacity="1.00" stroke-width="0.18" stroke="#000000" stroke-linecap="square" stroke-linejoin="miter" />				<path d="M-614.815,-1139.73 C-643.038,-1139.09 -710.819,-1137.69 -765.457,-1136.65 C-906.605,-1133.93 -979.45,-1131.96 -981.339,-1130.78 C-983.049,-1129.73 -1004.04,-1088.7 -1004.04,-1086.42 C-1004.04,-1085.71 -998.732,-1082.29 -992.234,-1078.82 C-985.736,-1075.35 -967.969,-1065.77 -952.742,-1057.52 C-937.515,-1049.26 -904.162,-1031.69 -878.642,-1018.46 L-832.228,-994.425 L-694.614,-995.467 C-618.919,-996.037 -505.473,-996.982 -442.48,-997.584 L-327.96,-998.659 L-322.341,-1009.83 C-314.361,-1025.68 -310.371,-1036.38 -311.641,-1038.45 C-312.244,-1039.42 -325.566,-1047.14 -341.232,-1055.59 C-356.899,-1064.05 -374.471,-1073.54 -380.302,-1076.68 C-400.186,-1087.45 -439.712,-1108.42 -462.544,-1120.35 C-475.084,-1126.89 -488.862,-1134.32 -493.145,-1136.84 L-500.946,-1141.45 L-532.23,-1141.19 C-549.428,-1141.04 -586.592,-1140.39 -614.815,-1139.76 L-614.815,-1139.73 Z " fill="#000000" fill-opacity="1.00" stroke-width="0.18" stroke="#000000" stroke-linecap="square" stroke-linejoin="miter" />				<path d="M-1092.21,-1040.04 C-1095.79,-1039.15 -1101.3,-1037.78 -1104.42,-1037.03 C-1113.59,-1034.83 -1117.01,-1026.31 -1119.07,-1000.56 C-1124.1,-937.8 -1125.91,-915.798 -1128.84,-882.494 C-1130.6,-862.332 -1134.63,-814.338 -1137.79,-775.823 C-1143.05,-711.657 -1147.09,-664.299 -1151.65,-612.966 C-1154.91,-576.34 -1159.75,-518.51 -1159.76,-515.855 C-1159.78,-514.243 -1156.08,-511.279 -1150.42,-508.38 C-1035.29,-449.198 -980.621,-421.627 -978.406,-421.627 C-975.703,-421.627 -974.449,-421.056 -972.625,-433.938 C-970.817,-446.82 -968.439,-473.187 -963.554,-527.043 C-960.476,-560.885 -956.095,-610.54 -953.799,-637.411 C-951.502,-664.282 -947.415,-711.918 -944.711,-743.268 C-939.646,-801.896 -937.659,-826.276 -931.601,-903.893 C-928.377,-945.275 -928.328,-960.469 -931.406,-964.752 C-932.057,-965.648 -943.213,-971.674 -956.193,-978.123 C-969.188,-984.588 -995.555,-998.024 -1014.82,-1007.97 C-1073.56,-1038.35 -1081.18,-1042.11 -1083.46,-1041.9 C-1084.67,-1041.78 -1088.59,-1040.95 -1092.18,-1040.06 L-1092.21,-1040.04 Z " fill="#000000" fill-opacity="1.00" stroke-width="0.18" stroke="#000000" stroke-linecap="square" stroke-linejoin="miter" />				<path d="M972.309,-1019.93 C964.248,-1016.79 951.056,-1011.75 942.995,-1008.76 C934.933,-1005.76 914.935,-998.105 898.551,-991.754 C882.168,-985.403 867.755,-980.208 866.518,-980.208 C863.326,-980.208 853.896,-967.765 853.815,-963.466 C853.782,-961.479 855.378,-943.728 857.365,-924.022 C860.378,-894.122 861.925,-880.979 861.746,-872.12 C861.567,-863.26 859.678,-858.668 855.834,-845.851 C852.023,-833.165 847.154,-820.527 844.841,-817.351 C842.561,-814.224 832.692,-803.736 822.905,-794.079 L805.104,-776.507 L792.955,-776.979 L780.806,-777.451 L773.722,-792.923 C762.631,-817.139 761.622,-821.195 763.185,-835.265 C763.934,-841.975 769.032,-869.872 774.536,-897.249 L784.536,-947.017 L776.816,-958.955 L769.097,-970.892 L755.075,-969.882 C747.356,-969.329 722.357,-967.749 699.525,-966.365 C673.337,-964.785 660.749,-964.085 654.055,-962.847 C647.362,-961.609 646.547,-959.834 643.893,-956.089 C639.496,-949.867 639.105,-948.32 617.982,-853.636 L611.729,-825.592 L614.139,-810.479 C620.946,-767.81 628.747,-738.317 640.831,-709.394 L646.14,-696.707 L672.881,-674.38 C691.594,-658.762 701.446,-651.629 705.681,-650.619 C709.003,-649.837 723.823,-646.238 738.61,-642.655 C774.927,-633.812 781.083,-633.959 836.878,-644.837 C848.343,-647.069 870.784,-662.247 908.225,-693.092 C915.081,-698.727 921.4,-703.352 922.263,-703.352 C923.143,-703.352 924.283,-701.332 924.82,-698.873 C935.829,-647.345 949.493,-574.956 948.434,-573.881 C947.311,-572.757 696.398,-578.213 641.483,-580.574 L616.81,-581.633 L610.263,-575.314 C603.798,-569.077 603.618,-568.572 595.394,-533.981 C590.818,-514.715 583.424,-483.903 578.962,-465.484 L570.852,-432 L575.933,-422.604 C578.734,-417.441 581.845,-412.963 582.871,-412.637 C583.88,-412.327 692.961,-411.155 825.25,-410.047 C1030.22,-408.321 1066.18,-408.354 1068.49,-410.275 C1069.99,-411.513 1081.85,-424.851 1094.86,-439.915 L1118.51,-467.308 L1116.75,-475.809 C1112.72,-495.238 1098.12,-561.471 1091.16,-591.795 C1076.49,-655.781 1070.41,-682.669 1048.88,-779.08 C1036.88,-832.823 1024.44,-887.787 1021.23,-901.222 C1011.48,-942.148 1007.62,-958.613 1000.61,-989.165 C992.959,-1022.53 991.917,-1025.84 989.034,-1025.73 C987.894,-1025.68 980.37,-1023.07 972.309,-1019.93 L972.309,-1019.93 Z " fill="#000000" fill-opacity="1.00" stroke-width="0.18" stroke="#000000" stroke-linecap="square" stroke-linejoin="miter" />				<path d="M69.9962,-981.673 C-4.54318,-973.042 -13.0606,-971.82 -15.6826,-969.459 C-17.1646,-968.124 -19.5585,-962.798 -21.008,-957.636 C-22.4574,-952.473 -26.1217,-940.601 -29.1345,-931.253 C-32.1636,-921.905 -39.1664,-899.968 -44.7036,-882.51 C-57.6832,-841.552 -64.1812,-821.276 -81.1508,-768.511 C-88.7888,-744.766 -97.2736,-718.025 -100.026,-709.068 C-103.169,-698.808 -108.104,-687.669 -113.364,-678.94 C-117.956,-671.334 -126.295,-656.873 -131.897,-646.824 L-142.059,-628.552 L-134.437,-613.129 C-130.252,-604.645 -124.764,-592.349 -122.239,-585.802 C-118.705,-576.633 -115.758,-572.122 -109.423,-566.162 C-104.895,-561.911 -100.417,-558.426 -99.4559,-558.442 C-98.5113,-558.442 -86.0039,-562.904 -71.6726,-568.36 C-6.18803,-593.261 1.05908,-595.378 25.227,-596.648 C37.3109,-597.283 61.1368,-598.798 78.1553,-600.003 C95.1738,-601.208 109.521,-601.697 110.043,-601.078 C111.117,-599.808 150.04,-481.33 160.512,-447.472 L167.384,-425.275 L174.745,-424.265 C178.784,-423.711 201.959,-422.539 226.224,-421.659 C250.49,-420.78 275.146,-419.737 281.025,-419.347 C286.905,-418.956 292.572,-419.151 293.631,-419.803 C294.689,-420.454 299.672,-427.18 304.721,-434.753 L313.906,-448.514 L308.19,-464.8 C300.471,-486.769 283.501,-532.043 270.326,-565.771 C260.147,-591.844 245.262,-630.75 215.818,-708.27 C181.292,-799.176 154.388,-869.758 144.731,-894.741 C136.442,-916.189 117.746,-967.212 112.355,-983.09 C111.443,-985.761 102.486,-985.468 70.0287,-981.706 L69.9962,-981.673 Z M76.7874,-757.681 C103.349,-691.919 105.076,-687.294 103.528,-686.333 C102.812,-685.894 79.0348,-685.014 50.6815,-684.395 L-0.84627,-683.272 L-0.84627,-686.822 C-0.84627,-688.776 6.95455,-709.231 16.4816,-732.275 C26.0087,-755.319 36.6921,-781.148 40.1935,-789.649 C48.7924,-810.511 50.8443,-813.573 54.0363,-810.381 C55.388,-809.029 65.6154,-785.317 76.7874,-757.664 L76.7874,-757.681 Z " fill="#000000" fill-opacity="1.00" stroke-width="0.18" stroke="#000000" stroke-linecap="square" stroke-linejoin="miter" />				<path d="M304.598,-976.055 C299.224,-974.833 272.483,-969.768 245.155,-964.801 C217.828,-959.834 193.937,-955.421 192.048,-954.981 C189.8,-954.476 186.69,-950.47 183.123,-943.5 L177.635,-932.8 L181.104,-923.534 C183.009,-918.436 196.771,-882.754 211.688,-844.239 C226.606,-805.723 242.729,-763.951 247.517,-751.411 C264.78,-706.218 279.876,-667.377 301.308,-612.983 C323.278,-557.221 327.919,-545.072 357.852,-464.783 C366.874,-440.599 374.708,-420.34 375.261,-419.77 C375.815,-419.2 405.976,-418.223 442.26,-417.588 C481.379,-416.904 499.504,-416.236 508.25,-418.304 C516.995,-420.389 516.36,-425.226 517.94,-435.583 C520.627,-453.204 529.063,-508.918 536.033,-555.152 C542.433,-597.658 557.351,-688.597 568.36,-752.209 C572.318,-775.057 581.193,-828.637 588.098,-871.273 L600.654,-948.809 L594.564,-957.994 C591.079,-963.254 589.841,-965.762 585.704,-966.658 C581.568,-967.554 574.549,-966.821 559.468,-965.567 C549.159,-964.704 524.617,-962.798 504.911,-961.316 L469.083,-958.613 L463.953,-953.776 C460.354,-950.389 458.546,-946.903 457.895,-942.181 C457.39,-938.467 455.452,-924.071 453.595,-910.179 C451.739,-896.288 447.309,-864.042 443.759,-838.523 C435.176,-776.881 424.232,-696.316 423.125,-686.594 C422.62,-682.197 421.48,-679.037 420.519,-679.363 C419.575,-679.672 413.5,-695.649 407.035,-714.849 C395.016,-750.499 343.423,-902.33 330.541,-939.966 C326.616,-951.431 322.594,-963.889 321.584,-967.651 C319.76,-974.475 317.333,-978.709 315.395,-978.432 C314.825,-978.351 309.972,-977.292 304.598,-976.055 Z " fill="#000000" fill-opacity="1.00" stroke-width="0.18" stroke="#000000" stroke-linecap="square" stroke-linejoin="miter" />				<path d="M-223.234,-970.192 C-313.587,-966.446 -327.218,-962.977 -365.766,-933.777 C-385.048,-919.169 -387.507,-916.368 -405.486,-888.487 L-419.997,-865.98 L-422.391,-849.401 C-427.456,-814.322 -424.117,-789.861 -408.841,-750.466 C-405.568,-742.03 -402.522,-733.513 -402.05,-731.558 C-401.496,-729.197 -406.529,-716.934 -417.098,-694.916 C-432.651,-662.507 -433.025,-661.465 -435.159,-643.909 C-436.364,-634.056 -437.813,-611.696 -438.4,-594.238 L-439.458,-562.481 L-433.644,-540.495 C-426.137,-512.061 -415.991,-482.893 -407.766,-465.989 C-402.311,-454.784 -399.558,-451.234 -391.22,-444.622 C-376.498,-432.945 -355.88,-420.03 -329.579,-406.041 L-306.291,-393.648 L-277.791,-394.69 C-222.843,-396.693 -141.789,-403.94 -75.8977,-412.751 C-55.7524,-415.438 -55.5244,-415.519 -47.5281,-422.506 L-39.483,-429.558 L-30.7051,-465.891 C-25.8682,-485.873 -21.1291,-506.263 -20.1683,-511.214 L-18.4257,-520.203 L-26.3731,-532.092 L-34.3205,-543.98 L-46.6324,-543.117 C-53.4072,-542.645 -66.5986,-541.163 -75.9466,-539.811 C-173.302,-525.757 -227.598,-519.34 -249.291,-519.324 L-260.691,-519.308 L-276.162,-535.235 C-298.783,-558.507 -303.261,-565.819 -305.379,-582.789 C-306.323,-590.378 -307.089,-603.944 -307.089,-612.918 L-307.072,-629.252 L-295.184,-647.981 C-286.357,-661.888 -281.846,-667.426 -277.693,-669.51 C-265.137,-675.796 -245.789,-680.454 -225.66,-682.066 C-214.456,-682.962 -199.799,-684.135 -193.089,-684.672 C-175.387,-686.073 -174.133,-686.496 -169.328,-692.815 C-165.583,-697.733 -164.426,-702.147 -161.234,-723.872 C-159.182,-737.796 -157.016,-754.472 -156.414,-760.938 L-155.306,-772.68 L-164.019,-784.405 L-172.732,-796.131 L-186.575,-796.115 C-194.18,-796.115 -210.678,-795.431 -223.218,-794.616 C-235.758,-793.802 -254.177,-792.63 -264.143,-791.994 L-282.269,-790.838 L-288.165,-799.584 C-294.663,-809.225 -295.396,-814.566 -292.138,-828.637 C-290.331,-836.438 -289.565,-837.366 -279.11,-844.043 C-261.619,-855.232 -243.298,-858.033 -187.682,-858.033 L-144.314,-858.033 L-138.988,-863.879 C-132.637,-870.833 -129.722,-875.735 -129.64,-879.595 C-129.608,-881.158 -125.878,-896.06 -121.367,-912.704 L-113.143,-942.995 L-117.54,-950.6 C-119.967,-954.786 -124.054,-961.316 -126.644,-965.127 L-131.35,-972.048 L-160.99,-971.788 C-177.292,-971.641 -205.287,-970.908 -223.201,-970.176 L-223.234,-970.192 Z " fill="#000000" fill-opacity="1.00" stroke-width="0.18" stroke="#000000" stroke-linecap="square" stroke-linejoin="miter" />				<path d="M-474.977,-964.883 C-475.352,-964.508 -502.777,-960.404 -535.918,-955.763 L-596.175,-947.327 L-601.207,-942.083 L-606.239,-936.839 L-607.314,-909.251 C-609.301,-858.114 -613.421,-774.227 -614.187,-769.178 L-614.936,-764.179 L-638.941,-759.651 C-677.652,-752.339 -732.795,-742.486 -735.14,-742.454 C-736.818,-742.437 -737.095,-744.734 -736.362,-752.6 C-734.407,-773.689 -725.45,-866.68 -722.242,-899.105 L-718.92,-932.833 L-723.17,-940.08 C-725.515,-944.07 -728.333,-948.092 -729.44,-949.004 C-730.841,-950.177 -740.596,-949.265 -761.523,-946.057 C-787.059,-942.132 -804.045,-939.738 -861.957,-931.904 C-873.308,-930.374 -873.324,-930.325 -875.327,-898.763 C-878.014,-856.681 -883.405,-780.709 -886.548,-740.792 C-889.121,-708.042 -889.577,-705.404 -893.469,-700.078 C-897.948,-693.939 -899.739,-689.656 -913.761,-651.498 C-918.81,-637.769 -922.604,-625.669 -922.181,-624.627 C-921.757,-623.585 -916.204,-615.426 -909.836,-606.534 C-902.964,-596.941 -899.723,-594.271 -898.876,-584.857 C-898.029,-575.428 -899.56,-559.24 -902.263,-522.581 C-910.292,-413.386 -914.071,-365.767 -916.204,-346.696 C-917.539,-334.873 -917.344,-331.844 -914.934,-325.932 C-913.37,-322.121 -911.367,-319.011 -910.471,-319.011 C-909.576,-319.011 -877.705,-329.564 -839.629,-342.478 C-755.921,-370.864 -751.263,-372.509 -749.863,-374.007 C-749.26,-374.659 -747.452,-425.568 -745.84,-487.16 C-744.228,-548.736 -742.518,-599.775 -742.013,-600.589 C-740.433,-603.13 -621.857,-629.431 -620.066,-627.656 C-619.17,-626.76 -624.87,-485.922 -628.942,-408.354 L-629.935,-389.397 L-624.593,-381.482 C-621.646,-377.134 -619.024,-373.291 -618.763,-372.965 C-618.503,-372.623 -598.65,-378.73 -574.645,-386.531 C-550.657,-394.332 -518.264,-404.852 -502.679,-409.901 L-474.342,-419.102 L-475.401,-443.563 C-475.987,-457.015 -477.16,-481.216 -478.023,-497.338 C-480.14,-537.01 -482.794,-603.277 -483.332,-629.806 L-483.771,-651.531 L-479.309,-655.081 C-475.857,-657.833 -472.111,-666.058 -462.616,-691.659 C-455.89,-709.817 -450.386,-725.403 -450.386,-726.282 C-450.386,-727.161 -455.614,-735.679 -462.014,-745.222 L-473.642,-762.566 L-470.906,-785.48 C-469.408,-798.085 -464.082,-839.304 -459.082,-877.087 L-449.995,-945.78 L-455.988,-955.665 C-461.623,-964.932 -462.372,-965.551 -468.121,-965.551 C-471.492,-965.551 -474.554,-965.241 -474.928,-964.883 L-474.977,-964.883 Z " fill="#000000" fill-opacity="1.00" stroke-width="0.18" stroke="#000000" stroke-linecap="square" stroke-linejoin="miter" />				<path d="M118.853,-380.963 C108.105,-380.262 87.2264,-378.927 72.439,-377.999 C42.5712,-376.109 31.9529,-373.52 -30.9748,-352.674 C-74.8971,-338.131 -101.28,-326.731 -108.055,-319.387 C-114.211,-312.709 -149.339,-268.754 -175.445,-235.06 C-185.037,-222.666 -195.965,-208.677 -199.694,-203.97 L-206.501,-195.404 L-207.267,-155.048 L-208.032,-114.692 L-200.671,-100.1 C-176.682,-52.5627 -148.557,-2.02833 -143.753,2.18965 L-138.444,6.83105 L-114.83,5.83764 C-101.85,5.28392 -78.7568,4.11136 -63.5298,3.23193 C-48.3027,2.35251 -13.5654,0.544803 13.6642,-0.806908 C40.8937,-2.14233 63.3516,-3.4289 63.5471,-3.67318 C63.7425,-3.90118 65.5013,-11.4251 67.4393,-20.3822 C69.3773,-29.3393 71.5596,-39.3387 72.3087,-42.6121 C73.921,-49.6964 73.8559,-49.7941 63.4982,-56.9109 C59.0197,-59.9889 36.8549,-76.2745 14.2342,-93.1139 L-26.8871,-123.731 L-26.8871,-150.814 L-26.8871,-177.897 L-4.49433,-200.208 L17.8984,-222.52 L31.7412,-225.94 C60.6319,-233.056 99.978,-238.284 140.041,-240.303 L159.583,-241.297 L193.197,-223.383 C211.681,-213.53 229.709,-203.644 233.26,-201.413 L239.693,-197.342 L240.637,-160.976 C241.337,-134.3 241.077,-123.894 239.66,-121.923 C238.601,-120.441 227.462,-107.624 214.889,-93.4233 C202.317,-79.2222 189.305,-64.2232 185.966,-60.0866 L179.892,-52.5627 L188.148,-34.0296 C192.692,-23.8348 197.545,-13.7377 198.946,-11.588 L201.486,-7.69572 L225.312,-8.77058 C238.422,-9.35686 280.651,-10.562 319.166,-11.4577 C359.05,-12.3697 376.248,-12.2394 385.221,-14.21 C394.194,-16.1805 394.96,-20.2682 401.979,-29.6325 L408.9,-38.8664 L410.903,-75.2323 C413.249,-117.868 415.952,-189.053 416.343,-218.92 L416.62,-239.929 L411.734,-244.163 C407.369,-247.941 395.204,-257.485 335.436,-303.997 C316.268,-318.898 258.926,-362.511 256.516,-363.993 C255.604,-364.563 250.425,-365.735 245.018,-366.615 C239.611,-367.478 223.765,-371.484 209.808,-375.491 C184.761,-382.673 184.126,-382.77 161.407,-382.542 C148.754,-382.412 129.602,-381.728 118.853,-381.028 L118.853,-380.963 Z " fill="#000000" fill-opacity="1.00" stroke-width="0.18" stroke="#000000" stroke-linecap="square" stroke-linejoin="miter" />				<path d="M-304.573,-342.191 C-316.218,-340.057 -340.402,-335.79 -358.316,-332.696 C-376.23,-329.602 -401.506,-325.172 -414.502,-322.86 C-427.497,-320.547 -445.965,-317.257 -455.558,-315.564 C-475.377,-312.062 -475.654,-311.932 -482.673,-303.854 L-487.836,-297.91 L-489.432,-228.126 C-490.311,-189.741 -491.761,-130.868 -492.656,-97.2709 C-493.552,-63.6899 -495.034,-7.24393 -495.93,28.1285 C-496.842,63.5009 -498.291,118.839 -499.154,151.085 C-500.017,183.331 -501.841,255.509 -503.193,311.499 C-504.545,367.489 -506.776,455.056 -508.144,506.112 C-509.512,557.167 -511.32,627.521 -512.183,662.454 C-513.03,697.387 -514.479,753.084 -515.407,786.225 C-516.319,819.366 -517.818,879.46 -518.713,919.767 C-519.625,960.074 -521.107,1021.63 -522.003,1056.57 C-525.13,1177.23 -526.335,1255.28 -525.228,1265.84 C-524.446,1273.3 -521.808,1281.49 -516.352,1293.52 C-507.297,1313.49 -494.887,1344.22 -486.093,1368.44 C-482.673,1377.85 -475.882,1394.69 -470.98,1405.89 C-466.078,1417.1 -456.535,1439.8 -449.792,1456.38 C-431.308,1501.69 -358.055,1683.17 -356.997,1686.28 C-355.368,1691.04 -341.086,1691.59 -320.843,1687.68 C-310.99,1685.78 -300.991,1683.86 -298.613,1683.38 C-295.958,1682.88 -292.538,1680.03 -289.786,1676.06 L-285.291,1669.56 L-283.174,1511.26 C-281.106,1356.11 -279.249,1194.88 -276.057,895.339 C-275.178,812.933 -273.728,696.41 -272.816,636.397 C-271.921,576.384 -270.439,453.998 -269.543,364.427 C-268.647,274.856 -267.182,142.584 -266.27,70.4711 C-265.358,-1.64169 -263.892,-120.967 -262.996,-194.708 L-261.368,-328.788 L-266.677,-337.566 C-269.852,-342.809 -271.351,-345.415 -276.057,-345.985 C-280.748,-346.555 -288.646,-345.089 -304.557,-342.174 L-304.573,-342.191 Z " fill="#000000" fill-opacity="1.00" stroke-width="0.18" stroke="#000000" stroke-linecap="square" stroke-linejoin="miter" />				<path d="M372.095,36.8766 C369.847,37.1861 346.396,38.9124 319.981,40.6875 C277.54,43.5538 243.992,45.9966 163.639,52.0711 C151.555,52.9831 129.569,54.8071 114.782,56.11 C99.9943,57.4128 82.4058,58.8785 75.6961,59.3671 C68.9865,59.8557 49.1831,61.3377 31.7249,62.6731 C14.2667,64.0085 -20.9265,66.5654 -46.4461,68.3568 C-71.9657,70.1482 -103.495,72.363 -116.474,73.275 C-129.454,74.187 -150.43,75.5876 -163.084,76.3693 C-175.738,77.1673 -187.61,78.6167 -189.467,79.6264 C-191.339,80.6199 -196.095,85.4241 -200.052,90.2772 L-207.251,99.1203 L-208,162.325 L-208.749,225.529 L-203.977,234.079 C-201.355,238.786 -198.603,242.629 -197.854,242.629 C-197.105,242.629 -172.074,239.665 -142.238,236.034 C-68.7574,227.109 -44.5896,224.406 -43.987,225.008 C-43.7101,225.285 -42.961,232.923 -42.3259,241.962 L-41.1696,258.41 L-60.5006,269.484 C-71.1351,275.575 -89.3588,286.193 -101.003,293.082 C-129.829,310.133 -183.946,341.516 -193.489,346.695 C-197.772,349.023 -204.01,353.714 -207.332,357.101 L-213.374,363.29 L-213.797,442.601 L-214.221,521.912 L-208.097,528.801 C-200.801,536.992 -165.054,554.516 -160.543,552.089 C-157.286,550.346 -97.8273,500.138 -54.7518,462.762 C-36.4956,446.916 -14.51,427.862 -5.89489,420.436 C2.72021,412.993 16.905,400.714 25.6341,393.158 C34.3632,385.601 42.2943,379.396 43.2552,379.396 C44.216,379.396 48.7923,382.637 53.4337,386.578 C86.2492,414.508 157.922,471.622 165.283,475.693 L174.241,480.644 L217.397,480.888 C253.128,481.084 265.733,480.497 290.683,477.485 L320.811,473.837 L327.326,466.85 C330.908,463.007 345.272,447.063 359.229,431.429 C373.202,415.795 390.791,396.138 398.315,387.751 C405.839,379.364 414.747,369.364 418.085,365.537 L424.16,358.583 L424.241,226.36 L424.323,94.1369 L407.76,64.9531 L391.198,35.7692 L383.674,36.0135 C379.537,36.1438 374.326,36.5184 372.078,36.8278 L372.095,36.8766 Z M273.371,246.212 L274.511,305.15 L268.681,313.618 C263.926,320.523 261.808,323.878 257.493,325.572 C253.177,327.266 246.663,327.282 233.129,327.543 L208.962,327.999 L194.858,315.882 C187.09,309.221 167.857,293.017 152.076,279.874 L123.413,255.983 L121.312,230.562 C120.156,216.589 119.586,204.765 120.042,204.309 C121.638,202.713 249.692,188.137 268.03,187.454 L272.248,187.291 L273.388,246.228 L273.371,246.212 Z " fill="#000000" fill-opacity="1.00" stroke-width="0.18" stroke="#000000" stroke-linecap="square" stroke-linejoin="miter" />				<path d="M94.4246,529.206 C89.0504,529.923 79.1487,531.03 72.439,531.682 C64.8011,532.414 53.8245,535.216 43.1249,539.14 C15.7161,549.189 -22.0177,563.308 -32.6033,567.445 C-37.9776,569.546 -53.0092,575.392 -65.9889,580.441 C-87.3394,588.73 -90.3522,590.391 -97.3713,597.85 C-105.319,606.286 -124.145,630.649 -183.522,709.39 L-217.185,754.029 L-218.341,764.843 C-218.976,770.787 -219.025,782.692 -218.439,791.291 C-216.859,814.482 -212.674,886.822 -211.468,911.707 C-210.719,927.195 -209.742,934.1 -208.097,935.745 C-206.827,937.015 -205.085,940.581 -204.238,943.643 C-203.423,946.607 -203.016,948.089 -194.792,954.408 C-186.568,960.727 -170.543,971.866 -138.46,994.161 C-98.1367,1022.19 -77.6983,1035.75 -75.7928,1035.75 C-74.832,1035.75 -69.8486,1037.86 -64.7186,1040.41 C-52.8301,1046.34 -51.9832,1046.54 -19.2817,1050.41 C27.8327,1056 71.7876,1057.87 101.281,1055.56 C132.761,1053.08 137.451,1052.3 182.367,1042.07 C228.846,1031.49 239.367,1028.47 278.322,1014.65 C303.5,1005.71 315.6,1001.52 324.068,996.588 C332.537,991.653 337.357,985.937 347.992,973.967 C377.208,941.07 408.005,907.098 438.654,873.989 L467.056,843.307 L465.135,815.361 C462.822,781.601 460.803,756.358 456.747,710.058 C455.054,690.792 453.197,668.644 452.595,660.827 L451.52,646.609 L441.537,637.945 C429.599,627.571 375.417,583.047 343.627,557.478 C324.329,541.958 319.72,538.994 313.499,538.098 C309.46,537.512 304.314,536.062 302.083,534.857 C299.835,533.668 288.484,531.861 276.84,530.867 C251.418,528.685 108.284,527.415 94.4409,529.255 L94.4246,529.206 Z M251.141,700.515 C269.381,709.325 284.918,716.54 285.667,716.54 C289.299,716.54 290.748,722.859 292.214,745.17 C293.093,758.541 294.298,775.347 294.901,782.546 L295.976,795.623 L265.228,824.269 C243.52,844.496 234.123,853.649 226.159,858.893 C218.179,864.137 211.632,865.456 195.64,870.016 C153.867,881.921 86.6564,895.698 70.3707,895.682 C64.6056,895.682 13.9084,885.927 -1.64437,881.839 C-12.7349,878.924 -29.0042,872.67 -40.1273,867.068 C-46.9347,863.632 -47.7653,862.59 -48.6773,856.271 C-51.6087,836.011 -52.6347,817.071 -51.7878,798.896 L-50.827,778.621 L-19.07,748.004 C1.18934,728.477 14.8041,716.589 18.5498,715.188 C21.7744,713.983 46.7728,706.15 74.0838,697.795 L123.755,682.601 L170.869,683.562 L217.984,684.522 L251.158,700.547 L251.141,700.515 Z " fill="#000000" fill-opacity="1.00" stroke-width="0.18" stroke="#000000" stroke-linecap="square" stroke-linejoin="miter" />				<path d="M331.381,1044.79 C285.781,1054.42 210.362,1075.8 201.975,1081.47 C198.767,1083.63 189.044,1093.85 180.38,1104.14 C171.716,1114.45 159.779,1128.37 153.835,1135.08 C147.89,1141.79 137.549,1153.94 130.856,1162.05 C110.319,1186.9 42.0012,1266.57 22.0187,1288.98 C11.6285,1300.62 -0.488057,1314.45 -4.90147,1319.69 L-12.9466,1329.24 L-33.0593,1328.57 C-48.2864,1328.07 -53.5467,1327.33 -54.7192,1325.54 C-56.2012,1323.28 -55.7615,1297.16 -53.5792,1257.86 L-52.6672,1241.39 L-21.3662,1200.83 L9.93474,1160.26 L3.32278,1140.91 C-1.44891,1126.94 -4.1849,1121.19 -6.53003,1120.24 C-11.3832,1118.29 -126.637,1101.4 -155.658,1098.41 L-166.357,1097.3 L-177.187,1109.4 C-188.343,1121.87 -190.493,1126.22 -204.319,1164.38 C-206.746,1171.09 -213.732,1189.78 -219.839,1205.91 L-230.93,1235.22 L-229.936,1271.86 C-228.178,1336.71 -221.631,1398.5 -215.165,1411.27 C-210.866,1419.75 -184.483,1445.26 -143.509,1480.53 C-131.571,1490.81 -125.871,1495.78 -121.197,1498.72 C-116.523,1501.67 -112.875,1502.63 -105.042,1504.86 C-92.1762,1508.53 -88.8376,1508.79 -57.8135,1508.46 C-9.95002,1507.96 4.70705,1505.97 48.5806,1493.97 C61.9185,1490.32 72.5204,1486.33 77.8947,1482.93 C82.5198,1479.99 87.5195,1477.16 89.0015,1476.62 C90.4835,1476.09 96.2975,1469.56 101.932,1462.1 C107.567,1454.64 120.726,1437.55 131.165,1424.12 C149.177,1400.96 158.997,1388.13 210.883,1319.84 C222.967,1303.93 238.373,1283.88 245.116,1275.27 C251.858,1266.67 262.395,1252.66 268.534,1244.16 C282.068,1225.42 282.507,1225.04 290.227,1225.53 C293.614,1225.74 299.77,1225.99 303.907,1226.09 C308.336,1226.18 310.454,1225.92 311.805,1229.99 C313.157,1234.06 313.76,1242.47 315.144,1259.89 C316.072,1271.41 317.18,1282.43 317.603,1284.4 C318.32,1287.66 308.841,1302.63 270.065,1359.48 C268.534,1361.73 269.512,1365.34 275.195,1378.53 L282.214,1394.82 L365.841,1394.89 L449.468,1394.95 L471.828,1383.55 L494.188,1372.15 L493.374,1363.94 C492.918,1359.43 491.094,1338.88 489.302,1318.28 C485.654,1276.33 477.186,1188.87 474.694,1167.52 C473.799,1159.85 473.066,1150.05 473.066,1145.75 C473.066,1138.84 472.349,1137.23 466.942,1132.02 C458.913,1124.25 417.353,1088.29 399.78,1073.93 C392.175,1067.69 380.172,1057.66 373.121,1051.6 C365.678,1045.22 362.128,1042.04 357.014,1041.21 C351.884,1040.36 345.175,1041.86 331.381,1044.78 L331.381,1044.79 Z " fill="#000000" fill-opacity="1.00" stroke-width="0.18" stroke="#000000" stroke-linecap="square" stroke-linejoin="miter" />				<path d="M350.109,1457.27 C347.422,1458.1 328.368,1463.16 307.766,1468.56 C221.827,1491 216.811,1492.51 213.31,1497.22 C211.518,1499.61 202.105,1511.92 192.399,1524.55 C175.169,1546.97 122.55,1615.92 108.609,1634.36 C104.766,1639.44 92.6169,1655.32 81.6078,1669.65 C70.5987,1683.98 48.092,1713.61 31.5946,1735.46 C15.0973,1757.33 -2.08405,1780.05 -6.57889,1785.95 L-14.7543,1796.68 L-34.6553,1796.65 C-51.4784,1796.63 -54.9961,1796.17 -57.4226,1793.75 C-59.9958,1791.17 -60.3541,1786.5 -60.8101,1750.18 L-61.3149,1709.48 L-50.2244,1692.3 C-44.1173,1682.86 -30.5676,1662.22 -20.1123,1646.44 L-1.10691,1617.76 L-5.68318,1605.44 C-14.9334,1580.58 -16.4154,1578.17 -23.2228,1577.16 C-85.2711,1568.01 -124.666,1562.1 -149.86,1558.14 L-180.803,1553.29 L-196.681,1569.14 L-212.56,1584.98 L-215.019,1598.81 C-221.338,1634.28 -234.187,1728.67 -237.721,1765.72 C-239.089,1780.05 -240.929,1797.44 -241.809,1804.38 L-243.405,1816.99 L-227.982,1870.34 C-212.967,1922.27 -206.339,1945.84 -202.007,1957.87 C-197.691,1969.91 -195.688,1970.41 -189.988,1976.24 L-179.972,1986.44 L-60.5495,1986.37 L58.8731,1986.31 L63.8891,1981.05 C66.6576,1978.17 82.2104,1958.57 98.4798,1937.52 C114.749,1916.46 134.113,1891.56 141.506,1882.15 C148.916,1872.73 163.345,1854.18 173.557,1840.91 C183.784,1827.64 203.327,1802.35 217.007,1784.72 C230.67,1767.1 252.982,1738.02 266.58,1720.1 C280.179,1702.19 294.543,1683.69 298.516,1678.98 L305.731,1670.43 L320.86,1670.43 L335.989,1670.43 L336.853,1682.24 C339.8,1722.73 341.331,1741.86 340.908,1752.35 C340.501,1762.85 338.155,1764.71 333.384,1770.67 C326.642,1779.09 281.823,1837.69 269.088,1854.75 C266.629,1858.06 264.593,1861.72 264.593,1862.9 C264.561,1866.59 279.804,1908.95 281.612,1910.21 C282.556,1910.86 328.514,1911.41 383.739,1911.43 L484.14,1911.46 L493.781,1902.1 C499.074,1896.95 512.412,1883.94 523.405,1873.19 L543.403,1853.65 L542.345,1835.73 C541.759,1825.88 539.136,1787.77 536.498,1751.05 C533.86,1714.32 530.749,1668.82 529.577,1649.93 L527.443,1615.58 L503.797,1584.79 C490.784,1567.85 466.828,1536.25 450.543,1514.58 C425.968,1481.84 420.04,1474.91 415.659,1473.65 C412.76,1472.82 400.236,1468.39 387.843,1463.82 C365.32,1455.48 359.31,1454.44 350.125,1457.25 L350.109,1457.27 Z " fill="#000000" fill-opacity="1.00" stroke-width="0.18" stroke="#000000" stroke-linecap="square" stroke-linejoin="miter" />			</g>		</g>	</svg>