<?xml version="1.0" encoding="utf-8" ?>	<!-- Generator: Assembly 2.4 - http://assemblyapp.co -->	<svg version="1.1" xmlns="http://www.w3.org/2000/svg" xmlns:xlink="http://www.w3.org/1999/xlink" width="4096.00" height="4096.00" viewBox="0 0 4096.0 4096.0">		<g id="document" transform="scale(1.0 1.0) translate(2048.0 2048.0)">			<g>				<path d="M-493.254,42.5441 C-495.399,100.955 -497.975,157.46 -499.512,213.994 C-503.329,354.35 -506.02,494.729 -511.199,635.058 C-515.642,755.427 -517.459,875.894 -520.131,996.325 C-522.227,1090.8 -522.848,1185.31 -527.132,1279.74 C-528.035,1299.64 -524.23,1319.1 -516.543,1338.06 C-465.289,1464.48 -414.36,1591.03 -363.833,1717.73 C-345.847,1762.84 -346.611,1762.26 -298.731,1755.47 C-277.853,1752.52 -270.507,1742.4 -270.176,1722.48 C-268.391,1615.33 -265.77,1508.2 -263.921,1401.06 C-261.06,1235.34 -258.469,1069.62 -255.994,903.894 C-254.214,784.754 -255.607,665.597 -251.669,546.453 C-248.064,437.351 -251.015,328.138 -248.605,218.956 C-244.962,53.9036 -244.309,-111.214 -242.217,-276.303 C-241.93,-298.914 -239.759,-321.528 -240.123,-344.114 C-240.468,-365.588 -250.35,-374.98 -269.386,-372.18 C-331.896,-362.984 -394.271,-352.882 -456.732,-343.347 C-476.939,-340.262 -484.212,-327.964 -484.651,-308.656 C-487.301,-192.215 -490.318,-75.7832 -493.254,42.5441 Z " fill="#000000" fill-opacity="1.00" stroke-width="6.83" stroke="#ffffff" stroke-linecap="square" stroke-linejoin="miter" />				<path d="M532.93,1946.34 C558.085,1937.59 571.274,1916.18 590.185,1901.96 C604.991,1890.83 608.522,1876.75 608.514,1858.65 C608.485,1790.67 601.159,1723.18 597.143,1655.48 C596.354,1642.16 593.218,1631.09 585.161,1620.62 C554.73,1581.05 525.618,1540.42 494.171,1501.69 C470.287,1472.27 435.932,1463.03 400.144,1468.33 C366.757,1473.28 334.492,1485.35 301.325,1492.36 C270.305,1498.91 247.919,1515.22 229.088,1540.64 C161.727,1631.56 92.7196,1721.27 25.035,1811.96 C12.8381,1828.3 -2.65929,1826.95 -17.8445,1823.24 C-31.7943,1819.83 -29.5264,1804.94 -29.9326,1794.41 C-31.3252,1758.3 -28.1605,1723.44 -2.31829,1694.18 C9.02926,1681.34 17.4354,1665.81 26.5865,1651.13 C40.009,1629.6 22.4366,1593.66 -2.77612,1590.19 C-46.2347,1584.2 -89.7087,1578.32 -133.112,1571.95 C-165.184,1567.24 -192.28,1584.71 -197.614,1617.37 C-206.397,1671.16 -214.087,1725.16 -220.436,1779.28 C-223.352,1804.13 -230.515,1829.76 -224.427,1854.35 C-212.766,1901.44 -198.312,1947.86 -184.341,1994.35 C-179.997,2008.81 -171.348,2022.32 -154.838,2022.89 C-76.3496,2025.62 2.16751,2028.2 80.732,2026.15 C91.3673,2025.87 99.0396,2021.39 105.78,2012.54 C146.516,1959.07 187.711,1905.95 229.033,1852.92 C267.082,1804.1 305.912,1755.89 343.45,1706.68 C353.813,1693.1 366.088,1697.78 377.774,1699.46 C390.243,1701.25 385.554,1712.87 386.437,1720.76 C387.839,1733.3 388.354,1745.94 389.789,1758.48 C391.744,1775.57 390.025,1790.35 377.035,1804.32 C359.419,1823.26 346.304,1846.5 328.127,1864.78 C307.095,1885.93 307.374,1906.31 319.593,1931.03 C325.529,1943.03 332.239,1947.55 345.434,1947.38 C407.344,1946.6 469.265,1946.68 532.93,1946.34 Z " fill="#000000" fill-opacity="1.00" stroke-width="6.83" stroke="#ffffff" stroke-linecap="square" stroke-linejoin="miter" />				<path d="M445.675,564.985 C426.452,549.428 407.999,535.164 390.374,519.94 C374.512,506.239 355.554,501.332 335.763,499.147 C273.399,492.261 210.747,493.807 148.203,494.731 C117.77,495.181 87.4027,498.42 58.5361,510.371 C33.9575,520.546 8.82068,529.426 -16.2937,538.24 C-53.6,551.334 -84.9103,571.429 -108.058,604.886 C-134.171,642.627 -162.634,678.778 -190.897,714.979 C-201.854,729.013 -206.287,743.978 -205.193,761.289 C-202.045,811.077 -199.464,860.906 -195.76,910.652 C-194.424,928.589 -185.706,943.277 -170.172,953.565 C-135.761,976.355 -101.91,1000.02 -67.0402,1022.08 C-53.155,1030.86 -37.7884,1040.03 -22.042,1042.63 C24.5479,1050.3 71.9707,1055.27 119.039,1053.29 C200.043,1049.88 277.956,1029.27 353.918,1001.45 C365.751,997.116 378.098,992.969 387.004,983.49 C430.76,936.917 474.425,890.255 517.719,843.253 C525.214,835.117 532.351,826.319 531.189,813.374 C525.898,754.448 520.911,695.492 516.313,636.508 C515.519,626.327 511.644,619.002 503.898,612.761 C484.722,597.308 465.818,581.516 445.675,564.985 Z M328.101,789.005 C310,805.123 293.671,818.849 278.354,833.626 C267.97,843.644 254.615,845.446 242.045,848.926 C199.727,860.644 156.95,873.118 113.424,876.081 C71.576,878.929 30.8376,865.011 -8.32804,849.585 C-13.9702,847.363 -17.6862,842.329 -18.5279,835.722 C-19.7028,826.501 -21.1022,817.308 -22.4622,808.111 C-26.9524,777.75 -16.1376,756.232 6.04913,733.24 C56.6884,680.765 121.069,671.891 187.158,664.333 C196.346,663.282 205.962,665.627 215.071,664.293 C256.348,658.251 291.979,673.34 326.7,692.616 C331.97,695.542 337.947,697.683 338.474,704.853 C339.984,725.408 341.417,745.97 342.678,766.542 C343.348,777.472 334.982,782.823 328.101,789.005 Z " fill="#000000" fill-opacity="1.00" stroke-width="6.83" stroke="#ffffff" stroke-linecap="square" stroke-linejoin="miter" />				<path d="M488.366,147.631 C487.891,100.852 493.923,55.7054 463.174,15.5865 C451.844,0.804236 442.523,-5.97676 424.704,-4.46865 C355.827,1.36011 286.912,6.77471 217.976,11.8659 C94.6168,20.9767 -28.7612,29.8456 -152.15,38.5523 C-173.419,40.0531 -190.525,54.4873 -191.194,75.7111 C-192.37,112.976 -192.712,150.297 -192.157,187.576 C-191.812,210.731 -181.486,217.935 -158.999,215.058 C-118.097,209.824 -77.1337,205.063 -36.1605,200.417 C-29.1588,199.623 -20.1596,197.765 -17.862,207.528 C-15.777,216.386 -13.7625,226.347 -22.5512,233.448 C-27.1853,237.192 -32.3733,240.324 -37.5566,243.306 C-82.5623,269.192 -126.588,296.822 -173.224,319.811 C-186.829,326.517 -195.872,336.915 -196.03,352.293 C-196.537,401.57 -196.708,450.859 -196.197,500.135 C-195.919,526.93 -171.816,530.266 -154.387,539.955 C-141.152,547.313 -133.126,537.993 -124.721,530.719 C-63.3222,477.586 -1.70671,424.694 59.0193,370.8 C71.4078,359.806 80.016,360.899 91.4542,370.564 C121.458,395.917 152.172,420.429 182.159,445.802 C198.034,459.235 215.931,466.494 236.489,468.036 C279.253,471.243 321.546,467.06 363.662,460.126 C372.438,458.681 379.629,454.509 385.726,447.635 C412.231,417.752 438.079,387.184 466.166,358.846 C483.27,341.588 487.991,322.065 487.962,299.474 C487.899,249.526 488.212,199.577 488.366,147.631 Z M322.21,270.323 C305.806,302.832 266.837,310.954 241.596,290.132 C222.103,274.051 203.972,256.01 183.136,241.952 C161.758,227.529 163.923,207.443 164.161,187.087 C164.284,176.604 172.97,174.522 181.024,173.636 C221.961,169.131 262.959,165.172 303.89,160.601 C318.015,159.024 322.856,164.715 322.554,178.539 C321.887,209.122 322.261,239.727 322.21,270.323 Z " fill="#000000" fill-opacity="1.00" stroke-width="6.83" stroke="#ffffff" stroke-linecap="square" stroke-linejoin="miter" />				<path d="M830.742,-964.298 C831.574,-968.56 831.976,-971.196 832.528,-973.801 C839.464,-1006.51 825.712,-1021.76 792.478,-1019.06 C771.936,-1017.39 751.318,-1016.47 730.716,-1015.76 C688.208,-1014.27 685.193,-1012.95 676.083,-971.104 C663.912,-915.194 641.601,-860.297 662.551,-801.081 C674.49,-767.337 682.202,-734.089 713.075,-708.84 C738.994,-687.644 767.556,-679.819 797.513,-672.223 C841.774,-661 883.171,-669.879 921.078,-694.101 C939.374,-705.792 956.099,-719.943 974.087,-733.392 C979.912,-727.013 980.936,-720.617 982.135,-714.1 C986.582,-689.915 991.346,-665.787 995.887,-641.619 C1001.1,-613.866 999.348,-611.173 971.383,-611.591 C872.875,-613.066 774.366,-614.667 675.877,-617 C654.787,-617.499 643.917,-608.58 638.949,-588.848 C629.692,-552.086 619.662,-515.517 609.879,-478.889 C602.467,-451.137 610.583,-439.797 638.858,-439.476 C783.979,-437.827 929.164,-438.233 1074.19,-433.564 C1117.84,-432.158 1147.41,-445.325 1172.21,-478.977 C1181.84,-492.043 1185.42,-503.441 1181.65,-519.2 C1163.21,-596.18 1145.82,-673.409 1127.61,-750.445 C1103.9,-850.77 1079.88,-951.023 1055.74,-1051.25 C1049.63,-1076.58 1048.26,-1077.21 1023.29,-1068.13 C990.137,-1056.07 957.159,-1043.55 924.141,-1031.13 C909.12,-1025.49 902.294,-1015.52 905.015,-998.66 C908.189,-978.993 909.047,-958.957 912.09,-939.263 C918.663,-896.723 893.915,-846.666 856.91,-823.101 C847.625,-817.188 836.778,-813.279 829.151,-825.968 C818.783,-843.218 810.114,-860.809 814.837,-882.346 C820.676,-908.972 825.258,-935.874 830.742,-964.298 Z " fill="#000000" fill-opacity="1.00" stroke-width="6.83" stroke="#ffffff" stroke-linecap="square" stroke-linejoin="miter" />				<path d="M493.173,1096.92 C469.556,1077.3 446.884,1058.77 424.525,1039.87 C416.924,1033.44 409.289,1030.38 399.017,1032.42 C351.362,1041.93 304.161,1053.21 257.986,1068.38 C246.55,1072.13 237.269,1080.13 229.378,1089.42 C192.34,1133.05 155.425,1176.78 118.152,1220.2 C88.2438,1255.04 57.7502,1289.38 27.7917,1324.18 C15.5242,1338.43 -0.467429,1335.48 -14.7587,1331.99 C-27.7014,1328.82 -22.0944,1315.25 -22.5722,1306 C-24.4594,1269.49 -16.8371,1236.36 10.7971,1209.63 C20.2565,1200.49 27.0254,1188.59 35.2503,1178.13 C55.0776,1152.91 40.6346,1115.64 8.88244,1111.1 C-33.8988,1104.97 -76.7259,1099.16 -119.576,1093.53 C-147.885,1089.81 -162.67,1098.56 -172.768,1125.27 C-183.822,1154.51 -194.291,1183.98 -204.854,1213.41 C-208.212,1222.77 -213.752,1232.33 -213.688,1241.76 C-213.309,1297.64 -211.723,1353.53 -201.183,1408.68 C-198.617,1422.1 -192.712,1433.71 -182.404,1443.05 C-161.215,1462.27 -139.662,1481.14 -119.306,1501.21 C-95.9408,1524.25 -67.6549,1532.09 -36.0754,1531.67 C-5.39324,1531.25 25.0338,1527.41 54.8794,1520.94 C86.5267,1514.09 118.974,1508.04 140.736,1479.44 C174.58,1434.97 209.118,1391.03 243.369,1346.87 C270.284,1312.17 297.082,1277.38 324.197,1242.83 C334.818,1229.3 355.829,1227.1 358.357,1239.29 C363.083,1262.06 371.481,1285.82 355.194,1308.3 C342.707,1325.54 330.663,1343.15 319.469,1361.25 C308.309,1379.28 324.102,1410.35 344.92,1410.6 C396.831,1411.22 448.786,1411.72 500.665,1410.24 C536.287,1409.22 562.103,1383.58 559.414,1355.26 C554.074,1299.01 545.745,1242.89 543.795,1186.54 C542.407,1146.44 526.541,1118.61 493.173,1096.92 Z " fill="#000000" fill-opacity="1.00" stroke-width="6.83" stroke="#ffffff" stroke-linecap="square" stroke-linejoin="miter" />				<path d="M-442.094,-889.94 C-437.574,-922.667 -431.317,-953.432 -430.596,-984.768 C-430.096,-1006.51 -440.176,-1015.31 -460.992,-1012.47 C-496.577,-1007.61 -532.043,-1001.83 -567.69,-997.525 C-585.703,-995.351 -592.75,-986.499 -593.42,-968.777 C-595.229,-920.929 -598.303,-873.131 -600.461,-825.295 C-600.936,-814.769 -601.015,-804.874 -614.12,-802.387 C-646.124,-796.313 -678.111,-790.138 -710.174,-784.389 C-722.794,-782.126 -727.048,-788.745 -725.516,-800.625 C-723.477,-816.44 -721.6,-832.279 -719.853,-848.129 C-715.484,-887.768 -710.876,-927.385 -707.067,-967.078 C-704.943,-989.208 -715.919,-999.576 -737.273,-996.627 C-777.467,-991.076 -817.595,-985.038 -857.8,-979.569 C-870.271,-977.873 -876.087,-972.298 -877.023,-959.004 C-880.245,-913.239 -884.184,-867.514 -888.614,-821.848 C-892.241,-784.469 -890.825,-746.187 -910.887,-711.746 C-918.134,-699.305 -920.86,-684.285 -926.193,-670.654 C-929.672,-661.761 -929.447,-653.672 -923.177,-646.37 C-906.375,-626.801 -907.392,-604.248 -909.751,-580.37 C-916.743,-509.577 -922.743,-438.679 -928.385,-367.763 C-930.335,-343.243 -925.55,-339.523 -902.613,-346.614 C-856.85,-360.764 -811.504,-376.274 -765.675,-390.198 C-749.06,-395.246 -742.913,-404.079 -742.46,-421.65 C-740.794,-486.155 -737.267,-550.61 -734.965,-615.103 C-734.549,-626.783 -731.148,-633.379 -718.798,-635.89 C-687.512,-642.251 -656.391,-649.462 -625.321,-656.825 C-612.559,-659.849 -607.986,-654.971 -608.63,-642.708 C-609.361,-628.762 -609.792,-614.799 -610.308,-600.842 C-612.52,-541.007 -615.217,-481.184 -616.66,-421.33 C-617.206,-398.664 -610.115,-394.211 -588.348,-400.752 C-548.845,-412.622 -509.599,-425.363 -469.978,-436.813 C-455.912,-440.877 -450.651,-448.544 -451.551,-462.775 C-455.119,-519.194 -458.367,-575.636 -461.405,-632.087 C-462.708,-656.295 -466.042,-680.022 -450.845,-703.002 C-440.864,-718.095 -437.79,-737.689 -431.151,-755.088 C-428.148,-762.957 -429.552,-769.785 -434.891,-775.424 C-452.973,-794.525 -453.13,-816.677 -448.177,-840.648 C-444.957,-856.227 -444.189,-872.313 -442.094,-889.94 Z " fill="#000000" fill-opacity="1.00" stroke-width="6.83" stroke="#ffffff" stroke-linecap="square" stroke-linejoin="miter" />				<path d="M393.714,-338.204 C370.743,-355.461 348.292,-371.095 327.228,-388.415 C295.154,-414.788 255.23,-421.806 217.525,-423.925 C135.428,-428.539 54.1659,-417.836 -23.3606,-387.362 C-52.1989,-376.026 -82.626,-368.884 -102.322,-340.508 C-123.543,-309.934 -148.822,-282.204 -170.727,-252.068 C-200.309,-211.369 -199.931,-166.941 -180.086,-122.769 C-167.019,-93.6855 -150.25,-66.2828 -135.622,-37.8784 C-127.167,-21.4603 -115.672,-13.3352 -95.9723,-14.5711 C-36.8584,-18.2797 22.3471,-20.5303 81.5198,-23.2887 C92.0027,-23.7773 105.767,-21.4457 106.4,-36.2426 C107.11,-52.8396 124.38,-71.1045 101.053,-86.46 C73.2798,-104.743 46.8683,-125.105 19.9953,-144.742 C2.81733,-157.294 -1.68629,-199.78 12.3189,-216.203 C32.9621,-240.411 55.9867,-257.872 90.0136,-262.766 C153.49,-271.895 215.547,-280.551 272.171,-239.398 C279.304,-234.214 286.469,-230.788 286.87,-220.131 C288.252,-183.441 291.259,-146.876 256.378,-120.948 C246.984,-113.965 241.067,-102.495 232.43,-94.2647 C215.632,-78.2593 228.224,-64.1044 233.724,-49.0448 C238.835,-35.0511 247.966,-30.1558 262.756,-30.6659 C317.296,-32.5477 371.866,-33.6466 426.431,-34.7201 C452.698,-35.2367 469.157,-51.6148 472.055,-78.5529 C477.904,-132.914 474.395,-187.674 479.812,-242.017 C481.711,-261.066 474.214,-275.57 459.449,-287.007 C437.87,-303.722 416.382,-320.554 393.714,-338.204 Z " fill="#000000" fill-opacity="1.00" stroke-width="6.83" stroke="#ffffff" stroke-linecap="square" stroke-linejoin="miter" />				<path d="M201.896,-1301.52 C206.934,-1301.89 210.259,-1302.05 213.586,-1302.11 C241.75,-1302.61 242.204,-1302.63 243.788,-1274.96 C246.637,-1225.18 248.905,-1175.37 251.37,-1125.57 C252.57,-1101.31 261.771,-1091.85 285.818,-1091.3 C315.763,-1090.62 345.717,-1090.34 375.668,-1089.96 C406.829,-1089.55 414.126,-1095.99 412.563,-1127 C407.909,-1219.33 402.683,-1311.63 397.195,-1403.92 C394.813,-1443.96 394.262,-1444.41 354.266,-1443.54 C234.538,-1440.94 114.79,-1438.75 -4.88784,-1434.61 C-48.1342,-1433.12 -91.3555,-1432.73 -134.59,-1431.97 C-152.88,-1431.65 -164.168,-1423.17 -164.523,-1404.63 C-166.473,-1302.85 -174.212,-1201.25 -173.644,-1099.41 C-173.534,-1079.8 -160.848,-1068.39 -141.54,-1070.96 C-111.88,-1074.9 -82.2488,-1079.15 -52.7246,-1084 C-24.712,-1088.6 -20.1258,-1094.62 -19.8723,-1124 C-19.4474,-1173.25 -19.2228,-1222.51 -18.7001,-1271.76 C-18.4488,-1295.41 -17.0961,-1295.77 14.9171,-1297.07 C33.0617,-1297.81 39.1034,-1290.52 39.2856,-1272.43 C39.8007,-1221.21 41.9889,-1170.02 43.7094,-1118.82 C44.5702,-1093.21 52.4634,-1085.47 77.882,-1086.41 C103.803,-1087.37 129.678,-1089.5 155.59,-1090.79 C190.111,-1092.51 198.012,-1100.25 194.974,-1135.24 C190.761,-1183.79 193.222,-1232.37 192.134,-1280.92 C191.965,-1288.47 189.922,-1297.52 201.896,-1301.52 Z " fill="#000000" fill-opacity="1.00" stroke-width="6.83" stroke="#ffffff" stroke-linecap="square" stroke-linejoin="miter" />				<path d="M-269.164,-1983.89 C-305.502,-1968.58 -339.99,-1952.62 -375.578,-1939.68 C-397.554,-1931.69 -404.47,-1918.25 -404.689,-1896.14 C-405.398,-1824.29 -406.21,-1752.39 -409.605,-1680.64 C-411.965,-1630.75 -411.919,-1580.88 -413.388,-1531.01 C-416.189,-1435.93 -418.436,-1340.83 -420.689,-1245.74 C-421.059,-1230.15 -415.204,-1218.19 -400.763,-1209.58 C-357.909,-1184.02 -315.738,-1157.32 -273.195,-1131.24 C-242.299,-1112.3 -220.215,-1124.32 -219.754,-1161.24 C-217.559,-1336.85 -214.401,-1512.42 -207.495,-1687.92 C-204.462,-1765 -202.308,-1842.12 -199.959,-1919.23 C-199.332,-1939.84 -198.742,-1960.51 -199.439,-1981.1 C-200.149,-2002.12 -210.156,-2008.26 -229.101,-2000.63 C-242.057,-1995.42 -254.89,-1989.9 -269.164,-1983.89 Z " fill="#000000" fill-opacity="1.00" stroke-width="6.83" stroke="#ffffff" stroke-linecap="square" stroke-linejoin="miter" />				<path d="M-416.464,-670.825 C-416.77,-664.399 -416.386,-659.636 -417.235,-655.105 C-427.821,-598.576 -408.159,-547.407 -388.898,-496.288 C-383.927,-483.096 -374.959,-472.64 -362.911,-464.311 C-338.167,-447.207 -311.784,-433.204 -284.96,-419.845 C-276.778,-415.77 -268.37,-415.754 -259.643,-416.592 C-182.188,-424.024 -104.721,-431.335 -27.2695,-438.804 C-4.17268,-441.031 8.05996,-452.358 13.1253,-475.555 C16.9552,-493.096 20.7134,-510.654 24.6089,-528.181 C32.7365,-564.748 17.9167,-580.46 -19.4926,-575.841 C-82.8199,-568.022 -146.204,-560.658 -209.58,-553.241 C-216.133,-552.474 -222.72,-552.097 -229.001,-555.657 C-258.376,-572.306 -280.735,-628.579 -268.078,-660.791 C-258.772,-684.472 -245.301,-706.54 -215.935,-710.274 C-193.537,-713.122 -171.168,-716.776 -148.671,-718.088 C-132.645,-719.022 -123.516,-725.838 -121.104,-741.104 C-117.888,-761.461 -114.728,-781.883 -112.979,-802.4 C-111.337,-821.646 -127.864,-837.823 -147.106,-836.966 C-173.684,-835.782 -200.225,-833.668 -226.809,-832.806 C-253.666,-831.936 -261.375,-842.344 -255.563,-868.386 C-251.469,-886.732 -237.755,-891.648 -222.075,-894.416 C-189.059,-900.243 -155.685,-898.489 -122.495,-897.805 C-102.768,-897.397 -92.8416,-906.593 -88.0111,-923.852 C-82.9921,-941.784 -78.0803,-959.76 -73.7669,-977.871 C-68.4092,-1000.37 -84.148,-1020.75 -106.977,-1020.69 C-146.248,-1020.57 -185.516,-1019.65 -224.787,-1019.53 C-272.57,-1019.37 -315.188,-1005.34 -351.051,-973.185 C-373.157,-953.363 -391.597,-929.496 -399.571,-901.456 C-410.617,-862.613 -403.569,-823.42 -387.365,-786.635 C-381.095,-772.402 -382.102,-760.358 -388.744,-746.886 C-400.456,-723.127 -414.199,-699.966 -416.464,-670.825 Z " fill="#000000" fill-opacity="1.00" stroke-width="6.83" stroke="#ffffff" stroke-linecap="square" stroke-linejoin="miter" />				<path d="M637.019,-942.035 C639.521,-955.501 641.904,-967.228 644.022,-979.002 C648.666,-1004.81 638.033,-1017.42 612.275,-1015.63 C581.082,-1013.48 549.962,-1010.26 518.769,-1008.11 C503.524,-1007.07 496.106,-999.335 494.021,-984.67 C486.252,-930.024 478.551,-875.364 470.177,-820.809 C465.52,-790.464 463.265,-759.586 453.126,-725.397 C448.821,-735.957 446.051,-741.84 443.984,-747.96 C415.022,-833.699 385.573,-919.281 357.725,-1005.38 C351.647,-1024.17 343.061,-1029.22 324.385,-1025.48 C293.742,-1019.35 262.633,-1015.58 231.806,-1010.32 C204.275,-1005.61 195.468,-989.591 205.703,-963.136 C229.718,-901.063 254.05,-839.112 278.082,-777.045 C318.218,-673.384 358.377,-569.73 398.079,-465.902 C403.053,-452.895 409.986,-447.032 424.49,-447.306 C461.101,-447.999 497.752,-447.706 534.363,-446.823 C551.175,-446.417 557.918,-453.427 559.993,-469.794 C565.68,-514.644 571.882,-559.46 579.326,-604.047 C598.053,-716.208 617.576,-828.236 637.019,-942.035 Z " fill="#000000" fill-opacity="1.00" stroke-width="6.83" stroke="#ffffff" stroke-linecap="square" stroke-linejoin="miter" />				<path d="M4.94008,-1009.64 C-18.9855,-933.22 -41.8843,-858.134 -65.7568,-783.36 C-73.5977,-758.8 -78.0184,-732.471 -94.6857,-711.577 C-116.861,-683.779 -125.78,-655.268 -103.026,-623.427 C-101.92,-621.879 -101.775,-619.66 -101.112,-617.778 C-91.1047,-589.362 -80.2346,-583.795 -53.3101,-596.459 C1.8956,-622.427 60.0369,-633.451 120.65,-634.88 C135.998,-635.242 143.377,-630.15 148.029,-615.613 C162.834,-569.347 179.519,-523.677 192.029,-476.686 C196.019,-461.699 203.422,-452.228 220.776,-451.854 C255.366,-451.108 289.966,-450.883 324.53,-447.906 C346.036,-446.054 364.74,-473.175 357.068,-493.342 C340.508,-536.874 323.857,-580.382 306.512,-623.606 C254.459,-753.325 204.883,-883.989 157.634,-1015.52 C151.978,-1031.27 144.048,-1036.88 128.495,-1034.97 C95.47,-1030.93 62.3784,-1027.41 29.383,-1023.14 C20.3634,-1021.97 10.4925,-1021.04 4.94008,-1009.64 Z M67.7624,-788.395 C72.5557,-799.301 70.9057,-795.502 80.0454,-818.776 C80.74,-820.545 86.8452,-837.144 89.6623,-841.175 C103.227,-818.783 119.735,-780.264 124.512,-757.533 C108.364,-752.294 72.9772,-752.328 57.0849,-753.491 C61.4765,-768.429 62.9692,-777.489 67.7624,-788.395 Z " fill="#000000" fill-opacity="1.00" stroke-width="6.83" stroke="#ffffff" stroke-linecap="square" stroke-linejoin="miter" />				<path d="M-148.925,-1479.82 C-144.026,-1478.69 -140.726,-1478.02 -137.425,-1478.01 C29.0832,-1477.93 195.591,-1477.82 362.099,-1477.95 C385.513,-1477.97 393.63,-1486.76 391.917,-1509.91 C389.61,-1541.09 385.821,-1572.16 384.012,-1603.36 C382.923,-1622.14 374.825,-1628.19 356.247,-1627.64 C277.725,-1625.32 199.166,-1624.28 120.624,-1622.58 C105.333,-1622.25 90.0541,-1620.34 74.7796,-1620.46 C54.8249,-1620.62 60.3703,-1637.69 57.9036,-1648.73 C55.3681,-1660.08 60.4534,-1666.07 72.8215,-1666.33 C86.1054,-1666.61 99.3447,-1668.61 112.633,-1669.17 C136.595,-1670.17 144.304,-1677.71 144.632,-1702.21 C144.881,-1720.86 144.735,-1739.51 144.665,-1758.16 C144.56,-1786.32 137.167,-1794.66 109.662,-1794.44 C30.4338,-1793.8 -48.7897,-1792.54 -128.016,-1791.56 C-145.715,-1791.34 -155.681,-1782.37 -156.169,-1764.85 C-156.874,-1739.56 -156.691,-1714.23 -156.474,-1688.93 C-156.338,-1673.06 -149.311,-1664.01 -131.899,-1665.08 C-119.956,-1665.82 -107.93,-1665.27 -95.9424,-1665.18 C-90.5805,-1665.14 -85.6292,-1664.97 -82.7814,-1658.67 C-72.0363,-1634.93 -83.8228,-1615.25 -109.304,-1614.93 C-117.294,-1614.83 -125.297,-1614.88 -133.268,-1614.41 C-151.572,-1613.32 -161.16,-1604.1 -160.948,-1585.08 C-160.651,-1558.44 -160.761,-1531.8 -160.983,-1505.16 C-161.065,-1495.28 -158.942,-1486.68 -148.925,-1479.82 Z " fill="#000000" fill-opacity="1.00" stroke-width="6.83" stroke="#ffffff" stroke-linecap="square" stroke-linejoin="miter" />				<path d="M-1053.7,-1072.79 C-1066.53,-1078.73 -1077.58,-1085.41 -1089.55,-1089.1 C-1113.85,-1096.6 -1139.63,-1089.7 -1140.92,-1056.3 C-1142.93,-1004.49 -1148.39,-952.8 -1152.78,-901.094 C-1162.69,-784.471 -1172.78,-667.863 -1183,-551.266 C-1183.87,-541.346 -1180.82,-534.544 -1171.76,-530.259 C-1115.8,-503.789 -1059.89,-477.223 -1003.94,-450.74 C-990.981,-444.609 -983.724,-448.302 -982.312,-463.084 C-978.325,-504.793 -973.877,-546.457 -969.97,-588.173 C-962.466,-668.299 -955.136,-748.441 -947.878,-828.59 C-943.021,-882.223 -938.628,-935.9 -933.57,-989.514 C-931.985,-1006.31 -937.734,-1016.68 -953.65,-1023.92 C-986.962,-1039.09 -1019.49,-1055.99 -1053.7,-1072.79 Z " fill="#000000" fill-opacity="1.00" stroke-width="6.83" stroke="#ffffff" stroke-linecap="square" stroke-linejoin="miter" />				<path d="M187.877,-1818.57 C197.149,-1783.55 195.452,-1748.74 198.367,-1714.38 C200.591,-1688.17 205.814,-1681.95 232.502,-1681.87 C273.762,-1681.74 315.032,-1682.15 356.276,-1681.29 C372.944,-1680.95 380.571,-1686.09 380.508,-1703.87 C380.196,-1791.04 380.409,-1878.22 381.071,-1965.4 C381.176,-1979.2 375.683,-1987.48 363.101,-1989.96 C311.579,-2000.11 260.032,-2010.22 208.274,-2019.06 C189.74,-2022.23 180.773,-2012.1 179.988,-1992.4 C179.548,-1981.36 182.598,-1969.87 175.45,-1956.92 C146.111,-1963.45 116.329,-1969.7 86.7372,-1976.74 C19.4617,-1992.76 -47.6849,-2009.32 -114.963,-2025.33 C-135.792,-2030.29 -147.491,-2024.07 -148.329,-2006.04 C-150.427,-1960.87 -151.578,-1915.64 -151.953,-1870.43 C-152.076,-1855.51 -143.935,-1846.27 -127.159,-1845.21 C-68.0952,-1841.51 -8.97751,-1838.11 49.9206,-1832.5 C95.5107,-1828.17 141.649,-1829.5 187.877,-1818.57 Z " fill="#000000" fill-opacity="1.00" stroke-width="6.83" stroke="#ffffff" stroke-linecap="square" stroke-linejoin="miter" />				<path d="M-943.19,-1187.59 C-962.484,-1187.4 -979.809,-1187.74 -997.076,-1186.9 C-1021.7,-1185.7 -1023.95,-1162.92 -1030.81,-1147.23 C-1037.34,-1132.31 -1019.71,-1130.04 -1010.8,-1125.44 C-959.353,-1098.92 -907.402,-1073.39 -855.807,-1047.16 C-844.177,-1041.25 -832.339,-1038.65 -819.36,-1038.89 C-761.493,-1039.99 -703.622,-1041.15 -645.748,-1041.51 C-541.938,-1042.17 -438.125,-1042.26 -334.313,-1042.59 C-307.811,-1042.68 -298.749,-1048.92 -294.022,-1073.4 C-290.29,-1092.74 -309.421,-1092.87 -319.434,-1098.44 C-368.263,-1125.58 -418.308,-1150.54 -467.161,-1177.65 C-486.581,-1188.42 -506.086,-1192.44 -528.036,-1192.13 C-665.75,-1190.18 -803.475,-1189.02 -943.19,-1187.59 Z " fill="#000000" fill-opacity="1.00" stroke-width="6.83" stroke="#ffffff" stroke-linecap="square" stroke-linejoin="miter" />				<path d="M703.212,-1062.63 C761.05,-1065.05 816.894,-1068.71 872.766,-1069.21 C896.134,-1069.42 912.915,-1074.88 926.762,-1094.61 C934.95,-1106.27 934.265,-1112.25 924.413,-1121 C903.003,-1140 881.874,-1159.37 861.504,-1179.47 C850.242,-1190.59 837.367,-1195.05 822.131,-1195.79 C715.656,-1201.03 609.091,-1199.25 502.562,-1200.2 C494.375,-1200.27 486.59,-1199.75 481.104,-1192.3 C460.205,-1163.95 435.919,-1136.61 454.659,-1097.19 C456.051,-1094.26 456.175,-1090.73 456.893,-1087.48 C463.009,-1059.8 469.435,-1054.1 497.693,-1055.02 C565.548,-1057.24 633.384,-1060.04 703.212,-1062.63 Z " fill="#000000" fill-opacity="1.00" stroke-width="6.83" stroke="#ffffff" stroke-linecap="square" stroke-linejoin="miter" />			</g>		</g>	</svg>