<svg xmlns="http://www.w3.org/2000/svg" xmlns:xlink="http://www.w3.org/1999/xlink" version="1.1" viewBox="1348.1 791.9 1405.41 2512.21">		<g id="document" transform="scale(1.0 1.0) translate(2048.0 2048.0)">			<g>				<path d="M-299.373,304.824 C-300.59,346.524 -300.167,386.977 -301.084,427.432 C-303.978,555.084 -305.386,682.77 -307.533,810.441 C-307.722,821.692 -305.414,831.997 -300.564,842.122 C-263.075,920.387 -225.75,998.731 -188.422,1077.07 C-175.555,1104.07 -165.441,1132.77 -152.596,1159.78 C-150.018,1165.21 -142.654,1186.17 -135.073,1183.89 C-128.243,1181.84 -129.382,1160.65 -129.382,1152.96 C-129.382,1149.59 -129.427,1146.57 -129.382,1143.22 C-127.342,988.128 -129.503,832.697 -127.321,677.598 C-125.223,528.43 -125.019,379.239 -122.24,230.068 C-120.057,112.928 -119.959,-4.25154 -119.027,-121.415 C-118.874,-140.61 -122.014,-143.812 -140.856,-143.45 C-182.561,-142.649 -224.261,-141.655 -265.96,-140.557 C-286.493,-140.017 -291.575,-134.519 -292.013,-113.525 C-292.735,-78.9821 -292.723,-44.4371 -293.594,-9.88412 C-296.23,94.5796 -297.535,199.078 -299.373,304.824 Z " fill="#000000" fill-opacity="1.00" stroke-width="1.00" stroke="#ffffff" stroke-linecap="square" stroke-linejoin="miter"/>				<path d="M164.725,412.192 C118.176,413.343 74.0702,421.169 30.4627,433.68 C-43.8086,454.991 -88.8661,521.219 -86.9113,594.352 C-84.8406,671.835 -36.969,725.735 39.8424,734.587 C113.186,743.039 184.166,731.925 254.255,711.16 C328.614,689.129 375.409,618.895 365.482,544.278 C358.176,489.36 323.076,440.672 270.872,425.89 C236.582,416.181 201.427,412.946 164.725,412.192 Z M75.5686,539.511 C118.617,523.518 160.793,520.335 203.832,529.793 C212.965,531.801 221.489,535.56 229.231,540.715 C252.63,556.295 252.71,581.748 229.312,597.48 C211.457,609.486 191.034,614.324 170.142,617.918 C136.319,623.737 102.583,626.741 68.9472,617.03 C64.5279,615.754 60.1177,614.182 56.0117,612.129 C34.1223,601.187 30.0256,577.73 46.887,559.873 C55.0677,551.21 64.9801,544.851 75.5686,539.511 Z " fill="#000000" fill-opacity="1.00" stroke-width="12.21" stroke="#ffffff" stroke-linecap="square" stroke-linejoin="miter"/>				<path d="M108.139,350.518 C111.146,352.171 122.227,384.68 177.407,388.586 C212.35,391.059 246.323,393.056 280.061,383.842 C311.822,375.166 332.054,354.256 337.35,321.565 C347.231,260.572 341.472,199.849 331.052,139.483 C327.175,117.024 323.452,114.496 300.685,115.697 C240.081,118.892 179.432,119.836 118.758,120.352 C60.1909,120.849 1.62886,121.973 -56.9335,122.946 C-74.5163,123.237 -78.4432,127.229 -78.5637,144.78 C-78.7542,172.597 -78.7984,200.417 -78.7152,228.235 C-78.6645,245.065 -75.417,248.709 -58.694,247.944 C-28.8313,246.578 0.989736,244.312 30.8393,242.616 C35.2625,242.364 40.9764,240.851 43.3495,246.007 C45.4618,250.596 42.1896,255.059 39.4753,258.706 C30.3196,271.005 16.3293,275.113 2.61094,279.195 C-18.3632,285.436 -39.4832,291.192 -60.5909,296.971 C-72.543,300.244 -77.8733,308.29 -77.9526,320.197 C-78.1437,348.858 -78.522,377.523 -78.1847,406.179 C-78.0131,420.759 -70.4388,426.577 -55.6536,423.808 C-37.8745,420.476 -20.2066,416.497 -2.58485,412.394 C36.3202,403.335 71.9882,388.358 98.1868,356.332 C100.511,353.491 105.131,348.865 108.139,350.518 Z M240.629,228.235 C242.35,228.235 251.314,259.063 235.708,267.006 C213.117,278.504 189.351,278.296 166.26,268.432 C155.187,263.703 151.685,252.693 150.601,241.369 C149.933,234.404 154.789,231.288 160.668,230.845 C185.344,228.984 238.908,228.235 240.629,228.235 Z " fill="#000000" fill-opacity="1.00" stroke-width="12.21" stroke="#ffffff" stroke-linecap="square" stroke-linejoin="miter"/>				<path d="M-120.537,-584.087 C-112.763,-590.762 -113.81,-599.113 -113.713,-606.99 C-112.848,-676.936 -113.311,-746.885 -112.355,-816.84 C-110.804,-930.2 -111.281,-1043.58 -110.721,-1156.96 C-110.605,-1180.54 -109.35,-1204.12 -109.296,-1227.72 C-109.266,-1241.15 -113.348,-1244.08 -125.425,-1240.25 C-169.163,-1226.37 -212.804,-1212.19 -256.53,-1198.28 C-269.07,-1194.3 -274.49,-1186.29 -274.698,-1172.96 C-275.743,-1105.99 -277.481,-1039.02 -278.677,-972.051 C-280.498,-870.099 -282.105,-768.143 -283.726,-666.187 C-284.061,-645.1 -280.872,-640.751 -261.444,-633.324 C-226.434,-619.943 -191.558,-606.207 -156.421,-593.169 C-145.136,-588.983 -134.279,-582.554 -120.537,-584.087 Z " fill="#000000" fill-opacity="1.00" stroke-width="1.00" stroke="#ffffff" stroke-linecap="square" stroke-linejoin="miter"/>				<path d="M-369.909,-421.138 C-370.302,-409.629 -391.802,-409.414 -400.795,-413.211 C-409.83,-417.028 -406.912,-425.272 -406.669,-431.981 C-405.754,-457.221 -407.068,-482.498 -404.146,-507.73 C-402.455,-522.319 -407.869,-528.279 -421.259,-528.437 C-454.129,-528.823 -487.007,-528.587 -519.882,-528.604 C-531.407,-528.609 -537.17,-522.67 -536.734,-511.336 C-535.809,-487.268 -538.667,-463.368 -539.62,-439.388 C-541.092,-402.369 -543.481,-365.387 -545.261,-328.378 C-547.608,-279.601 -549.731,-230.814 -551.973,-182.032 C-552.538,-169.743 -546.302,-164.046 -534.441,-164.218 C-500.738,-164.707 -467.035,-165.25 -433.337,-165.996 C-422.254,-166.241 -416.527,-172.006 -416.278,-183.493 C-415.693,-210.446 -414.745,-237.39 -413.93,-264.337 C-413.815,-268.125 -414.022,-271.978 -413.399,-275.686 C-411.35,-287.883 -403.955,-291.471 -386.987,-289.71 C-375.174,-288.484 -373.696,-280.802 -375.243,-271.621 C-379.896,-244.018 -376.321,-216.08 -379.086,-188.366 C-380.689,-172.295 -373.884,-166.621 -357.103,-166.904 C-331.829,-167.329 -306.558,-167.886 -281.284,-168.304 C-260.392,-168.648 -256.276,-172.194 -255.383,-193.394 C-254.53,-213.599 -254.833,-233.85 -254.132,-254.064 C-251.198,-338.672 -247.957,-423.269 -245.125,-507.88 C-244.545,-525.227 -248.784,-529.589 -266.392,-530.234 C-290.812,-531.128 -315.234,-530.679 -339.671,-529.352 C-362.617,-528.106 -366.609,-524.694 -367.158,-501.747 C-367.792,-475.223 -366.348,-448.63 -369.909,-421.138 Z " fill="#000000" fill-opacity="1.00" stroke-width="12.21" stroke="#ffffff" stroke-linecap="square" stroke-linejoin="miter"/>				<path d="M-2.55902,1247.44 C18.2595,1251.79 37.9595,1249.9 57.5743,1246.92 C104.444,1239.82 142.958,1218.96 168.656,1177.85 C179.852,1159.93 192.519,1143.12 205.411,1126.46 C215.171,1113.84 227.63,1104.5 242.673,1099.15 C254.427,1094.96 262.961,1101.33 262.822,1113.75 C262.726,1122.39 259.441,1130.21 255.526,1137.72 C248.119,1151.91 239.974,1165.76 233.166,1180.24 C226.258,1194.92 233.64,1204.32 249.707,1202.46 C282.323,1198.66 314.919,1194.72 347.556,1191.12 C362.117,1189.52 371.296,1182.74 375.623,1168.15 C386.611,1131.08 389.501,1093.41 382.276,1055.66 C374.242,1013.67 350.683,983.161 308.529,970.533 C249.414,952.818 189.514,974.105 153.399,1024.37 C140.119,1042.86 126.891,1061.38 113.295,1079.64 C103.123,1093.3 91.224,1105.29 75.2101,1112.05 C57.894,1119.36 46.0028,1109.74 47.8945,1091.07 C49.483,1075.4 57.1861,1062.43 64.1794,1048.97 C73.5117,1031.02 69.2061,1023.59 49.2639,1023.67 C20.1491,1023.78 -8.82595,1022.64 -37.7006,1018.42 C-55.3633,1015.84 -67.1428,1022.4 -73.7165,1039.25 C-88.3901,1076.87 -93.7422,1115.79 -85.6233,1155.74 C-76.2088,1202.07 -53.7847,1237.2 -2.55902,1247.44 Z " fill="#000000" fill-opacity="1.00" stroke-width="12.21" stroke="#ffffff" stroke-linecap="square" stroke-linejoin="miter"/>				<path d="M-72.0383,799.144 C-80.3583,827.378 -85.0158,855.172 -83.7289,883.604 C-81.9485,922.937 -70.3793,957.376 -33.5978,978.45 C-16.4292,988.275 2.16136,992.959 21.6374,994.899 C68.611,999.572 111.109,989.975 147.052,957.27 C167.897,938.302 180.831,913.157 199.569,892.606 C208.355,882.972 216.026,872.185 227.722,865.662 C234.619,861.816 241.888,859.43 248.998,865.023 C255.98,870.516 256.187,878.44 254.067,885.857 C251.534,894.719 247.673,903.229 244.05,911.75 C237.084,928.13 240.672,934.53 258.682,934.858 C282.702,935.298 306.755,935.238 330.767,934.506 C350.669,933.901 362.702,923.622 367.58,904.123 C377.455,864.659 372.997,826.526 357.067,789.268 C347.869,767.759 332.587,753.465 310.78,745.569 C257.32,726.214 196.176,740.61 157.857,782.619 C142.537,799.414 128.548,817.433 114.149,835.055 C105.884,845.17 98.5052,856.186 87.294,863.348 C77.809,869.407 67.577,877.839 56.0822,870.01 C44.6807,862.245 48.4792,849.619 50.6026,838.574 C54.0882,820.448 64.3423,805.195 72.7078,789.165 C83.7415,768.02 80.1142,761.815 56.6494,761.568 C23.8066,761.221 -9.10425,762.77 -41.7255,756.994 C-52.3793,755.109 -59.6897,760.229 -63.0959,770.432 C-66.1611,779.613 -68.8728,788.912 -72.0383,799.144 Z " fill="#000000" fill-opacity="1.00" stroke-width="12.21" stroke="#ffffff" stroke-linecap="square" stroke-linejoin="miter"/>				<path d="M619.708,-186.607 C629.317,-187.355 637.758,-187.708 646.097,-188.822 C673.478,-192.478 690.767,-208.305 695.9,-235.11 C697.949,-245.803 700.008,-256.652 699.236,-267.695 C696.712,-303.778 694.572,-339.894 691.509,-375.931 C687.627,-421.598 683.199,-467.223 678.54,-512.819 C677.134,-526.58 671.374,-531.283 657.502,-530.978 C637.724,-530.544 617.944,-529.69 598.198,-528.469 C585.514,-527.686 581.258,-521.878 582.846,-509.223 C584.731,-494.2 587.07,-479.222 588.461,-464.155 C589.575,-452.066 591.47,-439.798 587.389,-427.818 C583.778,-417.218 575.734,-414.109 565.42,-415.246 C554.732,-416.425 555.071,-424.378 555.083,-432.226 C555.117,-456.664 555.24,-481.105 554.957,-505.541 C554.76,-522.5 550.995,-526.695 534.495,-527.668 C518.109,-528.635 501.683,-529.09 485.274,-527.204 C463.76,-524.731 460.363,-521.224 460.613,-499.493 C461.081,-459.035 458.637,-418.696 455.843,-378.372 C453.285,-341.464 470.221,-318.844 506.372,-311.534 C531.186,-306.518 554.836,-312.59 578.421,-319.388 C583.295,-320.794 589.375,-325.022 593.008,-318.078 C595.968,-312.423 592.255,-307.308 588.349,-303.403 C577.468,-292.525 563.868,-286.818 548.746,-286.075 C521.794,-284.752 494.893,-285.054 468.44,-291.938 C451.967,-296.225 447.085,-293.421 442.742,-277.064 C437.346,-256.74 432.685,-236.22 427.683,-215.791 C422.149,-193.188 425.851,-188.114 449.292,-186.312 C451.391,-186.151 453.51,-186.226 455.603,-186.016 C509.92,-180.568 564.199,-185.825 619.708,-186.607 Z " fill="#000000" fill-opacity="1.00" stroke-width="12.21" stroke="#ffffff" stroke-linecap="square" stroke-linejoin="miter"/>				<path d="M65.4612,-599.942 C66.1549,-589.898 67.0887,-581.091 67.4019,-572.263 C67.8197,-560.493 74.0427,-555.963 85.2867,-556.09 C104.248,-556.303 123.215,-556.113 142.179,-556.056 C173.282,-555.962 173.422,-555.953 172.775,-586.69 C172.286,-609.85 171.329,-633 170.696,-656.158 C170.514,-662.829 171.294,-669.269 179.99,-669.911 C189.121,-670.585 189.659,-663.573 190.627,-657.285 C191.203,-653.551 191.436,-649.748 191.578,-645.965 C192.479,-621.978 193.262,-597.984 194.187,-573.998 C194.7,-560.678 198.647,-556.432 211.661,-556.251 C235.258,-555.924 258.863,-556.23 282.458,-555.844 C294.441,-555.649 299.509,-561.476 299.044,-572.82 C298.545,-585.015 297.376,-597.189 297.101,-609.385 C296.094,-654.031 295.361,-698.681 294.476,-743.329 C294.173,-758.634 290.972,-762.04 276.177,-762.797 C263.562,-763.442 250.941,-764.34 238.318,-764.402 C168.363,-764.744 98.4019,-764.5 28.4514,-765.229 C-2.70074,-765.553 -33.8142,-768.148 -65.0149,-767.734 C-74.7901,-767.603 -81.4763,-765.308 -81.5815,-753.847 C-82.128,-694.44 -83.0207,-635.035 -83.343,-575.627 C-83.4234,-560.818 -78.0666,-556.095 -63.2322,-555.984 C-35.4193,-555.776 -7.60394,-555.869 20.2102,-555.872 C41.4407,-555.875 43.7586,-558.23 43.661,-580.125 C43.5446,-606.252 43.2694,-632.38 43.1429,-658.508 C43.1129,-664.664 43.7381,-671.183 51.6457,-671.626 C59.7288,-672.079 62.3062,-666.374 62.6387,-659.21 C63.5368,-639.861 64.4921,-620.516 65.4612,-599.942 Z " fill="#000000" fill-opacity="1.00" stroke-width="12.21" stroke="#ffffff" stroke-linecap="square" stroke-linejoin="miter"/>				<path d="M52.1418,4.99064 C50.7038,-9.98532 57.7468,-18.3951 70.4726,-22.3874 C79.2861,-25.1522 88.2674,-27.5261 97.3178,-29.3688 C131.366,-36.3021 165.218,-35.1611 198.486,-25.042 C217.937,-19.1257 221.855,-10.7327 215.668,7.94186 C209.378,26.9294 197.623,43.1304 188.835,60.843 C181.308,76.0112 185.449,83.0762 202.549,83.1019 C235.006,83.1509 267.466,83.0058 299.919,82.5443 C320.277,82.255 329.029,74.3907 332.379,54.4939 C336.598,29.4398 337.454,4.16644 334.612,-20.9914 C331.09,-52.1807 320.225,-80.7048 299.063,-104.511 C279.026,-127.05 251.717,-136.448 223.808,-143.305 C148.525,-161.802 74.3713,-155.828 1.02818,-131.737 C-41.0293,-117.922 -65.1693,-88.8902 -76.1979,-47.2323 C-86.1922,-9.48099 -85.0281,28.6934 -80.2401,66.8955 C-77.6712,87.3918 -74.5105,90.1969 -53.4191,89.7424 C-8.35323,88.7695 36.6953,87.0018 81.7512,85.5623 C87.999,85.3628 93.8405,83.8749 96.05,77.3252 C98.4802,70.1217 93.7532,65.2631 88.895,61.0933 C71.4784,46.1456 59.7492,27.4968 52.1418,4.99064 Z " fill="#000000" fill-opacity="1.00" stroke-width="12.21" stroke="#ffffff" stroke-linecap="square" stroke-linejoin="miter"/>				<path d="M-33.9788,-225.856 C-34.6983,-212.91 -35.6669,-201.137 -35.7023,-189.361 C-35.7315,-179.567 -30.8416,-173.228 -20.304,-173.304 C5.40686,-173.491 31.1315,-173.481 56.8201,-174.4 C71.0246,-174.908 75.804,-181.212 75.4367,-195.853 C75.2153,-204.694 74.622,-213.531 74.5726,-222.371 C74.4225,-249.152 74.4943,-249.155 100.617,-249.197 C104.831,-249.205 109.048,-249.095 113.262,-249.177 C122.71,-249.36 128.282,-245.641 129.134,-235.436 C130.219,-222.45 132.274,-209.548 133.558,-196.574 C134.583,-186.204 139.45,-179.92 150.318,-180.014 C177.709,-180.254 205.101,-180.609 232.486,-181.203 C242.459,-181.418 246.605,-186.334 244.963,-196.884 C241.336,-220.181 236.588,-243.229 231.243,-266.17 C212.619,-346.118 192.528,-425.666 167.813,-504 C163.629,-517.261 156.553,-525.517 142.167,-525.59 C105.499,-525.773 68.831,-525.884 32.1646,-525.768 C22.139,-525.737 15.6944,-520.784 13.5472,-510.433 C10.2998,-494.779 6.33619,-479.272 3.13862,-463.608 C-12.8425,-385.323 -30.0028,-307.215 -33.9788,-225.856 Z M97.6104,-412.925 C98.5764,-409.573 105.318,-372.325 109.704,-353.086 C111.977,-343.117 106.027,-341.088 98.9553,-340.232 C91.3848,-339.317 81.0696,-336.1 79.8991,-347.985 C77.4868,-372.484 87.039,-416.415 90.7551,-418.844 C94.4711,-421.273 96.6446,-416.277 97.6104,-412.925 Z " fill="#000000" fill-opacity="1.00" stroke-width="12.21" stroke="#ffffff" stroke-linecap="square" stroke-linejoin="miter"/>				<path d="M283.8,-978.094 C283.165,-986.811 282.325,-994.36 282.024,-1001.92 C279.385,-1068.37 279.519,-1134.92 274.466,-1201.3 C273.529,-1213.6 268.789,-1221.08 255.972,-1222.55 C229.655,-1225.59 203.418,-1229.49 177.042,-1231.83 C148.51,-1234.36 148.457,-1233.77 148.64,-1204.81 C148.724,-1191.61 147.325,-1190.53 135.002,-1194.1 C93.3704,-1206.16 51.7523,-1218.27 10.0906,-1230.22 C-11.7528,-1236.49 -33.5842,-1242.83 -55.5911,-1248.48 C-73.7938,-1253.15 -83.7057,-1246.99 -84.035,-1230.82 C-84.952,-1185.75 -85.6244,-1140.69 -85.8545,-1095.63 C-85.9463,-1077.66 -80.5946,-1072.25 -63.1522,-1073.66 C-16.1243,-1077.47 30.9908,-1078.99 78.1175,-1080.44 C97.0495,-1081.02 116.001,-1082.08 134.886,-1079.49 C143.344,-1078.33 149.256,-1076.73 153.302,-1073.83 C159.409,-1069.46 161.26,-1062.13 161.188,-1048.92 C161.06,-1025.33 161.408,-1001.66 161.188,-978.094 C161.002,-958.236 164.64,-953.251 184.067,-952.529 C208.475,-951.622 232.887,-950.794 257.304,-950.17 C280.87,-949.566 284.268,-953.125 283.8,-978.094 Z " fill="#000000" fill-opacity="1.00" stroke-width="12.21" stroke="#ffffff" stroke-linecap="square" stroke-linejoin="miter"/>				<path d="M268.038,-797.095 C288.524,-797.44 292.494,-800.489 290.836,-819.04 C288.547,-844.651 291.013,-870.393 287.268,-895.975 C285.636,-907.133 281.803,-912.235 270.014,-912.765 C217.374,-915.132 164.721,-915.335 112.052,-915.107 C107.864,-915.089 103.522,-914.992 99.5208,-915.998 C92.5481,-917.752 88.9533,-922.469 89.6973,-930.018 C90.3929,-937.081 94.6162,-940.603 101.259,-941.112 C107.971,-941.625 114.732,-941.498 121.471,-941.673 C136.991,-942.076 139.748,-944.208 139.241,-959.203 C138.514,-980.642 140.142,-1001.57 139.241,-1023.01 C138.755,-1034.54 128.676,-1038.33 118.47,-1039.1 C59.158,-1043.62 -0.20132,-1042.49 -59.5694,-1041.06 C-62.5154,-1040.99 -65.474,-1040.88 -68.3973,-1040.53 C-78.7429,-1039.31 -84.2065,-1033.95 -84.0808,-1023.01 C-83.8287,-1001.09 -83.9269,-979.185 -83.9774,-957.269 C-84.005,-945.33 -77.7626,-939.415 -66.2679,-938.689 C-51.5639,-937.759 -36.8341,-937.226 -22.136,-936.22 C-14.5916,-935.704 -5.66728,-935.657 -5.59466,-925.002 C-5.51949,-913.982 -14.1654,-912.629 -22.5731,-912.783 C-36.4614,-913.038 -50.3397,-914.362 -64.2201,-914.334 C-77.4531,-914.307 -81.3556,-909.984 -81.475,-896.621 C-81.6935,-872.181 -81.6289,-847.738 -81.7129,-823.296 C-81.7798,-803.81 -78.4654,-799.975 -59.2984,-800.177 C49.4303,-801.323 158.116,-798.302 268.038,-797.095 Z " fill="#000000" fill-opacity="1.00" stroke-width="12.21" stroke="#ffffff" stroke-linecap="square" stroke-linejoin="miter"/>				<path d="M340.404,-448.543 C334.909,-417.701 329.41,-356.216 327.025,-356.216 C324.639,-356.216 322.653,-364.11 321.994,-367.411 C312.859,-413.165 303.74,-458.922 294.451,-504.645 C291.323,-520.043 284.695,-527.224 270.528,-527.955 C248.674,-529.082 226.704,-529.755 204.882,-527.547 C187.002,-525.737 184.391,-521.239 188.333,-503.323 C201.907,-441.632 219.654,-381.043 236.833,-320.312 C248.285,-279.832 259.363,-239.218 276.287,-200.482 C281.568,-188.396 289.198,-182.957 302.491,-183.583 C328.989,-184.831 355.525,-185.334 382.05,-185.92 C390.746,-186.112 396.495,-189.505 398.658,-198.27 C400.069,-203.982 401.921,-209.584 403.336,-215.296 C419.539,-280.667 432.098,-346.751 440.812,-413.516 C444.945,-445.193 450.465,-476.771 451.18,-508.809 C451.502,-523.197 446.633,-528.187 432.605,-528.395 C411.125,-528.715 389.63,-528.782 368.152,-528.388 C354.4,-528.136 348.117,-522.271 346.545,-508.648 C344.278,-489.022 342.559,-469.332 340.404,-448.543 Z " fill="#000000" fill-opacity="1.00" stroke-width="12.21" stroke="#ffffff" stroke-linecap="square" stroke-linejoin="miter"/>				<path d="M-228.279,-171.369 C-174.933,-169.927 -122.824,-174.448 -70.6216,-176.021 C-60.3307,-176.332 -55.7626,-182.571 -54.9435,-192.308 C-53.0007,-215.415 -51.9329,-238.547 -51.959,-261.747 C-51.9714,-272.676 -56.7357,-278.604 -67.7275,-278.476 C-84.1238,-278.284 -100.716,-277.355 -116.897,-276.805 C-122.669,-276.608 -128.762,-275.619 -131.267,-281.556 C-134.409,-288.999 -134.566,-297.404 -131.222,-304.856 C-128.285,-311.401 -121.307,-310.137 -115.508,-310.239 C-96.9657,-310.566 -78.4132,-310.517 -59.8796,-311.098 C-49.9681,-311.409 -40.7762,-314.531 -39.8284,-326.197 C-38.2946,-345.071 -37.7276,-364.028 -36.9213,-382.957 C-36.5048,-392.742 -41.7684,-397.96 -51.2234,-398.619 C-57.499,-399.058 -63.8393,-398.676 -70.1471,-398.518 C-84.8883,-398.149 -99.6262,-397.639 -114.367,-397.3 C-120.628,-397.156 -126.02,-398.29 -127.873,-405.756 C-132.477,-424.291 -126.901,-431.925 -108.102,-432.165 C-87.4536,-432.427 -66.7994,-432.432 -46.156,-432.917 C-36.0213,-433.154 -29.5435,-437.609 -29.2424,-449.007 C-28.7642,-467.108 -27.4008,-485.185 -26.9672,-503.286 C-26.4583,-524.529 -30.3262,-528.361 -51.5708,-528.434 C-100.467,-528.6 -149.364,-528.659 -198.261,-528.667 C-222.168,-528.67 -226.498,-524.847 -227.238,-501.15 C-230.503,-396.721 -233.538,-292.285 -236.609,-187.85 C-236.799,-181.38 -236.292,-175.031 -228.279,-171.369 Z " fill="#000000" fill-opacity="1.00" stroke-width="12.21" stroke="#ffffff" stroke-linecap="square" stroke-linejoin="miter"/>				<path d="M-595.124,-550.328 C-616.661,-561.159 -637.215,-571.866 -658.129,-581.816 C-675.029,-589.857 -681.188,-586.198 -682.729,-567.395 C-683.76,-554.814 -683.165,-542.107 -684.016,-529.504 C-688.914,-456.873 -693.812,-384.241 -699.263,-311.65 C-700.251,-298.508 -695.961,-289.039 -686.412,-280.59 C-655.492,-253.23 -624.864,-225.54 -594.112,-197.989 C-590.093,-194.388 -586.375,-189.462 -579.975,-192.425 C-574.104,-195.141 -573.58,-200.684 -573.397,-206.377 C-570.295,-302.328 -565.866,-398.218 -561.221,-494.106 C-559.061,-538.707 -555.091,-530.309 -595.124,-550.328 Z " fill="#000000" fill-opacity="1.00" stroke-width="1.00" stroke="#ffffff" stroke-linecap="square" stroke-linejoin="miter"/>				<path d="M-348.198,-600.599 C-435.834,-601.327 -522.221,-599.321 -608.584,-602.018 C-615.308,-602.228 -628.26,-604.232 -628.26,-598.322 C-628.26,-592.413 -621.42,-590.962 -617.282,-589.344 C-609.054,-586.125 -600.782,-582.97 -592.372,-580.275 C-563.66,-571.071 -536.612,-556.077 -505.257,-556.094 C-392.319,-556.159 -279.382,-556.007 -166.444,-556.05 C-162.218,-556.052 -154.804,-554.11 -154.354,-559.833 C-153.905,-565.557 -161.504,-565.445 -165.592,-566.906 C-180.652,-572.29 -196.092,-576.682 -210.943,-582.571 C-239.663,-593.958 -268.451,-603.495 -300.176,-600.758 C-315.65,-599.422 -331.34,-600.573 -348.198,-600.599 Z " fill="#000000" fill-opacity="1.00" stroke-width="1.00" stroke="#000000" stroke-linecap="square" stroke-linejoin="miter"/>				<path d="M371.931,-601.921 C361.892,-602.186 353.041,-602.415 344.189,-602.523 C316.259,-602.863 315.919,-602.5 316.566,-574.485 C316.984,-556.373 319.892,-553.438 338.34,-553.422 C429.406,-553.349 520.473,-553.315 611.539,-553.407 C615.761,-553.412 622.924,-552.414 624.141,-556.576 C625.358,-560.739 618.37,-562.112 614.416,-563.247 C586.488,-571.258 558.556,-579.253 530.67,-587.401 C505.616,-594.721 480.836,-601.856 454.005,-600.679 C427.111,-599.5 400.086,-601.322 371.931,-601.921 Z " fill="#000000" fill-opacity="1.00" stroke-width="1.00" stroke="#000000" stroke-linecap="square" stroke-linejoin="miter"/>			</g>		</g>	</svg>