<svg xmlns="http://www.w3.org/2000/svg" xmlns:xlink="http://www.w3.org/1999/xlink" id="svg" viewBox="92.77 6.95 227.12 387.94"><g id="svgg"><path id="path0" d="M187.148 6.978 C 186.425 7.111,186.328 7.773,186.427 11.871 C 186.478 13.989,186.623 20.806,186.749 27.018 L 186.977 38.314 187.434 38.613 C 187.920 38.931,190.453 38.763,196.973 37.978 C 201.034 37.490,202.613 37.345,206.348 37.119 C 208.281 37.003,210.918 36.818,212.207 36.708 C 213.707 36.581,216.871 36.568,220.996 36.671 C 227.836 36.842,228.188 36.896,228.638 37.854 C 228.888 38.385,228.956 48.112,228.728 50.833 C 228.614 52.205,228.577 54.258,228.646 55.396 C 228.804 57.970,228.906 58.094,231.013 58.280 C 234.226 58.562,241.483 58.871,245.117 58.878 L 248.926 58.887 249.256 58.203 C 249.562 57.568,249.566 57.191,249.301 52.930 C 249.144 50.405,248.929 46.099,248.825 43.359 C 248.649 38.779,248.558 35.819,248.062 18.555 C 247.800 9.457,248.207 9.832,238.281 9.553 C 234.897 9.458,231.256 9.300,230.189 9.202 C 227.202 8.929,227.249 8.861,227.237 13.379 C 227.227 17.425,227.220 17.446,225.901 17.322 C 224.792 17.217,223.930 17.043,223.340 16.805 C 223.125 16.719,222.290 16.451,221.484 16.211 C 220.679 15.971,219.844 15.705,219.629 15.622 C 219.414 15.538,218.579 15.279,217.773 15.048 C 216.968 14.816,215.869 14.498,215.332 14.342 C 214.795 14.185,214.004 13.961,213.574 13.842 C 213.145 13.724,212.573 13.558,212.305 13.474 C 212.036 13.389,211.113 13.136,210.254 12.911 C 209.395 12.685,207.593 12.197,206.250 11.827 C 203.150 10.971,201.806 10.606,200.098 10.156 C 198.763 9.805,198.235 9.662,195.020 8.781 C 194.160 8.545,193.149 8.270,192.773 8.169 C 192.397 8.068,191.782 7.896,191.406 7.785 C 191.030 7.675,190.459 7.537,190.137 7.479 C 189.814 7.421,189.463 7.308,189.355 7.229 C 189.091 7.033,187.703 6.876,187.148 6.978 M177.930 8.414 C 176.265 9.063,174.750 9.677,174.563 9.778 C 174.377 9.878,174.134 9.961,174.024 9.961 C 173.914 9.961,173.407 10.145,172.898 10.371 C 171.743 10.883,171.798 10.861,168.262 12.212 C 166.650 12.828,163.911 13.892,162.174 14.576 C 160.437 15.260,158.964 15.820,158.900 15.820 C 158.260 15.820,157.002 16.736,156.664 17.449 C 155.664 19.557,155.694 18.166,155.628 66.928 L 155.566 112.273 156.052 112.790 C 156.489 113.255,157.006 113.546,158.350 114.082 C 158.591 114.179,159.009 114.346,159.277 114.453 C 159.546 114.561,159.963 114.727,160.205 114.824 C 160.447 114.920,160.952 115.132,161.328 115.293 C 161.704 115.455,163.154 116.046,164.551 116.607 C 165.947 117.168,167.462 117.792,167.918 117.993 C 168.373 118.195,168.836 118.359,168.946 118.359 C 169.056 118.359,169.299 118.437,169.485 118.532 C 169.948 118.767,170.164 118.855,175.391 120.911 C 177.915 121.905,180.068 122.783,180.176 122.864 C 180.378 123.016,181.282 123.128,181.895 123.076 C 182.792 123.001,182.790 123.058,182.600 101.561 C 182.502 90.444,182.312 74.360,182.178 65.820 C 181.898 48.031,181.853 15.872,182.101 11.203 C 182.345 6.619,182.416 6.666,177.930 8.414 M205.633 42.470 C 205.562 42.545,203.102 42.692,200.164 42.795 C 195.445 42.961,192.874 43.122,189.063 43.488 C 187.197 43.668,187.305 43.188,187.305 51.309 L 187.305 58.417 187.830 58.903 L 188.354 59.390 193.662 59.355 C 199.747 59.316,199.861 59.342,200.606 60.927 C 201.261 62.320,200.619 63.800,199.060 64.495 C 197.881 65.020,193.038 65.205,189.809 64.849 C 188.445 64.698,187.587 64.679,187.469 64.797 C 187.356 64.909,187.287 68.552,187.294 74.044 L 187.305 83.105 187.839 83.575 L 188.374 84.045 198.825 83.909 C 204.574 83.833,212.749 83.697,216.992 83.604 C 221.663 83.503,229.254 83.514,236.232 83.633 C 250.794 83.881,250.190 84.016,249.914 80.585 C 249.843 79.715,249.711 75.851,249.619 71.996 L 249.453 64.989 248.944 64.480 C 248.486 64.022,248.297 63.974,247.021 63.990 C 218.970 64.348,219.691 64.364,218.679 63.352 C 216.820 61.493,218.221 59.380,221.647 58.872 C 222.847 58.695,223.399 58.515,223.747 58.188 L 224.219 57.744 224.205 52.163 C 224.181 42.558,224.300 42.906,220.963 42.710 C 217.478 42.505,205.772 42.321,205.633 42.470 M219.043 88.869 C 216.572 88.943,211.431 89.105,207.617 89.230 C 201.829 89.418,199.706 89.407,194.765 89.162 C 187.383 88.795,187.818 88.669,187.606 91.249 C 187.237 95.759,187.300 124.349,187.680 124.693 C 187.997 124.980,189.038 125.029,196.997 125.132 L 205.957 125.247 206.431 124.733 L 206.905 124.218 206.672 118.701 C 206.288 109.567,206.357 107.841,207.189 105.799 C 207.861 104.147,209.760 103.744,211.005 104.989 C 212.666 106.651,212.822 108.149,212.341 117.871 C 211.990 124.983,211.976 124.815,212.953 125.335 C 213.632 125.697,225.214 126.141,227.246 125.883 C 229.165 125.640,229.219 125.387,228.714 119.043 C 227.760 107.053,228.199 104.100,230.935 104.102 C 233.402 104.105,234.287 106.711,233.722 112.305 C 233.431 115.174,233.197 123.173,233.375 124.115 C 233.689 125.770,233.369 125.702,241.515 125.838 C 251.351 126.002,250.530 126.658,250.205 118.896 C 250.055 115.313,250.013 109.386,250.085 101.990 C 250.160 94.333,250.130 90.477,249.994 90.224 C 249.544 89.382,248.876 89.258,244.785 89.256 C 242.658 89.255,239.951 89.174,238.770 89.075 C 235.779 88.826,224.435 88.707,219.043 88.869 M101.234 117.921 C 100.638 118.357,101.164 118.773,103.432 119.663 C 104.606 120.123,105.742 120.580,105.957 120.678 C 106.172 120.776,108.281 121.628,110.645 122.570 C 113.008 123.513,115.029 124.342,115.137 124.412 C 115.951 124.943,117.079 125.034,121.399 124.921 C 123.863 124.857,136.338 124.752,149.121 124.689 C 172.918 124.572,172.852 124.574,172.852 123.809 C 172.852 123.280,172.275 122.996,169.336 122.073 C 165.547 120.883,160.923 119.387,158.887 118.693 L 157.129 118.094 143.555 117.938 C 118.020 117.646,101.620 117.639,101.234 117.921 M94.599 119.605 L 94.060 120.069 93.918 127.759 C 93.840 131.989,93.636 138.218,93.463 141.602 C 93.181 147.143,92.792 161.356,92.779 166.591 L 92.773 168.630 93.799 169.619 C 94.363 170.162,96.714 172.222,99.023 174.194 C 101.333 176.167,103.487 178.013,103.809 178.295 C 104.132 178.578,105.011 179.333,105.762 179.974 C 106.514 180.616,107.615 181.592,108.210 182.145 C 111.062 184.798,110.934 185.588,111.316 162.988 C 111.540 149.697,111.793 140.016,112.110 132.526 C 112.368 126.460,112.887 127.277,107.123 124.682 C 104.656 123.571,101.078 121.870,99.174 120.901 C 95.327 118.946,95.356 118.954,94.599 119.605 M254.790 119.872 C 253.747 120.915,254.409 124.747,255.726 125.285 C 257.076 125.836,290.241 126.054,290.780 125.515 C 291.370 124.925,290.262 124.414,287.793 124.138 C 286.549 123.999,284.176 123.652,283.008 123.439 C 281.923 123.241,280.096 122.952,278.125 122.667 C 277.534 122.582,276.260 122.364,275.293 122.183 C 272.118 121.588,266.729 120.688,265.137 120.486 C 262.347 120.132,261.069 119.953,259.099 119.642 C 256.202 119.184,255.438 119.225,254.790 119.872 M117.632 128.503 C 116.732 129.062,116.811 126.408,116.276 174.236 L 116.148 185.680 116.948 186.480 C 117.388 186.919,118.083 187.383,118.493 187.509 C 120.215 188.039,132.154 187.889,133.655 187.318 C 134.662 186.936,134.708 186.535,134.835 177.094 C 134.908 171.661,135.029 168.206,135.155 167.970 C 135.418 167.480,136.306 167.258,139.070 166.993 C 142.313 166.683,142.069 166.368,141.922 170.685 C 141.450 184.583,141.489 186.050,142.353 186.914 L 142.872 187.434 150.847 187.465 L 158.822 187.497 159.419 186.900 L 160.016 186.303 159.889 182.263 C 159.295 163.479,159.207 145.895,159.669 138.379 C 160.094 131.465,160.068 129.454,159.549 128.985 C 158.870 128.372,146.082 128.519,144.768 129.156 C 143.587 129.727,143.109 130.421,142.951 131.792 C 142.880 132.407,142.730 133.613,142.616 134.473 C 142.086 138.491,141.942 141.142,142.076 144.423 C 142.186 147.129,142.162 147.844,141.957 147.971 C 141.354 148.344,135.831 148.310,135.251 147.930 L 134.704 147.571 134.839 138.275 C 134.966 129.503,134.954 128.961,134.626 128.674 C 134.005 128.132,118.482 127.975,117.632 128.503 M282.130 129.120 C 278.033 129.323,278.321 128.965,278.319 133.860 C 278.317 137.612,278.200 144.356,278.061 148.730 C 278.020 150.020,277.918 153.229,277.834 155.863 C 277.662 161.216,277.790 162.148,278.926 163.798 C 281.104 166.963,290.908 167.637,298.385 165.135 C 301.175 164.202,301.401 164.218,301.818 165.381 C 303.768 170.821,292.915 174.049,282.568 171.107 C 282.166 170.992,281.550 170.821,281.201 170.726 C 280.852 170.632,280.171 170.421,279.688 170.258 C 277.708 169.592,276.113 169.713,275.889 170.545 C 275.503 171.979,275.261 172.782,274.602 174.805 C 274.200 176.040,273.551 178.062,273.161 179.297 C 272.770 180.532,272.377 181.719,272.287 181.934 C 270.994 185.033,271.491 186.884,273.743 187.348 C 275.345 187.678,307.194 187.637,309.816 187.302 C 316.306 186.472,318.815 183.822,319.704 176.855 C 320.145 173.401,319.775 160.014,318.927 148.730 C 318.741 146.256,318.569 142.955,318.178 134.375 L 317.986 130.176 317.379 129.630 L 316.771 129.084 309.247 129.142 L 301.724 129.199 301.284 129.710 C 300.896 130.162,300.862 130.344,300.992 131.273 C 302.834 144.413,301.651 150.391,297.208 150.391 C 294.599 150.391,294.020 149.041,294.320 143.652 C 294.649 137.727,294.653 130.167,294.327 129.774 C 293.567 128.858,290.616 128.700,282.130 129.120 M165.453 129.282 C 165.090 129.376,164.518 129.728,164.183 130.063 L 163.574 130.674 163.545 135.600 C 163.530 138.310,163.457 150.635,163.384 162.988 L 163.252 185.449 163.712 186.130 C 164.556 187.379,164.102 187.338,175.488 187.206 C 187.297 187.069,187.798 187.020,188.752 185.904 C 189.494 185.038,189.585 184.633,190.237 179.297 C 190.349 178.384,190.528 176.934,190.635 176.074 C 191.088 172.439,191.089 171.416,190.639 171.008 C 190.151 170.568,190.272 170.570,184.287 170.867 C 178.484 171.155,179.004 171.483,179.004 167.532 L 179.004 164.569 179.688 164.412 C 180.063 164.325,183.052 164.272,186.328 164.295 C 194.347 164.349,193.642 165.012,193.844 157.223 L 193.983 151.849 193.446 151.312 L 192.909 150.775 188.398 150.884 C 185.917 150.945,182.788 150.924,181.445 150.839 L 179.004 150.684 179.005 147.949 C 179.006 146.445,179.076 144.960,179.162 144.649 L 179.318 144.084 181.700 144.212 C 189.255 144.616,194.026 144.602,194.408 144.175 C 194.890 143.635,195.094 140.982,195.107 135.095 C 195.117 130.608,195.044 130.063,194.390 129.776 C 193.593 129.427,166.669 128.967,165.453 129.282 M236.390 129.288 C 231.014 129.449,231.136 129.218,232.647 136.328 C 232.749 136.812,232.912 137.646,233.008 138.184 C 233.293 139.777,233.653 141.435,234.407 144.629 C 234.509 145.059,234.670 145.762,234.766 146.191 C 235.220 148.232,235.367 148.803,236.631 153.418 C 236.807 154.063,237.031 154.919,237.128 155.322 C 237.225 155.725,237.384 156.384,237.481 156.787 C 237.578 157.190,237.808 158.047,237.992 158.691 C 238.176 159.336,238.409 160.215,238.508 160.645 C 238.608 161.074,238.770 161.733,238.867 162.109 C 238.965 162.485,239.100 163.057,239.166 163.379 C 239.233 163.701,239.359 164.141,239.446 164.355 C 239.534 164.570,239.757 165.317,239.942 166.016 C 240.127 166.714,240.347 167.505,240.432 167.773 C 240.516 168.042,240.733 168.789,240.914 169.434 C 241.094 170.078,241.313 170.825,241.399 171.094 C 241.486 171.362,241.663 171.978,241.794 172.461 C 241.925 172.944,242.144 173.691,242.280 174.121 C 242.416 174.551,242.637 175.298,242.771 175.781 C 242.905 176.265,243.082 176.880,243.164 177.148 C 243.247 177.417,243.427 178.032,243.565 178.516 C 245.068 183.787,246.217 186.562,247.127 187.116 C 247.949 187.618,263.557 187.716,264.727 187.228 C 265.746 186.802,266.210 185.819,267.411 181.543 C 267.625 180.784,267.716 180.446,268.149 178.809 C 268.388 177.906,269.679 172.027,269.941 170.654 C 270.038 170.144,270.213 169.265,270.330 168.701 C 270.761 166.618,270.869 166.076,271.188 164.355 C 271.527 162.528,271.778 161.262,272.096 159.766 C 272.367 158.493,272.576 157.326,272.828 155.664 C 272.951 154.858,273.134 153.760,273.236 153.223 C 273.778 150.368,274.144 148.106,274.533 145.215 C 274.692 144.033,274.909 142.495,275.014 141.797 C 275.234 140.346,275.301 139.778,275.681 136.133 C 276.288 130.322,276.287 130.197,275.655 129.700 L 275.098 129.261 267.676 129.393 C 258.388 129.558,259.216 129.161,258.779 133.658 C 258.652 134.965,258.480 136.606,258.397 137.305 C 257.838 141.994,257.586 143.993,257.425 145.020 C 257.138 146.846,256.859 148.744,256.547 150.977 C 256.133 153.949,255.664 156.983,255.444 158.105 C 255.339 158.643,255.205 159.412,255.145 159.816 C 254.894 161.517,254.444 160.297,253.542 155.469 C 253.432 154.878,253.198 153.691,253.023 152.832 C 252.849 151.973,252.627 150.874,252.530 150.391 C 252.434 149.907,252.252 149.072,252.126 148.535 C 251.902 147.582,251.738 146.720,251.367 144.531 C 251.267 143.940,251.043 142.754,250.869 141.895 C 250.505 140.101,250.267 138.870,250.027 137.549 C 248.319 128.150,249.547 128.894,236.390 129.288 M204.699 130.228 C 204.004 130.565,203.528 131.383,203.038 133.086 C 202.609 134.578,200.790 141.662,200.577 142.676 C 200.486 143.105,200.314 143.853,200.195 144.336 C 200.076 144.819,199.896 145.588,199.794 146.045 C 199.692 146.501,199.521 147.271,199.414 147.754 C 199.090 149.213,198.840 150.431,198.634 151.563 C 198.526 152.153,198.346 153.120,198.234 153.711 C 197.788 156.054,197.232 159.688,196.666 163.965 C 196.552 164.824,196.383 166.099,196.289 166.797 C 195.681 171.327,195.554 172.395,194.723 179.932 C 194.286 183.891,194.251 186.692,194.633 187.114 C 195.054 187.580,203.144 187.680,208.203 187.283 C 212.122 186.975,212.003 187.117,211.871 182.916 C 211.767 179.607,212.073 174.976,212.402 174.874 C 212.510 174.841,214.394 174.878,216.589 174.956 L 220.581 175.098 220.835 176.074 C 221.272 177.748,221.659 180.841,221.799 183.778 C 221.925 186.426,221.963 186.629,222.415 187.081 L 222.896 187.562 229.465 187.424 C 241.276 187.176,240.728 187.436,239.830 182.520 C 239.614 181.338,239.346 179.756,239.235 179.004 C 238.780 175.924,238.698 175.415,238.381 173.730 C 238.199 172.764,237.978 171.577,237.889 171.094 C 237.800 170.610,237.584 169.556,237.410 168.750 C 237.235 167.944,237.009 166.846,236.907 166.309 C 236.806 165.771,236.588 164.761,236.423 164.063 C 236.258 163.364,236.034 162.310,235.925 161.719 C 235.816 161.128,235.647 160.249,235.549 159.766 C 235.452 159.282,235.285 158.426,235.178 157.862 C 235.072 157.298,234.934 156.755,234.872 156.654 C 234.810 156.554,234.667 156.048,234.556 155.531 C 234.444 155.013,234.270 154.216,234.168 153.760 C 234.067 153.303,233.906 152.556,233.810 152.100 C 233.714 151.643,233.485 150.742,233.302 150.098 C 233.119 149.453,232.810 148.311,232.616 147.559 C 232.422 146.807,232.177 145.928,232.072 145.605 C 231.967 145.283,231.785 144.668,231.666 144.238 C 231.199 142.543,230.050 138.946,229.874 138.626 C 229.771 138.439,229.688 138.152,229.688 137.988 C 229.688 137.824,229.602 137.537,229.498 137.351 C 229.394 137.164,229.183 136.616,229.028 136.133 C 228.661 134.985,227.589 132.223,227.342 131.790 C 227.235 131.603,227.148 131.358,227.148 131.244 C 227.148 131.131,226.951 130.832,226.709 130.580 L 226.270 130.123 215.794 130.025 C 206.634 129.940,205.241 129.966,204.699 130.228 M215.678 145.652 C 215.732 145.949,216.018 147.070,216.314 148.145 C 216.611 149.219,216.921 150.449,217.004 150.879 C 217.087 151.309,217.303 152.275,217.482 153.027 C 217.969 155.067,218.145 155.855,218.354 156.934 C 218.458 157.471,218.676 158.515,218.837 159.255 C 218.999 159.994,219.084 160.675,219.027 160.768 C 218.759 161.201,213.986 160.636,213.310 160.092 C 213.036 159.872,213.062 159.254,213.463 156.445 C 213.563 155.747,213.735 154.517,213.847 153.711 C 214.483 149.098,214.976 145.936,215.148 145.364 C 215.312 144.816,215.550 144.946,215.678 145.652 M216.113 190.752 C 193.498 191.357,185.615 200.069,188.571 221.191 C 188.751 222.480,188.944 223.887,189.000 224.316 C 189.057 224.746,189.181 225.181,189.278 225.283 C 189.374 225.385,189.453 225.662,189.453 225.897 C 189.453 226.908,190.368 227.450,192.506 227.708 C 197.221 228.276,213.158 228.561,213.633 228.086 C 214.293 227.426,213.717 225.620,211.930 222.754 C 208.255 216.857,207.836 215.184,209.442 212.822 C 209.858 212.210,211.427 211.151,212.500 210.758 C 212.876 210.620,213.359 210.438,213.574 210.352 C 213.972 210.194,215.114 209.962,217.383 209.577 C 219.305 209.251,225.808 209.226,227.441 209.539 C 229.362 209.906,230.502 210.168,230.957 210.344 C 232.803 211.061,233.616 211.554,234.673 212.598 C 237.026 214.921,236.898 216.567,234.032 220.823 C 231.809 224.126,230.365 227.153,230.588 228.044 C 230.806 228.913,231.383 229.076,234.499 229.154 C 236.096 229.193,240.015 229.342,243.208 229.484 C 252.153 229.883,253.455 229.339,254.486 224.774 C 256.909 214.040,254.834 204.248,248.885 198.339 C 242.871 192.365,233.855 190.278,216.113 190.752 M157.519 191.451 C 155.584 191.688,155.664 191.370,155.662 198.801 C 155.661 202.307,155.578 209.878,155.478 215.625 C 155.378 221.372,155.247 241.499,155.187 260.352 C 155.127 279.204,155.024 303.242,154.959 313.770 L 154.840 332.910 155.567 334.277 C 155.967 335.029,156.668 336.348,157.125 337.207 C 157.582 338.066,158.685 340.176,159.575 341.895 C 160.466 343.613,161.343 345.283,161.523 345.605 C 161.704 345.928,162.977 348.389,164.352 351.074 C 165.727 353.760,167.246 356.704,167.729 357.617 C 168.211 358.530,169.353 360.728,170.268 362.500 C 172.018 365.892,172.735 367.253,173.868 369.336 C 175.116 371.628,176.591 374.448,178.720 378.613 C 182.192 385.406,182.386 385.769,182.733 386.153 C 183.224 386.695,184.070 386.627,184.559 386.005 C 185.074 385.351,185.036 380.891,184.175 340.723 C 184.071 335.889,183.987 328.242,183.987 323.730 C 183.987 319.219,183.902 309.551,183.797 302.246 C 183.465 279.057,183.195 231.069,183.348 222.559 C 183.610 208.026,183.385 192.267,182.910 191.912 C 182.246 191.415,160.960 191.028,157.519 191.451 M189.919 232.507 C 189.057 233.113,189.020 233.523,189.096 241.542 C 189.175 249.865,189.228 250.243,190.383 250.769 C 191.023 251.061,198.821 250.895,204.278 250.475 C 208.757 250.130,208.816 250.164,208.096 252.642 C 207.667 254.117,204.921 256.250,203.450 256.250 C 203.284 256.250,203.100 256.328,203.041 256.423 C 202.983 256.518,202.692 256.641,202.395 256.697 C 202.098 256.753,201.064 257.031,200.098 257.315 C 197.991 257.934,195.645 258.408,192.925 258.766 C 189.214 259.253,189.175 259.347,189.098 267.969 C 189.005 278.313,189.118 278.506,194.657 277.439 C 197.614 276.869,198.347 276.725,199.219 276.539 C 200.070 276.357,201.613 275.946,202.846 275.572 C 203.176 275.472,203.594 275.391,203.776 275.391 C 203.958 275.391,204.259 275.314,204.446 275.219 C 204.633 275.125,205.137 274.943,205.566 274.814 C 210.717 273.272,214.692 270.830,216.633 268.018 C 217.357 266.970,217.401 266.975,218.071 268.207 C 219.478 270.791,221.081 271.735,226.953 273.432 C 229.339 274.122,231.013 274.482,235.210 275.206 C 236.903 275.499,244.542 275.503,245.086 275.212 C 245.304 275.095,245.665 275.000,245.888 275.000 C 246.317 275.000,246.331 274.995,248.110 274.104 C 252.280 272.018,254.733 267.140,255.516 259.375 C 255.814 256.413,255.789 248.487,255.473 245.801 C 255.347 244.727,255.167 243.101,255.073 242.188 C 254.980 241.274,254.850 240.264,254.784 239.941 C 254.718 239.619,254.533 238.696,254.373 237.891 C 253.772 234.865,252.873 233.750,250.768 233.421 C 249.095 233.159,236.321 232.832,217.676 232.575 C 189.218 232.183,190.377 232.186,189.919 232.507 M238.038 249.147 C 239.875 249.339,240.190 249.703,240.353 251.820 C 240.732 256.740,239.235 258.398,234.413 258.398 C 231.561 258.398,229.561 258.010,227.637 257.083 C 225.277 255.946,224.030 253.209,224.543 250.293 L 224.715 249.316 227.739 249.211 C 232.632 249.040,236.772 249.015,238.038 249.147 M216.406 277.563 C 208.035 278.152,206.443 278.406,202.148 279.838 C 192.505 283.053,186.412 294.535,188.497 305.566 C 188.720 306.748,188.949 307.958,189.005 308.254 C 189.062 308.551,189.185 308.842,189.280 308.901 C 189.375 308.959,189.453 309.190,189.453 309.413 C 189.453 311.401,194.700 318.867,196.499 319.438 C 196.706 319.504,196.875 319.626,196.875 319.709 C 196.875 320.188,201.826 322.327,204.301 322.917 C 210.792 324.466,226.116 324.811,234.082 323.589 C 234.834 323.474,235.977 323.315,236.621 323.236 C 238.422 323.016,240.256 322.658,240.642 322.452 C 240.833 322.349,241.217 322.266,241.494 322.266 C 241.771 322.266,242.150 322.186,242.337 322.089 C 242.523 321.992,243.071 321.801,243.555 321.665 C 244.038 321.528,244.653 321.310,244.922 321.180 C 245.190 321.051,245.938 320.698,246.582 320.397 C 251.782 317.971,255.576 313.040,257.544 306.152 C 258.065 304.329,258.108 298.834,257.619 296.777 C 257.388 295.811,257.152 294.733,257.094 294.383 C 257.036 294.033,256.910 293.698,256.814 293.639 C 256.719 293.580,256.641 293.366,256.641 293.164 C 256.641 292.348,254.395 288.017,253.046 286.230 C 250.780 283.232,246.037 279.873,243.164 279.233 C 242.896 279.173,241.709 278.909,240.527 278.645 C 235.486 277.523,224.183 277.015,216.406 277.563 M227.539 294.153 C 235.883 294.738,239.611 296.687,239.799 300.563 C 239.951 303.683,237.300 305.749,231.152 307.301 C 228.218 308.041,220.633 308.219,217.725 307.615 C 217.214 307.509,216.335 307.325,215.771 307.208 C 205.059 304.968,203.830 297.862,213.672 295.062 C 217.335 294.019,221.623 293.738,227.539 294.153 M235.352 324.897 C 233.791 325.152,233.293 325.276,231.341 325.890 C 228.428 326.808,225.792 328.744,222.991 332.020 C 221.492 333.774,221.026 334.367,218.270 338.016 C 213.246 344.669,210.707 346.500,209.038 344.675 C 207.217 342.683,207.799 338.554,210.625 333.398 C 212.718 329.582,213.561 327.717,213.349 327.377 C 212.932 326.708,211.970 326.544,205.176 325.977 C 203.079 325.803,200.916 325.577,197.754 325.204 C 193.746 324.730,193.903 324.729,193.169 325.230 C 192.060 325.986,191.542 326.923,190.999 329.150 C 190.901 329.553,190.740 330.212,190.642 330.615 C 190.544 331.018,190.206 332.358,189.891 333.594 C 188.090 340.655,188.017 345.545,189.651 349.707 C 189.735 349.922,189.916 350.405,190.053 350.781 C 192.286 356.908,201.247 361.262,210.792 360.858 C 213.519 360.743,215.990 360.366,216.843 359.936 C 217.030 359.843,217.325 359.766,217.500 359.766 C 217.913 359.766,221.036 358.200,222.143 357.439 C 224.190 356.031,226.848 353.214,230.078 349.029 C 235.770 341.656,241.378 341.698,239.438 349.098 C 239.322 349.541,239.136 350.254,239.024 350.684 C 238.762 351.697,238.485 352.535,238.244 353.047 C 237.630 354.353,238.373 354.815,241.541 355.100 C 242.810 355.214,244.507 355.386,245.313 355.482 C 254.237 356.546,257.144 355.190,258.314 349.414 C 258.692 347.552,258.612 340.775,258.191 338.937 C 257.569 336.224,257.364 335.622,256.396 333.691 C 254.090 329.090,250.422 326.428,244.441 325.013 C 242.911 324.651,237.291 324.580,235.352 324.897 M237.012 357.154 C 236.797 357.196,236.138 357.325,235.547 357.439 C 230.170 358.478,226.521 361.259,221.040 368.497 C 218.294 372.123,215.168 375.195,214.226 375.195 C 214.041 375.195,213.840 375.276,213.779 375.375 C 213.255 376.224,209.725 375.649,208.973 374.593 C 207.869 373.042,208.235 370.998,210.384 366.715 C 211.878 363.736,211.754 363.208,209.519 363.015 C 208.741 362.948,207.534 362.802,206.836 362.690 C 206.138 362.579,204.995 362.402,204.297 362.297 C 203.599 362.193,202.456 362.020,201.758 361.914 C 195.115 360.901,193.431 360.960,191.504 362.275 C 189.586 363.583,188.656 366.919,188.656 372.490 C 188.656 382.036,190.013 386.249,194.414 390.367 C 196.822 392.620,198.515 393.408,203.320 394.511 C 206.679 395.282,213.101 394.818,216.797 393.538 C 217.173 393.408,217.656 393.240,217.871 393.165 C 221.550 391.885,225.554 388.510,229.094 383.705 C 229.991 382.487,232.236 379.877,233.397 378.701 C 236.964 375.090,241.016 375.444,241.016 379.368 C 241.016 380.682,240.694 381.541,238.660 385.659 C 236.287 390.462,236.397 390.704,240.881 390.542 C 242.513 390.483,245.913 390.384,248.438 390.322 C 252.627 390.219,255.046 390.042,256.503 389.730 C 257.060 389.611,257.805 388.655,258.086 387.695 C 258.628 385.849,258.665 385.643,259.234 381.348 C 260.295 373.329,258.601 365.570,255.048 362.178 C 251.302 358.603,242.324 356.102,237.012 357.154 " stroke="none" fill="#000000" fill-rule="evenodd"/></g></svg>