<svg xmlns="http://www.w3.org/2000/svg" xmlns:xlink="http://www.w3.org/1999/xlink" version="1.1" style="shape-rendering:geometricPrecision; text-rendering:geometricPrecision; image-rendering:optimizeQuality; fill-rule:evenodd; clip-rule:evenodd" viewBox="51.5 2322.66 4907.4 363.34">
<g><path style="opacity:0.97" fill="#000000" d="M 3348.5,2323.5 C 3378.89,2321.2 3408.55,2324.7 3437.5,2334C 3480.81,2352.49 3508.14,2384.65 3519.5,2430.5C 3491.75,2436.45 3464.09,2442.78 3436.5,2449.5C 3421.02,2405.26 3390.35,2388.42 3344.5,2399C 3321.9,2407.61 3306.73,2423.44 3299,2446.5C 3289.28,2481.15 3287.95,2516.15 3295,2551.5C 3306.63,2598.73 3336.47,2618.57 3384.5,2611C 3406.82,2603.91 3422.32,2589.41 3431,2567.5C 3433.94,2559.67 3436.28,2551.67 3438,2543.5C 3438.56,2542.98 3439.23,2542.64 3440,2542.5C 3467.15,2550.94 3494.32,2559.27 3521.5,2567.5C 3505.77,2639.03 3461.44,2678.2 3388.5,2685C 3351.16,2688.57 3315.49,2682.57 3281.5,2667C 3238.56,2642.37 3212.4,2605.54 3203,2556.5C 3194.11,2511.02 3197.11,2466.35 3212,2422.5C 3232.18,2374 3267.68,2342.83 3318.5,2329C 3328.55,2326.67 3338.55,2324.83 3348.5,2323.5 Z"/></g>
<g><path style="opacity:0.974" fill="#000000" d="M 4078.5,2323.5 C 4113.85,2320.63 4148.18,2325.13 4181.5,2337C 4231.03,2358.82 4261.53,2396.32 4273,2449.5C 4283.07,2498.26 4279.41,2545.93 4262,2592.5C 4239.12,2642.37 4200.62,2672.2 4146.5,2682C 4108.7,2688.28 4071.36,2686.28 4034.5,2676C 3978.72,2655.88 3944.56,2616.71 3932,2558.5C 3923.42,2516.08 3925.09,2474.08 3937,2432.5C 3954.8,2380.04 3990.3,2345.87 4043.5,2330C 4055.19,2327.17 4066.85,2325 4078.5,2323.5 Z M 4093.5,2395.5 C 4137.71,2393 4166.54,2412.66 4180,2454.5C 4182.42,2463.36 4184.09,2472.36 4185,2481.5C 4186.85,2505.77 4185.19,2529.77 4180,2553.5C 4163.58,2598.89 4131.42,2618.05 4083.5,2611C 4055.3,2603.13 4036.46,2585.3 4027,2557.5C 4018.59,2526.5 4017.25,2495.17 4023,2463.5C 4030.84,2424.16 4054.34,2401.49 4093.5,2395.5 Z"/></g>
<g><path style="opacity:0.969" fill="#000000" d="M 4444.5,2323.5 C 4476.86,2321.07 4508.53,2324.57 4539.5,2334C 4582.53,2351.07 4604.87,2382.73 4606.5,2429C 4577.21,2431.23 4547.87,2433.06 4518.5,2434.5C 4515.84,2406.34 4500.51,2390.51 4472.5,2387C 4454.38,2384.49 4437.71,2388.15 4422.5,2398C 4413.7,2407.03 4412.2,2417.2 4418,2428.5C 4423.75,2434.63 4430.59,2439.13 4438.5,2442C 4467.3,2450.43 4496.3,2458.09 4525.5,2465C 4548.46,2471.48 4569.12,2482.14 4587.5,2497C 4611.25,2520.91 4621.08,2549.74 4617,2583.5C 4609.13,2631.04 4582.29,2662.2 4536.5,2677C 4494.34,2687.58 4452,2688.25 4409.5,2679C 4350.1,2663.38 4318.77,2624.88 4315.5,2563.5C 4344.81,2561.12 4374.14,2559.12 4403.5,2557.5C 4410.45,2603.5 4437.12,2623.66 4483.5,2618C 4498.37,2616.48 4510.87,2610.31 4521,2599.5C 4534.18,2576.76 4529.02,2559.59 4505.5,2548C 4497.64,2544.93 4489.64,2542.27 4481.5,2540C 4453.72,2533.89 4426.38,2526.22 4399.5,2517C 4339.36,2492.55 4317.86,2449.05 4335,2386.5C 4346.01,2363.82 4363.18,2347.66 4386.5,2338C 4405.25,2330.31 4424.58,2325.48 4444.5,2323.5 Z"/></g>
<g><path style="opacity:0.969" fill="#000000" d="M 4785.5,2323.5 C 4817.86,2321.07 4849.53,2324.57 4880.5,2334C 4923.53,2351.07 4945.87,2382.73 4947.5,2429C 4918.21,2431.23 4888.87,2433.06 4859.5,2434.5C 4856.84,2406.34 4841.51,2390.51 4813.5,2387C 4795.38,2384.49 4778.71,2388.15 4763.5,2398C 4754.7,2407.03 4753.2,2417.2 4759,2428.5C 4764.75,2434.63 4771.59,2439.13 4779.5,2442C 4808.3,2450.43 4837.3,2458.09 4866.5,2465C 4889.46,2471.48 4910.12,2482.14 4928.5,2497C 4952.25,2520.91 4962.08,2549.74 4958,2583.5C 4950.13,2631.04 4923.29,2662.2 4877.5,2677C 4835.34,2687.58 4793,2688.25 4750.5,2679C 4691.1,2663.38 4659.77,2624.88 4656.5,2563.5C 4685.81,2561.12 4715.14,2559.12 4744.5,2557.5C 4751.45,2603.5 4778.12,2623.66 4824.5,2618C 4839.37,2616.48 4851.87,2610.31 4862,2599.5C 4875.18,2576.76 4870.02,2559.59 4846.5,2548C 4838.64,2544.93 4830.64,2542.27 4822.5,2540C 4794.72,2533.89 4767.38,2526.22 4740.5,2517C 4680.36,2492.55 4658.86,2449.05 4676,2386.5C 4687.01,2363.82 4704.18,2347.66 4727.5,2338C 4746.25,2330.31 4765.58,2325.48 4785.5,2323.5 Z"/></g>
<g><path style="opacity:0.972" fill="#000000" d="M 51.5,2328.5 C 152.833,2328.5 254.167,2328.5 355.5,2328.5C 355.828,2353.41 355.494,2378.24 354.5,2403C 319.502,2403.5 284.502,2403.67 249.5,2403.5C 249.5,2495.5 249.5,2587.5 249.5,2679.5C 219.167,2679.5 188.833,2679.5 158.5,2679.5C 158.5,2587.5 158.5,2495.5 158.5,2403.5C 122.833,2403.5 87.1667,2403.5 51.5,2403.5C 51.5,2378.5 51.5,2353.5 51.5,2328.5 Z"/></g>
<g><path style="opacity:0.978" fill="#000000" d="M 402.5,2328.5 C 432.74,2328.17 462.907,2328.5 493,2329.5C 493.5,2372.83 493.667,2416.17 493.5,2459.5C 535.5,2459.5 577.5,2459.5 619.5,2459.5C 619.5,2415.83 619.5,2372.17 619.5,2328.5C 649.833,2328.5 680.167,2328.5 710.5,2328.5C 710.5,2445.5 710.5,2562.5 710.5,2679.5C 680.167,2679.5 649.833,2679.5 619.5,2679.5C 619.5,2630.83 619.5,2582.17 619.5,2533.5C 577.5,2533.5 535.5,2533.5 493.5,2533.5C 493.5,2582.17 493.5,2630.83 493.5,2679.5C 463.167,2679.5 432.833,2679.5 402.5,2679.5C 402.5,2562.5 402.5,2445.5 402.5,2328.5 Z"/></g>
<g><path style="opacity:0.973" fill="#000000" d="M 782.5,2328.5 C 874.5,2328.5 966.5,2328.5 1058.5,2328.5C 1058.5,2351.5 1058.5,2374.5 1058.5,2397.5C 996.833,2397.5 935.167,2397.5 873.5,2397.5C 873.5,2419.17 873.5,2440.83 873.5,2462.5C 930.833,2462.5 988.167,2462.5 1045.5,2462.5C 1045.5,2484.83 1045.5,2507.17 1045.5,2529.5C 988.167,2529.5 930.833,2529.5 873.5,2529.5C 873.5,2556.17 873.5,2582.83 873.5,2609.5C 937.167,2609.5 1000.83,2609.5 1064.5,2609.5C 1064.5,2632.83 1064.5,2656.17 1064.5,2679.5C 970.5,2679.5 876.5,2679.5 782.5,2679.5C 782.5,2562.5 782.5,2445.5 782.5,2328.5 Z"/></g>
<g><path style="opacity:0.978" fill="#000000" d="M 1274.5,2328.5 C 1304.74,2328.17 1334.91,2328.5 1365,2329.5C 1365.5,2372.83 1365.67,2416.17 1365.5,2459.5C 1407.5,2459.5 1449.5,2459.5 1491.5,2459.5C 1491.5,2415.83 1491.5,2372.17 1491.5,2328.5C 1521.83,2328.5 1552.17,2328.5 1582.5,2328.5C 1582.5,2445.5 1582.5,2562.5 1582.5,2679.5C 1552.17,2679.5 1521.83,2679.5 1491.5,2679.5C 1491.5,2630.83 1491.5,2582.17 1491.5,2533.5C 1449.5,2533.5 1407.5,2533.5 1365.5,2533.5C 1365.5,2582.17 1365.5,2630.83 1365.5,2679.5C 1335.17,2679.5 1304.83,2679.5 1274.5,2679.5C 1274.5,2562.5 1274.5,2445.5 1274.5,2328.5 Z"/></g>
<g><path style="opacity:0.973" fill="#000000" d="M 1653.5,2328.5 C 1745.5,2328.5 1837.5,2328.5 1929.5,2328.5C 1929.5,2351.5 1929.5,2374.5 1929.5,2397.5C 1867.83,2397.5 1806.17,2397.5 1744.5,2397.5C 1744.5,2419.17 1744.5,2440.83 1744.5,2462.5C 1801.83,2462.5 1859.17,2462.5 1916.5,2462.5C 1916.5,2484.83 1916.5,2507.17 1916.5,2529.5C 1859.17,2529.5 1801.83,2529.5 1744.5,2529.5C 1744.5,2556.17 1744.5,2582.83 1744.5,2609.5C 1808.17,2609.5 1871.83,2609.5 1935.5,2609.5C 1935.5,2632.83 1935.5,2656.17 1935.5,2679.5C 1841.5,2679.5 1747.5,2679.5 1653.5,2679.5C 1653.5,2562.5 1653.5,2445.5 1653.5,2328.5 Z"/></g>
<g><path style="opacity:0.973" fill="#000000" d="M 2091.5,2328.5 C 2124.41,2328.17 2157.24,2328.5 2190,2329.5C 2235.04,2445.74 2280.2,2561.9 2325.5,2678C 2309.31,2679.16 2292.98,2679.66 2276.5,2679.5C 2260.5,2679.17 2244.5,2678.83 2228.5,2678.5C 2220.59,2656.28 2212.59,2634.11 2204.5,2612C 2161.5,2611.33 2118.5,2611.33 2075.5,2612C 2067.83,2634.33 2060.17,2656.67 2052.5,2679C 2021.17,2679.5 1989.84,2679.67 1958.5,2679.5C 2002.63,2562.43 2046.97,2445.43 2091.5,2328.5 Z M 2139.5,2418.5 C 2153.86,2459.25 2167.86,2500.25 2181.5,2541.5C 2153.83,2542.83 2126.17,2542.83 2098.5,2541.5C 2112.37,2500.55 2126.04,2459.55 2139.5,2418.5 Z"/></g>
<g><path style="opacity:0.97" fill="#000000" d="M 2322.5,2328.5 C 2354.74,2328.17 2386.91,2328.5 2419,2329.5C 2446.33,2413.5 2473.67,2497.5 2501,2581.5C 2528.53,2497.42 2555.36,2413.08 2581.5,2328.5C 2646.17,2328.33 2710.83,2328.5 2775.5,2329C 2800.79,2371.08 2825.96,2413.25 2851,2455.5C 2875.71,2413.25 2900.54,2371.08 2925.5,2329C 2959.5,2328.5 2993.5,2328.33 3027.5,2328.5C 3025.89,2333.05 3023.73,2337.38 3021,2341.5C 2979.33,2405.17 2937.67,2468.83 2896,2532.5C 2895.5,2581.5 2895.33,2630.5 2895.5,2679.5C 2865.17,2679.5 2834.83,2679.5 2804.5,2679.5C 2804.67,2630.5 2804.5,2581.5 2804,2532.5C 2761,2466.17 2718,2399.83 2675,2333.5C 2632.8,2448.42 2590.8,2563.42 2549,2678.5C 2516.23,2679.83 2483.4,2679.83 2450.5,2678.5C 2407.23,2562.03 2364.57,2445.36 2322.5,2328.5 Z"/></g>
<g><path style="opacity:0.975" fill="#000000" d="M 3576.5,2328.5 C 3635.83,2328.33 3695.17,2328.5 3754.5,2329C 3778.82,2328.57 3802.49,2332.24 3825.5,2340C 3854.25,2353.09 3871.41,2375.26 3877,2406.5C 3884.85,2472.31 3856.35,2511.81 3791.5,2525C 3812.42,2534.55 3829.58,2548.72 3843,2567.5C 3865.18,2603.85 3886.34,2640.85 3906.5,2678.5C 3871.5,2679.67 3836.5,2679.83 3801.5,2679C 3781.87,2646.25 3762.37,2613.42 3743,2580.5C 3735.49,2568.33 3726.66,2557.17 3716.5,2547C 3708.63,2540.71 3699.63,2537.37 3689.5,2537C 3682.17,2536.5 3674.84,2536.33 3667.5,2536.5C 3667.5,2584.17 3667.5,2631.83 3667.5,2679.5C 3637.17,2679.5 3606.83,2679.5 3576.5,2679.5C 3576.5,2562.5 3576.5,2445.5 3576.5,2328.5 Z M 3667.5,2395.5 C 3689.84,2395.33 3712.17,2395.5 3734.5,2396C 3747.49,2395.81 3759.82,2398.47 3771.5,2404C 3781.38,2411.25 3786.38,2421.08 3786.5,2433.5C 3784.61,2455.56 3772.61,2468.06 3750.5,2471C 3743.19,2471.95 3735.86,2472.62 3728.5,2473C 3708.17,2473.5 3687.84,2473.67 3667.5,2473.5C 3667.5,2447.5 3667.5,2421.5 3667.5,2395.5 Z"/></g>
</svg>