<svg xmlns="http://www.w3.org/2000/svg" xmlns:xlink="http://www.w3.org/1999/xlink" version="1.1" style="shape-rendering:geometricPrecision; text-rendering:geometricPrecision; image-rendering:optimizeQuality; fill-rule:evenodd; clip-rule:evenodd" viewBox="41.5 2309.9 4918.13 369">
<g><path style="opacity:0.977" fill="#000000" d="M 3350.5,2310.5 C 3387.93,2307.68 3423.26,2314.85 3456.5,2332C 3489.28,2353.38 3509.78,2383.21 3518,2421.5C 3490.24,2428.94 3462.24,2435.61 3434,2441.5C 3432.83,2441.17 3431.67,2440.83 3430.5,2440.5C 3417.57,2399.69 3389.9,2382.86 3347.5,2390C 3326.67,2395.17 3311.5,2407.34 3302,2426.5C 3295.5,2441.16 3291.5,2456.49 3290,2472.5C 3289.13,2491.2 3289.46,2509.86 3291,2528.5C 3293.21,2546.81 3299.54,2563.48 3310,2578.5C 3329.52,2598.59 3353.02,2605.43 3380.5,2599C 3397.33,2594.83 3410.16,2585.33 3419,2570.5C 3425.9,2558.69 3430.57,2546.02 3433,2532.5C 3433.84,2531.38 3435.01,2530.71 3436.5,2530.5C 3464.45,2538.87 3492.28,2547.54 3520,2556.5C 3513.2,2598.61 3492.37,2631.78 3457.5,2656C 3438,2667.39 3417,2674.39 3394.5,2677C 3356.56,2681.94 3319.9,2677.27 3284.5,2663C 3242.96,2642.46 3215.46,2609.96 3202,2565.5C 3189.35,2518.5 3189.35,2471.5 3202,2424.5C 3219.59,2370.57 3255.43,2335.07 3309.5,2318C 3323.11,2314.4 3336.78,2311.9 3350.5,2310.5 Z"/></g>
<g><path style="opacity:0.981" fill="#000000" d="M 4082.5,2310.5 C 4119.23,2308.23 4154.56,2314.07 4188.5,2328C 4227.78,2347.29 4254.28,2377.79 4268,2419.5C 4281.99,2469.16 4281.99,2518.82 4268,2568.5C 4246.7,2630.46 4203.53,2666.29 4138.5,2676C 4098.55,2682.07 4059.55,2678.4 4021.5,2665C 3974.76,2645.05 3944.6,2610.55 3931,2561.5C 3919.4,2515.74 3919.74,2470.07 3932,2424.5C 3952.24,2363.26 3994.07,2326.43 4057.5,2314C 4065.97,2312.74 4074.3,2311.57 4082.5,2310.5 Z M 4087.5,2388.5 C 4133.56,2384.09 4163.4,2403.75 4177,2447.5C 4184.26,2478.49 4184.26,2509.49 4177,2540.5C 4165.56,2578.6 4139.89,2598.93 4100,2601.5C 4057.85,2597.7 4032.19,2575.03 4023,2533.5C 4018.73,2508.56 4018.4,2483.56 4022,2458.5C 4024.84,2441.98 4031.17,2426.98 4041,2413.5C 4053.53,2399.49 4069.03,2391.16 4087.5,2388.5 Z"/></g>
<g><path style="opacity:0.975" fill="#000000" d="M 4448.5,2310.5 C 4480.68,2308.61 4512.01,2312.77 4542.5,2323C 4585.45,2341.88 4606.79,2374.88 4606.5,2422C 4576.52,2424.13 4546.52,2425.47 4516.5,2426C 4512.33,2394.17 4494.17,2378.33 4462,2378.5C 4449.5,2378.66 4437.67,2381.5 4426.5,2387C 4414.29,2395.27 4411.79,2405.77 4419,2418.5C 4423.74,2423.12 4429.24,2426.62 4435.5,2429C 4461.83,2437.25 4488.5,2444.25 4515.5,2450C 4535.24,2455.13 4553.9,2462.8 4571.5,2473C 4609.37,2498.89 4624.54,2534.73 4617,2580.5C 4606.2,2628.97 4576.7,2659.47 4528.5,2672C 4488.51,2680.64 4448.51,2680.64 4408.5,2672C 4346.59,2655.68 4314.59,2615.51 4312.5,2551.5C 4341.87,2549.37 4371.2,2547.04 4400.5,2544.5C 4401.9,2544.87 4402.9,2545.7 4403.5,2547C 4410.91,2591.72 4437.25,2611.39 4482.5,2606C 4497.89,2604.22 4510.39,2597.39 4520,2585.5C 4530.09,2564.1 4524.26,2548.94 4502.5,2540C 4497.91,2538.14 4493.24,2536.47 4488.5,2535C 4461,2528.29 4433.66,2520.96 4406.5,2513C 4383.18,2505 4363.02,2492.16 4346,2474.5C 4326.8,2449.53 4320.47,2421.53 4327,2390.5C 4333.41,2366.16 4347.25,2347.33 4368.5,2334C 4393.51,2320.25 4420.18,2312.42 4448.5,2310.5 Z"/></g>
<g><path style="opacity:0.975" fill="#000000" d="M 4789.5,2310.5 C 4816.19,2309.36 4842.53,2311.86 4868.5,2318C 4920.22,2333.39 4946.55,2368.05 4947.5,2422C 4917.29,2424.29 4887.12,2425.46 4857,2425.5C 4852.84,2393.66 4834.68,2378 4802.5,2378.5C 4788.76,2378.29 4776.09,2381.79 4764.5,2389C 4752,2401.46 4752.66,2413.12 4766.5,2424C 4775.44,2428.65 4784.77,2432.31 4794.5,2435C 4817.54,2440.51 4840.54,2446.18 4863.5,2452C 4893.3,2459.31 4918.47,2474.14 4939,2496.5C 4955.17,2518.85 4961.84,2543.85 4959,2571.5C 4952.33,2620.17 4925.83,2652.67 4879.5,2669C 4835.03,2680.93 4790.36,2681.6 4745.5,2671C 4685.8,2653.65 4655.14,2613.98 4653.5,2552C 4682.84,2549.36 4712.17,2546.86 4741.5,2544.5C 4743.17,2544.83 4744.17,2545.83 4744.5,2547.5C 4751.98,2592.26 4778.31,2611.76 4823.5,2606C 4834.63,2604.74 4844.63,2600.74 4853.5,2594C 4866.41,2582.01 4868.91,2568.18 4861,2552.5C 4853.12,2544.31 4843.62,2538.81 4832.5,2536C 4802.99,2528.62 4773.66,2520.62 4744.5,2512C 4721.79,2503.94 4702.29,2491.11 4686,2473.5C 4664.06,2442.95 4659.72,2409.95 4673,2374.5C 4684.01,2351.82 4701.18,2335.66 4724.5,2326C 4745.5,2317.5 4767.17,2312.33 4789.5,2310.5 Z"/></g>
<g><path style="opacity:0.984" fill="#000000" d="M 42.5,2316.5 C 144.834,2316.33 247.167,2316.5 349.5,2317C 350.833,2343 350.833,2369 349.5,2395C 314.168,2395.5 278.835,2395.67 243.5,2395.5C 243.667,2487.5 243.5,2579.5 243,2671.5C 211.573,2672.5 180.073,2672.83 148.5,2672.5C 148.5,2580.17 148.5,2487.83 148.5,2395.5C 113.165,2395.67 77.8318,2395.5 42.5,2395C 41.171,2368.83 41.171,2342.67 42.5,2316.5 Z"/></g>
<g><path style="opacity:0.983" fill="#000000" d="M 393.5,2316.5 C 424.84,2316.17 456.174,2316.5 487.5,2317.5C 488.494,2360.46 488.828,2403.46 488.5,2446.5C 529.167,2446.5 569.833,2446.5 610.5,2446.5C 610.333,2403.5 610.5,2360.5 611,2317.5C 642.333,2316.17 673.667,2316.17 705,2317.5C 705.5,2435.83 705.667,2554.17 705.5,2672.5C 673.927,2672.83 642.427,2672.5 611,2671.5C 610.5,2622.83 610.333,2574.17 610.5,2525.5C 569.833,2525.5 529.167,2525.5 488.5,2525.5C 488.828,2574.21 488.495,2622.88 487.5,2671.5C 455.934,2672.83 424.434,2672.83 393,2671.5C 392.171,2553.13 392.337,2434.79 393.5,2316.5 Z"/></g>
<g><path style="opacity:0.982" fill="#000000" d="M 774.5,2316.5 C 867.502,2316.17 960.502,2316.5 1053.5,2317.5C 1054.66,2340.79 1054.82,2364.12 1054,2387.5C 1053.63,2388.42 1053.13,2389.25 1052.5,2390C 991.168,2390.5 929.834,2390.67 868.5,2390.5C 868.5,2410.5 868.5,2430.5 868.5,2450.5C 925.833,2450.5 983.167,2450.5 1040.5,2450.5C 1040.5,2474.17 1040.5,2497.83 1040.5,2521.5C 983.167,2521.5 925.833,2521.5 868.5,2521.5C 868.5,2546.83 868.5,2572.17 868.5,2597.5C 932.167,2597.5 995.833,2597.5 1059.5,2597.5C 1059.5,2622.5 1059.5,2647.5 1059.5,2672.5C 964.263,2672.83 869.096,2672.5 774,2671.5C 773.169,2553.1 773.336,2434.76 774.5,2316.5 Z"/></g>
<g><path style="opacity:0.987" fill="#000000" d="M 1266.5,2316.5 C 1297.74,2316.17 1328.91,2316.5 1360,2317.5C 1360.5,2360.5 1360.67,2403.5 1360.5,2446.5C 1401.5,2446.5 1442.5,2446.5 1483.5,2446.5C 1483.33,2403.5 1483.5,2360.5 1484,2317.5C 1515.09,2316.34 1546.26,2316.17 1577.5,2317C 1578.67,2435.1 1578.83,2553.26 1578,2671.5C 1546.57,2672.5 1515.07,2672.83 1483.5,2672.5C 1483.5,2623.5 1483.5,2574.5 1483.5,2525.5C 1442.5,2525.5 1401.5,2525.5 1360.5,2525.5C 1360.67,2574.17 1360.5,2622.83 1360,2671.5C 1328.67,2672.83 1297.33,2672.83 1266,2671.5C 1265.17,2553.1 1265.34,2434.76 1266.5,2316.5 Z"/></g>
<g><path style="opacity:0.983" fill="#000000" d="M 1647.5,2316.5 C 1740.17,2316.33 1832.83,2316.5 1925.5,2317C 1926.16,2329.09 1926.5,2341.26 1926.5,2353.5C 1926.49,2365.89 1925.82,2378.06 1924.5,2390C 1863.5,2390.5 1802.5,2390.67 1741.5,2390.5C 1741.5,2410.5 1741.5,2430.5 1741.5,2450.5C 1798.5,2450.33 1855.5,2450.5 1912.5,2451C 1913.16,2462.59 1913.5,2474.26 1913.5,2486C 1913.5,2497.74 1913.16,2509.41 1912.5,2521C 1855.5,2521.5 1798.5,2521.67 1741.5,2521.5C 1741.5,2546.83 1741.5,2572.17 1741.5,2597.5C 1805.07,2597.17 1868.57,2597.5 1932,2598.5C 1932.83,2623.07 1932.66,2647.57 1931.5,2672C 1836.83,2672.67 1742.17,2672.67 1647.5,2672C 1646.17,2553.5 1646.17,2435 1647.5,2316.5 Z"/></g>
<g><path style="opacity:0.982" fill="#000000" d="M 2085.5,2316.5 C 2118.83,2316.33 2152.17,2316.5 2185.5,2317C 2230.38,2430.96 2274.88,2545.13 2319,2659.5C 2320.65,2663.43 2321.65,2667.43 2322,2671.5C 2288.9,2672.66 2255.74,2672.83 2222.5,2672C 2214.41,2649.89 2206.41,2627.72 2198.5,2605.5C 2156.17,2604.33 2113.84,2604.17 2071.5,2605C 2063.83,2627.33 2056.17,2649.67 2048.5,2672C 2016.17,2672.5 1983.84,2672.67 1951.5,2672.5C 1951.3,2669.06 1951.8,2665.73 1953,2662.5C 1996.91,2547.03 2041.07,2431.7 2085.5,2316.5 Z M 2134.5,2415.5 C 2147.86,2453.25 2160.86,2491.25 2173.5,2529.5C 2147.84,2530.5 2122.18,2530.83 2096.5,2530.5C 2108.77,2492.03 2121.44,2453.69 2134.5,2415.5 Z"/></g>
<g><path style="opacity:0.981" fill="#000000" d="M 2317.5,2316.5 C 2350.17,2316.33 2382.84,2316.5 2415.5,2317C 2416,2317.5 2416.5,2318 2417,2318.5C 2443.54,2400.62 2470.37,2482.62 2497.5,2564.5C 2524.03,2482.25 2550.36,2399.92 2576.5,2317.5C 2641.83,2316.33 2707.16,2316.17 2772.5,2317C 2797.96,2358.09 2822.8,2399.59 2847,2441.5C 2871.37,2399.92 2895.87,2358.42 2920.5,2317C 2955.5,2316.33 2990.5,2316.33 3025.5,2317C 3026.55,2318.39 3026.72,2319.89 3026,2321.5C 2982.25,2389.34 2938.25,2457 2894,2524.5C 2893.5,2573.83 2893.33,2623.17 2893.5,2672.5C 2861.93,2672.83 2830.43,2672.5 2799,2671.5C 2798.67,2621.83 2798.33,2572.17 2798,2522.5C 2755.82,2458.13 2713.65,2393.8 2671.5,2329.5C 2629.84,2443.49 2588.17,2557.49 2546.5,2671.5C 2512.84,2672.67 2479.17,2672.83 2445.5,2672C 2401.91,2554.9 2358.91,2437.57 2316.5,2320C 2316.65,2318.74 2316.98,2317.58 2317.5,2316.5 Z"/></g>
<g><path style="opacity:0.983" fill="#000000" d="M 3573.5,2316.5 C 3642.85,2316.04 3712.18,2316.54 3781.5,2318C 3850.64,2325.39 3882.81,2363.89 3878,2433.5C 3873.2,2468.64 3854.7,2493.47 3822.5,2508C 3814.53,2510.93 3806.53,2513.77 3798.5,2516.5C 3818.05,2528.22 3834.22,2543.55 3847,2562.5C 3866.84,2596.17 3886.17,2630.17 3905,2664.5C 3906.25,2667.01 3906.75,2669.68 3906.5,2672.5C 3870.5,2672.67 3834.5,2672.5 3798.5,2672C 3779.29,2640.41 3760.46,2608.58 3742,2576.5C 3733.72,2561.55 3723.22,2548.39 3710.5,2537C 3704.42,2532.96 3697.76,2530.63 3690.5,2530C 3682.84,2529.5 3675.17,2529.33 3667.5,2529.5C 3667.67,2576.83 3667.5,2624.17 3667,2671.5C 3635.57,2672.5 3604.07,2672.83 3572.5,2672.5C 3572.17,2553.76 3572.5,2435.1 3573.5,2316.5 Z M 3667.5,2388.5 C 3692.5,2388.33 3717.5,2388.5 3742.5,2389C 3777.76,2392.24 3789.26,2410.41 3777,2443.5C 3766.91,2454.29 3754.41,2459.79 3739.5,2460C 3715.5,2460.5 3691.5,2460.67 3667.5,2460.5C 3667.5,2436.5 3667.5,2412.5 3667.5,2388.5 Z"/></g>
</svg>