<svg xmlns="http://www.w3.org/2000/svg" xmlns:xlink="http://www.w3.org/1999/xlink" version="1.1" style="shape-rendering:geometricPrecision; text-rendering:geometricPrecision; image-rendering:optimizeQuality; fill-rule:evenodd; clip-rule:evenodd" viewBox="23.5 17.16 2766.92 340.4">
<g><path style="opacity:1" fill="#040404" d="M 1973.5,130.5 C 1966.5,130.5 1959.5,130.5 1952.5,130.5C 1952.83,121.318 1952.49,112.318 1951.5,103.5C 1951.48,85.8739 1946.98,69.5406 1938,54.5C 1925.21,39.2834 1910.05,36.4501 1892.5,46C 1883.42,55.3223 1877.92,66.489 1876,79.5C 1873.94,91.4182 1872.6,103.418 1872,115.5C 1871.33,163.5 1871.33,211.5 1872,259.5C 1872.49,277.284 1875.49,294.618 1881,311.5C 1889.46,331.647 1904.3,338.813 1925.5,333C 1933.73,330.3 1939.9,325.133 1944,317.5C 1951.02,304.056 1954.36,289.722 1954,274.5C 1954.5,261.838 1954.67,249.171 1954.5,236.5C 1962.17,236.5 1969.83,236.5 1977.5,236.5C 1977.67,253.837 1977.5,271.17 1977,288.5C 1970.1,338.713 1941.27,361.546 1890.5,357C 1866.43,353.587 1848.26,341.42 1836,320.5C 1823.95,297.689 1817.62,273.356 1817,247.5C 1816.07,203.481 1816.4,159.481 1818,115.5C 1819.95,88.9772 1828.62,64.9772 1844,43.5C 1865.42,20.2651 1891.58,12.4317 1922.5,20C 1938.96,24.7935 1950.79,34.9601 1958,50.5C 1962.21,39.9089 1964.04,28.9089 1963.5,17.5C 1966.83,17.5 1970.17,17.5 1973.5,17.5C 1973.5,55.1667 1973.5,92.8333 1973.5,130.5 Z"/></g>
<g><path style="opacity:1" fill="#040404" d="M 2308.5,17.5 C 2343.27,14.7992 2369.77,28.1325 2388,57.5C 2399.95,79.9809 2406.29,103.981 2407,129.5C 2407.67,168.5 2407.67,207.5 2407,246.5C 2406.13,271.664 2399.79,295.33 2388,317.5C 2364.76,353.03 2332.59,364.863 2291.5,353C 2272.74,345.703 2258.57,333.203 2249,315.5C 2237.93,293.511 2231.93,270.178 2231,245.5C 2230.33,206.833 2230.33,168.167 2231,129.5C 2231.7,102.665 2238.7,77.6652 2252,54.5C 2265.35,33.7436 2284.19,21.4102 2308.5,17.5 Z M 2317.5,38.5 C 2330.07,39.2271 2338.57,45.5604 2343,57.5C 2348.7,75.7135 2351.7,94.3802 2352,113.5C 2352.67,162.5 2352.67,211.5 2352,260.5C 2351.7,279.621 2348.7,298.288 2343,316.5C 2334.58,336.737 2321.24,341.07 2303,329.5C 2296.88,321.498 2292.88,312.498 2291,302.5C 2288.15,288.646 2286.48,274.646 2286,260.5C 2285.33,211.833 2285.33,163.167 2286,114.5C 2286.3,95.3802 2289.3,76.7135 2295,58.5C 2298.69,47.2947 2306.19,40.628 2317.5,38.5 Z"/></g>
<g><path style="opacity:1" fill="#040404" d="M 2438.5,357.5 C 2438.5,317.833 2438.5,278.167 2438.5,238.5C 2445.83,238.5 2453.17,238.5 2460.5,238.5C 2459.71,257.776 2461.55,276.776 2466,295.5C 2475.45,325.307 2495.61,338.474 2526.5,335C 2539.5,330.664 2547.67,321.83 2551,308.5C 2553.43,294.271 2554.1,279.937 2553,265.5C 2549.95,248.104 2541.45,233.937 2527.5,223C 2511.17,210.667 2494.83,198.333 2478.5,186C 2445.91,158.257 2433.08,123.09 2440,80.5C 2446.19,39.4803 2470.02,18.4803 2511.5,17.5C 2536.6,16.2347 2556.1,25.9014 2570,46.5C 2575.15,37.5653 2577.65,27.8987 2577.5,17.5C 2581.17,17.5 2584.83,17.5 2588.5,17.5C 2588.5,53.5 2588.5,89.5 2588.5,125.5C 2581.17,125.5 2573.83,125.5 2566.5,125.5C 2567.41,106.769 2565.24,88.4359 2560,70.5C 2550.63,47.0691 2533.47,36.9024 2508.5,40C 2497.23,45.2815 2490.4,54.1148 2488,66.5C 2487.33,78.1667 2487.33,89.8333 2488,101.5C 2489.85,111.197 2493.85,119.864 2500,127.5C 2515.44,143.291 2532.61,156.791 2551.5,168C 2563.59,176.757 2574.43,186.924 2584,198.5C 2592.33,209.505 2597.67,221.838 2600,235.5C 2602.61,257.686 2601.61,279.686 2597,301.5C 2584.52,338.465 2558.68,357.131 2519.5,357.5C 2492.46,357.814 2471.46,346.814 2456.5,324.5C 2450.35,334.591 2447.35,345.591 2447.5,357.5C 2444.5,357.5 2441.5,357.5 2438.5,357.5 Z"/></g>
<g><path style="opacity:1" fill="#040404" d="M 2627.5,357.5 C 2627.5,317.833 2627.5,278.167 2627.5,238.5C 2634.83,238.5 2642.17,238.5 2649.5,238.5C 2648.71,257.776 2650.55,276.776 2655,295.5C 2664.45,325.307 2684.61,338.474 2715.5,335C 2728.5,330.664 2736.67,321.83 2740,308.5C 2742.43,294.271 2743.1,279.937 2742,265.5C 2738.95,248.104 2730.45,233.937 2716.5,223C 2700.17,210.667 2683.83,198.333 2667.5,186C 2634.91,158.257 2622.08,123.09 2629,80.5C 2635.19,39.4803 2659.02,18.4803 2700.5,17.5C 2725.6,16.2347 2745.1,25.9014 2759,46.5C 2764.15,37.5653 2766.65,27.8987 2766.5,17.5C 2770.17,17.5 2773.83,17.5 2777.5,17.5C 2777.5,53.5 2777.5,89.5 2777.5,125.5C 2770.17,125.5 2762.83,125.5 2755.5,125.5C 2756.41,106.769 2754.24,88.4359 2749,70.5C 2739.63,47.0691 2722.47,36.9024 2697.5,40C 2686.23,45.2815 2679.4,54.1148 2677,66.5C 2676.33,78.1667 2676.33,89.8333 2677,101.5C 2678.85,111.197 2682.85,119.864 2689,127.5C 2704.44,143.291 2721.61,156.791 2740.5,168C 2752.59,176.757 2763.43,186.924 2773,198.5C 2781.33,209.505 2786.67,221.838 2789,235.5C 2791.61,257.686 2790.61,279.686 2786,301.5C 2773.52,338.465 2747.68,357.131 2708.5,357.5C 2681.46,357.814 2660.46,346.814 2645.5,324.5C 2639.35,334.591 2636.35,345.591 2636.5,357.5C 2633.5,357.5 2630.5,357.5 2627.5,357.5 Z"/></g>
<g><path style="opacity:1" fill="#030303" d="M 1209.5,20.5 C 1223.58,19.8616 1237.41,20.5283 1251,22.5C 1273,123.833 1295,225.167 1317,326.5C 1320.19,336.526 1327.02,341.86 1337.5,342.5C 1337.5,345.833 1337.5,349.167 1337.5,352.5C 1305.17,352.5 1272.83,352.5 1240.5,352.5C 1240.5,349.167 1240.5,345.833 1240.5,342.5C 1257.6,344.558 1263.77,337.225 1259,320.5C 1255.33,298.5 1251.67,276.5 1248,254.5C 1237.74,253.839 1227.41,253.506 1217,253.5C 1206.44,253.512 1196.11,254.179 1186,255.5C 1182.67,276.833 1179.33,298.167 1176,319.5C 1172.12,335.791 1178.62,343.457 1195.5,342.5C 1195.5,345.833 1195.5,349.167 1195.5,352.5C 1171.17,352.5 1146.83,352.5 1122.5,352.5C 1122.5,349.167 1122.5,345.833 1122.5,342.5C 1134.17,342.918 1142.34,337.918 1147,327.5C 1168.16,225.219 1188.99,122.886 1209.5,20.5 Z M 1216.5,83.5 C 1226.02,132.278 1235.02,181.278 1243.5,230.5C 1225.83,230.5 1208.17,230.5 1190.5,230.5C 1199.27,181.521 1207.94,132.521 1216.5,83.5 Z"/></g>
<g><path style="opacity:1" fill="#030303" d="M 204.5,23.5 C 204.5,50.1667 204.5,76.8333 204.5,103.5C 201.5,103.5 198.5,103.5 195.5,103.5C 194.519,86.5591 189.686,70.8924 181,56.5C 176.849,51.6834 171.682,48.5167 165.5,47C 157.561,45.6785 149.561,45.1785 141.5,45.5C 141.333,140.834 141.5,236.167 142,331.5C 142.824,337.657 146.324,341.157 152.5,342C 157.155,342.499 161.821,342.666 166.5,342.5C 166.5,345.833 166.5,349.167 166.5,352.5C 131.833,352.5 97.1667,352.5 62.5,352.5C 62.2161,349.223 62.5495,346.057 63.5,343C 69.2306,342.79 74.8973,342.124 80.5,341C 83.7559,339.413 85.9226,336.913 87,333.5C 87.5,237.501 87.6667,141.501 87.5,45.5C 60.6203,41.2468 44.1203,52.2468 38,78.5C 35.789,87.0539 34.289,95.7205 33.5,104.5C 30.1667,104.5 26.8333,104.5 23.5,104.5C 23.5,77.5 23.5,50.5 23.5,23.5C 83.8333,23.5 144.167,23.5 204.5,23.5 Z"/></g>
<g><path style="opacity:1" fill="#383838" d="M 204.5,23.5 C 205.498,50.3282 205.831,77.3282 205.5,104.5C 201.958,104.813 198.625,104.479 195.5,103.5C 198.5,103.5 201.5,103.5 204.5,103.5C 204.5,76.8333 204.5,50.1667 204.5,23.5 Z"/></g>
<g><path style="opacity:1" fill="#020202" d="M 218.5,23.5 C 249.167,23.5 279.833,23.5 310.5,23.5C 310.5,26.8333 310.5,30.1667 310.5,33.5C 305.551,32.9589 300.884,33.7922 296.5,36C 295.044,38.2658 294.21,40.7658 294,43.5C 293.5,85.832 293.333,128.165 293.5,170.5C 312.5,170.5 331.5,170.5 350.5,170.5C 350.667,128.832 350.5,87.1653 350,45.5C 349.228,35.3409 343.728,31.3409 333.5,33.5C 333.5,30.1667 333.5,26.8333 333.5,23.5C 364.167,23.5 394.833,23.5 425.5,23.5C 425.5,26.8333 425.5,30.1667 425.5,33.5C 420.401,33.1746 415.401,33.6746 410.5,35C 407.572,36.2598 405.739,38.4265 405,41.5C 403.853,90.3093 403.353,139.143 403.5,188C 403.353,236.857 403.853,285.691 405,334.5C 405.739,337.573 407.572,339.74 410.5,341C 415.401,342.325 420.401,342.825 425.5,342.5C 425.5,345.833 425.5,349.167 425.5,352.5C 394.833,352.5 364.167,352.5 333.5,352.5C 333.5,349.167 333.5,345.833 333.5,342.5C 343.728,344.659 349.228,340.659 350,330.5C 350.5,284.835 350.667,239.168 350.5,193.5C 331.5,193.5 312.5,193.5 293.5,193.5C 293.333,239.835 293.5,286.168 294,332.5C 293.83,337.341 295.996,340.508 300.5,342C 303.817,342.498 307.15,342.665 310.5,342.5C 310.5,345.833 310.5,349.167 310.5,352.5C 279.833,352.5 249.167,352.5 218.5,352.5C 218.5,349.167 218.5,345.833 218.5,342.5C 223.58,342.75 228.58,342.25 233.5,341C 236.381,339.749 238.214,337.583 239,334.5C 239.667,236.833 239.667,139.167 239,41.5C 238.214,38.4173 236.381,36.2506 233.5,35C 228.58,33.7497 223.58,33.2497 218.5,33.5C 218.5,30.1667 218.5,26.8333 218.5,23.5 Z"/></g>
<g><path style="opacity:1" fill="#040404" d="M 440.5,23.5 C 496.167,23.5 551.833,23.5 607.5,23.5C 607.5,50.8333 607.5,78.1667 607.5,105.5C 603.833,105.5 600.167,105.5 596.5,105.5C 595.868,90.1069 591.701,75.7736 584,62.5C 577.288,53.0546 568.121,47.5546 556.5,46C 545.833,45.3333 535.167,45.3333 524.5,46C 519.772,47.3956 517.272,50.5623 517,55.5C 516.5,93.8319 516.333,132.165 516.5,170.5C 523.841,170.666 531.174,170.5 538.5,170C 546.452,168.447 551.952,163.947 555,156.5C 556.573,150.904 557.74,145.238 558.5,139.5C 561.768,138.513 565.102,138.18 568.5,138.5C 568.5,167.833 568.5,197.167 568.5,226.5C 565.223,226.784 562.057,226.451 559,225.5C 558.203,219.048 556.869,212.715 555,206.5C 551.069,198.445 544.569,194.278 535.5,194C 529.175,193.5 522.842,193.334 516.5,193.5C 516.333,235.835 516.5,278.168 517,320.5C 517.376,325.876 520.21,329.042 525.5,330C 535.833,330.667 546.167,330.667 556.5,330C 576.287,326.852 589.12,315.686 595,296.5C 598.055,287.059 599.888,277.392 600.5,267.5C 603.833,267.5 607.167,267.5 610.5,267.5C 610.5,295.833 610.5,324.167 610.5,352.5C 553.5,352.5 496.5,352.5 439.5,352.5C 439.5,349.167 439.5,345.833 439.5,342.5C 446.549,343.282 453.216,342.115 459.5,339C 460.46,337.581 461.293,336.081 462,334.5C 462.667,236.833 462.667,139.167 462,41.5C 461.214,38.4173 459.381,36.2506 456.5,35C 451.246,33.7288 445.913,33.2288 440.5,33.5C 440.5,30.1667 440.5,26.8333 440.5,23.5 Z"/></g>
<g><path style="opacity:1" fill="#020202" d="M 721.5,23.5 C 752.167,23.5 782.833,23.5 813.5,23.5C 813.5,26.8333 813.5,30.1667 813.5,33.5C 808.551,32.9589 803.884,33.7922 799.5,36C 798.044,38.2658 797.21,40.7658 797,43.5C 796.5,85.832 796.333,128.165 796.5,170.5C 815.5,170.5 834.5,170.5 853.5,170.5C 853.667,128.832 853.5,87.1653 853,45.5C 852.228,35.3409 846.728,31.3409 836.5,33.5C 836.5,30.1667 836.5,26.8333 836.5,23.5C 867.167,23.5 897.833,23.5 928.5,23.5C 928.5,26.8333 928.5,30.1667 928.5,33.5C 923.401,33.1746 918.401,33.6746 913.5,35C 910.572,36.2598 908.739,38.4265 908,41.5C 906.853,90.3093 906.353,139.143 906.5,188C 906.353,236.857 906.853,285.691 908,334.5C 908.739,337.573 910.572,339.74 913.5,341C 918.401,342.325 923.401,342.825 928.5,342.5C 928.5,345.833 928.5,349.167 928.5,352.5C 897.833,352.5 867.167,352.5 836.5,352.5C 836.5,349.167 836.5,345.833 836.5,342.5C 846.728,344.659 852.228,340.659 853,330.5C 853.5,284.835 853.667,239.168 853.5,193.5C 834.5,193.5 815.5,193.5 796.5,193.5C 796.333,239.835 796.5,286.168 797,332.5C 796.83,337.341 798.996,340.508 803.5,342C 806.817,342.498 810.15,342.665 813.5,342.5C 813.5,345.833 813.5,349.167 813.5,352.5C 782.833,352.5 752.167,352.5 721.5,352.5C 721.5,349.167 721.5,345.833 721.5,342.5C 726.58,342.75 731.58,342.25 736.5,341C 739.381,339.749 741.214,337.583 742,334.5C 742.667,236.833 742.667,139.167 742,41.5C 741.214,38.4173 739.381,36.2506 736.5,35C 731.58,33.7497 726.58,33.2497 721.5,33.5C 721.5,30.1667 721.5,26.8333 721.5,23.5 Z"/></g>
<g><path style="opacity:1" fill="#040404" d="M 943.5,23.5 C 999.167,23.5 1054.83,23.5 1110.5,23.5C 1110.5,50.8333 1110.5,78.1667 1110.5,105.5C 1106.83,105.5 1103.17,105.5 1099.5,105.5C 1098.87,90.1069 1094.7,75.7736 1087,62.5C 1080.29,53.0546 1071.12,47.5546 1059.5,46C 1048.83,45.3333 1038.17,45.3333 1027.5,46C 1022.77,47.3956 1020.27,50.5623 1020,55.5C 1019.5,93.8319 1019.33,132.165 1019.5,170.5C 1026.84,170.666 1034.17,170.5 1041.5,170C 1049.45,168.447 1054.95,163.947 1058,156.5C 1059.57,150.904 1060.74,145.238 1061.5,139.5C 1064.77,138.513 1068.1,138.18 1071.5,138.5C 1071.5,167.833 1071.5,197.167 1071.5,226.5C 1068.22,226.784 1065.06,226.451 1062,225.5C 1061.2,219.048 1059.87,212.715 1058,206.5C 1054.07,198.445 1047.57,194.278 1038.5,194C 1032.18,193.5 1025.84,193.334 1019.5,193.5C 1019.33,235.835 1019.5,278.168 1020,320.5C 1020.38,325.876 1023.21,329.042 1028.5,330C 1038.83,330.667 1049.17,330.667 1059.5,330C 1079.29,326.852 1092.12,315.686 1098,296.5C 1101.05,287.059 1102.89,277.392 1103.5,267.5C 1106.83,267.5 1110.17,267.5 1113.5,267.5C 1113.5,295.833 1113.5,324.167 1113.5,352.5C 1056.5,352.5 999.5,352.5 942.5,352.5C 942.5,349.167 942.5,345.833 942.5,342.5C 949.549,343.282 956.216,342.115 962.5,339C 963.46,337.581 964.293,336.081 965,334.5C 965.667,236.833 965.667,139.167 965,41.5C 964.214,38.4173 962.381,36.2506 959.5,35C 954.246,33.7288 948.913,33.2288 943.5,33.5C 943.5,30.1667 943.5,26.8333 943.5,23.5 Z"/></g>
<g><path style="opacity:1" fill="#040404" d="M 1311.5,23.5 C 1343.17,23.5 1374.83,23.5 1406.5,23.5C 1406.79,27.1064 1406.46,30.6064 1405.5,34C 1390.24,33.958 1384.74,41.458 1389,56.5C 1399.89,121.519 1410.89,186.519 1422,251.5C 1423.83,264.813 1425.5,278.146 1427,291.5C 1427.8,282.477 1428.8,273.477 1430,264.5C 1442.21,192.39 1454.05,120.224 1465.5,48C 1465.99,42.3035 1463.65,38.3035 1458.5,36C 1454.63,35.1638 1450.79,34.3305 1447,33.5C 1446.5,30.1832 1446.33,26.8499 1446.5,23.5C 1468.5,23.5 1490.5,23.5 1512.5,23.5C 1512.67,26.8499 1512.5,30.1832 1512,33.5C 1500.12,35.042 1493.12,41.7087 1491,53.5C 1471.43,153.167 1451.93,252.834 1432.5,352.5C 1419.5,352.5 1406.5,352.5 1393.5,352.5C 1373.32,251.785 1352.82,151.118 1332,50.5C 1328.71,40.8812 1322.05,35.2145 1312,33.5C 1311.5,30.1832 1311.33,26.8499 1311.5,23.5 Z"/></g>
<g><path style="opacity:1" fill="#040404" d="M 1517.5,23.5 C 1548.17,23.5 1578.83,23.5 1609.5,23.5C 1609.5,26.8333 1609.5,30.1667 1609.5,33.5C 1600.13,32.7243 1594.79,36.8909 1593.5,46C 1604.63,91.6891 1616.46,137.189 1629,182.5C 1640.49,138.871 1651.82,95.2047 1663,51.5C 1664.75,39.0777 1659.25,33.0777 1646.5,33.5C 1646.5,30.1667 1646.5,26.8333 1646.5,23.5C 1668.17,23.5 1689.83,23.5 1711.5,23.5C 1711.5,26.8333 1711.5,30.1667 1711.5,33.5C 1702.35,33.3193 1695.85,37.3193 1692,45.5C 1675.51,99.7874 1659.18,154.121 1643,208.5C 1642.33,250.167 1642.33,291.833 1643,333.5C 1644.08,336.913 1646.24,339.413 1649.5,341C 1655.09,342.289 1660.76,342.789 1666.5,342.5C 1666.5,345.833 1666.5,349.167 1666.5,352.5C 1632.17,352.5 1597.83,352.5 1563.5,352.5C 1563.5,349.167 1563.5,345.833 1563.5,342.5C 1571.14,343.367 1578.31,342.034 1585,338.5C 1586.56,336.043 1587.56,333.376 1588,330.5C 1588.67,291.167 1588.67,251.833 1588,212.5C 1570.51,156.88 1553.18,101.213 1536,45.5C 1532.45,37.6326 1526.28,33.6326 1517.5,33.5C 1517.5,30.1667 1517.5,26.8333 1517.5,23.5 Z"/></g>
<g><path style="opacity:1" fill="#030303" d="M 2122.5,182.5 C 2121.32,182.281 2120.32,182.614 2119.5,183.5C 2119.96,184.298 2120.62,184.631 2121.5,184.5C 2155.06,191.909 2173.23,212.909 2176,247.5C 2176.33,270.5 2176.67,293.5 2177,316.5C 2177.03,322.925 2179.19,328.425 2183.5,333C 2190.99,333.187 2195.16,329.353 2196,321.5C 2196.89,313.855 2197.39,306.189 2197.5,298.5C 2201.17,298.5 2204.83,298.5 2208.5,298.5C 2208.83,309.993 2207.67,321.327 2205,332.5C 2198.65,349.488 2186.32,357.821 2168,357.5C 2144.37,356.212 2130.37,343.879 2126,320.5C 2124.73,290.527 2124.07,260.527 2124,230.5C 2122.84,201.186 2107.67,188.852 2078.5,193.5C 2078.33,239.501 2078.5,285.501 2079,331.5C 2079.36,337.063 2082.19,340.563 2087.5,342C 2090.82,342.498 2094.15,342.665 2097.5,342.5C 2097.5,345.833 2097.5,349.167 2097.5,352.5C 2065.83,352.5 2034.17,352.5 2002.5,352.5C 2002.5,349.167 2002.5,345.833 2002.5,342.5C 2007.58,342.75 2012.58,342.25 2017.5,341C 2020.76,339.413 2022.92,336.913 2024,333.5C 2024.67,236.5 2024.67,139.5 2024,42.5C 2022.92,39.087 2020.76,36.587 2017.5,35C 2012.58,33.7497 2007.58,33.2497 2002.5,33.5C 2002.5,30.1667 2002.5,26.8333 2002.5,23.5C 2047.53,23.0422 2092.53,23.5422 2137.5,25C 2167.16,30.6592 2183.66,48.4925 2187,78.5C 2187.67,95.5 2187.67,112.5 2187,129.5C 2182.98,152.194 2170.15,167.694 2148.5,176C 2140.13,179.425 2131.47,181.592 2122.5,182.5 Z M 2090.5,45.5 C 2115.91,42.2655 2130.07,53.2655 2133,78.5C 2133.67,96.8333 2133.67,115.167 2133,133.5C 2132.56,153.595 2122.73,166.095 2103.5,171C 2095.21,172.238 2086.88,172.738 2078.5,172.5C 2078.33,133.165 2078.5,93.8319 2079,54.5C 2079.35,52.1523 2080.51,50.3189 2082.5,49C 2085.16,47.522 2087.82,46.3554 2090.5,45.5 Z"/></g>
<g><path style="opacity:1" fill="#616161" d="M 1951.5,103.5 C 1952.49,112.318 1952.83,121.318 1952.5,130.5C 1959.5,130.5 1966.5,130.5 1973.5,130.5C 1966.35,131.492 1959.02,131.825 1951.5,131.5C 1951.5,122.167 1951.5,112.833 1951.5,103.5 Z"/></g>
<g><path style="opacity:1" fill="#7c7c7c" d="M 2122.5,182.5 C 2122.17,183.167 2121.83,183.833 2121.5,184.5C 2120.62,184.631 2119.96,184.298 2119.5,183.5C 2120.32,182.614 2121.32,182.281 2122.5,182.5 Z"/></g>
<g><path style="opacity:1" fill="#323232" d="M 2460.5,238.5 C 2453.17,238.5 2445.83,238.5 2438.5,238.5C 2438.5,278.167 2438.5,317.833 2438.5,357.5C 2437.5,317.67 2437.17,277.67 2437.5,237.5C 2445.35,237.175 2453.02,237.508 2460.5,238.5 Z"/></g>
<g><path style="opacity:1" fill="#323232" d="M 2649.5,238.5 C 2642.17,238.5 2634.83,238.5 2627.5,238.5C 2627.5,278.167 2627.5,317.833 2627.5,357.5C 2626.5,317.67 2626.17,277.67 2626.5,237.5C 2634.35,237.175 2642.02,237.508 2649.5,238.5 Z"/></g>
</svg>