<?xml version="1.0" encoding="utf-8" ?>	<!-- Generator: Assembly 2.4 - http://assemblyapp.co -->	<svg version="1.1" xmlns="http://www.w3.org/2000/svg" xmlns:xlink="http://www.w3.org/1999/xlink" width="4096.00" height="4096.00" viewBox="0 0 4096.0 4096.0">		<g id="document" transform="scale(1.0 1.0) translate(2048.0 2048.0)">			<g>				<path d="M-134.983,-2015.76 C-136.467,-2015.44 -140.034,-2012.26 -142.901,-2008.69 C-148.036,-2002.3 -148.118,-2001.9 -148.219,-1983.36 C-148.269,-1972.99 -149.319,-1940.13 -150.536,-1910.33 L-152.754,-1856.15 L-148.535,-1849.86 C-146.218,-1846.42 -142.734,-1843.23 -140.801,-1842.81 C-138.867,-1842.4 -120.797,-1840.9 -100.627,-1839.48 C-26.2303,-1834.29 97.4084,-1824.81 133.565,-1821.51 L156.053,-1819.47 L157.252,-1811.12 C158.57,-1802.07 161.453,-1755.72 162.87,-1721.11 C164.037,-1692.46 164.47,-1690.19 169.854,-1684.3 L174.439,-1679.28 L256.103,-1679.35 L337.767,-1679.42 L338.785,-1827.77 C339.352,-1909.37 339.202,-1977.74 338.485,-1979.7 C337.685,-1981.86 334.3,-1984.29 329.967,-1985.84 C322.582,-1988.47 257.72,-2001.13 204.411,-2010.33 C187.908,-2013.18 172.771,-2015.91 170.771,-2016.39 C168.121,-2017.05 165.104,-2015.39 159.52,-2010.25 L151.902,-2003.21 L151.902,-1976.57 C151.902,-1952.17 151.668,-1950.03 149.068,-1951.02 C145.584,-1952.35 115.845,-1959.52 76.8881,-1968.41 C60.8519,-1972.07 27.0792,-1979.94 1.87473,-1985.92 C-35.782,-1994.84 -99.26,-2009.25 -126.481,-2015.06 C-129.682,-2015.74 -133.533,-2016.04 -135.016,-2015.72 L-134.983,-2015.76 Z " fill="#000000" fill-opacity="1.00" />				<path d="M-282.31,-1971.79 C-373.275,-1932.44 -396.146,-1921.83 -398.864,-1917.7 C-400.747,-1914.8 -401.63,-1900.32 -403.048,-1848.37 C-407.215,-1695.58 -409.849,-1598.79 -411.433,-1539.3 C-412.366,-1504.47 -413.933,-1446.33 -414.9,-1410.12 C-419.4,-1243.38 -418.235,-1239.84 -418.235,-1236.02 C-418.235,-1233.84 -418.37,-1231.18 -416.951,-1229.92 C-414.641,-1227.85 -408.632,-1220.98 -387.328,-1208.43 C-383.66,-1206.29 -372.775,-1199.52 -363.157,-1193.4 C-288.06,-1145.69 -262.806,-1130.07 -260.805,-1130.07 C-257.605,-1130.07 -239.586,-1139.64 -236.268,-1143.09 C-233.217,-1146.28 -231.034,-1207.1 -221.481,-1555.15 C-220.531,-1589.53 -219.031,-1639.42 -218.148,-1666 C-217.248,-1692.59 -215.747,-1738.71 -214.798,-1768.52 C-213.848,-1798.33 -212.297,-1842.2 -211.364,-1866.04 C-210.429,-1889.87 -209.279,-1926.25 -208.83,-1946.89 L-207.996,-1984.39 L-212.663,-1990.92 C-215.231,-1994.52 -218.081,-1997.68 -218.998,-1997.96 C-219.914,-1998.23 -248.42,-1986.46 -282.343,-1971.79 L-282.31,-1971.79 Z " fill="#000000" fill-opacity="1.00" />				<path d="M-95.0597,-1779.06 L-149.519,-1778.58 L-154.653,-1771.62 L-159.787,-1764.65 L-159.721,-1718.72 L-159.654,-1672.8 L-155.621,-1667.86 L-151.587,-1662.93 L-121.08,-1662.87 L-90.5749,-1662.8 L-90.1252,-1635.98 L-89.6755,-1609.15 L-120.014,-1608.05 C-152.019,-1606.89 -155.47,-1606.06 -160.388,-1598.18 C-162.188,-1595.3 -162.938,-1582.65 -163.705,-1541.94 L-164.688,-1489.43 L-160.655,-1484.85 L-156.621,-1480.27 L-73.6055,-1479.46 C-27.9475,-1479.03 83.7892,-1478.2 174.705,-1477.61 L340.002,-1476.56 L347.836,-1483.78 L355.671,-1490.99 L354.555,-1506.03 C353.937,-1514.3 352.387,-1530.45 351.088,-1541.91 C349.786,-1553.37 347.604,-1574.74 346.219,-1589.42 C343.219,-1621.1 342.186,-1622.92 327.849,-1621.22 C323.232,-1620.67 285.708,-1619.48 244.451,-1618.58 C203.194,-1617.65 140.716,-1616.14 105.61,-1615.18 C70.5035,-1614.24 41.065,-1613.91 40.1814,-1614.46 C39.2813,-1615.02 38.5811,-1625.84 38.5811,-1639.34 C38.5811,-1653.22 38.2477,-1659.68 40.4482,-1662.7 C42.6486,-1665.71 47.366,-1665.26 57.4678,-1665.26 C64.9525,-1665.26 78.4216,-1665.76 87.3733,-1666.35 L103.676,-1667.43 L108.71,-1674.27 L113.745,-1681.1 L113.245,-1725.59 L112.744,-1770.08 L107.843,-1775.19 L102.943,-1780.28 L31.1632,-1779.88 C-8.31054,-1779.66 -65.1374,-1779.28 -95.0925,-1779.03 L-95.0597,-1779.06 Z " fill="#000000" fill-opacity="1.00" />				<path d="M340.302,-1429.21 C338.918,-1428.92 311.18,-1427.86 278.624,-1426.87 C246.068,-1425.86 202.193,-1424.35 181.107,-1423.46 C160.02,-1422.6 119.146,-1421.12 90.2571,-1420.16 C61.3685,-1419.22 15.9939,-1417.64 -10.5942,-1416.68 C-37.1823,-1415.71 -81.1068,-1414.38 -108.195,-1413.71 C-155.838,-1412.55 -157.62,-1412.37 -162.789,-1408.71 C-167.539,-1405.32 -169.539,-1406.96 -171.373,-1390.37 C-173.207,-1373.77 -174.89,-1338.93 -178.974,-1262.61 C-180.391,-1236.03 -182.308,-1197.4 -183.209,-1176.77 C-184.109,-1156.14 -185.575,-1126.51 -186.458,-1110.92 L-188.076,-1082.59 L-178.924,-1073.57 L-169.773,-1064.55 L-158.538,-1066.45 C-142.317,-1069.17 -57.9194,-1080.09 -52.9351,-1080.09 C-52.035,-1080.09 -48.701,-1082.9 -45.5505,-1086.34 L-39.8161,-1092.58 L-39.8161,-1109.26 C-39.8328,-1134.71 -34.5985,-1285.83 -33.665,-1286.79 C-33.2149,-1287.25 -20.9794,-1287.85 -6.4601,-1288.15 L19.9279,-1288.68 L20.9114,-1278.15 C22.4283,-1261.84 26.8958,-1143.48 26.8958,-1119.59 C26.8958,-1096.77 27.9626,-1092.61 35.814,-1085.3 C39.7481,-1081.61 41.2649,-1081.37 57.2345,-1081.61 C66.6862,-1081.77 91.6573,-1082.98 112.744,-1084.32 C133.831,-1085.66 152.835,-1086.75 154.985,-1086.75 C157.353,-1086.75 160.953,-1089.11 164.154,-1092.72 L169.421,-1098.67 L170.254,-1195.65 L171.088,-1292.64 L196.86,-1293.87 C211.029,-1294.56 223.147,-1294.56 223.765,-1293.87 C225.031,-1292.49 231.899,-1176.85 233.433,-1130.95 L234.433,-1100.94 L239.95,-1094.1 L245.468,-1087.23 L279.124,-1086.14 C297.644,-1085.54 326.915,-1084.94 344.185,-1084.81 L375.574,-1084.6 L381.509,-1090.54 C387.377,-1096.4 387.444,-1096.65 387.177,-1109.54 C387.026,-1116.72 386.16,-1134.62 385.26,-1149.28 C384.344,-1163.95 382.076,-1202.96 380.209,-1235.96 C378.342,-1268.97 375.741,-1311.72 374.425,-1330.98 C373.108,-1350.23 371.207,-1378.37 370.207,-1393.49 C368.406,-1420.8 368.357,-1421.04 363.473,-1425.58 C359.455,-1429.33 357.137,-1430.13 350.671,-1429.97 C346.336,-1429.87 341.652,-1429.53 340.285,-1429.23 L340.302,-1429.21 Z " fill="#000000" fill-opacity="1.00" />				<path d="M468.725,-1188.51 C466.674,-1186.45 457.073,-1172.65 447.388,-1157.85 L429.802,-1130.95 L431.651,-1122.61 C438.353,-1092.37 441.62,-1077.49 444.187,-1069.3 C446.738,-1061.12 448.571,-1059.61 452.389,-1056.18 L459.489,-1049.78 L476.159,-1050.74 C485.328,-1051.28 516.083,-1052.48 544.505,-1053.44 C645.473,-1056.79 815.153,-1063.02 855.294,-1064.83 L879.364,-1065.91 L888.4,-1077.58 C893.367,-1084 899.351,-1092.11 901.685,-1095.58 L905.936,-1101.9 L899.418,-1108.66 C895.834,-1112.37 876.114,-1130.46 855.594,-1148.84 C823.755,-1177.4 817.287,-1182.47 811.42,-1183.53 C800.267,-1185.59 763.727,-1186.77 660.359,-1188.46 C606.732,-1189.32 542.505,-1190.54 517.651,-1191.13 L472.458,-1192.24 L468.725,-1188.51 Z " fill="#000000" fill-opacity="1.00" />				<path d="M-608.201,-1183.35 C-637.089,-1182.71 -706.469,-1181.28 -762.395,-1180.21 C-906.871,-1177.43 -981.438,-1175.41 -983.368,-1174.2 C-985.119,-1173.13 -1006.61,-1131.12 -1006.61,-1128.8 C-1006.61,-1128.06 -1001.17,-1124.57 -994.52,-1121.02 C-987.865,-1117.46 -969.683,-1107.66 -954.096,-1099.21 C-938.51,-1090.75 -904.371,-1072.78 -878.249,-1059.23 L-830.741,-1034.62 L-689.882,-1035.7 C-612.402,-1036.27 -496.281,-1037.25 -431.802,-1037.86 L-314.582,-1038.96 L-308.831,-1050.39 C-300.662,-1066.62 -296.578,-1077.57 -297.879,-1079.69 C-298.495,-1080.69 -312.132,-1088.58 -328.167,-1097.24 C-344.203,-1105.89 -362.19,-1115.6 -368.158,-1118.82 C-388.511,-1129.84 -428.969,-1151.31 -452.339,-1163.52 C-465.175,-1170.21 -479.278,-1177.82 -483.662,-1180.4 L-491.647,-1185.12 L-523.669,-1184.86 C-541.273,-1184.7 -579.313,-1184.03 -608.201,-1183.39 L-608.201,-1183.35 Z " fill="#000000" fill-opacity="1.00" />				<path d="M-1096.85,-1081.32 C-1100.51,-1080.41 -1106.15,-1079 -1109.35,-1078.24 C-1118.74,-1075.99 -1122.24,-1067.26 -1124.35,-1040.91 C-1129.49,-976.668 -1131.34,-954.146 -1134.35,-920.057 C-1136.15,-899.42 -1140.28,-850.294 -1143.51,-810.87 C-1148.89,-745.192 -1153.03,-696.717 -1157.7,-644.174 C-1161.03,-606.684 -1165.98,-547.491 -1165.99,-544.773 C-1166.01,-543.123 -1162.23,-540.089 -1156.43,-537.121 C-1038.59,-476.544 -982.632,-448.323 -980.363,-448.323 C-977.598,-448.323 -976.314,-447.738 -974.444,-460.924 C-972.598,-474.11 -970.163,-501.098 -965.163,-556.225 C-962.012,-590.865 -957.528,-641.691 -955.179,-669.196 C-952.827,-696.7 -948.643,-745.46 -945.876,-777.549 C-940.691,-837.559 -938.658,-862.514 -932.457,-941.961 C-929.157,-984.318 -929.106,-999.873 -932.257,-1004.25 C-932.924,-1005.18 -944.343,-1011.34 -957.629,-1017.94 C-970.93,-1024.56 -997.923,-1038.31 -1017.64,-1048.49 C-1077.76,-1079.59 -1085.56,-1083.44 -1087.9,-1083.22 C-1089.13,-1083.1 -1093.15,-1082.25 -1096.82,-1081.34 L-1096.85,-1081.32 Z " fill="#000000" fill-opacity="1.00" />				<path d="M1016.35,-1060.74 C1008.1,-1057.51 994.592,-1052.36 986.341,-1049.3 C978.089,-1046.23 957.62,-1038.39 940.85,-1031.9 C924.08,-1025.39 909.328,-1020.08 908.061,-1020.08 C904.794,-1020.08 895.141,-1007.33 895.058,-1002.94 C895.024,-1000.91 896.658,-982.735 898.692,-962.564 C901.777,-931.96 903.359,-918.506 903.176,-909.438 C902.993,-900.37 901.059,-895.669 897.125,-882.55 C893.224,-869.565 888.241,-856.629 885.873,-853.378 C883.539,-850.177 873.437,-839.442 863.42,-829.557 L845.199,-811.571 L832.763,-812.054 L820.327,-812.537 L813.077,-828.374 C801.725,-853.161 800.692,-857.312 802.292,-871.714 C803.058,-878.582 808.276,-907.138 813.91,-935.16 L824.146,-986.102 L816.244,-998.321 L808.342,-1010.54 L793.991,-1009.5 C786.089,-1008.94 760.501,-1007.32 737.13,-1005.9 C710.325,-1004.29 697.44,-1003.57 690.588,-1002.3 C683.737,-1001.04 682.903,-999.216 680.187,-995.386 C675.686,-989.019 675.286,-987.435 653.665,-890.519 L647.264,-861.813 L649.731,-846.344 C656.698,-802.669 664.684,-772.481 677.052,-742.876 L682.487,-729.889 L709.858,-707.036 C729.012,-691.05 739.096,-683.748 743.432,-682.715 C746.831,-681.914 762.001,-678.23 777.137,-674.563 C814.311,-665.512 820.611,-665.662 877.722,-676.796 C889.457,-679.081 912.427,-694.617 950.751,-726.189 C957.769,-731.957 964.237,-736.691 965.12,-736.691 C966.022,-736.691 967.187,-734.623 967.738,-732.106 C979.006,-679.363 992.992,-605.268 991.909,-604.167 C990.759,-603.017 733.93,-608.602 677.72,-611.018 L652.465,-612.102 L645.764,-605.634 C639.146,-599.25 638.962,-598.733 630.544,-563.327 C625.861,-543.606 618.292,-512.068 613.724,-493.214 L605.423,-458.94 L610.624,-449.323 C613.491,-444.038 616.675,-439.455 617.726,-439.121 C618.758,-438.804 730.411,-437.605 865.819,-436.47 C1075.62,-434.704 1112.43,-434.737 1114.8,-436.703 C1116.33,-437.971 1128.47,-451.623 1141.79,-467.042 L1165.99,-495.081 L1164.19,-503.782 C1160.06,-523.67 1145.12,-591.464 1138,-622.504 C1122.99,-687.998 1116.76,-715.52 1094.72,-814.204 C1082.44,-869.215 1069.7,-925.475 1066.42,-939.227 C1056.44,-981.118 1052.49,-997.972 1045.32,-1029.24 C1037.49,-1063.39 1036.41,-1066.79 1033.47,-1066.67 C1032.29,-1066.62 1024.59,-1063.95 1016.35,-1060.74 Z " fill="#000000" fill-opacity="1.00" />				<path d="M92.7575,-1021.57 C16.4606,-1012.74 7.7423,-1011.49 5.05857,-1009.08 C3.54161,-1007.7 1.09127,-1002.25 -0.392462,-996.968 C-1.87599,-991.686 -5.62671,-979.534 -8.71057,-969.966 C-11.811,-960.398 -18.979,-937.943 -24.6468,-920.073 C-37.9325,-878.15 -44.5837,-857.396 -61.9534,-803.386 C-69.7715,-779.082 -78.4565,-751.71 -81.274,-742.542 C-84.4903,-732.04 -89.5422,-720.638 -94.9264,-711.703 C-99.6261,-703.918 -108.162,-689.116 -113.896,-678.83 L-124.298,-660.127 L-116.496,-644.341 C-112.212,-635.657 -106.595,-623.071 -104.01,-616.37 C-100.393,-606.984 -97.3767,-602.367 -90.8923,-596.267 C-86.2572,-591.915 -81.6739,-588.347 -80.69,-588.364 C-79.723,-588.364 -66.9209,-592.932 -52.2516,-598.516 C14.777,-624.004 22.195,-626.171 46.9328,-627.471 C59.3015,-628.121 83.6893,-629.672 101.109,-630.906 C118.529,-632.138 133.215,-632.64 133.749,-632.006 C134.848,-630.706 174.689,-509.434 185.408,-474.777 L192.441,-452.057 L199.977,-451.023 C204.11,-450.456 227.832,-449.256 252.669,-448.356 C277.507,-447.457 302.744,-446.388 308.762,-445.989 C314.781,-445.589 320.581,-445.788 321.666,-446.456 C322.748,-447.122 327.849,-454.007 333.017,-461.759 L342.418,-475.844 L336.568,-492.514 C328.666,-515.002 311.297,-561.343 297.811,-595.866 C287.392,-622.554 272.156,-662.377 242.018,-741.725 C206.678,-834.775 179.139,-907.021 169.254,-932.593 C160.77,-954.547 141.633,-1006.78 136.116,-1023.02 C135.181,-1025.76 126.014,-1025.46 92.7909,-1021.61 L92.7575,-1021.57 Z M99.7089,-792.301 C126.897,-724.988 128.664,-720.255 127.08,-719.271 C126.347,-718.821 102.009,-717.921 72.9874,-717.287 C72.9874,-717.287 20.2447,-715.142 20.2447,-716.137 C20.2447,-721.771 28.2294,-742.709 37.9811,-766.296 C69.107,-841.654 74.3394,-847.344 74.3394,-847.344 C77.8049,-844.86 88.2735,-820.588 99.7089,-792.283 L99.7089,-792.301 Z " fill="#000000" fill-opacity="1.00" />				<path d="M332.892,-1015.82 C327.39,-1014.58 300.018,-1009.39 272.046,-1004.31 C244.076,-999.216 219.621,-994.703 217.687,-994.254 C215.386,-993.736 212.203,-989.636 208.552,-982.501 L202.934,-971.549 L206.485,-962.065 C208.435,-956.847 222.522,-920.323 237.79,-880.901 C253.06,-841.476 269.563,-798.719 274.465,-785.884 C292.134,-739.625 307.586,-699.868 329.524,-644.191 C352.012,-587.115 356.762,-574.679 387.401,-492.497 C396.635,-467.743 404.655,-447.006 405.221,-446.422 C405.788,-445.839 436.659,-444.839 473.799,-444.188 C513.84,-443.489 532.393,-442.805 541.345,-444.922 C550.296,-447.056 549.646,-452.007 551.264,-462.608 C554.014,-480.645 562.649,-537.672 569.783,-584.997 C576.334,-628.505 591.604,-721.588 602.872,-786.7 C606.923,-810.086 616.008,-864.93 623.076,-908.572 L635.927,-987.935 L629.695,-997.336 C626.127,-1002.72 624.86,-1005.28 620.626,-1006.21 C616.391,-1007.13 609.208,-1006.37 593.771,-1005.09 C583.219,-1004.21 558.098,-1002.25 537.927,-1000.74 L501.254,-997.972 L496.004,-993.02 C492.32,-989.553 490.469,-985.984 489.803,-981.151 C489.286,-977.35 487.303,-962.614 485.401,-948.395 C483.501,-934.176 478.968,-901.17 475.333,-875.05 C453.696,-715.038 451.545,-712.137 451.545,-712.137 C451.545,-712.137 444.361,-728.807 437.744,-748.459 C425.441,-784.949 372.631,-940.361 359.445,-978.884 C355.428,-990.619 351.311,-1003.37 350.278,-1007.22 C348.41,-1014.21 345.926,-1018.54 343.942,-1018.26 C343.359,-1018.18 338.392,-1017.09 332.892,-1015.82 Z " fill="#000000" fill-opacity="1.00" />				<path d="M-207.387,-1009.82 C-299.87,-1005.99 -313.823,-1002.44 -353.279,-972.549 C-373.016,-957.597 -375.533,-954.73 -393.936,-926.191 L-408.789,-903.153 L-411.24,-886.184 C-416.424,-850.278 -413.007,-825.24 -397.37,-784.916 C-394.02,-776.281 -390.903,-767.563 -390.419,-765.562 C-389.852,-763.145 -395.004,-750.593 -405.822,-728.056 C-421.741,-694.883 -422.124,-693.816 -424.309,-675.846 C-425.543,-665.761 -427.025,-642.874 -427.626,-625.004 L-428.709,-592.498 L-422.758,-569.994 C-415.074,-540.89 -404.689,-511.034 -396.27,-493.731 C-390.686,-482.262 -387.868,-478.628 -379.334,-471.86 C-364.264,-459.908 -343.16,-446.689 -316.24,-432.37 L-292.402,-419.684 L-263.231,-420.751 C-206.986,-422.801 -124.021,-430.219 -56.5764,-439.238 C-35.9561,-441.988 -35.7228,-442.071 -27.5379,-449.222 L-19.3031,-456.441 L-10.3182,-493.631 C-5.36725,-514.084 -0.516421,-534.954 0.467096,-540.022 L2.25078,-549.224 L-5.88408,-561.393 L-14.0188,-573.561 L-26.621,-572.677 C-33.5556,-572.195 -47.0581,-570.678 -56.6264,-569.294 C-156.277,-554.908 -211.854,-548.34 -234.058,-548.323 L-245.727,-548.307 L-261.563,-564.61 C-284.718,-588.431 -289.301,-595.915 -291.469,-613.286 C-292.435,-621.053 -293.219,-634.939 -293.219,-644.124 L-293.202,-660.844 L-281.034,-680.015 C-271.998,-694.249 -267.381,-699.918 -263.13,-702.051 C-250.278,-708.486 -230.474,-713.253 -209.87,-714.903 C-198.402,-715.821 -183.399,-717.02 -176.531,-717.571 C-158.411,-719.004 -157.128,-719.438 -152.209,-725.906 C-148.376,-730.939 -147.192,-735.457 -143.925,-757.695 C-141.824,-771.948 -139.607,-789.016 -138.992,-795.635 L-137.858,-807.654 L-146.775,-819.655 L-155.694,-831.658 L-169.863,-831.641 C-177.648,-831.641 -194.535,-830.941 -207.37,-830.107 C-220.206,-829.273 -239.06,-828.075 -249.261,-827.423 L-267.814,-826.24 L-273.849,-835.192 C-280.5,-845.061 -281.25,-850.527 -277.916,-864.93 C-276.066,-872.915 -275.282,-873.865 -264.581,-880.7 C-246.677,-892.152 -227.924,-895.02 -170.996,-895.02 L-126.606,-895.02 L-121.155,-901.004 C-114.653,-908.121 -111.67,-913.139 -111.586,-917.089 C-111.553,-918.689 -107.735,-933.943 -103.118,-950.979 L-94.6996,-981.985 L-99.2003,-989.769 C-101.684,-994.054 -105.868,-1000.74 -108.519,-1004.64 L-113.336,-1011.72 L-143.675,-1011.45 C-160.361,-1011.3 -189.017,-1010.56 -207.353,-1009.81 L-207.387,-1009.82 Z " fill="#000000" fill-opacity="1.00" />				<path d="M-465.065,-1004.39 C-465.065,-1004.39 -493.521,-999.803 -527.444,-995.058 L-589.121,-986.419 L-594.272,-981.051 L-599.423,-975.684 L-600.523,-947.445 C-602.557,-895.102 -606.774,-809.237 -607.558,-804.07 L-608.325,-798.952 L-632.896,-794.318 C-672.519,-786.833 -728.963,-776.748 -731.363,-776.715 C-733.08,-776.698 -733.364,-779.049 -732.614,-787.1 C-730.613,-808.687 -721.444,-903.87 -718.161,-937.059 L-714.761,-971.583 L-719.111,-979.001 C-721.511,-983.085 -724.396,-987.202 -725.528,-988.135 C-726.963,-989.336 -736.948,-988.403 -758.369,-985.119 C-784.507,-981.102 -801.893,-978.65 -861.17,-970.632 C-872.789,-969.066 -872.805,-969.016 -874.856,-936.71 C-877.606,-893.636 -883.124,-815.872 -886.341,-775.014 C-888.975,-741.492 -889.442,-738.791 -893.426,-733.34 C-898.01,-727.056 -899.843,-722.672 -914.196,-683.614 C-919.364,-669.562 -923.248,-657.177 -922.815,-656.109 C-922.381,-655.043 -916.696,-646.692 -910.178,-637.59 C-903.144,-627.771 -899.827,-625.038 -898.96,-615.402 C-898.094,-605.75 -899.66,-589.181 -902.427,-551.657 C-910.646,-439.888 -914.514,-391.146 -916.696,-371.625 C-918.063,-359.523 -917.863,-356.423 -915.397,-350.371 C-913.795,-346.47 -911.746,-343.288 -910.829,-343.288 C-909.912,-343.288 -877.29,-354.089 -838.316,-367.308 C-752.634,-396.363 -747.866,-398.047 -746.433,-399.58 C-745.817,-400.248 -743.965,-452.357 -742.316,-515.401 C-740.665,-578.43 -738.915,-630.672 -738.398,-631.504 C-736.781,-634.106 -615.409,-661.027 -613.576,-659.21 C-612.659,-658.293 -618.494,-514.134 -622.661,-434.737 L-623.678,-415.334 L-618.21,-407.231 C-615.194,-402.78 -612.509,-398.848 -612.242,-398.514 C-611.976,-398.163 -591.655,-404.415 -567.084,-412.4 C-542.53,-420.385 -509.373,-431.153 -493.421,-436.32 L-464.416,-445.738 L-465.5,-470.776 C-466.099,-484.546 -467.3,-509.317 -468.183,-525.82 C-470.35,-566.427 -473.067,-634.256 -473.617,-661.411 L-474.067,-683.648 L-469.5,-687.282 C-465.967,-690.099 -462.133,-698.518 -452.413,-724.723 C-445.528,-743.309 -439.895,-759.262 -439.895,-760.162 C-439.895,-761.062 -445.246,-769.78 -451.797,-779.548 L-463.7,-797.302 L-460.899,-820.755 C-459.366,-833.658 -453.914,-875.849 -448.796,-914.523 L-439.495,-984.835 L-445.629,-994.958 C-451.397,-1004.44 -456.848,-1004.76 -458.048,-1005.08 C-459.248,-1005.39 -465.065,-1004.39 -465.065,-1004.39 Z " fill="#000000" fill-opacity="1.00" />				<path d="M142.766,-406.7 C131.765,-405.983 110.394,-404.616 95.258,-403.666 C64.6859,-401.732 53.8173,-399.082 -10.5942,-377.744 C-55.5522,-362.859 -82.5573,-351.189 -89.4915,-343.672 C-95.7929,-336.837 -131.749,-291.846 -158.471,-257.357 C-168.289,-244.671 -179.474,-230.352 -183.292,-225.534 L-190.26,-216.766 L-191.044,-175.458 L-191.827,-134.151 L-184.292,-119.215 C-159.737,-70.5564 -130.949,-18.8306 -126.032,-14.5131 L-120.598,-9.76225 L-96.4266,-10.7791 C-83.1403,-11.3458 -59.503,-12.546 -43.9169,-13.4462 C-28.3308,-14.3463 7.22567,-16.1967 35.0973,-17.5803 C62.9689,-18.9473 85.9563,-20.2642 86.1564,-20.5142 C86.3564,-20.7476 88.1567,-28.4489 90.1404,-37.6172 C92.1241,-46.7855 94.3579,-57.0207 95.1246,-60.3713 C96.775,-67.6226 96.7083,-67.7226 86.1064,-75.0072 C81.5223,-78.1578 58.8348,-94.8274 35.6807,-112.064 L-6.41016,-143.403 L-6.41016,-171.125 L-6.41016,-198.846 L16.5106,-221.683 L39.4313,-244.521 L53.6005,-248.022 C83.1725,-255.306 123.446,-260.657 164.454,-262.723 L184.457,-263.741 L218.863,-245.405 C237.783,-235.319 256.237,-225.2 259.871,-222.917 L266.456,-218.75 L267.422,-181.526 C268.138,-154.221 267.873,-143.57 266.422,-141.553 C265.338,-140.035 253.937,-126.916 241.067,-112.38 C228.199,-97.8446 214.879,-82.4919 211.462,-78.2577 L205.244,-70.5564 L213.696,-51.5864 C218.347,-41.1512 223.314,-30.816 224.747,-28.6156 L227.348,-24.6316 L251.736,-25.7318 C265.155,-26.3319 308.379,-27.5654 347.803,-28.4823 C388.628,-29.4158 406.231,-29.2823 415.415,-31.2994 C424.6,-33.3164 425.384,-37.5005 432.568,-47.0855 L439.653,-56.5372 L441.703,-93.7606 C444.104,-137.402 446.871,-210.265 447.271,-240.836 L447.555,-262.34 L442.554,-266.675 C438.085,-270.542 425.633,-280.31 364.456,-327.919 C344.836,-343.172 286.142,-387.813 283.675,-389.33 C282.742,-389.914 277.441,-391.113 271.907,-392.014 C266.371,-392.898 250.152,-396.997 235.866,-401.099 C210.229,-408.45 209.579,-408.55 186.324,-408.317 C173.372,-408.184 153.769,-407.483 142.766,-406.767 L142.766,-406.7 Z " fill="#000000" fill-opacity="1.00" />				<path d="M-290.644,-367.014 C-302.563,-364.83 -327.317,-360.462 -345.654,-357.296 C-363.991,-354.128 -389.862,-349.593 -403.164,-347.228 C-416.467,-344.86 -435.37,-341.492 -445.189,-339.759 C-465.475,-336.175 -465.759,-336.041 -472.943,-327.773 L-478.228,-321.689 L-479.862,-250.26 C-480.761,-210.97 -482.246,-150.708 -483.162,-116.319 C-484.079,-81.946 -485.595,-24.1691 -486.513,12.0374 C-487.447,48.2439 -488.929,104.887 -489.813,137.893 C-490.696,170.9 -492.563,244.78 -493.947,302.09 C-495.331,359.4 -497.614,449.031 -499.015,501.291 C-500.415,553.55 -502.265,625.563 -503.149,661.32 C-504.016,697.076 -505.499,754.087 -506.449,788.009 C-507.383,821.932 -508.917,883.443 -509.833,924.7 C-510.766,965.958 -512.283,1028.96 -513.201,1064.73 C-516.401,1188.23 -517.635,1268.13 -516.502,1278.93 C-515.701,1286.57 -513.001,1294.95 -507.417,1307.26 C-498.148,1327.71 -485.445,1359.17 -476.444,1383.96 C-472.943,1393.59 -465.992,1410.82 -460.975,1422.29 C-455.957,1433.76 -446.189,1457 -439.287,1473.96 C-420.367,1520.34 -345.387,1706.1 -344.304,1709.29 C-342.636,1714.16 -328.018,1714.72 -307.298,1710.72 C-297.212,1708.78 -286.977,1706.81 -284.543,1706.32 C-281.826,1705.8 -278.325,1702.89 -275.508,1698.83 L-270.907,1692.17 L-268.74,1530.14 C-266.623,1371.33 -264.723,1206.3 -261.456,899.696 C-260.555,815.347 -259.071,696.077 -258.138,634.649 C-257.222,573.22 -255.704,447.949 -254.788,356.266 C-253.871,264.583 -252.371,129.191 -251.438,55.3784 C-250.504,-18.4347 -249.003,-140.574 -248.087,-216.053 L-246.42,-353.295 L-251.854,-362.28 C-255.104,-367.647 -256.639,-370.314 -261.456,-370.897 C-266.257,-371.481 -274.341,-369.98 -290.627,-366.996 L-290.644,-367.014 Z " fill="#000000" fill-opacity="1.00" />				<path d="M401.98,20.9917 C399.678,21.3086 375.674,23.0756 348.637,24.8926 C305.195,27.8264 270.856,30.3268 188.608,36.5445 C176.239,37.478 153.735,39.3451 138.6,40.6787 C123.463,42.0122 105.46,43.5124 98.5919,44.0125 C91.7241,44.5127 71.4537,46.0296 53.5839,47.3966 C35.714,48.7634 -0.308993,51.3806 -26.4304,53.2143 C-52.5517,55.0479 -84.8246,57.3149 -98.1099,58.2484 C-111.395,59.182 -132.866,60.6155 -145.818,61.4157 C-158.77,62.2325 -170.923,63.7161 -172.824,64.7496 C-174.74,65.7665 -179.608,70.684 -183.658,75.6515 L-191.027,84.7032 L-191.794,149.398 L-192.56,214.092 L-187.676,222.844 C-184.992,227.662 -182.175,231.596 -181.408,231.596 C-180.641,231.596 -155.021,228.562 -124.481,224.845 C-49.2678,215.71 -24.5301,212.943 -23.9133,213.559 C-23.6299,213.843 -22.8631,221.66 -22.213,230.913 L-21.0294,247.749 L-40.8162,259.084 C-51.7015,265.319 -70.3549,276.187 -82.2738,283.238 C-111.779,300.691 -167.172,332.814 -176.941,338.115 C-181.325,340.498 -187.71,345.3 -191.11,348.766 L-197.294,355.102 L-197.727,436.283 L-198.161,517.464 L-191.893,524.515 C-184.425,532.9 -147.835,550.837 -143.218,548.353 C-139.884,546.568 -79.0236,495.177 -34.932,456.92 C-16.2452,440.699 6.25876,421.196 15.077,413.595 C23.8953,405.977 38.4145,393.408 47.3494,385.674 C56.2843,377.939 64.4025,371.587 65.386,371.587 C66.3695,371.587 71.0537,374.905 75.8045,378.939 C109.394,407.528 182.757,465.989 190.292,470.155 L199.46,475.223 L243.634,475.473 C280.208,475.674 293.11,475.073 318.648,471.99 L349.487,468.256 L356.155,461.104 C359.821,457.17 374.524,440.851 388.811,424.847 C403.113,408.845 421.117,388.724 428.818,380.139 C436.519,371.555 445.637,361.319 449.054,357.402 L455.272,350.284 L455.356,214.943 L455.439,79.6022 L438.486,49.7303 L421.533,19.8583 L413.831,20.1083 C409.597,20.2417 404.264,20.6251 401.963,20.9418 L401.98,20.9917 Z M300.928,235.263 L302.095,295.591 L296.128,304.258 C291.26,311.326 289.092,314.76 284.676,316.494 C280.258,318.228 273.59,318.245 259.737,318.512 L235,318.978 L220.563,306.575 C212.612,299.758 192.926,283.171 176.772,269.719 L147.434,245.264 L145.283,219.244 C144.1,204.942 143.516,192.839 143.984,192.372 C145.617,190.738 276.69,175.819 295.461,175.12 L299.779,174.953 L300.946,235.28 L300.928,235.263 Z " fill="#000000" fill-opacity="1.00" />				<path d="M117.762,524.93 C112.261,525.664 102.912,526.602 95.258,527.464 C87.4534,528.343 76.2046,531.081 65.2527,535.098 C37.1976,545.384 -1.42593,559.836 -12.2611,564.071 C-17.7622,566.222 -33.1482,572.205 -46.4339,577.373 C-68.2879,585.857 -71.3717,587.557 -78.556,595.193 C-86.691,603.827 -105.961,628.765 -166.738,709.363 L-201.195,755.054 L-202.378,766.124 C-203.029,772.207 -203.078,784.393 -202.479,793.195 C-200.862,816.933 -196.578,890.978 -195.343,916.45 C-194.576,932.304 -193.577,939.371 -191.893,941.054 C-190.593,942.355 -188.81,946.005 -187.943,949.139 C-187.109,952.173 -186.692,953.69 -178.275,960.158 C-169.856,966.626 -153.453,978.027 -120.614,1000.85 C-79.34,1029.54 -58.4195,1043.42 -56.4691,1043.42 C-55.4855,1043.42 -50.3847,1045.58 -45.1337,1048.19 C-32.9649,1054.26 -32.098,1054.46 1.3746,1058.42 C49.5999,1064.15 94.5912,1066.06 124.78,1063.69 C157.003,1061.16 161.803,1060.36 207.778,1049.88 C255.353,1039.06 266.122,1035.97 305.996,1021.82 C331.767,1012.67 344.152,1008.38 352.821,1003.33 C361.489,998.281 366.422,992.43 377.308,980.178 C407.213,946.505 438.737,911.732 470.108,877.843 L499.18,846.437 L497.213,817.832 C494.846,783.276 492.779,757.438 488.628,710.046 C486.895,690.326 484.995,667.655 484.378,659.655 L483.277,645.101 L473.059,636.233 C460.839,625.615 405.38,580.04 372.84,553.868 C353.087,537.983 342.002,534.032 342.002,534.032 L330.317,530.714 C330.317,530.714 316.397,527.648 304.478,526.63 C278.457,524.397 131.948,523.096 117.779,524.98 L117.762,524.93 Z M278.173,700.279 C296.844,709.296 312.747,716.681 313.514,716.681 C317.232,716.681 318.715,723.15 320.215,745.987 C321.114,759.673 322.348,776.875 322.966,784.244 L324.066,797.629 L292.593,826.95 C270.373,847.654 260.754,857.023 252.603,862.391 C244.435,867.758 237.733,869.108 221.364,873.776 C178.606,885.962 109.811,900.063 93.1409,900.047 C87.2398,900.047 35.3472,890.062 19.4278,885.878 C8.07577,882.894 -8.57717,876.493 -19.9625,870.759 C-26.9305,867.242 -27.7806,866.175 -28.7142,859.707 C-31.7147,838.969 -32.7649,819.582 -31.898,800.979 L-30.9145,780.226 L1.59128,748.888 C22.3283,728.9 40.0981,715.297 40.0981,715.297 C40.0981,715.297 68.9866,706.046 96.9416,697.494 C124.897,688.942 166.174,684.184 196.009,682.926 C225.844,681.667 244.235,683.908 244.235,683.908 L278.191,700.311 L278.173,700.279 Z " fill="#000000" fill-opacity="1.00" />				<path d="M360.306,1052.67 C313.63,1062.53 236.433,1084.42 227.848,1090.22 C224.564,1092.42 214.613,1102.89 205.744,1113.42 C196.876,1123.97 184.658,1138.22 178.573,1145.09 C172.488,1151.96 161.903,1164.39 155.053,1172.7 C134.031,1198.13 64.1025,1279.68 43.6488,1302.62 C33.0136,1314.54 20.6113,1328.69 16.0939,1334.06 L7.85899,1343.82 L-12.7279,1343.14 C-28.3141,1342.63 -33.6984,1341.88 -34.8985,1340.04 C-36.4155,1337.73 -35.9654,1310.99 -33.7317,1270.76 L-32.7982,1253.91 L-0.759067,1212.39 L31.2799,1170.87 L24.512,1151.06 C19.6278,1136.76 16.8273,1130.88 14.4269,1129.9 C9.45932,1127.9 -108.512,1110.62 -138.218,1107.56 L-149.169,1106.42 L-160.254,1118.81 C-171.673,1131.57 -173.873,1136.02 -188.026,1175.08 C-190.51,1181.95 -197.66,1201.08 -203.912,1217.59 L-215.264,1247.59 L-214.247,1285.1 C-212.447,1351.48 -205.746,1414.72 -199.128,1427.79 C-194.728,1436.48 -167.722,1462.58 -125.782,1498.68 C-113.562,1509.21 -107.728,1514.29 -102.944,1517.31 C-98.1597,1520.32 -94.426,1521.31 -86.4074,1523.59 C-73.2388,1527.35 -69.8214,1527.62 -38.0658,1527.28 C10.9262,1526.76 25.9289,1524.73 70.837,1512.44 C84.4894,1508.7 95.3413,1504.62 100.842,1501.14 C105.576,1498.14 110.694,1495.23 112.211,1494.69 C113.728,1494.14 119.679,1487.45 125.447,1479.82 C131.214,1472.18 144.683,1454.69 155.369,1440.94 C173.806,1417.24 183.857,1404.1 236.966,1334.2 C249.335,1317.92 265.105,1297.39 272.006,1288.59 C278.908,1279.79 289.693,1265.44 295.976,1256.74 C309.83,1237.56 310.279,1237.18 318.182,1237.67 C321.648,1237.89 327.949,1238.14 332.184,1238.25 C336.717,1238.34 338.886,1238.07 340.268,1242.24 C341.652,1246.41 342.269,1255.01 343.686,1272.84 C344.636,1284.63 345.77,1295.91 346.203,1297.93 C346.937,1301.26 337.234,1316.6 297.544,1374.78 C295.976,1377.08 296.978,1380.78 302.795,1394.28 L309.979,1410.96 L395.579,1411.03 L481.177,1411.09 L504.064,1399.42 L526.952,1387.75 L526.118,1379.35 C525.651,1374.74 523.785,1353.69 521.951,1332.61 C518.217,1289.67 509.549,1200.15 506.998,1178.29 C506.082,1170.44 505.331,1160.41 505.331,1156.02 C505.331,1148.94 504.597,1147.29 499.063,1141.96 C490.845,1134.01 448.305,1097.2 430.317,1082.5 C422.533,1076.11 410.247,1065.84 403.03,1059.64 C395.411,1053.11 391.777,1049.85 386.543,1049.01 C381.292,1048.13 374.425,1049.68 360.306,1052.66 L360.306,1052.67 Z " fill="#000000" fill-opacity="1.00" />				<path d="M379.475,1474.88 C376.725,1475.72 357.222,1480.91 336.134,1486.44 C248.168,1509.4 243.034,1510.95 239.451,1515.77 C237.616,1518.21 227.982,1530.82 218.046,1543.74 C200.41,1566.69 146.551,1637.27 132.28,1656.14 C128.348,1661.34 115.912,1677.6 104.643,1692.26 C93.3742,1706.93 70.3369,1737.26 53.4505,1759.63 C36.5641,1782.01 18.9777,1805.27 14.3769,1811.31 L6.00876,1822.29 L-14.3616,1822.26 C-31.5814,1822.24 -35.182,1821.76 -37.6657,1819.29 C-40.2995,1816.65 -40.6663,1811.87 -41.1331,1774.7 L-41.6497,1733.03 L-30.2977,1715.44 C-24.0466,1705.78 -10.1775,1684.66 0.5244,1668.51 L19.9779,1639.15 L15.2937,1626.54 C5.8254,1601.1 4.30844,1598.63 -2.65945,1597.59 C-66.1708,1588.23 -106.495,1582.18 -132.282,1578.12 L-163.956,1573.16 L-180.208,1589.39 L-196.461,1605.6 L-198.978,1619.76 C-205.446,1656.06 -218.598,1752.67 -222.216,1790.6 C-223.615,1805.27 -225.499,1823.07 -226.4,1830.17 L-228.033,1843.07 L-212.247,1897.68 C-196.878,1950.84 -190.094,1974.96 -185.659,1987.28 C-181.241,1999.61 -179.191,2000.11 -173.357,2006.08 L-163.105,2016.53 L-40.8663,2016.45 L81.3722,2016.39 L86.5064,2011.01 C89.3403,2008.06 105.26,1988 121.913,1966.45 C138.566,1944.9 158.386,1919.41 165.953,1909.78 C173.538,1900.13 188.308,1881.15 198.76,1867.57 C209.229,1853.98 229.232,1828.09 243.235,1810.05 C257.22,1792.01 280.058,1762.24 293.977,1743.91 C307.897,1725.57 322.599,1706.64 326.666,1701.81 L334.051,1693.06 L349.537,1693.06 L365.023,1693.06 L365.907,1705.15 C368.923,1746.59 370.49,1766.18 370.058,1776.92 C369.641,1787.66 367.239,1789.57 362.356,1795.67 C355.455,1804.29 309.579,1864.27 296.543,1881.72 C294.026,1885.12 291.943,1888.87 291.943,1890.07 C291.91,1893.85 307.513,1937.21 309.363,1938.5 C310.329,1939.16 357.371,1939.73 413.898,1939.75 L516.667,1939.78 L526.535,1930.19 C531.953,1924.92 545.605,1911.61 556.857,1900.61 L577.327,1880.6 L576.244,1862.27 C575.644,1852.18 572.96,1813.17 570.259,1775.58 C567.559,1737.99 564.374,1691.42 563.175,1672.08 L560.991,1636.92 L536.787,1605.4 C523.468,1588.06 498.946,1555.72 482.278,1533.53 C457.123,1500.03 451.055,1492.93 446.571,1491.64 C443.603,1490.8 430.785,1486.26 418.099,1481.58 C395.045,1473.05 388.893,1471.98 379.492,1474.86 L379.475,1474.88 Z " fill="#000000" fill-opacity="1.00" />			</g>		</g>	</svg>