<svg xmlns="http://www.w3.org/2000/svg" xmlns:xlink="http://www.w3.org/1999/xlink" version="1.1" style="shape-rendering:geometricPrecision; text-rendering:geometricPrecision; image-rendering:optimizeQuality; fill-rule:evenodd; clip-rule:evenodd" viewBox="57.5 2307.68 4897.21 382.83">
<g><path style="opacity:0.961" fill="#000000" d="M 3419.5,2308.5 C 3470.38,2304.52 3514.88,2319.18 3553,2352.5C 3557.25,2341.49 3560.25,2330.16 3562,2318.5C 3563.21,2316.95 3564.71,2315.78 3566.5,2315C 3572.17,2314.33 3577.83,2314.33 3583.5,2315C 3584.83,2315.67 3586.17,2316.33 3587.5,2317C 3589.13,2320.6 3589.96,2324.44 3590,2328.5C 3591.36,2372.49 3592.03,2416.49 3592,2460.5C 3588.25,2463.98 3583.75,2465.31 3578.5,2464.5C 3573.25,2465.31 3568.75,2463.98 3565,2460.5C 3561.24,2437.13 3554.24,2414.79 3544,2393.5C 3528.12,2366.78 3504.95,2349.61 3474.5,2342C 3413.43,2330.12 3371.26,2352.95 3348,2410.5C 3335.16,2449.88 3330.83,2490.22 3335,2531.5C 3337.08,2571.13 3352.25,2604.63 3380.5,2632C 3407.89,2654.26 3438.89,2661.6 3473.5,2654C 3510.96,2645.87 3536.79,2624.04 3551,2588.5C 3558,2572.15 3562.67,2555.15 3565,2537.5C 3566.32,2535.51 3568.15,2534.35 3570.5,2534C 3576.92,2533.13 3583.25,2533.46 3589.5,2535C 3590.7,2535.9 3591.53,2537.07 3592,2538.5C 3592.67,2582.17 3592.67,2625.83 3592,2669.5C 3590.79,2671.05 3589.29,2672.22 3587.5,2673C 3580.72,2673.92 3574.06,2673.59 3567.5,2672C 3566.67,2671.17 3565.83,2670.33 3565,2669.5C 3562.65,2660.13 3559.32,2651.13 3555,2642.5C 3522.27,2673.81 3483.1,2689.14 3437.5,2688.5C 3365.04,2689.04 3311.21,2658.04 3276,2595.5C 3256.66,2551.47 3251.66,2505.81 3261,2458.5C 3268.05,2422.06 3283.39,2389.73 3307,2361.5C 3337.98,2330.11 3375.48,2312.44 3419.5,2308.5 Z"/></g>
<g><path style="opacity:0.966" fill="#000000" d="M 4158.5,2308.5 C 4212.48,2304.16 4261.81,2316.99 4306.5,2347C 4355.66,2385 4379.66,2435.33 4378.5,2498C 4378.36,2578 4342.69,2635.67 4271.5,2671C 4229.22,2687.63 4185.55,2692.63 4140.5,2686C 4073.57,2675.37 4025.07,2639.87 3995,2579.5C 3978.6,2537.29 3974.93,2493.96 3984,2449.5C 3996.14,2399.04 4024.64,2360.87 4069.5,2335C 4097.39,2319.78 4127.06,2310.95 4158.5,2308.5 Z M 4161.5,2338.5 C 4230.13,2332.7 4273.96,2362.7 4293,2428.5C 4304.79,2478.01 4304.12,2527.34 4291,2576.5C 4270.5,2636.19 4228.66,2663.35 4165.5,2658C 4110.64,2652.13 4076.8,2622.3 4064,2568.5C 4056.06,2530.8 4054.39,2492.8 4059,2454.5C 4062.36,2423.4 4073.69,2395.73 4093,2371.5C 4112.03,2352.57 4134.87,2341.57 4161.5,2338.5 Z"/></g>
<g><path style="opacity:0.961" fill="#000000" d="M 4507.5,2308.5 C 4533.63,2306.13 4558.3,2310.96 4581.5,2323C 4588.91,2327.74 4595.74,2333.24 4602,2339.5C 4605.86,2333.41 4608.19,2326.75 4609,2319.5C 4609.47,2318.07 4610.3,2316.9 4611.5,2316C 4618.08,2314.46 4624.75,2314.12 4631.5,2315C 4634,2316.17 4635.83,2318 4637,2320.5C 4637.67,2352.83 4637.67,2385.17 4637,2417.5C 4636.17,2420.33 4634.33,2422.17 4631.5,2423C 4624.72,2423.92 4618.06,2423.59 4611.5,2422C 4610.3,2421.1 4609.47,2419.93 4609,2418.5C 4603.14,2390.93 4589.31,2368.43 4567.5,2351C 4544.41,2335.84 4520.08,2333.5 4494.5,2344C 4473.49,2359.85 4467.99,2380.02 4478,2404.5C 4482.07,2411.91 4487.57,2418.08 4494.5,2423C 4521.23,2440.53 4549.56,2455.2 4579.5,2467C 4599.13,2475.67 4617.46,2486.34 4634.5,2499C 4665,2530.47 4674.83,2567.64 4664,2610.5C 4650.67,2652.16 4622.5,2677.32 4579.5,2686C 4531.97,2695.25 4490.47,2683.75 4455,2651.5C 4451.9,2658.88 4449.57,2666.55 4448,2674.5C 4447.17,2675.33 4446.33,2676.17 4445.5,2677C 4438.27,2678.59 4430.94,2678.93 4423.5,2678C 4421.71,2677.22 4420.21,2676.05 4419,2674.5C 4418.33,2634.17 4418.33,2593.83 4419,2553.5C 4419.5,2551.67 4420.67,2550.5 4422.5,2550C 4430.9,2547.64 4439.07,2548.14 4447,2551.5C 4451.61,2572.66 4458.61,2592.99 4468,2612.5C 4492.58,2653.69 4528.08,2667.52 4574.5,2654C 4603.93,2639.98 4616.09,2616.81 4611,2584.5C 4606.61,2570.78 4598.44,2559.95 4586.5,2552C 4562.69,2537.39 4537.69,2525.05 4511.5,2515C 4494.36,2507.27 4478.03,2498.27 4462.5,2488C 4427.45,2459.03 4414.61,2422.2 4424,2377.5C 4434.57,2343.93 4456.74,2322.1 4490.5,2312C 4496.31,2310.87 4501.98,2309.7 4507.5,2308.5 Z"/></g>
<g><path style="opacity:0.958" fill="#000000" d="M 4794.5,2308.5 C 4830.92,2304.58 4862.42,2314.92 4889,2339.5C 4892.71,2333 4895.04,2326 4896,2318.5C 4896.83,2317.67 4897.67,2316.83 4898.5,2316C 4904.75,2314.46 4911.08,2314.13 4917.5,2315C 4921.45,2315.95 4923.62,2318.45 4924,2322.5C 4924.67,2353.5 4924.67,2384.5 4924,2415.5C 4923.72,2419.12 4921.88,2421.62 4918.5,2423C 4911.72,2423.92 4905.06,2423.59 4898.5,2422C 4896.95,2420.79 4895.78,2419.29 4895,2417.5C 4889.35,2391.01 4876.18,2369.18 4855.5,2352C 4834.63,2337.52 4811.96,2333.85 4787.5,2341C 4771.91,2348.26 4762.74,2360.43 4760,2377.5C 4758.51,2394.69 4764.34,2408.85 4777.5,2420C 4786.65,2427.08 4796.32,2433.41 4806.5,2439C 4828.26,2449.88 4850.26,2460.21 4872.5,2470C 4886.15,2476.83 4899.49,2484.16 4912.5,2492C 4944.28,2517.43 4958.12,2550.6 4954,2591.5C 4946.57,2643.6 4917.07,2675.1 4865.5,2686C 4829.3,2693.06 4795.3,2687.39 4763.5,2669C 4755.75,2663.92 4748.59,2658.09 4742,2651.5C 4738.68,2658.46 4736.35,2665.8 4735,2673.5C 4734.53,2674.93 4733.7,2676.1 4732.5,2677C 4724.94,2678.6 4717.27,2678.93 4709.5,2678C 4707.62,2676.46 4706.12,2674.62 4705,2672.5C 4704.33,2633.5 4704.33,2594.5 4705,2555.5C 4705.93,2551.61 4708.43,2549.44 4712.5,2549C 4718.9,2548.18 4725.24,2548.52 4731.5,2550C 4732.33,2550.83 4733.17,2551.67 4734,2552.5C 4738.7,2574.94 4746.37,2596.27 4757,2616.5C 4777.44,2649.3 4806.94,2663.14 4845.5,2658C 4872.38,2653.12 4889.88,2637.62 4898,2611.5C 4902.42,2589.1 4895.92,2570.6 4878.5,2556C 4869.34,2549.25 4859.67,2543.25 4849.5,2538C 4821.47,2525.82 4793.8,2512.82 4766.5,2499C 4719.11,2471.38 4700.61,2430.54 4711,2376.5C 4720.01,2348.15 4738.18,2327.99 4765.5,2316C 4775.02,2312.37 4784.69,2309.87 4794.5,2308.5 Z"/></g>
<g><path style="opacity:0.961" fill="#000000" d="M 2240.5,2309.5 C 2245.51,2309.33 2250.51,2309.5 2255.5,2310C 2257.85,2310.35 2259.68,2311.51 2261,2313.5C 2304.39,2417.28 2348.06,2520.95 2392,2624.5C 2396.06,2637.23 2404.23,2646.06 2416.5,2651C 2422.84,2652.02 2429,2653.52 2435,2655.5C 2437,2659.39 2437.83,2663.56 2437.5,2668C 2438.3,2673.09 2436.97,2677.42 2433.5,2681C 2408.89,2682.15 2384.23,2682.65 2359.5,2682.5C 2334.77,2682.65 2310.11,2682.15 2285.5,2681C 2282.03,2677.42 2280.7,2673.09 2281.5,2668C 2280.42,2662.23 2282.09,2657.57 2286.5,2654C 2297.26,2653.81 2307.92,2652.81 2318.5,2651C 2322.56,2650.11 2324.56,2647.61 2324.5,2643.5C 2313.78,2612.84 2301.78,2582.68 2288.5,2553C 2248.5,2552.33 2208.5,2552.33 2168.5,2553C 2157.5,2576.34 2148.66,2600.51 2142,2625.5C 2140.21,2639.38 2146.05,2648.21 2159.5,2652C 2164.45,2653 2169.45,2653.66 2174.5,2654C 2176.29,2654.78 2177.79,2655.95 2179,2657.5C 2179.67,2664.17 2179.67,2670.83 2179,2677.5C 2177.89,2679.81 2176.06,2681.31 2173.5,2682C 2137.17,2682.67 2100.83,2682.67 2064.5,2682C 2062.15,2681.65 2060.32,2680.49 2059,2678.5C 2057.04,2671.47 2057.04,2664.47 2059,2657.5C 2060.17,2656.33 2061.33,2655.17 2062.5,2654C 2078.64,2652.86 2091.14,2645.69 2100,2632.5C 2103.59,2626.32 2106.92,2619.99 2110,2613.5C 2151.72,2513.05 2193.72,2412.72 2236,2312.5C 2237.65,2311.6 2239.15,2310.6 2240.5,2309.5 Z M 2228.5,2407.5 C 2244.91,2446.21 2261.24,2485.04 2277.5,2524C 2245.16,2524.83 2212.83,2524.67 2180.5,2523.5C 2196.52,2484.81 2212.52,2446.14 2228.5,2407.5 Z"/></g>
<g><path style="opacity:0.969" fill="#000000" d="M 3747.5,2309.5 C 3775.33,2309.07 3802.99,2310.9 3830.5,2315C 3862.91,2319.61 3889.41,2334.45 3910,2359.5C 3929.94,2391.39 3930.6,2423.72 3912,2456.5C 3900.48,2473.35 3885.31,2485.85 3866.5,2494C 3857.36,2497.6 3848.03,2500.6 3838.5,2503C 3847.64,2511.81 3856.48,2520.98 3865,2530.5C 3883,2553.83 3901,2577.17 3919,2600.5C 3930.5,2614.67 3943.33,2627.5 3957.5,2639C 3973.49,2648.66 3990.82,2654 4009.5,2655C 4010.7,2655.9 4011.53,2657.07 4012,2658.5C 4012.67,2664.83 4012.67,2671.17 4012,2677.5C 4010.89,2679.81 4009.06,2681.31 4006.5,2682C 3973.5,2682.67 3940.5,2682.67 3907.5,2682C 3905.75,2681.53 3904.09,2680.86 3902.5,2680C 3889.63,2668.8 3877.8,2656.63 3867,2643.5C 3846.6,2617.03 3826.93,2590.03 3808,2562.5C 3796,2546.68 3783.16,2531.52 3769.5,2517C 3762.54,2513.83 3755.21,2512.66 3747.5,2513.5C 3747.17,2552.18 3747.67,2590.85 3749,2629.5C 3749.05,2635.64 3750.71,2641.31 3754,2646.5C 3756.26,2648.43 3758.76,2649.93 3761.5,2651C 3776.16,2652.8 3790.83,2654.14 3805.5,2655C 3807.49,2656.32 3808.65,2658.15 3809,2660.5C 3809.8,2666.57 3809.47,2672.57 3808,2678.5C 3806.68,2680.49 3804.85,2681.65 3802.5,2682C 3744.83,2682.67 3687.17,2682.67 3629.5,2682C 3624.03,2679.05 3622.03,2674.38 3623.5,2668C 3623.67,2664.83 3623.83,2661.67 3624,2658.5C 3624.83,2656.33 3626.33,2654.83 3628.5,2654C 3639.53,2653.79 3650.53,2653.12 3661.5,2652C 3670.55,2650.74 3675.72,2645.57 3677,2636.5C 3678.11,2627.2 3678.78,2617.87 3679,2608.5C 3679.67,2534.5 3679.67,2460.5 3679,2386.5C 3679.21,2374.63 3677.88,2362.96 3675,2351.5C 3672.24,2347.47 3668.41,2345.3 3663.5,2345C 3652.1,2344.2 3640.76,2343.2 3629.5,2342C 3628.67,2341.17 3627.83,2340.33 3627,2339.5C 3626.33,2332.83 3626.33,2326.17 3627,2319.5C 3627.93,2316.9 3629.77,2315.4 3632.5,2315C 3670.97,2312.75 3709.31,2310.91 3747.5,2309.5 Z M 3755.5,2339.5 C 3776.65,2339.02 3797.32,2341.85 3817.5,2348C 3828.88,2352.04 3837.04,2359.54 3842,2370.5C 3850.02,2389.04 3852.69,2408.38 3850,2428.5C 3847.29,2455.54 3832.79,2472.38 3806.5,2479C 3787.27,2482.14 3767.94,2483.97 3748.5,2484.5C 3747.5,2436.5 3747.17,2388.5 3747.5,2340.5C 3750.39,2340.81 3753.05,2340.47 3755.5,2339.5 Z"/></g>
<g><path style="opacity:0.959" fill="#000000" d="M 65.5,2314.5 C 180.834,2314.33 296.167,2314.5 411.5,2315C 414.057,2315.69 415.891,2317.19 417,2319.5C 418.645,2349.81 419.312,2380.14 419,2410.5C 418.215,2412.29 417.049,2413.79 415.5,2415C 408.833,2415.67 402.167,2415.67 395.5,2415C 393.333,2414.17 391.833,2412.67 391,2410.5C 388.778,2393.61 383.778,2377.61 376,2362.5C 367.453,2348.74 354.953,2342.57 338.5,2344C 316.836,2343.5 295.169,2343.33 273.5,2343.5C 273.024,2440.85 273.524,2538.19 275,2635.5C 275.781,2642.95 279.614,2648.11 286.5,2651C 301.499,2652.78 316.499,2654.12 331.5,2655C 332.701,2655.9 333.535,2657.07 334,2658.5C 334.667,2664.5 334.667,2670.5 334,2676.5C 332.833,2679 331,2680.83 328.5,2682C 268.5,2682.67 208.5,2682.67 148.5,2682C 144.547,2681.05 142.381,2678.55 142,2674.5C 141.211,2668.76 141.544,2663.1 143,2657.5C 143.833,2656.67 144.667,2655.83 145.5,2655C 156.737,2653.71 168.07,2653.04 179.5,2653C 193.228,2653.41 201.062,2646.91 203,2633.5C 204.471,2536.85 204.971,2440.18 204.5,2343.5C 182.831,2343.33 161.164,2343.5 139.5,2344C 131.26,2344.04 123.26,2345.37 115.5,2348C 107.091,2354.42 100.924,2362.58 97,2372.5C 92.4478,2385.6 88.7812,2398.93 86,2412.5C 85.1667,2413.33 84.3333,2414.17 83.5,2415C 76.5,2415.67 69.5,2415.67 62.5,2415C 59.349,2412.93 57.6823,2409.93 57.5,2406C 58.4749,2377.52 59.3083,2349.02 60,2320.5C 61.3597,2317.98 63.193,2315.98 65.5,2314.5 Z"/></g>
<g><path style="opacity:0.966" fill="#000000" d="M 436.5,2314.5 C 490.834,2314.33 545.168,2314.5 599.5,2315C 601.329,2315.27 602.829,2316.11 604,2317.5C 606.936,2324.68 607.27,2332.02 605,2339.5C 604.167,2340.33 603.333,2341.17 602.5,2342C 590.904,2343.19 579.237,2344.19 567.5,2345C 562.912,2345.54 559.412,2347.7 557,2351.5C 554.18,2360.6 552.846,2369.93 553,2379.5C 552.5,2410.16 552.333,2440.83 552.5,2471.5C 607.5,2471.5 662.5,2471.5 717.5,2471.5C 717.667,2439.16 717.5,2406.83 717,2374.5C 716.913,2367.36 715.913,2360.36 714,2353.5C 711.934,2348.37 708.1,2345.54 702.5,2345C 689.765,2344.17 677.098,2343.17 664.5,2342C 663.299,2341.1 662.465,2339.93 662,2338.5C 661.076,2331.39 661.409,2324.39 663,2317.5C 664.419,2316.54 665.919,2315.71 667.5,2315C 722.5,2314.33 777.5,2314.33 832.5,2315C 835.057,2315.69 836.891,2317.19 838,2319.5C 838.667,2325.83 838.667,2332.17 838,2338.5C 837.535,2339.93 836.701,2341.1 835.5,2342C 822.838,2342.99 810.171,2344.32 797.5,2346C 792.664,2347.82 789.831,2351.32 789,2356.5C 787.948,2362.12 787.282,2367.78 787,2373.5C 786.333,2456.83 786.333,2540.17 787,2623.5C 784.753,2642.24 792.92,2652.07 811.5,2653C 819.603,2653.06 827.603,2653.73 835.5,2655C 836.701,2655.9 837.535,2657.07 838,2658.5C 838.667,2664.83 838.667,2671.17 838,2677.5C 836.773,2679.73 834.939,2681.23 832.5,2682C 777.5,2682.67 722.5,2682.67 667.5,2682C 665.919,2681.29 664.419,2680.46 663,2679.5C 661.409,2672.61 661.076,2665.61 662,2658.5C 662.465,2657.07 663.299,2655.9 664.5,2655C 677.506,2654.1 690.506,2652.77 703.5,2651C 709.74,2649.09 713.573,2644.93 715,2638.5C 716.092,2632.22 716.758,2625.88 717,2619.5C 717.5,2581.83 717.667,2544.17 717.5,2506.5C 662.5,2506.5 607.5,2506.5 552.5,2506.5C 552.333,2542.83 552.5,2579.17 553,2615.5C 553.253,2622.88 553.919,2630.21 555,2637.5C 556.229,2642.8 559.062,2646.97 563.5,2650C 568.03,2651.63 572.696,2652.63 577.5,2653C 585.936,2653.06 594.269,2653.73 602.5,2655C 605.673,2658.67 607.007,2663.01 606.5,2668C 606.727,2672.08 605.893,2675.91 604,2679.5C 602.829,2680.89 601.329,2681.73 599.5,2682C 545.167,2682.67 490.833,2682.67 436.5,2682C 434.714,2681.22 433.214,2680.05 432,2678.5C 430.414,2671.94 430.08,2665.28 431,2658.5C 431.465,2657.07 432.299,2655.9 433.5,2655C 444.103,2653.86 454.77,2652.86 465.5,2652C 474.549,2650.62 480.049,2645.45 482,2636.5C 483.1,2626.2 483.767,2615.87 484,2605.5C 484.667,2533.17 484.667,2460.83 484,2388.5C 483.756,2378.47 483.09,2368.47 482,2358.5C 480.806,2350.64 476.306,2346.14 468.5,2345C 456.763,2344.19 445.096,2343.19 433.5,2342C 432.299,2341.1 431.465,2339.93 431,2338.5C 430.333,2332.17 430.333,2325.83 431,2319.5C 432.406,2317.26 434.239,2315.59 436.5,2314.5 Z"/></g>
<g><path style="opacity:0.962" fill="#000000" d="M 868.5,2314.5 C 953.834,2314.33 1039.17,2314.5 1124.5,2315C 1128,2315.83 1130.17,2318 1131,2321.5C 1133.67,2351.02 1136.5,2380.52 1139.5,2410C 1139.29,2415.21 1136.62,2418.21 1131.5,2419C 1125.43,2419.8 1119.43,2419.47 1113.5,2418C 1112.33,2416.83 1111.17,2415.67 1110,2414.5C 1106.81,2398.4 1101.48,2383.06 1094,2368.5C 1086.19,2355.36 1074.69,2347.86 1059.5,2346C 1052.2,2344.98 1044.87,2344.31 1037.5,2344C 1017.17,2343.5 996.836,2343.33 976.5,2343.5C 976.5,2386.83 976.5,2430.17 976.5,2473.5C 991.837,2473.67 1007.17,2473.5 1022.5,2473C 1030.82,2472.9 1037.99,2470.06 1044,2464.5C 1044.86,2462.91 1045.53,2461.25 1046,2459.5C 1047.45,2447.8 1048.78,2436.13 1050,2424.5C 1050.9,2423.3 1052.07,2422.47 1053.5,2422C 1060.17,2421.33 1066.83,2421.33 1073.5,2422C 1076.1,2422.93 1077.6,2424.77 1078,2427.5C 1078.67,2469.17 1078.67,2510.83 1078,2552.5C 1076.74,2555.43 1074.57,2557.26 1071.5,2558C 1064.69,2558.99 1058.02,2558.49 1051.5,2556.5C 1050.67,2555.5 1049.83,2554.5 1049,2553.5C 1048.66,2542.1 1047.66,2530.77 1046,2519.5C 1043.66,2509.23 1037.16,2504.07 1026.5,2504C 1009.84,2503.5 993.17,2503.33 976.5,2503.5C 976.333,2537.5 976.5,2571.5 977,2605.5C 977.207,2618.7 978.874,2631.7 982,2644.5C 985.016,2648.09 988.849,2650.26 993.5,2651C 998.123,2651.96 1002.79,2652.62 1007.5,2653C 1023.83,2653.67 1040.17,2653.67 1056.5,2653C 1077.93,2653.09 1095.76,2645.26 1110,2629.5C 1119.36,2618.45 1126.69,2606.12 1132,2592.5C 1135.88,2581.21 1139.54,2569.87 1143,2558.5C 1143.75,2557.87 1144.58,2557.37 1145.5,2557C 1152.5,2556.33 1159.5,2556.33 1166.5,2557C 1169.41,2558.81 1171.08,2561.48 1171.5,2565C 1168.71,2602.5 1165.88,2640 1163,2677.5C 1161.77,2679.73 1159.94,2681.23 1157.5,2682C 1058.83,2682.67 960.167,2682.67 861.5,2682C 859.714,2681.22 858.214,2680.05 857,2678.5C 855.414,2671.94 855.08,2665.28 856,2658.5C 856.465,2657.07 857.299,2655.9 858.5,2655C 870.494,2654.03 882.494,2652.69 894.5,2651C 900.837,2648.16 904.67,2643.33 906,2636.5C 907.138,2626.2 907.804,2615.87 908,2605.5C 908.667,2533.5 908.667,2461.5 908,2389.5C 907.767,2379.13 907.1,2368.8 906,2358.5C 904.797,2350.63 900.297,2346.13 892.5,2345C 884.197,2343.98 875.864,2343.32 867.5,2343C 865.274,2341.77 863.774,2339.94 863,2337.5C 862.333,2331.83 862.333,2326.17 863,2320.5C 864.36,2317.98 866.193,2315.98 868.5,2314.5 Z"/></g>
<g><path style="opacity:0.967" fill="#000000" d="M 1324.5,2314.5 C 1378.83,2314.33 1433.17,2314.5 1487.5,2315C 1489.33,2315.27 1490.83,2316.11 1492,2317.5C 1494.94,2324.68 1495.27,2332.02 1493,2339.5C 1492.17,2340.33 1491.33,2341.17 1490.5,2342C 1478.9,2343.19 1467.24,2344.19 1455.5,2345C 1448.12,2345.92 1443.95,2350.08 1443,2357.5C 1441.98,2364.8 1441.31,2372.13 1441,2379.5C 1440.5,2410.16 1440.33,2440.83 1440.5,2471.5C 1495.5,2471.5 1550.5,2471.5 1605.5,2471.5C 1605.67,2439.16 1605.5,2406.83 1605,2374.5C 1604.91,2367.36 1603.91,2360.36 1602,2353.5C 1599.93,2348.37 1596.1,2345.54 1590.5,2345C 1577.76,2344.17 1565.1,2343.17 1552.5,2342C 1551.3,2341.1 1550.47,2339.93 1550,2338.5C 1549.08,2331.39 1549.41,2324.39 1551,2317.5C 1552.42,2316.54 1553.92,2315.71 1555.5,2315C 1610.5,2314.33 1665.5,2314.33 1720.5,2315C 1723.06,2315.69 1724.89,2317.19 1726,2319.5C 1726.67,2325.83 1726.67,2332.17 1726,2338.5C 1725.53,2339.93 1724.7,2341.1 1723.5,2342C 1710.84,2342.99 1698.17,2344.32 1685.5,2346C 1680.66,2347.82 1677.83,2351.32 1677,2356.5C 1675.95,2362.12 1675.28,2367.78 1675,2373.5C 1674.33,2456.83 1674.33,2540.17 1675,2623.5C 1674.77,2631.34 1676.43,2638.67 1680,2645.5C 1685.45,2650.5 1691.95,2653 1699.5,2653C 1707.6,2653.06 1715.6,2653.73 1723.5,2655C 1724.7,2655.9 1725.53,2657.07 1726,2658.5C 1726.67,2664.83 1726.67,2671.17 1726,2677.5C 1724.77,2679.73 1722.94,2681.23 1720.5,2682C 1665.5,2682.67 1610.5,2682.67 1555.5,2682C 1553.06,2681.23 1551.23,2679.73 1550,2677.5C 1549.33,2671.17 1549.33,2664.83 1550,2658.5C 1550.47,2657.07 1551.3,2655.9 1552.5,2655C 1565.51,2654.1 1578.51,2652.77 1591.5,2651C 1597.74,2649.09 1601.57,2644.93 1603,2638.5C 1604.07,2632.55 1604.74,2626.55 1605,2620.5C 1605.5,2582.5 1605.67,2544.5 1605.5,2506.5C 1550.5,2506.5 1495.5,2506.5 1440.5,2506.5C 1440.33,2542.83 1440.5,2579.17 1441,2615.5C 1441.25,2622.88 1441.92,2630.21 1443,2637.5C 1444.23,2642.8 1447.06,2646.97 1451.5,2650C 1456.03,2651.63 1460.7,2652.63 1465.5,2653C 1473.94,2653.06 1482.27,2653.73 1490.5,2655C 1493.67,2658.67 1495.01,2663.01 1494.5,2668C 1494.73,2672.08 1493.89,2675.91 1492,2679.5C 1490.83,2680.89 1489.33,2681.73 1487.5,2682C 1433.17,2682.67 1378.83,2682.67 1324.5,2682C 1322.71,2681.22 1321.21,2680.05 1320,2678.5C 1318.41,2671.94 1318.08,2665.28 1319,2658.5C 1319.47,2657.07 1320.3,2655.9 1321.5,2655C 1332.1,2653.86 1342.77,2652.86 1353.5,2652C 1362.55,2650.62 1368.05,2645.45 1370,2636.5C 1371.09,2626.53 1371.76,2616.53 1372,2606.5C 1372.67,2533.5 1372.67,2460.5 1372,2387.5C 1371.74,2377.8 1371.08,2368.13 1370,2358.5C 1368.81,2350.64 1364.31,2346.14 1356.5,2345C 1344.76,2344.19 1333.1,2343.19 1321.5,2342C 1320.3,2341.1 1319.47,2339.93 1319,2338.5C 1318.33,2332.5 1318.33,2326.5 1319,2320.5C 1320.02,2317.65 1321.85,2315.65 1324.5,2314.5 Z"/></g>
<g><path style="opacity:0.962" fill="#000000" d="M 1756.5,2314.5 C 1841.83,2314.33 1927.17,2314.5 2012.5,2315C 2016,2315.83 2018.17,2318 2019,2321.5C 2021.77,2351.01 2024.61,2380.51 2027.5,2410C 2027.29,2415.21 2024.62,2418.21 2019.5,2419C 2013.43,2419.8 2007.43,2419.47 2001.5,2418C 2000.33,2416.83 1999.17,2415.67 1998,2414.5C 1994.91,2397.57 1989.25,2381.57 1981,2366.5C 1972.88,2354.69 1961.71,2347.85 1947.5,2346C 1940.2,2344.98 1932.87,2344.31 1925.5,2344C 1905.17,2343.5 1884.84,2343.33 1864.5,2343.5C 1864.5,2386.83 1864.5,2430.17 1864.5,2473.5C 1879.84,2473.67 1895.17,2473.5 1910.5,2473C 1916.86,2472.58 1922.86,2470.91 1928.5,2468C 1931.11,2466.06 1932.94,2463.56 1934,2460.5C 1935.41,2448.46 1936.74,2436.46 1938,2424.5C 1938.9,2423.3 1940.07,2422.47 1941.5,2422C 1948.17,2421.33 1954.83,2421.33 1961.5,2422C 1964.1,2422.93 1965.6,2424.77 1966,2427.5C 1966.67,2469.17 1966.67,2510.83 1966,2552.5C 1964.74,2555.43 1962.57,2557.26 1959.5,2558C 1954.17,2558.67 1948.83,2558.67 1943.5,2558C 1940.8,2557.31 1938.64,2555.81 1937,2553.5C 1936.66,2542.1 1935.66,2530.77 1934,2519.5C 1931.66,2509.23 1925.16,2504.07 1914.5,2504C 1897.84,2503.5 1881.17,2503.33 1864.5,2503.5C 1864.11,2542.85 1864.61,2582.18 1866,2621.5C 1866.57,2628.23 1867.57,2634.9 1869,2641.5C 1871.17,2647.18 1875.34,2650.35 1881.5,2651C 1886.12,2651.96 1890.79,2652.62 1895.5,2653C 1911.83,2653.67 1928.17,2653.67 1944.5,2653C 1965.93,2653.09 1983.76,2645.26 1998,2629.5C 2007.36,2618.45 2014.69,2606.12 2020,2592.5C 2023.88,2581.21 2027.54,2569.87 2031,2558.5C 2031.75,2557.87 2032.58,2557.37 2033.5,2557C 2040.5,2556.33 2047.5,2556.33 2054.5,2557C 2057.41,2558.81 2059.08,2561.48 2059.5,2565C 2056.71,2602.5 2053.88,2640 2051,2677.5C 2049.77,2679.73 2047.94,2681.23 2045.5,2682C 1946.83,2682.67 1848.17,2682.67 1749.5,2682C 1747.71,2681.22 1746.21,2680.05 1745,2678.5C 1743.41,2671.94 1743.08,2665.28 1744,2658.5C 1744.47,2657.07 1745.3,2655.9 1746.5,2655C 1758.49,2654.03 1770.49,2652.69 1782.5,2651C 1788.84,2648.16 1792.67,2643.33 1794,2636.5C 1795.13,2626.54 1795.8,2616.54 1796,2606.5C 1796.67,2533.83 1796.67,2461.17 1796,2388.5C 1795.76,2378.47 1795.09,2368.47 1794,2358.5C 1792.81,2350.64 1788.31,2346.14 1780.5,2345C 1772.2,2343.98 1763.86,2343.32 1755.5,2343C 1753.27,2341.77 1751.77,2339.94 1751,2337.5C 1750.33,2331.83 1750.33,2326.17 1751,2320.5C 1752.36,2317.98 1754.19,2315.98 1756.5,2314.5 Z"/></g>
<g><path style="opacity:0.96" fill="#000000" d="M 2360.5,2314.5 C 2412.5,2314.33 2464.5,2314.5 2516.5,2315C 2518.33,2315.27 2519.83,2316.11 2521,2317.5C 2522.59,2324.73 2522.93,2332.06 2522,2339.5C 2521.17,2340.33 2520.33,2341.17 2519.5,2342C 2506.43,2342.9 2493.43,2344.57 2480.5,2347C 2475.93,2349.54 2474.43,2353.37 2476,2358.5C 2478.27,2365.99 2480.94,2373.32 2484,2380.5C 2515.94,2453.38 2547.61,2526.38 2579,2599.5C 2604.92,2538.65 2630.59,2477.65 2656,2416.5C 2661.99,2402.18 2666.99,2387.52 2671,2372.5C 2673.73,2356.8 2667.23,2347.64 2651.5,2345C 2645.87,2344.03 2640.2,2343.37 2634.5,2343C 2632.27,2341.77 2630.77,2339.94 2630,2337.5C 2629.33,2331.83 2629.33,2326.17 2630,2320.5C 2630.78,2318.71 2631.95,2317.21 2633.5,2316C 2676.92,2314.84 2720.42,2314.34 2764,2314.5C 2806.83,2314.67 2849.67,2314.83 2892.5,2315C 2897.97,2317.95 2899.97,2322.62 2898.5,2329C 2898.33,2332.17 2898.17,2335.33 2898,2338.5C 2897.53,2339.93 2896.7,2341.1 2895.5,2342C 2886.17,2343.07 2876.84,2344.4 2867.5,2346C 2863.32,2346.85 2860.32,2349.19 2858.5,2353C 2862,2361.84 2866.17,2370.34 2871,2378.5C 2896.33,2419.83 2921.67,2461.17 2947,2502.5C 2968.41,2466 2990.08,2429.67 3012,2393.5C 3016.21,2385.74 3019.88,2377.74 3023,2369.5C 3024.71,2356.53 3019.21,2348.37 3006.5,2345C 3000.21,2343.98 2993.87,2343.31 2987.5,2343C 2986.07,2342.53 2984.9,2341.7 2984,2340.5C 2982.04,2333.14 2982.04,2325.81 2984,2318.5C 2985.21,2316.95 2986.71,2315.78 2988.5,2315C 3028.5,2314.33 3068.5,2314.33 3108.5,2315C 3111.23,2315.4 3113.07,2316.9 3114,2319.5C 3114.67,2326.17 3114.67,2332.83 3114,2339.5C 3113.17,2340.33 3112.33,2341.17 3111.5,2342C 3099.53,2343.99 3088.53,2348.32 3078.5,2355C 3064.42,2369.41 3052.25,2385.24 3042,2402.5C 3015.25,2447.67 2988.25,2492.67 2961,2537.5C 2960.33,2562.17 2960.33,2586.83 2961,2611.5C 2961.08,2621.27 2962.08,2630.94 2964,2640.5C 2965.2,2644.75 2967.7,2647.91 2971.5,2650C 2983.1,2652.37 2994.77,2654.03 3006.5,2655C 3007.33,2655.83 3008.17,2656.67 3009,2657.5C 3009.67,2664.17 3009.67,2670.83 3009,2677.5C 3008.53,2678.93 3007.7,2680.1 3006.5,2681C 2954.22,2682.65 2901.89,2682.99 2849.5,2682C 2847.15,2681.65 2845.32,2680.49 2844,2678.5C 2842.42,2672.28 2842.09,2665.94 2843,2659.5C 2843.77,2657.06 2845.27,2655.23 2847.5,2654C 2857.94,2653.96 2868.27,2652.96 2878.5,2651C 2883.18,2649.65 2886.68,2646.82 2889,2642.5C 2890.84,2636.31 2891.84,2629.98 2892,2623.5C 2892.67,2595.83 2892.67,2568.17 2892,2540.5C 2855.5,2480.17 2818.5,2420.17 2781,2360.5C 2777.83,2356.67 2774.67,2352.83 2771.5,2349C 2743.74,2337.25 2722.91,2344.75 2709,2371.5C 2663.94,2476.67 2619.28,2582 2575,2687.5C 2574.1,2688.7 2572.93,2689.53 2571.5,2690C 2563.83,2690.67 2556.17,2690.67 2548.5,2690C 2545.27,2688.44 2543.1,2685.94 2542,2682.5C 2495.86,2575.75 2449.53,2469.08 2403,2362.5C 2397.49,2352.33 2388.99,2346.49 2377.5,2345C 2371.53,2344.09 2365.53,2343.43 2359.5,2343C 2357.71,2342.22 2356.21,2341.05 2355,2339.5C 2354.33,2332.83 2354.33,2326.17 2355,2319.5C 2356.11,2316.89 2357.94,2315.22 2360.5,2314.5 Z"/></g>
</svg>