<svg id="SvgjsSvg1001" width="288" height="288" xmlns="http://www.w3.org/2000/svg" version="1.1" xmlns:xlink="http://www.w3.org/1999/xlink" xmlns:svgjs="http://svgjs.com/svgjs"><defs id="SvgjsDefs1002"></defs><g id="SvgjsG1008"><svg xmlns="http://www.w3.org/2000/svg" enable-background="new 0 0 2048 2048" viewBox="0 0 2048 2048" width="288" height="288"><path fill="#fdfdf6" d="M1.000000,791.000000 
	C1.000000,527.333313 1.000000,264.166656 1.000000,1.000000 
	C683.666687,1.000000 1366.333374,1.000000 2049.000000,1.000000 
	C2049.000000,683.666687 2049.000000,1366.333374 2049.000000,2049.000000 
	C1366.333374,2049.000000 683.666687,2049.000000 1.000000,2049.000000 
	C1.000000,1629.833374 1.000000,1210.666626 1.000000,791.000000 
M940.203369,1135.886719 
	C940.113281,1089.561890 939.983276,1043.237061 939.956421,996.912292 
	C939.947937,982.229858 939.026001,981.152466 924.062317,981.069336 
	C894.900696,980.907349 865.738953,980.739136 836.577026,980.667908 
	C826.759521,980.643921 816.913940,980.503540 807.132324,981.167908 
	C799.705078,981.672424 798.350464,983.731628 798.267090,991.078308 
	C797.945557,1019.403564 797.580872,1047.728516 797.361450,1076.054688 
	C796.736511,1156.706665 796.062317,1237.358521 795.614868,1318.011597 
	C794.923401,1442.658813 794.493347,1567.307617 793.641235,1691.953491 
	C793.573486,1701.859253 795.531067,1710.613647 800.673157,1718.852661 
	C801.375000,1719.977417 802.090637,1721.099487 802.702698,1722.273438 
	C822.777039,1760.772339 842.803040,1799.296509 862.914978,1837.775879 
	C878.805725,1868.179077 894.851562,1898.501099 910.726074,1928.912720 
	C918.705200,1944.198853 926.481934,1959.591064 934.290955,1974.965454 
	C936.005798,1978.341675 938.194153,1981.116821 942.343750,1980.053223 
	C946.474731,1978.994385 947.947632,1975.729370 947.708496,1971.613525 
	C947.650574,1970.616455 947.688110,1969.614136 947.671631,1968.614380 
	C946.495483,1897.139038 945.075928,1825.666504 944.197571,1754.187500 
	C942.856384,1645.044800 941.576904,1535.899414 940.856201,1426.751343 
	C940.218201,1330.108154 940.378418,1233.459595 940.203369,1135.886719 
M798.383240,216.499908 
	C798.380615,245.826889 798.453491,275.154114 798.359863,304.480804 
	C798.152954,369.298645 797.920410,434.116455 797.574036,498.933624 
	C797.453857,521.426575 796.929382,543.917053 796.668518,566.409607 
	C796.581360,573.924622 798.939270,580.044495 806.597778,583.120911 
	C822.553406,589.530518 838.415283,596.174255 854.390686,602.533386 
	C877.240601,611.629089 900.212646,620.419800 923.020447,629.618652 
	C932.859314,633.586914 936.634155,631.424927 936.610596,620.718567 
	C936.568970,601.889404 936.475769,583.059814 936.274353,564.231750 
	C934.809387,427.274872 933.108765,290.320038 931.970154,153.360519 
	C931.690491,119.729134 933.214417,86.082817 933.901306,52.443207 
	C933.952332,49.944916 934.067383,47.438293 933.930298,44.947788 
	C933.636658,39.613018 930.658997,37.497612 925.613770,38.959980 
	C924.020874,39.421677 922.461060,40.015537 920.918884,40.631100 
	C908.010315,45.783600 895.153992,51.070293 882.196411,56.095970 
	C859.017822,65.085945 835.832947,74.065742 812.530884,82.727539 
	C806.251038,85.061874 802.409851,89.179619 801.003967,95.326195 
	C799.679138,101.118813 798.568726,107.110031 798.527405,113.022018 
	C798.288818,147.179977 798.394958,181.340332 798.383240,216.499908 
M1060.159424,1191.653320 
	C1033.684570,1191.062622 1007.210754,1190.408447 980.733948,1189.920410 
	C972.945984,1189.776733 969.205017,1193.145142 969.228760,1200.994263 
	C969.302307,1225.305664 969.550232,1249.620850 970.153748,1273.924072 
	C970.390320,1283.451538 974.251099,1286.642334 983.768555,1286.269897 
	C1005.737000,1285.410034 1027.698608,1284.371094 1049.660645,1283.355957 
	C1054.317993,1283.140747 1058.964844,1282.703857 1063.618408,1282.396851 
	C1066.550781,1282.203369 1067.943115,1283.584839 1067.840454,1286.549072 
	C1067.553101,1294.851074 1064.889160,1301.896606 1057.324829,1306.284790 
	C1045.896606,1312.914917 1033.482666,1316.939819 1020.629883,1319.573120 
	C1008.500427,1322.058228 996.290833,1324.154785 984.110291,1326.387695 
	C974.921082,1328.072266 970.147644,1332.811401 968.983765,1341.610840 
	C968.766235,1343.255249 968.747375,1344.935913 968.757812,1346.598999 
	C968.884216,1366.758057 968.980774,1386.917725 969.234558,1407.075317 
	C969.271606,1410.024292 969.974487,1412.986206 970.566345,1415.902222 
	C971.640137,1421.193115 975.144104,1423.663574 980.338074,1422.998901 
	C993.326904,1421.336548 1006.512817,1420.359863 1019.188477,1417.313965 
	C1036.333008,1413.194092 1053.302612,1408.039795 1069.923828,1402.136841 
	C1086.261108,1396.334717 1100.903198,1387.475220 1110.734131,1372.362305 
	C1111.541870,1371.120728 1112.933838,1370.259155 1114.379395,1368.919800 
	C1115.586548,1370.995605 1116.483032,1372.378662 1117.225830,1373.839722 
	C1121.955688,1383.143677 1128.804810,1389.912598 1139.106201,1392.893188 
	C1153.248535,1396.984741 1167.256714,1401.558960 1181.465088,1405.397949 
	C1196.086792,1409.348633 1211.003296,1411.740112 1226.238525,1411.477051 
	C1233.398071,1411.353516 1240.651733,1411.921143 1247.691772,1410.944214 
	C1255.117554,1409.913940 1262.724854,1408.314331 1269.572998,1405.377808 
	C1285.358398,1398.608643 1294.177490,1385.315918 1300.349121,1369.853516 
	C1308.113037,1350.401489 1310.120117,1329.833496 1310.767700,1309.344849 
	C1311.794434,1276.865112 1309.222046,1244.504883 1301.995239,1212.702271 
	C1300.340698,1205.421387 1297.105591,1198.584595 1288.802612,1196.654053 
	C1284.127319,1195.567139 1279.262695,1194.904663 1274.465820,1194.791138 
	C1231.501221,1193.772583 1188.535522,1192.747437 1145.564575,1192.077271 
	C1117.414185,1191.638184 1089.254761,1191.782837 1060.159424,1191.653320 
M1277.665039,1633.126343 
	C1288.456543,1625.364136 1297.289307,1615.771118 1304.339355,1604.523804 
	C1312.416992,1591.637451 1318.339844,1577.780273 1320.833740,1562.800903 
	C1324.247681,1542.295532 1322.051025,1522.182739 1315.310425,1502.434570 
	C1309.365601,1485.017700 1300.598511,1469.337036 1287.824219,1456.171143 
	C1268.869995,1436.635620 1244.618286,1428.037842 1218.325928,1424.676758 
	C1204.649170,1422.928467 1190.808350,1421.553711 1177.045166,1421.584839 
	C1148.924927,1421.648315 1120.806763,1422.759644 1092.688354,1423.471558 
	C1073.985229,1423.945068 1055.838989,1427.365601 1037.955811,1432.924072 
	C1013.080261,1440.655640 994.400269,1455.884888 981.640808,1478.299561 
	C972.882935,1493.684448 968.492920,1510.504028 965.789307,1528.040161 
	C962.828430,1547.245728 964.639343,1565.623901 970.565979,1583.944336 
	C977.837158,1606.421143 989.992981,1625.279297 1009.792847,1638.660156 
	C1027.433960,1650.582153 1047.433960,1655.869751 1068.226318,1658.309082 
	C1079.606812,1659.644165 1091.121460,1659.812500 1102.567993,1660.614502 
	C1146.946167,1663.723511 1190.908936,1661.256226 1234.439575,1651.589844 
	C1249.849487,1648.167847 1264.094116,1642.428345 1277.665039,1633.126343 
M597.977722,771.464355 
	C597.903748,775.129272 597.803955,778.793884 597.759766,782.459167 
	C597.100708,837.109314 596.414062,891.759155 595.837891,946.410156 
	C595.762390,953.567017 602.134460,960.655762 609.227966,961.454224 
	C615.997803,962.216248 622.825500,962.998230 629.617798,962.919617 
	C645.101562,962.740479 660.577148,961.944885 676.060242,961.581543 
	C687.868225,961.304443 690.781433,958.456909 690.962891,946.768066 
	C691.381958,919.779663 691.970947,892.793579 692.281555,865.804138 
	C692.337830,860.916870 694.190857,858.181885 698.965271,857.632263 
	C706.071350,856.814087 713.193726,856.135803 720.311646,855.423035 
	C727.639404,854.689148 728.020081,854.912292 727.832581,862.462036 
	C727.179138,888.775452 726.361877,915.084961 725.734741,941.398926 
	C725.656189,944.696045 726.077393,948.063904 726.724609,951.307800 
	C728.314270,959.275085 731.782227,961.737061 740.052490,961.399170 
	C748.372009,961.059265 756.697815,960.549622 765.017456,960.606018 
	C779.675720,960.705322 794.330322,961.285156 808.988831,961.450195 
	C816.304565,961.532593 819.695190,958.024109 819.686096,950.779480 
	C819.672913,940.282654 819.593384,929.784363 819.397278,919.289368 
	C818.547607,873.817505 816.920959,828.345581 816.989746,782.875793 
	C817.045349,746.082458 819.082886,709.290894 820.319214,672.501221 
	C820.685547,661.601196 819.261108,659.493530 808.636963,659.502686 
	C788.318176,659.520264 767.992615,659.794617 747.685730,660.451355 
	C741.896973,660.638550 736.408142,663.404053 734.570984,669.495300 
	C732.724243,675.618713 731.249146,682.016846 730.825623,688.375488 
	C729.664978,705.801453 729.044556,723.266541 728.431458,740.723877 
	C728.262512,745.533447 729.123474,750.379028 728.959167,755.189209 
	C728.912781,756.546936 726.965759,758.924683 725.791626,758.987427 
	C716.320190,759.493896 706.820374,759.815308 697.339478,759.639771 
	C693.224182,759.563538 690.601440,757.516357 690.739868,752.320801 
	C691.502625,723.683594 691.935730,695.037292 692.410339,666.392944 
	C692.511963,660.255676 690.177063,657.880188 684.044861,657.813049 
	C659.550720,657.544861 635.055908,657.311340 610.560852,657.162354 
	C602.085266,657.110779 598.977234,660.384399 598.898926,668.995361 
	C598.591370,702.821533 598.293274,736.647888 597.977722,771.464355 
M1593.133301,959.370422 
	C1605.128174,957.609192 1615.857788,953.399353 1624.172607,944.057251 
	C1635.156616,931.716064 1637.996948,916.334473 1638.259766,900.968201 
	C1638.769653,871.168579 1638.340210,841.311218 1637.048706,811.532043 
	C1635.064087,765.764038 1632.025879,720.041687 1629.424683,674.300476 
	C1629.339600,672.804504 1629.216309,671.303711 1628.988892,669.823975 
	C1628.248535,665.010559 1625.428345,662.322449 1620.624390,662.309753 
	C1597.461914,662.248474 1574.298340,662.177307 1551.136963,662.351013 
	C1542.958618,662.412354 1541.056763,665.320496 1541.772461,673.323608 
	C1543.521118,692.880554 1545.455200,712.443909 1546.307373,732.048340 
	C1546.735962,741.908081 1545.549683,751.984375 1540.423950,760.981506 
	C1536.635010,767.632019 1526.225586,772.590393 1519.544067,770.917236 
	C1511.533203,768.911194 1506.646484,761.977905 1506.870239,752.370239 
	C1507.040527,745.062744 1507.785522,737.768921 1507.966919,730.461365 
	C1508.446289,711.163025 1508.903931,691.861755 1509.069702,672.559082 
	C1509.142822,664.040405 1506.141724,661.213928 1497.530640,661.332886 
	C1476.377686,661.624878 1455.227539,662.130432 1434.077393,662.599976 
	C1428.250854,662.729309 1425.753662,665.401611 1425.705933,671.345825 
	C1425.626953,681.174438 1425.697632,691.005798 1425.492432,700.831604 
	C1424.950073,726.791809 1424.231812,752.748230 1423.706787,778.708740 
	C1423.410767,793.351440 1422.996094,808.006531 1423.300659,822.642212 
	C1423.586304,836.365967 1431.173218,845.867065 1444.154419,850.003845 
	C1465.720703,856.876526 1487.613525,855.469421 1509.362427,851.548950 
	C1519.116699,849.790649 1528.491943,845.992126 1538.119751,843.420593 
	C1540.110962,842.888916 1543.253174,842.857056 1544.494141,844.036621 
	C1548.282349,847.637512 1549.173462,857.326416 1545.770630,861.872620 
	C1542.670410,866.014771 1538.750000,869.932251 1534.385864,872.660889 
	C1524.217896,879.018433 1512.505371,880.293396 1500.813843,882.010437 
	C1481.038452,884.914734 1462.242676,881.350037 1443.468506,875.886719 
	C1435.880859,873.678650 1428.108887,872.068604 1420.367920,870.437378 
	C1416.435913,869.608765 1414.091919,871.773621 1413.034546,875.491394 
	C1411.680664,880.252258 1410.439331,885.050537 1408.912964,889.755981 
	C1404.166382,904.388489 1399.019897,918.899109 1394.637451,933.638062 
	C1392.924927,939.397949 1392.517700,945.618164 1392.109497,951.668762 
	C1391.829834,955.812927 1394.429199,958.623718 1398.557373,959.344971 
	C1403.467529,960.202820 1408.439819,961.199829 1413.392456,961.239868 
	C1445.051758,961.496033 1476.716187,961.818726 1508.372681,961.502808 
	C1536.337036,961.223755 1564.293335,960.142395 1593.133301,959.370422 
M1242.500000,645.482117 
	C1252.165039,645.525696 1261.830566,645.626709 1271.494873,645.564331 
	C1273.426270,645.551880 1275.525513,645.289612 1277.249756,644.495850 
	C1281.911377,642.349854 1283.164185,638.392151 1283.078369,633.407837 
	C1282.502075,599.929260 1281.974121,566.448730 1281.694336,532.966614 
	C1281.513428,511.311249 1281.836914,489.652130 1281.811035,467.994812 
	C1281.803467,461.708252 1278.510010,458.598022 1272.332275,458.385651 
	C1253.857422,457.750702 1235.382446,457.121857 1216.908813,456.453491 
	C1173.102295,454.868683 1129.357300,455.411865 1085.545410,457.623596 
	C1055.817017,459.124390 1025.933350,457.620850 996.120361,457.333313 
	C987.294556,457.248169 978.474915,456.634399 969.648560,456.443085 
	C963.962097,456.319855 962.514648,457.728119 962.022400,463.192657 
	C961.663696,467.174774 961.127625,471.160950 961.091736,475.149109 
	C960.614197,528.295410 960.184631,581.442261 959.831726,634.589600 
	C959.797729,639.704468 961.838074,641.300293 967.576904,641.355591 
	C995.237854,641.622009 1022.898987,641.869324 1050.560425,642.090149 
	C1057.701538,642.147156 1060.712524,639.065125 1060.395264,632.098572 
	C1059.834229,619.783813 1058.751831,607.470825 1058.759277,595.157654 
	C1058.768921,579.228088 1059.162720,563.265137 1060.310181,547.382935 
	C1060.969849,538.253479 1068.728760,532.694702 1076.090820,535.084229 
	C1082.229614,537.076660 1086.200562,542.130920 1087.198486,548.174866 
	C1088.674683,557.115479 1089.623413,566.291748 1089.400024,575.333130 
	C1088.947754,593.629272 1087.593384,611.904297 1086.539185,630.183838 
	C1085.988403,639.732605 1088.956177,644.269958 1097.541382,644.502991 
	C1120.189819,645.117676 1142.851562,645.342224 1165.509277,645.452209 
	C1171.744507,645.482483 1173.900879,642.940063 1173.592529,636.639404 
	C1173.104126,626.659912 1172.036865,616.707092 1171.619141,606.726074 
	C1170.839233,588.097107 1170.087524,569.459167 1169.855835,550.818420 
	C1169.747681,542.124207 1175.804321,534.560974 1181.989746,533.971802 
	C1190.369873,533.173645 1198.340210,540.168152 1198.195801,549.168762 
	C1197.945068,564.796143 1196.895874,580.408997 1196.463501,596.035767 
	C1196.086914,609.650574 1195.794434,623.282532 1196.080688,636.894043 
	C1196.206299,642.873962 1199.819580,645.357788 1206.005737,645.385681 
	C1217.837036,645.439087 1229.668579,645.448792 1242.500000,645.482117 
M1130.923462,82.537033 
	C1124.433472,80.657150 1117.943481,78.777504 1111.453613,76.897293 
	C1100.514404,73.728065 1089.600220,70.468513 1078.630005,67.410706 
	C1063.108032,63.084202 1047.541504,58.918358 1032.000244,54.661125 
	C1021.130737,51.683598 1010.275635,48.653278 999.406616,45.673912 
	C989.725769,43.020199 980.085571,40.193413 970.334045,37.828159 
	C959.711426,35.251614 954.728699,35.146770 954.782349,45.942196 
	C954.844421,58.427280 955.466187,70.908447 955.698914,83.394035 
	C956.360413,118.875504 956.997009,154.357620 957.528503,189.841202 
	C957.657043,198.425064 960.551453,200.933578 969.223389,199.865417 
	C984.390991,197.997086 999.570068,196.189804 1014.775757,194.671875 
	C1028.327271,193.319046 1041.903320,192.018188 1055.500732,191.360291 
	C1079.258667,190.210831 1103.036499,189.347458 1126.815918,188.815109 
	C1138.621094,188.550827 1150.465942,188.989441 1162.259521,189.680634 
	C1169.701416,190.116776 1172.364990,193.170166 1172.393677,200.626205 
	C1172.471191,220.782150 1172.271362,240.939285 1172.153931,261.095795 
	C1172.095703,271.077240 1171.817627,281.060394 1171.946655,291.038818 
	C1172.021606,296.830475 1174.018066,298.694794 1179.918579,299.005920 
	C1208.686401,300.522827 1237.454102,302.059692 1266.232056,303.362488 
	C1277.098877,303.854462 1278.811035,301.824341 1278.536987,290.703552 
	C1278.508301,289.538544 1278.416626,288.375000 1278.348999,287.211090 
	C1277.303833,269.248688 1275.877686,251.298874 1275.283325,233.321579 
	C1273.516479,179.869354 1271.977417,126.408928 1270.567383,72.945953 
	C1270.123169,56.108593 1262.125488,51.497425 1248.911255,50.729691 
	C1223.815552,49.271664 1198.679443,48.499168 1173.557739,47.503960 
	C1166.567627,47.227047 1164.310303,49.506939 1164.327026,56.597229 
	C1164.346802,64.926971 1164.689819,73.263428 1164.450317,81.584251 
	C1164.199097,90.311241 1161.882568,91.901009 1153.446411,89.539650 
	C1146.130493,87.491798 1138.898071,85.145775 1130.923462,82.537033 
M1060.110962,960.415710 
	C1065.428223,960.076172 1070.741211,959.587952 1076.063843,959.432556 
	C1083.805420,959.206543 1085.561890,957.326477 1085.736816,949.553284 
	C1086.107178,933.090332 1086.703003,916.632568 1087.167236,900.171570 
	C1087.245239,897.404663 1088.059570,895.938049 1091.297119,896.052429 
	C1102.782104,896.458069 1114.275513,896.723511 1125.767090,896.776794 
	C1129.211304,896.792786 1130.640625,897.873413 1131.482178,901.340271 
	C1135.518555,917.967407 1136.490601,934.881226 1136.964478,951.877991 
	C1137.149414,958.516296 1139.956299,961.479797 1146.536865,961.337219 
	C1171.682373,960.792664 1196.826172,960.111328 1221.962402,959.243774 
	C1228.636353,959.013428 1231.771606,954.916870 1231.085693,948.242981 
	C1230.763184,945.104736 1230.007812,942.011841 1229.470215,938.894653 
	C1227.611816,928.118164 1225.766357,917.339417 1223.909180,906.562683 
	C1221.911011,894.968323 1220.108276,883.335510 1217.850464,871.791809 
	C1215.207764,858.279358 1212.123535,844.853821 1209.309692,831.374146 
	C1206.811890,819.408264 1204.641357,807.369812 1201.921753,795.455811 
	C1199.308228,784.006714 1196.295532,772.643738 1193.238281,761.302307 
	C1190.000610,749.291321 1186.899780,737.220154 1183.022827,725.410339 
	C1177.786865,709.461060 1172.170288,693.619263 1166.124878,677.959900 
	C1162.616943,668.872986 1162.188843,666.569458 1150.923706,666.611145 
	C1119.435669,666.727722 1087.946167,666.433960 1056.457275,666.348755 
	C1048.551880,666.327393 1045.453369,668.157166 1042.934204,675.441467 
	C1040.394897,682.784180 1038.449219,690.341309 1036.449463,697.859375 
	C1033.507690,708.919128 1030.609619,719.994324 1027.953369,731.125122 
	C1025.539917,741.238098 1023.403687,751.419128 1021.273926,761.597168 
	C1018.702454,773.885986 1015.884888,786.141174 1013.870483,798.524231 
	C1011.472229,813.266602 1009.827087,828.131104 1007.831116,842.939331 
	C1005.414856,860.865601 1002.832214,878.770752 1000.590271,896.718628 
	C999.046631,909.076416 997.883972,921.484131 996.700684,933.883728 
	C996.116272,940.007568 995.679565,946.158813 995.525879,952.306396 
	C995.376038,958.296387 998.069519,961.363770 1003.727112,961.322632 
	C1022.212341,961.188232 1040.695679,960.799744 1060.110962,960.415710 
M1130.934937,303.174500 
	C1134.718140,302.595795 1138.535889,302.181610 1142.275757,301.396637 
	C1146.925781,300.420624 1149.559326,297.426178 1149.473022,292.587921 
	C1149.092651,271.262115 1148.688354,249.936188 1148.140137,228.614227 
	C1147.985840,222.615265 1145.116089,219.962082 1139.008179,219.699936 
	C1099.045898,217.984879 1059.077271,217.608124 1019.134399,220.026123 
	C1001.229065,221.110046 983.363403,222.845001 965.476501,224.242142 
	C960.713501,224.614166 959.508789,227.472061 959.567383,231.738922 
	C959.860046,253.065323 960.031433,274.393341 960.260010,295.720673 
	C960.332336,302.470520 962.741211,304.960358 969.649841,304.933777 
	C982.308838,304.885040 994.968079,304.496918 1007.625183,304.576202 
	C1012.391846,304.606049 1017.370605,304.844971 1021.858704,306.248322 
	C1026.903320,307.825653 1030.244995,314.416412 1029.592651,319.029419 
	C1028.607300,325.998993 1023.505676,331.309265 1016.230408,332.670502 
	C1000.299927,335.651184 984.335510,334.298401 968.457703,332.402313 
	C960.763550,331.483459 959.292664,332.237335 959.451172,340.158386 
	C959.731323,354.152649 960.137451,368.146667 960.206848,382.142212 
	C960.272949,395.471466 959.917297,408.802277 959.864868,422.132874 
	C959.840088,428.427368 962.325012,430.763367 968.700684,430.881897 
	C969.866638,430.903595 971.033691,430.884155 972.200012,430.868500 
	C1025.498901,430.154114 1078.796143,429.201385 1132.097290,428.810913 
	C1164.083862,428.576538 1196.076660,429.230011 1228.066895,429.463531 
	C1241.896973,429.564484 1255.728638,429.763672 1269.556763,429.626709 
	C1277.563843,429.547424 1280.916138,426.373169 1280.724365,419.479523 
	C1279.973877,392.495972 1279.156494,365.514008 1278.258911,338.534943 
	C1278.017944,331.289032 1274.912598,328.395081 1267.599365,328.480255 
	C1245.284180,328.740143 1222.970337,329.124451 1200.655762,329.438873 
	C1178.495605,329.751129 1156.335693,330.090240 1134.174561,330.297302 
	C1128.746216,330.348022 1123.356445,329.310486 1119.887451,324.694611 
	C1113.080688,315.637085 1117.761719,305.993317 1130.934937,303.174500 
M1301.021118,1161.589600 
	C1303.294678,1151.129395 1306.244751,1140.762695 1307.704346,1130.190063 
	C1310.975708,1106.495483 1309.220581,1083.054199 1301.906738,1060.166382 
	C1294.700806,1037.615723 1281.821899,1019.021240 1262.442871,1005.316406 
	C1240.685425,989.929382 1215.574585,983.364746 1189.692871,980.156067 
	C1172.886353,978.072510 1155.812744,977.596436 1138.849243,977.439514 
	C1102.882812,977.106750 1066.877563,977.303650 1032.053101,988.301575 
	C1018.965637,992.434753 1006.772217,998.312927 996.175232,1007.358704 
	C974.720947,1025.672485 966.079102,1050.232666 964.632751,1076.990601 
	C963.497681,1097.988647 965.664307,1119.195679 966.943115,1140.274780 
	C967.317688,1146.450195 969.511292,1152.550171 971.177307,1158.600464 
	C972.305115,1162.696411 975.088806,1165.766846 979.422241,1166.265747 
	C988.005981,1167.254150 996.632812,1167.934692 1005.258789,1168.469604 
	C1012.737854,1168.933350 1020.238525,1169.106689 1027.732666,1169.257202 
	C1048.388794,1169.672485 1069.046021,1170.057129 1089.704224,1170.339722 
	C1094.501465,1170.405396 1096.788452,1168.216553 1095.840454,1163.501099 
	C1094.878906,1158.718018 1093.131958,1153.907349 1090.787720,1149.624023 
	C1084.963867,1138.983032 1078.121948,1128.883423 1072.578613,1118.108643 
	C1065.365601,1104.088623 1068.345093,1090.722534 1082.822998,1082.999634 
	C1096.661011,1075.618164 1111.742920,1073.799438 1126.929565,1072.714355 
	C1136.216187,1072.050781 1145.621094,1072.035278 1154.910278,1072.658813 
	C1167.490601,1073.503296 1180.008911,1075.419922 1191.424072,1081.279053 
	C1195.378540,1083.308838 1199.204224,1085.883057 1202.489746,1088.867920 
	C1212.485229,1097.948486 1213.547607,1109.182373 1205.668213,1121.765503 
	C1197.311768,1135.110596 1187.317871,1147.471558 1182.380371,1162.803467 
	C1180.262085,1169.381348 1182.754150,1173.673706 1189.744263,1173.957153 
	C1214.204712,1174.948853 1238.664551,1175.959961 1263.127563,1176.885254 
	C1267.945679,1177.067505 1272.805908,1177.236572 1277.596191,1176.824951 
	C1287.711060,1175.955933 1296.366089,1172.439331 1301.021118,1161.589600 
M1016.417236,1851.553467 
	C1010.282043,1851.082275 1004.058716,1849.720947 998.029236,1850.317749 
	C983.675293,1851.738647 975.208984,1856.506958 971.513672,1871.056885 
	C969.044067,1880.780762 967.744873,1890.924683 967.074158,1900.957764 
	C965.534973,1923.981323 966.593628,1946.880859 974.978760,1968.747314 
	C982.717896,1988.929077 996.261719,2004.040894 1016.072632,2013.103394 
	C1028.244141,2018.671265 1041.164917,2020.920288 1054.490112,2022.143311 
	C1077.644531,2024.268677 1100.020386,2021.392090 1121.211548,2012.188599 
	C1137.888672,2004.945312 1151.656616,1993.398804 1163.216553,1979.225952 
	C1174.132202,1965.843506 1185.187134,1952.561646 1196.586182,1939.591919 
	C1201.895264,1933.551147 1208.683472,1929.241211 1216.710693,1927.241455 
	C1223.754150,1925.486694 1232.700073,1929.101929 1233.894531,1935.520386 
	C1234.914185,1940.999756 1235.179321,1947.460693 1233.217041,1952.487793 
	C1228.347656,1964.963745 1221.987183,1976.855591 1216.279053,1989.007080 
	C1212.935547,1996.124512 1215.928955,2000.941284 1223.600342,2000.777344 
	C1240.926758,2000.407227 1258.258545,2000.154907 1275.574829,1999.500488 
	C1286.878784,1999.073364 1298.149658,1997.766357 1309.453735,1997.345215 
	C1316.972046,1997.065063 1320.038940,1992.649536 1322.271729,1986.359741 
	C1327.626831,1971.275635 1328.498535,1955.409912 1329.578247,1939.787231 
	C1330.838135,1921.556396 1329.303955,1903.359253 1324.316650,1885.434326 
	C1319.286011,1867.353516 1308.814697,1853.931274 1292.915161,1844.819336 
	C1268.107788,1830.602295 1241.119873,1826.490479 1213.001465,1829.897583 
	C1201.872559,1831.246094 1191.117310,1834.417725 1181.148438,1840.004028 
	C1164.801392,1849.164795 1152.723999,1862.869263 1141.015137,1876.984131 
	C1132.200562,1887.610352 1124.044312,1898.818848 1114.765869,1909.013306 
	C1106.280884,1918.335815 1096.405640,1925.923828 1082.433472,1924.717773 
	C1076.369019,1924.194214 1070.002563,1920.737183 1069.156494,1915.215332 
	C1068.302734,1909.642700 1067.987061,1903.358398 1069.730103,1898.154297 
	C1072.902832,1888.681763 1077.763794,1879.773560 1081.937744,1870.637695 
	C1085.375610,1863.113281 1083.273682,1860.421143 1074.934326,1859.664917 
	C1063.547241,1858.632324 1052.229736,1856.800293 1040.898071,1855.200562 
	C1033.027466,1854.089233 1025.183105,1852.791992 1016.417236,1851.553467 
M969.876587,1723.968018 
	C969.392395,1725.381104 968.686890,1726.759277 968.457520,1728.212524 
	C965.323303,1748.068481 964.841003,1767.757568 970.602295,1787.383301 
	C975.477417,1803.990234 984.696594,1817.212280 998.722290,1827.188477 
	C1014.620667,1838.496582 1032.691162,1843.896240 1051.713623,1846.888306 
	C1069.648926,1849.709473 1087.386597,1849.375000 1105.194336,1845.550781 
	C1123.297607,1841.662964 1138.957520,1833.166260 1151.497925,1819.999268 
	C1163.626343,1807.264160 1174.322144,1793.161743 1185.599731,1779.620361 
	C1191.833618,1772.135254 1198.454346,1764.999756 1207.776123,1761.486572 
	C1218.517578,1757.438477 1228.391235,1761.648926 1228.299072,1774.572144 
	C1228.213135,1786.635132 1224.653564,1797.710449 1220.842285,1808.828857 
	C1218.986938,1814.241699 1220.161987,1816.922363 1225.702271,1817.673096 
	C1232.945679,1818.654663 1240.252075,1819.202881 1247.542603,1819.800659 
	C1261.755859,1820.966187 1275.989136,1823.030518 1290.191528,1822.858765 
	C1303.643677,1822.695923 1314.194214,1815.988281 1319.738892,1802.921021 
	C1323.754517,1793.457764 1325.595581,1783.597534 1325.317993,1773.347290 
	C1324.801270,1754.266357 1324.575439,1735.236206 1317.344116,1716.991821 
	C1305.024780,1685.911011 1281.049194,1669.872803 1249.398315,1664.671753 
	C1229.961304,1661.477905 1210.310913,1661.959106 1191.036133,1667.755127 
	C1178.171143,1671.623535 1165.904785,1676.725464 1156.752808,1686.583008 
	C1144.326050,1699.968018 1132.870239,1714.255981 1121.035034,1728.188232 
	C1111.026489,1739.969971 1101.293335,1751.995728 1090.985962,1763.508545 
	C1086.660400,1768.339966 1080.542725,1770.603271 1074.153931,1767.618408 
	C1068.072632,1764.777100 1066.522339,1759.096069 1066.206543,1752.685059 
	C1065.616943,1740.719482 1068.813477,1729.629517 1073.803833,1719.077148 
	C1079.603149,1706.814819 1086.211670,1694.937500 1092.194214,1682.758179 
	C1094.890503,1677.268799 1093.658203,1674.684448 1087.485962,1673.791504 
	C1076.638306,1672.222290 1065.692505,1671.323486 1054.783081,1670.189331 
	C1043.721313,1669.039185 1032.651978,1667.961548 1021.589478,1666.818604 
	C1013.491577,1665.981934 1005.410645,1664.957764 997.301025,1664.264404 
	C990.400879,1663.674561 985.579956,1667.412476 983.353149,1673.391846 
	C980.018311,1682.346436 977.397217,1691.591919 974.925720,1700.834961 
	C972.962463,1708.177734 971.678101,1715.701782 969.876587,1723.968018 
M1188.681519,681.186462 
	C1190.408813,689.627380 1192.185425,698.058594 1193.849854,706.511902 
	C1195.604004,715.421082 1197.003296,724.407349 1199.005615,733.258667 
	C1201.706299,745.197693 1204.798096,757.049133 1207.789551,768.921204 
	C1211.070923,781.943848 1214.348755,794.968323 1217.779907,807.951904 
	C1220.349609,817.676147 1223.170166,827.333923 1225.860229,837.026550 
	C1229.577026,850.418274 1233.160522,863.848206 1237.015503,877.199951 
	C1240.915649,890.708435 1245.032471,904.155090 1249.138062,917.603271 
	C1252.260986,927.832703 1255.217773,938.127502 1258.791992,948.200378 
	C1262.613892,958.971069 1266.335449,961.331116 1277.794189,961.349854 
	C1300.785156,961.387451 1323.776611,961.370483 1346.767334,961.272888 
	C1358.375244,961.223572 1361.853271,958.812378 1364.968872,947.522949 
	C1370.019409,929.221252 1374.896973,910.862427 1379.337524,892.405090 
	C1382.464966,879.406189 1384.800659,866.214478 1387.387573,853.088684 
	C1389.181641,843.985840 1390.729248,834.834412 1392.520752,825.731018 
	C1394.114258,817.632996 1396.133789,809.612915 1397.535400,801.484314 
	C1400.149780,786.322388 1402.490845,771.112793 1404.872314,755.911499 
	C1406.921387,742.831421 1409.193115,729.774475 1410.774170,716.635986 
	C1412.518799,702.137695 1413.554077,687.554871 1414.969238,673.015747 
	C1415.539185,667.161438 1412.791382,663.463013 1406.956421,662.693359 
	C1405.478271,662.498352 1403.961304,662.537354 1402.463623,662.560364 
	C1381.663330,662.880432 1360.861572,663.135254 1340.063843,663.582886 
	C1329.761841,663.804565 1327.932495,665.729248 1327.234253,675.822083 
	C1327.165649,676.814880 1326.957397,677.797241 1326.838013,678.787354 
	C1325.288330,691.641113 1323.757690,704.497192 1322.192139,717.349060 
	C1320.488770,731.332153 1318.912964,745.333435 1316.987793,759.286316 
	C1315.061279,773.247803 1312.890015,787.178772 1310.593506,801.084656 
	C1309.374634,808.465759 1307.662354,815.765381 1306.172852,823.101746 
	C1305.727905,823.111877 1305.282959,823.122009 1304.838013,823.132141 
	C1303.372192,816.736267 1301.803955,810.361755 1300.463623,803.939697 
	C1298.230591,793.240173 1296.156494,782.507507 1293.990967,771.793762 
	C1291.985474,761.872253 1289.834717,751.978638 1287.956665,742.033325 
	C1286.055176,731.964172 1284.529663,721.823975 1282.620605,711.756409 
	C1280.456543,700.344177 1277.728760,689.030762 1275.841309,677.576355 
	C1274.104370,667.035400 1268.868408,661.752991 1258.198486,661.893372 
	C1239.211548,662.143005 1220.230225,662.816772 1201.243164,663.059753 
	C1187.765015,663.232300 1184.632935,667.253906 1188.681519,681.186462 
M838.420044,720.488403 
	C838.020752,729.144165 837.303467,737.798767 837.272705,746.455872 
	C837.035278,813.277832 836.904480,880.100159 836.822998,946.922546 
	C836.814148,954.193359 841.891113,959.456055 849.180847,959.944702 
	C854.826172,960.323059 860.502869,960.423096 866.162659,960.363770 
	C890.989807,960.103638 915.817932,959.844116 940.640930,959.344421 
	C947.099609,959.214478 953.675049,958.807373 959.935669,957.380981 
	C963.242432,956.627502 967.327087,954.039246 968.690063,951.158020 
	C971.102234,946.059021 972.035217,940.159241 972.982605,934.493408 
	C974.239441,926.977173 974.950806,919.367859 975.833008,911.791199 
	C976.963989,902.078979 978.289246,892.378967 979.028931,882.635559 
	C979.461975,876.932129 976.273132,874.062073 970.415527,874.365540 
	C955.618347,875.131958 940.824463,876.005066 926.046021,877.068726 
	C919.579285,877.534119 917.745178,876.361816 917.572571,869.895874 
	C917.376892,862.567871 917.695496,855.220825 917.333984,847.904602 
	C917.135620,843.892273 918.605957,842.564148 922.389893,842.583252 
	C941.365601,842.679260 960.352234,842.307739 979.313538,842.851196 
	C988.636780,843.118347 992.862854,838.938110 993.258484,829.986755 
	C993.942383,814.512817 994.119568,799.015686 994.444580,783.526917 
	C994.593933,776.407288 991.367676,773.220520 984.246826,773.197998 
	C963.427795,773.132141 942.608704,773.048645 921.789673,773.004395 
	C919.142517,772.998779 916.575989,773.055176 916.711121,769.321289 
	C916.981873,761.840942 916.773193,754.300781 917.677124,746.896973 
	C918.733948,738.240112 919.156189,738.318176 927.955200,738.657837 
	C948.592712,739.454712 969.229187,740.287720 989.870605,740.966187 
	C996.305847,741.177612 998.307800,739.222900 998.526550,732.858215 
	C999.167297,714.215820 999.702881,695.569763 1000.270447,676.924927 
	C1000.589417,666.444763 998.871704,664.638306 988.461609,664.352417 
	C969.639221,663.835510 950.820190,663.064514 931.994446,662.831543 
	C905.013916,662.497559 878.027771,662.393372 851.045776,662.533752 
	C842.768799,662.576782 838.398560,667.754822 838.400513,675.997986 
	C838.403992,690.496338 838.437256,704.994690 838.420044,720.488403 
M479.322540,730.464355 
	C478.094025,772.931335 476.900482,815.399353 475.589508,857.863770 
	C475.437805,862.776978 477.065796,866.470459 480.927429,869.472046 
	C484.071960,871.916260 486.922546,874.735718 489.942780,877.343262 
	C512.107178,896.478882 534.239502,915.652161 556.508667,934.665039 
	C559.137085,936.909058 562.533630,938.253357 565.574097,940.014771 
	C566.631714,936.668945 568.427246,933.365112 568.620728,929.970032 
	C569.520935,914.175659 570.190063,898.360718 570.539368,882.544250 
	C570.977112,862.722412 570.791748,842.886353 571.281067,823.066406 
	C572.629822,768.439453 574.116394,713.815491 575.771606,659.197144 
	C575.953491,653.194702 573.466675,650.009033 568.406006,647.633850 
	C543.889954,636.127319 519.429138,624.502808 494.974304,612.866272 
	C487.474457,609.297668 482.706512,612.184509 482.467346,620.573425 
	C481.432281,656.876709 480.390045,693.179749 479.322540,730.464355 
M836.846497,615.999695 
	C833.528931,614.913330 830.223389,613.788513 826.891663,612.747498 
	C814.230774,608.791504 801.892761,604.651489 788.080383,604.740417 
	C744.600708,605.020203 701.114258,604.074768 657.629333,603.739746 
	C613.478577,603.399597 569.326538,603.169312 525.174805,603.113464 
	C522.761841,603.110413 520.346252,605.153442 517.931885,606.244019 
	C519.942444,607.975159 521.677979,610.380798 524.007141,611.330750 
	C542.694397,618.952454 561.625916,625.986816 580.208801,633.848328 
	C591.198914,638.497742 602.035767,641.717285 614.260254,641.207764 
	C641.053101,640.091003 667.883240,639.573120 694.701538,639.424316 
	C756.349731,639.082336 818.000000,639.102051 879.649414,638.998352 
	C882.622620,638.993347 886.090271,638.892700 886.010803,635.273438 
	C885.973389,633.569702 883.105530,631.110840 881.037292,630.400696 
	C866.635620,625.455322 852.107239,620.878906 836.846497,615.999695 
M1437.501465,645.609253 
	C1452.657227,645.542175 1467.814941,645.580078 1482.967285,645.315918 
	C1485.861206,645.265503 1488.734497,644.023804 1491.617432,643.331665 
	C1491.671143,642.577637 1491.724854,641.823547 1491.778564,641.069519 
	C1488.534058,639.855774 1485.382324,638.065430 1482.029297,637.526917 
	C1466.482666,635.030029 1450.877197,632.900024 1435.299194,630.595825 
	C1429.727661,629.771729 1424.162109,628.894775 1418.614624,627.923462 
	C1408.490967,626.150818 1398.402100,624.172668 1388.262939,622.496521 
	C1376.634766,620.574219 1364.974365,618.841370 1353.315674,617.110352 
	C1341.480347,615.353088 1329.654541,613.495056 1317.779297,612.054382 
	C1305.142212,610.521240 1301.620483,614.608521 1303.317261,626.458008 
	C1303.434692,627.278564 1303.395874,628.120850 1303.444946,628.952087 
	C1304.150146,640.904785 1307.472168,644.049194 1319.590576,644.195679 
	C1358.560913,644.666565 1397.531372,645.130737 1437.501465,645.609253 
z" class="svgShape colorffffff-0 selectable"></path><path d="M940.194824 1136.350098C940.378418 1233.459595 940.218201 1330.108154 940.856201 1426.751343 941.576904 1535.899414 942.856384 1645.0448 944.197571 1754.1875 945.075928 1825.666504 946.495483 1897.139038 947.671631 1968.61438 947.68811 1969.614136 947.650574 1970.616455 947.708496 1971.613525 947.947632 1975.72937 946.474731 1978.994385 942.34375 1980.053223 938.194153 1981.116821 936.005798 1978.341675 934.290955 1974.965454 926.481934 1959.591064 918.7052 1944.198853 910.726074 1928.91272 894.851562 1898.501099 878.805725 1868.179077 862.914978 1837.775879 842.80304 1799.296509 822.777039 1760.772339 802.702698 1722.273438 802.090637 1721.099487 801.375 1719.977417 800.673157 1718.852661 795.531067 1710.613647 793.573486 1701.859253 793.641235 1691.953491 794.493347 1567.307617 794.923401 1442.658813 795.614868 1318.011597 796.062317 1237.358521 796.736511 1156.706665 797.36145 1076.054688 797.580872 1047.728516 797.945557 1019.403564 798.26709 991.078308 798.350464 983.731628 799.705078 981.672424 807.132324 981.167908 816.91394 980.50354 826.759521 980.643921 836.577026 980.667908 865.738953 980.739136 894.900696 980.907349 924.062317 981.069336 939.026001 981.152466 939.947937 982.229858 939.956421 996.912292 939.983276 1043.237061 940.113281 1089.56189 940.194824 1136.350098zM798.383789 215.999893C798.394958 181.340332 798.288818 147.179977 798.527405 113.022018 798.568726 107.110031 799.679138 101.118813 801.003967 95.326195 802.409851 89.179619 806.251038 85.061874 812.530884 82.727539 835.832947 74.065742 859.017822 65.085945 882.196411 56.09597 895.153992 51.070293 908.010315 45.7836 920.918884 40.6311 922.46106 40.015537 924.020874 39.421677 925.61377 38.95998 930.658997 37.497612 933.636658 39.613018 933.930298 44.947788 934.067383 47.438293 933.952332 49.944916 933.901306 52.443207 933.214417 86.082817 931.690491 119.729134 931.970154 153.360519 933.108765 290.320038 934.809387 427.274872 936.274353 564.23175 936.475769 583.059814 936.56897 601.889404 936.610596 620.718567 936.634155 631.424927 932.859314 633.586914 923.020447 629.618652 900.212646 620.4198 877.240601 611.629089 854.390686 602.533386 838.415283 596.174255 822.553406 589.530518 806.597778 583.120911 798.93927 580.044495 796.58136 573.924622 796.668518 566.409607 796.929382 543.917053 797.453857 521.426575 797.574036 498.933624 797.92041 434.116455 798.152954 369.298645 798.359863 304.480804 798.453491 275.154114 798.380615 245.826889 798.383789 215.999893zM1060.629395 1191.659668C1089.254761 1191.782837 1117.414185 1191.638184 1145.564575 1192.077271 1188.535522 1192.747437 1231.501221 1193.772583 1274.46582 1194.791138 1279.262695 1194.904663 1284.127319 1195.567139 1288.802612 1196.654053 1297.105591 1198.584595 1300.340698 1205.421387 1301.995239 1212.702271 1309.222046 1244.504883 1311.794434 1276.865112 1310.7677 1309.344849 1310.120117 1329.833496 1308.113037 1350.401489 1300.349121 1369.853516 1294.17749 1385.315918 1285.358398 1398.608643 1269.572998 1405.377808 1262.724854 1408.314331 1255.117554 1409.91394 1247.691772 1410.944214 1240.651733 1411.921143 1233.398071 1411.353516 1226.238525 1411.477051 1211.003296 1411.740112 1196.086792 1409.348633 1181.465088 1405.397949 1167.256714 1401.55896 1153.248535 1396.984741 1139.106201 1392.893188 1128.80481 1389.912598 1121.955688 1383.143677 1117.22583 1373.839722 1116.483032 1372.378662 1115.586548 1370.995605 1114.379395 1368.9198 1112.933838 1370.259155 1111.54187 1371.120728 1110.734131 1372.362305 1100.903198 1387.47522 1086.261108 1396.334717 1069.923828 1402.136841 1053.302612 1408.039795 1036.333008 1413.194092 1019.188477 1417.313965 1006.512817 1420.359863 993.326904 1421.336548 980.338074 1422.998901 975.144104 1423.663574 971.640137 1421.193115 970.566345 1415.902222 969.974487 1412.986206 969.271606 1410.024292 969.234558 1407.075317 968.980774 1386.917725 968.884216 1366.758057 968.757812 1346.598999 968.747375 1344.935913 968.766235 1343.255249 968.983765 1341.61084 970.147644 1332.811401 974.921082 1328.072266 984.110291 1326.387695 996.290833 1324.154785 1008.500427 1322.058228 1020.629883 1319.57312 1033.482666 1316.939819 1045.896606 1312.914917 1057.324829 1306.28479 1064.88916 1301.896606 1067.553101 1294.851074 1067.840454 1286.549072 1067.943115 1283.584839 1066.550781 1282.203369 1063.618408 1282.396851 1058.964844 1282.703857 1054.317993 1283.140747 1049.660645 1283.355957 1027.698608 1284.371094 1005.737 1285.410034 983.768555 1286.269897 974.251099 1286.642334 970.39032 1283.451538 970.153748 1273.924072 969.550232 1249.62085 969.302307 1225.305664 969.22876 1200.994263 969.205017 1193.145142 972.945984 1189.776733 980.733948 1189.92041 1007.210754 1190.408447 1033.68457 1191.062622 1060.629395 1191.659668M1180.158447 1322.265625C1190.408081 1322.89917 1200.653564 1323.937378 1210.908569 1324.042847 1219.6875 1324.133057 1228.840942 1317.499268 1229.75 1310.603149 1230.783447 1302.76062 1231.245361 1294.803833 1231.347046 1286.888916 1231.437622 1279.841919 1228.550781 1276.819214 1221.377075 1276.768555 1202.085083 1276.632568 1182.790039 1276.911011 1163.496338 1277.054565 1149.608887 1277.157837 1149.427734 1277.342163 1150.295898 1291.335815 1151.103271 1304.348999 1156.252686 1314.396118 1169.416992 1318.835693 1172.718018 1319.948853 1176.034546 1321.016357 1180.158447 1322.265625zM1277.406128 1633.376953C1264.094116 1642.428345 1249.849487 1648.167847 1234.439575 1651.589844 1190.908936 1661.256226 1146.946167 1663.723511 1102.567993 1660.614502 1091.12146 1659.8125 1079.606812 1659.644165 1068.226318 1658.309082 1047.43396 1655.869751 1027.43396 1650.582153 1009.792847 1638.660156 989.992981 1625.279297 977.837158 1606.421143 970.565979 1583.944336 964.639343 1565.623901 962.82843 1547.245728 965.789307 1528.040161 968.49292 1510.504028 972.882935 1493.684448 981.640808 1478.299561 994.400269 1455.884888 1013.080261 1440.65564 1037.955811 1432.924072 1055.838989 1427.365601 1073.985229 1423.945068 1092.688354 1423.471558 1120.806763 1422.759644 1148.924927 1421.648315 1177.045166 1421.584839 1190.80835 1421.553711 1204.64917 1422.928467 1218.325928 1424.676758 1244.618286 1428.037842 1268.869995 1436.63562 1287.824219 1456.171143 1300.598511 1469.337036 1309.365601 1485.0177 1315.310425 1502.43457 1322.051025 1522.182739 1324.247681 1542.295532 1320.83374 1562.800903 1318.339844 1577.780273 1312.416992 1591.637451 1304.339355 1604.523804 1297.289307 1615.771118 1288.456543 1625.364136 1277.406128 1633.376953M1106.177246 1574.405273C1110.752563 1575.161255 1115.303345 1576.325806 1119.907471 1576.601685 1138.49707 1577.715698 1157.051025 1579.450073 1175.682495 1576.111694 1188.852051 1573.751953 1201.657471 1570.564697 1213.242188 1563.839966 1222.691895 1558.354614 1229.813721 1551.070068 1229.015503 1538.768433 1228.324829 1528.127197 1221.57251 1522.080322 1213.269653 1517.348389 1200.616821 1510.137207 1186.341553 1507.939941 1172.268921 1507.105103 1148.735718 1505.709229 1125.063721 1504.288086 1101.701904 1509.927368 1089.478027 1512.878052 1077.755981 1516.65918 1068.05957 1525.061523 1059.032715 1532.883911 1057.564819 1544.988892 1065.58667 1553.8396 1070.033081 1558.745605 1075.720825 1563.042114 1081.663818 1565.946167 1089.121216 1569.589966 1097.413574 1571.525269 1106.177246 1574.405273zM597.984741 770.969238C598.293274 736.647888 598.59137 702.821533 598.898926 668.995361 598.977234 660.384399 602.085266 657.110779 610.560852 657.162354 635.055908 657.31134 659.55072 657.544861 684.044861 657.813049 690.177063 657.880188 692.511963 660.255676 692.410339 666.392944 691.93573 695.037292 691.502625 723.683594 690.739868 752.320801 690.60144 757.516357 693.224182 759.563538 697.339478 759.639771 706.820374 759.815308 716.32019 759.493896 725.791626 758.987427 726.965759 758.924683 728.912781 756.546936 728.959167 755.189209 729.123474 750.379028 728.262512 745.533447 728.431458 740.723877 729.044556 723.266541 729.664978 705.801453 730.825623 688.375488 731.249146 682.016846 732.724243 675.618713 734.570984 669.4953 736.408142 663.404053 741.896973 660.63855 747.68573 660.451355 767.992615 659.794617 788.318176 659.520264 808.636963 659.502686 819.261108 659.49353 820.685547 661.601196 820.319214 672.501221 819.082886 709.290894 817.045349 746.082458 816.989746 782.875793 816.920959 828.345581 818.547607 873.817505 819.397278 919.289368 819.593384 929.784363 819.672913 940.282654 819.686096 950.77948 819.69519 958.024109 816.304565 961.532593 808.988831 961.450195 794.330322 961.285156 779.67572 960.705322 765.017456 960.606018 756.697815 960.549622 748.372009 961.059265 740.05249 961.39917 731.782227 961.737061 728.31427 959.275085 726.724609 951.3078 726.077393 948.063904 725.656189 944.696045 725.734741 941.398926 726.361877 915.084961 727.179138 888.775452 727.832581 862.462036 728.020081 854.912292 727.639404 854.689148 720.311646 855.423035 713.193726 856.135803 706.07135 856.814087 698.965271 857.632263 694.190857 858.181885 692.33783 860.91687 692.281555 865.804138 691.970947 892.793579 691.381958 919.779663 690.962891 946.768066 690.781433 958.456909 687.868225 961.304443 676.060242 961.581543 660.577148 961.944885 645.101562 962.740479 629.617798 962.919617 622.8255 962.99823 615.997803 962.216248 609.227966 961.454224 602.13446 960.655762 595.76239 953.567017 595.837891 946.410156 596.414062 891.759155 597.100708 837.109314 597.759766 782.459167 597.803955 778.793884 597.903748 775.129272 597.984741 770.969238zM1592.693237 959.392883C1564.293335 960.142395 1536.337036 961.223755 1508.372681 961.502808 1476.716187 961.818726 1445.051758 961.496033 1413.392456 961.239868 1408.439819 961.199829 1403.467529 960.20282 1398.557373 959.344971 1394.429199 958.623718 1391.829834 955.812927 1392.109497 951.668762 1392.5177 945.618164 1392.924927 939.397949 1394.637451 933.638062 1399.019897 918.899109 1404.166382 904.388489 1408.912964 889.755981 1410.439331 885.050537 1411.680664 880.252258 1413.034546 875.491394 1414.091919 871.773621 1416.435913 869.608765 1420.36792 870.437378 1428.108887 872.068604 1435.880859 873.67865 1443.468506 875.886719 1462.242676 881.350037 1481.038452 884.914734 1500.813843 882.010437 1512.505371 880.293396 1524.217896 879.018433 1534.385864 872.660889 1538.75 869.932251 1542.67041 866.014771 1545.77063 861.87262 1549.173462 857.326416 1548.282349 847.637512 1544.494141 844.036621 1543.253174 842.857056 1540.110962 842.888916 1538.119751 843.420593 1528.491943 845.992126 1519.116699 849.790649 1509.362427 851.54895 1487.613525 855.469421 1465.720703 856.876526 1444.154419 850.003845 1431.173218 845.867065 1423.586304 836.365967 1423.300659 822.642212 1422.996094 808.006531 1423.410767 793.35144 1423.706787 778.70874 1424.231812 752.74823 1424.950073 726.791809 1425.492432 700.831604 1425.697632 691.005798 1425.626953 681.174438 1425.705933 671.345825 1425.753662 665.401611 1428.250854 662.729309 1434.077393 662.599976 1455.227539 662.130432 1476.377686 661.624878 1497.53064 661.332886 1506.141724 661.213928 1509.142822 664.040405 1509.069702 672.559082 1508.903931 691.861755 1508.446289 711.163025 1507.966919 730.461365 1507.785522 737.768921 1507.040527 745.062744 1506.870239 752.370239 1506.646484 761.977905 1511.533203 768.911194 1519.544067 770.917236 1526.225586 772.590393 1536.63501 767.632019 1540.42395 760.981506 1545.549683 751.984375 1546.735962 741.908081 1546.307373 732.04834 1545.4552 712.443909 1543.521118 692.880554 1541.772461 673.323608 1541.056763 665.320496 1542.958618 662.412354 1551.136963 662.351013 1574.29834 662.177307 1597.461914 662.248474 1620.62439 662.309753 1625.428345 662.322449 1628.248535 665.010559 1628.988892 669.823975 1629.216309 671.303711 1629.3396 672.804504 1629.424683 674.300476 1632.025879 720.041687 1635.064087 765.764038 1637.048706 811.532043 1638.34021 841.311218 1638.769653 871.168579 1638.259766 900.968201 1637.996948 916.334473 1635.156616 931.716064 1624.172607 944.057251 1615.857788 953.399353 1605.128174 957.609192 1592.693237 959.392883zM1242 645.47937C1229.668579 645.448792 1217.837036 645.439087 1206.005737 645.385681 1199.81958 645.357788 1196.206299 642.873962 1196.080688 636.894043 1195.794434 623.282532 1196.086914 609.650574 1196.463501 596.035767 1196.895874 580.408997 1197.945068 564.796143 1198.195801 549.168762 1198.34021 540.168152 1190.369873 533.173645 1181.989746 533.971802 1175.804321 534.560974 1169.747681 542.124207 1169.855835 550.81842 1170.087524 569.459167 1170.839233 588.097107 1171.619141 606.726074 1172.036865 616.707092 1173.104126 626.659912 1173.592529 636.639404 1173.900879 642.940063 1171.744507 645.482483 1165.509277 645.452209 1142.851562 645.342224 1120.189819 645.117676 1097.541382 644.502991 1088.956177 644.269958 1085.988403 639.732605 1086.539185 630.183838 1087.593384 611.904297 1088.947754 593.629272 1089.400024 575.33313 1089.623413 566.291748 1088.674683 557.115479 1087.198486 548.174866 1086.200562 542.13092 1082.229614 537.07666 1076.09082 535.084229 1068.72876 532.694702 1060.969849 538.253479 1060.310181 547.382935 1059.16272 563.265137 1058.768921 579.228088 1058.759277 595.157654 1058.751831 607.470825 1059.834229 619.783813 1060.395264 632.098572 1060.712524 639.065125 1057.701538 642.147156 1050.560425 642.090149 1022.898987 641.869324 995.237854 641.622009 967.576904 641.355591 961.838074 641.300293 959.797729 639.704468 959.831726 634.5896 960.184631 581.442261 960.614197 528.29541 961.091736 475.149109 961.127625 471.16095 961.663696 467.174774 962.0224 463.192657 962.514648 457.728119 963.962097 456.319855 969.64856 456.443085 978.474915 456.634399 987.294556 457.248169 996.120361 457.333313 1025.93335 457.62085 1055.817017 459.12439 1085.54541 457.623596 1129.3573 455.411865 1173.102295 454.868683 1216.908813 456.453491 1235.382446 457.121857 1253.857422 457.750702 1272.332275 458.385651 1278.51001 458.598022 1281.803467 461.708252 1281.811035 467.994812 1281.836914 489.65213 1281.513428 511.311249 1281.694336 532.966614 1281.974121 566.44873 1282.502075 599.92926 1283.078369 633.407837 1283.164185 638.392151 1281.911377 642.349854 1277.249756 644.49585 1275.525513 645.289612 1273.42627 645.55188 1271.494873 645.564331 1261.830566 645.626709 1252.165039 645.525696 1242 645.47937zM1131.276123 82.734283C1138.898071 85.145775 1146.130493 87.491798 1153.446411 89.53965 1161.882568 91.901009 1164.199097 90.311241 1164.450317 81.584251 1164.689819 73.263428 1164.346802 64.926971 1164.327026 56.597229 1164.310303 49.506939 1166.567627 47.227047 1173.557739 47.50396 1198.679443 48.499168 1223.815552 49.271664 1248.911255 50.729691 1262.125488 51.497425 1270.123169 56.108593 1270.567383 72.945953 1271.977417 126.408928 1273.516479 179.869354 1275.283325 233.321579 1275.877686 251.298874 1277.303833 269.248688 1278.348999 287.21109 1278.416626 288.375 1278.508301 289.538544 1278.536987 290.703552 1278.811035 301.824341 1277.098877 303.854462 1266.232056 303.362488 1237.454102 302.059692 1208.686401 300.522827 1179.918579 299.00592 1174.018066 298.694794 1172.021606 296.830475 1171.946655 291.038818 1171.817627 281.060394 1172.095703 271.07724 1172.153931 261.095795 1172.271362 240.939285 1172.471191 220.78215 1172.393677 200.626205 1172.36499 193.170166 1169.701416 190.116776 1162.259521 189.680634 1150.465942 188.989441 1138.621094 188.550827 1126.815918 188.815109 1103.036499 189.347458 1079.258667 190.210831 1055.500732 191.360291 1041.90332 192.018188 1028.327271 193.319046 1014.775757 194.671875 999.570068 196.189804 984.390991 197.997086 969.223389 199.865417 960.551453 200.933578 957.657043 198.425064 957.528503 189.841202 956.997009 154.35762 956.360413 118.875504 955.698914 83.394035 955.466187 70.908447 954.844421 58.42728 954.782349 45.942196 954.728699 35.14677 959.711426 35.251614 970.334045 37.828159 980.085571 40.193413 989.725769 43.020199 999.406616 45.673912 1010.275635 48.653278 1021.130737 51.683598 1032.000244 54.661125 1047.541504 58.918358 1063.108032 63.084202 1078.630005 67.410706 1089.60022 70.468513 1100.514404 73.728065 1111.453613 76.897293 1117.943481 78.777504 1124.433472 80.65715 1131.276123 82.734283zM1059.645264 960.462402C1040.695679 960.799744 1022.212341 961.188232 1003.727112 961.322632 998.069519 961.36377 995.376038 958.296387 995.525879 952.306396 995.679565 946.158813 996.116272 940.007568 996.700684 933.883728 997.883972 921.484131 999.046631 909.076416 1000.590271 896.718628 1002.832214 878.770752 1005.414856 860.865601 1007.831116 842.939331 1009.827087 828.131104 1011.472229 813.266602 1013.870483 798.524231 1015.884888 786.141174 1018.702454 773.885986 1021.273926 761.597168 1023.403687 751.419128 1025.539917 741.238098 1027.953369 731.125122 1030.609619 719.994324 1033.50769 708.919128 1036.449463 697.859375 1038.449219 690.341309 1040.394897 682.78418 1042.934204 675.441467 1045.453369 668.157166 1048.55188 666.327393 1056.457275 666.348755 1087.946167 666.43396 1119.435669 666.727722 1150.923706 666.611145 1162.188843 666.569458 1162.616943 668.872986 1166.124878 677.9599 1172.170288 693.619263 1177.786865 709.46106 1183.022827 725.410339 1186.89978 737.220154 1190.00061 749.291321 1193.238281 761.302307 1196.295532 772.643738 1199.308228 784.006714 1201.921753 795.455811 1204.641357 807.369812 1206.81189 819.408264 1209.309692 831.374146 1212.123535 844.853821 1215.207764 858.279358 1217.850464 871.791809 1220.108276 883.33551 1221.911011 894.968323 1223.90918 906.562683 1225.766357 917.339417 1227.611816 928.118164 1229.470215 938.894653 1230.007812 942.011841 1230.763184 945.104736 1231.085693 948.242981 1231.771606 954.91687 1228.636353 959.013428 1221.962402 959.243774 1196.826172 960.111328 1171.682373 960.792664 1146.536865 961.337219 1139.956299 961.479797 1137.149414 958.516296 1136.964478 951.877991 1136.490601 934.881226 1135.518555 917.967407 1131.482178 901.340271 1130.640625 897.873413 1129.211304 896.792786 1125.76709 896.776794 1114.275513 896.723511 1102.782104 896.458069 1091.297119 896.052429 1088.05957 895.938049 1087.245239 897.404663 1087.167236 900.17157 1086.703003 916.632568 1086.107178 933.090332 1085.736816 949.553284 1085.56189 957.326477 1083.80542 959.206543 1076.063843 959.432556 1070.741211 959.587952 1065.428223 960.076172 1059.645264 960.462402M1102.819824 743.793579C1101.578125 750.796082 1100.251099 757.784729 1099.11499 764.804321 1097.44873 775.099731 1095.819824 785.403259 1094.365601 795.730225 1093.37439 802.769348 1092.533569 809.84198 1092.035522 816.928345 1091.927612 818.462708 1093.367188 821.344543 1094.446533 821.527527 1103.077759 822.991577 1111.784912 824.043152 1120.499268 824.918457 1121.252686 824.994141 1123.112793 822.739075 1122.954224 821.828613 1121.737915 814.840698 1120.269653 807.889343 1118.651733 800.980042 1114.951172 785.177795 1111.219971 769.381042 1107.268677 753.640442 1106.364136 750.036987 1104.519897 746.669434 1102.819824 743.793579z" fill="#b8b2a6" class="svgShape color000000-1 selectable"></path><path d="M1130.508301 303.183105C1117.761719 305.993317 1113.080688 315.637085 1119.887451 324.694611 1123.356445 329.310486 1128.746216 330.348022 1134.174561 330.297302 1156.335693 330.09024 1178.495605 329.751129 1200.655762 329.438873 1222.970337 329.124451 1245.28418 328.740143 1267.599365 328.480255 1274.912598 328.395081 1278.017944 331.289032 1278.258911 338.534943 1279.156494 365.514008 1279.973877 392.495972 1280.724365 419.479523 1280.916138 426.373169 1277.563843 429.547424 1269.556763 429.626709 1255.728638 429.763672 1241.896973 429.564484 1228.066895 429.463531 1196.07666 429.230011 1164.083862 428.576538 1132.09729 428.810913 1078.796143 429.201385 1025.498901 430.154114 972.200012 430.8685 971.033691 430.884155 969.866638 430.903595 968.700684 430.881897 962.325012 430.763367 959.840088 428.427368 959.864868 422.132874 959.917297 408.802277 960.272949 395.471466 960.206848 382.142212 960.137451 368.146667 959.731323 354.152649 959.451172 340.158386 959.292664 332.237335 960.76355 331.483459 968.457703 332.402313 984.33551 334.298401 1000.299927 335.651184 1016.230408 332.670502 1023.505676 331.309265 1028.6073 325.998993 1029.592651 319.029419 1030.244995 314.416412 1026.90332 307.825653 1021.858704 306.248322 1017.370605 304.844971 1012.391846 304.606049 1007.625183 304.576202 994.968079 304.496918 982.308838 304.88504 969.649841 304.933777 962.741211 304.960358 960.332336 302.47052 960.26001 295.720673 960.031433 274.393341 959.860046 253.065323 959.567383 231.738922 959.508789 227.472061 960.713501 224.614166 965.476501 224.242142 983.363403 222.845001 1001.229065 221.110046 1019.134399 220.026123 1059.077271 217.608124 1099.045898 217.984879 1139.008179 219.699936 1145.116089 219.962082 1147.98584 222.615265 1148.140137 228.614227 1148.688354 249.936188 1149.092651 271.262115 1149.473022 292.587921 1149.559326 297.426178 1146.925781 300.420624 1142.275757 301.396637 1138.535889 302.18161 1134.71814 302.595795 1130.508301 303.183105zM1300.883057 1161.937744C1296.366089 1172.439331 1287.71106 1175.955933 1277.596191 1176.824951 1272.805908 1177.236572 1267.945679 1177.067505 1263.127563 1176.885254 1238.664551 1175.959961 1214.204712 1174.948853 1189.744263 1173.957153 1182.75415 1173.673706 1180.262085 1169.381348 1182.380371 1162.803467 1187.317871 1147.471558 1197.311768 1135.110596 1205.668213 1121.765503 1213.547607 1109.182373 1212.485229 1097.948486 1202.489746 1088.86792 1199.204224 1085.883057 1195.37854 1083.308838 1191.424072 1081.279053 1180.008911 1075.419922 1167.490601 1073.503296 1154.910278 1072.658813 1145.621094 1072.035278 1136.216187 1072.050781 1126.929565 1072.714355 1111.74292 1073.799438 1096.661011 1075.618164 1082.822998 1082.999634 1068.345093 1090.722534 1065.365601 1104.088623 1072.578613 1118.108643 1078.121948 1128.883423 1084.963867 1138.983032 1090.78772 1149.624023 1093.131958 1153.907349 1094.878906 1158.718018 1095.840454 1163.501099 1096.788452 1168.216553 1094.501465 1170.405396 1089.704224 1170.339722 1069.046021 1170.057129 1048.388794 1169.672485 1027.732666 1169.257202 1020.238525 1169.106689 1012.737854 1168.93335 1005.258789 1168.469604 996.632812 1167.934692 988.005981 1167.25415 979.422241 1166.265747 975.088806 1165.766846 972.305115 1162.696411 971.177307 1158.600464 969.511292 1152.550171 967.317688 1146.450195 966.943115 1140.27478 965.664307 1119.195679 963.497681 1097.988647 964.632751 1076.990601 966.079102 1050.232666 974.720947 1025.672485 996.175232 1007.358704 1006.772217 998.312927 1018.965637 992.434753 1032.053101 988.301575 1066.877563 977.30365 1102.882812 977.10675 1138.849243 977.439514 1155.812744 977.596436 1172.886353 978.07251 1189.692871 980.156067 1215.574585 983.364746 1240.685425 989.929382 1262.442871 1005.316406 1281.821899 1019.02124 1294.700806 1037.615723 1301.906738 1060.166382 1309.220581 1083.054199 1310.975708 1106.495483 1307.704346 1130.190063 1306.244751 1140.762695 1303.294678 1151.129395 1300.883057 1161.937744zM1016.872131 1851.565674C1025.183105 1852.791992 1033.027466 1854.089233 1040.898071 1855.200562 1052.229736 1856.800293 1063.547241 1858.632324 1074.934326 1859.664917 1083.273682 1860.421143 1085.37561 1863.113281 1081.937744 1870.637695 1077.763794 1879.77356 1072.902832 1888.681763 1069.730103 1898.154297 1067.987061 1903.358398 1068.302734 1909.6427 1069.156494 1915.215332 1070.002563 1920.737183 1076.369019 1924.194214 1082.433472 1924.717773 1096.40564 1925.923828 1106.280884 1918.335815 1114.765869 1909.013306 1124.044312 1898.818848 1132.200562 1887.610352 1141.015137 1876.984131 1152.723999 1862.869263 1164.801392 1849.164795 1181.148438 1840.004028 1191.11731 1834.417725 1201.872559 1831.246094 1213.001465 1829.897583 1241.119873 1826.490479 1268.107788 1830.602295 1292.915161 1844.819336 1308.814697 1853.931274 1319.286011 1867.353516 1324.31665 1885.434326 1329.303955 1903.359253 1330.838135 1921.556396 1329.578247 1939.787231 1328.498535 1955.409912 1327.626831 1971.275635 1322.271729 1986.359741 1320.03894 1992.649536 1316.972046 1997.065063 1309.453735 1997.345215 1298.149658 1997.766357 1286.878784 1999.073364 1275.574829 1999.500488 1258.258545 2000.154907 1240.926758 2000.407227 1223.600342 2000.777344 1215.928955 2000.941284 1212.935547 1996.124512 1216.279053 1989.00708 1221.987183 1976.855591 1228.347656 1964.963745 1233.217041 1952.487793 1235.179321 1947.460693 1234.914185 1940.999756 1233.894531 1935.520386 1232.700073 1929.101929 1223.75415 1925.486694 1216.710693 1927.241455 1208.683472 1929.241211 1201.895264 1933.551147 1196.586182 1939.591919 1185.187134 1952.561646 1174.132202 1965.843506 1163.216553 1979.225952 1151.656616 1993.398804 1137.888672 2004.945312 1121.211548 2012.188599 1100.020386 2021.39209 1077.644531 2024.268677 1054.490112 2022.143311 1041.164917 2020.920288 1028.244141 2018.671265 1016.072632 2013.103394 996.261719 2004.040894 982.717896 1988.929077 974.97876 1968.747314 966.593628 1946.880859 965.534973 1923.981323 967.074158 1900.957764 967.744873 1890.924683 969.044067 1880.780762 971.513672 1871.056885 975.208984 1856.506958 983.675293 1851.738647 998.029236 1850.317749 1004.058716 1849.720947 1010.282043 1851.082275 1016.872131 1851.565674z" fill="#b8b2a6" class="svgShape color000000-2 selectable"></path><path d="M969.984497 1723.556641C971.678101 1715.701782 972.962463 1708.177734 974.92572 1700.834961 977.397217 1691.591919 980.018311 1682.346436 983.353149 1673.391846 985.579956 1667.412476 990.400879 1663.674561 997.301025 1664.264404 1005.410645 1664.957764 1013.491577 1665.981934 1021.589478 1666.818604 1032.651978 1667.961548 1043.721313 1669.039185 1054.783081 1670.189331 1065.692505 1671.323486 1076.638306 1672.22229 1087.485962 1673.791504 1093.658203 1674.684448 1094.890503 1677.268799 1092.194214 1682.758179 1086.21167 1694.9375 1079.603149 1706.814819 1073.803833 1719.077148 1068.813477 1729.629517 1065.616943 1740.719482 1066.206543 1752.685059 1066.522339 1759.096069 1068.072632 1764.7771 1074.153931 1767.618408 1080.542725 1770.603271 1086.6604 1768.339966 1090.985962 1763.508545 1101.293335 1751.995728 1111.026489 1739.969971 1121.035034 1728.188232 1132.870239 1714.255981 1144.32605 1699.968018 1156.752808 1686.583008 1165.904785 1676.725464 1178.171143 1671.623535 1191.036133 1667.755127 1210.310913 1661.959106 1229.961304 1661.477905 1249.398315 1664.671753 1281.049194 1669.872803 1305.02478 1685.911011 1317.344116 1716.991821 1324.575439 1735.236206 1324.80127 1754.266357 1325.317993 1773.34729 1325.595581 1783.597534 1323.754517 1793.457764 1319.738892 1802.921021 1314.194214 1815.988281 1303.643677 1822.695923 1290.191528 1822.858765 1275.989136 1823.030518 1261.755859 1820.966187 1247.542603 1819.800659 1240.252075 1819.202881 1232.945679 1818.654663 1225.702271 1817.673096 1220.161987 1816.922363 1218.986938 1814.241699 1220.842285 1808.828857 1224.653564 1797.710449 1228.213135 1786.635132 1228.299072 1774.572144 1228.391235 1761.648926 1218.517578 1757.438477 1207.776123 1761.486572 1198.454346 1764.999756 1191.833618 1772.135254 1185.599731 1779.620361 1174.322144 1793.161743 1163.626343 1807.26416 1151.497925 1819.999268 1138.95752 1833.16626 1123.297607 1841.662964 1105.194336 1845.550781 1087.386597 1849.375 1069.648926 1849.709473 1051.713623 1846.888306 1032.691162 1843.89624 1014.620667 1838.496582 998.72229 1827.188477 984.696594 1817.21228 975.477417 1803.990234 970.602295 1787.383301 964.841003 1767.757568 965.323303 1748.068481 968.45752 1728.212524 968.68689 1726.759277 969.392395 1725.381104 969.984497 1723.556641zM1188.543457 680.774658C1184.632935 667.253906 1187.765015 663.2323 1201.243164 663.059753 1220.230225 662.816772 1239.211548 662.143005 1258.198486 661.893372 1268.868408 661.752991 1274.10437 667.0354 1275.841309 677.576355 1277.72876 689.030762 1280.456543 700.344177 1282.620605 711.756409 1284.529663 721.823975 1286.055176 731.964172 1287.956665 742.033325 1289.834717 751.978638 1291.985474 761.872253 1293.990967 771.793762 1296.156494 782.507507 1298.230591 793.240173 1300.463623 803.939697 1301.803955 810.361755 1303.372192 816.736267 1304.838013 823.132141 1305.282959 823.122009 1305.727905 823.111877 1306.172852 823.101746 1307.662354 815.765381 1309.374634 808.465759 1310.593506 801.084656 1312.890015 787.178772 1315.061279 773.247803 1316.987793 759.286316 1318.912964 745.333435 1320.48877 731.332153 1322.192139 717.34906 1323.75769 704.497192 1325.28833 691.641113 1326.838013 678.787354 1326.957397 677.797241 1327.165649 676.81488 1327.234253 675.822083 1327.932495 665.729248 1329.761841 663.804565 1340.063843 663.582886 1360.861572 663.135254 1381.66333 662.880432 1402.463623 662.560364 1403.961304 662.537354 1405.478271 662.498352 1406.956421 662.693359 1412.791382 663.463013 1415.539185 667.161438 1414.969238 673.015747 1413.554077 687.554871 1412.518799 702.137695 1410.77417 716.635986 1409.193115 729.774475 1406.921387 742.831421 1404.872314 755.911499 1402.490845 771.112793 1400.14978 786.322388 1397.5354 801.484314 1396.133789 809.612915 1394.114258 817.632996 1392.520752 825.731018 1390.729248 834.834412 1389.181641 843.98584 1387.387573 853.088684 1384.800659 866.214478 1382.464966 879.406189 1379.337524 892.40509 1374.896973 910.862427 1370.019409 929.221252 1364.968872 947.522949 1361.853271 958.812378 1358.375244 961.223572 1346.767334 961.272888 1323.776611 961.370483 1300.785156 961.387451 1277.794189 961.349854 1266.335449 961.331116 1262.613892 958.971069 1258.791992 948.200378 1255.217773 938.127502 1252.260986 927.832703 1249.138062 917.603271 1245.032471 904.15509 1240.915649 890.708435 1237.015503 877.199951 1233.160522 863.848206 1229.577026 850.418274 1225.860229 837.02655 1223.170166 827.333923 1220.349609 817.676147 1217.779907 807.951904 1214.348755 794.968323 1211.070923 781.943848 1207.789551 768.921204 1204.798096 757.049133 1201.706299 745.197693 1199.005615 733.258667 1197.003296 724.407349 1195.604004 715.421082 1193.849854 706.511902 1192.185425 698.058594 1190.408813 689.62738 1188.543457 680.774658zM838.439026 719.990723C838.437256 704.99469 838.403992 690.496338 838.400513 675.997986 838.39856 667.754822 842.768799 662.576782 851.045776 662.533752 878.027771 662.393372 905.013916 662.497559 931.994446 662.831543 950.82019 663.064514 969.639221 663.83551 988.461609 664.352417 998.871704 664.638306 1000.589417 666.444763 1000.270447 676.924927 999.702881 695.569763 999.167297 714.21582 998.52655 732.858215 998.3078 739.2229 996.305847 741.177612 989.870605 740.966187 969.229187 740.28772 948.592712 739.454712 927.9552 738.657837 919.156189 738.318176 918.733948 738.240112 917.677124 746.896973 916.773193 754.300781 916.981873 761.840942 916.711121 769.321289 916.575989 773.055176 919.142517 772.998779 921.789673 773.004395 942.608704 773.048645 963.427795 773.132141 984.246826 773.197998 991.367676 773.22052 994.593933 776.407288 994.44458 783.526917 994.119568 799.015686 993.942383 814.512817 993.258484 829.986755 992.862854 838.93811 988.63678 843.118347 979.313538 842.851196 960.352234 842.307739 941.365601 842.67926 922.389893 842.583252 918.605957 842.564148 917.13562 843.892273 917.333984 847.904602 917.695496 855.220825 917.376892 862.567871 917.572571 869.895874 917.745178 876.361816 919.579285 877.534119 926.046021 877.068726 940.824463 876.005066 955.618347 875.131958 970.415527 874.36554 976.273132 874.062073 979.461975 876.932129 979.028931 882.635559 978.289246 892.378967 976.963989 902.078979 975.833008 911.791199 974.950806 919.367859 974.239441 926.977173 972.982605 934.493408 972.035217 940.159241 971.102234 946.059021 968.690063 951.15802 967.327087 954.039246 963.242432 956.627502 959.935669 957.380981 953.675049 958.807373 947.099609 959.214478 940.64093 959.344421 915.817932 959.844116 890.989807 960.103638 866.162659 960.36377 860.502869 960.423096 854.826172 960.323059 849.180847 959.944702 841.891113 959.456055 836.814148 954.193359 836.822998 946.922546 836.90448 880.100159 837.035278 813.277832 837.272705 746.455872 837.303467 737.798767 838.020752 729.144165 838.439026 719.990723zM479.336487 729.973633C480.390045 693.179749 481.432281 656.876709 482.467346 620.573425 482.706512 612.184509 487.474457 609.297668 494.974304 612.866272 519.429138 624.502808 543.889954 636.127319 568.406006 647.63385 573.466675 650.009033 575.953491 653.194702 575.771606 659.197144 574.116394 713.815491 572.629822 768.439453 571.281067 823.066406 570.791748 842.886353 570.977112 862.722412 570.539368 882.54425 570.190063 898.360718 569.520935 914.175659 568.620728 929.970032 568.427246 933.365112 566.631714 936.668945 565.574097 940.014771 562.53363 938.253357 559.137085 936.909058 556.508667 934.665039 534.239502 915.652161 512.107178 896.478882 489.94278 877.343262 486.922546 874.735718 484.07196 871.91626 480.927429 869.472046 477.065796 866.470459 475.437805 862.776978 475.589508 857.86377 476.900482 815.399353 478.094025 772.931335 479.336487 729.973633zM837.233032 616.092041C852.107239 620.878906 866.63562 625.455322 881.037292 630.400696 883.10553 631.11084 885.973389 633.569702 886.010803 635.273438 886.090271 638.8927 882.62262 638.993347 879.649414 638.998352 818 639.102051 756.349731 639.082336 694.701538 639.424316 667.88324 639.57312 641.053101 640.091003 614.260254 641.207764 602.035767 641.717285 591.198914 638.497742 580.208801 633.848328 561.625916 625.986816 542.694397 618.952454 524.007141 611.33075 521.677979 610.380798 519.942444 607.975159 517.931885 606.244019 520.346252 605.153442 522.761841 603.110413 525.174805 603.113464 569.326538 603.169312 613.478577 603.399597 657.629333 603.739746 701.114258 604.074768 744.600708 605.020203 788.080383 604.740417 801.892761 604.651489 814.230774 608.791504 826.891663 612.747498 830.223389 613.788513 833.528931 614.91333 837.233032 616.092041zM1437.001587 645.603394C1397.531372 645.130737 1358.560913 644.666565 1319.590576 644.195679 1307.472168 644.049194 1304.150146 640.904785 1303.444946 628.952087 1303.395874 628.12085 1303.434692 627.278564 1303.317261 626.458008 1301.620483 614.608521 1305.142212 610.52124 1317.779297 612.054382 1329.654541 613.495056 1341.480347 615.353088 1353.315674 617.110352 1364.974365 618.84137 1376.634766 620.574219 1388.262939 622.496521 1398.4021 624.172668 1408.490967 626.150818 1418.614624 627.923462 1424.162109 628.894775 1429.727661 629.771729 1435.299194 630.595825 1450.877197 632.900024 1466.482666 635.030029 1482.029297 637.526917 1485.382324 638.06543 1488.534058 639.855774 1491.778564 641.069519 1491.724854 641.823547 1491.671143 642.577637 1491.617432 643.331665 1488.734497 644.023804 1485.861206 645.265503 1482.967285 645.315918 1467.814941 645.580078 1452.657227 645.542175 1437.001587 645.603394z" fill="#b8b2a6" class="svgShape color000000-3 selectable"></path><path fill="#fdfdf6" d="M1179.751221 1322.185303C1176.034546 1321.016357 1172.718018 1319.948853 1169.416992 1318.835693 1156.252686 1314.396118 1151.103271 1304.348999 1150.295898 1291.335815 1149.427734 1277.342163 1149.608887 1277.157837 1163.496338 1277.054565 1182.790039 1276.911011 1202.085083 1276.632568 1221.377075 1276.768555 1228.550781 1276.819214 1231.437622 1279.841919 1231.347046 1286.888916 1231.245361 1294.803833 1230.783447 1302.76062 1229.75 1310.603149 1228.840942 1317.499268 1219.6875 1324.133057 1210.908569 1324.042847 1200.653564 1323.937378 1190.408081 1322.89917 1179.751221 1322.185303zM1105.761475 1574.301514C1097.413574 1571.525269 1089.121216 1569.589966 1081.663818 1565.946167 1075.720825 1563.042114 1070.033081 1558.745605 1065.58667 1553.8396 1057.564819 1544.988892 1059.032715 1532.883911 1068.05957 1525.061523 1077.755981 1516.65918 1089.478027 1512.878052 1101.701904 1509.927368 1125.063721 1504.288086 1148.735718 1505.709229 1172.268921 1507.105103 1186.341553 1507.939941 1200.616821 1510.137207 1213.269653 1517.348389 1221.57251 1522.080322 1228.324829 1528.127197 1229.015503 1538.768433 1229.813721 1551.070068 1222.691895 1558.354614 1213.242188 1563.839966 1201.657471 1570.564697 1188.852051 1573.751953 1175.682495 1576.111694 1157.051025 1579.450073 1138.49707 1577.715698 1119.907471 1576.601685 1115.303345 1576.325806 1110.752563 1575.161255 1105.761475 1574.301514zM1102.963989 743.493408C1104.519897 746.669434 1106.364136 750.036987 1107.268677 753.640442 1111.219971 769.381042 1114.951172 785.177795 1118.651733 800.980042 1120.269653 807.889343 1121.737915 814.840698 1122.954224 821.828613 1123.112793 822.739075 1121.252686 824.994141 1120.499268 824.918457 1111.784912 824.043152 1103.077759 822.991577 1094.446533 821.527527 1093.367188 821.344543 1091.927612 818.462708 1092.035522 816.928345 1092.533569 809.84198 1093.37439 802.769348 1094.365601 795.730225 1095.819824 785.403259 1097.44873 775.099731 1099.11499 764.804321 1100.251099 757.784729 1101.578125 750.796082 1102.963989 743.493408z" class="svgShape colorffffff-4 selectable"></path></svg></g></svg>