<svg xmlns="http://www.w3.org/2000/svg" xmlns:xlink="http://www.w3.org/1999/xlink" version="1.1" style="shape-rendering:geometricPrecision; text-rendering:geometricPrecision; image-rendering:optimizeQuality; fill-rule:evenodd; clip-rule:evenodd" viewBox="79.5 2266.28 4855.5 466.79">
<g><path style="opacity:0.97" fill="#000000" d="M 3458.5,2266.5 C 3493.21,2265.1 3526.88,2270.27 3559.5,2282C 3567.75,2285.37 3575.25,2289.87 3582,2295.5C 3582.5,2334.5 3582.67,2373.5 3582.5,2412.5C 3575.8,2412.83 3569.13,2412.5 3562.5,2411.5C 3557.22,2389.51 3550.06,2368.17 3541,2347.5C 3519.64,2305.04 3486.14,2290.54 3440.5,2304C 3423.44,2312.39 3410.27,2324.89 3401,2341.5C 3383.87,2376.14 3374.2,2412.81 3372,2451.5C 3367.94,2500.55 3370.61,2549.22 3380,2597.5C 3385.29,2625.74 3396.29,2651.4 3413,2674.5C 3437.17,2701.17 3466.34,2708.67 3500.5,2697C 3515.46,2690.04 3527.29,2679.54 3536,2665.5C 3551.81,2637.25 3562.97,2607.25 3569.5,2575.5C 3576.5,2575.5 3583.5,2575.5 3590.5,2575.5C 3588.87,2618.22 3586.7,2660.88 3584,2703.5C 3566.98,2714.51 3548.48,2722.01 3528.5,2726C 3490.95,2733.79 3453.28,2734.46 3415.5,2728C 3355.29,2713.79 3315.46,2677.29 3296,2618.5C 3284.62,2581.2 3279.12,2543.04 3279.5,2504C 3278.92,2459.05 3286.42,2415.55 3302,2373.5C 3331.44,2304.93 3383.61,2269.27 3458.5,2266.5 Z"/></g>
<g><path style="opacity:0.977" fill="#000000" d="M 4148.5,2266.5 C 4232.97,2263.2 4289.14,2301.2 4317,2380.5C 4331.2,2429.17 4336.53,2478.84 4333,2529.5C 4331.6,2573.44 4321.26,2615.11 4302,2654.5C 4275.45,2701.05 4235.28,2726.89 4181.5,2732C 4092.69,2740.06 4033.19,2702.56 4003,2619.5C 3989.08,2571.81 3983.75,2523.15 3987,2473.5C 3988.48,2434.41 3996.48,2396.74 4011,2360.5C 4038.06,2301.72 4083.89,2270.39 4148.5,2266.5 Z M 4152.5,2298.5 C 4176.46,2296.9 4195.29,2305.9 4209,2325.5C 4223.36,2349.56 4232.36,2375.56 4236,2403.5C 4245.96,2468.83 4245.96,2534.17 4236,2599.5C 4232.24,2625.77 4223.91,2650.43 4211,2673.5C 4193.43,2699.25 4169.59,2707.75 4139.5,2699C 4125.57,2693.08 4114.74,2683.58 4107,2670.5C 4093.25,2643.84 4084.92,2615.51 4082,2585.5C 4073.78,2519.24 4075.45,2453.24 4087,2387.5C 4090.89,2367.83 4097.56,2349.16 4107,2331.5C 4117.22,2313.49 4132.38,2302.49 4152.5,2298.5 Z"/></g>
<g><path style="opacity:0.971" fill="#000000" d="M 4510.5,2266.5 C 4537.11,2265.75 4562.78,2270.25 4587.5,2280C 4596.49,2283.82 4604.82,2288.66 4612.5,2294.5C 4613.5,2330.49 4613.83,2366.49 4613.5,2402.5C 4606.83,2402.5 4600.17,2402.5 4593.5,2402.5C 4589.47,2376.57 4580.97,2352.24 4568,2329.5C 4559,2315.16 4546.5,2305.32 4530.5,2300C 4496.07,2295.65 4474.9,2310.48 4467,2344.5C 4461.57,2370.44 4467.57,2393.44 4485,2413.5C 4497.76,2425.93 4511.92,2436.43 4527.5,2445C 4550.01,2455.74 4571.01,2468.74 4590.5,2484C 4618.06,2508.61 4633.22,2539.45 4636,2576.5C 4639.5,2610.5 4633.83,2642.84 4619,2673.5C 4601.6,2703.54 4575.77,2722.04 4541.5,2729C 4495.65,2738.09 4452.32,2731.43 4411.5,2709C 4405.41,2704.91 4399.91,2700.08 4395,2694.5C 4391.9,2655.2 4389.4,2615.87 4387.5,2576.5C 4393.83,2576.5 4400.17,2576.5 4406.5,2576.5C 4413.63,2611.76 4427.8,2643.76 4449,2672.5C 4457.93,2683.53 4468.76,2692.03 4481.5,2698C 4523.54,2708.98 4549.04,2693.14 4558,2650.5C 4563.73,2612.48 4551.57,2581.65 4521.5,2558C 4516.83,2554.67 4512.17,2551.33 4507.5,2548C 4483.84,2535.98 4461.5,2521.98 4440.5,2506C 4402.76,2473.47 4386.59,2432.31 4392,2382.5C 4399.18,2310.49 4438.68,2271.82 4510.5,2266.5 Z"/></g>
<g><path style="opacity:0.971" fill="#000000" d="M 4808.5,2266.5 C 4835.11,2265.75 4860.78,2270.25 4885.5,2280C 4894.49,2283.82 4902.82,2288.66 4910.5,2294.5C 4911.5,2330.49 4911.83,2366.49 4911.5,2402.5C 4904.83,2402.5 4898.17,2402.5 4891.5,2402.5C 4887.47,2376.57 4878.97,2352.24 4866,2329.5C 4857,2315.16 4844.5,2305.32 4828.5,2300C 4794.07,2295.65 4772.9,2310.48 4765,2344.5C 4759.57,2370.44 4765.57,2393.44 4783,2413.5C 4795.76,2425.93 4809.92,2436.43 4825.5,2445C 4848.01,2455.74 4869.01,2468.74 4888.5,2484C 4916.06,2508.61 4931.22,2539.45 4934,2576.5C 4937.5,2610.5 4931.83,2642.84 4917,2673.5C 4899.6,2703.54 4873.77,2722.04 4839.5,2729C 4793.65,2738.09 4750.32,2731.43 4709.5,2709C 4703.41,2704.91 4697.91,2700.08 4693,2694.5C 4689.9,2655.2 4687.4,2615.87 4685.5,2576.5C 4691.83,2576.5 4698.17,2576.5 4704.5,2576.5C 4711.63,2611.76 4725.8,2643.76 4747,2672.5C 4755.93,2683.53 4766.76,2692.03 4779.5,2698C 4821.54,2708.98 4847.04,2693.14 4856,2650.5C 4861.73,2612.48 4849.57,2581.65 4819.5,2558C 4814.83,2554.67 4810.17,2551.33 4805.5,2548C 4781.84,2535.98 4759.5,2521.98 4738.5,2506C 4700.76,2473.47 4684.59,2432.31 4690,2382.5C 4697.18,2310.49 4736.68,2271.82 4808.5,2266.5 Z"/></g>
<g><path style="opacity:0.976" fill="#000000" d="M 79.5,2276.5 C 180.167,2276.5 280.833,2276.5 381.5,2276.5C 381.5,2317.5 381.5,2358.5 381.5,2399.5C 374.833,2399.5 368.167,2399.5 361.5,2399.5C 356.776,2377.49 349.943,2356.16 341,2335.5C 334.268,2322.38 323.768,2313.88 309.5,2310C 296.88,2308.63 284.213,2308.13 271.5,2308.5C 271.022,2431.52 271.522,2554.52 273,2677.5C 273.249,2684.5 276.415,2689.67 282.5,2693C 295.036,2695.49 307.702,2696.99 320.5,2697.5C 320.5,2706.17 320.5,2714.83 320.5,2723.5C 260.5,2723.5 200.5,2723.5 140.5,2723.5C 140.5,2714.83 140.5,2706.17 140.5,2697.5C 153.62,2696.92 166.62,2695.42 179.5,2693C 185.354,2689.13 188.521,2683.63 189,2676.5C 189.5,2553.83 189.667,2431.17 189.5,2308.5C 179.161,2308.33 168.828,2308.5 158.5,2309C 146.343,2310.33 136.176,2315.49 128,2324.5C 122.635,2331.89 118.302,2339.89 115,2348.5C 109.073,2365.21 104.239,2382.21 100.5,2399.5C 93.5,2399.5 86.5,2399.5 79.5,2399.5C 79.5,2358.5 79.5,2317.5 79.5,2276.5 Z"/></g>
<g><path style="opacity:0.976" fill="#000000" d="M 413.5,2276.5 C 467.5,2276.5 521.5,2276.5 575.5,2276.5C 575.5,2285.17 575.5,2293.83 575.5,2302.5C 565.624,2302.69 555.957,2304.19 546.5,2307C 541.577,2309.33 538.41,2313.16 537,2318.5C 535.523,2369.46 535.023,2420.46 535.5,2471.5C 579.5,2471.5 623.5,2471.5 667.5,2471.5C 667.977,2420.13 667.477,2368.8 666,2317.5C 661.767,2308.62 654.6,2304.12 644.5,2304C 638.839,2303.37 633.172,2302.87 627.5,2302.5C 627.5,2293.83 627.5,2285.17 627.5,2276.5C 681.5,2276.5 735.5,2276.5 789.5,2276.5C 789.5,2285.17 789.5,2293.83 789.5,2302.5C 779.628,2302.72 769.961,2304.22 760.5,2307C 755.419,2309.74 752.253,2313.91 751,2319.5C 749.843,2379.63 749.343,2439.8 749.5,2500C 749.345,2560.53 749.845,2621.03 751,2681.5C 754.232,2690.55 760.732,2695.38 770.5,2696C 776.796,2697.01 783.129,2697.51 789.5,2697.5C 789.5,2706.17 789.5,2714.83 789.5,2723.5C 735.5,2723.5 681.5,2723.5 627.5,2723.5C 627.5,2714.83 627.5,2706.17 627.5,2697.5C 636.976,2697.48 646.31,2696.32 655.5,2694C 660.757,2691.74 664.257,2687.91 666,2682.5C 667.481,2623.2 667.981,2563.87 667.5,2504.5C 623.5,2504.5 579.5,2504.5 535.5,2504.5C 535.02,2563.54 535.52,2622.54 537,2681.5C 539.874,2691.04 546.374,2695.87 556.5,2696C 562.796,2697.01 569.129,2697.51 575.5,2697.5C 575.5,2706.17 575.5,2714.83 575.5,2723.5C 521.5,2723.5 467.5,2723.5 413.5,2723.5C 413.5,2714.83 413.5,2706.17 413.5,2697.5C 422.666,2697.56 431.666,2696.4 440.5,2694C 446.908,2691.25 450.742,2686.42 452,2679.5C 453.145,2619.68 453.645,2559.85 453.5,2500C 453.647,2440.48 453.147,2380.98 452,2321.5C 451.04,2313.75 446.873,2308.58 439.5,2306C 430.935,2304.07 422.269,2302.9 413.5,2302.5C 413.5,2293.83 413.5,2285.17 413.5,2276.5 Z"/></g>
<g><path style="opacity:0.972" fill="#000000" d="M 821.5,2276.5 C 912.5,2276.5 1003.5,2276.5 1094.5,2276.5C 1095.66,2316.54 1095.66,2356.54 1094.5,2396.5C 1087.94,2397.81 1081.44,2397.81 1075,2396.5C 1070.94,2377.65 1065.27,2359.32 1058,2341.5C 1049.26,2321.77 1034.09,2310.94 1012.5,2309C 992.5,2308.33 972.5,2308.33 952.5,2309C 947.478,2310.69 944.645,2314.19 944,2319.5C 943.5,2370.17 943.333,2420.83 943.5,2471.5C 963.169,2471.67 982.836,2471.5 1002.5,2471C 1016.15,2469.25 1024.98,2461.75 1029,2448.5C 1032.61,2437.39 1035.28,2426.06 1037,2414.5C 1043.74,2413.52 1050.58,2413.19 1057.5,2413.5C 1057.5,2464.17 1057.5,2514.83 1057.5,2565.5C 1050.8,2565.83 1044.13,2565.5 1037.5,2564.5C 1035.09,2551.2 1031.59,2538.2 1027,2525.5C 1022.35,2515.42 1014.52,2509.59 1003.5,2508C 983.503,2507.5 963.503,2507.33 943.5,2507.5C 943.333,2558.17 943.5,2608.83 944,2659.5C 945.001,2671.47 950.501,2680.64 960.5,2687C 967.256,2689.68 974.256,2691.35 981.5,2692C 993.833,2692.67 1006.17,2692.67 1018.5,2692C 1037.32,2690.34 1052.15,2681.84 1063,2666.5C 1066.59,2660.32 1069.92,2653.99 1073,2647.5C 1079.93,2628.46 1085.93,2609.12 1091,2589.5C 1097.74,2588.52 1104.58,2588.19 1111.5,2588.5C 1109.53,2633.5 1107.53,2678.5 1105.5,2723.5C 1010.83,2723.5 916.167,2723.5 821.5,2723.5C 821.5,2714.83 821.5,2706.17 821.5,2697.5C 830.666,2697.56 839.666,2696.4 848.5,2694C 854.908,2691.25 858.742,2686.42 860,2679.5C 861.145,2619.68 861.645,2559.85 861.5,2500C 861.647,2440.48 861.147,2380.98 860,2321.5C 859.04,2313.75 854.873,2308.58 847.5,2306C 838.935,2304.07 830.269,2302.9 821.5,2302.5C 821.5,2293.83 821.5,2285.17 821.5,2276.5 Z"/></g>
<g><path style="opacity:0.976" fill="#000000" d="M 1348.5,2276.5 C 1402.5,2276.5 1456.5,2276.5 1510.5,2276.5C 1510.5,2285.17 1510.5,2293.83 1510.5,2302.5C 1500.62,2302.69 1490.96,2304.19 1481.5,2307C 1476.58,2309.33 1473.41,2313.16 1472,2318.5C 1470.52,2369.46 1470.02,2420.46 1470.5,2471.5C 1514.5,2471.5 1558.5,2471.5 1602.5,2471.5C 1602.98,2420.13 1602.48,2368.8 1601,2317.5C 1596.77,2308.62 1589.6,2304.12 1579.5,2304C 1573.84,2303.37 1568.17,2302.87 1562.5,2302.5C 1562.5,2293.83 1562.5,2285.17 1562.5,2276.5C 1616.5,2276.5 1670.5,2276.5 1724.5,2276.5C 1724.5,2285.17 1724.5,2293.83 1724.5,2302.5C 1714.63,2302.72 1704.96,2304.22 1695.5,2307C 1690.42,2309.74 1687.25,2313.91 1686,2319.5C 1684.84,2379.63 1684.34,2439.8 1684.5,2500C 1684.34,2560.53 1684.84,2621.03 1686,2681.5C 1689.23,2690.55 1695.73,2695.38 1705.5,2696C 1711.8,2697.01 1718.13,2697.51 1724.5,2697.5C 1724.5,2706.17 1724.5,2714.83 1724.5,2723.5C 1670.5,2723.5 1616.5,2723.5 1562.5,2723.5C 1562.5,2714.83 1562.5,2706.17 1562.5,2697.5C 1571.98,2697.48 1581.31,2696.32 1590.5,2694C 1595.76,2691.74 1599.26,2687.91 1601,2682.5C 1602.48,2623.2 1602.98,2563.87 1602.5,2504.5C 1558.5,2504.5 1514.5,2504.5 1470.5,2504.5C 1470.02,2563.54 1470.52,2622.54 1472,2681.5C 1474.87,2691.04 1481.37,2695.87 1491.5,2696C 1497.8,2697.01 1504.13,2697.51 1510.5,2697.5C 1510.5,2706.17 1510.5,2714.83 1510.5,2723.5C 1456.5,2723.5 1402.5,2723.5 1348.5,2723.5C 1348.5,2714.83 1348.5,2706.17 1348.5,2697.5C 1357.67,2697.56 1366.67,2696.4 1375.5,2694C 1381.91,2691.25 1385.74,2686.42 1387,2679.5C 1388.14,2619.68 1388.64,2559.85 1388.5,2500C 1388.65,2440.48 1388.15,2380.98 1387,2321.5C 1386.04,2313.75 1381.87,2308.58 1374.5,2306C 1365.94,2304.07 1357.27,2302.9 1348.5,2302.5C 1348.5,2293.83 1348.5,2285.17 1348.5,2276.5 Z"/></g>
<g><path style="opacity:0.972" fill="#000000" d="M 1756.5,2276.5 C 1847.5,2276.5 1938.5,2276.5 2029.5,2276.5C 2030.66,2316.54 2030.66,2356.54 2029.5,2396.5C 2022.94,2397.81 2016.44,2397.81 2010,2396.5C 2005.94,2377.65 2000.27,2359.32 1993,2341.5C 1984.26,2321.77 1969.09,2310.94 1947.5,2309C 1927.5,2308.33 1907.5,2308.33 1887.5,2309C 1882.48,2310.69 1879.64,2314.19 1879,2319.5C 1878.5,2370.17 1878.33,2420.83 1878.5,2471.5C 1898.17,2471.67 1917.84,2471.5 1937.5,2471C 1951.15,2469.25 1959.98,2461.75 1964,2448.5C 1967.61,2437.39 1970.28,2426.06 1972,2414.5C 1978.74,2413.52 1985.58,2413.19 1992.5,2413.5C 1992.5,2464.17 1992.5,2514.83 1992.5,2565.5C 1985.8,2565.83 1979.13,2565.5 1972.5,2564.5C 1970.09,2551.2 1966.59,2538.2 1962,2525.5C 1957.35,2515.42 1949.52,2509.59 1938.5,2508C 1918.5,2507.5 1898.5,2507.33 1878.5,2507.5C 1878.33,2558.17 1878.5,2608.83 1879,2659.5C 1880,2671.47 1885.5,2680.64 1895.5,2687C 1902.26,2689.68 1909.26,2691.35 1916.5,2692C 1928.83,2692.67 1941.17,2692.67 1953.5,2692C 1972.32,2690.34 1987.15,2681.84 1998,2666.5C 2001.59,2660.32 2004.92,2653.99 2008,2647.5C 2014.93,2628.46 2020.93,2609.12 2026,2589.5C 2032.74,2588.52 2039.58,2588.19 2046.5,2588.5C 2044.53,2633.5 2042.53,2678.5 2040.5,2723.5C 1945.83,2723.5 1851.17,2723.5 1756.5,2723.5C 1756.5,2714.83 1756.5,2706.17 1756.5,2697.5C 1765.67,2697.56 1774.67,2696.4 1783.5,2694C 1789.91,2691.25 1793.74,2686.42 1795,2679.5C 1796.14,2619.68 1796.64,2559.85 1796.5,2500C 1796.65,2440.48 1796.15,2380.98 1795,2321.5C 1794.04,2313.75 1789.87,2308.58 1782.5,2306C 1773.94,2304.07 1765.27,2302.9 1756.5,2302.5C 1756.5,2293.83 1756.5,2285.17 1756.5,2276.5 Z"/></g>
<g><path style="opacity:0.974" fill="#000000" d="M 2214.5,2276.5 C 2236.17,2276.5 2257.83,2276.5 2279.5,2276.5C 2313.33,2408.48 2347.16,2540.48 2381,2672.5C 2383.34,2687.17 2391.84,2695.34 2406.5,2697C 2410.82,2697.5 2415.15,2697.67 2419.5,2697.5C 2419.5,2706.17 2419.5,2714.83 2419.5,2723.5C 2365.83,2723.5 2312.17,2723.5 2258.5,2723.5C 2258.5,2714.83 2258.5,2706.17 2258.5,2697.5C 2269.61,2696.74 2280.61,2695.24 2291.5,2693C 2292.93,2692.53 2294.1,2691.7 2295,2690.5C 2296.05,2687.56 2296.88,2684.56 2297.5,2681.5C 2288.5,2642.83 2279.5,2604.17 2270.5,2565.5C 2237.83,2565.17 2205.16,2565.5 2172.5,2566.5C 2162.42,2603.47 2153.92,2640.8 2147,2678.5C 2144.41,2687.49 2147.57,2692.99 2156.5,2695C 2166.83,2696 2177.16,2696.83 2187.5,2697.5C 2187.5,2706.17 2187.5,2714.83 2187.5,2723.5C 2148.17,2723.5 2108.83,2723.5 2069.5,2723.5C 2069.5,2714.83 2069.5,2706.17 2069.5,2697.5C 2078.72,2697.53 2087.39,2695.36 2095.5,2691C 2099.12,2687.38 2101.95,2683.21 2104,2678.5C 2109.98,2659.93 2115.64,2641.26 2121,2622.5C 2151.86,2507.06 2183.03,2391.73 2214.5,2276.5 Z M 2220.5,2367.5 C 2221.93,2367.88 2222.76,2368.88 2223,2370.5C 2235.45,2424.46 2248.28,2478.29 2261.5,2532C 2234.5,2532.67 2207.5,2532.67 2180.5,2532C 2194.38,2477.32 2207.71,2422.48 2220.5,2367.5 Z"/></g>
<g><path style="opacity:0.973" fill="#000000" d="M 2364.5,2276.5 C 2415.5,2276.5 2466.5,2276.5 2517.5,2276.5C 2517.5,2285.17 2517.5,2293.83 2517.5,2302.5C 2507.04,2303.73 2496.71,2305.56 2486.5,2308C 2482.87,2311.83 2481.71,2316.33 2483,2321.5C 2508.66,2423.14 2534.16,2524.8 2559.5,2626.5C 2560.5,2626.5 2561.5,2626.5 2562.5,2626.5C 2580.66,2553.19 2598.83,2479.85 2617,2406.5C 2624.04,2377.51 2630.21,2348.35 2635.5,2319C 2635.77,2313.76 2633.77,2309.76 2629.5,2307C 2618.87,2305.17 2608.21,2303.67 2597.5,2302.5C 2597.5,2293.83 2597.5,2285.17 2597.5,2276.5C 2636.83,2276.5 2676.17,2276.5 2715.5,2276.5C 2715.5,2285.17 2715.5,2293.83 2715.5,2302.5C 2705.84,2302.8 2696.84,2305.3 2688.5,2310C 2681.13,2318.24 2675.96,2327.74 2673,2338.5C 2637.55,2465.95 2602.89,2593.61 2569,2721.5C 2558.23,2722.82 2547.23,2723.49 2536,2723.5C 2524.77,2723.49 2513.77,2722.82 2503,2721.5C 2468.33,2590.17 2433.67,2458.83 2399,2327.5C 2394.59,2309.53 2383.09,2301.2 2364.5,2302.5C 2364.5,2293.83 2364.5,2285.17 2364.5,2276.5 Z"/></g>
<g><path style="opacity:0.973" fill="#000000" d="M 2718.5,2276.5 C 2771.5,2276.5 2824.5,2276.5 2877.5,2276.5C 2877.5,2285.17 2877.5,2293.83 2877.5,2302.5C 2867.1,2303.92 2856.76,2305.75 2846.5,2308C 2844.43,2308.95 2842.93,2310.45 2842,2312.5C 2841.33,2315.83 2841.33,2319.17 2842,2322.5C 2862.75,2382.42 2884.08,2442.08 2906,2501.5C 2928.44,2443.19 2949.1,2384.19 2968,2324.5C 2968.67,2320.83 2968.67,2317.17 2968,2313.5C 2967.23,2311.06 2965.73,2309.23 2963.5,2308C 2953.2,2305.93 2942.87,2304.1 2932.5,2302.5C 2932.5,2293.83 2932.5,2285.17 2932.5,2276.5C 2973.5,2276.5 3014.5,2276.5 3055.5,2276.5C 3055.83,2285.19 3055.5,2293.86 3054.5,2302.5C 3032.55,2303.71 3017.39,2314.37 3009,2334.5C 2979.84,2401.65 2952.84,2469.65 2928,2538.5C 2927.24,2542.82 2926.57,2547.15 2926,2551.5C 2925.33,2592.17 2925.33,2632.83 2926,2673.5C 2925.82,2684.01 2930.66,2690.85 2940.5,2694C 2951.7,2696.42 2963.03,2697.59 2974.5,2697.5C 2974.5,2706.17 2974.5,2714.83 2974.5,2723.5C 2914.5,2723.5 2854.5,2723.5 2794.5,2723.5C 2794.5,2714.83 2794.5,2706.17 2794.5,2697.5C 2805.97,2697.59 2817.3,2696.42 2828.5,2694C 2838.4,2690.4 2843.23,2683.24 2843,2672.5C 2843.17,2654 2843.33,2635.5 2843.5,2617C 2843.63,2596.46 2843.13,2575.96 2842,2555.5C 2840.82,2547.95 2838.82,2540.61 2836,2533.5C 2808.33,2463.83 2780.67,2394.17 2753,2324.5C 2746.38,2309.76 2734.88,2302.43 2718.5,2302.5C 2718.5,2293.83 2718.5,2285.17 2718.5,2276.5 Z"/></g>
<g><path style="opacity:0.978" fill="#000000" d="M 3630.5,2276.5 C 3698.85,2276.03 3767.19,2276.53 3835.5,2278C 3889.21,2283.71 3920.04,2313.21 3928,2366.5C 3933.81,2400.44 3927.48,2431.78 3909,2460.5C 3892.87,2481.65 3871.7,2494.82 3845.5,2500C 3877.14,2510.98 3896.97,2532.81 3905,2565.5C 3910.17,2588.68 3914.5,2612.01 3918,2635.5C 3921.74,2653.07 3928.41,2669.41 3938,2684.5C 3944.32,2691.58 3952.16,2695.91 3961.5,2697.5C 3961.5,2706.17 3961.5,2714.83 3961.5,2723.5C 3939.8,2723.91 3918.13,2723.41 3896.5,2722C 3865.85,2716.68 3846.68,2698.85 3839,2668.5C 3835.16,2653.95 3831.82,2639.29 3829,2624.5C 3825.44,2602.81 3821.77,2581.15 3818,2559.5C 3815.51,2547.35 3810.01,2536.85 3801.5,2528C 3795.25,2523.38 3788.25,2520.71 3780.5,2520C 3771.17,2519.5 3761.84,2519.33 3752.5,2519.5C 3752.02,2573.54 3752.52,2627.54 3754,2681.5C 3756.87,2691.04 3763.37,2695.87 3773.5,2696C 3779.8,2697.01 3786.13,2697.51 3792.5,2697.5C 3792.5,2706.17 3792.5,2714.83 3792.5,2723.5C 3738.5,2723.5 3684.5,2723.5 3630.5,2723.5C 3630.5,2714.83 3630.5,2706.17 3630.5,2697.5C 3639.67,2697.56 3648.67,2696.4 3657.5,2694C 3663.91,2691.25 3667.74,2686.42 3669,2679.5C 3670.14,2619.68 3670.64,2559.85 3670.5,2500C 3670.65,2440.48 3670.15,2380.98 3669,2321.5C 3668.04,2313.75 3663.87,2308.58 3656.5,2306C 3647.94,2304.07 3639.27,2302.9 3630.5,2302.5C 3630.5,2293.83 3630.5,2285.17 3630.5,2276.5 Z M 3771.5,2308.5 C 3806.88,2304.42 3829.38,2319.42 3839,2353.5C 3845.66,2380.76 3845.99,2408.1 3840,2435.5C 3834.83,2462 3819.33,2478.83 3793.5,2486C 3779.88,2487.38 3766.21,2487.88 3752.5,2487.5C 3752.33,2432.83 3752.5,2378.17 3753,2323.5C 3755.82,2314.34 3761.98,2309.34 3771.5,2308.5 Z"/></g>
</svg>