<svg xmlns="http://www.w3.org/2000/svg" xmlns:xlink="http://www.w3.org/1999/xlink" version="1.1" style="shape-rendering:geometricPrecision; text-rendering:geometricPrecision; image-rendering:optimizeQuality; fill-rule:evenodd; clip-rule:evenodd" viewBox="1132.5 514.5 1580.48 2812">
<g><path style="opacity:1" fill="#000000" d="M 1728.5,515.5 C 1729.17,517.833 1729.83,520.167 1730.5,522.5C 1731.63,589.164 1731.63,655.831 1730.5,722.5C 1728.97,951.665 1728.31,1181 1728.5,1410.5C 1659.51,1386.33 1590.67,1361.67 1522,1336.5C 1526.44,1090.18 1530.77,843.843 1535,597.5C 1536.41,592.686 1539.58,589.52 1544.5,588C 1606.13,564.513 1667.47,540.346 1728.5,515.5 Z"/></g>
<g><path style="opacity:1" fill="#010101" d="M 2129.5,806.5 C 2131.25,802.817 2131.92,798.817 2131.5,794.5C 2134.02,771.228 2135.18,747.894 2135,724.5C 2134.23,723.151 2133.06,722.318 2131.5,722C 2080.93,715.387 2030.26,714.72 1979.5,720C 1953.84,722.611 1928.17,725.111 1902.5,727.5C 1896.58,727.216 1890.92,727.883 1885.5,729.5C 1860.91,732.235 1836.24,733.069 1811.5,732C 1805.75,731.479 1800.08,730.479 1794.5,729C 1792.12,728.284 1790.12,727.117 1788.5,725.5C 1787.51,689.239 1787.17,652.906 1787.5,616.5C 1787.77,599.65 1787.43,582.817 1786.5,566C 1786.96,561.828 1787.46,557.662 1788,553.5C 1789.88,549.529 1793.05,547.363 1797.5,547C 1808.84,545.073 1820.17,545.073 1831.5,547C 1845.61,548.688 1859.61,551.022 1873.5,554C 1936.32,569.039 1998.99,584.705 2061.5,601C 2083.96,606.449 2106.62,610.616 2129.5,613.5C 2129.83,612.833 2130.17,612.167 2130.5,611.5C 2129.41,597.812 2128.08,584.146 2126.5,570.5C 2126.66,568.143 2126.5,565.81 2126,563.5C 2125.62,562.944 2125.12,562.611 2124.5,562.5C 2123.37,556.858 2122.37,551.191 2121.5,545.5C 2121.83,542.772 2121.16,540.438 2119.5,538.5C 2117.81,532.946 2117.31,527.28 2118,521.5C 2119.56,519.232 2121.72,518.066 2124.5,518C 2155.48,519.295 2186.48,520.629 2217.5,522C 2220.66,522.011 2223.49,522.845 2226,524.5C 2227.17,533.116 2227.84,541.783 2228,550.5C 2229.2,599.17 2230.53,647.837 2232,696.5C 2232.99,759.211 2232.65,821.878 2231,884.5C 2229.83,888.333 2227.33,890.833 2223.5,892C 2219.72,892.906 2215.89,893.406 2212,893.5C 2183.85,892.343 2155.68,891.51 2127.5,891C 2121.47,891.123 2118.13,888.29 2117.5,882.5C 2120.85,857.052 2124.85,831.719 2129.5,806.5 Z"/></g>
<g><path style="opacity:1" fill="#4a4a4a" d="M 1728.5,515.5 C 1728.56,514.957 1728.89,514.624 1729.5,514.5C 1730.48,517.086 1730.81,519.753 1730.5,522.5C 1729.83,520.167 1729.17,517.833 1728.5,515.5 Z"/></g>
<g><path style="opacity:1" fill="#3a3a3a" d="M 2119.5,538.5 C 2121.16,540.438 2121.83,542.772 2121.5,545.5C 2120.39,543.401 2119.72,541.067 2119.5,538.5 Z"/></g>
<g><path style="opacity:1" fill="#3d3d3d" d="M 2124.5,562.5 C 2125.12,562.611 2125.62,562.944 2126,563.5C 2126.5,565.81 2126.66,568.143 2126.5,570.5C 2125.63,567.997 2124.96,565.33 2124.5,562.5 Z"/></g>
<g><path style="opacity:1" fill="#3c3c3c" d="M 1787.5,616.5 C 1787.17,652.906 1787.51,689.239 1788.5,725.5C 1787.17,707.679 1786.5,689.512 1786.5,671C 1786.5,652.664 1786.83,634.497 1787.5,616.5 Z"/></g>
<g><path style="opacity:1" fill="#494949" d="M 1902.5,727.5 C 1897.04,728.737 1891.37,729.404 1885.5,729.5C 1890.92,727.883 1896.58,727.216 1902.5,727.5 Z"/></g>
<g><path style="opacity:1" fill="#010101" d="M 2072.5,750.5 C 2074.78,752.223 2077.45,752.889 2080.5,752.5C 2086.49,752.703 2091.99,754.37 2097,757.5C 2098.52,796.382 2094.18,834.715 2084,872.5C 2082.73,876.99 2081.06,881.323 2079,885.5C 2077.77,887.726 2075.94,889.226 2073.5,890C 2047.09,889.847 2020.75,891.014 1994.5,893.5C 1994.14,896.267 1993.48,898.933 1992.5,901.5C 1990.78,903.78 1990.11,906.447 1990.5,909.5C 1990.3,912.518 1989.96,915.518 1989.5,918.5C 1987.73,921.123 1987.07,924.123 1987.5,927.5C 1986.26,939.471 1985.26,951.471 1984.5,963.5C 1984.83,966.5 1985.17,969.5 1985.5,972.5C 2038.81,965.718 2092.14,958.884 2145.5,952C 2169.65,949.534 2193.65,950.534 2217.5,955C 2225.26,956.668 2229.09,961.501 2229,969.5C 2229.32,993.004 2229.82,1016.5 2230.5,1040C 2230.31,1051.89 2229.48,1063.72 2228,1075.5C 2227.53,1076.93 2226.7,1078.1 2225.5,1079C 2222.17,1079.67 2218.83,1079.67 2215.5,1079C 2202.88,1074.51 2189.88,1071.84 2176.5,1071C 2130.44,1068.64 2084.44,1069.64 2038.5,1074C 1991.74,1078.18 1945.08,1083.18 1898.5,1089C 1879.04,1090.89 1859.54,1092.05 1840,1092.5C 1826.72,1092.6 1813.55,1091.43 1800.5,1089C 1795.42,1088.53 1791.25,1086.37 1788,1082.5C 1787.52,1081.55 1787.35,1080.55 1787.5,1079.5C 1786.89,1057.68 1786.22,1036.02 1785.5,1014.5C 1784,998.482 1784.17,982.482 1786,966.5C 1786.7,964.968 1787.87,963.968 1789.5,963.5C 1822.08,975.449 1855.75,980.449 1890.5,978.5C 1895.11,958.753 1896.61,938.753 1895,918.5C 1894.82,913.373 1893.99,908.373 1892.5,903.5C 1863.33,903.352 1834.66,899.518 1806.5,892C 1799.75,890.084 1793.25,887.584 1787,884.5C 1784.42,853.867 1784.25,823.2 1786.5,792.5C 1785.14,785.451 1785.31,778.451 1787,771.5C 1788.13,770.056 1789.63,769.39 1791.5,769.5C 1812.64,774.216 1833.97,775.383 1855.5,773C 1904.58,766.209 1953.58,758.876 2002.5,751C 2025.83,748.041 2049.17,747.875 2072.5,750.5 Z"/></g>
<g><path style="opacity:1" fill="#3a3a3a" d="M 2072.5,750.5 C 2075.37,750.802 2078.04,751.469 2080.5,752.5C 2077.45,752.889 2074.78,752.223 2072.5,750.5 Z"/></g>
<g><path style="opacity:1" fill="#3b3b3b" d="M 2131.5,794.5 C 2131.92,798.817 2131.25,802.817 2129.5,806.5C 2129.72,802.295 2130.38,798.295 2131.5,794.5 Z"/></g>
<g><path style="opacity:1" fill="#393939" d="M 1992.5,901.5 C 1992.2,904.373 1991.53,907.039 1990.5,909.5C 1990.11,906.447 1990.78,903.78 1992.5,901.5 Z"/></g>
<g><path style="opacity:1" fill="#3e3e3e" d="M 1989.5,918.5 C 1989.14,921.689 1988.47,924.689 1987.5,927.5C 1987.07,924.123 1987.73,921.123 1989.5,918.5 Z"/></g>
<g><path style="opacity:1" fill="#595959" d="M 1785.5,1014.5 C 1786.22,1036.02 1786.89,1057.68 1787.5,1079.5C 1786.73,1078.74 1786.23,1077.74 1786,1076.5C 1785.5,1055.84 1785.33,1035.17 1785.5,1014.5 Z"/></g>
<g><path style="opacity:1" fill="#010101" d="M 2188.5,1110.5 C 2192.9,1112.1 2197.57,1112.77 2202.5,1112.5C 2208.99,1112.8 2215.32,1113.97 2221.5,1116C 2226.1,1117.6 2228.93,1120.76 2230,1125.5C 2230.3,1138.68 2230.8,1151.84 2231.5,1165C 2230.55,1213.49 2229.88,1261.99 2229.5,1310.5C 2229.41,1336.85 2230.07,1363.19 2231.5,1389.5C 2231.43,1395.19 2231.09,1400.85 2230.5,1406.5C 2228.81,1410.37 2225.81,1412.87 2221.5,1414C 2204.33,1414.45 2187.17,1414.95 2170,1415.5C 2158.11,1415.43 2146.28,1414.6 2134.5,1413C 2130.54,1413.21 2128.87,1411.38 2129.5,1407.5C 2130.96,1402.4 2131.62,1397.07 2131.5,1391.5C 2133.66,1374.21 2135.49,1356.88 2137,1339.5C 2137.67,1320.17 2137.67,1300.83 2137,1281.5C 2136.37,1263.63 2131.71,1246.97 2123,1231.5C 2113.37,1220.9 2103.7,1220.9 2094,1231.5C 2086.11,1244.7 2081.78,1259.03 2081,1274.5C 2079.15,1319.62 2082.98,1364.28 2092.5,1408.5C 2092.22,1412.2 2090.55,1415.03 2087.5,1417C 2058.32,1417.27 2029.15,1418.1 2000,1419.5C 1993.8,1419.35 1987.64,1418.85 1981.5,1418C 1980.87,1416.09 1980.54,1414.09 1980.5,1412C 1984.49,1384.13 1986.82,1356.13 1987.5,1328C 1988.39,1304.16 1984.89,1280.99 1977,1258.5C 1972.62,1245.12 1964.78,1234.29 1953.5,1226C 1937.55,1219.76 1925.05,1223.93 1916,1238.5C 1910.49,1249.88 1907.15,1261.88 1906,1274.5C 1905.17,1290.86 1905.5,1307.19 1907,1323.5C 1911.54,1351.32 1916.87,1378.98 1923,1406.5C 1923.9,1412.28 1923.57,1417.95 1922,1423.5C 1918.05,1425.19 1913.89,1426.19 1909.5,1426.5C 1869.81,1425.12 1830.14,1423.95 1790.5,1423C 1787.86,1420.42 1786.36,1417.26 1786,1413.5C 1784.33,1357.68 1784.16,1301.84 1785.5,1246C 1784.79,1207.83 1784.29,1169.66 1784,1131.5C 1784.5,1130.33 1785.33,1129.5 1786.5,1129C 1803.33,1129.05 1820.17,1129.55 1837,1130.5C 1860.23,1130.04 1883.4,1128.54 1906.5,1126C 1944.15,1120.92 1981.82,1115.92 2019.5,1111C 2075.82,1105.2 2132.16,1105.03 2188.5,1110.5 Z"/></g>
<g><path style="opacity:1" fill="#3a3a3a" d="M 2188.5,1110.5 C 2193.39,1110.53 2198.06,1111.2 2202.5,1112.5C 2197.57,1112.77 2192.9,1112.1 2188.5,1110.5 Z"/></g>
<g><path style="opacity:1" fill="#373737" d="M 1730.5,722.5 C 1730.11,936.336 1730.11,1150.17 1730.5,1364C 1730.53,1379.69 1729.87,1395.19 1728.5,1410.5C 1728.31,1181 1728.97,951.665 1730.5,722.5 Z"/></g>
<g><path style="opacity:1" fill="#040404" d="M 1649.5,1420.5 C 1640.38,1422.16 1631.04,1423.16 1621.5,1423.5C 1502.5,1424.65 1383.5,1425.48 1264.5,1426C 1242.19,1413.03 1219.85,1400.03 1197.5,1387C 1193.22,1384.38 1189.22,1381.38 1185.5,1378C 1187.17,1377.67 1188.83,1377.33 1190.5,1377C 1295.86,1375.37 1401.19,1373.04 1506.5,1370C 1554.5,1385.94 1602.16,1402.78 1649.5,1420.5 Z"/></g>
<g><path style="opacity:1" fill="#090909" d="M 2447.5,1396.5 C 2447.61,1397.12 2447.94,1397.62 2448.5,1398C 2450.47,1398.5 2452.47,1398.66 2454.5,1398.5C 2481.71,1402.81 2508.71,1408.14 2535.5,1414.5C 2529.83,1415.17 2524.17,1415.83 2518.5,1416.5C 2439.16,1417.31 2359.83,1417.81 2280.5,1418C 2279.17,1407.33 2279.17,1396.67 2280.5,1386C 2314.16,1386.21 2347.83,1386.21 2381.5,1386C 2403.59,1388.96 2425.59,1392.46 2447.5,1396.5 Z"/></g>
<g><path style="opacity:1" fill="#020202" d="M 1137.5,1392.5 C 1176.39,1414.71 1215.06,1437.38 1253.5,1460.5C 1253.83,1465.17 1254.17,1469.83 1254.5,1474.5C 1253.09,1596.97 1251.26,1719.31 1249,1841.5C 1210.58,1813.92 1171.75,1786.92 1132.5,1760.5C 1133.45,1637.84 1135.12,1515.17 1137.5,1392.5 Z"/></g>
<g><path style="opacity:1" fill="#3e3e3e" d="M 2447.5,1396.5 C 2450.01,1396.93 2452.34,1397.59 2454.5,1398.5C 2452.47,1398.66 2450.47,1398.5 2448.5,1398C 2447.94,1397.62 2447.61,1397.12 2447.5,1396.5 Z"/></g>
<g><path style="opacity:1" fill="#353535" d="M 2131.5,1391.5 C 2131.62,1397.07 2130.96,1402.4 2129.5,1407.5C 2129.53,1401.95 2130.19,1396.62 2131.5,1391.5 Z"/></g>
<g><path style="opacity:1" fill="#6d6d6d" d="M 2535.5,1414.5 C 2536.76,1414.46 2537.76,1414.96 2538.5,1416C 2531.84,1416.5 2525.17,1416.67 2518.5,1416.5C 2524.17,1415.83 2529.83,1415.17 2535.5,1414.5 Z"/></g>
<g><path style="opacity:1" fill="#555555" d="M 1649.5,1420.5 C 1653.76,1421.19 1654.1,1422.03 1650.5,1423C 1640.84,1423.5 1631.17,1423.67 1621.5,1423.5C 1631.04,1423.16 1640.38,1422.16 1649.5,1420.5 Z"/></g>
<g><path style="opacity:1" fill="#010101" d="M 2428.5,1740.5 C 2431.17,1742.12 2434.17,1742.78 2437.5,1742.5C 2456.46,1746.63 2475.62,1749.3 2495,1750.5C 2530.24,1751.23 2554.91,1735.56 2569,1703.5C 2575.87,1686.13 2579.54,1668.13 2580,1649.5C 2567.21,1659.29 2554.71,1669.45 2542.5,1680C 2530.01,1690.25 2516.01,1697.92 2500.5,1703C 2480.24,1709.12 2461.24,1706.46 2443.5,1695C 2434.29,1687.07 2428.29,1677.23 2425.5,1665.5C 2425.66,1663.47 2425.5,1661.47 2425,1659.5C 2424.62,1658.94 2424.12,1658.61 2423.5,1658.5C 2422.62,1630.19 2426.45,1602.53 2435,1575.5C 2447.58,1533.76 2462.91,1493.09 2481,1453.5C 2483.96,1450.77 2487.46,1449.27 2491.5,1449C 2517.62,1446.44 2543.79,1444.61 2570,1443.5C 2577.53,1443.57 2585.03,1443.91 2592.5,1444.5C 2593.11,1449.62 2591.94,1454.29 2589,1458.5C 2573.18,1478.8 2558.85,1500.13 2546,1522.5C 2537.3,1539.37 2534.97,1557.03 2539,1575.5C 2544.66,1590.25 2554.16,1593.42 2567.5,1585C 2574.15,1578.69 2579.65,1571.52 2584,1563.5C 2599.96,1529.3 2612.96,1493.96 2623,1457.5C 2624.27,1453.36 2626.1,1449.52 2628.5,1446C 2631.71,1444.85 2635.04,1444.18 2638.5,1444C 2657.13,1442.09 2675.8,1441.42 2694.5,1442C 2698.93,1442.42 2703.27,1443.25 2707.5,1444.5C 2712.7,1531.44 2714.2,1618.44 2712,1705.5C 2710.88,1741.92 2708.55,1778.25 2705,1814.5C 2703.96,1825 2700.63,1834.67 2695,1843.5C 2688.85,1849.82 2681.35,1853.32 2672.5,1854C 2605.49,1854.83 2538.49,1856 2471.5,1857.5C 2451.32,1857.19 2431.15,1856.52 2411,1855.5C 2396.07,1857.29 2381.23,1856.79 2366.5,1854C 2364.59,1853.59 2363.59,1852.43 2363.5,1850.5C 2369.8,1834.42 2376.97,1818.76 2385,1803.5C 2392.7,1782.72 2401.37,1762.39 2411,1742.5C 2411.9,1741.3 2413.07,1740.47 2414.5,1740C 2419.22,1739.28 2423.89,1739.45 2428.5,1740.5 Z"/></g>
<g><path style="opacity:1" fill="#020202" d="M 2200.5,1843.5 C 2200.66,1841.47 2200.5,1839.47 2200,1837.5C 2199.62,1836.94 2199.12,1836.61 2198.5,1836.5C 2196.46,1822.68 2193.63,1809.01 2190,1795.5C 2176.15,1743.27 2161.48,1691.27 2146,1639.5C 2135.52,1603.09 2127.85,1566.09 2123,1528.5C 2121.53,1510.86 2121.2,1493.19 2122,1475.5C 2122.48,1468.64 2123.81,1461.97 2126,1455.5C 2127.32,1453.51 2129.15,1452.35 2131.5,1452C 2162.81,1449.83 2194.14,1448.49 2225.5,1448C 2233.54,1449.73 2236.54,1454.73 2234.5,1463C 2224.84,1541.26 2235.01,1616.76 2265,1689.5C 2275.27,1671.62 2283.94,1652.95 2291,1633.5C 2306.66,1595.52 2317.33,1556.19 2323,1515.5C 2324.72,1496.66 2324.55,1477.83 2322.5,1459C 2322.03,1454.26 2324.03,1451.26 2328.5,1450C 2362.86,1449.47 2397.19,1448.3 2431.5,1446.5C 2440.06,1446.59 2448.39,1447.92 2456.5,1450.5C 2457.6,1453.19 2457.44,1455.86 2456,1458.5C 2444.89,1477.05 2436.23,1496.72 2430,1517.5C 2411.24,1580.2 2393.58,1643.2 2377,1706.5C 2367.26,1741.06 2355.93,1775.06 2343,1808.5C 2336.59,1822.32 2328.93,1835.32 2320,1847.5C 2313.74,1853.83 2306.07,1856.83 2297,1856.5C 2267.17,1856.77 2237.33,1856.27 2207.5,1855C 2205.9,1854.73 2204.4,1854.23 2203,1853.5C 2201.54,1850.32 2200.71,1846.99 2200.5,1843.5 Z"/></g>
<g><path style="opacity:1" fill="#020202" d="M 1875.5,1673.5 C 1877.22,1670.16 1877.88,1666.49 1877.5,1662.5C 1880.67,1633.77 1884.34,1605.1 1888.5,1576.5C 1890.22,1573.16 1890.88,1569.49 1890.5,1565.5C 1894.19,1532.06 1901.36,1499.39 1912,1467.5C 1914.92,1456.61 1922.09,1451.44 1933.5,1452C 1976.33,1451.13 2019.17,1450.29 2062,1449.5C 2069.54,1449.52 2077.04,1450.02 2084.5,1451C 2085.93,1451.47 2087.1,1452.3 2088,1453.5C 2086.16,1468.09 2085.49,1482.75 2086,1497.5C 2090.67,1547.19 2099.34,1596.19 2112,1644.5C 2125.79,1698.46 2139.46,1752.46 2153,1806.5C 2155.7,1818.03 2157.53,1829.7 2158.5,1841.5C 2158.48,1846.15 2157.14,1850.32 2154.5,1854C 2117.55,1856.9 2080.55,1857.23 2043.5,1855C 2042.77,1853.6 2042.27,1852.1 2042,1850.5C 2041.67,1827.17 2041.33,1803.83 2041,1780.5C 2040.34,1761.86 2035.34,1744.52 2026,1728.5C 2016.67,1716.77 2005.17,1713.93 1991.5,1720C 1975.01,1730.17 1963.18,1744.33 1956,1762.5C 1950.31,1775.6 1946.64,1789.26 1945,1803.5C 1944.5,1820.83 1944.33,1838.16 1944.5,1855.5C 1940.2,1856.13 1935.86,1856.63 1931.5,1857C 1904.16,1857.28 1876.83,1857.78 1849.5,1858.5C 1845.25,1858.48 1841.08,1858.15 1837,1857.5C 1836.85,1853.09 1837.52,1848.75 1839,1844.5C 1847.53,1821.71 1854.2,1798.37 1859,1774.5C 1865.58,1741 1871.08,1707.34 1875.5,1673.5 Z M 1994.5,1512.5 C 1996.07,1512.94 1997.24,1513.94 1998,1515.5C 2000.56,1519.94 2002.56,1524.61 2004,1529.5C 2015.76,1567.7 2020.42,1606.7 2018,1646.5C 2006.57,1642.12 1994.74,1640.29 1982.5,1641C 1972.77,1643.41 1963.43,1646.91 1954.5,1651.5C 1960.14,1612.71 1969.64,1574.71 1983,1537.5C 1986.31,1528.88 1990.15,1520.54 1994.5,1512.5 Z"/></g>
<g><path style="opacity:1" fill="#020202" d="M 1850.5,1547.5 C 1848.49,1546.08 1846.15,1545.41 1843.5,1545.5C 1828.39,1541.58 1813.05,1538.74 1797.5,1537C 1787.15,1536.44 1776.82,1536.61 1766.5,1537.5C 1763.45,1537.11 1760.78,1537.78 1758.5,1539.5C 1747.29,1542.01 1738.12,1547.68 1731,1556.5C 1725.47,1568.26 1727.97,1578.09 1738.5,1586C 1752.9,1594.02 1768.4,1597.85 1785,1597.5C 1792.19,1597.38 1799.36,1596.88 1806.5,1596C 1820.27,1593.47 1833.94,1590.47 1847.5,1587C 1851.15,1586.5 1854.82,1586.33 1858.5,1586.5C 1859.62,1599.53 1859.29,1612.53 1857.5,1625.5C 1855.79,1629.88 1855.12,1634.55 1855.5,1639.5C 1854.63,1653.66 1850.96,1666.99 1844.5,1679.5C 1843.17,1680.5 1841.83,1681.5 1840.5,1682.5C 1823.57,1679.01 1806.57,1675.85 1789.5,1673C 1773.03,1670.55 1756.69,1671.22 1740.5,1675C 1721.59,1679.56 1713.42,1691.39 1716,1710.5C 1722.7,1729.85 1736.2,1741.35 1756.5,1745C 1764.04,1745.94 1771.54,1746.77 1779,1747.5C 1795.11,1746.01 1811.11,1743.67 1827,1740.5C 1828.7,1741.41 1830.53,1741.74 1832.5,1741.5C 1830.07,1770.63 1825.07,1799.3 1817.5,1827.5C 1815.84,1829.44 1815.17,1831.77 1815.5,1834.5C 1814.72,1840.35 1813.22,1846.02 1811,1851.5C 1808.15,1855.34 1804.31,1857.18 1799.5,1857C 1755.34,1858.22 1711.17,1858.72 1667,1858.5C 1654.48,1858.51 1641.98,1858.01 1629.5,1857C 1626.99,1856.88 1624.99,1855.88 1623.5,1854C 1619.21,1832.39 1616.71,1810.56 1616,1788.5C 1611.11,1712.81 1611.44,1637.15 1617,1561.5C 1618.5,1538.03 1621.16,1514.7 1625,1491.5C 1627.6,1480.21 1631.1,1469.21 1635.5,1458.5C 1639.78,1457.44 1644.12,1456.6 1648.5,1456C 1721.47,1453.23 1794.47,1452.23 1867.5,1453C 1872.17,1453.54 1876.84,1454.04 1881.5,1454.5C 1881.67,1458.18 1881.5,1461.85 1881,1465.5C 1878.46,1473.44 1876.13,1481.44 1874,1489.5C 1871.1,1506.92 1867.76,1524.26 1864,1541.5C 1861.21,1547.48 1856.71,1549.48 1850.5,1547.5 Z"/></g>
<g><path style="opacity:1" fill="#010101" d="M 1405.5,1458.5 C 1406.3,1460.04 1406.63,1461.71 1406.5,1463.5C 1406.09,1468.54 1405.43,1473.54 1404.5,1478.5C 1403.88,1478.61 1403.38,1478.94 1403,1479.5C 1402.5,1481.47 1402.34,1483.47 1402.5,1485.5C 1401.82,1491.89 1400.82,1498.22 1399.5,1504.5C 1398.88,1504.61 1398.38,1504.94 1398,1505.5C 1397.5,1507.47 1397.34,1509.47 1397.5,1511.5C 1393.55,1537.59 1390.88,1563.75 1389.5,1590C 1416.48,1589.54 1443.14,1586.37 1469.5,1580.5C 1471.31,1579.08 1471.97,1577.08 1471.5,1574.5C 1471.18,1547.82 1471.68,1521.15 1473,1494.5C 1473.47,1482.83 1475.97,1471.67 1480.5,1461C 1517.83,1459.4 1555.16,1458.4 1592.5,1458C 1594.62,1459.73 1596.12,1461.9 1597,1464.5C 1594.2,1496.15 1591.2,1527.82 1588,1559.5C 1580.54,1642.86 1580.7,1726.2 1588.5,1809.5C 1588.12,1813.49 1588.78,1817.16 1590.5,1820.5C 1592.72,1830.44 1593.38,1840.44 1592.5,1850.5C 1591.27,1851.28 1589.94,1851.78 1588.5,1852C 1560.31,1853.56 1532.15,1855.39 1504,1857.5C 1499.11,1856.96 1494.27,1856.12 1489.5,1855C 1486.89,1852.01 1485.56,1848.51 1485.5,1844.5C 1485.93,1841.12 1485.27,1838.12 1483.5,1835.5C 1479.4,1786.59 1476.74,1737.59 1475.5,1688.5C 1475.5,1687.17 1475.5,1685.83 1475.5,1684.5C 1466.98,1684.17 1458.65,1684.51 1450.5,1685.5C 1436.8,1686.6 1423.13,1688.1 1409.5,1690C 1402.99,1690.8 1396.66,1692.3 1390.5,1694.5C 1389.33,1703.15 1389.17,1711.81 1390,1720.5C 1392.1,1757.57 1395.1,1794.57 1399,1831.5C 1399.82,1840.41 1399.65,1849.24 1398.5,1858C 1384.92,1858.62 1371.42,1857.78 1358,1855.5C 1331.85,1857.31 1305.68,1858.48 1279.5,1859C 1276.91,1857.66 1275.41,1855.49 1275,1852.5C 1275.23,1774.71 1278.56,1697.04 1285,1619.5C 1286.94,1569.83 1288.61,1520.16 1290,1470.5C 1291.6,1465.5 1295.1,1463 1300.5,1463C 1323.17,1461.38 1345.84,1459.72 1368.5,1458C 1380.88,1457.21 1393.21,1457.37 1405.5,1458.5 Z"/></g>
<g><path style="opacity:1" fill="#737373" d="M 1405.5,1458.5 C 1406.65,1458.79 1407.32,1459.62 1407.5,1461C 1407.47,1462.07 1407.14,1462.9 1406.5,1463.5C 1406.63,1461.71 1406.3,1460.04 1405.5,1458.5 Z"/></g>
<g><path style="opacity:1" fill="#3e3e3e" d="M 1404.5,1478.5 C 1404.07,1481.01 1403.41,1483.34 1402.5,1485.5C 1402.34,1483.47 1402.5,1481.47 1403,1479.5C 1403.38,1478.94 1403.88,1478.61 1404.5,1478.5 Z"/></g>
<g><path style="opacity:1" fill="#404040" d="M 1399.5,1504.5 C 1399.07,1507.01 1398.41,1509.34 1397.5,1511.5C 1397.34,1509.47 1397.5,1507.47 1398,1505.5C 1398.38,1504.94 1398.88,1504.61 1399.5,1504.5 Z"/></g>
<g><path style="opacity:1" fill="#3c3c3c" d="M 1766.5,1537.5 C 1764.04,1538.53 1761.37,1539.2 1758.5,1539.5C 1760.78,1537.78 1763.45,1537.11 1766.5,1537.5 Z"/></g>
<g><path style="opacity:1" fill="#3d3d3d" d="M 1843.5,1545.5 C 1846.15,1545.41 1848.49,1546.08 1850.5,1547.5C 1847.85,1547.59 1845.51,1546.92 1843.5,1545.5 Z"/></g>
<g><path style="opacity:1" fill="#393939" d="M 1890.5,1565.5 C 1890.88,1569.49 1890.22,1573.16 1888.5,1576.5C 1888.81,1572.64 1889.48,1568.97 1890.5,1565.5 Z"/></g>
<g><path style="opacity:1" fill="#7f7f7f" d="M 1471.5,1574.5 C 1471.97,1577.08 1471.31,1579.08 1469.5,1580.5C 1470.05,1578.37 1470.71,1576.37 1471.5,1574.5 Z"/></g>
<g><path style="opacity:1" fill="#373737" d="M 1857.5,1625.5 C 1857.47,1630.39 1856.8,1635.06 1855.5,1639.5C 1855.12,1634.55 1855.79,1629.88 1857.5,1625.5 Z"/></g>
<g><path style="opacity:1" fill="#3e3e3e" d="M 2423.5,1658.5 C 2424.12,1658.61 2424.62,1658.94 2425,1659.5C 2425.5,1661.47 2425.66,1663.47 2425.5,1665.5C 2424.39,1663.4 2423.72,1661.07 2423.5,1658.5 Z"/></g>
<g><path style="opacity:1" fill="#3a3a3a" d="M 1877.5,1662.5 C 1877.88,1666.49 1877.22,1670.16 1875.5,1673.5C 1875.81,1669.64 1876.48,1665.97 1877.5,1662.5 Z"/></g>
<g><path style="opacity:1" fill="#7b7b7b" d="M 1450.5,1685.5 C 1458.65,1684.51 1466.98,1684.17 1475.5,1684.5C 1475.5,1685.83 1475.5,1687.17 1475.5,1688.5C 1474.6,1687.79 1474.26,1686.79 1474.5,1685.5C 1466.5,1685.5 1458.5,1685.5 1450.5,1685.5 Z"/></g>
<g><path style="opacity:1" fill="#454545" d="M 2428.5,1740.5 C 2431.73,1740.68 2434.73,1741.34 2437.5,1742.5C 2434.17,1742.78 2431.17,1742.12 2428.5,1740.5 Z"/></g>
<g><path style="opacity:1" fill="#393939" d="M 1588.5,1809.5 C 1589.52,1812.97 1590.19,1816.64 1590.5,1820.5C 1588.78,1817.16 1588.12,1813.49 1588.5,1809.5 Z"/></g>
<g><path style="opacity:1" fill="#3e3e3e" d="M 1817.5,1827.5 C 1817.28,1830.07 1816.61,1832.4 1815.5,1834.5C 1815.17,1831.77 1815.84,1829.44 1817.5,1827.5 Z"/></g>
<g><path style="opacity:1" fill="#3a3a3a" d="M 1483.5,1835.5 C 1485.27,1838.12 1485.93,1841.12 1485.5,1844.5C 1484.53,1841.69 1483.86,1838.69 1483.5,1835.5 Z"/></g>
<g><path style="opacity:1" fill="#474747" d="M 2198.5,1836.5 C 2199.12,1836.61 2199.62,1836.94 2200,1837.5C 2200.5,1839.47 2200.66,1841.47 2200.5,1843.5C 2199.59,1841.34 2198.93,1839.01 2198.5,1836.5 Z"/></g>
<g><path style="opacity:1" fill="#010101" d="M 1959.5,1891.5 C 2020.26,1890.4 2080.92,1892.23 2141.5,1897C 2157.91,1898.41 2174.24,1900.41 2190.5,1903C 2214.16,1907.32 2226.32,1921.49 2227,1945.5C 2229.02,1979.46 2229.85,2013.46 2229.5,2047.5C 2229.33,2071.17 2229.17,2094.83 2229,2118.5C 2228.73,2127.86 2228.07,2137.2 2227,2146.5C 2191.21,2146.96 2155.38,2146.13 2119.5,2144C 2111.39,2143.65 2103.72,2141.65 2096.5,2138C 2095.71,2134.89 2095.87,2131.72 2097,2128.5C 2101.47,2115.42 2106.14,2102.42 2111,2089.5C 2123.74,2048.39 2110.58,2018.89 2071.5,2001C 2044.49,1989.65 2016.49,1986.32 1987.5,1991C 1952.76,1997.29 1930.6,2017.46 1921,2051.5C 1915.51,2067.73 1915.17,2084.07 1920,2100.5C 1923.94,2111.66 1928.27,2122.66 1933,2133.5C 1934.18,2137.27 1933.35,2140.44 1930.5,2143C 1895.25,2146.78 1859.92,2149.78 1824.5,2152C 1813.83,2152.67 1803.17,2152.67 1792.5,2152C 1788.1,2151.27 1785.27,2148.77 1784,2144.5C 1776.5,2078.46 1776.83,2012.46 1785,1946.5C 1786.69,1935.46 1790.35,1925.13 1796,1915.5C 1803.48,1904.34 1813.98,1898.17 1827.5,1897C 1833.49,1896.2 1839.49,1895.53 1845.5,1895C 1883.68,1894.36 1921.68,1893.19 1959.5,1891.5 Z"/></g>
<g><path style="opacity:1" fill="#010101" d="M 1728.5,2032.5 C 1726.16,2034.36 1725.82,2036.69 1727.5,2039.5C 1727.53,2431.49 1727.53,2823.49 1727.5,3215.5C 1727.52,3237.51 1727.02,3259.51 1726,3281.5C 1679.12,3194.41 1633.29,3106.74 1588.5,3018.5C 1588.71,3016.82 1588.05,3015.82 1586.5,3015.5C 1566.68,2977.86 1546.85,2940.19 1527,2902.5C 1524.88,2897.37 1523.72,2892.04 1523.5,2886.5C 1524.87,2555.5 1525.87,2224.5 1526.5,1893.5C 1593.83,1893.33 1661.17,1893.5 1728.5,1894C 1729.02,1940.12 1729.02,1986.28 1728.5,2032.5 Z"/></g>
<g><path style="opacity:1" fill="#393939" d="M 1728.5,2032.5 C 1728.8,2035.06 1728.47,2037.39 1727.5,2039.5C 1725.82,2036.69 1726.16,2034.36 1728.5,2032.5 Z"/></g>
<g><path style="opacity:1" fill="#010101" d="M 2233.5,2385.5 C 2231.86,2390.23 2231.19,2395.23 2231.5,2400.5C 2226.44,2449.71 2199.11,2472.21 2149.5,2468C 2100.26,2460.37 2056.92,2440.37 2019.5,2408C 2009.29,2396.12 1999.45,2383.96 1990,2371.5C 1978.43,2386.46 1965.59,2400.3 1951.5,2413C 1925.57,2431.64 1897.57,2446.64 1867.5,2458C 1847.74,2464.85 1827.41,2468.68 1806.5,2469.5C 1799.36,2470.09 1792.86,2468.42 1787,2464.5C 1784.22,2460.26 1782.88,2455.59 1783,2450.5C 1783.61,2420.83 1783.45,2391.16 1782.5,2361.5C 1782.54,2357.01 1783.37,2352.68 1785,2348.5C 1787.04,2346.4 1789.54,2345.23 1792.5,2345C 1846.49,2342.23 1893.83,2323.23 1934.5,2288C 1938.63,2283.52 1942.63,2279.02 1946.5,2274.5C 1947.04,2274.44 1947.38,2274.11 1947.5,2273.5C 1941.01,2272.18 1934.68,2272.18 1928.5,2273.5C 1900.49,2276.09 1872.49,2278.76 1844.5,2281.5C 1841.15,2281.33 1837.82,2281.5 1834.5,2282C 1833.94,2282.38 1833.61,2282.88 1833.5,2283.5C 1819.44,2285.17 1805.44,2287.17 1791.5,2289.5C 1786.93,2289.58 1783.77,2287.58 1782,2283.5C 1780.97,2278.9 1780.47,2274.23 1780.5,2269.5C 1781.81,2242.85 1782.65,2216.18 1783,2189.5C 1783.23,2186.91 1783.73,2184.41 1784.5,2182C 1810.7,2178.44 1837.04,2176.44 1863.5,2176C 1927.48,2173.8 1991.48,2173.13 2055.5,2174C 2112.19,2176.19 2168.86,2178.53 2225.5,2181C 2229.33,2181.5 2231.5,2183.67 2232,2187.5C 2232.97,2239.84 2234.14,2292.17 2235.5,2344.5C 2235.26,2358.2 2234.6,2371.87 2233.5,2385.5 Z M 2074.5,2272.5 C 2097.42,2274.44 2120.25,2276.77 2143,2279.5C 2148.16,2297.29 2148.82,2315.29 2145,2333.5C 2138.56,2357.31 2125.39,2361.81 2105.5,2347C 2094.19,2336.22 2086.02,2323.38 2081,2308.5C 2077.38,2297.69 2074.55,2286.69 2072.5,2275.5C 2072.29,2273.82 2072.95,2272.82 2074.5,2272.5 Z"/></g>
<g><path style="opacity:1" fill="#848484" d="M 1928.5,2273.5 C 1934.68,2272.18 1941.01,2272.18 1947.5,2273.5C 1947.38,2274.11 1947.04,2274.44 1946.5,2274.5C 1940.69,2273.51 1934.69,2273.18 1928.5,2273.5 Z"/></g>
<g><path style="opacity:1" fill="#818181" d="M 2074.5,2272.5 C 2072.95,2272.82 2072.29,2273.82 2072.5,2275.5C 2071.57,2274.43 2071.23,2273.1 2071.5,2271.5C 2072.79,2271.26 2073.79,2271.6 2074.5,2272.5 Z"/></g>
<g><path style="opacity:1" fill="#414141" d="M 1844.5,2281.5 C 1841,2282.4 1837.34,2283.07 1833.5,2283.5C 1833.61,2282.88 1833.94,2282.38 1834.5,2282C 1837.82,2281.5 1841.15,2281.33 1844.5,2281.5 Z"/></g>
<g><path style="opacity:1" fill="#363636" d="M 2233.5,2385.5 C 2233.39,2390.71 2232.72,2395.71 2231.5,2400.5C 2231.19,2395.23 2231.86,2390.23 2233.5,2385.5 Z"/></g>
<g><path style="opacity:1" fill="#010101" d="M 2020.5,2460.5 C 2024.9,2462.1 2029.57,2462.77 2034.5,2462.5C 2095.13,2469.73 2146.96,2494.73 2190,2537.5C 2205.2,2553.88 2216.86,2572.54 2225,2593.5C 2240.4,2641.17 2232.4,2684.51 2201,2723.5C 2174.08,2754.56 2140.58,2775.4 2100.5,2786C 2016.16,2807.62 1936.83,2795.95 1862.5,2751C 1830.37,2730.22 1806.54,2702.39 1791,2667.5C 1770.09,2606.31 1783.92,2554.47 1832.5,2512C 1872.92,2479.52 1919.26,2462.18 1971.5,2460C 1987.85,2459.26 2004.18,2459.43 2020.5,2460.5 Z M 2010.5,2580.5 C 2043.69,2577.59 2075.36,2583.09 2105.5,2597C 2116.87,2603.04 2126.37,2611.21 2134,2621.5C 2140.94,2638.36 2136.77,2651.86 2121.5,2662C 2101.11,2674.91 2078.77,2681.57 2054.5,2682C 2020.09,2684.45 1987.76,2677.45 1957.5,2661C 1948.23,2655.07 1941.07,2647.24 1936,2637.5C 1931.58,2623.1 1935.41,2611.27 1947.5,2602C 1966.77,2589.77 1987.77,2582.6 2010.5,2580.5 Z"/></g>
<g><path style="opacity:1" fill="#3a3a3a" d="M 2020.5,2460.5 C 2025.39,2460.53 2030.06,2461.2 2034.5,2462.5C 2029.57,2462.77 2024.9,2462.1 2020.5,2460.5 Z"/></g>
<g><path style="opacity:1" fill="#010101" d="M 2233.5,3010.5 C 2231.83,3013.51 2231.16,3016.84 2231.5,3020.5C 2230.97,3029.32 2229.47,3037.99 2227,3046.5C 2226.33,3047.58 2225.33,3048.25 2224,3048.5C 2212.6,3043.55 2201.1,3038.72 2189.5,3034C 2156.4,3023.11 2122.4,3017.78 2087.5,3018C 2081.01,3015.89 2079.84,3012.06 2084,3006.5C 2097.32,2995.18 2109.99,2983.18 2122,2970.5C 2131.6,2958.71 2137.1,2945.21 2138.5,2930C 2138.94,2917.58 2133.94,2908.25 2123.5,2902C 2115.77,2899.76 2108.43,2900.76 2101.5,2905C 2092.97,2910.56 2086.14,2917.73 2081,2926.5C 2070.25,2946.34 2058.25,2965.34 2045,2983.5C 2022.42,3009.2 1994.59,3026.37 1961.5,3035C 1933.35,3042.76 1904.69,3046.93 1875.5,3047.5C 1854.98,3047.23 1835.31,3043.06 1816.5,3035C 1806.76,3029.93 1798.93,3022.77 1793,3013.5C 1790.26,3008.11 1788.43,3002.44 1787.5,2996.5C 1787.66,2994.14 1787.5,2991.81 1787,2989.5C 1786.62,2988.94 1786.12,2988.61 1785.5,2988.5C 1783.84,2977.56 1782.84,2966.56 1782.5,2955.5C 1782.79,2945.95 1782.12,2936.62 1780.5,2927.5C 1779.43,2906.85 1779.27,2886.18 1780,2865.5C 1781.65,2841.67 1783.15,2817.83 1784.5,2794C 1783.13,2785.14 1783.3,2776.31 1785,2767.5C 1785.99,2761.5 1789.16,2760 1794.5,2763C 1800.57,2769.74 1807.24,2775.74 1814.5,2781C 1851.37,2802.85 1891.04,2817.18 1933.5,2824C 1935.75,2825.04 1937.91,2826.21 1940,2827.5C 1940.69,2829.57 1940.52,2831.57 1939.5,2833.5C 1930.85,2840.31 1922.35,2847.31 1914,2854.5C 1896.99,2880.43 1901.82,2901.26 1928.5,2917C 1947.34,2924.9 1965.34,2923.23 1982.5,2912C 1987.83,2908 1993.17,2904 1998.5,2900C 2011.83,2886.67 2025.17,2873.33 2038.5,2860C 2058.96,2842.93 2081.96,2830.27 2107.5,2822C 2141.41,2811.65 2172.74,2816.65 2201.5,2837C 2220.33,2852.81 2231.83,2872.97 2236,2897.5C 2238.51,2912.23 2240.01,2927.06 2240.5,2942C 2239.03,2964.93 2236.7,2987.76 2233.5,3010.5 Z"/></g>
<g><path style="opacity:1" fill="#353535" d="M 1780.5,2927.5 C 1782.12,2936.62 1782.79,2945.95 1782.5,2955.5C 1781.18,2946.36 1780.51,2937.03 1780.5,2927.5 Z"/></g>
<g><path style="opacity:1" fill="#3d3d3d" d="M 1785.5,2988.5 C 1786.12,2988.61 1786.62,2988.94 1787,2989.5C 1787.5,2991.81 1787.66,2994.14 1787.5,2996.5C 1786.63,2994 1785.96,2991.33 1785.5,2988.5 Z"/></g>
<g><path style="opacity:1" fill="#3a3a3a" d="M 2233.5,3010.5 C 2233.25,3014.04 2232.58,3017.37 2231.5,3020.5C 2231.16,3016.84 2231.83,3013.51 2233.5,3010.5 Z"/></g>
<g><path style="opacity:1" fill="#505050" d="M 1586.5,3015.5 C 1588.05,3015.82 1588.71,3016.82 1588.5,3018.5C 1587.6,3017.71 1586.93,3016.71 1586.5,3015.5 Z"/></g>
<g><path style="opacity:1" fill="#010101" d="M 1839.5,3069.5 C 1841.78,3071.22 1844.45,3071.89 1847.5,3071.5C 1862.76,3073.57 1878.09,3074.91 1893.5,3075.5C 1913.48,3074.06 1933.48,3073.56 1953.5,3074C 1957.19,3074.69 1958.36,3076.86 1957,3080.5C 1951.35,3090.75 1944.02,3099.75 1935,3107.5C 1923.43,3119.97 1916.1,3134.64 1913,3151.5C 1910.3,3165.55 1914.13,3177.38 1924.5,3187C 1932.07,3191.45 1940.07,3192.45 1948.5,3190C 1962.79,3184.94 1974.96,3176.78 1985,3165.5C 2000.49,3145.19 2014.49,3123.86 2027,3101.5C 2051.52,3065.83 2085.36,3051.33 2128.5,3058C 2152.75,3061.08 2175.42,3068.75 2196.5,3081C 2215.07,3093.29 2226.23,3110.45 2230,3132.5C 2237.73,3184.96 2239.73,3237.63 2236,3290.5C 2234.98,3299.3 2233.31,3307.96 2231,3316.5C 2229.5,3320 2227,3322.5 2223.5,3324C 2216.69,3325.05 2209.86,3325.89 2203,3326.5C 2164.53,3325.28 2126.03,3324.45 2087.5,3324C 2078.78,3323.96 2075.28,3319.8 2077,3311.5C 2085.84,3296.49 2094.17,3281.15 2102,3265.5C 2111.3,3245.16 2115.13,3223.83 2113.5,3201.5C 2113.66,3199.47 2113.5,3197.47 2113,3195.5C 2112.62,3194.94 2112.12,3194.61 2111.5,3194.5C 2103.41,3168.61 2087.41,3161.78 2063.5,3174C 2055.55,3180.62 2049.05,3188.45 2044,3197.5C 2035.45,3215.26 2027.45,3233.26 2020,3251.5C 2005.74,3287.93 1979.57,3310.59 1941.5,3319.5C 1938.77,3319.17 1936.44,3319.84 1934.5,3321.5C 1897.68,3327.76 1861.68,3324.59 1826.5,3312C 1802.81,3303.48 1788.14,3286.98 1782.5,3262.5C 1782.83,3259.77 1782.16,3257.44 1780.5,3255.5C 1778.3,3245.98 1777.13,3236.31 1777,3226.5C 1776.21,3181.16 1776.54,3135.82 1778,3090.5C 1778.28,3077.71 1779.61,3065.05 1782,3052.5C 1782.61,3048.54 1784.77,3047.04 1788.5,3048C 1804.1,3058.37 1821.1,3065.54 1839.5,3069.5 Z"/></g>
<g><path style="opacity:1" fill="#3c3c3c" d="M 1839.5,3069.5 C 1842.37,3069.8 1845.04,3070.47 1847.5,3071.5C 1844.45,3071.89 1841.78,3071.22 1839.5,3069.5 Z"/></g>
<g><path style="opacity:1" fill="#404040" d="M 2111.5,3194.5 C 2112.12,3194.61 2112.62,3194.94 2113,3195.5C 2113.5,3197.47 2113.66,3199.47 2113.5,3201.5C 2112.59,3199.34 2111.93,3197.01 2111.5,3194.5 Z"/></g>
<g><path style="opacity:1" fill="#3e3e3e" d="M 1780.5,3255.5 C 1782.16,3257.44 1782.83,3259.77 1782.5,3262.5C 1781.39,3260.4 1780.72,3258.07 1780.5,3255.5 Z"/></g>
<g><path style="opacity:1" fill="#3a3a3a" d="M 1941.5,3319.5 C 1939.4,3320.61 1937.07,3321.28 1934.5,3321.5C 1936.44,3319.84 1938.77,3319.17 1941.5,3319.5 Z"/></g>
</svg>