<svg xmlns="http://www.w3.org/2000/svg" xmlns:xlink="http://www.w3.org/1999/xlink" version="1.1" viewBox="1346.09 795.49 1403.82 2505.02">		<g id="document" transform="scale(1.0 1.0) translate(2048.0 2048.0)">			<g>				<path d="M-299.373,304.826 C-300.59,346.526 -300.167,386.979 -301.084,427.434 C-303.978,555.086 -305.386,682.772 -307.533,810.442 C-307.722,821.693 -305.414,831.998 -300.564,842.124 C-263.075,920.387 -225.75,998.732 -188.422,1077.07 C-175.555,1104.07 -166.761,1133.1 -153.916,1160.11 C-151.338,1165.54 -144.603,1169.5 -137.022,1167.22 C-130.192,1165.17 -128.919,1159.34 -129.382,1152.96 C-129.625,1149.6 -129.427,1146.57 -129.382,1143.22 C-127.342,988.128 -129.503,832.698 -127.321,677.6 C-125.223,528.432 -125.019,379.241 -122.24,230.07 C-120.057,112.93 -119.959,-4.2498 -119.027,-121.413 C-118.874,-140.608 -122.014,-143.81 -140.856,-143.448 C-182.561,-142.647 -224.261,-141.653 -265.96,-140.555 C-286.493,-140.015 -291.575,-134.517 -292.013,-113.523 C-292.735,-78.9803 -292.723,-44.4354 -293.594,-9.88238 C-296.23,94.5813 -297.535,199.08 -299.373,304.826 Z " fill="#000000" fill-opacity="1.00" stroke-width="5.02" stroke="#ffffff" stroke-linecap="square" stroke-linejoin="miter"/>				<path d="M164.725,412.194 C118.176,413.345 74.0704,421.171 30.4628,433.682 C-43.8083,454.993 -88.8658,521.221 -86.9111,594.354 C-84.8404,671.837 -36.9687,725.737 39.8425,734.589 C113.186,743.041 184.166,731.927 254.255,711.162 C328.614,689.131 375.409,618.897 365.482,544.28 C358.176,489.362 323.076,440.674 270.872,425.892 C236.582,416.183 201.427,412.948 164.725,412.194 Z M75.5688,539.513 C118.617,523.52 160.793,520.337 203.832,529.795 C212.965,531.803 221.489,535.562 229.231,540.717 C252.63,556.297 252.71,581.75 229.312,597.482 C211.457,609.488 191.034,614.326 170.142,617.92 C136.319,623.739 102.583,626.743 68.9472,617.032 C64.5279,615.756 60.1177,614.184 56.0118,612.131 C34.1225,601.189 30.0256,577.732 46.8871,559.875 C55.0679,551.212 64.9802,544.853 75.5688,539.513 Z " fill="#000000" fill-opacity="1.00" stroke-width="5.02" stroke="#ffffff" stroke-linecap="square" stroke-linejoin="miter"/>				<path d="M108.139,350.52 C111.146,352.173 122.227,384.682 177.407,388.588 C212.35,391.061 246.323,393.058 280.061,383.844 C311.822,375.168 332.054,354.258 337.35,321.567 C347.231,260.574 341.472,199.851 331.052,139.485 C327.175,117.026 323.452,114.498 300.685,115.699 C240.081,118.894 179.432,119.838 118.758,120.354 C60.1912,120.851 1.62913,121.975 -56.9331,122.948 C-74.516,123.239 -78.443,127.231 -78.5633,144.782 C-78.7538,172.599 -78.7982,200.419 -78.7148,228.237 C-78.6643,245.067 -75.4168,248.711 -58.6938,247.946 C-28.831,246.58 0.989904,244.314 30.8395,242.618 C35.2628,242.366 40.9765,240.853 43.3498,246.009 C45.462,250.598 42.1898,255.061 39.4756,258.708 C30.3198,271.007 16.3296,275.115 2.61112,279.197 C-18.3628,285.438 -39.4828,291.194 -60.5906,296.973 C-72.5426,300.246 -77.8729,308.292 -77.9524,320.199 C-78.1435,348.86 -78.5216,377.525 -78.1843,406.181 C-78.0128,420.761 -70.4386,426.579 -55.6533,423.81 C-37.8742,420.478 -20.2064,416.499 -2.58455,412.396 C36.3205,403.337 71.9884,388.36 98.1869,356.334 C100.511,353.493 105.131,348.867 108.139,350.52 Z M240.629,228.237 C242.35,228.237 251.314,259.065 235.708,267.008 C213.117,278.506 189.351,278.298 166.26,268.434 C155.187,263.705 151.685,252.695 150.601,241.371 C149.933,234.406 154.789,231.29 160.668,230.847 C185.344,228.986 238.908,228.237 240.629,228.237 Z " fill="#000000" fill-opacity="1.00" stroke-width="5.02" stroke="#ffffff" stroke-linecap="square" stroke-linejoin="miter"/>				<path d="M-120.537,-584.085 C-112.763,-590.76 -113.81,-599.111 -113.713,-606.988 C-112.848,-676.934 -113.311,-746.883 -112.355,-816.838 C-110.804,-930.198 -111.281,-1043.58 -110.721,-1156.96 C-110.605,-1180.54 -109.35,-1204.12 -109.296,-1227.72 C-109.266,-1241.15 -113.348,-1244.08 -125.425,-1240.25 C-169.163,-1226.37 -212.804,-1212.19 -256.53,-1198.28 C-269.07,-1194.3 -274.49,-1186.29 -274.698,-1172.96 C-275.743,-1105.99 -277.481,-1039.02 -278.677,-972.049 C-280.498,-870.097 -282.105,-768.141 -283.726,-666.185 C-284.061,-645.098 -280.872,-640.749 -261.444,-633.322 C-226.434,-619.941 -191.558,-606.205 -156.421,-593.167 C-145.136,-588.981 -134.279,-582.552 -120.537,-584.085 Z " fill="#000000" fill-opacity="1.00" stroke-width="5.02" stroke="#ffffff" stroke-linecap="square" stroke-linejoin="miter"/>				<path d="M-369.909,-421.136 C-370.302,-409.627 -391.802,-409.412 -400.795,-413.209 C-409.83,-417.026 -406.912,-425.27 -406.669,-431.979 C-405.754,-457.219 -407.068,-482.496 -404.146,-507.728 C-402.455,-522.317 -407.869,-528.277 -421.259,-528.435 C-454.129,-528.821 -487.007,-528.585 -519.882,-528.602 C-531.407,-528.607 -537.17,-522.668 -536.734,-511.334 C-535.809,-487.266 -538.667,-463.366 -539.62,-439.386 C-541.092,-402.367 -543.481,-365.385 -545.261,-328.376 C-547.608,-279.599 -549.731,-230.812 -551.973,-182.03 C-552.538,-169.741 -546.302,-164.044 -534.441,-164.216 C-500.738,-164.705 -467.035,-165.248 -433.337,-165.994 C-422.254,-166.239 -416.527,-172.004 -416.278,-183.491 C-415.693,-210.444 -414.745,-237.388 -413.93,-264.335 C-413.815,-268.123 -414.022,-271.976 -413.399,-275.684 C-411.35,-287.881 -403.955,-291.469 -386.987,-289.708 C-375.174,-288.482 -373.696,-280.8 -375.243,-271.619 C-379.896,-244.016 -376.321,-216.078 -379.086,-188.364 C-380.689,-172.293 -373.884,-166.619 -357.103,-166.902 C-331.829,-167.327 -306.558,-167.884 -281.284,-168.302 C-260.392,-168.646 -256.276,-172.192 -255.383,-193.392 C-254.53,-213.597 -254.833,-233.848 -254.132,-254.062 C-251.198,-338.67 -247.957,-423.267 -245.125,-507.878 C-244.545,-525.225 -248.784,-529.587 -266.392,-530.232 C-290.812,-531.126 -315.234,-530.677 -339.671,-529.35 C-362.617,-528.104 -366.609,-524.692 -367.158,-501.745 C-367.792,-475.221 -366.348,-448.628 -369.909,-421.136 Z " fill="#000000" fill-opacity="1.00" stroke-width="5.02" stroke="#ffffff" stroke-linecap="square" stroke-linejoin="miter"/>				<path d="M-2.55873,1247.44 C18.2598,1251.79 37.9597,1249.9 57.5745,1246.92 C104.444,1239.82 142.958,1218.96 168.656,1177.85 C179.852,1159.93 192.519,1143.12 205.411,1126.46 C215.171,1113.84 227.63,1104.5 242.673,1099.15 C254.427,1094.96 262.961,1101.33 262.822,1113.75 C262.726,1122.39 259.441,1130.21 255.526,1137.72 C248.119,1151.91 239.974,1165.76 233.166,1180.24 C226.258,1194.92 233.64,1204.32 249.707,1202.46 C282.323,1198.66 314.919,1194.72 347.556,1191.12 C362.117,1189.52 371.296,1182.74 375.623,1168.15 C386.611,1131.08 389.501,1093.41 382.276,1055.66 C374.242,1013.67 350.683,983.161 308.529,970.534 C249.414,952.82 189.514,974.107 153.399,1024.37 C140.119,1042.86 126.891,1061.38 113.295,1079.64 C103.123,1093.3 91.2243,1105.29 75.2104,1112.05 C57.8942,1119.36 46.0031,1109.74 47.8947,1091.07 C49.4832,1075.4 57.1863,1062.43 64.1796,1048.97 C73.512,1031.02 69.2062,1023.59 49.2641,1023.67 C20.1493,1023.78 -8.8256,1022.64 -37.7003,1018.42 C-55.363,1015.84 -67.1424,1022.4 -73.7161,1039.25 C-88.3898,1076.87 -93.7419,1115.79 -85.623,1155.74 C-76.2084,1202.07 -53.7843,1237.2 -2.55873,1247.44 Z " fill="#000000" fill-opacity="1.00" stroke-width="5.02" stroke="#ffffff" stroke-linecap="square" stroke-linejoin="miter"/>				<path d="M-72.0379,799.146 C-80.358,827.38 -85.0154,855.174 -83.7285,883.606 C-81.9483,922.939 -70.379,957.377 -33.5975,978.45 C-16.4289,988.277 2.16164,992.96 21.6378,994.9 C68.6113,999.573 111.109,989.977 147.052,957.272 C167.897,938.303 180.831,913.159 199.569,892.608 C208.355,882.973 216.026,872.187 227.722,865.664 C234.619,861.817 241.888,859.432 248.998,865.025 C255.98,870.518 256.187,878.442 254.067,885.859 C251.534,894.721 247.673,903.231 244.05,911.752 C237.084,928.132 240.672,934.531 258.682,934.86 C282.702,935.3 306.755,935.24 330.767,934.508 C350.669,933.903 362.702,923.624 367.58,904.125 C377.455,864.661 372.997,826.528 357.067,789.27 C347.869,767.761 332.587,753.467 310.78,745.571 C257.32,726.216 196.176,740.612 157.857,782.621 C142.537,799.416 128.548,817.435 114.149,835.057 C105.884,845.172 98.5054,856.188 87.2942,863.35 C77.8092,869.409 67.5772,877.84 56.0824,870.012 C44.6809,862.247 48.4794,849.621 50.6028,838.576 C54.0883,820.45 64.3425,805.197 72.708,789.167 C83.7417,768.022 80.1145,761.817 56.6496,761.57 C23.8068,761.223 -9.10396,762.772 -41.7253,756.996 C-52.3789,755.111 -59.6895,760.231 -63.0955,770.434 C-66.1607,779.615 -68.8726,788.914 -72.0379,799.146 Z " fill="#000000" fill-opacity="1.00" stroke-width="5.02" stroke="#ffffff" stroke-linecap="square" stroke-linejoin="miter"/>				<path d="M619.708,-186.605 C629.317,-187.353 637.758,-187.706 646.097,-188.82 C673.478,-192.476 690.767,-208.303 695.9,-235.108 C697.949,-245.801 700.008,-256.65 699.236,-267.693 C696.712,-303.776 694.572,-339.892 691.509,-375.929 C687.627,-421.596 683.199,-467.221 678.54,-512.817 C677.134,-526.578 671.374,-531.281 657.502,-530.976 C637.724,-530.542 617.944,-529.688 598.198,-528.467 C585.514,-527.684 581.258,-521.876 582.846,-509.221 C584.731,-494.198 587.07,-479.22 588.461,-464.153 C589.575,-452.064 591.47,-439.796 587.389,-427.816 C583.778,-417.216 575.734,-414.107 565.42,-415.244 C554.732,-416.423 555.071,-424.376 555.083,-432.224 C555.117,-456.662 555.24,-481.103 554.957,-505.539 C554.76,-522.498 550.995,-526.693 534.495,-527.666 C518.109,-528.633 501.683,-529.088 485.274,-527.202 C463.76,-524.729 460.363,-521.222 460.613,-499.491 C461.081,-459.033 458.637,-418.694 455.843,-378.37 C453.285,-341.462 470.221,-318.842 506.372,-311.532 C531.186,-306.516 554.836,-312.588 578.421,-319.386 C583.295,-320.792 589.375,-325.02 593.008,-318.076 C595.968,-312.421 592.255,-307.306 588.349,-303.401 C577.468,-292.523 563.868,-286.816 548.746,-286.073 C521.794,-284.75 494.893,-285.052 468.44,-291.936 C451.967,-296.223 447.085,-293.419 442.742,-277.062 C437.346,-256.738 432.685,-236.218 427.683,-215.789 C422.149,-193.186 425.851,-188.112 449.292,-186.31 C451.391,-186.149 453.51,-186.224 455.603,-186.014 C509.92,-180.566 564.199,-185.823 619.708,-186.605 Z " fill="#000000" fill-opacity="1.00" stroke-width="5.02" stroke="#ffffff" stroke-linecap="square" stroke-linejoin="miter"/>				<path d="M65.4615,-599.94 C66.1551,-589.896 67.0889,-581.089 67.4021,-572.261 C67.82,-560.491 74.0428,-555.961 85.2869,-556.088 C104.248,-556.301 123.215,-556.111 142.179,-556.054 C173.282,-555.96 173.422,-555.951 172.775,-586.688 C172.286,-609.848 171.329,-632.998 170.696,-656.156 C170.514,-662.827 171.294,-669.267 179.99,-669.909 C189.121,-670.583 189.659,-663.571 190.627,-657.283 C191.203,-653.549 191.436,-649.746 191.578,-645.963 C192.479,-621.976 193.262,-597.982 194.187,-573.996 C194.7,-560.676 198.647,-556.43 211.661,-556.249 C235.258,-555.922 258.863,-556.228 282.458,-555.842 C294.441,-555.647 299.509,-561.474 299.044,-572.818 C298.545,-585.013 297.376,-597.187 297.101,-609.383 C296.094,-654.029 295.361,-698.679 294.476,-743.327 C294.173,-758.632 290.972,-762.038 276.177,-762.795 C263.562,-763.44 250.941,-764.338 238.318,-764.4 C168.363,-764.742 98.4022,-764.498 28.4517,-765.227 C-2.70052,-765.551 -33.8139,-768.146 -65.0147,-767.732 C-74.7897,-767.601 -81.476,-765.306 -81.5813,-753.845 C-82.1276,-694.438 -83.0205,-635.033 -83.3427,-575.625 C-83.4231,-560.816 -78.0662,-556.093 -63.2319,-555.982 C-35.419,-555.774 -7.60363,-555.867 20.2105,-555.87 C41.441,-555.873 43.7589,-558.228 43.6613,-580.123 C43.5449,-606.25 43.2696,-632.378 43.1431,-658.506 C43.1131,-664.662 43.7384,-671.181 51.6459,-671.624 C59.7291,-672.077 62.3064,-666.372 62.639,-659.208 C63.537,-639.859 64.4924,-620.514 65.4615,-599.94 Z " fill="#000000" fill-opacity="1.00" stroke-width="5.02" stroke="#ffffff" stroke-linecap="square" stroke-linejoin="miter"/>				<path d="M52.1419,4.99242 C50.7039,-9.98347 57.747,-18.3933 70.4726,-22.3856 C79.2863,-25.1504 88.2676,-27.5243 97.318,-29.367 C131.366,-36.3003 165.218,-35.1593 198.486,-25.0402 C217.937,-19.1239 221.855,-10.7309 215.668,7.94364 C209.378,26.9311 197.623,43.1322 188.835,60.8446 C181.308,76.013 185.449,83.078 202.549,83.1037 C235.006,83.1527 267.466,83.0074 299.919,82.5461 C320.277,82.2568 329.029,74.3924 332.379,54.4957 C336.598,29.4415 337.454,4.16829 334.612,-20.9896 C331.09,-52.1789 320.225,-80.703 299.063,-104.509 C279.026,-127.048 251.717,-136.446 223.808,-143.303 C148.525,-161.8 74.3714,-155.826 1.02835,-131.735 C-41.0291,-117.92 -65.169,-88.8884 -76.1976,-47.2305 C-86.1919,-9.47917 -85.0278,28.6952 -80.2397,66.8973 C-77.6709,87.3935 -74.5103,90.1987 -53.4189,89.744 C-8.35306,88.7711 36.6956,87.0036 81.7515,85.564 C87.9992,85.3646 93.8407,83.8766 96.0502,77.327 C98.4804,70.1235 93.7534,65.2648 88.8952,61.0951 C71.4785,46.1473 59.7494,27.4986 52.1419,4.99242 Z " fill="#000000" fill-opacity="1.00" stroke-width="5.02" stroke="#ffffff" stroke-linecap="square" stroke-linejoin="miter"/>				<path d="M-33.9785,-225.854 C-34.698,-212.908 -35.6667,-201.135 -35.702,-189.359 C-35.7312,-179.565 -30.8413,-173.226 -20.3037,-173.302 C5.4071,-173.489 31.1317,-173.479 56.8202,-174.398 C71.0247,-174.906 75.8042,-181.21 75.4371,-195.851 C75.2155,-204.692 74.6223,-213.529 74.5728,-222.369 C74.4228,-249.15 74.4944,-249.153 100.617,-249.195 C104.831,-249.203 109.048,-249.093 113.262,-249.175 C122.71,-249.358 128.282,-245.639 129.134,-235.434 C130.219,-222.448 132.274,-209.546 133.558,-196.572 C134.583,-186.202 139.45,-179.918 150.318,-180.012 C177.709,-180.252 205.101,-180.607 232.486,-181.201 C242.459,-181.416 246.605,-186.332 244.963,-196.882 C241.336,-220.179 236.588,-243.227 231.243,-266.168 C212.619,-346.116 192.528,-425.664 167.813,-503.998 C163.629,-517.259 156.553,-525.515 142.167,-525.588 C105.499,-525.771 68.8314,-525.882 32.1648,-525.766 C22.1393,-525.735 15.6947,-520.782 13.5476,-510.431 C10.3,-494.777 6.3365,-479.27 3.13888,-463.606 C-12.8422,-385.321 -30.0026,-307.213 -33.9785,-225.854 Z M97.6106,-412.923 C98.5766,-409.571 105.318,-372.323 109.704,-353.084 C111.977,-343.115 106.027,-341.086 98.9554,-340.23 C91.3851,-339.315 81.0698,-336.098 79.8994,-347.983 C77.487,-372.482 87.0392,-416.413 90.7553,-418.842 C94.4714,-421.271 96.6447,-416.275 97.6106,-412.923 Z " fill="#000000" fill-opacity="1.00" stroke-width="5.02" stroke="#ffffff" stroke-linecap="square" stroke-linejoin="miter"/>				<path d="M283.8,-978.092 C283.165,-986.809 282.325,-994.358 282.024,-1001.92 C279.385,-1068.37 279.519,-1134.92 274.466,-1201.3 C273.529,-1213.6 268.789,-1221.08 255.972,-1222.55 C229.655,-1225.59 203.418,-1229.49 177.042,-1231.83 C148.51,-1234.36 148.457,-1233.77 148.64,-1204.81 C148.724,-1191.61 147.325,-1190.53 135.002,-1194.1 C93.3706,-1206.16 51.7524,-1218.27 10.0908,-1230.22 C-11.7525,-1236.49 -33.584,-1242.83 -55.5907,-1248.48 C-73.7935,-1253.15 -83.7054,-1246.99 -84.0347,-1230.82 C-84.9517,-1185.75 -85.6241,-1140.69 -85.8542,-1095.63 C-85.9459,-1077.66 -80.5943,-1072.25 -63.1519,-1073.66 C-16.124,-1077.47 30.9911,-1078.99 78.1177,-1080.44 C97.0497,-1081.02 116.001,-1082.08 134.886,-1079.49 C143.344,-1078.33 149.256,-1076.73 153.302,-1073.83 C159.409,-1069.46 161.26,-1062.13 161.188,-1048.92 C161.06,-1025.33 161.408,-1001.66 161.188,-978.092 C161.002,-958.234 164.64,-953.249 184.067,-952.527 C208.475,-951.62 232.887,-950.792 257.304,-950.168 C280.87,-949.564 284.268,-953.123 283.8,-978.092 Z " fill="#000000" fill-opacity="1.00" stroke-width="5.02" stroke="#ffffff" stroke-linecap="square" stroke-linejoin="miter"/>				<path d="M268.038,-797.093 C288.524,-797.438 292.494,-800.487 290.836,-819.038 C288.547,-844.649 291.013,-870.391 287.268,-895.973 C285.636,-907.131 281.803,-912.233 270.014,-912.763 C217.374,-915.13 164.721,-915.333 112.052,-915.105 C107.864,-915.087 103.522,-914.99 99.5209,-915.996 C92.5482,-917.75 88.9535,-922.467 89.6974,-930.016 C90.3931,-937.079 94.6164,-940.601 101.259,-941.11 C107.971,-941.623 114.732,-941.496 121.471,-941.671 C136.991,-942.074 139.748,-944.206 139.241,-959.201 C138.514,-980.64 140.142,-1001.57 139.241,-1023.01 C138.755,-1034.54 128.676,-1038.33 118.47,-1039.1 C59.1582,-1043.62 -0.201143,-1042.49 -59.5692,-1041.06 C-62.515,-1040.99 -65.4737,-1040.88 -68.397,-1040.53 C-78.7426,-1039.31 -84.2062,-1033.95 -84.0804,-1023.01 C-83.8284,-1001.09 -83.9265,-979.183 -83.9771,-957.267 C-84.0047,-945.328 -77.7622,-939.413 -66.2676,-938.687 C-51.5636,-937.757 -36.8338,-937.224 -22.1357,-936.218 C-14.5913,-935.702 -5.66712,-935.655 -5.59435,-925 C-5.51919,-913.98 -14.1651,-912.627 -22.5729,-912.781 C-36.461,-913.036 -50.3393,-914.36 -64.2197,-914.332 C-77.4528,-914.305 -81.3554,-909.982 -81.4747,-896.619 C-81.6931,-872.179 -81.6287,-847.736 -81.7126,-823.294 C-81.7796,-803.808 -78.4651,-799.973 -59.298,-800.175 C49.4306,-801.321 158.116,-798.3 268.038,-797.093 Z " fill="#000000" fill-opacity="1.00" stroke-width="5.02" stroke="#ffffff" stroke-linecap="square" stroke-linejoin="miter"/>				<path d="M340.404,-448.541 C334.909,-417.699 329.41,-356.214 327.025,-356.214 C324.639,-356.214 322.653,-364.108 321.994,-367.409 C312.859,-413.163 303.74,-458.92 294.451,-504.643 C291.323,-520.041 284.695,-527.222 270.528,-527.953 C248.674,-529.08 226.704,-529.753 204.882,-527.545 C187.002,-525.735 184.391,-521.237 188.333,-503.321 C201.907,-441.63 219.654,-381.041 236.833,-320.31 C248.285,-279.83 259.363,-239.216 276.287,-200.48 C281.568,-188.394 289.198,-182.955 302.491,-183.581 C328.989,-184.829 355.525,-185.332 382.05,-185.918 C390.746,-186.11 396.495,-189.503 398.658,-198.268 C400.069,-203.98 401.921,-209.582 403.336,-215.294 C419.539,-280.665 432.098,-346.749 440.812,-413.514 C444.945,-445.191 450.465,-476.769 451.18,-508.807 C451.502,-523.195 446.633,-528.185 432.605,-528.393 C411.125,-528.713 389.63,-528.78 368.152,-528.386 C354.4,-528.134 348.117,-522.269 346.545,-508.646 C344.278,-489.02 342.559,-469.33 340.404,-448.541 Z " fill="#000000" fill-opacity="1.00" stroke-width="5.02" stroke="#ffffff" stroke-linecap="square" stroke-linejoin="miter"/>				<path d="M-228.279,-171.367 C-174.933,-169.925 -122.824,-174.446 -70.6214,-176.019 C-60.3304,-176.33 -55.7623,-182.569 -54.9434,-192.306 C-53.0005,-215.413 -51.9326,-238.545 -51.9587,-261.745 C-51.9711,-272.674 -56.7354,-278.602 -67.7273,-278.474 C-84.1234,-278.282 -100.716,-277.353 -116.897,-276.803 C-122.669,-276.606 -128.762,-275.617 -131.267,-281.554 C-134.409,-288.997 -134.566,-297.402 -131.222,-304.854 C-128.285,-311.399 -121.307,-310.135 -115.508,-310.237 C-96.9655,-310.564 -78.4129,-310.515 -59.8794,-311.096 C-49.9679,-311.407 -40.7759,-314.529 -39.8281,-326.195 C-38.2945,-345.069 -37.7274,-364.026 -36.9211,-382.955 C-36.5046,-392.74 -41.7682,-397.958 -51.2231,-398.617 C-57.4988,-399.056 -63.8391,-398.674 -70.1469,-398.516 C-84.888,-398.147 -99.6259,-397.637 -114.367,-397.298 C-120.628,-397.154 -126.02,-398.288 -127.873,-405.754 C-132.477,-424.289 -126.901,-431.923 -108.102,-432.163 C-87.4534,-432.425 -66.7992,-432.43 -46.1557,-432.915 C-36.021,-433.152 -29.5433,-437.607 -29.2422,-449.005 C-28.7639,-467.106 -27.4006,-485.183 -26.967,-503.284 C-26.4579,-524.527 -30.326,-528.359 -51.5705,-528.432 C-100.467,-528.598 -149.364,-528.657 -198.261,-528.665 C-222.168,-528.668 -226.498,-524.845 -227.238,-501.148 C-230.503,-396.719 -233.538,-292.283 -236.609,-187.848 C-236.799,-181.378 -236.292,-175.029 -228.279,-171.367 Z " fill="#000000" fill-opacity="1.00" stroke-width="5.02" stroke="#ffffff" stroke-linecap="square" stroke-linejoin="miter"/>				<path d="M-595.124,-550.326 C-616.661,-561.157 -637.215,-571.864 -658.129,-581.814 C-675.029,-589.855 -681.188,-586.196 -682.729,-567.393 C-683.76,-554.812 -683.165,-542.105 -684.016,-529.502 C-688.914,-456.871 -693.812,-384.239 -699.263,-311.648 C-700.251,-298.506 -695.961,-289.037 -686.412,-280.588 C-655.492,-253.228 -624.864,-225.538 -594.112,-197.987 C-590.093,-194.386 -586.375,-189.46 -579.975,-192.423 C-574.104,-195.139 -573.58,-200.682 -573.397,-206.375 C-570.295,-302.326 -565.866,-398.216 -561.221,-494.104 C-559.061,-538.705 -555.091,-530.307 -595.124,-550.326 Z " fill="#000000" fill-opacity="1.00" stroke-width="5.02" stroke="#ffffff" stroke-linecap="square" stroke-linejoin="miter"/>				<path d="M-348.198,-600.597 C-435.834,-601.325 -522.221,-599.319 -608.584,-602.016 C-615.308,-602.226 -628.26,-604.23 -628.26,-598.32 C-628.26,-592.411 -621.42,-590.96 -617.282,-589.342 C-609.054,-586.123 -600.782,-582.968 -592.372,-580.273 C-563.66,-571.069 -536.612,-556.075 -505.257,-556.092 C-392.319,-556.157 -279.382,-556.005 -166.444,-556.048 C-162.218,-556.05 -154.804,-554.108 -154.354,-559.831 C-153.905,-565.555 -161.504,-565.443 -165.592,-566.904 C-180.652,-572.288 -196.092,-576.68 -210.943,-582.569 C-239.663,-593.956 -268.451,-603.493 -300.176,-600.756 C-315.65,-599.42 -331.34,-600.571 -348.198,-600.597 Z " fill="#000000" fill-opacity="1.00" stroke-width="5.02" stroke="#000000" stroke-linecap="square" stroke-linejoin="miter"/>				<path d="M371.931,-601.919 C361.892,-602.184 353.041,-602.413 344.189,-602.521 C316.259,-602.861 315.919,-602.498 316.566,-574.483 C316.984,-556.371 319.892,-553.436 338.34,-553.42 C429.406,-553.347 520.473,-553.313 611.539,-553.405 C615.761,-553.41 622.924,-552.412 624.141,-556.574 C625.358,-560.737 618.37,-562.11 614.416,-563.245 C586.488,-571.256 558.556,-579.251 530.67,-587.399 C505.616,-594.719 480.836,-601.854 454.005,-600.677 C427.111,-599.498 400.086,-601.32 371.931,-601.919 Z " fill="#000000" fill-opacity="1.00" stroke-width="5.02" stroke="#000000" stroke-linecap="square" stroke-linejoin="miter"/>			</g>		</g>	</svg>