<svg xmlns="http://www.w3.org/2000/svg" xmlns:xlink="http://www.w3.org/1999/xlink" version="1.1" viewBox="1345.06 794.47 1405.87 2507.07">		<g id="document" transform="scale(1.0 1.0) translate(2048.0 2048.0)">			<g>				<path d="M-299.373,304.825 C-300.59,346.525 -300.167,386.978 -301.084,427.433 C-303.978,555.085 -305.386,682.771 -307.533,810.442 C-307.722,821.693 -305.414,831.998 -300.564,842.123 C-263.075,920.387 -225.75,998.731 -188.422,1077.07 C-175.555,1104.07 -166.761,1133.1 -153.916,1160.11 C-151.338,1165.54 -144.603,1169.5 -137.022,1167.22 C-130.192,1165.17 -128.919,1159.34 -129.382,1152.96 C-129.625,1149.6 -129.427,1146.57 -129.382,1143.22 C-127.342,988.128 -129.503,832.697 -127.321,677.599 C-125.223,528.431 -125.019,379.24 -122.24,230.069 C-120.057,112.929 -119.959,-4.25064 -119.027,-121.414 C-118.874,-140.609 -122.014,-143.811 -140.856,-143.449 C-182.561,-142.648 -224.261,-141.654 -265.96,-140.556 C-286.493,-140.016 -291.575,-134.518 -292.013,-113.524 C-292.735,-78.9812 -292.723,-44.4362 -293.594,-9.88324 C-296.23,94.5805 -297.535,199.079 -299.373,304.825 Z " fill="#000000" fill-opacity="1.00" stroke-width="7.07" stroke="#ffffff" stroke-linecap="square" stroke-linejoin="miter"/>				<path d="M164.725,412.193 C118.176,413.344 74.0703,421.17 30.4628,433.681 C-43.8084,454.992 -88.8659,521.22 -86.9113,594.353 C-84.8405,671.836 -36.9689,725.736 39.8425,734.588 C113.186,743.04 184.166,731.926 254.255,711.161 C328.614,689.13 375.409,618.896 365.482,544.279 C358.176,489.361 323.076,440.673 270.872,425.891 C236.582,416.182 201.427,412.947 164.725,412.193 Z M75.5687,539.512 C118.617,523.519 160.793,520.336 203.832,529.794 C212.965,531.802 221.489,535.561 229.231,540.716 C252.63,556.296 252.71,581.749 229.312,597.481 C211.457,609.487 191.034,614.325 170.142,617.919 C136.319,623.738 102.583,626.742 68.9472,617.031 C64.5279,615.755 60.1177,614.183 56.0118,612.13 C34.1224,601.188 30.0256,577.731 46.887,559.874 C55.0678,551.211 64.9801,544.852 75.5687,539.512 Z " fill="#000000" fill-opacity="1.00" stroke-width="7.07" stroke="#ffffff" stroke-linecap="square" stroke-linejoin="miter"/>				<path d="M108.139,350.519 C111.146,352.172 122.227,384.681 177.407,388.587 C212.35,391.06 246.323,393.057 280.061,383.843 C311.822,375.167 332.054,354.257 337.35,321.566 C347.231,260.573 341.472,199.85 331.052,139.484 C327.175,117.025 323.452,114.497 300.685,115.698 C240.081,118.893 179.432,119.837 118.758,120.353 C60.1911,120.85 1.629,121.974 -56.9333,122.947 C-74.5161,123.238 -78.4431,127.23 -78.5635,144.781 C-78.754,172.598 -78.7983,200.418 -78.715,228.236 C-78.6644,245.066 -75.4169,248.71 -58.6939,247.945 C-28.8312,246.579 0.989804,244.313 30.8394,242.617 C35.2626,242.365 40.9765,240.852 43.3497,246.008 C45.4619,250.597 42.1898,255.06 39.4754,258.707 C30.3197,271.006 16.3294,275.114 2.61102,279.196 C-18.363,285.437 -39.483,291.193 -60.5908,296.972 C-72.5428,300.245 -77.8731,308.291 -77.9525,320.198 C-78.1436,348.859 -78.5218,377.524 -78.1845,406.18 C-78.013,420.76 -70.4387,426.578 -55.6535,423.809 C-37.8743,420.477 -20.2065,416.498 -2.5847,412.395 C36.3203,403.336 71.9883,388.359 98.1869,356.333 C100.511,353.492 105.131,348.866 108.139,350.519 Z M240.629,228.236 C242.35,228.236 251.314,259.064 235.708,267.007 C213.117,278.505 189.351,278.297 166.26,268.433 C155.187,263.704 151.685,252.694 150.601,241.37 C149.933,234.405 154.789,231.289 160.668,230.846 C185.344,228.985 238.908,228.236 240.629,228.236 Z " fill="#000000" fill-opacity="1.00" stroke-width="7.07" stroke="#ffffff" stroke-linecap="square" stroke-linejoin="miter"/>				<path d="M-120.537,-584.086 C-112.763,-590.761 -113.81,-599.112 -113.713,-606.989 C-112.848,-676.935 -113.311,-746.884 -112.355,-816.839 C-110.804,-930.199 -111.281,-1043.58 -110.721,-1156.96 C-110.605,-1180.54 -109.35,-1204.12 -109.296,-1227.72 C-109.266,-1241.15 -113.348,-1244.08 -125.425,-1240.25 C-169.163,-1226.37 -212.804,-1212.19 -256.53,-1198.28 C-269.07,-1194.3 -274.49,-1186.29 -274.698,-1172.96 C-275.743,-1105.99 -277.481,-1039.02 -278.677,-972.05 C-280.498,-870.098 -282.105,-768.142 -283.726,-666.186 C-284.061,-645.099 -280.872,-640.75 -261.444,-633.323 C-226.434,-619.942 -191.558,-606.206 -156.421,-593.168 C-145.136,-588.982 -134.279,-582.553 -120.537,-584.086 Z " fill="#000000" fill-opacity="1.00" stroke-width="7.07" stroke="#ffffff" stroke-linecap="square" stroke-linejoin="miter"/>				<path d="M-369.909,-421.137 C-370.302,-409.628 -391.802,-409.413 -400.795,-413.21 C-409.83,-417.027 -406.912,-425.271 -406.669,-431.98 C-405.754,-457.22 -407.068,-482.497 -404.146,-507.729 C-402.455,-522.318 -407.869,-528.278 -421.259,-528.436 C-454.129,-528.822 -487.007,-528.586 -519.882,-528.603 C-531.407,-528.608 -537.17,-522.669 -536.734,-511.335 C-535.809,-487.267 -538.667,-463.367 -539.62,-439.387 C-541.092,-402.368 -543.481,-365.386 -545.261,-328.377 C-547.608,-279.6 -549.731,-230.813 -551.973,-182.031 C-552.538,-169.742 -546.302,-164.045 -534.441,-164.217 C-500.738,-164.706 -467.035,-165.249 -433.337,-165.995 C-422.254,-166.24 -416.527,-172.005 -416.278,-183.492 C-415.693,-210.445 -414.745,-237.389 -413.93,-264.336 C-413.815,-268.124 -414.022,-271.977 -413.399,-275.685 C-411.35,-287.882 -403.955,-291.47 -386.987,-289.709 C-375.174,-288.483 -373.696,-280.801 -375.243,-271.62 C-379.896,-244.017 -376.321,-216.079 -379.086,-188.365 C-380.689,-172.294 -373.884,-166.62 -357.103,-166.903 C-331.829,-167.328 -306.558,-167.885 -281.284,-168.303 C-260.392,-168.647 -256.276,-172.193 -255.383,-193.393 C-254.53,-213.598 -254.833,-233.849 -254.132,-254.063 C-251.198,-338.671 -247.957,-423.268 -245.125,-507.879 C-244.545,-525.226 -248.784,-529.588 -266.392,-530.233 C-290.812,-531.127 -315.234,-530.678 -339.671,-529.351 C-362.617,-528.105 -366.609,-524.693 -367.158,-501.746 C-367.792,-475.222 -366.348,-448.629 -369.909,-421.137 Z " fill="#000000" fill-opacity="1.00" stroke-width="7.07" stroke="#ffffff" stroke-linecap="square" stroke-linejoin="miter"/>				<path d="M-2.55891,1247.44 C18.2597,1251.79 37.9596,1249.9 57.5744,1246.92 C104.444,1239.82 142.958,1218.96 168.656,1177.85 C179.852,1159.93 192.519,1143.12 205.411,1126.46 C215.171,1113.84 227.63,1104.5 242.673,1099.15 C254.427,1094.96 262.961,1101.33 262.822,1113.75 C262.726,1122.39 259.441,1130.21 255.526,1137.72 C248.119,1151.91 239.974,1165.76 233.166,1180.24 C226.258,1194.92 233.64,1204.32 249.707,1202.46 C282.323,1198.66 314.919,1194.72 347.556,1191.12 C362.117,1189.52 371.296,1182.74 375.623,1168.15 C386.611,1131.08 389.501,1093.41 382.276,1055.66 C374.242,1013.67 350.683,983.161 308.529,970.533 C249.414,952.819 189.514,974.106 153.399,1024.37 C140.119,1042.86 126.891,1061.38 113.295,1079.64 C103.123,1093.3 91.2241,1105.29 75.2103,1112.05 C57.8941,1119.36 46.003,1109.74 47.8946,1091.07 C49.4831,1075.4 57.1862,1062.43 64.1795,1048.97 C73.5118,1031.02 69.2062,1023.59 49.2641,1023.67 C20.1492,1023.78 -8.82579,1022.64 -37.7004,1018.42 C-55.3632,1015.84 -67.1426,1022.4 -73.7163,1039.25 C-88.39,1076.87 -93.742,1115.79 -85.6231,1155.74 C-76.2086,1202.07 -53.7845,1237.2 -2.55891,1247.44 Z " fill="#000000" fill-opacity="1.00" stroke-width="7.07" stroke="#ffffff" stroke-linecap="square" stroke-linejoin="miter"/>				<path d="M-72.0381,799.145 C-80.3581,827.379 -85.0156,855.173 -83.7287,883.605 C-81.9484,922.938 -70.3791,957.377 -33.5977,978.45 C-16.429,988.276 2.16152,992.96 21.6376,994.9 C68.6111,999.573 111.109,989.976 147.052,957.271 C167.897,938.303 180.831,913.158 199.569,892.607 C208.355,882.973 216.026,872.186 227.722,865.663 C234.619,861.817 241.888,859.431 248.998,865.024 C255.98,870.517 256.187,878.441 254.067,885.858 C251.534,894.72 247.673,903.23 244.05,911.751 C237.084,928.131 240.672,934.53 258.682,934.859 C282.702,935.299 306.755,935.239 330.767,934.507 C350.669,933.902 362.702,923.623 367.58,904.124 C377.455,864.66 372.997,826.527 357.067,789.269 C347.869,767.76 332.587,753.466 310.78,745.57 C257.32,726.215 196.176,740.611 157.857,782.62 C142.537,799.415 128.548,817.434 114.149,835.056 C105.884,845.171 98.5053,856.187 87.2941,863.349 C77.8091,869.408 67.5772,877.84 56.0823,870.011 C44.6808,862.246 48.4793,849.62 50.6028,838.575 C54.0883,820.449 64.3423,805.196 72.7079,789.166 C83.7416,768.021 80.1143,761.816 56.6495,761.569 C23.8067,761.222 -9.10413,762.771 -41.7254,756.995 C-52.3791,755.11 -59.6896,760.23 -63.0957,770.433 C-66.1609,779.614 -68.8727,788.913 -72.0381,799.145 Z " fill="#000000" fill-opacity="1.00" stroke-width="7.07" stroke="#ffffff" stroke-linecap="square" stroke-linejoin="miter"/>				<path d="M619.708,-186.606 C629.317,-187.354 637.758,-187.707 646.097,-188.821 C673.478,-192.477 690.767,-208.304 695.9,-235.109 C697.949,-245.802 700.008,-256.651 699.236,-267.694 C696.712,-303.777 694.572,-339.893 691.509,-375.93 C687.627,-421.597 683.199,-467.222 678.54,-512.818 C677.134,-526.579 671.374,-531.282 657.502,-530.977 C637.724,-530.543 617.944,-529.689 598.198,-528.468 C585.514,-527.685 581.258,-521.877 582.846,-509.222 C584.731,-494.199 587.07,-479.221 588.461,-464.154 C589.575,-452.065 591.47,-439.797 587.389,-427.817 C583.778,-417.217 575.734,-414.108 565.42,-415.245 C554.732,-416.424 555.071,-424.377 555.083,-432.225 C555.117,-456.663 555.24,-481.104 554.957,-505.54 C554.76,-522.499 550.995,-526.694 534.495,-527.667 C518.109,-528.634 501.683,-529.089 485.274,-527.203 C463.76,-524.73 460.363,-521.223 460.613,-499.492 C461.081,-459.034 458.637,-418.695 455.843,-378.371 C453.285,-341.463 470.221,-318.843 506.372,-311.533 C531.186,-306.517 554.836,-312.589 578.421,-319.387 C583.295,-320.793 589.375,-325.021 593.008,-318.077 C595.968,-312.422 592.255,-307.307 588.349,-303.402 C577.468,-292.524 563.868,-286.817 548.746,-286.074 C521.794,-284.751 494.893,-285.053 468.44,-291.937 C451.967,-296.224 447.085,-293.42 442.742,-277.063 C437.346,-256.739 432.685,-236.219 427.683,-215.79 C422.149,-193.187 425.851,-188.113 449.292,-186.311 C451.391,-186.15 453.51,-186.225 455.603,-186.015 C509.92,-180.567 564.199,-185.824 619.708,-186.606 Z " fill="#000000" fill-opacity="1.00" stroke-width="7.07" stroke="#ffffff" stroke-linecap="square" stroke-linejoin="miter"/>				<path d="M65.4614,-599.941 C66.155,-589.897 67.0888,-581.09 67.402,-572.262 C67.8199,-560.492 74.0428,-555.962 85.2868,-556.089 C104.248,-556.302 123.215,-556.112 142.179,-556.055 C173.282,-555.961 173.422,-555.952 172.775,-586.689 C172.286,-609.849 171.329,-632.999 170.696,-656.157 C170.514,-662.828 171.294,-669.268 179.99,-669.91 C189.121,-670.584 189.659,-663.572 190.627,-657.284 C191.203,-653.55 191.436,-649.747 191.578,-645.964 C192.479,-621.977 193.262,-597.983 194.187,-573.997 C194.7,-560.677 198.647,-556.431 211.661,-556.25 C235.258,-555.923 258.863,-556.229 282.458,-555.843 C294.441,-555.648 299.509,-561.475 299.044,-572.819 C298.545,-585.014 297.376,-597.188 297.101,-609.384 C296.094,-654.03 295.361,-698.68 294.476,-743.328 C294.173,-758.633 290.972,-762.039 276.177,-762.796 C263.562,-763.441 250.941,-764.339 238.318,-764.401 C168.363,-764.743 98.4021,-764.499 28.4516,-765.228 C-2.70064,-765.552 -33.814,-768.147 -65.0148,-767.733 C-74.7899,-767.602 -81.4762,-765.307 -81.5814,-753.846 C-82.1278,-694.439 -83.0206,-635.034 -83.3429,-575.626 C-83.4233,-560.817 -78.0664,-556.094 -63.232,-555.983 C-35.4191,-555.775 -7.60371,-555.868 20.2104,-555.871 C41.4409,-555.874 43.7588,-558.229 43.6611,-580.124 C43.5448,-606.251 43.2695,-632.379 43.143,-658.507 C43.113,-664.663 43.7383,-671.182 51.6458,-671.625 C59.7289,-672.078 62.3063,-666.373 62.6388,-659.209 C63.537,-639.86 64.4922,-620.515 65.4614,-599.941 Z " fill="#000000" fill-opacity="1.00" stroke-width="7.07" stroke="#ffffff" stroke-linecap="square" stroke-linejoin="miter"/>				<path d="M52.1418,4.99156 C50.7038,-9.9844 57.7469,-18.3942 70.4726,-22.3865 C79.2862,-25.1513 88.2674,-27.5252 97.3179,-29.3679 C131.366,-36.3012 165.218,-35.1602 198.486,-25.0411 C217.937,-19.1248 221.855,-10.7318 215.668,7.94276 C209.378,26.9302 197.623,43.1313 188.835,60.8438 C181.308,76.0121 185.449,83.0771 202.549,83.1028 C235.006,83.1518 267.466,83.0066 299.919,82.5452 C320.277,82.2559 329.029,74.3916 332.379,54.4948 C336.598,29.4406 337.454,4.16736 334.612,-20.9905 C331.09,-52.1798 320.225,-80.7039 299.063,-104.51 C279.026,-127.049 251.717,-136.447 223.808,-143.304 C148.525,-161.801 74.3714,-155.827 1.02821,-131.736 C-41.0292,-117.921 -65.1692,-88.8893 -76.1978,-47.2314 C-86.192,-9.4801 -85.028,28.6943 -80.2399,66.8964 C-77.671,87.3927 -74.5104,90.1978 -53.419,89.7432 C-8.35314,88.7703 36.6954,87.0027 81.7513,85.5631 C87.9991,85.3637 93.8406,83.8757 96.0501,77.3261 C98.4803,70.1226 93.7533,65.264 88.8951,61.0942 C71.4785,46.1464 59.7493,27.4977 52.1418,4.99156 Z " fill="#000000" fill-opacity="1.00" stroke-width="7.07" stroke="#ffffff" stroke-linecap="square" stroke-linejoin="miter"/>				<path d="M-33.9787,-225.855 C-34.6982,-212.909 -35.6668,-201.136 -35.7022,-189.36 C-35.7313,-179.566 -30.8415,-173.227 -20.3039,-173.303 C5.40696,-173.49 31.1316,-173.48 56.8201,-174.399 C71.0246,-174.907 75.8041,-181.211 75.4369,-195.852 C75.2153,-204.693 74.6221,-213.53 74.5727,-222.37 C74.4226,-249.151 74.4943,-249.154 100.617,-249.196 C104.831,-249.204 109.048,-249.094 113.262,-249.176 C122.71,-249.359 128.282,-245.64 129.134,-235.435 C130.219,-222.449 132.274,-209.547 133.558,-196.573 C134.583,-186.203 139.45,-179.919 150.318,-180.013 C177.709,-180.253 205.101,-180.608 232.486,-181.202 C242.459,-181.417 246.605,-186.333 244.963,-196.883 C241.336,-220.18 236.588,-243.228 231.243,-266.169 C212.619,-346.117 192.528,-425.665 167.813,-503.999 C163.629,-517.26 156.553,-525.516 142.167,-525.589 C105.499,-525.772 68.8312,-525.883 32.1647,-525.767 C22.1392,-525.736 15.6945,-520.783 13.5474,-510.432 C10.2999,-494.778 6.33627,-479.271 3.13878,-463.607 C-12.8424,-385.322 -30.0027,-307.214 -33.9787,-225.855 Z M97.6105,-412.924 C98.5765,-409.572 105.318,-372.324 109.704,-353.085 C111.977,-343.116 106.027,-341.087 98.9553,-340.231 C91.3849,-339.316 81.0697,-336.099 79.8992,-347.984 C77.4869,-372.483 87.0391,-416.414 90.7552,-418.843 C94.4712,-421.272 96.6446,-416.276 97.6105,-412.924 Z " fill="#000000" fill-opacity="1.00" stroke-width="7.07" stroke="#ffffff" stroke-linecap="square" stroke-linejoin="miter"/>				<path d="M283.8,-978.093 C283.165,-986.81 282.325,-994.359 282.024,-1001.92 C279.385,-1068.37 279.519,-1134.92 274.466,-1201.3 C273.529,-1213.6 268.789,-1221.08 255.972,-1222.55 C229.655,-1225.59 203.418,-1229.49 177.042,-1231.83 C148.51,-1234.36 148.457,-1233.77 148.64,-1204.81 C148.724,-1191.61 147.325,-1190.53 135.002,-1194.1 C93.3705,-1206.16 51.7523,-1218.27 10.0907,-1230.22 C-11.7526,-1236.49 -33.5841,-1242.83 -55.5909,-1248.48 C-73.7937,-1253.15 -83.7055,-1246.99 -84.0349,-1230.82 C-84.9518,-1185.75 -85.6243,-1140.69 -85.8544,-1095.63 C-85.9461,-1077.66 -80.5945,-1072.25 -63.152,-1073.66 C-16.1241,-1077.47 30.9909,-1078.99 78.1176,-1080.44 C97.0496,-1081.02 116.001,-1082.08 134.886,-1079.49 C143.344,-1078.33 149.256,-1076.73 153.302,-1073.83 C159.409,-1069.46 161.26,-1062.13 161.188,-1048.92 C161.06,-1025.33 161.408,-1001.66 161.188,-978.093 C161.002,-958.235 164.64,-953.25 184.067,-952.528 C208.475,-951.621 232.887,-950.793 257.304,-950.169 C280.87,-949.565 284.268,-953.124 283.8,-978.093 Z " fill="#000000" fill-opacity="1.00" stroke-width="7.07" stroke="#ffffff" stroke-linecap="square" stroke-linejoin="miter"/>				<path d="M268.038,-797.094 C288.524,-797.439 292.494,-800.488 290.836,-819.039 C288.547,-844.65 291.013,-870.392 287.268,-895.974 C285.636,-907.132 281.803,-912.234 270.014,-912.764 C217.374,-915.131 164.721,-915.334 112.052,-915.106 C107.864,-915.088 103.522,-914.991 99.5208,-915.997 C92.5482,-917.751 88.9534,-922.468 89.6974,-930.017 C90.393,-937.08 94.6163,-940.602 101.259,-941.111 C107.971,-941.624 114.732,-941.497 121.471,-941.672 C136.991,-942.075 139.748,-944.207 139.241,-959.202 C138.514,-980.641 140.142,-1001.57 139.241,-1023.01 C138.755,-1034.54 128.676,-1038.33 118.47,-1039.1 C59.1581,-1043.62 -0.201203,-1042.49 -59.5693,-1041.06 C-62.5152,-1040.99 -65.4738,-1040.88 -68.3972,-1040.53 C-78.7428,-1039.31 -84.2063,-1033.95 -84.0806,-1023.01 C-83.8286,-1001.09 -83.9267,-979.184 -83.9773,-957.268 C-84.0049,-945.329 -77.7624,-939.414 -66.2677,-938.688 C-51.5637,-937.758 -36.8339,-937.225 -22.1359,-936.219 C-14.5915,-935.703 -5.66718,-935.656 -5.59446,-925.001 C-5.51936,-913.981 -14.1652,-912.628 -22.573,-912.782 C-36.4612,-913.037 -50.3395,-914.361 -64.2199,-914.333 C-77.453,-914.306 -81.3555,-909.983 -81.4748,-896.62 C-81.6933,-872.18 -81.6288,-847.737 -81.7127,-823.295 C-81.7797,-803.809 -78.4652,-799.974 -59.2982,-800.176 C49.4305,-801.322 158.116,-798.301 268.038,-797.094 Z " fill="#000000" fill-opacity="1.00" stroke-width="7.07" stroke="#ffffff" stroke-linecap="square" stroke-linejoin="miter"/>				<path d="M340.404,-448.542 C334.909,-417.7 329.41,-356.215 327.025,-356.215 C324.639,-356.215 322.653,-364.109 321.994,-367.41 C312.859,-413.164 303.74,-458.921 294.451,-504.644 C291.323,-520.042 284.695,-527.223 270.528,-527.954 C248.674,-529.081 226.704,-529.754 204.882,-527.546 C187.002,-525.736 184.391,-521.238 188.333,-503.322 C201.907,-441.631 219.654,-381.042 236.833,-320.311 C248.285,-279.831 259.363,-239.217 276.287,-200.481 C281.568,-188.395 289.198,-182.956 302.491,-183.582 C328.989,-184.83 355.525,-185.333 382.05,-185.919 C390.746,-186.111 396.495,-189.504 398.658,-198.269 C400.069,-203.981 401.921,-209.583 403.336,-215.295 C419.539,-280.666 432.098,-346.75 440.812,-413.515 C444.945,-445.192 450.465,-476.77 451.18,-508.808 C451.502,-523.196 446.633,-528.186 432.605,-528.394 C411.125,-528.714 389.63,-528.781 368.152,-528.387 C354.4,-528.135 348.117,-522.27 346.545,-508.647 C344.278,-489.021 342.559,-469.331 340.404,-448.542 Z " fill="#000000" fill-opacity="1.00" stroke-width="7.07" stroke="#ffffff" stroke-linecap="square" stroke-linejoin="miter"/>				<path d="M-228.279,-171.368 C-174.933,-169.926 -122.824,-174.447 -70.6215,-176.02 C-60.3306,-176.331 -55.7624,-182.57 -54.9434,-192.307 C-53.0006,-215.414 -51.9327,-238.546 -51.9589,-261.746 C-51.9713,-272.675 -56.7355,-278.603 -67.7274,-278.475 C-84.1236,-278.283 -100.716,-277.354 -116.897,-276.804 C-122.669,-276.607 -128.762,-275.618 -131.267,-281.555 C-134.409,-288.998 -134.566,-297.403 -131.222,-304.855 C-128.285,-311.4 -121.307,-310.136 -115.508,-310.238 C-96.9656,-310.565 -78.413,-310.516 -59.8795,-311.097 C-49.968,-311.408 -40.7761,-314.53 -39.8283,-326.196 C-38.2945,-345.07 -37.7275,-364.027 -36.9212,-382.956 C-36.5047,-392.741 -41.7683,-397.959 -51.2232,-398.618 C-57.4989,-399.057 -63.8392,-398.675 -70.147,-398.517 C-84.8882,-398.148 -99.626,-397.638 -114.367,-397.299 C-120.628,-397.155 -126.02,-398.289 -127.873,-405.755 C-132.477,-424.29 -126.901,-431.924 -108.102,-432.164 C-87.4535,-432.426 -66.7993,-432.431 -46.1558,-432.916 C-36.0211,-433.153 -29.5434,-437.608 -29.2423,-449.006 C-28.764,-467.107 -27.4007,-485.184 -26.9671,-503.285 C-26.4581,-524.528 -30.3261,-528.36 -51.5707,-528.433 C-100.467,-528.599 -149.364,-528.658 -198.261,-528.666 C-222.168,-528.669 -226.498,-524.846 -227.238,-501.149 C-230.503,-396.72 -233.538,-292.284 -236.609,-187.849 C-236.799,-181.379 -236.292,-175.03 -228.279,-171.368 Z " fill="#000000" fill-opacity="1.00" stroke-width="7.07" stroke="#ffffff" stroke-linecap="square" stroke-linejoin="miter"/>				<path d="M-595.124,-550.327 C-616.661,-561.158 -637.215,-571.865 -658.129,-581.815 C-675.029,-589.856 -681.188,-586.197 -682.729,-567.394 C-683.76,-554.813 -683.165,-542.106 -684.016,-529.503 C-688.914,-456.872 -693.812,-384.24 -699.263,-311.649 C-700.251,-298.507 -695.961,-289.038 -686.412,-280.589 C-655.492,-253.229 -624.864,-225.539 -594.112,-197.988 C-590.093,-194.387 -586.375,-189.461 -579.975,-192.424 C-574.104,-195.14 -573.58,-200.683 -573.397,-206.376 C-570.295,-302.327 -565.866,-398.217 -561.221,-494.105 C-559.061,-538.706 -555.091,-530.308 -595.124,-550.327 Z " fill="#000000" fill-opacity="1.00" stroke-width="7.07" stroke="#ffffff" stroke-linecap="square" stroke-linejoin="miter"/>				<path d="M-348.198,-600.598 C-435.834,-601.326 -522.221,-599.32 -608.584,-602.017 C-615.308,-602.227 -628.26,-604.231 -628.26,-598.321 C-628.26,-592.412 -621.42,-590.961 -617.282,-589.343 C-609.054,-586.124 -600.782,-582.969 -592.372,-580.274 C-563.66,-571.07 -536.612,-556.076 -505.257,-556.093 C-392.319,-556.158 -279.382,-556.006 -166.444,-556.049 C-162.218,-556.051 -154.804,-554.109 -154.354,-559.832 C-153.905,-565.556 -161.504,-565.444 -165.592,-566.905 C-180.652,-572.289 -196.092,-576.681 -210.943,-582.57 C-239.663,-593.957 -268.451,-603.494 -300.176,-600.757 C-315.65,-599.421 -331.34,-600.572 -348.198,-600.598 Z " fill="#000000" fill-opacity="1.00" stroke-width="7.07" stroke="#000000" stroke-linecap="square" stroke-linejoin="miter"/>				<path d="M371.931,-601.92 C361.892,-602.185 353.041,-602.414 344.189,-602.522 C316.259,-602.862 315.919,-602.499 316.566,-574.484 C316.984,-556.372 319.892,-553.437 338.34,-553.421 C429.406,-553.348 520.473,-553.314 611.539,-553.406 C615.761,-553.411 622.924,-552.413 624.141,-556.575 C625.358,-560.738 618.37,-562.111 614.416,-563.246 C586.488,-571.257 558.556,-579.252 530.67,-587.4 C505.616,-594.72 480.836,-601.855 454.005,-600.678 C427.111,-599.499 400.086,-601.321 371.931,-601.92 Z " fill="#000000" fill-opacity="1.00" stroke-width="7.07" stroke="#000000" stroke-linecap="square" stroke-linejoin="miter"/>			</g>		</g>	</svg>