<svg id="SvgjsSvg1001" width="288" height="288" xmlns="http://www.w3.org/2000/svg" version="1.1" xmlns:xlink="http://www.w3.org/1999/xlink" xmlns:svgjs="http://svgjs.com/svgjs"><defs id="SvgjsDefs1002"></defs><g id="SvgjsG1008"><svg xmlns="http://www.w3.org/2000/svg" viewBox="0 0 1024 1024" width="288" height="288"><path fill="#5f81e4" fill-rule="evenodd" d="M 477.557 14.223 C 476.217 16.135, 476 21.503, 476 52.675 C 476 89.106, 476.352 93.154, 479.630 94.411 C 480.377 94.698, 488.754 93.838, 498.244 92.500 C 522.653 89.058, 551.086 86.772, 564.617 87.165 C 575.861 87.491, 576.244 87.577, 578.589 90.306 C 580.992 93.102, 581 93.193, 581 117.056 C 581 139.667, 581.111 141.111, 583 143 C 584.886 144.886, 586.333 145, 608.429 145 C 629.096 145, 632.056 144.801, 633.548 143.309 C 635.115 141.743, 635.185 137.273, 634.506 82.559 C 634.103 50.077, 633.367 22.728, 632.870 21.785 C 631.533 19.245, 626.273 18.205, 608.500 16.965 C 599.700 16.351, 589.375 15.464, 585.555 14.994 C 574.918 13.683, 574.579 14.053, 575.317 26.168 C 575.871 35.252, 575.775 36.064, 574.212 35.569 C 573.270 35.271, 555.400 30.318, 534.500 24.563 C 513.600 18.807, 494.928 13.626, 493.007 13.049 C 491.085 12.472, 487.173 12, 484.313 12 C 480.073 12, 478.826 12.410, 477.557 14.223 M 456 18.137 C 450.775 20.321, 437.500 25.513, 426.500 29.675 C 415.500 33.837, 404.768 38.196, 402.652 39.361 C 395.137 43.497, 395.689 34.313, 395.213 163 L 394.786 278.500 397.643 281.130 C 400.372 283.642, 451.775 306.392, 460.718 309.046 C 468.687 311.410, 468 325.388, 468 160.878 C 468 43.998, 467.745 14.017, 466.750 14.083 C 466.063 14.128, 461.225 15.953, 456 18.137 M 511 102.715 C 486.673 104.694, 478.572 105.865, 477.314 107.586 C 475.285 110.360, 475.447 144.305, 477.499 146.357 C 479.482 148.340, 488.592 149.408, 497.294 148.679 C 506.313 147.922, 509.948 149.617, 509.985 154.595 C 510.017 158.952, 507.420 159.792, 492.799 160.158 C 483.297 160.395, 478.700 160.898, 477.799 161.798 C 476.833 162.763, 476.422 168.703, 476.196 184.990 L 475.893 206.884 478.439 208.552 C 480.778 210.085, 484.975 210.145, 530.242 209.290 C 557.334 208.778, 591.270 208.542, 605.655 208.766 C 624.252 209.055, 632.435 208.838, 633.972 208.015 C 636.106 206.873, 636.130 206.563, 635.817 183.963 C 635.541 164.003, 635.282 160.849, 633.797 159.367 C 632.248 157.819, 628.803 157.687, 595.480 157.900 C 568.361 158.073, 558.494 157.825, 557.433 156.944 C 555.952 155.715, 555.533 151.381, 556.621 148.545 C 557.460 146.359, 562.239 144, 565.828 144 C 570.955 144, 571.299 142.633, 570.810 124.244 C 570.550 114.488, 569.888 106.621, 569.224 105.394 C 568.373 103.823, 566.742 103.127, 562.792 102.653 C 557.397 102.005, 519.167 102.051, 511 102.715 M 532.092 219.750 C 494.689 219.937, 478.282 220.351, 477.342 221.131 C 475.301 222.825, 475.373 307.760, 477.418 310.559 C 478.741 312.370, 480.393 312.518, 502.168 312.763 C 516.122 312.921, 526.103 312.635, 527 312.051 C 528.251 311.238, 528.550 307.049, 528.802 286.828 C 528.993 271.510, 529.498 262.105, 530.174 261.290 C 530.763 260.580, 532.260 260, 533.500 260 C 538.082 260, 538.431 261.741, 538.845 286.652 C 539.217 309.083, 539.320 310.111, 541.339 311.525 C 544.593 313.804, 580.181 313.676, 582.481 311.376 C 583.922 309.936, 584.026 307.417, 583.408 289.053 C 582.605 265.193, 583.020 261.284, 586.451 260.423 C 587.750 260.097, 589.756 260.334, 590.907 260.950 C 592.940 262.038, 593 262.745, 593 285.601 C 593 299.909, 593.406 309.890, 594.035 311.066 C 595.006 312.879, 596.320 313, 615.012 313 C 634.642 313, 634.974 312.965, 636.248 310.750 C 637.267 308.978, 637.470 299.198, 637.204 264.700 L 636.866 220.900 634.368 219.950 C 632.980 219.422, 621.567 219.107, 608.685 219.241 C 595.933 219.374, 561.466 219.603, 532.092 219.750 M 646.506 290.990 C 645.672 292.340, 647.043 309.073, 648.167 311.250 C 649.014 312.891, 653.344 312.999, 717.785 312.985 C 755.578 312.976, 787.106 312.585, 787.846 312.116 C 788.733 311.554, 778.361 307.636, 757.447 300.632 L 725.702 290 686.410 290 C 661.553 290, 646.893 290.364, 646.506 290.990 M 251.227 292.181 C 251.443 292.830, 260.818 297.629, 272.060 302.844 L 292.500 312.327 315 312.774 C 345.370 313.377, 446.368 311.963, 445.330 310.949 C 444.873 310.503, 433.659 305.833, 420.409 300.569 L 396.319 291 323.576 291 C 268.101 291, 250.927 291.280, 251.227 292.181 M 238.506 294.250 C 238.269 294.938, 237.611 312.600, 237.043 333.500 C 236.476 354.400, 235.720 381.188, 235.363 393.029 L 234.715 414.557 257.404 435.779 C 269.884 447.450, 280.534 457, 281.072 457 C 281.610 457, 282.434 455.988, 282.905 454.750 C 284.302 451.074, 284.727 318.328, 283.346 316.947 C 280.630 314.229, 243.293 293.011, 241.219 293.006 C 239.964 293.003, 238.743 293.563, 238.506 294.250 M 764.489 320.654 C 763.356 321.787, 763.007 323.282, 763.382 325.404 C 764.800 333.428, 766.122 354.866, 765.504 359.813 C 764.559 367.377, 761.032 371, 754.612 371 C 751.187 371, 749.822 370.537, 749.062 369.116 C 748.407 367.893, 748.316 360.092, 748.802 346.866 C 749.213 335.665, 749.367 325.454, 749.144 324.176 C 748.504 320.507, 744.828 319.818, 727.784 320.173 C 714.517 320.449, 711.799 320.769, 710.343 322.226 C 708.982 323.589, 708.465 326.647, 707.889 336.726 C 707.487 343.752, 706.383 358.743, 705.434 370.039 C 704.486 381.336, 704.014 392.586, 704.385 395.039 C 706.954 412.014, 723.664 418.570, 750 412.937 C 755.225 411.819, 760.737 410.645, 762.250 410.327 C 764.584 409.837, 765 410.079, 765 411.925 C 765 418.927, 757.170 424.287, 744.268 426.117 C 735.437 427.369, 721.387 426.662, 712.500 424.519 C 709.200 423.723, 705.015 423.055, 703.199 423.036 C 699.056 422.991, 698.719 423.743, 692.474 446.989 L 687.793 464.414 689.882 466.105 C 693.001 468.631, 711.399 469.384, 753.500 468.709 C 792.514 468.084, 795.603 467.671, 801.163 462.344 C 808.153 455.647, 810.557 441.399, 809.658 412 C 808.919 387.815, 806.035 328.661, 805.378 324.205 C 805.031 321.849, 804.176 320.637, 802.381 319.955 C 801 319.430, 792.281 319, 783.006 319 C 768.653 319, 765.897 319.246, 764.489 320.654 M 294.125 321.350 C 293.336 322.301, 292.808 343.390, 292.339 392.687 L 291.675 462.675 293.837 464.837 C 295.928 466.928, 296.761 467, 318.800 467 C 335.200 467, 341.937 466.663, 342.800 465.800 C 343.663 464.937, 344 458.200, 344 441.800 L 344 419 351.570 419 L 359.140 419 358.423 441.509 C 357.758 462.377, 357.837 464.163, 359.508 466.009 C 361.203 467.881, 362.612 468, 383.180 468 C 404.946 468, 405.053 467.989, 405.884 465.750 C 406.343 464.512, 407.063 442.800, 407.484 417.500 C 407.905 392.200, 408.531 360.506, 408.875 347.069 C 409.376 327.504, 409.237 322.375, 408.179 321.319 C 407.167 320.309, 401.845 320, 385.500 320 C 360.474 320, 361.074 319.773, 360.865 329.321 C 360.790 332.720, 360.453 342.700, 360.115 351.500 L 359.500 367.500 352.780 367.795 C 346.219 368.083, 346.045 368.027, 345.385 365.397 C 345.013 363.916, 344.954 353.537, 345.254 342.333 C 345.763 323.288, 345.679 321.899, 343.965 320.981 C 342.916 320.420, 332.107 320, 318.688 320 C 300.229 320, 295.007 320.287, 294.125 321.350 M 422.680 320.865 C 420.030 321.273, 417.512 322.171, 417.086 322.860 C 416.265 324.189, 415.433 354.803, 414.351 423.523 C 413.723 463.406, 413.783 465.640, 415.519 467.377 C 417.247 469.105, 419.162 469.167, 449.925 468.503 C 473.903 467.986, 483.044 467.457, 484.562 466.500 C 486.440 465.316, 486.719 463.660, 487.686 447.975 C 488.270 438.502, 488.531 429.922, 488.266 428.908 C 487.511 426.021, 484.457 425.482, 470.370 425.747 C 454.940 426.038, 454.752 425.934, 455.198 417.334 L 455.500 411.500 473.203 411 C 485.130 410.663, 491.300 410.105, 492.114 409.288 C 494.001 407.397, 494.695 377.559, 492.880 376.389 C 492.121 375.900, 484.300 375.463, 475.500 375.417 C 466.700 375.371, 458.938 375.259, 458.250 375.167 C 457.385 375.051, 457 372.844, 457 368 C 457 364.150, 457.113 360.912, 457.250 360.805 C 457.387 360.697, 466.268 360.360, 476.985 360.055 L 496.469 359.500 497.127 355.500 C 497.488 353.300, 498.092 345.425, 498.469 338 C 499.018 327.186, 498.876 324.129, 497.758 322.637 C 496.451 320.894, 494.139 320.752, 461.931 320.448 C 442.994 320.268, 425.331 320.456, 422.680 320.865 M 593 320.841 C 589.863 321.432, 589.469 321.867, 589.202 325.042 C 588.836 329.392, 592.878 347.886, 602.088 384 C 614.034 430.847, 623.683 461.774, 627.562 465.653 C 629.872 467.963, 630.216 467.998, 649.205 467.882 C 674.501 467.727, 673.945 467.871, 676.779 460.730 C 684.830 440.439, 702.728 350.733, 703.342 327.598 C 703.489 322.030, 703.333 321.582, 701 320.915 C 697.666 319.961, 662.814 319.829, 661.353 320.765 C 659.774 321.777, 658.410 327.479, 656.513 341 C 653.133 365.082, 647.912 397.581, 647.114 399.500 C 646.369 401.292, 646.217 401.188, 645.655 398.500 C 645.310 396.850, 644.105 388.352, 642.978 379.616 C 639.299 351.106, 634.217 324.772, 631.956 322.510 C 630.119 320.671, 628.523 320.486, 613.224 320.341 C 604.026 320.254, 594.925 320.479, 593 320.841 M 518.268 322.250 C 515.554 325.725, 502.423 391.533, 498.564 421 C 497.058 432.498, 495 456.540, 495 462.628 C 495 468.734, 495.959 469, 517.949 469 C 533.004 469, 538.015 468.687, 538.837 467.697 C 539.511 466.885, 539.859 461.397, 539.763 453.127 C 539.638 442.517, 539.897 439.678, 541.054 438.946 C 542.914 437.769, 560.056 437.749, 561.909 438.923 C 562.888 439.542, 563.683 443.766, 564.515 452.770 C 565.174 459.896, 566.029 466.238, 566.415 466.863 C 567.484 468.593, 609.386 468.445, 610.829 466.706 C 613.857 463.057, 598.040 388.903, 583.924 340.574 C 581.206 331.264, 578.765 323.431, 578.500 323.167 C 576.178 320.845, 520.034 319.990, 518.268 322.250 M 546.583 369.250 C 544.251 377.601, 541.451 397.127, 542.277 399.280 C 542.807 400.662, 544.211 401, 549.410 401 C 552.969 401, 556.125 400.607, 556.422 400.126 C 556.719 399.645, 555.396 391.316, 553.481 381.616 C 551.567 371.916, 550 363.760, 550 363.490 C 550 363.221, 549.624 363, 549.164 363 C 548.704 363, 547.543 365.813, 546.583 369.250 M 398.879 476.897 L 396.536 478.794 395.955 599.147 C 395.635 665.341, 395.402 747.192, 395.437 781.038 L 395.500 842.576 404.998 862.538 C 415.453 884.509, 453.827 960.856, 458.007 968 C 459.885 971.210, 461.282 972.500, 462.879 972.500 L 465.118 972.500 465.478 769 C 465.676 657.075, 466.166 545.910, 466.565 521.968 C 467.240 481.578, 467.168 478.311, 465.575 476.718 C 464.024 475.167, 460.807 475, 432.539 475 C 403.278 475, 401.068 475.125, 398.879 476.897 M 545 475.576 C 543.625 475.817, 537.100 476.739, 530.500 477.625 C 510.742 480.276, 500.012 484.934, 490.683 494.908 C 485.379 500.579, 481.846 507.167, 479.334 516.071 C 477.846 521.349, 477.526 526.171, 477.550 543 C 477.581 565.176, 478.169 568.353, 482.547 570.018 C 486.483 571.514, 546.285 571.315, 547.800 569.800 C 549.967 567.633, 549.073 565.443, 543.635 559.600 C 527.297 542.044, 526.875 529.479, 542.492 525.507 C 551.114 523.314, 571.994 522.445, 580.494 523.926 C 588.928 525.394, 596.012 528.319, 599.102 531.608 C 601.260 533.905, 601.324 534.344, 600.156 538.777 C 599.472 541.375, 596.007 548.373, 592.456 554.328 C 581.977 571.905, 581.476 571.474, 613.409 572.366 C 644.829 573.245, 645.589 572.942, 648.072 558.566 C 649.600 549.720, 648.695 527.616, 646.476 519.563 C 642.520 505.206, 633.072 492.900, 621.264 486.725 C 613.754 482.797, 600.922 478.662, 591 476.972 C 584.359 475.841, 549.520 474.784, 545 475.576 M 484.409 579.853 C 483.359 580.048, 481.712 580.905, 480.750 581.758 C 479.193 583.139, 479 585.527, 479 603.464 C 479 619.362, 479.302 624.028, 480.429 625.559 C 481.784 627.399, 483.061 627.484, 504.929 627.200 L 528 626.900 528 629.373 C 528 632.922, 523.802 637.411, 518.273 639.773 C 514.048 641.578, 497.328 645.650, 486.694 647.463 C 479.237 648.734, 479 649.478, 479 671.566 C 479 683.141, 479.423 691.921, 480.035 693.066 C 481.426 695.664, 489.934 695.661, 505.171 693.056 C 527.263 689.279, 540.470 683.364, 548.389 673.701 L 552.139 669.125 558.453 675.564 C 569.384 686.712, 582.010 690.502, 605.774 689.765 C 621.510 689.278, 627.086 687.799, 634.603 682.117 C 640.525 677.641, 644.377 671.565, 646.721 663 C 648.245 657.430, 648.500 652.135, 648.500 626 C 648.500 597.973, 648.338 595.061, 646.500 590.082 C 642.909 580.354, 650.020 581.187, 562.909 580.289 C 520.784 579.855, 485.459 579.659, 484.409 579.853 M 579.750 624.746 C 570.449 625.057, 570 625.174, 570.006 627.286 C 570.024 634.526, 575.096 641.596, 581.899 643.866 C 586.896 645.533, 598.288 645.269, 603.018 643.376 C 607.900 641.423, 610 637.850, 610 631.499 C 610 627.194, 609.777 626.805, 606.532 625.449 C 604.425 624.569, 600.402 624.082, 596.282 624.209 C 592.552 624.324, 585.112 624.566, 579.750 624.746 M 540.257 695.098 C 517.975 697.083, 504.548 702.451, 492.983 713.996 C 480.812 726.146, 476.477 737.375, 476.571 756.500 C 476.617 765.825, 477.046 768.717, 479.386 775.490 C 484.473 790.213, 492.167 800.010, 502.919 805.459 C 508.860 808.469, 524.647 812.413, 537.500 814.097 C 554.714 816.352, 594.286 813.647, 612.707 808.956 C 624.540 805.942, 630.633 802.548, 638.510 794.586 C 650.588 782.377, 656.652 766.868, 655.748 750.500 C 654.927 735.611, 649.613 723.880, 638.728 712.925 C 629.040 703.174, 615.287 697.794, 593.026 695.046 C 583.337 693.850, 553.945 693.879, 540.257 695.098 M 546.470 738.458 C 538.225 739.956, 532.665 742.591, 528.500 746.974 C 525.931 749.677, 525.500 750.903, 525.500 755.500 C 525.500 760.076, 525.933 761.321, 528.434 763.931 C 534.049 769.792, 547.847 773.007, 567.322 772.992 C 581.190 772.982, 589.302 771.542, 597 767.724 C 607.353 762.589, 610.448 755.928, 605.731 748.929 C 600.224 740.757, 587.510 736.941, 566.292 737.090 C 559.256 737.140, 550.336 737.755, 546.470 738.458 M 485.026 819.250 C 484.003 821.587, 481.894 828, 480.340 833.500 C 477.803 842.478, 477.516 845.034, 477.532 858.500 C 477.553 876.155, 479.114 881.574, 486.569 889.866 C 494.720 898.931, 505.265 903.177, 524.464 905.123 C 538.951 906.592, 548.637 905.316, 558.500 900.641 C 566.037 897.068, 570.723 892.890, 585.443 876.619 C 598.087 862.643, 602.503 860.412, 607.545 865.455 C 610.755 868.664, 610.740 873.311, 607.500 879.404 C 604.669 884.729, 604.376 887.238, 606.392 888.910 C 608.055 890.291, 624.819 891.919, 637.849 891.966 C 646.945 891.999, 647.272 891.920, 649.973 889.029 C 653.430 885.328, 655.084 879.124, 655.745 867.381 C 656.862 847.546, 649.334 829.920, 636.584 822.519 C 627.838 817.442, 609.680 814.836, 597.431 816.899 C 583.083 819.316, 574.705 825.350, 555.270 847.259 C 549.174 854.132, 543.190 859.883, 540.941 861.030 C 528.002 867.631, 523.964 856.826, 532.858 839.403 C 535.077 835.056, 537.814 830.150, 538.940 828.500 C 541.494 824.756, 541.572 821.376, 539.132 820.071 C 538.104 819.521, 530.117 818.584, 521.382 817.988 C 512.647 817.393, 502.800 816.480, 499.500 815.960 C 488.260 814.189, 487.130 814.446, 485.026 819.250 M 597.500 898.100 C 583.164 901.323, 577.194 905.491, 564.033 921.460 C 549.181 939.482, 542.410 945, 535.151 945 C 525.887 945, 525.063 935.265, 533.196 921.889 C 538.400 913.332, 537.305 912.170, 522.917 910.974 C 516.638 910.452, 506.815 909.109, 501.089 907.988 C 488.974 905.618, 485.447 906.222, 481.578 911.331 C 477.098 917.246, 475.500 925.048, 475.500 941 C 475.500 953.172, 475.855 956.627, 477.709 962.521 C 481.752 975.369, 490.799 985.255, 502.919 990.068 C 510.772 993.187, 529.412 993.906, 541.122 991.541 C 556.931 988.349, 565.663 982.602, 577.326 967.712 C 590.392 951.031, 600.366 943.620, 607.381 945.381 C 613.767 946.984, 613.087 952.388, 604.719 966.544 C 597.978 977.946, 597.842 978.330, 599.632 980.885 C 601.065 982.931, 601.842 983, 623.307 982.994 C 647.284 982.988, 652.115 982.280, 654.658 978.399 C 659.480 971.040, 662.298 948.587, 660.061 935.347 C 656.860 916.406, 644.533 903.626, 624.540 898.522 C 618.084 896.873, 603.937 896.653, 597.500 898.100" class="svgShape color040404-0 selectable"></path><path fill="#f6f6d9" fill-rule="evenodd" d="M 0 512.001 L 0 1024.002 512.250 1023.751 L 1024.500 1023.500 1024.751 511.750 L 1025.002 0 512.501 0 L 0 0 0 512.001 M 0.496 512.500 C 0.496 794.100, 0.610 909.151, 0.750 768.168 C 0.890 627.186, 0.890 396.786, 0.750 256.168 C 0.610 115.551, 0.496 230.900, 0.496 512.500 M 477.557 14.223 C 476.217 16.135, 476 21.503, 476 52.675 C 476 89.106, 476.352 93.154, 479.630 94.411 C 480.377 94.698, 488.754 93.838, 498.244 92.500 C 522.653 89.058, 551.086 86.772, 564.617 87.165 C 575.861 87.491, 576.244 87.577, 578.589 90.306 C 580.992 93.102, 581 93.193, 581 117.056 C 581 139.667, 581.111 141.111, 583 143 C 584.886 144.886, 586.333 145, 608.429 145 C 629.096 145, 632.056 144.801, 633.548 143.309 C 635.115 141.743, 635.185 137.273, 634.506 82.559 C 634.103 50.077, 633.367 22.728, 632.870 21.785 C 631.533 19.245, 626.273 18.205, 608.500 16.965 C 599.700 16.351, 589.375 15.464, 585.555 14.994 C 574.918 13.683, 574.579 14.053, 575.317 26.168 C 575.871 35.252, 575.775 36.064, 574.212 35.569 C 573.270 35.271, 555.400 30.318, 534.500 24.563 C 513.600 18.807, 494.928 13.626, 493.007 13.049 C 491.085 12.472, 487.173 12, 484.313 12 C 480.073 12, 478.826 12.410, 477.557 14.223 M 456 18.137 C 450.775 20.321, 437.500 25.513, 426.500 29.675 C 415.500 33.837, 404.768 38.196, 402.652 39.361 C 395.137 43.497, 395.689 34.313, 395.213 163 L 394.786 278.500 397.643 281.130 C 400.372 283.642, 451.775 306.392, 460.718 309.046 C 468.687 311.410, 468 325.388, 468 160.878 C 468 43.998, 467.745 14.017, 466.750 14.083 C 466.063 14.128, 461.225 15.953, 456 18.137 M 511 102.715 C 486.673 104.694, 478.572 105.865, 477.314 107.586 C 475.285 110.360, 475.447 144.305, 477.499 146.357 C 479.482 148.340, 488.592 149.408, 497.294 148.679 C 506.313 147.922, 509.948 149.617, 509.985 154.595 C 510.017 158.952, 507.420 159.792, 492.799 160.158 C 483.297 160.395, 478.700 160.898, 477.799 161.798 C 476.833 162.763, 476.422 168.703, 476.196 184.990 L 475.893 206.884 478.439 208.552 C 480.778 210.085, 484.975 210.145, 530.242 209.290 C 557.334 208.778, 591.270 208.542, 605.655 208.766 C 624.252 209.055, 632.435 208.838, 633.972 208.015 C 636.106 206.873, 636.130 206.563, 635.817 183.963 C 635.541 164.003, 635.282 160.849, 633.797 159.367 C 632.248 157.819, 628.803 157.687, 595.480 157.900 C 568.361 158.073, 558.494 157.825, 557.433 156.944 C 555.952 155.715, 555.533 151.381, 556.621 148.545 C 557.460 146.359, 562.239 144, 565.828 144 C 570.955 144, 571.299 142.633, 570.810 124.244 C 570.550 114.488, 569.888 106.621, 569.224 105.394 C 568.373 103.823, 566.742 103.127, 562.792 102.653 C 557.397 102.005, 519.167 102.051, 511 102.715 M 532.092 219.750 C 494.689 219.937, 478.282 220.351, 477.342 221.131 C 475.301 222.825, 475.373 307.760, 477.418 310.559 C 478.741 312.370, 480.393 312.518, 502.168 312.763 C 516.122 312.921, 526.103 312.635, 527 312.051 C 528.251 311.238, 528.550 307.049, 528.802 286.828 C 528.993 271.510, 529.498 262.105, 530.174 261.290 C 530.763 260.580, 532.260 260, 533.500 260 C 538.082 260, 538.431 261.741, 538.845 286.652 C 539.217 309.083, 539.320 310.111, 541.339 311.525 C 544.593 313.804, 580.181 313.676, 582.481 311.376 C 583.922 309.936, 584.026 307.417, 583.408 289.053 C 582.605 265.193, 583.020 261.284, 586.451 260.423 C 587.750 260.097, 589.756 260.334, 590.907 260.950 C 592.940 262.038, 593 262.745, 593 285.601 C 593 299.909, 593.406 309.890, 594.035 311.066 C 595.006 312.879, 596.320 313, 615.012 313 C 634.642 313, 634.974 312.965, 636.248 310.750 C 637.267 308.978, 637.470 299.198, 637.204 264.700 L 636.866 220.900 634.368 219.950 C 632.980 219.422, 621.567 219.107, 608.685 219.241 C 595.933 219.374, 561.466 219.603, 532.092 219.750 M 646.506 290.990 C 645.672 292.340, 647.043 309.073, 648.167 311.250 C 649.014 312.891, 653.344 312.999, 717.785 312.985 C 755.578 312.976, 787.106 312.585, 787.846 312.116 C 788.733 311.554, 778.361 307.636, 757.447 300.632 L 725.702 290 686.410 290 C 661.553 290, 646.893 290.364, 646.506 290.990 M 251.227 292.181 C 251.443 292.830, 260.818 297.629, 272.060 302.844 L 292.500 312.327 315 312.774 C 345.370 313.377, 446.368 311.963, 445.330 310.949 C 444.873 310.503, 433.659 305.833, 420.409 300.569 L 396.319 291 323.576 291 C 268.101 291, 250.927 291.280, 251.227 292.181 M 238.506 294.250 C 238.269 294.938, 237.611 312.600, 237.043 333.500 C 236.476 354.400, 235.720 381.188, 235.363 393.029 L 234.715 414.557 257.404 435.779 C 269.884 447.450, 280.534 457, 281.072 457 C 281.610 457, 282.434 455.988, 282.905 454.750 C 284.302 451.074, 284.727 318.328, 283.346 316.947 C 280.630 314.229, 243.293 293.011, 241.219 293.006 C 239.964 293.003, 238.743 293.563, 238.506 294.250 M 764.489 320.654 C 763.356 321.787, 763.007 323.282, 763.382 325.404 C 764.800 333.428, 766.122 354.866, 765.504 359.813 C 764.559 367.377, 761.032 371, 754.612 371 C 751.187 371, 749.822 370.537, 749.062 369.116 C 748.407 367.893, 748.316 360.092, 748.802 346.866 C 749.213 335.665, 749.367 325.454, 749.144 324.176 C 748.504 320.507, 744.828 319.818, 727.784 320.173 C 714.517 320.449, 711.799 320.769, 710.343 322.226 C 708.982 323.589, 708.465 326.647, 707.889 336.726 C 707.487 343.752, 706.383 358.743, 705.434 370.039 C 704.486 381.336, 704.014 392.586, 704.385 395.039 C 706.954 412.014, 723.664 418.570, 750 412.937 C 755.225 411.819, 760.737 410.645, 762.250 410.327 C 764.584 409.837, 765 410.079, 765 411.925 C 765 418.927, 757.170 424.287, 744.268 426.117 C 735.437 427.369, 721.387 426.662, 712.500 424.519 C 709.200 423.723, 705.015 423.055, 703.199 423.036 C 699.056 422.991, 698.719 423.743, 692.474 446.989 L 687.793 464.414 689.882 466.105 C 693.001 468.631, 711.399 469.384, 753.500 468.709 C 792.514 468.084, 795.603 467.671, 801.163 462.344 C 808.153 455.647, 810.557 441.399, 809.658 412 C 808.919 387.815, 806.035 328.661, 805.378 324.205 C 805.031 321.849, 804.176 320.637, 802.381 319.955 C 801 319.430, 792.281 319, 783.006 319 C 768.653 319, 765.897 319.246, 764.489 320.654 M 294.125 321.350 C 293.336 322.301, 292.808 343.390, 292.339 392.687 L 291.675 462.675 293.837 464.837 C 295.928 466.928, 296.761 467, 318.800 467 C 335.200 467, 341.937 466.663, 342.800 465.800 C 343.663 464.937, 344 458.200, 344 441.800 L 344 419 351.570 419 L 359.140 419 358.423 441.509 C 357.758 462.377, 357.837 464.163, 359.508 466.009 C 361.203 467.881, 362.612 468, 383.180 468 C 404.946 468, 405.053 467.989, 405.884 465.750 C 406.343 464.512, 407.063 442.800, 407.484 417.500 C 407.905 392.200, 408.531 360.506, 408.875 347.069 C 409.376 327.504, 409.237 322.375, 408.179 321.319 C 407.167 320.309, 401.845 320, 385.500 320 C 360.474 320, 361.074 319.773, 360.865 329.321 C 360.790 332.720, 360.453 342.700, 360.115 351.500 L 359.500 367.500 352.780 367.795 C 346.219 368.083, 346.045 368.027, 345.385 365.397 C 345.013 363.916, 344.954 353.537, 345.254 342.333 C 345.763 323.288, 345.679 321.899, 343.965 320.981 C 342.916 320.420, 332.107 320, 318.688 320 C 300.229 320, 295.007 320.287, 294.125 321.350 M 422.680 320.865 C 420.030 321.273, 417.512 322.171, 417.086 322.860 C 416.265 324.189, 415.433 354.803, 414.351 423.523 C 413.723 463.406, 413.783 465.640, 415.519 467.377 C 417.247 469.105, 419.162 469.167, 449.925 468.503 C 473.903 467.986, 483.044 467.457, 484.562 466.500 C 486.440 465.316, 486.719 463.660, 487.686 447.975 C 488.270 438.502, 488.531 429.922, 488.266 428.908 C 487.511 426.021, 484.457 425.482, 470.370 425.747 C 454.940 426.038, 454.752 425.934, 455.198 417.334 L 455.500 411.500 473.203 411 C 485.130 410.663, 491.300 410.105, 492.114 409.288 C 494.001 407.397, 494.695 377.559, 492.880 376.389 C 492.121 375.900, 484.300 375.463, 475.500 375.417 C 466.700 375.371, 458.938 375.259, 458.250 375.167 C 457.385 375.051, 457 372.844, 457 368 C 457 364.150, 457.113 360.912, 457.250 360.805 C 457.387 360.697, 466.268 360.360, 476.985 360.055 L 496.469 359.500 497.127 355.500 C 497.488 353.300, 498.092 345.425, 498.469 338 C 499.018 327.186, 498.876 324.129, 497.758 322.637 C 496.451 320.894, 494.139 320.752, 461.931 320.448 C 442.994 320.268, 425.331 320.456, 422.680 320.865 M 593 320.841 C 589.863 321.432, 589.469 321.867, 589.202 325.042 C 588.836 329.392, 592.878 347.886, 602.088 384 C 614.034 430.847, 623.683 461.774, 627.562 465.653 C 629.872 467.963, 630.216 467.998, 649.205 467.882 C 674.501 467.727, 673.945 467.871, 676.779 460.730 C 684.830 440.439, 702.728 350.733, 703.342 327.598 C 703.489 322.030, 703.333 321.582, 701 320.915 C 697.666 319.961, 662.814 319.829, 661.353 320.765 C 659.774 321.777, 658.410 327.479, 656.513 341 C 653.133 365.082, 647.912 397.581, 647.114 399.500 C 646.369 401.292, 646.217 401.188, 645.655 398.500 C 645.310 396.850, 644.105 388.352, 642.978 379.616 C 639.299 351.106, 634.217 324.772, 631.956 322.510 C 630.119 320.671, 628.523 320.486, 613.224 320.341 C 604.026 320.254, 594.925 320.479, 593 320.841 M 518.268 322.250 C 515.554 325.725, 502.423 391.533, 498.564 421 C 497.058 432.498, 495 456.540, 495 462.628 C 495 468.734, 495.959 469, 517.949 469 C 533.004 469, 538.015 468.687, 538.837 467.697 C 539.511 466.885, 539.859 461.397, 539.763 453.127 C 539.638 442.517, 539.897 439.678, 541.054 438.946 C 542.914 437.769, 560.056 437.749, 561.909 438.923 C 562.888 439.542, 563.683 443.766, 564.515 452.770 C 565.174 459.896, 566.029 466.238, 566.415 466.863 C 567.484 468.593, 609.386 468.445, 610.829 466.706 C 613.857 463.057, 598.040 388.903, 583.924 340.574 C 581.206 331.264, 578.765 323.431, 578.500 323.167 C 576.178 320.845, 520.034 319.990, 518.268 322.250 M 546.583 369.250 C 544.251 377.601, 541.451 397.127, 542.277 399.280 C 542.807 400.662, 544.211 401, 549.410 401 C 552.969 401, 556.125 400.607, 556.422 400.126 C 556.719 399.645, 555.396 391.316, 553.481 381.616 C 551.567 371.916, 550 363.760, 550 363.490 C 550 363.221, 549.624 363, 549.164 363 C 548.704 363, 547.543 365.813, 546.583 369.250 M 398.879 476.897 L 396.536 478.794 395.955 599.147 C 395.635 665.341, 395.402 747.192, 395.437 781.038 L 395.500 842.576 404.998 862.538 C 415.453 884.509, 453.827 960.856, 458.007 968 C 459.885 971.210, 461.282 972.500, 462.879 972.500 L 465.118 972.500 465.478 769 C 465.676 657.075, 466.166 545.910, 466.565 521.968 C 467.240 481.578, 467.168 478.311, 465.575 476.718 C 464.024 475.167, 460.807 475, 432.539 475 C 403.278 475, 401.068 475.125, 398.879 476.897 M 545 475.576 C 543.625 475.817, 537.100 476.739, 530.500 477.625 C 510.742 480.276, 500.012 484.934, 490.683 494.908 C 485.379 500.579, 481.846 507.167, 479.334 516.071 C 477.846 521.349, 477.526 526.171, 477.550 543 C 477.581 565.176, 478.169 568.353, 482.547 570.018 C 486.483 571.514, 546.285 571.315, 547.800 569.800 C 549.967 567.633, 549.073 565.443, 543.635 559.600 C 527.297 542.044, 526.875 529.479, 542.492 525.507 C 551.114 523.314, 571.994 522.445, 580.494 523.926 C 588.928 525.394, 596.012 528.319, 599.102 531.608 C 601.260 533.905, 601.324 534.344, 600.156 538.777 C 599.472 541.375, 596.007 548.373, 592.456 554.328 C 581.977 571.905, 581.476 571.474, 613.409 572.366 C 644.829 573.245, 645.589 572.942, 648.072 558.566 C 649.600 549.720, 648.695 527.616, 646.476 519.563 C 642.520 505.206, 633.072 492.900, 621.264 486.725 C 613.754 482.797, 600.922 478.662, 591 476.972 C 584.359 475.841, 549.520 474.784, 545 475.576 M 484.409 579.853 C 483.359 580.048, 481.712 580.905, 480.750 581.758 C 479.193 583.139, 479 585.527, 479 603.464 C 479 619.362, 479.302 624.028, 480.429 625.559 C 481.784 627.399, 483.061 627.484, 504.929 627.200 L 528 626.900 528 629.373 C 528 632.922, 523.802 637.411, 518.273 639.773 C 514.048 641.578, 497.328 645.650, 486.694 647.463 C 479.237 648.734, 479 649.478, 479 671.566 C 479 683.141, 479.423 691.921, 480.035 693.066 C 481.426 695.664, 489.934 695.661, 505.171 693.056 C 527.263 689.279, 540.470 683.364, 548.389 673.701 L 552.139 669.125 558.453 675.564 C 569.384 686.712, 582.010 690.502, 605.774 689.765 C 621.510 689.278, 627.086 687.799, 634.603 682.117 C 640.525 677.641, 644.377 671.565, 646.721 663 C 648.245 657.430, 648.500 652.135, 648.500 626 C 648.500 597.973, 648.338 595.061, 646.500 590.082 C 642.909 580.354, 650.020 581.187, 562.909 580.289 C 520.784 579.855, 485.459 579.659, 484.409 579.853 M 579.750 624.746 C 570.449 625.057, 570 625.174, 570.006 627.286 C 570.024 634.526, 575.096 641.596, 581.899 643.866 C 586.896 645.533, 598.288 645.269, 603.018 643.376 C 607.900 641.423, 610 637.850, 610 631.499 C 610 627.194, 609.777 626.805, 606.532 625.449 C 604.425 624.569, 600.402 624.082, 596.282 624.209 C 592.552 624.324, 585.112 624.566, 579.750 624.746 M 540.257 695.098 C 517.975 697.083, 504.548 702.451, 492.983 713.996 C 480.812 726.146, 476.477 737.375, 476.571 756.500 C 476.617 765.825, 477.046 768.717, 479.386 775.490 C 484.473 790.213, 492.167 800.010, 502.919 805.459 C 508.860 808.469, 524.647 812.413, 537.500 814.097 C 554.714 816.352, 594.286 813.647, 612.707 808.956 C 624.540 805.942, 630.633 802.548, 638.510 794.586 C 650.588 782.377, 656.652 766.868, 655.748 750.500 C 654.927 735.611, 649.613 723.880, 638.728 712.925 C 629.040 703.174, 615.287 697.794, 593.026 695.046 C 583.337 693.850, 553.945 693.879, 540.257 695.098 M 546.470 738.458 C 538.225 739.956, 532.665 742.591, 528.500 746.974 C 525.931 749.677, 525.500 750.903, 525.500 755.500 C 525.500 760.076, 525.933 761.321, 528.434 763.931 C 534.049 769.792, 547.847 773.007, 567.322 772.992 C 581.190 772.982, 589.302 771.542, 597 767.724 C 607.353 762.589, 610.448 755.928, 605.731 748.929 C 600.224 740.757, 587.510 736.941, 566.292 737.090 C 559.256 737.140, 550.336 737.755, 546.470 738.458 M 485.026 819.250 C 484.003 821.587, 481.894 828, 480.340 833.500 C 477.803 842.478, 477.516 845.034, 477.532 858.500 C 477.553 876.155, 479.114 881.574, 486.569 889.866 C 494.720 898.931, 505.265 903.177, 524.464 905.123 C 538.951 906.592, 548.637 905.316, 558.500 900.641 C 566.037 897.068, 570.723 892.890, 585.443 876.619 C 598.087 862.643, 602.503 860.412, 607.545 865.455 C 610.755 868.664, 610.740 873.311, 607.500 879.404 C 604.669 884.729, 604.376 887.238, 606.392 888.910 C 608.055 890.291, 624.819 891.919, 637.849 891.966 C 646.945 891.999, 647.272 891.920, 649.973 889.029 C 653.430 885.328, 655.084 879.124, 655.745 867.381 C 656.862 847.546, 649.334 829.920, 636.584 822.519 C 627.838 817.442, 609.680 814.836, 597.431 816.899 C 583.083 819.316, 574.705 825.350, 555.270 847.259 C 549.174 854.132, 543.190 859.883, 540.941 861.030 C 528.002 867.631, 523.964 856.826, 532.858 839.403 C 535.077 835.056, 537.814 830.150, 538.940 828.500 C 541.494 824.756, 541.572 821.376, 539.132 820.071 C 538.104 819.521, 530.117 818.584, 521.382 817.988 C 512.647 817.393, 502.800 816.480, 499.500 815.960 C 488.260 814.189, 487.130 814.446, 485.026 819.250 M 597.500 898.100 C 583.164 901.323, 577.194 905.491, 564.033 921.460 C 549.181 939.482, 542.410 945, 535.151 945 C 525.887 945, 525.063 935.265, 533.196 921.889 C 538.400 913.332, 537.305 912.170, 522.917 910.974 C 516.638 910.452, 506.815 909.109, 501.089 907.988 C 488.974 905.618, 485.447 906.222, 481.578 911.331 C 477.098 917.246, 475.500 925.048, 475.500 941 C 475.500 953.172, 475.855 956.627, 477.709 962.521 C 481.752 975.369, 490.799 985.255, 502.919 990.068 C 510.772 993.187, 529.412 993.906, 541.122 991.541 C 556.931 988.349, 565.663 982.602, 577.326 967.712 C 590.392 951.031, 600.366 943.620, 607.381 945.381 C 613.767 946.984, 613.087 952.388, 604.719 966.544 C 597.978 977.946, 597.842 978.330, 599.632 980.885 C 601.065 982.931, 601.842 983, 623.307 982.994 C 647.284 982.988, 652.115 982.280, 654.658 978.399 C 659.480 971.040, 662.298 948.587, 660.061 935.347 C 656.860 916.406, 644.533 903.626, 624.540 898.522 C 618.084 896.873, 603.937 896.653, 597.500 898.100" class="svgShape colorfbfbfb-1 selectable"></path></svg></g></svg>