<svg xmlns="http://www.w3.org/2000/svg" xmlns:xlink="http://www.w3.org/1999/xlink" version="1.1" viewBox="1345.16 794.57 1405.67 2506.87">		<g id="document" transform="scale(1.0 1.0) translate(2048.0 2048.0)">			<g>				<path d="M-299.373,304.827 C-300.59,346.527 -300.167,386.98 -301.084,427.435 C-303.978,555.087 -305.386,682.773 -307.533,810.443 C-307.722,821.694 -305.414,831.999 -300.564,842.124 C-263.075,920.388 -225.75,998.733 -188.422,1077.07 C-175.555,1104.07 -166.761,1133.1 -153.916,1160.11 C-151.338,1165.54 -144.603,1169.5 -137.022,1167.22 C-130.192,1165.17 -128.919,1159.34 -129.382,1152.96 C-129.625,1149.6 -129.427,1146.57 -129.382,1143.22 C-127.342,988.129 -129.503,832.699 -127.321,677.601 C-125.223,528.433 -125.019,379.242 -122.24,230.071 C-120.057,112.931 -119.959,-4.2489 -119.027,-121.412 C-118.874,-140.607 -122.014,-143.809 -140.856,-143.447 C-182.561,-142.646 -224.261,-141.652 -265.96,-140.554 C-286.493,-140.014 -291.575,-134.516 -292.013,-113.522 C-292.735,-78.9794 -292.723,-44.4345 -293.594,-9.88144 C-296.23,94.5822 -297.535,199.081 -299.373,304.827 Z " fill="#000000" fill-opacity="1.00" stroke-width="6.87" stroke="#ffffff" stroke-linecap="square" stroke-linejoin="miter"/>				<path d="M164.725,412.195 C118.176,413.346 74.0704,421.172 30.4629,433.683 C-43.8081,454.994 -88.8656,521.222 -86.9109,594.355 C-84.8403,671.838 -36.9685,725.738 39.8426,734.59 C113.186,743.042 184.166,731.928 254.255,711.163 C328.614,689.132 375.409,618.898 365.482,544.281 C358.176,489.363 323.076,440.675 270.872,425.893 C236.582,416.184 201.427,412.949 164.725,412.195 Z M75.5688,539.514 C118.617,523.521 160.793,520.338 203.832,529.796 C212.965,531.804 221.489,535.563 229.231,540.718 C252.63,556.298 252.71,581.751 229.312,597.483 C211.457,609.489 191.034,614.327 170.142,617.921 C136.319,623.74 102.583,626.744 68.9472,617.033 C64.5279,615.757 60.1178,614.185 56.0118,612.132 C34.1226,601.19 30.0257,577.733 46.8871,559.876 C55.068,551.213 64.9803,544.854 75.5688,539.514 Z " fill="#000000" fill-opacity="1.00" stroke-width="6.87" stroke="#ffffff" stroke-linecap="square" stroke-linejoin="miter"/>				<path d="M108.139,350.521 C111.146,352.174 122.227,384.683 177.407,388.589 C212.35,391.062 246.323,393.059 280.061,383.845 C311.822,375.169 332.054,354.259 337.35,321.568 C347.231,260.575 341.472,199.852 331.052,139.486 C327.175,117.027 323.452,114.499 300.685,115.7 C240.081,118.895 179.432,119.839 118.758,120.355 C60.1914,120.852 1.62938,121.976 -56.9329,122.949 C-74.5158,123.24 -78.4428,127.232 -78.5631,144.783 C-78.7536,172.6 -78.798,200.42 -78.7146,228.238 C-78.6641,245.068 -75.4165,248.712 -58.6936,247.947 C-28.8308,246.581 0.990046,244.315 30.8396,242.619 C35.2629,242.367 40.9766,240.854 43.3499,246.01 C45.4622,250.599 42.19,255.062 39.4757,258.709 C30.32,271.008 16.3298,275.116 2.61128,279.198 C-18.3626,285.439 -39.4826,291.195 -60.5904,296.974 C-72.5424,300.247 -77.8728,308.293 -77.9522,320.2 C-78.1434,348.861 -78.5214,377.526 -78.1842,406.182 C-78.0126,420.762 -70.4385,426.58 -55.6531,423.811 C-37.8741,420.479 -20.2062,416.5 -2.58441,412.397 C36.3207,403.338 71.9885,388.361 98.187,356.335 C100.511,353.494 105.131,348.868 108.139,350.521 Z M240.629,228.238 C242.35,228.238 251.314,259.066 235.708,267.009 C213.117,278.507 189.351,278.299 166.26,268.435 C155.187,263.706 151.685,252.696 150.601,241.372 C149.933,234.407 154.789,231.291 160.668,230.848 C185.344,228.987 238.908,228.238 240.629,228.238 Z " fill="#000000" fill-opacity="1.00" stroke-width="6.87" stroke="#ffffff" stroke-linecap="square" stroke-linejoin="miter"/>				<path d="M-120.537,-584.084 C-112.763,-590.759 -113.81,-599.11 -113.713,-606.987 C-112.848,-676.933 -113.311,-746.882 -112.355,-816.837 C-110.804,-930.197 -111.281,-1043.58 -110.721,-1156.96 C-110.605,-1180.54 -109.35,-1204.12 -109.296,-1227.72 C-109.266,-1241.15 -113.348,-1244.08 -125.425,-1240.25 C-169.163,-1226.37 -212.804,-1212.19 -256.53,-1198.28 C-269.07,-1194.3 -274.49,-1186.29 -274.698,-1172.96 C-275.743,-1105.99 -277.481,-1039.02 -278.677,-972.048 C-280.498,-870.096 -282.105,-768.14 -283.726,-666.184 C-284.061,-645.097 -280.872,-640.748 -261.444,-633.321 C-226.434,-619.94 -191.558,-606.204 -156.421,-593.166 C-145.136,-588.98 -134.279,-582.551 -120.537,-584.084 Z " fill="#000000" fill-opacity="1.00" stroke-width="6.87" stroke="#ffffff" stroke-linecap="square" stroke-linejoin="miter"/>				<path d="M-369.909,-421.135 C-370.302,-409.626 -391.802,-409.411 -400.795,-413.208 C-409.83,-417.025 -406.912,-425.269 -406.669,-431.978 C-405.754,-457.218 -407.068,-482.495 -404.146,-507.727 C-402.455,-522.316 -407.869,-528.276 -421.259,-528.434 C-454.129,-528.82 -487.007,-528.584 -519.882,-528.601 C-531.407,-528.606 -537.17,-522.667 -536.734,-511.333 C-535.809,-487.265 -538.667,-463.365 -539.62,-439.385 C-541.092,-402.366 -543.481,-365.384 -545.261,-328.375 C-547.608,-279.598 -549.731,-230.811 -551.973,-182.029 C-552.538,-169.74 -546.302,-164.043 -534.441,-164.215 C-500.738,-164.704 -467.035,-165.247 -433.337,-165.993 C-422.254,-166.238 -416.527,-172.003 -416.278,-183.49 C-415.693,-210.443 -414.745,-237.387 -413.93,-264.334 C-413.815,-268.122 -414.022,-271.975 -413.399,-275.683 C-411.35,-287.88 -403.955,-291.468 -386.987,-289.707 C-375.174,-288.481 -373.696,-280.799 -375.243,-271.618 C-379.896,-244.015 -376.321,-216.077 -379.086,-188.363 C-380.689,-172.292 -373.884,-166.618 -357.103,-166.901 C-331.829,-167.326 -306.558,-167.883 -281.284,-168.301 C-260.392,-168.645 -256.276,-172.191 -255.383,-193.391 C-254.53,-213.596 -254.833,-233.847 -254.132,-254.061 C-251.198,-338.669 -247.957,-423.266 -245.125,-507.877 C-244.545,-525.224 -248.784,-529.586 -266.392,-530.231 C-290.812,-531.125 -315.234,-530.676 -339.671,-529.349 C-362.617,-528.103 -366.609,-524.691 -367.158,-501.744 C-367.792,-475.22 -366.348,-448.627 -369.909,-421.135 Z " fill="#000000" fill-opacity="1.00" stroke-width="6.87" stroke="#ffffff" stroke-linecap="square" stroke-linejoin="miter"/>				<path d="M-2.55858,1247.44 C18.2599,1251.79 37.9597,1249.9 57.5745,1246.92 C104.444,1239.82 142.958,1218.96 168.656,1177.85 C179.852,1159.93 192.519,1143.12 205.411,1126.46 C215.171,1113.84 227.63,1104.5 242.673,1099.15 C254.427,1094.96 262.961,1101.33 262.822,1113.75 C262.726,1122.39 259.441,1130.21 255.526,1137.72 C248.119,1151.91 239.974,1165.76 233.166,1180.24 C226.258,1194.92 233.64,1204.32 249.707,1202.46 C282.323,1198.66 314.919,1194.72 347.556,1191.12 C362.117,1189.52 371.296,1182.74 375.623,1168.15 C386.611,1131.08 389.501,1093.41 382.276,1055.66 C374.242,1013.67 350.683,983.162 308.529,970.535 C249.414,952.821 189.514,974.107 153.399,1024.37 C140.119,1042.86 126.891,1061.38 113.295,1079.64 C103.123,1093.3 91.2244,1105.29 75.2104,1112.05 C57.8943,1119.36 46.0032,1109.74 47.8947,1091.07 C49.4833,1075.4 57.1864,1062.43 64.1797,1048.97 C73.5121,1031.02 69.2062,1023.59 49.2642,1023.67 C20.1493,1023.78 -8.82544,1022.64 -37.7002,1018.42 C-55.3628,1015.84 -67.1423,1022.4 -73.7159,1039.25 C-88.3896,1076.87 -93.7418,1115.79 -85.6229,1155.74 C-76.2083,1202.07 -53.7842,1237.2 -2.55858,1247.44 Z " fill="#000000" fill-opacity="1.00" stroke-width="6.87" stroke="#ffffff" stroke-linecap="square" stroke-linejoin="miter"/>				<path d="M-72.0377,799.147 C-80.3578,827.381 -85.0153,855.175 -83.7283,883.607 C-81.948,922.939 -70.3788,957.378 -33.5974,978.451 C-16.4287,988.278 2.16175,992.96 21.6379,994.9 C68.6115,999.573 111.109,989.977 147.052,957.272 C167.897,938.303 180.831,913.16 199.569,892.609 C208.355,882.974 216.026,872.188 227.722,865.664 C234.619,861.818 241.888,859.433 248.998,865.026 C255.98,870.519 256.187,878.442 254.067,885.859 C251.534,894.722 247.673,903.232 244.05,911.752 C237.084,928.133 240.672,934.532 258.682,934.861 C282.702,935.301 306.755,935.24 330.767,934.509 C350.669,933.903 362.702,923.624 367.58,904.125 C377.455,864.662 372.997,826.529 357.067,789.271 C347.869,767.762 332.587,753.468 310.78,745.572 C257.32,726.217 196.176,740.613 157.857,782.622 C142.537,799.417 128.548,817.436 114.149,835.058 C105.884,845.173 98.5056,856.189 87.2943,863.351 C77.8094,869.41 67.5774,877.841 56.0825,870.013 C44.6811,862.248 48.4795,849.622 50.603,838.577 C54.0885,820.451 64.3427,805.198 72.7082,789.168 C83.7418,768.023 80.1146,761.818 56.6497,761.571 C23.8069,761.224 -9.10377,762.773 -41.7251,756.997 C-52.3786,755.112 -59.6893,760.232 -63.0953,770.435 C-66.1606,779.616 -68.8723,788.915 -72.0377,799.147 Z " fill="#000000" fill-opacity="1.00" stroke-width="6.87" stroke="#ffffff" stroke-linecap="square" stroke-linejoin="miter"/>				<path d="M619.708,-186.604 C629.317,-187.352 637.758,-187.705 646.097,-188.819 C673.478,-192.475 690.767,-208.302 695.9,-235.107 C697.949,-245.8 700.008,-256.649 699.236,-267.692 C696.712,-303.775 694.572,-339.891 691.509,-375.928 C687.627,-421.595 683.199,-467.22 678.54,-512.816 C677.134,-526.577 671.374,-531.28 657.502,-530.975 C637.724,-530.541 617.944,-529.687 598.198,-528.466 C585.514,-527.683 581.258,-521.875 582.846,-509.22 C584.731,-494.197 587.07,-479.219 588.461,-464.152 C589.575,-452.063 591.47,-439.795 587.389,-427.815 C583.778,-417.215 575.734,-414.106 565.42,-415.243 C554.732,-416.422 555.071,-424.375 555.083,-432.223 C555.117,-456.661 555.24,-481.102 554.957,-505.538 C554.76,-522.497 550.995,-526.692 534.495,-527.665 C518.109,-528.632 501.683,-529.087 485.274,-527.201 C463.76,-524.728 460.363,-521.221 460.613,-499.49 C461.081,-459.032 458.637,-418.693 455.843,-378.369 C453.285,-341.461 470.221,-318.841 506.372,-311.531 C531.186,-306.515 554.836,-312.587 578.421,-319.385 C583.295,-320.791 589.375,-325.019 593.008,-318.075 C595.968,-312.42 592.255,-307.305 588.349,-303.4 C577.468,-292.522 563.868,-286.815 548.746,-286.072 C521.794,-284.749 494.893,-285.051 468.44,-291.935 C451.967,-296.222 447.085,-293.418 442.742,-277.061 C437.346,-256.737 432.685,-236.217 427.683,-215.788 C422.149,-193.185 425.851,-188.111 449.292,-186.309 C451.391,-186.148 453.51,-186.223 455.603,-186.013 C509.92,-180.565 564.199,-185.822 619.708,-186.604 Z " fill="#000000" fill-opacity="1.00" stroke-width="6.87" stroke="#ffffff" stroke-linecap="square" stroke-linejoin="miter"/>				<path d="M65.4616,-599.939 C66.1552,-589.895 67.0889,-581.088 67.4022,-572.26 C67.82,-560.49 74.0429,-555.96 85.2869,-556.087 C104.248,-556.3 123.215,-556.11 142.179,-556.053 C173.282,-555.959 173.422,-555.95 172.775,-586.687 C172.286,-609.847 171.329,-632.997 170.696,-656.155 C170.514,-662.826 171.294,-669.266 179.99,-669.908 C189.121,-670.582 189.659,-663.57 190.627,-657.282 C191.203,-653.548 191.436,-649.745 191.578,-645.962 C192.479,-621.975 193.262,-597.981 194.187,-573.995 C194.7,-560.675 198.647,-556.429 211.661,-556.248 C235.258,-555.921 258.863,-556.227 282.458,-555.841 C294.441,-555.646 299.509,-561.473 299.044,-572.817 C298.545,-585.012 297.376,-597.186 297.101,-609.382 C296.094,-654.028 295.361,-698.678 294.476,-743.326 C294.173,-758.631 290.972,-762.037 276.177,-762.794 C263.562,-763.439 250.941,-764.337 238.318,-764.399 C168.363,-764.741 98.4022,-764.497 28.4518,-765.226 C-2.70044,-765.55 -33.8138,-768.145 -65.0145,-767.731 C-74.7896,-767.6 -81.4758,-765.305 -81.5812,-753.844 C-82.1274,-694.437 -83.0204,-635.032 -83.3426,-575.624 C-83.4229,-560.815 -78.0661,-556.092 -63.2318,-555.981 C-35.4189,-555.773 -7.60356,-555.866 20.2106,-555.869 C41.4411,-555.872 43.759,-558.227 43.6613,-580.122 C43.5449,-606.249 43.2697,-632.377 43.1431,-658.505 C43.1132,-664.661 43.7385,-671.18 51.6459,-671.623 C59.7292,-672.076 62.3064,-666.371 62.639,-659.207 C63.537,-639.858 64.4925,-620.513 65.4616,-599.939 Z " fill="#000000" fill-opacity="1.00" stroke-width="6.87" stroke="#ffffff" stroke-linecap="square" stroke-linejoin="miter"/>				<path d="M52.142,4.99333 C50.7039,-9.98256 57.747,-18.3924 70.4727,-22.3847 C79.2864,-25.1495 88.2677,-27.5234 97.3181,-29.3661 C131.366,-36.2994 165.218,-35.1584 198.486,-25.0393 C217.937,-19.123 221.855,-10.73 215.668,7.9445 C209.378,26.932 197.623,43.1331 188.835,60.8454 C181.308,76.0138 185.449,83.0788 202.549,83.1045 C235.006,83.1535 267.466,83.0082 299.919,82.547 C320.277,82.2576 329.029,74.3933 332.379,54.4966 C336.598,29.4423 337.454,4.1692 334.612,-20.9887 C331.09,-52.178 320.225,-80.7021 299.063,-104.508 C279.026,-127.047 251.717,-136.445 223.808,-143.302 C148.525,-161.799 74.3715,-155.825 1.02847,-131.734 C-41.0289,-117.919 -65.1689,-88.8875 -76.1974,-47.2296 C-86.1918,-9.47825 -85.0277,28.6961 -80.2396,66.8982 C-77.6707,87.3943 -74.5102,90.1996 -53.4188,89.7449 C-8.35294,88.7719 36.6957,87.0044 81.7515,85.5649 C87.9993,85.3654 93.8407,83.8775 96.0502,77.3278 C98.4804,70.1243 93.7535,65.2657 88.8952,61.096 C71.4785,46.1481 59.7495,27.4995 52.142,4.99333 Z " fill="#000000" fill-opacity="1.00" stroke-width="6.87" stroke="#ffffff" stroke-linecap="square" stroke-linejoin="miter"/>				<path d="M-33.9784,-225.853 C-34.6979,-212.907 -35.6666,-201.134 -35.7018,-189.358 C-35.7311,-179.564 -30.8412,-173.225 -20.3036,-173.301 C5.40721,-173.488 31.1318,-173.478 56.8203,-174.397 C71.0247,-174.905 75.8042,-181.209 75.4372,-195.85 C75.2155,-204.691 74.6223,-213.528 74.5729,-222.368 C74.4229,-249.149 74.4945,-249.152 100.617,-249.194 C104.831,-249.202 109.048,-249.092 113.262,-249.174 C122.71,-249.357 128.282,-245.638 129.134,-235.433 C130.219,-222.447 132.274,-209.545 133.558,-196.571 C134.583,-186.201 139.45,-179.917 150.318,-180.011 C177.709,-180.251 205.101,-180.606 232.486,-181.2 C242.459,-181.415 246.605,-186.331 244.963,-196.881 C241.336,-220.178 236.588,-243.226 231.243,-266.167 C212.619,-346.115 192.528,-425.663 167.813,-503.997 C163.629,-517.258 156.553,-525.514 142.167,-525.587 C105.499,-525.77 68.8316,-525.881 32.1649,-525.765 C22.1394,-525.734 15.6949,-520.781 13.5476,-510.43 C10.3002,-494.776 6.33658,-479.269 3.13903,-463.605 C-12.8421,-385.32 -30.0025,-307.212 -33.9784,-225.853 Z M97.6107,-412.922 C98.5767,-409.57 105.318,-372.322 109.704,-353.083 C111.977,-343.114 106.027,-341.085 98.9554,-340.229 C91.3851,-339.314 81.0698,-336.097 79.8995,-347.982 C77.4871,-372.481 87.0392,-416.412 90.7553,-418.841 C94.4714,-421.27 96.6448,-416.274 97.6107,-412.922 Z " fill="#000000" fill-opacity="1.00" stroke-width="6.87" stroke="#ffffff" stroke-linecap="square" stroke-linejoin="miter"/>				<path d="M283.8,-978.091 C283.165,-986.808 282.325,-994.357 282.024,-1001.92 C279.385,-1068.37 279.519,-1134.92 274.466,-1201.3 C273.529,-1213.6 268.789,-1221.08 255.972,-1222.55 C229.655,-1225.59 203.418,-1229.49 177.042,-1231.83 C148.51,-1234.36 148.457,-1233.77 148.64,-1204.81 C148.724,-1191.61 147.325,-1190.53 135.002,-1194.1 C93.3707,-1206.16 51.7524,-1218.27 10.0909,-1230.22 C-11.7524,-1236.49 -33.5838,-1242.83 -55.5906,-1248.48 C-73.7934,-1253.15 -83.7052,-1246.99 -84.0345,-1230.82 C-84.9516,-1185.75 -85.624,-1140.69 -85.854,-1095.63 C-85.9458,-1077.66 -80.5941,-1072.25 -63.1517,-1073.66 C-16.1238,-1077.47 30.9912,-1078.99 78.1178,-1080.44 C97.0498,-1081.02 116.001,-1082.08 134.886,-1079.49 C143.344,-1078.33 149.256,-1076.73 153.302,-1073.83 C159.409,-1069.46 161.26,-1062.13 161.188,-1048.92 C161.06,-1025.33 161.408,-1001.66 161.188,-978.091 C161.002,-958.233 164.64,-953.248 184.067,-952.526 C208.475,-951.619 232.887,-950.791 257.304,-950.167 C280.87,-949.563 284.268,-953.122 283.8,-978.091 Z " fill="#000000" fill-opacity="1.00" stroke-width="6.87" stroke="#ffffff" stroke-linecap="square" stroke-linejoin="miter"/>				<path d="M268.038,-797.092 C288.524,-797.437 292.494,-800.486 290.836,-819.037 C288.547,-844.648 291.013,-870.39 287.268,-895.972 C285.636,-907.13 281.803,-912.232 270.014,-912.762 C217.374,-915.129 164.721,-915.332 112.052,-915.104 C107.864,-915.086 103.522,-914.989 99.521,-915.995 C92.5483,-917.749 88.9536,-922.466 89.6975,-930.015 C90.3932,-937.078 94.6166,-940.6 101.259,-941.109 C107.971,-941.622 114.732,-941.495 121.471,-941.67 C136.991,-942.073 139.748,-944.205 139.241,-959.2 C138.514,-980.639 140.142,-1001.57 139.241,-1023.01 C138.755,-1034.54 128.676,-1038.33 118.47,-1039.1 C59.1583,-1043.62 -0.200992,-1042.49 -59.5689,-1041.06 C-62.5148,-1040.99 -65.4735,-1040.88 -68.3968,-1040.53 C-78.7424,-1039.31 -84.206,-1033.95 -84.0801,-1023.01 C-83.8283,-1001.09 -83.9263,-979.182 -83.9769,-957.266 C-84.0045,-945.327 -77.7621,-939.412 -66.2674,-938.686 C-51.5634,-937.756 -36.8336,-937.223 -22.1355,-936.217 C-14.5911,-935.701 -5.66687,-935.654 -5.59417,-924.999 C-5.51909,-913.979 -14.165,-912.626 -22.5728,-912.78 C-36.4608,-913.035 -50.339,-914.359 -64.2195,-914.331 C-77.4526,-914.304 -81.3552,-909.981 -81.4745,-896.618 C-81.6928,-872.178 -81.6284,-847.735 -81.7124,-823.293 C-81.7794,-803.807 -78.4649,-799.972 -59.2977,-800.174 C49.4307,-801.32 158.116,-798.299 268.038,-797.092 Z " fill="#000000" fill-opacity="1.00" stroke-width="6.87" stroke="#ffffff" stroke-linecap="square" stroke-linejoin="miter"/>				<path d="M340.404,-448.54 C334.909,-417.698 329.41,-356.213 327.025,-356.213 C324.639,-356.213 322.653,-364.107 321.994,-367.408 C312.859,-413.162 303.74,-458.919 294.451,-504.642 C291.323,-520.04 284.695,-527.221 270.528,-527.952 C248.674,-529.079 226.704,-529.752 204.882,-527.544 C187.002,-525.734 184.391,-521.236 188.333,-503.32 C201.907,-441.629 219.654,-381.04 236.833,-320.309 C248.285,-279.829 259.363,-239.215 276.287,-200.479 C281.568,-188.393 289.198,-182.954 302.491,-183.58 C328.989,-184.828 355.525,-185.331 382.05,-185.917 C390.746,-186.109 396.495,-189.502 398.658,-198.267 C400.069,-203.979 401.921,-209.581 403.336,-215.293 C419.539,-280.664 432.098,-346.748 440.812,-413.513 C444.945,-445.19 450.465,-476.768 451.18,-508.806 C451.502,-523.194 446.633,-528.184 432.605,-528.392 C411.125,-528.712 389.63,-528.779 368.152,-528.385 C354.4,-528.133 348.117,-522.268 346.545,-508.645 C344.278,-489.019 342.559,-469.329 340.404,-448.54 Z " fill="#000000" fill-opacity="1.00" stroke-width="6.87" stroke="#ffffff" stroke-linecap="square" stroke-linejoin="miter"/>				<path d="M-228.279,-171.366 C-174.933,-169.924 -122.824,-174.445 -70.6212,-176.018 C-60.3301,-176.329 -55.7621,-182.568 -54.9433,-192.305 C-53.0003,-215.412 -51.9324,-238.544 -51.9586,-261.744 C-51.9709,-272.673 -56.7353,-278.601 -67.7271,-278.473 C-84.1233,-278.281 -100.716,-277.352 -116.897,-276.802 C-122.669,-276.605 -128.762,-275.616 -131.267,-281.553 C-134.409,-288.996 -134.566,-297.401 -131.222,-304.853 C-128.285,-311.398 -121.307,-310.134 -115.508,-310.236 C-96.9653,-310.563 -78.4127,-310.514 -59.8792,-311.095 C-49.9676,-311.406 -40.7757,-314.528 -39.8279,-326.194 C-38.2943,-345.068 -37.7272,-364.025 -36.921,-382.954 C-36.5044,-392.739 -41.7681,-397.957 -51.223,-398.616 C-57.4986,-399.055 -63.8389,-398.673 -70.1467,-398.515 C-84.8878,-398.146 -99.6257,-397.636 -114.367,-397.297 C-120.628,-397.153 -126.02,-398.287 -127.873,-405.753 C-132.477,-424.288 -126.901,-431.922 -108.102,-432.162 C-87.4533,-432.424 -66.799,-432.429 -46.1555,-432.914 C-36.0209,-433.151 -29.5431,-437.606 -29.242,-449.004 C-28.7637,-467.105 -27.4005,-485.182 -26.9669,-503.283 C-26.4578,-524.526 -30.3258,-528.358 -51.5704,-528.431 C-100.467,-528.597 -149.364,-528.656 -198.261,-528.664 C-222.168,-528.667 -226.498,-524.844 -227.238,-501.147 C-230.503,-396.718 -233.538,-292.282 -236.609,-187.847 C-236.799,-181.377 -236.292,-175.028 -228.279,-171.366 Z " fill="#000000" fill-opacity="1.00" stroke-width="6.87" stroke="#ffffff" stroke-linecap="square" stroke-linejoin="miter"/>				<path d="M-595.124,-550.325 C-616.661,-561.156 -637.215,-571.863 -658.129,-581.813 C-675.029,-589.854 -681.188,-586.195 -682.729,-567.392 C-683.76,-554.811 -683.165,-542.104 -684.016,-529.501 C-688.914,-456.87 -693.812,-384.238 -699.263,-311.647 C-700.251,-298.505 -695.961,-289.036 -686.412,-280.587 C-655.492,-253.227 -624.864,-225.537 -594.112,-197.986 C-590.093,-194.385 -586.375,-189.459 -579.975,-192.422 C-574.104,-195.138 -573.58,-200.681 -573.397,-206.374 C-570.295,-302.325 -565.866,-398.215 -561.221,-494.103 C-559.061,-538.704 -555.091,-530.306 -595.124,-550.325 Z " fill="#000000" fill-opacity="1.00" stroke-width="6.87" stroke="#ffffff" stroke-linecap="square" stroke-linejoin="miter"/>				<path d="M-348.198,-600.596 C-435.834,-601.324 -522.221,-599.318 -608.584,-602.015 C-615.308,-602.225 -628.26,-604.229 -628.26,-598.319 C-628.26,-592.41 -621.42,-590.959 -617.282,-589.341 C-609.054,-586.122 -600.782,-582.967 -592.372,-580.272 C-563.66,-571.068 -536.612,-556.074 -505.257,-556.091 C-392.319,-556.156 -279.382,-556.004 -166.444,-556.047 C-162.218,-556.049 -154.804,-554.107 -154.354,-559.83 C-153.905,-565.554 -161.504,-565.442 -165.592,-566.903 C-180.652,-572.287 -196.092,-576.679 -210.943,-582.568 C-239.663,-593.955 -268.451,-603.492 -300.176,-600.755 C-315.65,-599.419 -331.34,-600.57 -348.198,-600.596 Z " fill="#000000" fill-opacity="1.00" stroke-width="6.87" stroke="#000000" stroke-linecap="square" stroke-linejoin="miter"/>				<path d="M371.931,-601.918 C361.892,-602.183 353.041,-602.412 344.189,-602.52 C316.259,-602.86 315.919,-602.497 316.566,-574.482 C316.984,-556.37 319.892,-553.435 338.34,-553.419 C429.406,-553.346 520.473,-553.312 611.539,-553.404 C615.761,-553.409 622.924,-552.411 624.141,-556.573 C625.358,-560.736 618.37,-562.109 614.416,-563.244 C586.488,-571.255 558.556,-579.25 530.67,-587.398 C505.616,-594.718 480.836,-601.853 454.005,-600.676 C427.111,-599.497 400.086,-601.319 371.931,-601.918 Z " fill="#000000" fill-opacity="1.00" stroke-width="6.87" stroke="#000000" stroke-linecap="square" stroke-linejoin="miter"/>			</g>		</g>	</svg>