<svg id="SvgjsSvg1024" width="288px" height="288px" xmlns="http://www.w3.org/2000/svg" version="1.1" xmlns:xlink="http://www.w3.org/1999/xlink" xmlns:svgjs="http://svgjs.com/svgjs" transform="rotate(0) scale(1, 1)"><defs id="SvgjsDefs1025"/><g id="SvgjsG1026"><svg xmlns="http://www.w3.org/2000/svg" xmlns:svgjs="http://svgjs.com/svgjs" xmlns:xlink="http://www.w3.org/1999/xlink" viewBox="0 0 288 288" width="288" height="288"><svg xmlns="http://www.w3.org/2000/svg" viewBox="0 0 400 400" width="288" height="288"><path fill="#000000" fill-rule="evenodd" d="M192.383 17.187 C 159.289 19.297,139.752 30.963,146.428 44.627 C 153.706 59.524,202.575 65.803,236.601 56.212 C 251.728 51.948,258.159 44.239,254.864 34.318 C 251.256 23.457,221.594 15.324,192.383 17.187 M219.513 22.445 C 242.280 25.667,254.216 33.159,251.190 42.328 C 247.275 54.190,203.359 60.277,172.042 53.299 C 153.739 49.221,146.894 43.150,151.164 34.781 C 156.097 25.111,192.245 18.587,219.513 22.445 M187.305 27.939 C 162.414 30.415,149.898 38.382,161.871 44.130 C 180.681 53.158,230.425 52.204,242.574 42.581 C 245.078 40.598,244.561 37.489,241.315 35.014 C 233.657 29.173,208.294 25.851,187.305 27.939 M217.773 32.411 C 227.118 33.711,234.806 35.977,237.497 38.224 L 238.847 39.351 236.904 40.333 C 222.065 47.833,181.677 47.837,164.746 40.341 C 161.967 39.110,161.969 39.064,164.846 37.531 C 174.056 32.622,200.742 30.040,217.773 32.411 M20.486 55.424 C 12.141 59.215,13.323 72.693,23.078 84.969 L 25.436 87.936 24.053 89.359 C 17.433 96.175,21.509 108.301,33.623 117.827 L 35.801 119.539 34.612 121.936 C 30.114 131.011,37.435 141.619,52.344 147.631 C 55.029 148.714,57.465 149.602,57.757 149.605 C 58.116 149.608,58.189 149.830,57.985 150.293 C 54.567 158.035,62.783 167.873,75.195 170.901 C 76.699 171.267,78.142 171.628,78.401 171.702 C 78.754 171.804,78.718 172.289,78.253 173.654 C 75.855 180.691,80.314 186.545,90.733 190.037 L 94.727 191.375 94.991 194.480 C 95.365 198.879,95.707 199.332,103.350 205.550 C 117.238 216.848,118.584 217.368,133.398 217.175 C 136.406 217.135,141.648 217.232,145.047 217.389 L 151.227 217.675 150.906 257.568 C 150.730 279.509,150.586 306.689,150.586 317.969 L 150.586 338.477 162.247 358.008 C 178.106 384.570,178.136 384.610,181.838 383.202 C 182.796 382.838,183.260 382.941,185.129 383.930 C 193.352 388.282,207.337 387.389,213.911 382.092 L 216.264 380.196 216.884 381.275 C 219.275 385.443,239.005 385.202,243.071 380.956 C 247.305 376.535,247.553 363.113,243.525 356.423 C 242.295 354.381,242.228 354.119,242.776 353.513 C 244.468 351.644,245.404 338.460,244.191 333.594 C 243.356 330.245,241.454 326.971,239.575 325.646 L 237.932 324.488 240.270 321.938 C 248.832 312.593,248.447 297.673,239.428 289.327 L 236.863 286.954 238.647 285.762 C 243.181 282.731,244.923 277.221,244.889 266.016 C 244.863 257.499,244.369 251.623,243.535 249.902 C 242.856 248.504,242.855 248.373,243.504 247.012 C 246.750 240.205,244.401 223.108,239.638 218.866 C 239.107 218.393,238.672 217.954,238.672 217.890 C 238.672 217.826,249.087 217.724,261.816 217.664 C 300.267 217.481,301.121 217.049,301.160 197.782 L 301.172 191.852 303.418 191.408 C 317.099 188.702,323.484 182.829,321.773 174.525 L 321.232 171.902 323.345 171.463 C 336.948 168.639,344.990 159.583,342.069 150.377 C 341.767 149.426,341.866 149.350,344.537 148.490 C 360.807 143.250,370.097 131.513,365.314 122.239 L 364.027 119.743 365.119 118.954 C 377.834 109.762,382.768 95.811,375.546 89.470 L 374.170 88.262 376.278 85.830 C 386.646 73.874,387.780 57.963,378.442 55.449 C 374.699 54.441,367.574 57.498,356.747 64.756 C 336.506 78.324,326.558 82.486,302.900 87.286 C 275.518 92.841,268.088 98.845,259.376 122.461 C 254.991 134.348,247.135 147.656,244.504 147.656 C 244.098 147.656,243.760 137.624,243.780 126.163 C 243.791 119.892,243.638 115.382,243.392 114.735 C 243.090 113.939,243.141 113.063,243.592 111.302 C 244.122 109.234,244.145 107.438,243.779 96.987 C 243.548 90.415,243.359 81.586,243.359 77.367 C 243.359 64.743,243.444 64.809,226.890 64.710 L 216.476 64.648 215.456 65.603 C 214.895 66.129,214.297 67.095,214.127 67.751 C 213.682 69.468,213.480 69.448,203.043 66.637 C 188.592 62.745,181.147 61.917,176.437 63.679 C 172.515 65.147,155.556 73.776,154.125 75.032 C 151.619 77.232,151.775 75.048,151.563 111.063 L 151.367 144.196 149.374 141.141 C 145.341 134.961,144.461 133.040,140.639 122.070 C 132.665 99.184,124.419 92.712,96.094 87.107 C 73.239 82.585,62.987 78.247,41.480 63.999 C 28.314 55.277,24.363 53.663,20.486 55.424 M27.660 60.968 C 29.016 61.585,31.564 63.086,33.324 64.303 C 56.904 80.608,70.231 86.605,93.555 91.406 C 122.314 97.326,127.790 101.400,135.528 122.632 C 139.676 134.014,142.689 140.314,145.908 144.337 C 147.507 146.335,148.825 148.495,148.827 149.121 C 148.828 149.493,147.213 149.609,142.051 149.609 L 135.273 149.609 133.331 147.363 C 129.598 143.049,125.799 136.769,121.187 127.291 C 114.914 114.401,108.193 109.943,91.481 107.586 C 66.144 104.013,43.662 96.339,32.633 87.499 C 21.856 78.861,16.412 65.008,21.960 60.340 C 23.300 59.213,23.968 59.286,27.660 60.968 M379.030 61.315 C 380.880 63.513,380.785 65.837,378.576 72.411 C 375.029 82.966,365.993 90.761,349.609 97.401 C 340.231 101.202,320.442 106.216,309.961 107.446 C 291.356 109.631,285.188 113.980,276.757 130.859 C 274.001 136.377,272.335 139.223,267.324 146.973 L 265.619 149.609 257.809 149.609 C 253.514 149.609,250.000 149.507,250.000 149.382 C 250.000 149.257,250.595 148.422,251.322 147.527 C 256.075 141.672,260.389 133.635,263.832 124.219 C 268.398 111.733,272.385 105.398,278.368 101.120 C 284.886 96.460,286.003 96.092,311.426 90.240 C 329.350 86.114,344.067 79.570,358.527 69.296 C 369.588 61.438,376.779 58.639,379.030 61.315 M194.233 69.701 C 197.399 70.444,204.147 72.297,209.229 73.818 C 219.760 76.971,218.900 77.038,219.082 73.045 L 219.221 69.981 222.097 69.711 C 224.501 69.486,238.210 70.064,238.479 70.401 C 238.790 70.793,238.985 110.062,238.678 110.547 C 238.275 111.183,221.818 111.401,221.195 110.778 C 221.032 110.615,220.811 106.999,220.703 102.742 C 220.481 93.925,220.457 93.860,217.187 92.773 C 214.057 91.734,211.322 91.464,207.617 91.830 C 198.221 92.758,183.275 94.141,182.633 94.141 C 181.895 94.141,181.928 80.477,182.688 70.944 L 182.934 67.864 185.705 68.107 C 187.229 68.240,191.067 68.957,194.233 69.701 M35.520 95.293 C 49.214 102.865,69.939 109.095,93.359 112.679 C 102.743 114.114,108.422 117.054,112.631 122.653 C 114.866 125.627,114.879 125.920,112.793 126.547 C 96.703 131.378,60.462 127.151,43.712 118.490 C 31.727 112.293,23.280 100.893,26.318 95.018 C 27.956 91.850,29.371 91.892,35.520 95.293 M373.361 94.141 C 377.399 100.099,367.672 113.179,354.488 119.521 C 338.909 127.016,307.062 130.876,289.881 127.352 C 285.129 126.378,285.064 126.294,286.924 123.593 C 290.957 117.738,297.474 114.240,307.227 112.696 C 332.038 108.769,352.112 102.460,366.291 94.131 C 369.823 92.057,371.951 92.060,373.361 94.141 M214.727 97.967 C 215.053 98.174,215.232 100.239,215.313 104.747 L 215.430 111.228 212.345 111.466 C 208.619 111.753,208.891 111.491,209.263 114.428 L 209.570 116.849 214.453 116.965 C 217.139 117.029,223.467 117.108,228.516 117.140 C 233.564 117.173,237.935 117.351,238.228 117.537 C 238.752 117.869,238.849 120.108,238.715 128.809 L 238.672 131.641 211.376 131.641 C 179.202 131.641,183.008 132.579,183.008 124.647 L 183.008 118.945 187.807 118.836 C 193.252 118.711,193.534 118.517,193.281 115.062 L 193.164 113.477 188.429 113.367 C 182.152 113.222,181.649 112.533,181.643 104.079 C 181.639 99.027,182.371 98.782,199.414 98.132 C 212.030 97.650,214.193 97.627,214.727 97.967 M360.593 124.954 C 364.923 129.284,358.399 137.526,346.760 142.430 C 335.771 147.060,311.821 148.242,295.117 144.978 C 288.711 143.727,278.505 140.145,278.520 139.154 C 278.541 137.729,281.198 131.570,282.007 131.070 C 282.217 130.940,285.164 131.193,288.557 131.632 C 309.502 134.340,328.237 132.310,354.688 124.464 C 358.970 123.194,358.820 123.181,360.593 124.954 M48.012 125.160 C 61.272 129.063,70.791 131.125,79.790 132.043 C 86.153 132.692,106.841 132.325,111.133 131.486 C 117.432 130.254,118.180 130.487,120.073 134.264 C 121.281 136.676,121.358 137.263,120.300 135.992 C 119.234 134.713,119.342 135.428,120.498 137.305 C 121.778 139.383,121.870 139.221,118.652 140.550 C 100.845 147.903,67.955 148.768,52.734 142.283 C 42.598 137.965,36.243 130.970,37.898 125.955 C 38.750 123.373,41.266 123.175,48.012 125.160 M238.423 137.109 C 238.964 137.627,239.554 153.301,239.194 157.590 C 238.798 162.286,238.804 162.282,232.292 161.913 C 227.743 161.655,226.607 161.333,225.824 160.080 C 225.409 159.414,224.273 151.885,224.231 149.512 C 224.221 148.946,223.852 148.828,222.088 148.828 C 219.604 148.828,219.869 148.162,219.112 156.294 L 218.654 161.222 215.713 161.470 C 210.747 161.890,206.784 161.776,206.305 161.199 C 206.068 160.914,205.665 158.103,205.409 154.954 L 204.943 149.229 203.546 148.967 C 200.466 148.389,199.421 148.549,199.338 149.609 C 199.296 150.146,199.054 153.171,198.800 156.331 L 198.340 162.076 196.557 162.343 C 194.016 162.725,186.142 162.205,184.582 161.554 C 182.557 160.707,182.525 160.472,182.725 148.151 L 182.912 136.731 193.311 136.595 C 208.444 136.397,238.030 136.734,238.423 137.109 M278.784 145.044 C 288.210 149.763,303.514 151.694,324.077 150.758 C 336.732 150.183,336.722 150.181,337.867 153.420 C 340.460 160.758,323.039 168.375,305.751 167.463 C 300.982 167.211,300.802 167.109,300.779 164.648 C 300.744 160.957,298.906 158.989,293.879 157.261 C 292.411 156.756,288.926 155.426,286.133 154.304 C 279.740 151.736,275.185 150.166,273.103 149.814 C 272.213 149.664,271.484 149.485,271.484 149.417 C 271.484 149.202,274.269 144.356,274.673 143.869 C 275.106 143.347,275.779 143.539,278.784 145.044 M127.685 146.429 C 128.991 147.902,129.947 149.220,129.808 149.358 C 129.670 149.496,124.372 149.609,118.034 149.609 C 111.696 149.609,106.589 149.531,106.684 149.435 C 106.780 149.340,108.208 148.983,109.857 148.642 C 113.350 147.920,120.680 145.553,122.656 144.508 C 124.748 143.402,125.131 143.548,127.685 146.429 M222.363 148.316 C 222.739 148.414,223.354 148.414,223.730 148.316 C 224.106 148.218,223.799 148.138,223.047 148.138 C 222.295 148.138,221.987 148.218,222.363 148.316 M86.056 150.935 C 94.812 150.897,95.719 150.953,95.486 151.521 C 94.750 153.310,94.560 155.044,94.453 160.938 L 94.336 167.383 89.875 167.308 C 78.618 167.119,68.942 164.217,64.390 159.665 C 61.042 156.318,60.884 151.968,64.063 150.638 C 64.385 150.503,67.285 150.524,70.508 150.685 C 73.730 150.845,80.727 150.958,86.056 150.935 M135.520 171.387 L 135.449 178.711 136.963 178.981 C 142.296 179.934,142.188 180.098,142.188 171.061 L 142.188 164.061 149.200 164.173 C 153.056 164.234,156.313 164.386,156.437 164.510 C 156.888 164.961,156.722 210.837,156.266 211.689 C 155.805 212.550,147.102 212.876,143.164 212.178 L 141.602 211.902 141.406 203.705 L 141.211 195.508 138.042 195.395 L 134.873 195.283 134.670 203.012 C 134.558 207.264,134.330 211.074,134.163 211.479 C 133.637 212.759,120.678 211.861,119.264 210.447 C 118.662 209.845,119.055 165.540,119.671 164.544 C 119.890 164.188,122.014 164.063,127.779 164.063 L 135.591 164.063 135.520 171.387 M188.680 165.234 C 189.176 166.019,189.156 168.483,188.613 173.494 L 188.163 177.652 181.614 177.596 C 174.102 177.531,174.598 177.341,174.494 180.324 L 174.414 182.617 177.132 182.478 C 178.627 182.402,181.659 182.463,183.870 182.614 L 187.891 182.888 187.891 185.569 C 187.891 187.043,187.693 189.575,187.453 191.195 L 187.014 194.141 180.445 194.141 L 173.876 194.141 173.635 195.996 C 173.503 197.017,173.313 198.247,173.213 198.730 L 173.032 199.609 180.039 199.609 C 183.892 199.609,187.291 199.703,187.590 199.818 C 188.444 200.146,186.662 209.406,185.418 211.108 C 184.044 212.987,163.819 212.932,162.153 211.044 L 161.220 209.987 161.524 198.841 C 161.690 192.711,161.934 182.605,162.066 176.384 L 162.305 165.073 163.281 164.787 C 165.322 164.190,188.276 164.594,188.680 165.234 M295.864 165.527 C 296.391 168.063,296.298 204.066,295.759 206.164 C 295.092 208.758,293.567 210.328,290.897 211.168 C 287.350 212.283,260.605 212.721,258.938 211.690 C 258.402 211.359,258.851 207.457,260.032 202.188 L 260.636 199.493 265.767 199.831 C 275.089 200.446,277.243 200.321,279.619 199.025 C 284.234 196.509,284.556 192.645,280.038 193.999 C 274.743 195.586,268.006 194.401,266.146 191.555 C 265.369 190.364,265.202 174.368,265.902 168.164 L 266.211 165.430 270.898 165.234 C 273.477 165.127,276.245 165.094,277.051 165.160 L 278.516 165.282 278.538 172.192 C 278.567 181.259,279.510 183.759,282.110 181.656 C 282.984 180.949,283.011 180.725,283.135 173.082 C 283.205 168.766,283.293 165.214,283.330 165.190 C 283.368 165.165,285.684 165.019,288.477 164.865 C 291.270 164.711,294.024 164.556,294.598 164.519 C 295.445 164.466,295.683 164.655,295.864 165.527 M262.333 165.752 C 262.442 166.037,261.723 170.563,260.736 175.811 C 259.749 181.058,258.344 188.604,257.615 192.578 C 256.232 200.121,254.528 208.506,253.859 211.066 L 253.469 212.562 244.331 212.434 C 233.578 212.282,234.738 212.929,232.826 206.010 C 232.001 203.027,230.686 198.301,229.902 195.508 C 226.953 184.992,223.124 170.802,222.543 168.238 L 221.941 165.577 229.170 165.699 C 238.509 165.856,237.340 164.118,240.645 182.755 C 242.100 190.961,242.249 191.406,243.545 191.406 C 244.335 191.406,244.531 191.213,244.531 190.435 C 244.531 188.686,247.270 168.978,247.694 167.677 C 248.425 165.432,249.094 165.234,255.959 165.234 C 260.725 165.234,262.179 165.352,262.333 165.752 M213.252 165.881 C 216.356 166.101,216.935 166.254,217.410 166.980 C 218.030 167.925,225.535 197.263,227.360 205.874 C 228.010 208.937,228.627 211.582,228.731 211.751 C 228.951 212.107,222.501 212.356,217.312 212.193 L 213.758 212.081 213.356 210.435 C 213.135 209.530,212.740 207.427,212.478 205.762 L 212.002 202.734 207.982 202.734 L 203.962 202.734 203.552 204.785 C 203.171 206.690,202.353 211.666,202.347 212.109 C 202.346 212.217,199.268 212.253,195.508 212.190 C 190.498 212.105,188.672 211.949,188.672 211.604 C 188.672 211.345,189.443 207.881,190.385 203.906 C 191.327 199.932,192.481 194.658,192.950 192.188 C 195.554 178.451,198.018 168.859,199.412 167.030 C 200.393 165.742,205.419 165.325,213.252 165.881 M94.277 174.512 C 94.648 178.439,94.583 185.938,94.178 185.938 C 93.321 185.938,88.138 183.974,86.571 183.057 C 79.557 178.946,82.023 171.877,90.471 171.876 L 94.028 171.875 94.277 174.512 M315.332 172.649 C 321.096 177.183,314.454 184.751,303.866 185.713 L 301.287 185.947 301.034 182.954 C 300.895 181.307,300.781 178.141,300.781 175.918 L 300.781 171.875 307.565 171.875 C 313.735 171.875,314.437 171.945,315.332 172.649 M206.846 181.543 C 206.694 182.993,206.234 185.825,205.824 187.836 C 204.917 192.281,204.896 193.206,205.696 193.513 C 206.918 193.982,212.110 193.778,212.106 193.262 C 212.104 192.993,211.844 190.840,211.528 188.477 C 211.212 186.113,210.949 183.165,210.945 181.924 C 210.931 177.735,207.280 177.396,206.846 181.543 M303.711 186.551 C 301.560 187.149,300.918 187.233,301.282 186.869 C 301.591 186.560,303.867 186.019,304.883 186.012 C 305.313 186.010,304.785 186.252,303.711 186.551 M221.875 217.232 C 235.948 219.078,240.137 223.664,239.766 236.821 C 239.483 246.854,239.900 246.536,226.758 246.745 C 217.701 246.888,217.415 246.870,218.343 246.201 C 223.083 242.781,225.064 237.986,223.227 234.375 C 219.170 226.398,198.043 229.597,199.384 237.985 C 199.843 240.857,201.809 243.732,204.883 246.026 L 206.055 246.900 196.484 246.781 C 183.280 246.616,183.099 246.504,182.869 238.401 C 182.446 223.524,187.448 218.372,203.844 216.791 C 207.694 216.420,217.513 216.660,221.875 217.232 M227.292 251.036 C 240.382 251.357,239.430 250.799,239.895 258.426 C 240.987 276.355,239.181 281.095,230.461 283.185 C 221.393 285.358,212.568 283.930,210.344 279.928 C 209.967 279.251,209.861 279.247,208.432 279.843 C 200.613 283.110,184.510 287.384,183.314 286.510 C 182.536 285.941,182.420 274.119,183.178 272.703 C 183.555 271.998,194.086 269.136,198.569 268.520 L 200.459 268.260 200.199 266.845 C 199.828 264.824,200.171 264.910,191.309 264.609 L 183.203 264.333 183.203 257.580 L 183.203 250.826 184.863 250.648 C 186.816 250.438,212.541 250.673,227.292 251.036 M221.289 264.468 C 220.000 264.628,217.759 264.778,216.309 264.801 L 213.672 264.844 213.672 266.957 C 213.672 271.060,220.323 273.271,224.137 270.436 C 225.723 269.257,225.852 263.984,224.292 264.120 C 223.930 264.152,222.578 264.308,221.289 264.468 M223.242 288.304 C 226.752 288.817,229.449 289.439,230.772 290.042 C 246.270 297.107,244.709 318.446,228.320 323.558 C 213.915 328.051,192.645 325.730,186.918 319.040 C 179.820 310.748,182.065 296.343,191.261 291.175 C 197.064 287.914,211.630 286.606,223.242 288.304 M206.296 301.032 C 199.603 302.349,196.403 306.507,199.371 310.033 C 203.894 315.409,224.701 313.304,225.642 307.376 C 226.489 302.048,216.981 298.931,206.296 301.032 M199.524 327.502 C 206.229 328.123,206.123 328.047,203.203 330.149 C 196.899 334.687,197.148 343.056,203.556 342.031 C 206.294 341.593,207.873 340.452,212.294 335.718 C 218.880 328.664,228.010 326.009,235.260 329.038 C 239.388 330.763,241.627 342.977,238.852 348.633 L 238.086 350.195 230.566 350.255 C 222.618 350.319,222.469 350.286,224.061 348.799 C 226.125 346.870,226.558 344.548,225.531 340.918 C 224.871 338.582,221.359 340.377,216.448 345.560 C 208.128 354.339,200.328 356.370,191.119 352.156 C 185.422 349.549,184.180 347.415,184.180 340.234 C 184.180 327.614,185.841 326.235,199.524 327.502 M230.755 354.297 C 237.762 355.208,240.977 359.443,241.318 368.217 C 241.586 375.099,240.548 377.724,237.329 378.302 C 234.944 378.731,223.556 379.224,222.310 378.953 L 221.198 378.711 223.880 374.665 C 226.730 370.366,227.538 367.255,225.962 366.650 C 224.309 366.016,219.442 368.764,216.911 371.762 C 210.547 379.302,208.791 380.295,200.083 381.285 C 186.425 382.836,179.632 374.571,183.360 360.938 C 184.605 356.385,185.030 356.202,193.177 356.696 C 201.281 357.187,201.138 357.123,199.431 359.521 C 195.149 365.537,198.082 371.721,203.827 368.791 C 205.581 367.895,208.447 364.909,211.408 360.892 C 215.934 354.750,220.985 353.028,230.755 354.297 " class="svgShape color5d13e7-1 selectable"/><path fill="#ffffff00" fill-rule="evenodd" d="M0.000 200.000 L 0.000 400.000 200.000 400.000 L 400.000 400.000 400.000 200.000 L 400.000 0.000 200.000 0.000 L 0.000 0.000 0.000 200.000 M210.566 17.206 C 234.525 19.070,250.862 25.201,254.751 33.789 C 261.085 47.779,243.652 58.437,210.918 60.589 C 174.369 62.992,145.313 53.560,145.313 39.295 C 145.313 24.854,175.879 14.507,210.566 17.206 M191.406 31.884 C 179.460 32.740,169.347 34.944,164.551 37.738 C 162.402 38.989,162.443 39.145,165.244 40.403 C 175.624 45.061,198.389 47.172,214.578 44.978 C 217.976 44.518,221.492 44.138,222.390 44.135 C 223.289 44.131,225.078 43.860,226.367 43.531 C 227.656 43.203,229.414 42.764,230.273 42.557 C 233.207 41.849,238.281 39.734,238.281 39.218 C 238.281 34.916,210.268 30.532,191.406 31.884 M29.620 56.633 C 31.483 57.526,37.490 61.216,42.969 64.832 C 63.463 78.360,73.566 82.517,97.552 87.296 C 125.384 92.840,132.766 99.121,141.751 124.901 C 144.455 132.659,150.095 143.750,151.336 143.750 C 151.399 143.750,151.474 129.070,151.502 111.128 C 151.558 74.730,151.402 76.796,154.256 74.697 C 156.665 72.925,176.527 63.344,178.747 62.883 C 182.987 62.003,190.081 63.046,202.539 66.381 C 214.338 69.540,213.586 69.426,213.915 68.094 C 214.792 64.532,215.691 64.307,228.138 64.531 C 243.507 64.808,243.546 64.841,243.568 77.734 C 243.576 82.139,243.723 91.191,243.895 97.852 C 244.155 107.907,244.113 110.263,243.649 111.741 C 243.247 113.023,243.201 113.787,243.484 114.475 C 244.033 115.808,244.322 132.289,243.828 134.077 C 243.598 134.911,243.565 136.126,243.750 136.992 C 243.924 137.808,244.190 140.560,244.340 143.107 L 244.613 147.738 246.318 146.065 C 250.423 142.036,255.407 132.863,259.594 121.631 C 268.242 98.428,275.819 92.585,304.841 86.736 C 326.509 82.369,336.503 78.106,357.000 64.488 C 372.290 54.330,377.706 52.915,382.273 57.885 C 387.569 63.650,384.139 78.541,375.640 86.682 L 374.251 88.012 376.155 90.095 C 379.652 93.921,380.059 97.426,377.715 103.505 C 375.389 109.537,369.602 116.468,364.131 119.774 C 364.061 119.816,364.446 120.525,364.987 121.351 C 370.917 130.403,361.731 142.744,344.717 148.583 C 342.940 149.193,342.037 149.701,342.120 150.044 C 344.622 160.361,337.732 168.398,323.725 171.503 L 321.473 172.002 321.772 173.403 C 323.705 182.473,317.213 189.068,304.047 191.410 L 301.258 191.907 301.066 199.957 C 300.851 208.944,300.580 210.294,298.533 212.559 C 294.915 216.564,290.490 217.578,276.626 217.579 C 271.112 217.579,260.416 217.695,252.855 217.837 L 239.109 218.094 240.464 219.677 C 243.836 223.617,244.737 227.292,244.690 236.914 C 244.658 243.429,244.555 244.586,243.849 246.387 L 243.044 248.437 243.875 250.488 C 244.635 252.363,244.718 253.419,244.843 262.792 C 245.044 277.895,243.906 282.101,238.573 285.964 L 237.080 287.046 238.881 288.542 C 248.562 296.586,249.163 312.464,240.152 322.096 L 237.879 324.526 239.231 325.323 C 244.743 328.575,247.121 346.371,242.981 353.388 C 242.353 354.451,242.325 354.706,242.792 355.093 C 246.810 358.428,247.687 374.228,244.163 379.784 C 240.882 384.959,219.720 386.363,216.902 381.593 C 216.107 380.247,215.962 380.225,215.002 381.307 C 209.952 386.997,193.993 388.572,185.447 384.225 C 183.174 383.068,182.655 382.940,181.707 383.298 C 177.987 384.702,177.133 383.485,152.212 341.285 L 150.323 338.086 150.560 290.430 C 150.690 264.219,150.897 237.120,151.020 230.211 L 151.243 217.648 144.860 217.447 C 141.349 217.337,134.609 217.175,129.883 217.088 C 117.325 216.856,117.146 216.787,106.009 207.813 C 94.927 198.884,95.304 199.327,94.960 194.801 L 94.727 191.726 90.820 190.276 C 83.914 187.711,80.297 185.126,78.542 181.500 C 77.620 179.595,77.421 174.944,78.188 173.259 C 78.768 171.986,78.885 172.066,74.781 170.900 C 62.364 167.372,54.932 158.920,57.617 151.382 C 57.920 150.531,58.132 149.821,58.088 149.803 C 58.044 149.786,56.756 149.381,55.225 148.903 C 39.117 143.871,29.642 131.531,34.473 121.875 L 35.548 119.727 34.473 118.806 C 27.924 113.199,25.142 110.074,23.119 106.055 C 19.707 99.274,19.959 93.725,23.880 89.258 L 25.099 87.870 23.345 85.634 C 15.732 75.931,12.890 66.147,15.873 59.912 C 16.476 58.650,16.927 57.472,16.874 57.295 C 16.821 57.118,16.938 57.072,17.134 57.193 C 17.329 57.314,17.729 57.124,18.022 56.770 C 20.138 54.213,24.464 54.162,29.620 56.633 M15.712 59.350 C 15.350 59.980,14.983 60.425,14.896 60.339 C 14.725 60.167,15.926 58.203,16.202 58.203 C 16.294 58.203,16.074 58.719,15.712 59.350 M21.356 83.507 C 24.833 88.079,24.919 88.207,24.037 87.500 C 22.293 86.102,16.385 77.145,16.415 75.944 C 16.420 75.747,17.021 76.695,17.752 78.050 C 18.482 79.404,20.104 81.860,21.356 83.507 " class="svgShape colorf6f6f6-2 selectable"/><path fill="#ffffff00" fill-rule="evenodd" d="M190.234 21.738 C 174.919 23.184,166.558 25.103,158.955 28.918 C 147.163 34.834,146.742 43.218,157.964 48.625 C 178.579 58.558,223.354 58.712,243.655 48.921 C 256.119 42.910,253.106 31.799,237.600 26.593 C 225.910 22.669,204.083 20.432,190.234 21.738 M210.547 27.559 C 229.941 28.553,243.290 33.264,244.341 39.485 C 244.690 41.548,244.025 42.207,239.258 44.525 C 215.613 56.018,146.961 49.431,158.402 36.767 C 163.586 31.029,185.404 26.357,203.125 27.191 C 204.736 27.267,208.076 27.432,210.547 27.559 M220.215 44.416 C 220.698 44.509,221.489 44.509,221.973 44.416 C 222.456 44.323,222.061 44.247,221.094 44.247 C 220.127 44.247,219.731 44.323,220.215 44.416 M216.704 44.808 C 217.190 44.901,217.893 44.897,218.266 44.800 C 218.640 44.702,218.242 44.625,217.383 44.630 C 216.523 44.634,216.218 44.714,216.704 44.808 M196.197 45.983 C 196.791 46.073,197.669 46.071,198.150 45.978 C 198.630 45.885,198.145 45.812,197.070 45.815 C 195.996 45.818,195.603 45.894,196.197 45.983 M15.386 59.192 C 15.029 59.736,14.850 60.292,14.986 60.429 C 15.123 60.565,15.234 60.462,15.234 60.198 C 15.234 59.935,15.408 59.827,15.621 59.958 C 15.850 60.100,15.902 59.925,15.749 59.527 C 15.595 59.123,15.648 58.953,15.884 59.098 C 16.100 59.232,16.276 59.085,16.276 58.772 C 16.276 57.985,16.132 58.052,15.386 59.192 M21.751 60.469 C 16.950 65.773,22.277 79.067,32.483 87.251 C 42.673 95.421,63.500 103.007,85.156 106.436 C 88.701 106.997,93.756 107.795,96.389 108.209 C 109.211 110.225,115.129 115.136,122.657 130.007 C 126.179 136.966,131.063 144.800,133.709 147.736 L 135.014 149.184 141.237 149.219 C 144.660 149.238,147.752 149.246,148.108 149.236 C 149.107 149.209,148.644 148.183,146.072 144.727 C 142.861 140.410,139.615 133.892,136.541 125.586 C 132.397 114.387,131.577 112.516,129.245 108.951 C 123.270 99.814,115.658 96.018,94.860 91.805 C 70.621 86.895,57.838 81.167,32.464 63.847 C 26.996 60.115,23.164 58.906,21.751 60.469 M373.221 61.076 C 369.587 62.427,364.324 65.388,359.404 68.849 C 342.486 80.749,329.442 86.335,306.715 91.413 C 276.849 98.086,272.371 101.550,263.804 124.609 C 260.233 134.222,254.435 144.728,250.566 148.597 C 249.997 149.166,250.627 149.219,257.915 149.219 L 265.885 149.219 270.281 142.134 C 272.699 138.237,275.856 132.656,277.295 129.732 C 284.701 114.686,291.652 109.671,307.980 107.593 C 343.427 103.081,369.357 91.191,377.090 75.901 C 382.423 65.356,380.592 58.336,373.221 61.076 M243.502 74.805 C 243.503 76.953,243.569 77.782,243.648 76.647 C 243.727 75.512,243.726 73.754,243.646 72.741 C 243.566 71.728,243.501 72.656,243.502 74.805 M16.420 75.944 C 16.376 77.088,22.554 86.512,23.900 87.352 C 24.841 87.940,25.490 87.895,24.978 87.278 C 24.726 86.975,24.383 86.812,24.215 86.916 C 23.925 87.096,23.368 86.186,23.258 85.352 C 23.230 85.137,22.995 85.005,22.736 85.059 C 22.477 85.112,22.244 84.980,22.217 84.766 C 22.190 84.551,22.138 84.155,22.101 83.887 C 22.065 83.618,21.823 83.442,21.564 83.496 C 21.139 83.584,20.925 83.100,21.047 82.324 C 21.073 82.163,20.874 82.075,20.605 82.129 C 20.337 82.183,20.140 81.926,20.169 81.558 C 20.197 81.191,20.022 80.927,19.778 80.972 C 19.535 81.018,19.360 80.749,19.389 80.375 C 19.419 80.002,19.296 79.787,19.116 79.898 C 18.657 80.181,17.874 78.595,18.206 78.057 C 18.387 77.765,18.304 77.723,17.963 77.933 C 17.575 78.173,17.516 78.069,17.728 77.517 C 17.883 77.113,17.878 76.914,17.717 77.075 C 17.555 77.236,17.201 76.967,16.929 76.477 C 16.657 75.987,16.428 75.747,16.420 75.944 M243.466 86.328 C 243.466 87.295,243.542 87.690,243.635 87.207 C 243.728 86.724,243.728 85.933,243.635 85.449 C 243.542 84.966,243.466 85.361,243.466 86.328 M28.079 93.165 C 22.536 96.177,28.280 108.503,38.372 115.253 C 54.484 126.030,90.476 131.675,111.429 126.711 C 114.684 125.940,114.775 125.799,113.338 123.734 C 108.525 116.817,103.780 114.519,89.356 112.116 C 67.187 108.422,48.800 102.685,34.961 95.143 C 29.932 92.402,29.638 92.318,28.079 93.165 M365.430 94.764 C 350.601 103.028,332.980 108.512,307.813 112.697 C 296.588 114.563,289.379 118.718,285.982 125.280 C 284.977 127.220,292.483 128.326,306.445 128.298 C 339.518 128.231,364.481 118.886,372.046 103.739 C 376.752 94.318,373.688 90.161,365.430 94.764 M151.321 119.727 C 151.322 122.305,151.385 123.309,151.461 121.957 C 151.538 120.606,151.537 118.497,151.460 117.270 C 151.383 116.043,151.320 117.148,151.321 119.727 M38.849 124.787 C 33.351 130.286,46.372 141.794,61.604 144.899 C 79.224 148.489,113.466 145.252,121.404 139.245 C 121.468 139.196,120.985 138.249,120.330 137.140 C 119.016 134.910,118.692 133.495,119.922 135.352 C 121.055 137.062,120.875 136.256,119.529 133.590 C 118.059 130.677,117.526 130.520,112.121 131.405 C 92.797 134.568,72.418 132.591,47.731 125.158 C 42.328 123.531,40.194 123.442,38.849 124.787 M354.297 124.652 C 329.735 132.047,310.825 134.267,291.211 132.057 C 287.129 131.597,283.364 131.183,282.845 131.138 C 281.007 130.976,277.922 138.309,279.321 139.513 C 283.736 143.313,300.407 146.606,315.430 146.646 C 336.072 146.701,349.590 143.259,357.179 136.016 C 364.728 128.811,363.008 122.029,354.297 124.652 M274.493 144.237 C 274.204 144.721,273.419 146.036,272.748 147.159 L 271.528 149.200 273.166 149.647 C 276.950 150.677,279.051 151.412,285.352 153.906 C 289.004 155.352,293.190 156.929,294.655 157.410 C 298.034 158.519,300.210 160.464,300.574 162.699 C 300.714 163.556,300.956 164.873,301.111 165.625 L 301.395 166.992 304.311 167.285 C 322.782 169.139,343.096 159.442,336.913 151.722 L 336.003 150.586 329.428 150.781 C 301.131 151.622,288.657 150.112,277.256 144.465 L 275.019 143.358 274.493 144.237 M123.613 144.089 C 122.513 145.095,112.518 148.346,108.456 149.020 C 107.629 149.157,107.013 149.302,107.089 149.342 C 107.165 149.381,112.324 149.326,118.555 149.219 L 129.883 149.023 127.379 146.387 C 124.902 143.777,124.334 143.430,123.613 144.089 M64.133 150.810 C 62.549 151.296,61.603 153.199,61.975 155.151 C 63.259 161.899,75.495 167.188,89.826 167.188 L 94.028 167.188 94.277 164.551 C 94.414 163.101,94.527 160.019,94.528 157.702 C 94.530 155.064,94.728 153.021,95.057 152.234 L 95.582 150.977 85.389 150.977 C 79.782 150.977,72.998 150.850,70.313 150.694 C 67.268 150.519,64.941 150.562,64.133 150.810 M85.965 172.385 C 83.145 173.367,81.820 178.448,83.778 180.775 C 85.330 182.619,92.238 185.862,94.032 185.588 C 94.430 185.527,94.482 183.366,94.236 177.051 L 94.035 171.875 90.670 171.897 C 88.819 171.909,86.702 172.129,85.965 172.385 M301.091 178.937 L 301.206 186.000 302.811 185.729 C 303.694 185.580,305.008 185.403,305.732 185.336 C 311.668 184.784,317.188 180.651,317.188 176.758 C 317.188 172.681,315.562 171.875,307.344 171.875 L 300.977 171.874 301.091 178.937 M246.777 217.854 C 247.261 217.947,248.052 217.947,248.535 217.854 C 249.019 217.761,248.623 217.685,247.656 217.685 C 246.689 217.685,246.294 217.761,246.777 217.854 M150.913 232.031 C 150.913 233.643,150.982 234.302,151.066 233.496 C 151.150 232.690,151.150 231.372,151.066 230.566 C 150.982 229.761,150.913 230.420,150.913 232.031 M150.906 238.281 C 150.906 239.678,150.977 240.249,151.064 239.551 C 151.150 238.853,151.150 237.710,151.064 237.012 C 150.977 236.313,150.906 236.885,150.906 238.281 M150.522 291.016 C 150.522 292.627,150.591 293.286,150.675 292.480 C 150.759 291.675,150.759 290.356,150.675 289.551 C 150.591 288.745,150.522 289.404,150.522 291.016 " class="svgShape colorbdf2d5-3 selectable"/><path fill="#ffffff00" fill-rule="evenodd" d="M200.688 27.229 C 201.174 27.323,201.877 27.319,202.251 27.222 C 202.624 27.124,202.227 27.047,201.367 27.052 C 200.508 27.056,200.202 27.136,200.688 27.229 M244.194 40.254 C 244.165 40.802,244.009 41.418,243.848 41.624 C 243.687 41.830,243.790 41.799,244.077 41.557 C 244.364 41.314,244.520 40.698,244.423 40.187 C 244.249 39.267,244.246 39.268,244.194 40.254 M211.426 50.269 C 211.802 50.368,212.417 50.368,212.793 50.269 C 213.169 50.171,212.861 50.091,212.109 50.091 C 211.357 50.091,211.050 50.171,211.426 50.269 M199.902 50.677 C 200.815 50.759,202.310 50.759,203.223 50.677 C 204.136 50.594,203.389 50.527,201.563 50.527 C 199.736 50.527,198.989 50.594,199.902 50.677 M192.485 56.136 C 192.971 56.229,193.674 56.226,194.048 56.128 C 194.421 56.030,194.023 55.954,193.164 55.958 C 192.305 55.962,191.999 56.042,192.485 56.136 M243.867 100.391 C 243.867 101.572,243.940 102.056,244.030 101.465 C 244.119 100.874,244.119 99.907,244.030 99.316 C 243.940 98.726,243.867 99.209,243.867 100.391 M243.913 125.977 C 243.913 130.059,243.971 131.675,244.041 129.570 C 244.112 127.464,244.112 124.124,244.041 122.148 C 243.970 120.172,243.912 121.895,243.913 125.977 M303.237 128.805 C 304.480 128.882,306.414 128.882,307.534 128.803 C 308.654 128.724,307.637 128.661,305.273 128.662 C 302.910 128.663,301.994 128.727,303.237 128.805 M88.362 132.711 C 89.803 132.786,92.264 132.787,93.831 132.712 C 95.398 132.638,94.219 132.577,91.211 132.576 C 88.203 132.575,86.921 132.636,88.362 132.711 M297.168 132.698 C 297.651 132.791,298.442 132.791,298.926 132.698 C 299.409 132.604,299.014 132.528,298.047 132.528 C 297.080 132.528,296.685 132.604,297.168 132.698 M38.672 139.185 C 38.672 139.252,39.243 139.823,39.941 140.454 L 41.211 141.602 40.064 140.332 C 38.994 139.149,38.672 138.883,38.672 139.185 M126.172 145.117 C 126.901 145.869,127.585 146.484,127.692 146.484 C 127.800 146.484,127.291 145.869,126.563 145.117 C 125.834 144.365,125.149 143.750,125.042 143.750 C 124.935 143.750,125.443 144.365,126.172 145.117 M244.239 146.289 C 244.243 147.148,244.323 147.454,244.417 146.968 C 244.510 146.482,244.507 145.779,244.409 145.406 C 244.311 145.032,244.235 145.430,244.239 146.289 M70.605 146.369 C 71.089 146.463,71.880 146.463,72.363 146.369 C 72.847 146.276,72.451 146.200,71.484 146.200 C 70.518 146.200,70.122 146.276,70.605 146.369 M129.455 148.768 C 129.662 149.104,127.058 149.242,119.261 149.310 L 108.789 149.401 119.114 149.512 C 128.680 149.614,130.962 149.421,129.661 148.617 C 129.349 148.423,129.275 148.477,129.455 148.768 M138.202 149.510 C 139.985 149.582,142.797 149.582,144.452 149.509 C 146.107 149.436,144.648 149.376,141.211 149.377 C 137.773 149.377,136.419 149.437,138.202 149.510 M253.809 149.510 C 256.011 149.580,259.614 149.580,261.816 149.510 C 264.019 149.440,262.217 149.384,257.813 149.384 C 253.408 149.384,251.606 149.440,253.809 149.510 M327.832 150.660 C 328.208 150.758,328.823 150.758,329.199 150.660 C 329.575 150.562,329.268 150.481,328.516 150.481 C 327.764 150.481,327.456 150.562,327.832 150.660 M91.895 151.061 C 92.485 151.151,93.452 151.151,94.043 151.061 C 94.634 150.972,94.150 150.898,92.969 150.898 C 91.787 150.898,91.304 150.972,91.895 151.061 M320.215 151.057 C 320.698 151.150,321.489 151.150,321.973 151.057 C 322.456 150.964,322.061 150.888,321.094 150.888 C 320.127 150.888,319.731 150.964,320.215 151.057 M57.130 154.883 C 57.134 155.742,57.214 156.048,57.308 155.562 C 57.401 155.076,57.397 154.373,57.300 153.999 C 57.202 153.626,57.125 154.023,57.130 154.883 M94.231 164.844 C 94.231 165.596,94.312 165.903,94.410 165.527 C 94.508 165.151,94.508 164.536,94.410 164.160 C 94.312 163.784,94.231 164.092,94.231 164.844 M91.211 167.188 L 88.086 167.435 91.090 167.506 C 92.754 167.546,94.202 167.404,94.336 167.188 C 94.469 166.973,94.523 166.829,94.457 166.869 C 94.390 166.908,92.930 167.051,91.211 167.188 M300.933 177.148 C 300.934 179.941,300.996 181.033,301.071 179.574 C 301.147 178.114,301.146 175.829,301.070 174.495 C 300.994 173.162,300.932 174.355,300.933 177.148 M94.231 176.563 C 94.231 177.314,94.312 177.622,94.410 177.246 C 94.508 176.870,94.508 176.255,94.410 175.879 C 94.312 175.503,94.231 175.811,94.231 176.563 M244.048 217.854 C 244.533 217.948,245.237 217.944,245.610 217.847 C 245.983 217.749,245.586 217.672,244.727 217.677 C 243.867 217.681,243.562 217.761,244.048 217.854 M249.907 217.854 C 250.393 217.948,251.096 217.944,251.469 217.847 C 251.843 217.749,251.445 217.672,250.586 217.677 C 249.727 217.681,249.421 217.761,249.907 217.854 M150.934 245.703 C 150.934 248.604,150.996 249.790,151.071 248.340 C 151.146 246.890,151.146 244.517,151.071 243.066 C 150.996 241.616,150.934 242.803,150.934 245.703 M244.652 256.836 C 244.654 258.125,244.727 258.605,244.814 257.903 C 244.901 257.201,244.899 256.146,244.810 255.559 C 244.721 254.972,244.650 255.547,244.652 256.836 M150.508 295.703 C 150.508 296.885,150.581 297.368,150.670 296.777 C 150.760 296.187,150.760 295.220,150.670 294.629 C 150.581 294.038,150.508 294.521,150.508 295.703 M227.056 384.265 C 227.650 384.354,228.529 384.352,229.009 384.259 C 229.490 384.167,229.004 384.093,227.930 384.096 C 226.855 384.099,226.462 384.175,227.056 384.265 " class="svgShape color51318c-4 selectable"/><path fill="#ffffff00" fill-rule="evenodd" d="M182.688 70.944 C 181.928 80.477,181.895 94.141,182.633 94.141 C 183.275 94.141,198.221 92.758,207.617 91.830 C 211.322 91.464,214.057 91.734,217.187 92.773 C 220.457 93.860,220.481 93.925,220.703 102.742 C 220.811 106.999,221.032 110.615,221.195 110.778 C 221.818 111.401,238.275 111.183,238.678 110.547 C 238.985 110.062,238.790 70.793,238.479 70.401 C 238.210 70.064,224.501 69.486,222.097 69.711 L 219.221 69.981 219.082 73.045 C 218.900 77.038,219.760 76.971,209.229 73.818 C 198.462 70.595,189.622 68.449,185.705 68.107 L 182.934 67.864 182.688 70.944 M199.414 98.132 C 182.371 98.782,181.639 99.027,181.643 104.079 C 181.649 112.533,182.152 113.222,188.429 113.367 L 193.164 113.477 193.281 115.062 C 193.534 118.517,193.252 118.711,187.807 118.836 L 183.008 118.945 183.008 124.647 C 183.008 132.579,179.202 131.641,211.376 131.641 L 238.672 131.641 238.715 128.809 C 238.849 120.108,238.752 117.869,238.228 117.537 C 237.935 117.351,233.564 117.173,228.516 117.140 C 223.467 117.108,217.139 117.029,214.453 116.965 L 209.570 116.849 209.263 114.428 C 208.891 111.491,208.619 111.753,212.345 111.466 L 215.430 111.228 215.313 104.747 C 215.232 100.239,215.053 98.174,214.727 97.967 C 214.193 97.627,212.030 97.650,199.414 98.132 M193.311 136.595 L 182.912 136.731 182.725 148.151 C 182.525 160.472,182.557 160.707,184.582 161.554 C 186.142 162.205,194.016 162.725,196.557 162.343 L 198.340 162.076 198.800 156.331 C 199.054 153.171,199.296 150.146,199.338 149.609 C 199.421 148.549,200.466 148.389,203.546 148.967 L 204.943 149.229 205.409 154.954 C 205.665 158.103,206.068 160.914,206.305 161.199 C 206.784 161.776,210.747 161.890,215.713 161.470 L 218.654 161.222 219.112 156.294 C 219.869 148.162,219.604 148.828,222.088 148.828 C 223.852 148.828,224.221 148.946,224.231 149.512 C 224.273 151.885,225.409 159.414,225.824 160.080 C 226.607 161.333,227.743 161.655,232.292 161.913 C 238.804 162.282,238.798 162.286,239.194 157.590 C 239.554 153.301,238.964 137.627,238.423 137.109 C 238.030 136.734,208.444 136.397,193.311 136.595 M223.730 148.316 C 223.354 148.414,222.739 148.414,222.363 148.316 C 221.987 148.218,222.295 148.138,223.047 148.138 C 223.799 148.138,224.106 148.218,223.730 148.316 M119.671 164.544 C 119.055 165.540,118.662 209.845,119.264 210.447 C 120.678 211.861,133.637 212.759,134.163 211.479 C 134.330 211.074,134.558 207.264,134.670 203.012 L 134.873 195.283 138.042 195.395 L 141.211 195.508 141.406 203.705 L 141.602 211.902 143.164 212.178 C 147.102 212.876,155.805 212.550,156.266 211.689 C 156.722 210.837,156.888 164.961,156.437 164.510 C 156.313 164.386,153.056 164.234,149.200 164.173 L 142.188 164.061 142.188 171.061 C 142.188 180.098,142.296 179.934,136.963 178.981 L 135.449 178.711 135.520 171.387 L 135.591 164.063 127.779 164.063 C 122.014 164.063,119.890 164.188,119.671 164.544 M163.281 164.787 L 162.305 165.073 162.066 176.384 C 161.934 182.605,161.690 192.711,161.524 198.841 L 161.220 209.987 162.153 211.044 C 163.819 212.932,184.044 212.987,185.418 211.108 C 186.662 209.406,188.444 200.146,187.590 199.818 C 187.291 199.703,183.892 199.609,180.039 199.609 L 173.032 199.609 173.213 198.730 C 173.313 198.247,173.503 197.017,173.635 195.996 L 173.876 194.141 180.445 194.141 L 187.014 194.141 187.453 191.195 C 187.693 189.575,187.891 187.043,187.891 185.569 L 187.891 182.888 183.870 182.614 C 181.659 182.463,178.627 182.402,177.132 182.478 L 174.414 182.617 174.494 180.324 C 174.598 177.341,174.102 177.531,181.614 177.596 L 188.163 177.652 188.613 173.494 C 189.156 168.483,189.176 166.019,188.680 165.234 C 188.276 164.594,165.322 164.190,163.281 164.787 M288.477 164.865 C 285.684 165.019,283.368 165.165,283.330 165.190 C 283.293 165.214,283.205 168.766,283.135 173.082 C 283.011 180.725,282.984 180.949,282.110 181.656 C 279.510 183.759,278.567 181.259,278.538 172.192 L 278.516 165.282 277.051 165.160 C 276.245 165.094,273.477 165.127,270.898 165.234 L 266.211 165.430 265.902 168.164 C 265.202 174.368,265.369 190.364,266.146 191.555 C 268.006 194.401,274.743 195.586,280.038 193.999 C 284.556 192.645,284.234 196.509,279.619 199.025 C 277.243 200.321,275.089 200.446,265.767 199.831 L 260.636 199.493 260.032 202.188 C 258.851 207.457,258.402 211.359,258.938 211.690 C 260.605 212.721,287.350 212.283,290.897 211.168 C 296.191 209.502,296.315 208.898,296.188 185.352 C 296.075 164.270,296.087 164.425,294.598 164.519 C 294.024 164.556,291.270 164.711,288.477 164.865 M248.945 165.822 C 248.484 166.144,247.921 166.979,247.694 167.677 C 247.270 168.978,244.531 188.686,244.531 190.435 C 244.531 191.213,244.335 191.406,243.545 191.406 C 242.249 191.406,242.100 190.961,240.645 182.755 C 237.340 164.118,238.509 165.856,229.170 165.699 L 221.941 165.577 222.543 168.238 C 223.124 170.802,226.953 184.992,229.902 195.508 C 230.686 198.301,232.001 203.027,232.826 206.010 C 234.738 212.929,233.578 212.282,244.331 212.434 L 253.469 212.562 253.859 211.066 C 254.528 208.506,256.232 200.121,257.615 192.578 C 258.344 188.604,259.749 181.058,260.736 175.811 C 261.723 170.563,262.442 166.037,262.333 165.752 C 262.026 164.953,250.097 165.015,248.945 165.822 M201.454 166.001 C 198.537 166.566,196.783 171.968,192.950 192.188 C 192.481 194.658,191.327 199.932,190.385 203.906 C 189.443 207.881,188.672 211.345,188.672 211.604 C 188.672 211.949,190.498 212.105,195.508 212.190 C 199.268 212.253,202.346 212.217,202.347 212.109 C 202.353 211.666,203.171 206.690,203.552 204.785 L 203.962 202.734 207.982 202.734 L 212.002 202.734 212.478 205.762 C 212.740 207.427,213.135 209.530,213.356 210.435 L 213.758 212.081 217.312 212.193 C 222.501 212.356,228.951 212.107,228.731 211.751 C 228.627 211.582,228.010 208.937,227.360 205.874 C 225.535 197.263,218.030 167.925,217.410 166.980 C 216.624 165.779,205.969 165.126,201.454 166.001 M209.936 179.287 C 210.850 179.635,210.938 179.865,210.945 181.924 C 210.949 183.165,211.212 186.113,211.528 188.477 C 211.844 190.840,212.104 192.993,212.106 193.262 C 212.110 193.778,206.918 193.982,205.696 193.513 C 204.896 193.206,204.917 192.281,205.824 187.836 C 206.234 185.825,206.694 182.993,206.846 181.543 C 207.147 178.667,207.543 178.378,209.936 179.287 M203.844 216.791 C 187.448 218.372,182.446 223.524,182.869 238.401 C 183.099 246.504,183.280 246.616,196.484 246.781 L 206.055 246.900 204.883 246.026 C 194.837 238.527,199.125 229.887,212.891 229.893 C 221.905 229.897,226.057 234.502,222.841 240.931 C 221.541 243.528,220.730 244.479,218.343 246.201 C 217.195 247.029,235.148 246.996,237.188 246.166 C 241.234 244.520,240.881 228.063,236.697 223.310 C 232.270 218.281,217.924 215.434,203.844 216.791 M184.863 250.648 L 183.203 250.826 183.203 257.580 L 183.203 264.333 191.309 264.609 C 200.171 264.910,199.828 264.824,200.199 266.845 L 200.459 268.260 198.569 268.520 C 194.086 269.136,183.555 271.998,183.178 272.703 C 182.420 274.119,182.536 285.941,183.314 286.510 C 184.510 287.384,200.613 283.110,208.432 279.843 C 209.861 279.247,209.967 279.251,210.344 279.928 C 212.568 283.930,221.393 285.358,230.461 283.185 C 239.181 281.095,240.987 276.355,239.895 258.426 C 239.430 250.799,240.382 251.357,227.292 251.036 C 212.541 250.673,186.816 250.438,184.863 250.648 M225.205 265.746 C 225.786 269.622,224.677 271.090,220.933 271.400 C 216.033 271.806,213.672 270.362,213.672 266.957 L 213.672 264.844 216.309 264.801 C 217.759 264.778,220.000 264.628,221.289 264.468 C 222.578 264.308,223.930 264.152,224.292 264.120 C 224.784 264.077,225.016 264.490,225.205 265.746 M204.325 287.955 C 188.606 289.446,182.077 295.904,182.933 309.115 C 183.651 320.193,191.459 325.152,208.984 325.660 C 230.879 326.295,241.468 319.741,241.468 305.555 C 241.468 292.024,228.119 285.699,204.325 287.955 M218.184 300.968 C 223.885 302.059,226.174 304.026,225.642 307.376 C 224.701 313.304,203.894 315.409,199.371 310.033 C 194.422 304.152,205.906 298.619,218.184 300.968 M188.055 327.507 C 184.508 329.052,182.557 342.747,185.235 347.302 C 187.686 351.472,195.036 354.689,200.872 354.146 C 207.046 353.573,210.832 351.486,216.448 345.560 C 221.359 340.377,224.871 338.582,225.531 340.918 C 226.558 344.548,226.125 346.870,224.061 348.799 C 222.469 350.286,222.618 350.319,230.566 350.255 L 238.086 350.195 238.852 348.633 C 241.627 342.977,239.388 330.763,235.260 329.038 C 228.010 326.009,218.880 328.664,212.294 335.718 C 207.873 340.452,206.294 341.593,203.556 342.031 C 197.148 343.056,196.899 334.687,203.203 330.149 C 204.491 329.221,205.446 328.362,205.324 328.240 C 204.459 327.376,189.787 326.753,188.055 327.507 M220.837 354.313 C 217.104 355.052,214.239 357.051,211.408 360.892 C 208.447 364.909,205.581 367.895,203.827 368.791 C 198.082 371.721,195.149 365.537,199.431 359.521 C 201.138 357.123,201.281 357.187,193.177 356.696 C 185.030 356.202,184.605 356.385,183.360 360.938 C 179.632 374.571,186.425 382.836,200.083 381.285 C 208.791 380.295,210.547 379.302,216.911 371.762 C 219.442 368.764,224.309 366.016,225.962 366.650 C 227.538 367.255,226.730 370.366,223.880 374.665 L 221.198 378.711 222.310 378.953 C 225.280 379.599,238.400 378.434,239.560 377.421 C 242.775 374.612,241.748 361.918,237.968 357.733 C 235.034 354.486,227.532 352.989,220.837 354.313 " class="svgShape color7ad9f5-5 selectable"/></svg></svg></g></svg>