<svg xmlns="http://www.w3.org/2000/svg" xmlns:xlink="http://www.w3.org/1999/xlink" version="1.1" style="shape-rendering:geometricPrecision; text-rendering:geometricPrecision; image-rendering:optimizeQuality; fill-rule:evenodd; clip-rule:evenodd" viewBox="61.3 1578.86 4902.01 1841.31">
<g><path style="opacity:0.998" fill="#ff7f7f" d="M 2736.5,1579.5 C 2757.76,1577.56 2778.43,1580.06 2798.5,1587C 2827.19,1600.38 2843.69,1622.88 2848,1654.5C 2849.01,2123.49 2850.01,2592.49 2851,3061.5C 2852.31,3093.37 2858.97,3124.04 2871,3153.5C 2876.33,3164.18 2882.67,3174.18 2890,3183.5C 2905.97,3201.14 2922.3,3218.47 2939,3235.5C 2950.06,3247.24 2958.73,3260.57 2965,3275.5C 2973.12,3303.27 2970.45,3329.94 2957,3355.5C 2940.21,3377.99 2917.71,3390.82 2889.5,3394C 2808.69,3395.15 2727.85,3395.65 2647,3395.5C 2569.5,3395.33 2492,3395.17 2414.5,3395C 2386.7,3393.84 2363.2,3383.34 2344,3363.5C 2326.52,3338.51 2321.85,3311.18 2330,3281.5C 2336.02,3263.78 2345.35,3248.11 2358,3234.5C 2375.4,3217.1 2392.07,3199.1 2408,3180.5C 2421.9,3162.35 2431.24,3142.02 2436,3119.5C 2439.03,3105.31 2441.03,3090.98 2442,3076.5C 2443.66,2714.18 2443.99,2351.84 2443,1989.5C 2442.31,1955.39 2435.98,1922.39 2424,1890.5C 2417.59,1876.12 2409.59,1862.78 2400,1850.5C 2385.63,1835.8 2371.63,1820.8 2358,1805.5C 2328.86,1773.64 2321.52,1737.31 2336,1696.5C 2347.95,1673.89 2366.12,1658.39 2390.5,1650C 2411.92,1643.98 2433.59,1638.98 2455.5,1635C 2539.17,1618 2622.83,1601 2706.5,1584C 2716.64,1582.49 2726.64,1580.99 2736.5,1579.5 Z"/></g>
<g><path style="opacity:0.994" fill="#ff7f7f" d="M 1830.5,1596.5 C 1874.36,1593.84 1917.03,1599.67 1958.5,1614C 2034.28,1643.05 2076.78,1697.89 2086,1778.5C 2090.81,1825.11 2081.81,1868.78 2059,1909.5C 2030.32,1952.81 1990.82,1981.64 1940.5,1996C 1880.41,2011.59 1820.41,2011.26 1760.5,1995C 1665.81,1964.8 1617.48,1899.97 1615.5,1800.5C 1617.16,1709.05 1660.49,1646.88 1745.5,1614C 1773.19,1604.36 1801.52,1598.53 1830.5,1596.5 Z"/></g>
<g><path style="opacity:0.996" fill="#ff7f7f" d="M 1965.5,2150.5 C 1984.84,2149.16 2003.84,2150.99 2022.5,2156C 2058.45,2171.02 2076.62,2198.19 2077,2237.5C 2077.33,2508.5 2077.67,2779.5 2078,3050.5C 2078.74,3084.3 2085.08,3116.96 2097,3148.5C 2102.74,3161 2109.74,3172.66 2118,3183.5C 2136.9,3204.98 2155.57,3226.65 2174,3248.5C 2194.27,3274.51 2199.94,3303.51 2191,3335.5C 2181.27,3363.57 2162.1,3381.73 2133.5,3390C 2124,3392.64 2114.33,3394.31 2104.5,3395C 1950.5,3395.67 1796.5,3395.67 1642.5,3395C 1610.45,3394.06 1584.95,3380.89 1566,3355.5C 1548.97,3321.98 1549.97,3288.98 1569,3256.5C 1573.62,3249.55 1578.62,3242.88 1584,3236.5C 1599.7,3220.47 1615.03,3204.14 1630,3187.5C 1651.03,3162.75 1663.36,3134.09 1667,3101.5C 1669.1,3085.23 1670.43,3068.9 1671,3052.5C 1671.67,2889.17 1671.67,2725.83 1671,2562.5C 1670.55,2526.14 1663.55,2491.14 1650,2457.5C 1643.52,2444.7 1635.85,2432.7 1627,2421.5C 1609.63,2403.13 1592.63,2384.47 1576,2365.5C 1553.48,2336.07 1548.15,2303.74 1560,2268.5C 1573.64,2240.58 1595.47,2222.42 1625.5,2214C 1723.72,2194.13 1822.05,2174.8 1920.5,2156C 1935.59,2153.63 1950.59,2151.79 1965.5,2150.5 Z"/></g>
<g><path style="opacity:0.995" fill="#ff7f7f" d="M 3738.5,2150.5 C 3823.92,2147.31 3907.59,2157.81 3989.5,2182C 4064.8,2205.1 4131.47,2242.77 4189.5,2295C 4285.85,2389.63 4330.02,2504.8 4322,2640.5C 4320.22,2673.17 4311.55,2703.84 4296,2732.5C 4270.74,2771.74 4234.57,2793.57 4187.5,2798C 3966.52,2799.49 3745.52,2799.99 3524.5,2799.5C 3531.05,2875.99 3553.55,2947.32 3592,3013.5C 3642.35,3092.42 3713.85,3140.59 3806.5,3158C 3919.32,3178.9 4024.32,3159.23 4121.5,3099C 4139.7,3087.07 4157.36,3074.4 4174.5,3061C 4191.03,3048.73 4209.03,3039.06 4228.5,3032C 4246.28,3027.06 4263.95,3027.4 4281.5,3033C 4300.79,3041.73 4312.29,3056.56 4316,3077.5C 4321.39,3109.87 4315.73,3140.2 4299,3168.5C 4282.26,3195.92 4261.76,3220.42 4237.5,3242C 4160.35,3313.93 4070.35,3363.6 3967.5,3391C 3824.29,3428.96 3680.96,3429.63 3537.5,3393C 3416.91,3360.5 3316.74,3296.66 3237,3201.5C 3165.33,3109.23 3123.33,3004.57 3111,2887.5C 3097.06,2769.93 3110.4,2655.6 3151,2544.5C 3216.26,2382.9 3329.43,2268.74 3490.5,2202C 3570.39,2170.92 3653.05,2153.76 3738.5,2150.5 Z M 3743.5,2319.5 C 3786.12,2315.93 3826.45,2323.77 3864.5,2343C 3911.08,2370.97 3939.91,2411.8 3951,2465.5C 3956.96,2493.33 3957.96,2521.33 3954,2549.5C 3944.65,2592.85 3918.15,2618.69 3874.5,2627C 3867.55,2628.37 3860.55,2629.37 3853.5,2630C 3742.84,2631.45 3632.18,2631.95 3521.5,2631.5C 3525.73,2572.9 3539.23,2516.57 3562,2462.5C 3577.9,2426.85 3600.07,2395.68 3628.5,2369C 3661.6,2340.45 3699.93,2323.95 3743.5,2319.5 Z"/></g>
<g><path style="opacity:0.996" fill="#ff7f7f" d="M 161.5,2174.5 C 312.167,2174.33 462.834,2174.5 613.5,2175C 646.441,2174.57 674.275,2186.07 697,2209.5C 713.278,2231.81 717.944,2256.48 711,2283.5C 708.102,2293.3 704.102,2302.63 699,2311.5C 686.579,2329.34 673.912,2347.01 661,2364.5C 643.688,2391.71 638.688,2421.04 646,2452.5C 649.53,2466.42 653.863,2480.09 659,2493.5C 731.197,2686.42 803.197,2879.42 875,3072.5C 942.187,2889.28 1009.19,2705.94 1076,2522.5C 1088.87,2488.99 1096.04,2454.32 1097.5,2418.5C 1098.3,2392.74 1090.8,2369.74 1075,2349.5C 1062.95,2335.12 1051.29,2320.45 1040,2305.5C 1022.11,2273.81 1022.11,2242.15 1040,2210.5C 1054.67,2190.41 1074.5,2178.91 1099.5,2176C 1185.15,2174.37 1270.82,2174.04 1356.5,2175C 1384.62,2174.6 1409.95,2182.6 1432.5,2199C 1455.91,2221.44 1464.07,2248.6 1457,2280.5C 1453.76,2293.98 1448.09,2306.31 1440,2317.5C 1433.81,2325.87 1427.14,2333.87 1420,2341.5C 1404.17,2355.33 1388.33,2369.17 1372.5,2383C 1345.54,2409.4 1324.37,2439.9 1309,2474.5C 1298.94,2497.34 1289.28,2520.34 1280,2543.5C 1177.28,2803.28 1074.28,3062.95 971,3322.5C 948.967,3366.83 913.134,3390.99 863.5,3395C 800.148,3395.96 736.815,3395.63 673.5,3394C 632.921,3390.31 601.754,3371.48 580,3337.5C 571.592,3322.68 564.259,3307.35 558,3291.5C 447.862,3032.08 337.528,2772.75 227,2513.5C 208.828,2474.03 185.162,2438.36 156,2406.5C 134.667,2385.17 113.333,2363.83 92,2342.5C 76.4164,2325 66.4164,2304.67 62,2281.5C 56.7448,2226.42 80.9114,2191.92 134.5,2178C 143.59,2176.37 152.59,2175.2 161.5,2174.5 Z"/></g>
<g><path style="opacity:0.994" fill="#ff7f7f" d="M 4724.5,2981.5 C 4781.26,2978.48 4832.93,2992.98 4879.5,3025C 4922.4,3058.27 4948.9,3101.77 4959,3155.5C 4970.98,3221.29 4957.98,3281.62 4920,3336.5C 4879.84,3386.17 4827.67,3413.67 4763.5,3419C 4710.93,3423.89 4661.59,3413.55 4615.5,3388C 4562,3353.89 4529.84,3305.39 4519,3242.5C 4510.12,3187.68 4518.45,3135.68 4544,3086.5C 4575.4,3034.48 4620.9,3001.65 4680.5,2988C 4695.17,2984.84 4709.84,2982.67 4724.5,2981.5 Z"/></g>
</svg>