<svg xmlns="http://www.w3.org/2000/svg" xmlns:xlink="http://www.w3.org/1999/xlink" version="1.1" style="shape-rendering:geometricPrecision; text-rendering:geometricPrecision; image-rendering:optimizeQuality; fill-rule:evenodd; clip-rule:evenodd" viewBox="91.5 1890.5 4868 1218">
<g><path style="opacity:0.996" fill="#000000" d="M 4933.5,1890.5 C 4942.17,1890.5 4950.83,1890.5 4959.5,1890.5C 4959.5,2013.17 4959.5,2135.83 4959.5,2258.5C 4950.83,2258.5 4942.17,2258.5 4933.5,2258.5C 4932.49,2242.45 4928.65,2227.11 4922,2212.5C 4917.17,2205.16 4910.33,2201 4901.5,2200C 4674.17,2199.5 4446.83,2199.33 4219.5,2199.5C 4219.5,2257.5 4219.5,2315.5 4219.5,2373.5C 4354.17,2373.67 4488.83,2373.5 4623.5,2373C 4641.5,2372.26 4655.34,2364.42 4665,2349.5C 4669.15,2342.04 4672.32,2334.21 4674.5,2326C 4683.16,2325.5 4691.83,2325.33 4700.5,2325.5C 4700.5,2435.5 4700.5,2545.5 4700.5,2655.5C 4691.81,2655.83 4683.14,2655.5 4674.5,2654.5C 4671.43,2640.85 4665.09,2629.01 4655.5,2619C 4645.47,2611.43 4634.14,2607.43 4621.5,2607C 4487.5,2606.5 4353.5,2606.33 4219.5,2606.5C 4219.5,2671.5 4219.5,2736.5 4219.5,2801.5C 4447.5,2801.67 4675.5,2801.5 4903.5,2801C 4914.03,2798.8 4921.2,2792.64 4925,2782.5C 4929.66,2768.19 4932.5,2753.52 4933.5,2738.5C 4942.17,2738.5 4950.83,2738.5 4959.5,2738.5C 4959.5,2859.17 4959.5,2979.83 4959.5,3100.5C 4950.83,3100.5 4942.17,3100.5 4933.5,3100.5C 4932.53,3089.97 4929.7,3079.97 4925,3070.5C 4917.26,3062.54 4907.76,3059.04 4896.5,3060C 4545.5,3059.5 4194.5,3059.33 3843.5,3059.5C 3843.5,3050.83 3843.5,3042.17 3843.5,3033.5C 3858.69,3032.7 3873.35,3029.53 3887.5,3024C 3895.98,3018.88 3900.81,3011.38 3902,3001.5C 3902.67,2670.5 3902.67,2339.5 3902,2008.5C 3900.77,1999.53 3896.6,1992.36 3889.5,1987C 3874.87,1980.51 3859.54,1977.01 3843.5,1976.5C 3843.5,1967.5 3843.5,1958.5 3843.5,1949.5C 4196.83,1949.67 4550.17,1949.5 4903.5,1949C 4911.97,1947.35 4918.47,1942.85 4923,1935.5C 4928.85,1921.07 4932.35,1906.07 4933.5,1890.5 Z"/></g>
<g><path style="opacity:0.996" fill="#000000" d="M 91.5,1949.5 C 236.167,1949.5 380.833,1949.5 525.5,1949.5C 525.5,1958.5 525.5,1967.5 525.5,1976.5C 513.58,1976.38 502.247,1978.88 491.5,1984C 482.605,1992.14 480.771,2001.64 486,2012.5C 583.718,2221.27 680.885,2430.27 777.5,2639.5C 868.81,2440.08 959.643,2240.41 1050,2040.5C 1054.47,2029.09 1058.14,2017.42 1061,2005.5C 1064.14,1989.94 1057.98,1980.77 1042.5,1978C 1038.56,1976.98 1034.56,1976.48 1030.5,1976.5C 1030.5,1967.5 1030.5,1958.5 1030.5,1949.5C 1151.5,1949.5 1272.5,1949.5 1393.5,1949.5C 1393.83,1958.52 1393.5,1967.52 1392.5,1976.5C 1385.09,1978.8 1378.09,1981.97 1371.5,1986C 1368.94,1988.89 1366.78,1992.06 1365,1995.5C 1257.17,2252.32 1148.17,2508.66 1038,2764.5C 1005.95,2838.93 975.285,2913.93 946,2989.5C 943.092,2997.56 940.592,3005.72 938.5,3014C 939.682,3022.85 944.682,3028.18 953.5,3030C 958.102,3031.12 962.768,3031.62 967.5,3031.5C 967.5,3040.83 967.5,3050.17 967.5,3059.5C 822.5,3059.5 677.5,3059.5 532.5,3059.5C 532.5,3050.83 532.5,3042.17 532.5,3033.5C 541.586,3031.97 550.252,3029.14 558.5,3025C 561.637,3022.56 563.637,3019.39 564.5,3015.5C 512.437,2887.48 457.937,2760.48 401,2634.5C 381,2587.83 361,2541.17 341,2494.5C 292.612,2386.67 244.612,2278.67 197,2170.5C 175.391,2119.61 154.057,2068.61 133,2017.5C 129.333,2010.17 125.667,2002.83 122,1995.5C 115.234,1983.7 105.068,1977.37 91.5,1976.5C 91.5,1967.5 91.5,1958.5 91.5,1949.5 Z"/></g>
<g><path style="opacity:0.994" fill="#000000" d="M 1639.5,1949.5 C 1784.83,1949.5 1930.17,1949.5 2075.5,1949.5C 2075.5,1958.5 2075.5,1967.5 2075.5,1976.5C 2060.69,1976.97 2046.36,1979.8 2032.5,1985C 2023.94,1989.24 2018.77,1996.07 2017,2005.5C 2016.33,2338.5 2016.33,2671.5 2017,3004.5C 2019.22,3015.06 2025.39,3022.22 2035.5,3026C 2048.53,3030.11 2061.87,3032.61 2075.5,3033.5C 2075.5,3042.17 2075.5,3050.83 2075.5,3059.5C 1930.17,3059.5 1784.83,3059.5 1639.5,3059.5C 1639.5,3050.83 1639.5,3042.17 1639.5,3033.5C 1655.48,3032.74 1670.82,3029.24 1685.5,3023C 1692.05,3018.08 1696.22,3011.58 1698,3003.5C 1698.67,2671.17 1698.67,2338.83 1698,2006.5C 1696.2,1995.4 1690.03,1987.9 1679.5,1984C 1666.51,1979.67 1653.17,1977.17 1639.5,1976.5C 1639.5,1967.5 1639.5,1958.5 1639.5,1949.5 Z"/></g>
<g><path style="opacity:0.995" fill="#000000" d="M 2436.5,1949.5 C 2581.83,1949.5 2727.17,1949.5 2872.5,1949.5C 2872.5,1958.5 2872.5,1967.5 2872.5,1976.5C 2857.75,1977.22 2843.42,1980.05 2829.5,1985C 2821.32,1989.51 2816.16,1996.34 2814,2005.5C 2813.5,2270.83 2813.33,2536.17 2813.5,2801.5C 3057.5,2801.67 3301.5,2801.5 3545.5,2801C 3559.56,2797.27 3567.72,2788.1 3570,2773.5C 3572.7,2763.31 3574.53,2752.98 3575.5,2742.5C 3584.17,2742.5 3592.83,2742.5 3601.5,2742.5C 3601.5,2864.5 3601.5,2986.5 3601.5,3108.5C 3592.83,3108.5 3584.17,3108.5 3575.5,3108.5C 3574.59,3094.75 3571.09,3081.75 3565,3069.5C 3557.5,3062.78 3548.67,3059.61 3538.5,3060C 3171.17,3059.5 2803.83,3059.33 2436.5,3059.5C 2436.5,3050.83 2436.5,3042.17 2436.5,3033.5C 2450.91,3032.65 2464.91,3029.82 2478.5,3025C 2487.43,3020.98 2492.93,3014.15 2495,3004.5C 2495.67,2671.5 2495.67,2338.5 2495,2005.5C 2492.84,1996.34 2487.68,1989.51 2479.5,1985C 2465.58,1980.05 2451.25,1977.22 2436.5,1976.5C 2436.5,1967.5 2436.5,1958.5 2436.5,1949.5 Z"/></g>
</svg>