<svg xmlns="http://www.w3.org/2000/svg" xmlns:xlink="http://www.w3.org/1999/xlink" version="1.1" style="shape-rendering:geometricPrecision; text-rendering:geometricPrecision; image-rendering:optimizeQuality; fill-rule:evenodd; clip-rule:evenodd" viewBox="72.5 1655.21 4865.24 1715.3">
<g><path style="opacity:0.996" fill="#000000" d="M 4047.5,1655.5 C 4285.23,1649.88 4491.57,1726.38 4666.5,1885C 4827.47,2037.65 4917.3,2225.15 4936,2447.5C 4939.84,2508.77 4937.34,2569.77 4928.5,2630.5C 4492.83,2630.5 4057.17,2630.5 3621.5,2630.5C 3639.24,2740.86 3691.58,2830.69 3778.5,2900C 3866.88,2967.07 3966.88,3000.57 4078.5,3000.5C 4193.38,3000.01 4293.71,2962.18 4379.5,2887C 4410.77,2858.09 4437.1,2825.43 4458.5,2789C 4604.17,2788.5 4749.83,2788.33 4895.5,2788.5C 4834.35,2977.77 4720.69,3126.6 4554.5,3235C 4400.8,3330.88 4233.14,3375.88 4051.5,3370C 3844.47,3362.58 3663.47,3291.25 3508.5,3156C 3344.27,3005.37 3250.1,2818.54 3226,2595.5C 3207.13,2369.89 3265.13,2166.89 3400,1986.5C 3550.06,1796.51 3746.23,1687.68 3988.5,1660C 4008.3,1658.25 4027.97,1656.75 4047.5,1655.5 Z M 4050.5,2031.5 C 4165.05,2026.21 4268.72,2056.71 4361.5,2123C 4431.32,2175.76 4479.65,2243.93 4506.5,2327.5C 4219.5,2328.83 3932.5,2328.83 3645.5,2327.5C 3683.59,2220.48 3752.59,2139.98 3852.5,2086C 3914.74,2053.78 3980.74,2035.61 4050.5,2031.5 Z"/></g>
<g><path style="opacity:0.995" fill="#000000" d="M 2337.5,1685.5 C 2472.5,1685.5 2607.5,1685.5 2742.5,1685.5C 2742.5,2109.17 2742.5,2532.83 2742.5,2956.5C 2904.5,2956.5 3066.5,2956.5 3228.5,2956.5C 3228.5,3084.5 3228.5,3212.5 3228.5,3340.5C 2931.5,3340.5 2634.5,3340.5 2337.5,3340.5C 2337.5,2788.83 2337.5,2237.17 2337.5,1685.5 Z"/></g>
<g><path style="opacity:0.995" fill="#000000" d="M 72.5,1690.5 C 216.001,1689.17 359.667,1689.17 503.5,1690.5C 611.642,2038.4 719.475,2386.4 827,2734.5C 932.677,2386.3 1037.84,2037.97 1142.5,1689.5C 1285.5,1689.5 1428.5,1689.5 1571.5,1689.5C 1395.84,2239.64 1219.68,2789.64 1043,3339.5C 897.903,3340.5 752.737,3340.83 607.5,3340.5C 429.537,2790.28 251.204,2240.28 72.5,1690.5 Z"/></g>
<g><path style="opacity:0.994" fill="#000000" d="M 1676.5,1691.5 C 1812.17,1691.5 1947.83,1691.5 2083.5,1691.5C 2083.5,2241.17 2083.5,2790.83 2083.5,3340.5C 1947.83,3340.5 1812.17,3340.5 1676.5,3340.5C 1676.5,2790.83 1676.5,2241.17 1676.5,1691.5 Z"/></g>
</svg>