<svg xmlns="http://www.w3.org/2000/svg" xmlns:xlink="http://www.w3.org/1999/xlink" version="1.1" style="shape-rendering:geometricPrecision; text-rendering:geometricPrecision; image-rendering:optimizeQuality; fill-rule:evenodd; clip-rule:evenodd" viewBox="37 1519.24 4920.63 1959.99">
<g><path style="opacity:0.995" fill="#fefffe" d="M 3280.5,1519.5 C 3307.95,1517.78 3332.95,1524.61 3355.5,1540C 3374.37,1556.56 3385.2,1577.4 3388,1602.5C 3389,2102.16 3390,2601.83 3391,3101.5C 3392.46,3138.02 3401.13,3172.69 3417,3205.5C 3421.61,3213.11 3426.61,3220.44 3432,3227.5C 3453.37,3249.87 3474.37,3272.53 3495,3295.5C 3517.85,3325.91 3523.18,3359.24 3511,3395.5C 3498.23,3424.25 3476.4,3442.08 3445.5,3449C 3439.88,3450.26 3434.21,3451.26 3428.5,3452C 3262.85,3453.65 3097.18,3453.98 2931.5,3453C 2903.57,3452.47 2878.91,3443.47 2857.5,3426C 2837.11,3403.81 2828.94,3377.65 2833,3347.5C 2835.13,3331.12 2840.79,3316.12 2850,3302.5C 2856.62,3293.54 2863.62,3284.88 2871,3276.5C 2886.37,3260.8 2901.37,3244.8 2916,3228.5C 2931.42,3209.66 2942.09,3188.32 2948,3164.5C 2953.64,3137.8 2956.64,3110.8 2957,3083.5C 2957.67,2711.83 2957.67,2340.17 2957,1968.5C 2956.8,1929.76 2950.47,1892.09 2938,1855.5C 2932.2,1841.23 2924.87,1827.9 2916,1815.5C 2899.37,1796.53 2882.37,1777.87 2865,1759.5C 2853.77,1746.38 2845.11,1731.72 2839,1715.5C 2825.26,1652.47 2849.09,1611.31 2910.5,1592C 3017.42,1569.62 3124.42,1547.62 3231.5,1526C 3247.89,1523.08 3264.22,1520.91 3280.5,1519.5 Z"/></g>
<g><path style="opacity:0.992" fill="#fefffe" d="M 2301.5,1538.5 C 2350.25,1535.04 2397.58,1541.54 2443.5,1558C 2525.67,1591.15 2570.17,1651.98 2577,1740.5C 2580.87,1793.02 2568.21,1841.02 2539,1884.5C 2508.24,1924.32 2468.41,1950.82 2419.5,1964C 2371.39,1976.21 2322.72,1978.88 2273.5,1972C 2221.85,1965.16 2176.52,1944.83 2137.5,1911C 2099.84,1873.84 2079.34,1828.67 2076,1775.5C 2070.17,1665.08 2119,1591.24 2222.5,1554C 2248.38,1545.8 2274.71,1540.64 2301.5,1538.5 Z"/></g>
<g><path style="opacity:0.995" fill="#fefffe" d="M 132.5,1663.5 C 330.167,1663.33 527.834,1663.5 725.5,1664C 749.848,1665.67 771.514,1674 790.5,1689C 809.225,1706.32 818.558,1727.82 818.5,1753.5C 817.804,1782.77 807.971,1808.43 789,1830.5C 772.271,1846.56 756.271,1863.23 741,1880.5C 717.191,1910.18 708.858,1943.85 716,1981.5C 720.701,2007.27 728.034,2032.27 738,2056.5C 864.667,2364.5 991.333,2672.5 1118,2980.5C 1239.8,2672.75 1361.8,2365.09 1484,2057.5C 1497.26,2025.96 1504.76,1993.13 1506.5,1959C 1506.45,1933.98 1499.95,1910.81 1487,1889.5C 1482.33,1882.83 1477.67,1876.17 1473,1869.5C 1457,1851.5 1441,1833.5 1425,1815.5C 1401.29,1782.64 1398.29,1747.98 1416,1711.5C 1429.56,1690.45 1448.39,1676.29 1472.5,1669C 1481,1666.47 1489.66,1664.81 1498.5,1664C 1614.17,1663.33 1729.83,1663.33 1845.5,1664C 1868.75,1665.75 1889.75,1673.42 1908.5,1687C 1931.86,1707.59 1941.36,1733.42 1937,1764.5C 1933.8,1783.55 1925.8,1800.22 1913,1814.5C 1908.47,1818.7 1904.3,1823.2 1900.5,1828C 1878.73,1847.1 1857.56,1866.93 1837,1887.5C 1804.24,1921.66 1777.9,1960.33 1758,2003.5C 1577.47,2452.75 1397.14,2902.09 1217,3351.5C 1205.85,3378.01 1189.68,3400.84 1168.5,3420C 1140.27,3441.52 1108.27,3452.52 1072.5,3453C 1022.5,3453.67 972.5,3453.67 922.5,3453C 862.146,3452.59 816.646,3426.76 786,3375.5C 777.571,3359.98 770.238,3343.98 764,3327.5C 595,2918.83 426,2510.17 257,2101.5C 240.347,2059.53 221.013,2018.86 199,1979.5C 167.471,1926.62 127.304,1881.12 78.5,1843C 43.3697,1813.61 30.5364,1776.44 40,1731.5C 50.5421,1700.63 71.3754,1680.13 102.5,1670C 112.482,1667.11 122.482,1664.94 132.5,1663.5 Z"/></g>
<g><path style="opacity:0.996" fill="#fefffe" d="M 2464.5,2127.5 C 2487.85,2126.6 2509.52,2132.1 2529.5,2144C 2551.66,2160.47 2563.82,2182.63 2566,2210.5C 2566.33,2489.5 2566.67,2768.5 2567,3047.5C 2566.14,3087.02 2570.14,3126.02 2579,3164.5C 2585.53,3188.56 2596.53,3210.22 2612,3229.5C 2630,3250.17 2648,3270.83 2666,3291.5C 2693.1,3323.35 2699.44,3359.02 2685,3398.5C 2674.56,3420.94 2657.73,3436.44 2634.5,3445C 2624.42,3448.44 2614.08,3450.77 2603.5,3452C 2438.85,3453.65 2274.18,3453.98 2109.5,3453C 2085.07,3452.41 2062.73,3445.41 2042.5,3432C 2016.44,3409.51 2005.94,3381.01 2011,3346.5C 2013.75,3329.35 2020.08,3313.68 2030,3299.5C 2035.67,3292.5 2041.33,3285.5 2047,3278.5C 2062.7,3262.47 2078.03,3246.14 2093,3229.5C 2113.49,3204.51 2125.82,3175.84 2130,3143.5C 2132.95,3121.6 2134.62,3099.6 2135,3077.5C 2135.97,2903.16 2135.64,2728.82 2134,2554.5C 2132.75,2525.06 2127.41,2496.39 2118,2468.5C 2110.55,2449.6 2100.55,2432.26 2088,2416.5C 2069.96,2397.47 2052.3,2378.13 2035,2358.5C 2009.57,2326.61 2003.57,2291.27 2017,2252.5C 2032.98,2221.9 2057.81,2202.4 2091.5,2194C 2194.12,2173.74 2296.78,2153.74 2399.5,2134C 2421.18,2130.45 2442.85,2128.28 2464.5,2127.5 Z"/></g>
<g><path style="opacity:0.994" fill="#fefffe" d="M 4356.5,2127.5 C 4451.51,2126 4543.84,2140.83 4633.5,2172C 4712.56,2200.59 4781.06,2245.09 4839,2305.5C 4917.92,2394.04 4957.42,2498.04 4957.5,2617.5C 4958.5,2651.7 4953.66,2685.03 4943,2717.5C 4920.36,2776.45 4877.53,2809.61 4814.5,2817C 4578.85,2818.49 4343.19,2818.99 4107.5,2818.5C 4113.25,2879.49 4128.08,2938.16 4152,2994.5C 4211.85,3125.59 4314.02,3196.42 4458.5,3207C 4563.21,3215.74 4659.54,3191.74 4747.5,3135C 4765.78,3122.39 4783.78,3109.39 4801.5,3096C 4818.92,3083.12 4837.92,3073.12 4858.5,3066C 4881.54,3059.47 4903.54,3061.8 4924.5,3073C 4939.36,3084.53 4948.19,3099.7 4951,3118.5C 4955.5,3153.33 4948.5,3185.66 4930,3215.5C 4919.48,3231.69 4907.82,3247.02 4895,3261.5C 4814.32,3346.79 4717.48,3406.63 4604.5,3441C 4451.82,3486.36 4297.82,3491.36 4142.5,3456C 4031.92,3429.73 3935.26,3378.39 3852.5,3302C 3764.21,3214.62 3706.71,3109.79 3680,2987.5C 3659.71,2888.99 3657.05,2789.99 3672,2690.5C 3695.25,2543.15 3759.75,2417.65 3865.5,2314C 3964.09,2223.54 4079.76,2166.21 4212.5,2142C 4260.28,2133.4 4308.28,2128.57 4356.5,2127.5 Z M 4345.5,2307.5 C 4390.88,2304.34 4433.54,2313.51 4473.5,2335C 4521.16,2365.4 4550.66,2408.56 4562,2464.5C 4568.41,2495.39 4569.08,2526.39 4564,2557.5C 4554.88,2595.95 4531.38,2620.78 4493.5,2632C 4483.34,2634.9 4473.01,2636.9 4462.5,2638C 4343.18,2639.48 4223.85,2639.98 4104.5,2639.5C 4108.93,2577.8 4123.09,2518.46 4147,2461.5C 4166.8,2415.71 4196.3,2377.55 4235.5,2347C 4268.65,2324.01 4305.32,2310.84 4345.5,2307.5 Z"/></g>
</svg>