<svg xmlns="http://www.w3.org/2000/svg" xmlns:xlink="http://www.w3.org/1999/xlink" version="1.1" style="shape-rendering:geometricPrecision; text-rendering:geometricPrecision; image-rendering:optimizeQuality; fill-rule:evenodd; clip-rule:evenodd" viewBox="63.75 1580.28 4896.06 1838.2">
<g><path style="opacity:0.995" fill="#fefffe" d="M 2748.5,1580.5 C 2778.3,1578.71 2804.13,1587.71 2826,1607.5C 2838.51,1622.19 2845.84,1639.19 2848,1658.5C 2849,2127.83 2850,2597.16 2851,3066.5C 2852.61,3100.62 2860.95,3132.95 2876,3163.5C 2880.09,3170.01 2884.42,3176.34 2889,3182.5C 2907.67,3202.5 2926.33,3222.5 2945,3242.5C 2966.38,3266.7 2973.72,3294.7 2967,3326.5C 2961.01,3354.83 2944.51,3374.33 2917.5,3385C 2908.7,3388.12 2899.7,3390.45 2890.5,3392C 2809.19,3393.15 2727.85,3393.65 2646.5,3393.5C 2568.17,3393.33 2489.83,3393.17 2411.5,3393C 2345.77,3384.61 2318.27,3347.78 2329,3282.5C 2334.66,3264.84 2343.66,3249.17 2356,3235.5C 2372.03,3219.14 2387.7,3202.47 2403,3185.5C 2419.18,3166.67 2429.85,3145.01 2435,3120.5C 2440.49,3092.11 2443.16,3063.44 2443,3034.5C 2443.17,2864.17 2443.33,2693.83 2443.5,2523.5C 2443.65,2344.16 2443.15,2164.83 2442,1985.5C 2441,1953.5 2435,1922.5 2424,1892.5C 2418.28,1879.39 2411.28,1867.05 2403,1855.5C 2390.03,1840.87 2376.7,1826.53 2363,1812.5C 2350.5,1798.84 2340.5,1783.51 2333,1766.5C 2318.48,1705.38 2341.31,1665.88 2401.5,1648C 2500.47,1627.51 2599.47,1607.18 2698.5,1587C 2715.21,1584 2731.88,1581.83 2748.5,1580.5 Z"/></g>
<g><path style="opacity:0.993" fill="#fefffe" d="M 1827.5,1598.5 C 1871.98,1595.31 1915.31,1600.81 1957.5,1615C 2049.55,1652.19 2092.72,1720.69 2087,1820.5C 2080.56,1895.61 2043.73,1949.77 1976.5,1983C 1929.23,2003.28 1879.9,2011.28 1828.5,2007C 1781.99,2004.63 1738.99,1991.3 1699.5,1967C 1647.03,1930.42 1619.2,1879.92 1616,1815.5C 1614.28,1704.55 1667.12,1635.05 1774.5,1607C 1792.14,1603.08 1809.81,1600.24 1827.5,1598.5 Z"/></g>
<g><path style="opacity:0.995" fill="#fefffe" d="M 1964.5,2151.5 C 1978.87,2151.15 1993.2,2151.65 2007.5,2153C 2045.66,2160.49 2068.49,2183.32 2076,2221.5C 2077.33,2490.48 2077.99,2759.48 2078,3028.5C 2077.79,3061.7 2081.79,3094.37 2090,3126.5C 2096.34,3147.84 2106.34,3167.18 2120,3184.5C 2137.33,3204.5 2154.67,3224.5 2172,3244.5C 2196,3273.49 2201.67,3305.82 2189,3341.5C 2177.57,3366.64 2158.4,3382.47 2131.5,3389C 2123.61,3390.98 2115.61,3392.32 2107.5,3393C 1951.83,3393.67 1796.17,3393.67 1640.5,3393C 1611.27,3391.62 1587.44,3379.78 1569,3357.5C 1552.85,3330.54 1550.18,3302.21 1561,3272.5C 1566.69,3259.16 1574.36,3247.16 1584,3236.5C 1599.57,3220.36 1614.9,3204.02 1630,3187.5C 1650.63,3163.31 1662.96,3135.31 1667,3103.5C 1668.99,3088.89 1670.33,3074.23 1671,3059.5C 1671.67,2891.83 1671.67,2724.17 1671,2556.5C 1670.47,2517.85 1661.81,2481.18 1645,2446.5C 1639.78,2437.28 1633.78,2428.62 1627,2420.5C 1609.63,2402.13 1592.63,2383.47 1576,2364.5C 1555.67,2338.2 1549.67,2308.87 1558,2276.5C 1565.26,2254.91 1578.76,2238.41 1598.5,2227C 1607.15,2222.18 1616.15,2218.18 1625.5,2215C 1723.7,2195.03 1822.03,2175.69 1920.5,2157C 1935.26,2154.68 1949.92,2152.84 1964.5,2151.5 Z"/></g>
<g><path style="opacity:0.994" fill="#fefffe" d="M 3734.5,2151.5 C 3818.43,2148.21 3900.76,2158.05 3981.5,2181C 4059.25,2203.86 4127.92,2242.19 4187.5,2296C 4269.79,2375.42 4313.96,2472.59 4320,2587.5C 4322.4,2622.33 4319.4,2656.66 4311,2690.5C 4292.75,2753.75 4250.92,2789.25 4185.5,2797C 3964.52,2798.49 3743.52,2798.99 3522.5,2798.5C 3529.04,2866.32 3547.54,2930.66 3578,2991.5C 3636.05,3095.5 3724.89,3152.67 3844.5,3163C 3943.85,3172.91 4035.52,3151.24 4119.5,3098C 4139.03,3085.07 4158.03,3071.4 4176.5,3057C 4191.34,3046.58 4207.34,3038.25 4224.5,3032C 4244.9,3025.44 4264.9,3026.44 4284.5,3035C 4303.22,3046.91 4313.38,3064.07 4315,3086.5C 4317.42,3115.06 4311.42,3141.73 4297,3166.5C 4279.59,3194.59 4258.43,3219.76 4233.5,3242C 4166.16,3305.03 4088.16,3350.7 3999.5,3379C 3852.38,3424.66 3703.71,3430.33 3553.5,3396C 3438.04,3368.21 3339.54,3311.71 3258,3226.5C 3181.87,3140.63 3134.2,3040.63 3115,2926.5C 3096.04,2813.79 3102.04,2702.46 3133,2592.5C 3183.27,2428.59 3284.1,2306.76 3435.5,2227C 3529.8,2180.34 3629.47,2155.17 3734.5,2151.5 Z M 3753.5,2318.5 C 3794.15,2317 3832.15,2326.16 3867.5,2346C 3913.43,2376.68 3940.93,2419.51 3950,2474.5C 3954.16,2499.79 3954.49,2525.13 3951,2550.5C 3941.89,2592.83 3916.06,2618.33 3873.5,2627C 3866.9,2628.43 3860.23,2629.43 3853.5,2630C 3742.51,2631.47 3631.51,2631.97 3520.5,2631.5C 3524.59,2563.14 3542.09,2498.47 3573,2437.5C 3597.86,2390.64 3634.36,2356.14 3682.5,2334C 3705.48,2325.04 3729.15,2319.87 3753.5,2318.5 Z"/></g>
<g><path style="opacity:0.993" fill="#fefffe" d="M 160.5,2175.5 C 313.834,2175.33 467.167,2175.5 620.5,2176C 651.31,2176.66 677.476,2187.83 699,2209.5C 718.07,2235.69 721.736,2264.03 710,2294.5C 707.527,2300.78 704.527,2306.78 701,2312.5C 689.72,2328.78 678.053,2344.78 666,2360.5C 646.577,2389.29 640.91,2420.62 649,2454.5C 651.929,2465.29 655.263,2475.96 659,2486.5C 731.863,2681.42 804.53,2876.42 877,3071.5C 943.667,2888.83 1010.33,2706.17 1077,2523.5C 1090.04,2489.68 1097.21,2454.68 1098.5,2418.5C 1099.32,2395.12 1093.15,2373.79 1080,2354.5C 1066.62,2338.12 1053.62,2321.45 1041,2304.5C 1026.58,2279.17 1024.25,2252.84 1034,2225.5C 1047.1,2197.09 1069.27,2180.92 1100.5,2177C 1187.82,2175.36 1275.15,2175.03 1362.5,2176C 1390.24,2176.36 1414.91,2185.02 1436.5,2202C 1458.13,2224.19 1465.47,2250.52 1458.5,2281C 1454.86,2295.1 1448.7,2307.94 1440,2319.5C 1431.99,2329.99 1423.15,2339.83 1413.5,2349C 1391.34,2367.01 1370.51,2386.51 1351,2407.5C 1335.99,2427.5 1322.99,2448.83 1312,2471.5C 1302.12,2493.27 1292.78,2515.27 1284,2537.5C 1181.53,2796.58 1078.86,3055.58 976,3314.5C 955.741,3361.73 919.908,3387.9 868.5,3393C 803.482,3393.96 738.482,3393.63 673.5,3392C 634.697,3387.8 604.53,3369.64 583,3337.5C 576.886,3327.61 571.552,3317.27 567,3306.5C 455,3043.17 343,2779.83 231,2516.5C 212.383,2475.56 188.05,2438.56 158,2405.5C 136.667,2384.17 115.333,2362.83 94,2341.5C 68.3381,2313.19 59.0048,2280.19 66,2242.5C 77.117,2207.72 100.617,2186.56 136.5,2179C 144.601,2177.5 152.601,2176.33 160.5,2175.5 Z"/></g>
<g><path style="opacity:0.992" fill="#fefffe" d="M 4716.5,2981.5 C 4777.05,2977.13 4831.72,2992.63 4880.5,3028C 4925.24,3064.96 4951.07,3112.46 4958,3170.5C 4965.36,3233.03 4950.36,3289.36 4913,3339.5C 4875.65,3383.43 4828.15,3408.93 4770.5,3416C 4707.83,3424.4 4650.16,3411.4 4597.5,3377C 4549.18,3340.56 4521.35,3292.06 4514,3231.5C 4507.55,3181.19 4515.89,3133.52 4539,3088.5C 4570.21,3035.94 4615.71,3002.44 4675.5,2988C 4689.2,2985.12 4702.87,2982.95 4716.5,2981.5 Z"/></g>
</svg>