<svg xmlns="http://www.w3.org/2000/svg" xmlns:xlink="http://www.w3.org/1999/xlink" version="1.1" style="shape-rendering:geometricPrecision; text-rendering:geometricPrecision; image-rendering:optimizeQuality; fill-rule:evenodd; clip-rule:evenodd" viewBox="143.45 1609.92 4736.05 1778.98">
<g><path style="opacity:0.995" fill="#000000" d="M 2733.5,1610.5 C 2758.6,1608.07 2781.93,1613.23 2803.5,1626C 2821.62,1639.72 2832.45,1657.89 2836,1680.5C 2837.01,2133.15 2838.01,2585.82 2839,3038.5C 2840.05,3068.43 2845.72,3097.43 2856,3125.5C 2860.65,3136.15 2866.32,3146.15 2873,3155.5C 2890.54,3175.21 2908.54,3194.55 2927,3213.5C 2956.05,3246.03 2961.71,3282.36 2944,3322.5C 2934.95,3337.95 2922.12,3349.12 2905.5,3356C 2895.16,3359.92 2884.49,3362.59 2873.5,3364C 2723.85,3365.65 2574.18,3365.98 2424.5,3365C 2395.52,3365.25 2370.68,3355.41 2350,3335.5C 2332.56,3312.5 2327.23,3286.83 2334,3258.5C 2338.79,3242.59 2346.46,3228.25 2357,3215.5C 2374,3197.17 2391,3178.83 2408,3160.5C 2426.99,3136.55 2437.99,3109.21 2441,3078.5C 2443.7,3055.25 2445.03,3031.91 2445,3008.5C 2445.17,2846.33 2445.33,2684.17 2445.5,2522C 2445.64,2349.16 2445.14,2176.33 2444,2003.5C 2443.13,1971.8 2437.13,1941.14 2426,1911.5C 2420.53,1898.55 2413.53,1886.55 2405,1875.5C 2392.37,1861.2 2379.37,1847.2 2366,1833.5C 2355.37,1821.86 2346.71,1808.86 2340,1794.5C 2323.05,1739.63 2340.88,1701.13 2393.5,1679C 2400.37,1676.53 2407.37,1674.53 2414.5,1673C 2502.86,1655.13 2591.19,1637.13 2679.5,1619C 2697.49,1615.17 2715.49,1612.34 2733.5,1610.5 Z"/></g>
<g><path style="opacity:0.99" fill="#000000" d="M 1849.5,1627.5 C 1895.98,1624.1 1940.98,1630.6 1984.5,1647C 2056.98,1678.74 2095.81,1734.24 2101,1813.5C 2102.49,1920.06 2051.99,1987.56 1949.5,2016C 1884.01,2031.01 1820.01,2026.35 1757.5,2002C 1687.9,1970.35 1650.4,1916.19 1645,1839.5C 1642.29,1733.56 1691.79,1666.06 1793.5,1637C 1812.07,1632.4 1830.74,1629.24 1849.5,1627.5 Z"/></g>
<g><path style="opacity:0.993" fill="#000000" d="M 1981.5,2162.5 C 1995.54,2162.13 2009.54,2162.63 2023.5,2164C 2060.99,2170.82 2083.16,2192.99 2090,2230.5C 2091.33,2492.48 2091.99,2754.48 2092,3016.5C 2092.26,3044.88 2095.6,3072.88 2102,3100.5C 2108.11,3123.39 2118.44,3144.05 2133,3162.5C 2148.76,3181.02 2164.76,3199.35 2181,3217.5C 2208.08,3249.76 2212.75,3285.09 2195,3323.5C 2178.31,3348.44 2154.81,3361.94 2124.5,3364C 1975.85,3365.65 1827.18,3365.98 1678.5,3365C 1649,3365.16 1623.84,3354.99 1603,3334.5C 1584.45,3308.01 1580.45,3279.35 1591,3248.5C 1597.27,3233.57 1605.94,3220.24 1617,3208.5C 1632.37,3192.8 1647.37,3176.8 1662,3160.5C 1679.76,3138.3 1690.43,3112.96 1694,3084.5C 1695.99,3070.9 1697.33,3057.23 1698,3043.5C 1698.67,2879.83 1698.67,2716.17 1698,2552.5C 1697.2,2515.97 1688.87,2481.3 1673,2448.5C 1667.11,2438.61 1660.44,2429.28 1653,2420.5C 1637.26,2404.77 1622.26,2388.43 1608,2371.5C 1587.66,2346.48 1581,2318.15 1588,2286.5C 1594.92,2263.16 1609.09,2245.66 1630.5,2234C 1640.05,2228.89 1650.05,2224.89 1660.5,2222C 1753.12,2203.78 1845.79,2185.78 1938.5,2168C 1952.91,2165.6 1967.25,2163.77 1981.5,2162.5 Z"/></g>
<g><path style="opacity:0.992" fill="#000000" d="M 3692.5,2162.5 C 3775.46,2159.14 3856.8,2168.98 3936.5,2192C 4013.3,2214.93 4080.63,2253.6 4138.5,2308C 4227.96,2399.66 4268.46,2509.83 4260,2638.5C 4258.15,2669.9 4249.48,2699.24 4234,2726.5C 4209.24,2763.49 4174.4,2783.99 4129.5,2788C 3916.18,2789.49 3702.85,2789.99 3489.5,2789.5C 3495.78,2853.3 3512.95,2913.97 3541,2971.5C 3596.82,3074.72 3683.65,3131.22 3801.5,3141C 3899.47,3150.67 3989.47,3128.67 4071.5,3075C 4094.48,3058.17 4117.82,3041.84 4141.5,3026C 4157.87,3016.27 4175.53,3011.1 4194.5,3010.5C 4232.24,3011.41 4252.74,3030.74 4256,3068.5C 4257.97,3093.96 4252.97,3117.96 4241,3140.5C 4224.29,3168.57 4203.79,3193.73 4179.5,3216C 4107.33,3283.44 4023.33,3330.77 3927.5,3358C 3797.9,3393.85 3667.23,3398.19 3535.5,3371C 3427.26,3348.21 3333.26,3299.21 3253.5,3224C 3175.49,3145.84 3124.65,3052.34 3101,2943.5C 3075.9,2824.91 3079.57,2707.25 3112,2590.5C 3171.6,2401.23 3294.43,2272.07 3480.5,2203C 3549.34,2179.25 3620.01,2165.75 3692.5,2162.5 Z M 3704.5,2325.5 C 3745.59,2322.48 3784.26,2330.65 3820.5,2350C 3862.33,2376.43 3888.83,2413.93 3900,2462.5C 3906.55,2490.27 3907.88,2518.27 3904,2546.5C 3895.73,2587.43 3871.23,2612.6 3830.5,2622C 3821.26,2623.99 3811.93,2625.32 3802.5,2626C 3697.17,2626.67 3591.83,2626.67 3486.5,2626C 3491.18,2567.43 3505.35,2511.26 3529,2457.5C 3547.21,2418.56 3573.38,2386.06 3607.5,2360C 3636.96,2340.24 3669.3,2328.74 3704.5,2325.5 Z"/></g>
<g><path style="opacity:0.992" fill="#000000" d="M 226.5,2186.5 C 381.834,2186.33 537.167,2186.5 692.5,2187C 717.72,2189.53 739.22,2199.7 757,2217.5C 773.141,2237.85 778.475,2260.85 773,2286.5C 770.735,2296.7 767.068,2306.36 762,2315.5C 750.775,2332.72 738.775,2349.39 726,2365.5C 706.854,2393.7 701.521,2424.37 710,2457.5C 713.066,2469.03 716.732,2480.36 721,2491.5C 791.06,2678.35 860.727,2865.35 930,3052.5C 998.991,2865.19 1066.99,2677.53 1134,2489.5C 1142.21,2462.07 1145.54,2434.07 1144,2405.5C 1141.54,2387.91 1135.2,2371.91 1125,2357.5C 1112.95,2343.12 1101.29,2328.45 1090,2313.5C 1075.9,2290.37 1072.56,2265.7 1080,2239.5C 1090.58,2211.27 1110.74,2194.1 1140.5,2188C 1186.81,2186.85 1233.14,2186.35 1279.5,2186.5C 1323.5,2186.67 1367.5,2186.83 1411.5,2187C 1440.43,2189.05 1463.93,2201.21 1482,2223.5C 1495.19,2245.77 1498.19,2269.44 1491,2294.5C 1481.59,2317.92 1467.42,2338.09 1448.5,2355C 1427.74,2371.75 1408.24,2389.92 1390,2409.5C 1375.42,2427.65 1363.08,2447.32 1353,2468.5C 1339.17,2499.16 1326.17,2530.16 1314,2561.5C 1217.67,2804.5 1121.33,3047.5 1025,3290.5C 1005.5,3333.35 972.33,3357.85 925.5,3364C 895.018,3365.11 864.518,3365.61 834,3365.5C 802.152,3365.59 770.319,3365.09 738.5,3364C 686.741,3359.24 651.241,3332.74 632,3284.5C 522.609,3026.72 412.942,2769.05 303,2511.5C 285.295,2474.06 262.628,2440.06 235,2409.5C 214.333,2388.83 193.667,2368.17 173,2347.5C 146.476,2318.07 137.809,2284.07 147,2245.5C 157.562,2217.27 177.396,2199.11 206.5,2191C 213.259,2189.28 219.925,2187.78 226.5,2186.5 Z"/></g>
<g><path style="opacity:0.99" fill="#000000" d="M 4642.5,2965.5 C 4701.43,2961.06 4754.76,2975.89 4802.5,3010C 4854.01,3053.38 4879.68,3109.04 4879.5,3177C 4879.07,3256.9 4845.4,3317.9 4778.5,3360C 4717.62,3391.09 4654.29,3397.09 4588.5,3378C 4506.48,3349.3 4459.65,3291.8 4448,3205.5C 4440.31,3142.91 4455.64,3086.91 4494,3037.5C 4533.82,2993.84 4583.32,2969.84 4642.5,2965.5 Z"/></g>
</svg>